<svg width="23" height="24" viewBox="0 0 23 24" fill="none" xmlns="http://www.w3.org/2000/svg">
<path d="M19.481 11.9759C19.481 16.6225 15.8283 20.3893 11.3225 20.3893C9.47652 20.3893 3.16472 20.3893 3.16472 20.3893C3.16472 20.3893 4.57812 16.8894 4.01246 15.7159C3.46942 14.5893 3.16406 13.3194 3.16406 11.9759C3.16406 7.32931 6.81672 3.5625 11.3225 3.5625C15.8283 3.5625 19.481 7.32931 19.481 11.9759Z" fill="white" stroke="white" stroke-width="1.91987" stroke-linecap="round" stroke-linejoin="round"/>
<path d="M16.5018 12.722L13.463 15.9319L11.3958 18.1009L9.32856 15.9319L6.2898 12.722C5.07007 11.4423 5.07007 9.4036 6.2898 8.12386C7.48873 6.84413 9.45259 6.84413 10.6723 8.12386L11.3958 8.88292L12.1193 8.12386C13.339 6.84413 15.3029 6.84413 16.5018 8.12386C17.7215 9.4036 17.7215 11.4423 16.5018 12.722Z" fill="url(#paint0_radial_334_6568)"/>
<mask id="mask0_334_6568" style="mask-type:alpha" maskUnits="userSpaceOnUse" x="5" y="7" width="13" height="12">
<path d="M16.5018 12.722L13.463 15.9319L11.3958 18.1009L9.32856 15.9319L6.2898 12.722C5.07007 11.4423 5.07007 9.4036 6.2898 8.12386C7.48873 6.84413 9.45259 6.84413 10.6723 8.12386L11.3958 8.88292L12.1193 8.12386C13.339 6.84413 15.3029 6.84413 16.5018 8.12386C17.7215 9.4036 17.7215 11.4423 16.5018 12.722Z" fill="url(#paint1_radial_334_6568)"/>
</mask>
<g mask="url(#mask0_334_6568)">
<ellipse cx="14.434" cy="6.92923" rx="5.18402" ry="3.85892" fill="url(#paint2_radial_334_6568)"/>
<ellipse cx="11.4011" cy="19.1892" rx="5.18232" ry="6.25174" fill="url(#paint3_radial_334_6568)"/>
<ellipse cx="8.02777" cy="6.92923" rx="5.18402" ry="3.85892" fill="url(#paint4_radial_334_6568)"/>
</g>
<defs>
<radialGradient id="paint0_radial_334_6568" cx="0" cy="0" r="1" gradientUnits="userSpaceOnUse" gradientTransform="translate(11.3981 9.3129) rotate(139.469) scale(7.6112 9.4821)">
<stop stop-color="#FF0099"/>
<stop offset="1" stop-color="#E200A3"/>
</radialGradient>
<radialGradient id="paint1_radial_334_6568" cx="0" cy="0" r="1" gradientUnits="userSpaceOnUse" gradientTransform="translate(11.3981 9.3129) rotate(139.469) scale(7.6112 9.4821)">
<stop stop-color="#0094FF"/>
<stop offset="1" stop-color="#0057FF"/>
</radialGradient>
<radialGradient id="paint2_radial_334_6568" cx="0" cy="0" r="1" gradientUnits="userSpaceOnUse" gradientTransform="translate(14.4367 6.51393) rotate(134.112) scale(3.43988 3.43486)">
<stop stop-color="white" stop-opacity="0.75"/>
<stop offset="1" stop-color="#FF00C7" stop-opacity="0"/>
</radialGradient>
<radialGradient id="paint3_radial_334_6568" cx="0" cy="0" r="1" gradientUnits="userSpaceOnUse" gradientTransform="translate(11.4037 18.5164) rotate(120.889) scale(4.66249 4.10418)">
<stop stop-color="white" stop-opacity="0.75"/>
<stop offset="1" stop-color="#FF00C7" stop-opacity="0"/>
</radialGradient>
<radialGradient id="paint4_radial_334_6568" cx="0" cy="0" r="1" gradientUnits="userSpaceOnUse" gradientTransform="translate(8.0304 6.51393) rotate(134.112) scale(3.43988 3.43486)">
<stop stop-color="white" stop-opacity="0.75"/>
<stop offset="1" stop-color="#FF00C7" stop-opacity="0"/>
</radialGradient>
</defs>
</svg>
