<svg class="icon--not-pressed" role="presentation" width="16" height="16" viewBox="0 0 16 16" fill="none" xmlns="http://www.w3.org/2000/svg">
    <path d="M2.66675 6.00002V3.73335C2.66675 3.35999 2.66675 3.1733 2.73941 3.0307C2.80333 2.90525 2.90531 2.80327 3.03075 2.73935C3.17336 2.66669 3.36005 2.66669 3.73341 2.66669L6.00008 2.66669M2.66675 10V12.2667C2.66675 12.6401 2.66675 12.8267 2.73941 12.9693C2.80333 13.0948 2.90531 13.1968 3.03075 13.2607C3.17336 13.3334 3.36005 13.3334 3.73341 13.3334L6.00008 13.3334M10.0001 2.66669H12.2667C12.6401 2.66669 12.8268 2.66669 12.9694 2.73935C13.0949 2.80326 13.1968 2.90525 13.2608 3.03069C13.3334 3.1733 13.3334 3.35999 13.3334 3.73335V6.00002M13.3334 10V12.2667C13.3334 12.6401 13.3334 12.8267 13.2608 12.9693C13.1968 13.0948 13.0949 13.1968 12.9694 13.2607C12.8268 13.3334 12.6401 13.3334 12.2667 13.3334H10.0001" stroke="white" stroke-width="1.2" stroke-linecap="round" stroke-linejoin="round"></path>
</svg>
