<svg width="819" height="688" viewBox="0 0 819 688" fill="none" xmlns="http://www.w3.org/2000/svg">
<rect width="563.191" height="138.709" rx="69.3544" transform="matrix(-0.707107 0.707107 0.707107 0.707107 631.742 31)" fill="url(#paint0_linear_226_4348)"/>
<rect opacity="0.5" x="158.375" width="563.191" height="138.709" rx="69.3544" transform="rotate(45 158.375 0)" fill="url(#paint1_linear_226_4348)"/>
<rect width="498.014" height="162.105" rx="81.0527" transform="matrix(-0.707107 0.707107 0.707107 0.707107 704.016 80.2969)" fill="url(#paint2_linear_226_4348)"/>
<rect opacity="0.5" x="86.5156" y="49.2969" width="498.015" height="108.21" rx="54.1048" transform="rotate(45 86.5156 49.2969)" fill="url(#paint3_linear_226_4348)"/>
<rect opacity="0.5" x="159.211" y="2.08594" width="496.761" height="137.873" rx="68.9366" transform="rotate(45 159.211 2.08594)" fill="url(#paint4_linear_226_4348)"/>
<path fill-rule="evenodd" clip-rule="evenodd" d="M259.562 428.639L237.087 405.956C226.585 395.429 226.585 378.658 237.087 368.13C247.41 357.602 264.319 357.602 274.821 368.13L281.049 374.374L287.278 368.13C297.78 357.602 314.689 357.602 325.012 368.13C326.029 369.15 326.947 370.228 327.767 371.353L422.205 465.796L359.334 528.671L259.435 428.767L259.562 428.639Z" fill="url(#paint5_radial_226_4348)"/>
<path d="M318.943 399.902L318.932 399.912L318.922 399.923L292.779 426.308L292.759 426.329L281.049 438.067L269.34 426.329L269.32 426.308L243.177 399.923L243.167 399.912L243.156 399.902C235.992 392.72 235.992 381.366 243.156 374.184L243.182 374.158L243.208 374.132C250.141 367.061 261.57 366.985 268.751 374.184L274.821 368.13L268.751 374.184L274.98 380.429L281.049 386.513L287.119 380.429L293.348 374.184C300.529 366.985 311.958 367.061 318.891 374.132L318.917 374.158L318.943 374.184C326.107 381.366 326.107 392.72 318.943 399.902Z" fill="#318FFF" stroke="#318FFF" stroke-width="17.1448"/>
<path d="M265.078 392.935C262.754 393.765 261.957 393.011 261.291 391.156L260.429 388.766C259.6 386.441 260.353 385.644 262.208 384.979L264.598 384.117C266.923 383.287 267.72 384.04 268.385 385.896L269.248 388.286C270.077 390.61 269.324 391.407 267.469 392.073L265.078 392.935Z" fill="#FF4F3E"/>
<path d="M275.489 392.935C277.814 393.765 278.61 393.011 279.276 391.156L280.138 388.766C280.968 386.441 280.215 385.644 278.359 384.979L275.969 384.117C273.644 383.287 272.848 384.04 272.182 385.896L271.32 388.286C270.49 390.61 271.243 391.407 273.099 392.073L275.489 392.935Z" fill="#FABC22"/>
<path d="M286.86 392.931C284.535 393.77 283.738 393.007 283.072 391.152L282.21 388.763C281.381 386.44 282.134 385.644 283.989 384.978L286.379 384.116C288.704 383.287 289.501 384.04 290.167 385.894L291.029 388.283C291.858 390.607 291.105 391.403 289.25 392.069L286.86 392.931Z" fill="#06C92E"/>
<path d="M297.278 392.935C299.603 393.765 300.399 393.011 301.065 391.156L301.927 388.766C302.757 386.441 302.004 385.644 300.148 384.979L297.758 384.117C295.433 383.287 294.637 384.04 293.971 385.896L293.109 388.286C292.279 390.61 293.032 391.407 294.888 392.073L297.278 392.935Z" fill="#00C2FC"/>
<path d="M257.198 407.118C257.198 407.194 257.187 407.26 257.155 407.326C257.133 407.392 257.089 407.458 257.035 407.502C256.98 407.556 256.926 407.589 256.86 407.622C256.795 407.655 256.719 407.666 256.653 407.666H255.717C255.64 407.666 255.575 407.655 255.51 407.622C255.444 407.6 255.379 407.556 255.335 407.502C255.292 407.447 255.248 407.392 255.215 407.326C255.183 407.26 255.172 407.183 255.172 407.118V404.705C255.172 404.628 255.183 404.562 255.215 404.496C255.248 404.431 255.281 404.365 255.335 404.321C255.39 404.266 255.444 404.233 255.51 404.2C255.575 404.178 255.651 404.156 255.717 404.156H256.011C256.152 403.97 256.261 403.772 256.348 403.553C256.446 403.301 256.534 403.049 256.599 402.785C256.664 402.5 256.719 402.215 256.773 401.919C256.817 401.623 256.85 401.327 256.871 401.02L256.926 400.153C256.937 400 257.002 399.857 257.111 399.758C257.165 399.703 257.231 399.671 257.296 399.638C257.362 399.605 257.438 399.594 257.514 399.594H261.61C261.686 399.594 261.752 399.605 261.828 399.638C261.893 399.671 261.959 399.703 262.013 399.758C262.068 399.813 262.1 399.868 262.133 399.945C262.166 400.011 262.177 400.087 262.177 400.164V404.167H262.71C262.787 404.167 262.852 404.178 262.917 404.211C262.983 404.233 263.048 404.277 263.092 404.332C263.146 404.387 263.179 404.442 263.212 404.507C263.244 404.573 263.255 404.65 263.255 404.716V407.129C263.255 407.205 263.244 407.271 263.212 407.337C263.19 407.403 263.146 407.469 263.092 407.513C263.037 407.567 262.983 407.6 262.917 407.633C262.852 407.666 262.776 407.677 262.71 407.677H261.752C261.676 407.677 261.61 407.666 261.545 407.633C261.479 407.611 261.414 407.567 261.371 407.513C261.316 407.458 261.283 407.403 261.251 407.337C261.218 407.271 261.207 407.194 261.207 407.129V406.207H257.198V407.118ZM259.954 401.667H258.985L258.963 401.93C258.919 402.402 258.821 402.862 258.691 403.312C258.603 403.608 258.473 403.893 258.309 404.167H259.965V401.667H259.954Z" fill="white"/>
<path d="M265.842 403.638C265.94 403.922 266.145 404.164 266.416 404.301C266.708 404.449 267.032 404.522 267.368 404.512C267.584 404.512 267.79 404.501 268.006 404.47C268.19 404.438 268.363 404.396 268.536 404.333C268.634 404.301 268.742 404.28 268.85 404.28C268.958 404.28 269.056 404.301 269.153 404.354C269.24 404.406 269.315 404.48 269.359 404.575L269.575 405.028C269.618 405.101 269.64 405.196 269.64 405.28C269.64 405.375 269.618 405.47 269.575 405.544C269.532 405.628 269.456 405.691 269.38 405.744C269.023 405.944 268.634 406.091 268.233 406.176C267.865 406.239 267.498 406.27 267.13 406.27C266.632 406.281 266.134 406.197 265.669 406.028C265.258 405.881 264.879 405.649 264.565 405.354C264.252 405.059 264.014 404.691 263.851 404.301C263.678 403.869 263.592 403.406 263.602 402.932C263.602 402.49 263.689 402.047 263.851 401.647C264.014 401.247 264.252 400.879 264.565 400.573C264.879 400.257 265.258 400.015 265.669 399.857C266.134 399.678 266.632 399.594 267.13 399.594C267.541 399.594 267.941 399.667 268.32 399.804C268.699 399.941 269.034 400.152 269.326 400.415C269.618 400.678 269.856 401.005 270.019 401.352C270.192 401.742 270.289 402.153 270.278 402.574C270.278 402.785 270.267 402.995 270.235 403.206C270.213 403.322 270.148 403.416 270.051 403.501C269.964 403.585 269.856 403.627 269.737 403.638H265.842ZM268.114 402.226C268.114 402.005 268.017 401.784 267.844 401.626C267.736 401.531 267.617 401.458 267.476 401.405C267.335 401.363 267.195 401.342 267.054 401.352C266.762 401.331 266.459 401.405 266.21 401.563C266.004 401.732 265.853 401.953 265.766 402.205L268.114 402.226Z" fill="white"/>
<path d="M273.4 406.271C273.324 406.271 273.259 406.26 273.194 406.227C273.128 406.194 273.063 406.161 273.019 406.105C272.965 406.05 272.932 405.994 272.9 405.928C272.867 405.862 272.856 405.784 272.856 405.718V401.831H271.529C271.452 401.831 271.387 401.82 271.322 401.786C271.256 401.764 271.191 401.72 271.148 401.665C271.093 401.609 271.061 401.554 271.028 401.487C270.995 401.421 270.984 401.343 270.984 401.277V400.17C270.984 400.092 270.995 400.026 271.028 399.948C271.061 399.882 271.093 399.815 271.148 399.76C271.202 399.704 271.256 399.671 271.333 399.638C271.398 399.605 271.474 399.594 271.55 399.594H276.415C276.491 399.594 276.556 399.605 276.622 399.638C276.687 399.671 276.752 399.704 276.796 399.76C276.85 399.815 276.883 399.871 276.915 399.937C276.948 400.003 276.959 400.081 276.959 400.147V401.255C276.959 401.332 276.948 401.399 276.915 401.465C276.883 401.532 276.85 401.598 276.796 401.642C276.741 401.698 276.687 401.731 276.622 401.764C276.556 401.797 276.48 401.809 276.415 401.809H275.087V405.684C275.087 405.762 275.076 405.828 275.044 405.895C275.022 405.961 274.978 406.028 274.924 406.072C274.87 406.127 274.815 406.161 274.75 406.194C274.684 406.227 274.608 406.238 274.543 406.238H274.532L273.4 406.271Z" fill="white"/>
<path d="M282.132 401.816C281.822 401.658 281.467 401.574 281.113 401.563C280.936 401.563 280.758 401.595 280.592 401.647C280.426 401.7 280.271 401.795 280.138 401.911C279.994 402.026 279.883 402.174 279.806 402.342C279.717 402.532 279.673 402.732 279.684 402.932C279.684 403.132 279.728 403.332 279.817 403.511C279.906 403.669 280.016 403.817 280.16 403.943C280.437 404.175 280.792 404.301 281.157 404.301C281.523 404.291 281.888 404.185 282.199 403.996C282.32 403.911 282.464 403.869 282.608 403.869C282.697 403.869 282.786 403.89 282.863 403.922C282.941 403.964 283.007 404.017 283.063 404.08L283.517 404.659C283.594 404.754 283.639 404.87 283.639 404.996C283.639 405.08 283.616 405.175 283.583 405.249C283.539 405.323 283.483 405.396 283.406 405.449C283.04 405.744 282.608 405.976 282.143 406.112C281.778 406.207 281.39 406.26 281.013 406.27C280.493 406.281 279.972 406.197 279.485 406.028C279.053 405.881 278.654 405.649 278.31 405.354C277.989 405.059 277.734 404.701 277.568 404.301C277.391 403.869 277.302 403.406 277.313 402.932C277.313 402.49 277.402 402.058 277.568 401.647C277.734 401.247 277.978 400.879 278.288 400.573C278.598 400.268 278.986 400.026 279.396 399.857C279.85 399.678 280.338 399.594 280.836 399.594C281.235 399.594 281.645 399.625 282.032 399.71C282.431 399.804 282.819 399.962 283.162 400.194C283.262 400.236 283.339 400.31 283.395 400.394C283.45 400.478 283.483 400.584 283.483 400.678C283.483 400.773 283.45 400.868 283.395 400.952L282.963 401.626C282.919 401.71 282.841 401.784 282.752 401.837C282.664 401.889 282.564 401.911 282.453 401.911C282.343 401.889 282.232 401.868 282.132 401.816Z" fill="white"/>
<path d="M286.789 403.036V405.626C286.789 405.703 286.778 405.769 286.747 405.834C286.726 405.9 286.683 405.965 286.631 406.009C286.578 406.064 286.526 406.096 286.463 406.129C286.4 406.162 286.326 406.173 286.263 406.173H285.213C285.139 406.173 285.076 406.162 285.013 406.129C284.95 406.096 284.887 406.064 284.845 406.009C284.793 405.954 284.751 405.9 284.73 405.823C284.698 405.758 284.688 405.681 284.688 405.605V400.14C284.688 400.064 284.698 399.998 284.73 399.933C284.751 399.867 284.793 399.801 284.845 399.758C284.898 399.703 284.95 399.67 285.013 399.637C285.076 399.605 285.15 399.594 285.213 399.594H286.263C286.337 399.594 286.4 399.605 286.473 399.637C286.536 399.67 286.599 399.703 286.652 399.758C286.704 399.812 286.736 399.867 286.768 399.943C286.799 400.009 286.81 400.086 286.81 400.162V402.468L288.438 399.965C288.511 399.856 288.616 399.769 288.721 399.703C288.837 399.637 288.963 399.605 289.1 399.605H290.077C290.15 399.605 290.224 399.616 290.297 399.648C290.36 399.681 290.423 399.725 290.476 399.78C290.57 399.889 290.633 400.031 290.633 400.173C290.633 400.293 290.591 400.413 290.518 400.512L289.016 402.555L289.709 403.539C289.888 403.834 290.161 404.053 290.476 404.162C290.644 404.184 290.791 404.26 290.907 404.381C290.991 404.523 291.022 404.698 291.012 404.861V405.758C291.012 405.878 290.97 405.987 290.886 406.075C290.812 406.173 290.707 406.228 290.591 406.249C290.518 406.249 290.444 406.271 290.381 406.271C290.308 406.271 290.245 406.271 290.171 406.271C289.993 406.271 289.814 406.249 289.646 406.217C289.457 406.173 289.268 406.096 289.1 405.998C288.9 405.878 288.711 405.736 288.553 405.572C288.343 405.353 288.154 405.113 287.997 404.851L286.789 403.036Z" fill="white"/>
<path d="M297.444 406.271C297.368 406.271 297.303 406.26 297.238 406.227C297.173 406.194 297.108 406.161 297.065 406.105C297.011 406.05 296.978 405.994 296.946 405.928C296.913 405.862 296.902 405.784 296.902 405.718V402.783L294.835 405.895C294.76 406.005 294.673 406.094 294.565 406.161C294.457 406.227 294.337 406.271 294.208 406.26H292.963C292.887 406.26 292.822 406.249 292.757 406.216C292.692 406.183 292.628 406.149 292.584 406.094C292.53 406.039 292.487 405.983 292.465 405.906C292.433 405.839 292.422 405.762 292.422 405.684V400.147C292.422 400.07 292.433 400.003 292.465 399.937C292.487 399.871 292.53 399.804 292.584 399.76C292.638 399.704 292.692 399.671 292.757 399.638C292.822 399.605 292.898 399.594 292.963 399.594H294.045C294.121 399.594 294.186 399.605 294.262 399.638C294.327 399.671 294.392 399.704 294.446 399.76C294.5 399.815 294.532 399.871 294.565 399.948C294.597 400.015 294.608 400.092 294.608 400.17V403.082L296.675 399.97C296.751 399.871 296.837 399.782 296.935 399.704C297.032 399.638 297.162 399.594 297.281 399.605H298.537C298.612 399.605 298.677 399.616 298.753 399.649C298.818 399.682 298.883 399.716 298.937 399.771C298.991 399.826 299.024 399.882 299.056 399.959C299.089 400.026 299.099 400.103 299.099 400.181V405.718C299.099 405.795 299.089 405.862 299.056 405.928C299.024 405.994 298.991 406.061 298.937 406.105C298.883 406.161 298.829 406.194 298.764 406.227C298.699 406.26 298.623 406.271 298.558 406.271H298.547H297.444Z" fill="white"/>
<path d="M305.862 406.27C305.786 406.27 305.722 406.259 305.657 406.226C305.592 406.194 305.527 406.161 305.484 406.106C305.43 406.051 305.397 405.996 305.365 405.93C305.333 405.865 305.322 405.788 305.322 405.722V402.816L303.258 405.897C303.182 406.007 303.096 406.095 302.988 406.161C302.88 406.226 302.761 406.27 302.631 406.259H301.4C301.324 406.259 301.259 406.248 301.194 406.216C301.13 406.194 301.065 406.15 301.021 406.095C300.967 406.04 300.935 405.985 300.903 405.919C300.87 405.854 300.859 405.777 300.859 405.711V400.228C300.859 400.151 300.87 400.085 300.903 400.008C300.935 399.942 300.967 399.877 301.021 399.822C301.075 399.767 301.13 399.734 301.205 399.701C301.27 399.668 301.346 399.657 301.421 399.657H302.491C302.567 399.657 302.631 399.668 302.707 399.701C302.772 399.734 302.837 399.767 302.891 399.822C302.945 399.877 302.977 399.932 303.01 400.008C303.042 400.074 303.053 400.151 303.053 400.228V403.112L305.117 400.03C305.192 399.932 305.279 399.844 305.376 399.767C305.473 399.701 305.603 399.657 305.722 399.668H306.975C307.051 399.668 307.115 399.679 307.191 399.712C307.256 399.745 307.321 399.778 307.375 399.833C307.429 399.888 307.461 399.942 307.494 400.019C307.526 400.085 307.537 400.162 307.537 400.239V405.722C307.537 405.799 307.526 405.865 307.494 405.93C307.472 405.996 307.429 406.062 307.375 406.106C307.321 406.161 307.267 406.194 307.202 406.226C307.137 406.259 307.061 406.27 306.997 406.27H306.986H305.862ZM305.549 396.784C305.668 396.773 305.797 396.795 305.905 396.839C306.024 396.883 306.121 396.949 306.208 397.036C306.359 397.212 306.435 397.442 306.424 397.683C306.424 397.881 306.37 398.067 306.273 398.243C306.175 398.407 306.035 398.55 305.873 398.648C305.506 398.912 304.954 399.043 304.22 399.043C303.409 399.043 302.826 398.912 302.48 398.648C302.318 398.539 302.188 398.396 302.102 398.232C302.005 398.067 301.961 397.87 301.961 397.683C301.951 397.442 302.037 397.212 302.178 397.036C302.264 396.949 302.361 396.883 302.48 396.839C302.599 396.795 302.718 396.784 302.837 396.795C303.031 396.773 303.226 396.828 303.388 396.949C303.507 397.058 303.593 397.19 303.636 397.343C303.679 397.464 303.744 397.574 303.842 397.672C303.95 397.771 304.101 397.815 304.241 397.804C304.306 397.804 304.371 397.804 304.436 397.782C304.501 397.76 304.555 397.727 304.609 397.683C304.695 397.585 304.76 397.475 304.792 397.354C304.836 397.201 304.922 397.058 305.041 396.96C305.181 396.828 305.365 396.773 305.549 396.784Z" fill="white"/>
<path d="M271.417 416.608C271.417 416.686 271.406 416.752 271.373 416.819C271.351 416.885 271.307 416.951 271.253 416.996C271.198 417.051 271.143 417.084 271.077 417.118C271.012 417.151 270.935 417.162 270.869 417.162H269.774C269.697 417.162 269.632 417.151 269.566 417.118C269.5 417.095 269.435 417.051 269.391 416.996C269.336 416.94 269.303 416.885 269.27 416.819C269.238 416.752 269.227 416.675 269.227 416.608V411.06C269.227 410.983 269.238 410.916 269.27 410.839C269.303 410.772 269.336 410.706 269.391 410.65C269.446 410.595 269.5 410.562 269.577 410.529C269.643 410.495 269.719 410.484 269.796 410.484H270.836C270.968 410.484 271.099 410.518 271.209 410.584C271.329 410.639 271.428 410.728 271.505 410.828L273.191 412.755L274.746 410.85C274.823 410.75 274.932 410.662 275.042 410.595C275.151 410.529 275.283 410.495 275.403 410.495H276.389C276.466 410.495 276.531 410.507 276.608 410.54C276.674 410.573 276.739 410.606 276.794 410.662C276.849 410.717 276.882 410.772 276.915 410.85C276.947 410.916 276.958 410.994 276.958 411.071V416.608C276.958 416.686 276.947 416.752 276.915 416.819C276.893 416.885 276.849 416.951 276.794 416.996C276.739 417.051 276.685 417.084 276.619 417.118C276.553 417.151 276.477 417.162 276.411 417.162H275.316C275.239 417.162 275.173 417.151 275.108 417.118C275.042 417.084 274.976 417.051 274.932 416.996C274.878 416.94 274.845 416.885 274.812 416.819C274.779 416.752 274.768 416.675 274.768 416.608V413.895L273.542 415.324C273.498 415.379 273.432 415.423 273.366 415.457C273.301 415.49 273.224 415.501 273.158 415.501C273.092 415.501 273.016 415.49 272.95 415.457C272.884 415.423 272.83 415.39 272.775 415.335L271.472 413.895L271.417 416.608Z" fill="white"/>
<path d="M283.373 417.159C283.297 417.159 283.232 417.148 283.168 417.114C283.103 417.081 283.038 417.048 282.995 416.993C282.941 416.938 282.909 416.882 282.876 416.816C282.844 416.75 282.833 416.672 282.833 416.606V413.676L280.773 416.783C280.697 416.893 280.611 416.982 280.503 417.048C280.395 417.114 280.277 417.159 280.147 417.148H278.907C278.831 417.148 278.766 417.137 278.702 417.103C278.637 417.07 278.572 417.037 278.529 416.982C278.475 416.926 278.443 416.871 278.41 416.805C278.378 416.739 278.367 416.661 278.367 416.595V411.067C278.367 410.99 278.378 410.923 278.41 410.846C278.443 410.78 278.475 410.713 278.529 410.658C278.583 410.603 278.637 410.57 278.712 410.536C278.777 410.503 278.853 410.492 278.928 410.492H279.996C280.072 410.492 280.136 410.503 280.212 410.536C280.277 410.57 280.341 410.603 280.395 410.658C280.449 410.713 280.482 410.769 280.514 410.846C280.546 410.912 280.557 410.99 280.557 411.067V413.975L282.617 410.868C282.693 410.769 282.779 410.68 282.887 410.614C282.984 410.547 283.114 410.503 283.232 410.514H284.484C284.559 410.514 284.624 410.525 284.699 410.559C284.764 410.592 284.829 410.625 284.883 410.68C284.937 410.735 284.969 410.791 285.002 410.868C285.034 410.934 285.045 411.012 285.045 411.089V416.617C285.045 416.694 285.034 416.761 285.002 416.827C284.969 416.893 284.937 416.96 284.883 417.004C284.829 417.059 284.775 417.092 284.71 417.125C284.646 417.159 284.57 417.17 284.505 417.17H283.373V417.159Z" fill="white"/>
<path d="M288.652 419.095C288.652 419.17 288.641 419.234 288.608 419.298C288.575 419.362 288.542 419.426 288.487 419.469C288.432 419.523 288.376 419.555 288.31 419.587C288.244 419.619 288.167 419.63 288.1 419.63H286.997C286.92 419.63 286.854 419.619 286.787 419.587C286.721 419.555 286.655 419.523 286.611 419.469C286.556 419.416 286.523 419.362 286.489 419.298C286.456 419.234 286.445 419.159 286.445 419.095V410.869C286.445 410.794 286.456 410.73 286.489 410.655C286.523 410.591 286.556 410.527 286.611 410.473C286.666 410.42 286.721 410.388 286.798 410.356C286.865 410.324 286.942 410.313 287.019 410.313H288.167C288.233 410.313 288.288 410.324 288.354 410.345C288.409 410.366 288.465 410.398 288.509 410.441C288.553 410.484 288.586 410.538 288.619 410.591C288.641 410.645 288.652 410.709 288.663 410.773V410.784C288.884 410.591 289.138 410.441 289.414 410.334C289.756 410.195 290.131 410.131 290.506 410.142C290.925 410.142 291.345 410.217 291.72 410.388C292.084 410.548 292.404 410.784 292.658 411.072C292.923 411.383 293.121 411.736 293.254 412.121C293.397 412.538 293.474 412.987 293.474 413.426C293.474 413.896 293.386 414.356 293.22 414.795C293.055 415.212 292.812 415.586 292.492 415.907C292.172 416.228 291.786 416.474 291.367 416.645C290.903 416.838 290.407 416.923 289.899 416.923C289.678 416.923 289.447 416.902 289.226 416.87C289.027 416.849 288.84 416.795 288.663 416.72L288.652 419.095ZM288.652 414.699C288.796 414.784 288.95 414.848 289.116 414.891C289.303 414.934 289.491 414.945 289.689 414.945C289.888 414.955 290.087 414.934 290.274 414.859C290.462 414.784 290.627 414.666 290.76 414.527C290.992 414.239 291.113 413.875 291.102 413.501C291.113 413.158 290.992 412.827 290.771 412.559C290.649 412.431 290.506 412.324 290.329 412.26C290.164 412.196 289.976 412.163 289.8 412.174C289.579 412.185 289.358 412.238 289.16 412.335C288.961 412.431 288.785 412.57 288.652 412.741V414.699Z" fill="white"/>
<rect opacity="0.5" x="18.6953" y="223.172" width="418.926" height="12.3007" rx="6.15034" transform="rotate(45 18.6953 223.172)" fill="url(#paint6_linear_226_4348)"/>
<path d="M324.47 540.849L240.333 454.034L258.452 440.428L339.885 524.931L324.47 540.849Z" fill="url(#paint7_linear_226_4348)"/>
<path d="M247.473 431.93L244.79 440.429L236.108 440.429L243.132 445.682L240.449 454.182L247.473 448.929L254.496 454.182L251.813 445.682L258.837 440.429L250.155 440.429L247.473 431.93Z" fill="url(#paint8_radial_226_4348)"/>
<path d="M518.546 184.672L518.962 190.594L524.429 191.044L518.962 191.495L518.546 197.417L518.13 191.495L512.664 191.044L518.13 190.594L518.546 184.672Z" fill="url(#paint9_radial_226_4348)"/>
<path d="M518.546 184.672L518.962 190.594L524.429 191.044L518.962 191.495L518.546 197.417L518.13 191.495L512.664 191.044L518.13 190.594L518.546 184.672Z" fill="white"/>
<path d="M331.562 274.578L331.839 277.767L335.484 278.009L331.839 278.252L331.562 281.441L331.285 278.252L327.641 278.009L331.285 277.767L331.562 274.578Z" fill="white"/>
<path fill-rule="evenodd" clip-rule="evenodd" d="M557.489 344.091L562.469 339.078C564.854 336.692 564.854 332.893 562.469 330.508C560.124 328.122 556.284 328.122 553.899 330.508L552.484 331.922L551.07 330.508C548.684 328.122 544.844 328.122 542.5 330.508C542.028 330.979 541.65 331.506 541.365 332.065L411.21 462.228L425.375 476.393L557.579 344.182L557.489 344.091Z" fill="url(#paint10_radial_226_4348)"/>
<path d="M542.5 339.078L548.442 345.06L552.484 349.103L556.527 345.06L562.469 339.078C564.854 336.692 564.854 332.893 562.469 330.508C560.124 328.122 556.284 328.122 553.899 330.508L552.484 331.922L551.07 330.508C548.684 328.122 544.844 328.122 542.5 330.508C540.115 332.893 540.115 336.692 542.5 339.078Z" fill="url(#paint11_radial_226_4348)"/>
<path fill-rule="evenodd" clip-rule="evenodd" d="M558.855 426.645L578.423 406.943C587.963 397.403 587.963 382.204 578.423 372.663C569.045 363.123 553.684 363.123 544.143 372.663L538.484 378.322L532.825 372.663C524.378 364.216 511.367 363.248 501.986 369.76L499.87 367.643L402.716 464.825L465.58 527.707L562.734 430.525L558.855 426.645Z" fill="url(#paint12_radial_226_4348)"/>
<path d="M557.812 398.895V389.055H562.507C563.417 389.055 564.201 389.205 564.861 389.505C565.529 389.804 566.045 390.236 566.407 390.798C566.769 391.351 566.95 392.007 566.95 392.766C566.95 393.525 566.769 394.181 566.407 394.734C566.045 395.287 565.529 395.718 564.861 396.027C564.201 396.327 563.417 396.477 562.507 396.477H559.637L561.1 395.057V398.895H557.812ZM561.1 395.423L559.637 393.919H562.298C562.753 393.919 563.087 393.816 563.301 393.609C563.524 393.403 563.635 393.122 563.635 392.766C563.635 392.41 563.524 392.129 563.301 391.923C563.087 391.716 562.753 391.613 562.298 391.613H559.637L561.1 390.109V395.423Z" fill="white"/>
<path d="M552.023 392.71H556.357V395.1H552.023V392.71ZM552.246 396.393H557.107V398.895H549.023V389.055H556.926V391.557H552.246V396.393Z" fill="white"/>
<path d="M538.477 398.895V389.055H547.966V398.895H544.714V390.924L545.429 391.627H541.014L541.728 390.924V398.895H538.477Z" fill="white"/>
<path d="M524.951 399.247C524.169 399.247 523.442 399.122 522.771 398.872C522.109 398.613 521.531 398.248 521.038 397.777C520.553 397.307 520.176 396.75 519.905 396.107C519.635 395.463 519.5 394.753 519.5 393.975C519.5 393.197 519.635 392.486 519.905 391.843C520.176 391.2 520.553 390.643 521.038 390.172C521.531 389.702 522.109 389.342 522.771 389.092C523.442 388.833 524.169 388.703 524.951 388.703C525.911 388.703 526.759 388.876 527.495 389.222C528.241 389.567 528.856 390.067 529.341 390.72L527.258 392.635C526.969 392.261 526.647 391.973 526.293 391.771C525.949 391.56 525.557 391.454 525.119 391.454C524.774 391.454 524.462 391.512 524.183 391.627C523.903 391.742 523.661 391.91 523.456 392.131C523.26 392.352 523.106 392.621 522.995 392.938C522.883 393.245 522.827 393.591 522.827 393.975C522.827 394.359 522.883 394.709 522.995 395.026C523.106 395.334 523.26 395.598 523.456 395.819C523.661 396.039 523.903 396.207 524.183 396.323C524.462 396.438 524.774 396.495 525.119 396.495C525.557 396.495 525.949 396.395 526.293 396.193C526.647 395.982 526.969 395.689 527.258 395.314L529.341 397.23C528.856 397.873 528.241 398.373 527.495 398.728C526.759 399.074 525.911 399.247 524.951 399.247Z" fill="white"/>
<path d="M530.792 392.233C531.308 392.364 531.712 392.409 532.003 392.368C532.295 392.319 532.553 392.143 532.777 391.841L533.202 391.252L533.452 390.982L535.986 385.891H538.833L535.324 392.356C534.941 393.059 534.48 393.607 533.938 394C533.406 394.384 532.815 394.605 532.166 394.663C531.516 394.72 530.83 394.605 530.105 394.319L530.792 392.233ZM533.414 393.252L529.344 385.891H532.453L535.012 391.252L533.414 393.252Z" fill="white"/>
<path d="M549.167 419.629C548.745 419.629 548.313 419.564 547.872 419.433C547.44 419.311 547.093 419.147 546.83 418.941L547.886 416.765C548.045 416.887 548.224 416.985 548.421 417.06C548.627 417.135 548.824 417.173 549.012 417.173C549.294 417.173 549.51 417.112 549.66 416.99C549.81 416.878 549.932 416.705 550.026 416.471L550.35 415.656L550.575 415.347L553.039 409.086H556.052L552.884 416.92C552.602 417.622 552.274 418.169 551.898 418.562C551.532 418.955 551.119 419.232 550.659 419.391C550.209 419.55 549.711 419.629 549.167 419.629ZM549.913 417.116L546.562 409.086H549.829L552.138 415.067L549.913 417.116Z" fill="white"/>
<path d="M542.87 416.818C542.013 416.818 541.253 416.654 540.59 416.327C539.936 415.991 539.421 415.531 539.043 414.95C538.665 414.368 538.477 413.7 538.477 412.945C538.477 412.19 538.665 411.522 539.043 410.94C539.421 410.359 539.936 409.904 540.59 409.577C541.253 409.25 542.013 409.086 542.87 409.086C543.726 409.086 544.486 409.25 545.149 409.577C545.812 409.904 546.328 410.359 546.696 410.94C547.074 411.522 547.263 412.19 547.263 412.945C547.263 413.7 547.074 414.368 546.696 414.95C546.328 415.531 545.812 415.991 545.149 416.327C544.486 416.654 543.726 416.818 542.87 416.818ZM542.87 414.418C543.1 414.418 543.307 414.363 543.491 414.254C543.676 414.145 543.823 413.981 543.933 413.763C544.044 413.536 544.099 413.263 544.099 412.945C544.099 412.618 544.044 412.35 543.933 412.14C543.823 411.922 543.676 411.759 543.491 411.65C543.307 411.54 543.1 411.486 542.87 411.486C542.639 411.486 542.432 411.54 542.248 411.65C542.064 411.759 541.916 411.922 541.806 412.14C541.695 412.35 541.64 412.618 541.64 412.945C541.64 413.263 541.695 413.536 541.806 413.763C541.916 413.981 542.064 414.145 542.248 414.254C542.432 414.363 542.639 414.418 542.87 414.418Z" fill="white"/>
<path d="M530.42 414.316L529.75 415.009V409.086H532.828V415.009L532.144 414.316H535.031L534.361 415.009V409.086H537.426V416.818H525.125V409.086H528.204V415.009L527.533 414.316H530.42Z" fill="white"/>
<path d="M543.641 408.037L541.595 404.489L544.078 402.99L547.271 408.037H543.641ZM538.484 408.037V400.305H541.568V408.037H538.484ZM540.667 405.464V403.019H543.45V405.464H540.667ZM544.392 404.517L541.5 404.234L543.873 400.305H547.12L544.392 404.517Z" fill="white"/>
<path d="M528.992 408.037V400.305H532.043V403.808L534.606 400.305H537.427V408.037H534.376V404.541L531.826 408.037H528.992Z" fill="white"/>
<path d="M525.084 407.894V406.511L524.866 406.14V403.517C524.866 403.137 524.753 402.847 524.526 402.648C524.308 402.448 523.95 402.348 523.451 402.348C523.115 402.348 522.775 402.405 522.43 402.519C522.085 402.624 521.79 402.771 521.545 402.961L520.565 400.837C521 400.552 521.522 400.333 522.13 400.181C522.738 400.029 523.333 399.953 523.914 399.953C525.193 399.953 526.182 400.253 526.881 400.851C527.589 401.45 527.943 402.4 527.943 403.703V407.894H525.084ZM522.974 408.036C522.366 408.036 521.858 407.927 521.45 407.709C521.041 407.49 520.733 407.2 520.524 406.839C520.315 406.468 520.211 406.06 520.211 405.613C520.211 405.109 520.333 404.681 520.578 404.33C520.823 403.978 521.196 403.712 521.695 403.531C522.203 403.351 522.843 403.261 523.614 403.261H525.166V404.815H524.104C523.777 404.815 523.537 404.872 523.383 404.986C523.237 405.09 523.165 405.252 523.165 405.47C523.165 405.651 523.228 405.803 523.355 405.926C523.492 406.041 523.673 406.098 523.9 406.098C524.109 406.098 524.299 406.041 524.472 405.926C524.653 405.803 524.785 405.613 524.866 405.356L525.261 406.311C525.143 406.891 524.894 407.324 524.512 407.609C524.131 407.894 523.619 408.036 522.974 408.036Z" fill="white"/>
<path d="M510.719 407.821L510.844 405.189C510.899 405.198 510.955 405.208 511.011 405.217C511.066 405.217 511.117 405.217 511.164 405.217C511.368 405.217 511.53 405.179 511.65 405.102C511.771 405.016 511.863 404.896 511.928 404.743C512.002 404.58 512.053 404.388 512.081 404.167C512.109 403.937 512.128 403.674 512.137 403.376L512.248 399.953H519.505V407.821H516.363V401.809L517.044 402.485H514.319L514.959 401.765L514.889 403.506C514.862 404.215 514.801 404.853 514.709 405.419C514.616 405.975 514.468 406.449 514.264 406.843C514.069 407.226 513.8 407.523 513.457 407.734C513.124 407.936 512.697 408.036 512.178 408.036C511.975 408.036 511.748 408.017 511.497 407.979C511.256 407.941 510.997 407.888 510.719 407.821Z" fill="white"/>
<path d="M535.648 397.526L534.406 398.764L533.562 399.6L532.717 398.764L531.475 397.526C530.977 397.033 530.977 396.246 531.475 395.753C531.965 395.259 532.768 395.259 533.266 395.753L533.562 396.046L533.857 395.753C534.356 395.259 535.158 395.259 535.648 395.753C536.146 396.246 536.146 397.033 535.648 397.526Z" fill="white"/>
<path d="M499.27 405.956L525.433 432.363L543.232 450.205L561.03 432.363L587.194 405.956C597.696 395.429 597.696 378.658 587.194 368.13C576.871 357.602 559.963 357.602 549.461 368.13L543.232 374.374L537.003 368.13C526.501 357.602 509.592 357.602 499.27 368.13C488.768 378.658 488.768 395.429 499.27 405.956Z" fill="url(#paint13_radial_226_4348)"/>
<path d="M562.961 397.999V388.125H567.703C568.623 388.125 569.415 388.275 570.081 388.576C570.757 388.877 571.278 389.31 571.643 389.874C572.009 390.429 572.192 391.087 572.192 391.849C572.192 392.611 572.009 393.269 571.643 393.824C571.278 394.379 570.757 394.811 570.081 395.121C569.415 395.422 568.623 395.573 567.703 395.573H564.804L566.282 394.148V397.999H562.961ZM566.282 394.515L564.804 393.006H567.492C567.952 393.006 568.29 392.902 568.505 392.695C568.73 392.488 568.843 392.206 568.843 391.849C568.843 391.492 568.73 391.209 568.505 391.003C568.29 390.796 567.952 390.692 567.492 390.692H564.804L566.282 389.183V394.515Z" fill="white"/>
<path d="M557.057 391.793H561.449V394.191H557.057V391.793ZM557.282 395.488H562.209V397.999H554.016V388.125H562.026V390.636H557.282V395.488Z" fill="white"/>
<path d="M543.492 397.999V388.125H553.045V397.999H549.772V390.001L550.491 390.706H546.046L546.766 390.001V397.999H543.492Z" fill="white"/>
<path d="M529.975 398.245C529.187 398.245 528.454 398.123 527.779 397.878C527.112 397.624 526.53 397.266 526.033 396.805C525.545 396.343 525.165 395.797 524.893 395.166C524.62 394.535 524.484 393.839 524.484 393.076C524.484 392.313 524.62 391.616 524.893 390.985C525.165 390.355 525.545 389.808 526.033 389.347C526.53 388.886 527.112 388.532 527.779 388.288C528.454 388.033 529.187 387.906 529.975 387.906C530.942 387.906 531.796 388.076 532.537 388.415C533.288 388.754 533.907 389.243 534.395 389.884L532.298 391.762C532.007 391.395 531.683 391.113 531.326 390.915C530.979 390.708 530.585 390.604 530.144 390.604C529.797 390.604 529.482 390.661 529.201 390.774C528.919 390.887 528.675 391.051 528.469 391.268C528.271 391.484 528.117 391.748 528.004 392.059C527.891 392.36 527.835 392.699 527.835 393.076C527.835 393.452 527.891 393.796 528.004 394.107C528.117 394.408 528.271 394.667 528.469 394.884C528.675 395.1 528.919 395.265 529.201 395.378C529.482 395.491 529.797 395.548 530.144 395.548C530.585 395.548 530.979 395.449 531.326 395.251C531.683 395.044 532.007 394.757 532.298 394.389L534.395 396.268C533.907 396.899 533.288 397.389 532.537 397.737C531.796 398.076 530.942 398.245 529.975 398.245Z" fill="white"/>
<path d="M535.751 391.291C536.261 391.422 536.66 391.467 536.948 391.426C537.235 391.377 537.49 391.201 537.712 390.898L538.132 390.308L538.378 390.037L540.882 384.938H543.695L540.229 391.414C539.85 392.118 539.394 392.667 538.859 393.06C538.333 393.445 537.749 393.667 537.108 393.724C536.467 393.781 535.788 393.667 535.073 393.38L535.751 391.291ZM538.341 392.311L534.32 384.938H537.392L539.92 390.308L538.341 392.311Z" fill="white"/>
<path d="M554.4 418.793C553.983 418.793 553.557 418.728 553.121 418.598C552.695 418.478 552.352 418.316 552.092 418.112L553.135 415.961C553.292 416.081 553.469 416.178 553.663 416.252C553.867 416.326 554.062 416.363 554.247 416.363C554.525 416.363 554.738 416.303 554.887 416.183C555.035 416.072 555.155 415.9 555.248 415.669L555.568 414.864L555.79 414.559L558.223 408.367H561.198L558.07 416.113C557.792 416.807 557.468 417.349 557.097 417.738C556.736 418.126 556.328 418.399 555.874 418.557C555.429 418.714 554.938 418.793 554.4 418.793ZM555.137 416.308L551.828 408.367H555.053L557.333 414.281L555.137 416.308Z" fill="white"/>
<path d="M547.817 416.116C546.959 416.116 546.197 415.949 545.533 415.615C544.877 415.272 544.36 414.803 543.982 414.21C543.603 413.616 543.414 412.934 543.414 412.164C543.414 411.394 543.603 410.713 543.982 410.119C544.36 409.525 544.877 409.061 545.533 408.727C546.197 408.394 546.959 408.227 547.817 408.227C548.676 408.227 549.437 408.394 550.102 408.727C550.766 409.061 551.283 409.525 551.653 410.119C552.031 410.713 552.22 411.394 552.22 412.164C552.22 412.934 552.031 413.616 551.653 414.21C551.283 414.803 550.766 415.272 550.102 415.615C549.437 415.949 548.676 416.116 547.817 416.116ZM547.817 413.667C548.048 413.667 548.256 413.611 548.44 413.5C548.625 413.389 548.773 413.222 548.883 412.999C548.994 412.767 549.05 412.489 549.05 412.164C549.05 411.83 548.994 411.557 548.883 411.343C548.773 411.121 548.625 410.954 548.44 410.842C548.256 410.731 548.048 410.675 547.817 410.675C547.586 410.675 547.379 410.731 547.194 410.842C547.01 410.954 546.862 411.121 546.751 411.343C546.64 411.557 546.585 411.83 546.585 412.164C546.585 412.489 546.64 412.767 546.751 412.999C546.862 413.222 547.01 413.389 547.194 413.5C547.379 413.611 547.586 413.667 547.817 413.667Z" fill="white"/>
<path d="M535.516 413.513L534.834 414.195V408.367H537.964V414.195L537.269 413.513H540.204L539.522 414.195V408.367H542.638V415.975H530.133V408.367H533.263V414.195L532.581 413.513H535.516Z" fill="white"/>
<path d="M548.731 407.026L546.655 403.551L549.174 402.083L552.412 407.026H548.731ZM543.5 407.026V399.453H546.627V407.026H543.5ZM545.714 404.506V402.111H548.537V404.506H545.714ZM549.492 403.579L546.558 403.302L548.966 399.453H552.26L549.492 403.579Z" fill="white"/>
<path d="M533.992 407.061V399.453H537.114V402.9L539.736 399.453H542.622V407.061H539.501V403.622L536.892 407.061H533.992Z" fill="white"/>
<path d="M530.231 406.953V405.604L530.009 405.242V402.682C530.009 402.311 529.893 402.028 529.661 401.833C529.439 401.638 529.073 401.541 528.564 401.541C528.221 401.541 527.874 401.596 527.522 401.708C527.17 401.81 526.869 401.954 526.619 402.139L525.619 400.066C526.064 399.788 526.596 399.574 527.217 399.426C527.837 399.277 528.444 399.203 529.036 399.203C530.342 399.203 531.352 399.495 532.065 400.08C532.787 400.664 533.148 401.592 533.148 402.863V406.953H530.231ZM528.078 407.093C527.457 407.093 526.939 406.986 526.522 406.773C526.105 406.559 525.79 406.276 525.577 405.924C525.364 405.562 525.258 405.163 525.258 404.727C525.258 404.235 525.383 403.818 525.633 403.475C525.883 403.132 526.263 402.872 526.772 402.696C527.291 402.519 527.944 402.431 528.731 402.431H530.314V403.948H529.231C528.897 403.948 528.652 404.004 528.495 404.115C528.346 404.217 528.272 404.375 528.272 404.588C528.272 404.764 528.337 404.913 528.467 405.033C528.606 405.145 528.791 405.2 529.022 405.2C529.235 405.2 529.43 405.145 529.606 405.033C529.791 404.913 529.925 404.727 530.009 404.477L530.412 405.409C530.291 405.975 530.037 406.397 529.648 406.675C529.259 406.953 528.735 407.093 528.078 407.093Z" fill="white"/>
<path d="M515.711 406.954L515.836 404.408C515.891 404.417 515.947 404.427 516.002 404.436C516.058 404.436 516.109 404.436 516.155 404.436C516.359 404.436 516.521 404.399 516.641 404.325C516.761 404.241 516.854 404.125 516.918 403.977C516.992 403.819 517.043 403.634 517.071 403.42C517.099 403.198 517.117 402.943 517.127 402.655L517.238 399.344H524.482V406.954H521.346V401.139L522.026 401.792H519.305L519.944 401.097L519.874 402.78C519.847 403.467 519.787 404.083 519.694 404.631C519.601 405.169 519.453 405.628 519.25 406.008C519.056 406.379 518.787 406.667 518.445 406.871C518.112 407.065 517.686 407.163 517.168 407.163C516.965 407.163 516.738 407.144 516.488 407.107C516.248 407.07 515.989 407.019 515.711 406.954Z" fill="white"/>
<path d="M540.776 396.548L539.562 397.763L538.735 398.584L537.909 397.763L536.694 396.548C536.206 396.064 536.206 395.293 536.694 394.808C537.173 394.324 537.958 394.324 538.446 394.808L538.735 395.096L539.024 394.808C539.512 394.324 540.297 394.324 540.776 394.808C541.264 395.293 541.264 396.064 540.776 396.548Z" fill="#52FF00"/>
<path fill-rule="evenodd" clip-rule="evenodd" d="M573.106 462.335L573.278 462.508L577.622 458.117L584.007 451.619C586.57 449.028 586.57 444.901 584.007 442.31C581.488 439.719 577.361 439.719 574.798 442.31L573.278 443.847L571.757 442.31C569.441 439.969 565.846 439.743 563.316 441.635L563.15 441.469L507.021 497.666L522.419 513.083L573.106 462.335Z" fill="url(#paint14_radial_226_4348)"/>
<path d="M562.837 451.226L569.022 457.557L573.23 461.834L577.437 457.557L583.622 451.226C586.105 448.703 586.105 444.682 583.622 442.158C581.182 439.635 577.185 439.635 574.702 442.158L573.23 443.655L571.757 442.158C569.274 439.635 565.277 439.635 562.837 442.158C560.354 444.682 560.354 448.703 562.837 451.226Z" fill="url(#paint15_radial_226_4348)"/>
<rect x="242.023" y="496.859" width="340" height="57.881" fill="#0D020D"/>
<rect x="242.023" y="496.859" width="340" height="57.881" fill="url(#paint16_linear_226_4348)" fill-opacity="0.5"/>
<ellipse cx="412.023" cy="497.67" rx="170" ry="15.381" fill="#0D020D"/>
<ellipse cx="412.023" cy="497.67" rx="170" ry="15.381" fill="url(#paint17_radial_226_4348)"/>
<ellipse cx="412.023" cy="497.67" rx="170" ry="15.381" fill="white" fill-opacity="0.2"/>
<ellipse cx="412.023" cy="497.264" rx="170" ry="15.381" fill="#0D020D"/>
<ellipse cx="412.023" cy="497.264" rx="170" ry="15.381" fill="url(#paint18_radial_226_4348)"/>
<path d="M269.804 336.344L270.22 341.81L275.687 342.226L270.22 342.642L269.804 348.108L269.388 342.642L263.922 342.226L269.388 341.81L269.804 336.344Z" fill="url(#paint19_radial_226_4348)"/>
<path d="M269.804 336.344L270.22 341.81L275.687 342.226L270.22 342.642L269.804 348.108L269.388 342.642L263.922 342.226L269.388 341.81L269.804 336.344Z" fill="url(#paint20_radial_226_4348)"/>
<path d="M313.917 242.227L314.68 252.248L324.701 253.011L314.68 253.773L313.917 263.795L313.155 253.773L303.133 253.011L313.155 252.248L313.917 242.227Z" fill="url(#paint21_radial_226_4348)"/>
<path d="M313.917 242.227L314.68 252.248L324.701 253.011L314.68 253.773L313.917 263.795L313.155 253.773L303.133 253.011L313.155 252.248L313.917 242.227Z" fill="url(#paint22_radial_226_4348)"/>
<path d="M313.917 242.227L314.68 252.248L324.701 253.011L314.68 253.773L313.917 263.795L313.155 253.773L303.133 253.011L313.155 252.248L313.917 242.227Z" fill="url(#paint23_radial_226_4348)"/>
<path opacity="0.1" d="M584.937 292.728L584.935 292.731L575.783 301.936L575.781 301.938L570.293 307.421L564.806 301.938L564.804 301.936L555.652 292.731L555.65 292.728C552.383 289.465 552.383 284.278 555.65 281.015L555.65 281.015L555.656 281.009C558.855 277.757 564.106 277.748 567.376 281.015L569.556 283.192L570.293 283.929L571.031 283.192L573.21 281.015C576.481 277.748 581.732 277.757 584.931 281.009L584.931 281.009L584.937 281.015C588.204 284.278 588.204 289.465 584.937 292.728Z" stroke="white" stroke-width="2.08718"/>
<path opacity="0.1" d="M275.26 310.35L275.258 310.352L267.914 317.74L267.912 317.742L263.508 322.141L259.105 317.742L259.103 317.74L251.759 310.352L251.757 310.35C249.135 307.731 249.135 303.569 251.757 300.95L251.757 300.95L251.762 300.945C254.329 298.336 258.543 298.328 261.167 300.95L262.916 302.698L263.508 303.289L264.1 302.698L265.849 300.95C268.474 298.328 272.688 298.336 275.255 300.945L275.255 300.945L275.26 300.95C277.881 303.569 277.881 307.731 275.26 310.35Z" stroke="white" stroke-width="1.67498"/>
<path d="M218.82 295.172L219.097 297.905L222.742 298.113L219.097 298.321L218.82 301.054L218.543 298.321L214.898 298.113L218.543 297.905L218.82 295.172Z" fill="white"/>
<path fill-rule="evenodd" clip-rule="evenodd" d="M327.711 436.759L322.237 431.242C319.567 428.569 319.567 424.311 322.237 421.638C324.861 418.965 329.16 418.965 331.83 421.638L333.414 423.223L334.997 421.638C337.37 419.262 341.029 418.998 343.656 420.844L343.784 420.716L371.892 448.772L355.723 464.91L327.615 436.854L327.711 436.759Z" fill="url(#paint24_linear_226_4348)" fill-opacity="0.25"/>
<g filter="url(#filter0_f_226_4348)">
<path d="M343.663 430.316L343.66 430.319L337.012 437.02L337.008 437.024L333.414 440.622L329.819 437.024L329.816 437.02L323.167 430.319L323.167 430.319L323.164 430.316C321.005 428.154 321.005 424.725 323.164 422.564L323.164 422.564L323.172 422.556C325.278 420.41 328.74 420.399 330.903 422.564L332.486 424.149L333.414 425.077L334.341 424.149L335.925 422.564L334.997 421.638L335.925 422.564C338.087 420.399 341.549 420.41 343.655 422.556L343.655 422.556L343.663 422.564C345.822 424.725 345.822 428.154 343.663 430.316Z" stroke="#00FFE1" stroke-width="2.62106"/>
</g>
<path d="M344.037 430.689L344.035 430.691L337.385 437.393L337.383 437.395L333.414 441.369L329.444 437.395L329.442 437.393L322.792 430.691L322.791 430.689C320.426 428.321 320.426 424.558 322.791 422.191L322.791 422.191L322.795 422.186C325.11 419.828 328.909 419.821 331.276 422.191L332.86 423.776L333.414 424.331L333.967 423.776L335.551 422.191C337.918 419.821 341.717 419.828 344.032 422.186L344.032 422.186L344.037 422.191C346.401 424.558 346.401 428.321 344.037 430.689Z" stroke="#00FFE1" stroke-width="1.56539"/>
<g filter="url(#filter1_f_226_4348)">
<path d="M344.295 430.947L344.294 430.948L337.643 437.652L337.642 437.653L333.414 441.886L329.185 437.653L329.184 437.652L322.533 430.948L322.532 430.947C320.025 428.437 320.025 424.443 322.532 421.933L322.532 421.933L322.535 421.93C324.994 419.425 329.026 419.421 331.535 421.933L333.118 423.518L333.414 423.814L333.709 423.518L335.293 421.933C337.801 419.421 341.833 419.425 344.293 421.93L344.293 421.93L344.295 421.933C346.802 424.443 346.802 428.437 344.295 430.947Z" stroke="#96FFC0" stroke-width="0.834873"/>
</g>
<path fill-rule="evenodd" clip-rule="evenodd" d="M483.759 453.293L483.838 453.373L489.69 447.449L498.293 438.681C501.746 435.186 501.746 429.617 498.293 426.122C494.899 422.626 489.339 422.626 485.886 426.122L483.838 428.195L481.789 426.122C478.41 422.701 473.013 422.628 469.602 425.903L469.492 425.792L418.12 477.304L438.967 498.207L483.759 453.293Z" fill="url(#paint25_radial_226_4348)"/>
<path d="M393.412 356.596L259.09 222.525L288.149 201.381L418.152 331.882L393.412 356.596Z" fill="url(#paint26_linear_226_4348)"/>
<path d="M270.358 188.305L266.097 201.418L252.308 201.418L263.464 209.523L259.203 222.637L270.358 214.532L281.513 222.637L277.252 209.523L288.407 201.418L274.619 201.418L270.358 188.305Z" fill="url(#paint27_radial_226_4348)"/>
<path d="M459.042 329.752L569.455 216.035L545.411 197.937L438.55 308.63L459.042 329.752Z" fill="url(#paint28_linear_226_4348)"/>
<path d="M560.124 187.109L563.635 198.159H574.998L565.805 204.988L569.316 216.037L560.124 209.208L550.931 216.037L554.442 204.988L545.25 198.159H556.613L560.124 187.109Z" fill="url(#paint29_radial_226_4348)"/>
<g filter="url(#filter2_f_226_4348)">
<ellipse cx="408.308" cy="555.704" rx="232.449" ry="17.0789" fill="#0647C7"/>
</g>
<g filter="url(#filter3_f_226_4348)">
<ellipse cx="431.043" cy="567.868" rx="232.449" ry="17.0789" fill="#0647C7"/>
</g>
<g filter="url(#filter4_f_226_4348)">
<ellipse cx="437.324" cy="556.165" rx="232.449" ry="17.0789" fill="#0647C7"/>
</g>
<g filter="url(#filter5_f_226_4348)">
<ellipse cx="457.973" cy="544.938" rx="232.449" ry="17.0789" fill="#0647C7"/>
</g>
<g filter="url(#filter6_f_226_4348)">
<ellipse cx="300.012" cy="572.548" rx="232.449" ry="17.0789" fill="#0647C7"/>
</g>
<g filter="url(#filter7_f_226_4348)">
<ellipse cx="256.035" cy="551.024" rx="232.449" ry="17.0789" fill="#0647C7"/>
</g>
<g filter="url(#filter8_dddddd_226_4348)">
<path d="M515.343 342.717C514.983 342.556 514.701 342.327 514.494 342.034C513.541 340.697 514.555 338.402 516.758 336.916C518.217 335.932 519.833 335.516 521.099 335.803L521.859 335.974L518.494 322.92C518.466 322.804 518.512 322.688 518.611 322.629C518.821 322.503 523.793 319.603 528.041 321.499C528.501 321.704 528.941 321.966 529.351 322.265C529.41 322.311 529.448 322.373 529.457 322.442C529.466 322.51 529.448 322.58 529.408 322.64C529.332 322.735 529.196 322.771 529.08 322.719C528.665 322.418 528.264 322.187 527.849 322.002C524.629 320.564 520.872 322.093 519.405 322.815L519.065 322.98L522.692 337.089C523.19 338.507 522.137 340.462 520.2 341.769C518.511 342.909 516.604 343.28 515.343 342.717ZM521.384 336.454C520.311 335.974 518.579 336.339 517.062 337.362C516.138 337.984 515.403 338.774 514.999 339.583C514.581 340.424 514.554 341.207 514.927 341.736C515.079 341.946 515.293 342.119 515.564 342.24C516.632 342.717 518.369 342.354 519.886 341.331C521.841 340.013 522.798 338.048 522.015 336.955C521.864 336.745 521.649 336.572 521.378 336.451L521.384 336.454Z" fill="#00FFBA"/>
</g>
<g filter="url(#filter9_dddddd_226_4348)">
<path d="M434.994 313.863C434.403 313.405 434.077 312.835 434.046 312.225C434.017 311.493 434.431 310.789 435.217 310.226C436.071 309.625 437.25 309.267 438.537 309.217C440.029 309.164 441.402 309.535 442.312 310.241C442.4 310.309 442.487 310.377 442.558 310.455L443.11 310.984L447.208 298.832C447.25 298.718 447.353 298.645 447.476 298.647L459.754 299.082C459.816 299.083 459.87 299.103 459.914 299.136C459.938 299.155 459.958 299.17 459.969 299.195C460.022 299.267 460.034 299.361 460.005 299.439L455.513 312.788C455.167 314.185 453.298 315.233 451.06 315.317C449.855 315.361 448.704 315.124 447.815 314.65C447.618 314.543 447.433 314.422 447.268 314.295C446.677 313.836 446.351 313.267 446.32 312.657C446.284 311.873 446.754 311.127 447.639 310.557C448.475 310.018 449.605 309.692 450.816 309.652C452.308 309.599 453.684 309.965 454.595 310.672C454.682 310.739 454.769 310.807 454.84 310.885L455.392 311.414L459.37 299.617L447.66 299.199L443.235 312.353C442.888 313.749 441.019 314.798 438.782 314.882C437.576 314.926 436.425 314.689 435.536 314.215C435.34 314.108 435.154 313.987 434.989 313.86L434.994 313.863ZM441.988 310.66C441.203 310.051 439.922 309.713 438.569 309.766C436.327 309.846 434.547 310.94 434.601 312.201C434.619 312.647 434.879 313.072 435.344 313.433C435.479 313.538 435.636 313.636 435.805 313.729C436.592 314.154 437.67 314.374 438.767 314.331C441.009 314.251 442.79 313.156 442.736 311.896C442.712 311.446 442.456 311.016 441.991 310.655L441.988 310.66ZM454.27 311.09C453.485 310.482 452.204 310.143 450.851 310.196C449.758 310.235 448.703 310.535 447.951 311.015C447.239 311.472 446.855 312.046 446.883 312.631C446.901 313.077 447.161 313.502 447.626 313.863C447.762 313.968 447.918 314.067 448.087 314.159C448.874 314.585 449.953 314.804 451.049 314.761C453.292 314.681 455.072 313.587 455.018 312.326C454.995 311.876 454.739 311.446 454.274 311.086L454.27 311.09Z" fill="#00FFBA"/>
</g>
<g filter="url(#filter10_dddddd_226_4348)">
<path d="M481.39 392.251C481.657 392.227 481.89 392.142 482.088 391.997C482.997 391.34 482.846 389.61 481.75 388.138C481.023 387.163 480.071 386.524 479.191 386.424L478.662 386.363L483.703 378.596C483.746 378.526 483.742 378.44 483.691 378.379C483.583 378.249 481.009 375.223 477.849 375.497C477.507 375.527 477.165 375.598 476.835 375.7C476.786 375.717 476.748 375.749 476.727 375.792C476.706 375.834 476.703 375.884 476.715 375.932C476.744 376.012 476.823 376.066 476.91 376.059C477.245 375.956 477.554 375.896 477.863 375.869C480.258 375.662 482.348 377.515 483.138 378.32L483.321 378.506L477.879 386.902C477.246 387.716 477.497 389.233 478.461 390.527C479.301 391.656 480.451 392.332 481.39 392.251ZM478.864 386.784C479.662 386.715 480.701 387.347 481.455 388.36C481.916 388.977 482.216 389.66 482.3 390.281C482.385 390.925 482.231 391.443 481.873 391.704C481.73 391.807 481.553 391.871 481.351 391.889C480.557 391.958 479.515 391.326 478.76 390.313C477.787 389.006 477.6 387.505 478.346 386.969C478.49 386.866 478.666 386.801 478.868 386.784L478.864 386.784Z" fill="#00FFBA"/>
</g>
<path d="M504.836 333.814C503.862 325.235 498.227 318.013 490.309 315.406C488.35 314.757 484.673 315.01 482.727 316.475C482.535 316.632 482.21 316.896 482.042 317.136C481.802 317.473 481.429 318.11 481.381 318.698C481.645 318.47 482.102 318.686 482.102 318.987C482.03 321.366 483.88 324.057 486.404 324.262C487.533 324.117 488.687 324.154 489.792 324.25C491.33 324.382 492.868 324.658 494.37 325.031C494.598 325.091 494.694 325.271 494.694 325.451C494.694 325.704 494.49 325.956 494.178 325.884C492.616 325.499 490.994 325.199 489.383 325.091C488.482 325.031 487.557 325.007 486.644 325.091C486.596 325.103 486.536 325.115 486.488 325.115H486.464C485.695 325.211 484.926 325.391 484.217 325.704C483.508 326.016 482.871 326.497 482.426 327.121C481.97 327.794 481.778 328.575 481.669 329.368C481.621 329.741 481.609 330.101 481.633 330.462C481.645 330.474 481.645 330.498 481.645 330.51C481.657 330.654 481.669 330.786 481.693 330.93C481.693 330.93 481.693 330.93 481.705 330.954C481.838 331.772 482.186 332.553 482.787 333.189C483.82 334.319 485.238 335.004 486.704 335.508C487.016 335.593 487.293 335.701 487.617 335.797C487.966 335.893 488.326 335.989 488.675 336.073L488.711 336.097C488.795 336.109 488.855 336.133 488.903 336.193C488.915 336.217 488.939 336.229 488.951 336.241C488.987 336.277 488.999 336.325 489.011 336.374C489.023 336.422 489.035 336.458 489.035 336.506C489.035 336.554 489.023 336.614 489.011 336.662C488.987 336.722 488.963 336.77 488.927 336.806C488.915 336.83 488.891 336.842 488.867 336.866C488.807 336.902 488.723 336.938 488.627 336.938H488.59C487.581 336.986 486.536 337.251 485.635 337.719C484.349 338.404 483.544 339.57 483.556 341.06C483.556 341.889 483.76 342.838 484.097 343.619C484.217 343.883 484.481 344.34 484.721 344.616C485.07 345.025 485.502 345.397 485.959 345.686C487.545 346.659 489.468 347.007 491.306 347.152C491.582 347.152 491.739 347.416 491.739 347.632C491.739 347.764 491.691 347.873 491.606 347.945C491.546 347.993 491.462 348.029 491.342 348.017C491.282 348.005 491.21 348.005 491.15 348.005C489.023 347.825 486.8 347.392 485.058 346.106C484.193 345.469 483.532 344.616 483.159 343.607C482.763 342.538 482.571 341.288 482.763 340.171C483.087 338.176 484.769 336.926 486.62 336.386C484.745 335.773 482.895 334.86 481.729 333.261C480.78 331.952 480.6 330.33 480.888 328.78C481.057 327.866 481.369 327.013 481.97 326.304C482.535 325.607 483.316 325.127 484.133 324.802C484.301 324.73 484.469 324.67 484.637 324.622C482.583 323.625 481.165 321.294 481.225 319.023C481.225 318.903 481.273 318.807 481.345 318.734C480.72 317.881 479.771 317.281 478.389 317.172C470.002 316.5 469.642 327.65 471.816 330.39C457.241 336.95 443.099 349.086 433.679 358.242C433.666 358.266 433.642 358.278 433.618 358.29C433.282 358.615 432.958 358.927 432.645 359.239C436.034 354.974 440.251 348.99 440.071 345.974C439.891 343.186 438.869 339.738 437.692 336.566C439.062 336.241 441.441 334.92 439.038 329.729C436.851 325.007 434.375 327.133 433.799 327.734C433.727 327.578 433.679 327.506 433.679 327.506C424.102 315.923 410.164 316.343 401.645 318.434C401.392 317.629 400.936 316.548 400.227 316.391C397.079 315.694 393.738 317.557 392.26 318.698C391.107 319.588 391.599 321.642 391.972 322.748C385.291 326.821 383.188 327.386 380.677 331.111C378.034 335.016 379.139 339.438 381.386 354.649C381.386 354.649 381.17 354.95 380.797 355.527C372.41 342.634 363.23 312.618 363.23 312.618C363.23 312.618 370.452 304.015 364.576 299.834C358.7 295.64 352.044 305.649 352.044 305.649C340.953 299.485 331.557 296.265 328.601 300.386C325.981 304.051 329.995 307.788 332.915 309.663C327.652 307.031 322.677 305.553 320.911 309.663C319.601 312.703 322.401 315.442 325.633 317.389C322.257 316.331 318.844 316.283 318.123 320.609C316.873 328.203 338.213 333.958 338.213 333.958C346.877 348.041 356.886 361.655 363.386 370.847C366.751 375.593 367.664 381.613 365.826 387.104C360.382 403.433 356.465 424.713 360.298 448.048C360.298 448.048 359.433 466.011 361.176 475.119C364.24 491.064 367.616 491.148 367.616 491.148C367.352 491.172 359.517 491.941 358.4 501.758C358.316 502.575 358.592 503.404 359.169 504.005C360.455 505.387 363.579 507.502 370.764 508.03C381.254 508.799 395.036 498.009 395.036 498.009C395.036 498.009 396.286 497.12 396.189 492.086H396.201C396.334 484.359 397.223 467.85 403.879 467.093C409.178 466.48 413.336 472.764 419.356 486.234C422.612 493.491 425.94 501.193 431.624 506.024C437.596 511.106 449.299 517.883 457.181 513.45C461.05 511.263 460.329 503.789 459.572 502.143C457.037 496.664 453.048 492.098 453.048 492.098C453.673 474.987 450.957 461.758 442.378 442.701C442.378 442.701 440.047 420.003 433.751 402.604C431.311 391.79 453.637 373.37 491.342 354.277C491.342 354.277 493.12 353.556 495.499 351.886C497.362 350.588 499.585 348.714 501.628 346.166C503.178 344.208 504.127 342.117 504.607 339.93C504.776 339.137 504.884 338.32 504.944 337.503C504.956 337.287 504.968 337.082 504.968 336.878C504.98 336.482 504.98 336.097 504.968 335.701C504.944 335.064 504.896 334.439 504.836 333.802V333.814Z" fill="#53AFFA"/>
<path d="M501.628 346.181C503.178 344.223 504.127 342.132 504.608 339.945C504.151 342.168 503.202 344.295 501.628 346.278C499.585 348.837 497.362 350.663 495.5 351.901C497.362 350.603 499.585 348.729 501.628 346.181Z" fill="url(#paint30_linear_226_4348)"/>
<path d="M504.946 337.516C504.886 338.345 504.79 339.15 504.609 339.943C504.778 339.15 504.886 338.333 504.946 337.516Z" fill="url(#paint31_linear_226_4348)"/>
<path d="M504.838 333.768C503.865 325.189 498.242 317.968 490.311 315.348C488.353 314.699 484.664 314.94 482.717 316.405C482.477 316.598 482.177 316.85 482.021 317.078C481.744 317.499 481.42 317.955 481.348 318.7C481.684 318.352 482.105 318.64 482.105 318.941C482.033 321.32 483.883 324.011 486.406 324.204C487.536 324.072 488.689 324.108 489.795 324.204C491.345 324.336 492.871 324.6 494.373 324.985C494.913 325.129 494.733 325.97 494.192 325.838C492.63 325.441 491.008 325.153 489.398 325.045C488.497 324.985 487.572 324.973 486.659 325.069C486.611 325.069 486.55 325.081 486.502 325.093H486.478C485.697 325.189 484.928 325.369 484.231 325.682C483.522 325.994 482.886 326.463 482.441 327.099C481.984 327.76 481.792 328.553 481.684 329.346C481.636 329.719 481.624 330.079 481.648 330.44C481.648 330.452 481.648 330.476 481.648 330.488C481.66 330.632 481.684 330.776 481.696 330.908C481.696 330.908 481.696 330.92 481.696 330.932C481.84 331.762 482.189 332.531 482.777 333.167C483.811 334.297 485.229 334.982 486.695 335.486C487.043 335.619 487.283 335.667 487.608 335.775C487.956 335.883 488.317 335.967 488.665 336.051C488.665 336.051 488.689 336.051 488.701 336.051C488.785 336.051 488.857 336.099 488.906 336.159C488.918 336.183 488.942 336.195 488.954 336.207C488.99 336.243 489.002 336.292 489.014 336.328C489.062 336.484 489.038 336.652 488.93 336.772C488.918 336.796 488.894 336.808 488.869 336.832C488.809 336.88 488.725 336.904 488.629 336.904H488.581C487.572 336.952 486.526 337.217 485.625 337.685C484.34 338.37 483.522 339.536 483.546 341.026C483.546 341.867 483.751 342.804 484.087 343.585C484.207 343.849 484.484 344.306 484.724 344.582C485.06 344.991 485.505 345.351 485.962 345.64C487.548 346.625 489.47 346.961 491.297 347.106C491.741 347.13 491.958 347.658 491.705 347.851C491.633 347.899 491.453 347.971 491.345 347.971C491.273 347.971 491.213 347.971 491.152 347.959C489.026 347.779 486.803 347.358 485.06 346.06C484.195 345.423 483.534 344.57 483.162 343.561C482.765 342.48 482.561 341.242 482.765 340.113C483.102 338.118 484.772 336.88 486.623 336.34C484.748 335.727 482.898 334.814 481.732 333.215C480.783 331.906 480.603 330.284 480.891 328.722C481.059 327.82 481.372 326.955 481.972 326.246C482.549 325.561 483.318 325.081 484.135 324.744C484.303 324.672 484.472 324.612 484.64 324.564C482.585 323.567 481.167 321.248 481.227 318.965C481.227 318.845 481.276 318.749 481.336 318.688C480.711 317.835 479.762 317.235 478.392 317.126C470.005 316.466 469.644 327.604 471.819 330.344C457.244 336.904 443.102 349.04 433.681 358.196C433.657 358.208 433.645 358.232 433.621 358.244C426.628 365.057 422.242 370.212 422.242 370.212L423.876 381.158L433.753 402.558C431.314 391.744 453.663 373.36 491.369 354.279C491.369 354.279 493.123 353.51 495.502 351.84C497.353 350.542 499.588 348.668 501.618 346.12C503.889 343.273 504.85 340.149 504.959 336.844C504.959 336.448 504.959 336.051 504.959 335.655C504.935 335.03 504.886 334.393 504.826 333.768H504.838Z" fill="url(#paint32_linear_226_4348)"/>
<path d="M488.711 336.039C488.795 336.039 488.868 336.087 488.916 336.147C488.868 336.099 488.795 336.063 488.711 336.039Z" fill="url(#paint33_linear_226_4348)"/>
<path d="M489.014 336.328C489.062 336.484 489.038 336.652 488.93 336.772C489.026 336.652 489.062 336.484 489.014 336.328Z" fill="url(#paint34_linear_226_4348)"/>
<path d="M504.972 336.828C504.876 340.169 503.915 343.341 501.632 346.212C499.589 348.76 497.366 350.586 495.516 351.836C497.366 350.538 499.601 348.664 501.632 346.116C503.903 343.269 504.864 340.144 504.972 336.84V336.828Z" fill="url(#paint35_linear_226_4348)"/>
<path d="M488.916 336.147C488.916 336.147 488.795 336.063 488.711 336.039C488.795 336.039 488.868 336.087 488.916 336.147Z" fill="#53AFFA"/>
<path d="M488.93 336.756C489.026 336.636 489.062 336.468 489.014 336.312C489.062 336.468 489.038 336.636 488.93 336.756Z" fill="#53AFFA"/>
<path d="M494.189 325.824C492.627 325.427 491.005 325.139 489.395 325.031C488.493 324.971 487.568 324.959 486.655 325.055C486.607 325.055 486.547 325.067 486.499 325.079H486.475C485.694 325.175 484.925 325.355 484.228 325.668C483.519 325.98 482.882 326.449 482.437 327.086C481.981 327.747 481.789 328.54 481.68 329.333C481.632 329.705 481.62 330.066 481.644 330.426C481.644 330.438 481.644 330.462 481.644 330.474C481.644 330.618 481.668 330.75 481.693 330.895C481.693 330.895 481.693 330.907 481.693 330.919C481.837 331.748 482.185 332.517 482.774 333.154C483.807 334.283 485.225 334.968 486.691 335.473C486.991 335.581 487.304 335.677 487.604 335.761C487.953 335.869 488.313 335.965 488.662 336.049C488.662 336.049 488.686 336.049 488.698 336.049C488.782 336.073 488.854 336.109 488.902 336.158C488.914 336.182 488.938 336.194 488.95 336.206C488.986 336.242 488.998 336.29 489.01 336.326C489.058 336.47 489.01 336.65 488.926 336.77C488.914 336.794 488.89 336.806 488.866 336.83C488.806 336.878 488.722 336.903 488.626 336.903H488.578C487.568 336.951 486.523 337.215 485.622 337.684C484.336 338.368 483.519 339.534 483.543 341.024C483.543 341.865 483.747 342.802 484.084 343.583C484.204 343.848 484.48 344.304 484.72 344.581C485.057 344.989 485.502 345.35 485.958 345.638C487.544 346.623 489.467 346.96 491.293 347.104C491.738 347.128 491.846 347.693 491.593 347.897C491.521 347.945 491.437 347.981 491.329 347.969C491.257 347.969 491.197 347.969 491.137 347.957C489.01 347.777 486.787 347.356 485.045 346.059C484.18 345.422 483.519 344.569 483.146 343.559C482.75 342.478 482.546 341.24 482.75 340.111C483.086 338.116 484.757 336.878 486.607 336.338C484.732 335.725 482.882 334.812 481.717 333.214C480.767 331.904 480.587 330.282 480.875 328.72C481.044 327.819 481.356 326.953 481.957 326.245C482.534 325.56 483.303 325.079 484.12 324.743C484.288 324.671 484.456 324.61 484.624 324.562C482.57 323.565 481.152 321.246 481.212 318.963C481.212 318.819 481.284 318.711 481.368 318.639C481.62 318.422 482.089 318.506 482.077 318.927C482.005 321.306 483.855 323.998 486.379 324.19C487.508 324.058 488.662 324.094 489.767 324.19C491.317 324.322 492.843 324.586 494.345 324.971C494.886 325.115 494.706 325.956 494.165 325.824H494.189Z" fill="#53AFFA"/>
<path d="M488.719 336.039C488.803 336.039 488.875 336.087 488.924 336.147C488.875 336.099 488.803 336.063 488.719 336.039Z" fill="#53AFFA"/>
<path d="M488.938 336.756C489.033 336.636 489.069 336.468 489.021 336.312C489.069 336.468 489.045 336.636 488.938 336.756Z" fill="#53AFFA"/>
<path d="M419.44 394.36C409.058 383.702 398.004 393.795 397.079 394.588C396.154 393.795 381.494 378.631 371.798 390.959C362.005 403.407 366.583 450.641 395.324 457.406C401.585 458.884 408.722 454.546 411.57 451.47C426.794 435.033 428.932 404.104 419.428 394.348L419.44 394.36Z" fill="white"/>
<path d="M370.304 492.469C370.448 492.409 370.58 492.301 370.724 492.241C370.905 492.133 370.905 492.109 371.025 492.049C372.863 492.325 374.666 492.854 376.336 493.647C376.264 493.695 376.204 493.755 376.131 493.803C375.663 494.176 375.254 494.596 374.882 495.053C373.464 496.819 372.683 499.006 372.322 501.205C371.998 503.223 371.986 505.266 372.166 507.285C372.214 507.898 373.188 507.91 373.14 507.285C372.767 502.995 373.128 497.504 376.72 494.56C376.768 494.512 376.804 494.488 376.852 494.452H376.864H376.888C376.888 494.452 376.9 494.428 376.912 494.416C376.973 494.368 377.045 494.32 377.117 494.284C377.177 494.236 377.249 494.188 377.309 494.152C378.499 494.8 379.616 495.605 380.613 496.555C381.887 497.768 382.944 499.162 383.81 500.676C384.11 501.217 384.951 500.736 384.651 500.195C383.137 497.564 381.046 495.281 378.438 493.671C376.408 492.433 374.125 491.616 371.782 491.208C370.736 491.027 369.691 490.919 368.634 490.883C368.009 490.859 368.009 491.82 368.634 491.845L369.282 491.881C368.381 492.289 367.516 492.794 366.711 493.334C364.548 494.776 362.638 496.699 361.58 499.09C360.871 500.712 360.595 502.454 360.727 504.221C360.775 504.834 361.749 504.834 361.701 504.221C361.484 501.361 362.458 498.681 364.392 496.567C365.798 495.017 367.564 493.803 369.451 492.878C369.619 492.794 369.799 492.71 369.967 492.638C370.039 492.602 370.112 492.577 370.184 492.541C370.208 492.529 370.22 492.517 370.256 492.505M376.72 493.383C376.72 493.383 376.744 493.359 376.756 493.359C376.744 493.371 376.732 493.383 376.72 493.395V493.383Z" fill="#0087EA"/>
<path d="M442.787 498.528C442.787 498.528 442.704 498.504 442.68 498.492C442.716 498.492 442.764 498.516 442.787 498.528Z" fill="#0087EA"/>
<path d="M454.344 499.035C453.215 497.881 451.965 496.836 450.643 495.899C451.472 495.959 452.301 496.103 453.107 496.343C453.707 496.523 453.972 495.598 453.371 495.418C450.115 494.469 446.75 494.949 443.758 496.463C441.511 497.593 439.529 499.227 437.81 501.041C437.414 501.462 437.065 502.003 436.609 502.363C436.128 502.76 436.813 503.432 437.294 503.048C437.642 502.76 437.919 502.339 438.219 502.015C438.904 501.27 439.625 500.561 440.394 499.9C441.043 499.335 441.74 498.806 442.461 498.338C442.509 498.398 442.569 498.458 442.641 498.494H442.617C442.653 498.53 442.689 498.554 442.713 498.578C442.857 498.722 443.001 498.878 443.133 499.035C443.53 499.503 443.951 500.14 444.323 500.741C445.573 502.82 446.402 505.115 446.93 507.47C447.351 509.38 447.543 511.327 447.579 513.273C447.579 513.886 448.565 513.886 448.553 513.273C448.492 509.957 447.952 506.617 446.738 503.505C446.029 501.69 445.116 499.912 443.866 498.41C443.71 498.218 443.53 497.989 443.314 497.809C444.671 497.016 446.137 496.415 447.675 496.091C448.108 496.007 448.553 495.947 448.985 495.911C448.997 495.923 449.009 495.935 449.033 495.947C453.407 498.818 457.204 502.856 458.478 508.01C458.634 508.623 458.73 509.248 458.826 509.873C458.91 510.474 459.847 510.221 459.763 509.621C459.186 505.583 457.228 501.967 454.356 499.035H454.344ZM442.677 498.494C442.677 498.494 442.761 498.518 442.785 498.53C442.737 498.53 442.701 498.506 442.677 498.494Z" fill="#0087EA"/>
<path d="M442.578 498.484C442.578 498.473 442.578 498.461 442.555 498.461C442.555 498.461 442.566 498.473 442.578 498.484Z" fill="#0087EA"/>
<path d="M442.787 498.528C442.787 498.528 442.704 498.504 442.68 498.492C442.716 498.492 442.764 498.516 442.787 498.528Z" fill="#0087EA"/>
<path d="M433.63 358.305C433.293 358.629 432.969 358.942 432.656 359.254C432.993 358.917 433.305 358.605 433.63 358.305Z" fill="#53AFFA"/>
<path d="M370.354 382.276C371.147 380.017 352.823 357.667 338.248 334.008C338.248 334.008 316.776 328.145 318.038 320.539C319.54 312.188 331.075 319.938 330.967 319.902C330.967 319.902 318.302 315.42 320.814 309.604C322.94 304.678 327.975 306.757 334.56 310.53C334.56 310.53 324.382 306.108 328.504 300.328C331.459 296.195 340.964 299.535 352.066 305.699C352.066 305.699 358.711 295.69 364.599 299.884C370.475 304.065 363.253 312.668 363.253 312.668C363.253 312.668 373.274 345.423 381.938 357.199L370.342 382.276H370.354Z" fill="url(#paint36_linear_226_4348)"/>
<path d="M337.263 315.308C337.263 315.308 332.577 317.495 332.312 320.547C332.349 327.047 340.76 330.328 346.671 321.136C348.75 317.903 351.958 312.532 348.221 308.567C345.398 305.803 340.856 306.236 337.275 315.308H337.263Z" fill="#53AFFA"/>
<path d="M426.039 339.442C426.063 337.339 418.938 332.821 411.104 330.73C403.882 328.796 395.964 329.132 394.654 330.129C392.539 331.752 389.908 336.041 390.148 339.358C390.412 343.022 398.199 352.25 403.534 353.764C408.652 355.278 421.545 350.688 423.768 347.732C425.787 345.065 426.015 342.073 426.039 339.43V339.442Z" fill="white"/>
<path d="M396.66 334.336C396.66 334.336 404.194 342.771 420.211 339.419C420.211 339.419 417.58 341.762 416.727 344.237C415.573 347.553 409.601 349.055 405.732 348.551C400.457 347.842 397.694 345.354 397.946 339.647C398.042 337.436 396.648 334.348 396.648 334.348L396.66 334.336Z" fill="#003461"/>
<path d="M398.848 344.646C398.848 344.646 406.057 342.23 411.513 348.046C411.513 348.046 405.973 349.872 401.227 347.121C399.413 346.051 398.836 344.646 398.836 344.646H398.848Z" fill="#FF846E"/>
<path d="M425.112 331.594C424.283 329.443 422.312 327.22 419.777 327.436C418.479 327.557 417.338 328.205 416.34 328.987C415.848 329.371 416.545 330.044 417.025 329.659C418.311 328.662 420.029 327.917 421.591 328.746C422.613 329.287 423.322 330.224 423.862 331.209C423.958 331.378 424.043 331.546 424.115 331.726C424.127 331.762 424.139 331.786 424.151 331.822C424.127 331.786 424.103 331.702 424.139 331.786C424.139 331.81 424.151 331.822 424.163 331.846C424.379 332.423 425.316 332.171 425.1 331.594H425.112Z" fill="#0071DF"/>
<path d="M407.699 326.292C406.581 324.526 404.49 322.952 402.28 323.396C401.21 323.613 400.297 324.298 399.552 325.067C399.119 325.511 399.804 326.184 400.237 325.739C401.258 324.682 402.592 323.949 404.082 324.442C405.043 324.766 405.848 325.499 406.485 326.256C406.593 326.388 406.617 326.424 406.749 326.605C406.785 326.665 406.821 326.713 406.857 326.761C407.182 327.277 408.035 326.797 407.699 326.28V326.292Z" fill="#0071DF"/>
<path d="M428.355 322.409C428.043 321.724 426.805 319.669 422.972 319.021C422.179 318.888 420.917 319.802 421.65 321.039C422.287 322.121 426.493 324.187 427.298 324.211C428.139 324.235 428.764 323.334 428.343 322.397L428.355 322.409Z" fill="#0071DF"/>
<path d="M410.656 317.052C410.031 316.632 407.88 315.526 404.287 316.968C403.542 317.268 402.942 318.698 404.227 319.371C405.345 319.96 410.019 319.539 410.728 319.143C411.461 318.734 411.509 317.641 410.656 317.064V317.052Z" fill="#0071DF"/>
<path d="M410.266 329.165C410.266 329.165 402.913 327.026 402.18 329.718C401.879 330.811 404.499 333.971 407.851 336.303C409.473 336.519 417.86 335.509 417.956 333.851C418.125 331.064 410.266 329.165 410.266 329.165Z" fill="#0071DF"/>
<path d="M376.762 493.359C376.762 493.359 376.738 493.383 376.727 493.394C376.727 493.394 376.75 493.359 376.762 493.359Z" fill="#0087EA"/>
<path d="M376.727 493.383C376.727 493.383 376.75 493.359 376.762 493.359C376.75 493.371 376.738 493.383 376.727 493.394V493.383Z" fill="#0087EA"/>
<path d="M478.088 325.703C478.088 325.703 477.979 325.727 477.919 325.727H477.883C477.955 325.727 478.027 325.703 478.088 325.703Z" fill="#53AFFA"/>
<path d="M480.06 337.544C480.132 337.544 480.192 337.532 480.24 337.508C480.18 337.544 480.096 337.568 480 337.544H480.06Z" fill="#53AFFA"/>
<path d="M489.736 359.334C489.736 356.875 487.675 317.06 487.675 317.06L474.706 318.701C474.706 318.701 482.669 358.412 483.283 360.256C483.897 362.1 489.736 361.793 489.736 359.334Z" fill="#4C4C4C"/>
<path d="M489.891 355.252L489.871 354.912C489.874 354.845 489.855 354.778 489.815 354.721C489.734 354.607 489.587 354.562 489.457 354.611C487.165 355.463 484.758 355.815 482.326 355.621C482.229 355.613 482.134 355.652 482.07 355.726C482.006 355.799 481.98 355.899 482.001 355.994L482.081 356.355C482.11 356.488 482.223 356.586 482.359 356.596C484.862 356.777 487.328 356.417 489.689 355.559C489.817 355.513 489.899 355.388 489.891 355.252Z" fill="white" stroke="white" stroke-width="0.614587" stroke-linejoin="round"/>
<path d="M472.864 318.491C472.915 318.892 473.119 319.249 473.438 319.496C473.757 319.744 474.153 319.852 474.554 319.801L488.249 318.069C488.65 318.018 489.007 317.814 489.254 317.495C489.502 317.176 489.61 316.78 489.559 316.379L489.386 315.008L472.691 317.12L472.864 318.491Z" fill="white"/>
<path d="M472.623 316.472C472.574 316.071 472.684 315.675 472.933 315.357C473.182 315.039 473.54 314.837 473.941 314.788L487.644 313.116C488.044 313.067 488.44 313.177 488.758 313.426C489.076 313.675 489.278 314.033 489.327 314.434L489.495 315.806L472.79 317.844L472.623 316.472Z" fill="white"/>
<path d="M488.722 313.547C490.448 311.181 492.114 307.61 491.717 304.475C490.893 297.954 484.938 293.337 478.417 294.162C471.897 294.987 467.279 300.942 468.104 307.462C468.501 310.597 470.79 313.529 473.05 315.391L488.722 313.547Z" fill="#989898"/>
<path d="M491.901 303.711C491.861 303.562 491.717 303.466 491.564 303.486C491.498 303.495 491.438 303.524 491.393 303.568C491.203 303.697 490.909 303.821 490.57 303.945C490.461 303.985 490.347 304.025 490.232 304.065C489.996 304.147 489.76 304.23 489.578 304.308C483.04 307.081 475.328 308.103 468.138 307.099C468.039 307.085 467.939 307.121 467.871 307.195C467.802 307.268 467.774 307.371 467.796 307.469C467.808 307.524 467.815 307.584 467.824 307.653C467.824 307.655 467.824 307.656 467.824 307.658C467.828 307.69 467.833 307.727 467.839 307.761C467.844 307.792 467.853 307.839 467.869 307.884C467.909 307.99 468.004 308.066 468.116 308.082C475.437 309.079 483.331 308.085 489.994 305.253C490.147 305.189 490.336 305.124 490.546 305.051C490.658 305.013 490.776 304.972 490.898 304.928C491.231 304.809 491.595 304.666 491.855 304.492C491.94 304.435 491.992 304.339 491.992 304.237C491.992 304.171 491.976 304.07 491.962 303.989C491.946 303.899 491.924 303.796 491.901 303.711Z" fill="#4C4C4C" stroke="#4C4C4C" stroke-width="0.614587" stroke-linejoin="round"/>
<path d="M490.479 347.345C486.802 347.033 484.759 345.843 483.918 344.978C483.666 344.714 483.209 344.017 483.089 343.752C482.753 342.971 482.488 341.758 482.476 340.929C482.464 339.439 483.209 337.949 484.495 337.264C485.384 336.795 487.343 336.038 487.343 336.038C487.439 336.038 487.211 336.038 486.862 335.93C486.502 335.846 486.237 335.678 485.853 335.558C484.411 335.053 482.849 334.368 481.815 333.239C481.227 332.602 480.758 331.016 480.734 330.86C480.71 330.727 480.638 329.598 480.674 329.225C480.782 328.432 480.914 327.579 481.371 326.906C481.803 326.27 482.452 325.669 483.149 325.356C483.846 325.044 484.351 324.888 485.288 324.78C482.909 324.443 481.443 322.677 480.83 320.382C480.722 319.997 480.674 318.988 480.674 318.531C480.722 318.159 480.854 317.762 481.058 317.378C482.356 314.975 487.319 314.374 489.674 315.143C497.664 317.75 503.3 325.056 504.261 333.635C504.754 338.117 504.021 342.527 500.969 346.192C496.234 351.899 490.899 354.05 490.899 354.05C490.671 350.277 490.719 350.83 490.551 348.018" fill="url(#paint37_linear_226_4348)"/>
<path d="M493.4 325.73C491.85 325.334 490.24 325.045 488.642 324.937C487.753 324.877 486.827 324.865 485.926 324.961C485.878 324.961 485.818 324.973 485.77 324.985H485.746C484.977 325.081 484.22 325.262 483.511 325.574C482.814 325.886 482.165 326.355 481.733 326.992C481.276 327.653 481.084 328.446 480.988 329.239C480.94 329.611 480.928 329.972 480.952 330.332C480.952 330.344 480.952 330.368 480.952 330.38C480.952 330.525 480.976 330.657 481 330.801C481 330.801 481 330.813 481 330.825C481.144 331.654 481.492 332.423 482.081 333.06C483.115 334.189 484.52 334.874 485.962 335.379C486.263 335.487 486.563 335.583 486.863 335.667C487.212 335.775 487.56 335.872 487.909 335.956C487.909 335.956 487.933 335.956 487.945 335.956C488.029 335.98 488.089 336.016 488.149 336.064C488.161 336.088 488.185 336.1 488.197 336.112C488.233 336.148 488.245 336.196 488.257 336.232C488.305 336.376 488.257 336.556 488.173 336.677C488.161 336.701 488.137 336.713 488.113 336.737C488.053 336.785 487.969 336.809 487.885 336.809H487.837C486.839 336.857 485.794 337.121 484.905 337.59C483.631 338.275 482.826 339.44 482.838 340.93C482.838 341.771 483.042 342.709 483.367 343.49C483.487 343.754 483.751 344.21 483.992 344.487C484.328 344.895 484.761 345.256 485.217 345.544C486.791 346.53 488.69 346.866 490.516 347.01C490.949 347.034 491.069 347.599 490.817 347.803C490.757 347.851 490.672 347.887 490.552 347.875C490.492 347.875 490.42 347.875 490.36 347.863C488.257 347.683 486.046 347.262 484.316 345.965C483.463 345.328 482.802 344.475 482.442 343.466C482.045 342.384 481.853 341.146 482.045 340.017C482.37 338.022 484.028 336.785 485.878 336.244C484.016 335.631 482.177 334.718 481.024 333.12C480.075 331.81 479.906 330.188 480.183 328.626C480.351 327.725 480.663 326.86 481.252 326.151C481.817 325.466 482.586 324.985 483.403 324.649C483.571 324.577 483.727 324.517 483.896 324.469C481.853 323.471 480.447 321.152 480.507 318.869C480.507 318.725 480.567 318.617 480.651 318.545C480.904 318.329 481.372 318.413 481.36 318.833C481.3 321.212 483.127 323.904 485.626 324.096C486.743 323.964 487.897 324 488.99 324.096C490.516 324.228 493.532 324.877 493.532 324.877C494.073 325.009 493.893 325.862 493.352 325.73H493.4Z" fill="#53AFFA"/>
<path d="M487.953 335.93C488.037 335.93 488.098 335.978 488.158 336.038C488.11 335.99 488.037 335.954 487.953 335.93Z" fill="#53AFFA"/>
<path d="M488.188 336.663C488.283 336.543 488.319 336.375 488.271 336.219C488.319 336.375 488.295 336.543 488.188 336.663Z" fill="#53AFFA"/>
<g filter="url(#filter11_dddddd_226_4348)">
<path d="M450.117 361.677C449.95 361.373 449.867 361.056 449.873 360.733C449.879 359.95 450.391 359.225 451.308 358.7C452.188 358.195 453.353 357.924 454.584 357.942C455.815 357.959 456.972 358.261 457.845 358.795C458.227 359.029 458.545 359.304 458.784 359.612L459.19 360.136L464.105 347.646C464.147 347.537 464.269 347.485 464.379 347.528C464.435 347.552 464.468 347.593 464.484 347.622C464.516 347.68 464.519 347.744 464.498 347.804L459.163 361.343C458.749 362.735 456.805 363.693 454.526 363.66C452.525 363.632 450.752 362.834 450.117 361.677ZM458.615 360.127C458.37 359.682 457.938 359.356 457.621 359.161C456.813 358.668 455.733 358.388 454.578 358.373C453.423 358.357 452.336 358.601 451.518 359.072C451.063 359.332 450.306 359.894 450.299 360.743C450.296 360.983 450.361 361.229 450.491 361.466C451.058 362.499 452.683 363.215 454.532 363.24C456.828 363.274 458.382 362.292 458.731 361.309L458.74 361.288L458.747 361.251C458.79 361.114 458.813 360.988 458.816 360.867C458.819 360.616 458.751 360.366 458.621 360.129L458.615 360.127Z" fill="#00FFBA"/>
</g>
<defs>
<filter id="filter0_f_226_4348" x="308.059" y="407.458" width="50.7098" height="47.1942" filterUnits="userSpaceOnUse" color-interpolation-filters="sRGB">
<feFlood flood-opacity="0" result="BackgroundImageFix"/>
<feBlend mode="normal" in="SourceGraphic" in2="BackgroundImageFix" result="shape"/>
<feGaussianBlur stdDeviation="6.08762" result="effect1_foregroundBlur_226_4348"/>
</filter>
<filter id="filter1_f_226_4348" x="319.051" y="418.449" width="28.7268" height="25.2112" filterUnits="userSpaceOnUse" color-interpolation-filters="sRGB">
<feFlood flood-opacity="0" result="BackgroundImageFix"/>
<feBlend mode="normal" in="SourceGraphic" in2="BackgroundImageFix" result="shape"/>
<feGaussianBlur stdDeviation="0.591852" result="effect1_foregroundBlur_226_4348"/>
</filter>
<filter id="filter2_f_226_4348" x="61.48" y="424.246" width="693.657" height="262.915" filterUnits="userSpaceOnUse" color-interpolation-filters="sRGB">
<feFlood flood-opacity="0" result="BackgroundImageFix"/>
<feBlend mode="normal" in="SourceGraphic" in2="BackgroundImageFix" result="shape"/>
<feGaussianBlur stdDeviation="57.1897" result="effect1_foregroundBlur_226_4348"/>
</filter>
<filter id="filter3_f_226_4348" x="175.718" y="527.913" width="510.65" height="79.908" filterUnits="userSpaceOnUse" color-interpolation-filters="sRGB">
<feFlood flood-opacity="0" result="BackgroundImageFix"/>
<feBlend mode="normal" in="SourceGraphic" in2="BackgroundImageFix" result="shape"/>
<feGaussianBlur stdDeviation="11.4379" result="effect1_foregroundBlur_226_4348"/>
</filter>
<filter id="filter4_f_226_4348" x="181.999" y="516.21" width="510.65" height="79.908" filterUnits="userSpaceOnUse" color-interpolation-filters="sRGB">
<feFlood flood-opacity="0" result="BackgroundImageFix"/>
<feBlend mode="normal" in="SourceGraphic" in2="BackgroundImageFix" result="shape"/>
<feGaussianBlur stdDeviation="11.4379" result="effect1_foregroundBlur_226_4348"/>
</filter>
<filter id="filter5_f_226_4348" x="202.648" y="504.984" width="510.65" height="79.908" filterUnits="userSpaceOnUse" color-interpolation-filters="sRGB">
<feFlood flood-opacity="0" result="BackgroundImageFix"/>
<feBlend mode="normal" in="SourceGraphic" in2="BackgroundImageFix" result="shape"/>
<feGaussianBlur stdDeviation="11.4379" result="effect1_foregroundBlur_226_4348"/>
</filter>
<filter id="filter6_f_226_4348" x="44.6866" y="532.593" width="510.65" height="79.908" filterUnits="userSpaceOnUse" color-interpolation-filters="sRGB">
<feFlood flood-opacity="0" result="BackgroundImageFix"/>
<feBlend mode="normal" in="SourceGraphic" in2="BackgroundImageFix" result="shape"/>
<feGaussianBlur stdDeviation="11.4379" result="effect1_foregroundBlur_226_4348"/>
</filter>
<filter id="filter7_f_226_4348" x="0.710068" y="511.069" width="510.65" height="79.908" filterUnits="userSpaceOnUse" color-interpolation-filters="sRGB">
<feFlood flood-opacity="0" result="BackgroundImageFix"/>
<feBlend mode="normal" in="SourceGraphic" in2="BackgroundImageFix" result="shape"/>
<feGaussianBlur stdDeviation="11.4379" result="effect1_foregroundBlur_226_4348"/>
</filter>
<filter id="filter8_dddddd_226_4348" x="400.757" y="207.484" width="242.079" height="248.868" filterUnits="userSpaceOnUse" color-interpolation-filters="sRGB">
<feFlood flood-opacity="0" result="BackgroundImageFix"/>
<feColorMatrix in="SourceAlpha" type="matrix" values="0 0 0 0 0 0 0 0 0 0 0 0 0 0 0 0 0 0 127 0" result="hardAlpha"/>
<feOffset/>
<feGaussianBlur stdDeviation="1.34971"/>
<feColorMatrix type="matrix" values="0 0 0 0 0 0 0 0 0 1 0 0 0 0 0.729412 0 0 0 1 0"/>
<feBlend mode="normal" in2="BackgroundImageFix" result="effect1_dropShadow_226_4348"/>
<feColorMatrix in="SourceAlpha" type="matrix" values="0 0 0 0 0 0 0 0 0 0 0 0 0 0 0 0 0 0 127 0" result="hardAlpha"/>
<feOffset/>
<feGaussianBlur stdDeviation="2.69941"/>
<feColorMatrix type="matrix" values="0 0 0 0 0 0 0 0 0 1 0 0 0 0 0.729412 0 0 0 1 0"/>
<feBlend mode="normal" in2="effect1_dropShadow_226_4348" result="effect2_dropShadow_226_4348"/>
<feColorMatrix in="SourceAlpha" type="matrix" values="0 0 0 0 0 0 0 0 0 0 0 0 0 0 0 0 0 0 127 0" result="hardAlpha"/>
<feOffset/>
<feGaussianBlur stdDeviation="9.44795"/>
<feColorMatrix type="matrix" values="0 0 0 0 0 0 0 0 0 1 0 0 0 0 0.729412 0 0 0 1 0"/>
<feBlend mode="normal" in2="effect2_dropShadow_226_4348" result="effect3_dropShadow_226_4348"/>
<feColorMatrix in="SourceAlpha" type="matrix" values="0 0 0 0 0 0 0 0 0 0 0 0 0 0 0 0 0 0 127 0" result="hardAlpha"/>
<feOffset/>
<feGaussianBlur stdDeviation="18.8959"/>
<feColorMatrix type="matrix" values="0 0 0 0 0 0 0 0 0 1 0 0 0 0 0.729412 0 0 0 1 0"/>
<feBlend mode="normal" in2="effect3_dropShadow_226_4348" result="effect4_dropShadow_226_4348"/>
<feColorMatrix in="SourceAlpha" type="matrix" values="0 0 0 0 0 0 0 0 0 0 0 0 0 0 0 0 0 0 127 0" result="hardAlpha"/>
<feOffset/>
<feGaussianBlur stdDeviation="32.393"/>
<feColorMatrix type="matrix" values="0 0 0 0 0 0 0 0 0 1 0 0 0 0 0.729412 0 0 0 1 0"/>
<feBlend mode="normal" in2="effect4_dropShadow_226_4348" result="effect5_dropShadow_226_4348"/>
<feColorMatrix in="SourceAlpha" type="matrix" values="0 0 0 0 0 0 0 0 0 0 0 0 0 0 0 0 0 0 127 0" result="hardAlpha"/>
<feOffset/>
<feGaussianBlur stdDeviation="56.6877"/>
<feColorMatrix type="matrix" values="0 0 0 0 0 0 0 0 0 1 0 0 0 0 0.729412 0 0 0 1 0"/>
<feBlend mode="normal" in2="effect5_dropShadow_226_4348" result="effect6_dropShadow_226_4348"/>
<feBlend mode="normal" in="SourceGraphic" in2="effect6_dropShadow_226_4348" result="shape"/>
</filter>
<filter id="filter9_dddddd_226_4348" x="319.875" y="177.875" width="257.423" height="259.008" filterUnits="userSpaceOnUse" color-interpolation-filters="sRGB">
<feFlood flood-opacity="0" result="BackgroundImageFix"/>
<feColorMatrix in="SourceAlpha" type="matrix" values="0 0 0 0 0 0 0 0 0 0 0 0 0 0 0 0 0 0 127 0" result="hardAlpha"/>
<feOffset/>
<feGaussianBlur stdDeviation="1.34971"/>
<feColorMatrix type="matrix" values="0 0 0 0 0 0 0 0 0 1 0 0 0 0 0.729412 0 0 0 1 0"/>
<feBlend mode="normal" in2="BackgroundImageFix" result="effect1_dropShadow_226_4348"/>
<feColorMatrix in="SourceAlpha" type="matrix" values="0 0 0 0 0 0 0 0 0 0 0 0 0 0 0 0 0 0 127 0" result="hardAlpha"/>
<feOffset/>
<feGaussianBlur stdDeviation="2.69941"/>
<feColorMatrix type="matrix" values="0 0 0 0 0 0 0 0 0 1 0 0 0 0 0.729412 0 0 0 1 0"/>
<feBlend mode="normal" in2="effect1_dropShadow_226_4348" result="effect2_dropShadow_226_4348"/>
<feColorMatrix in="SourceAlpha" type="matrix" values="0 0 0 0 0 0 0 0 0 0 0 0 0 0 0 0 0 0 127 0" result="hardAlpha"/>
<feOffset/>
<feGaussianBlur stdDeviation="9.44795"/>
<feColorMatrix type="matrix" values="0 0 0 0 0 0 0 0 0 1 0 0 0 0 0.729412 0 0 0 1 0"/>
<feBlend mode="normal" in2="effect2_dropShadow_226_4348" result="effect3_dropShadow_226_4348"/>
<feColorMatrix in="SourceAlpha" type="matrix" values="0 0 0 0 0 0 0 0 0 0 0 0 0 0 0 0 0 0 127 0" result="hardAlpha"/>
<feOffset/>
<feGaussianBlur stdDeviation="18.8959"/>
<feColorMatrix type="matrix" values="0 0 0 0 0 0 0 0 0 1 0 0 0 0 0.729412 0 0 0 1 0"/>
<feBlend mode="normal" in2="effect3_dropShadow_226_4348" result="effect4_dropShadow_226_4348"/>
<feColorMatrix in="SourceAlpha" type="matrix" values="0 0 0 0 0 0 0 0 0 0 0 0 0 0 0 0 0 0 127 0" result="hardAlpha"/>
<feOffset/>
<feGaussianBlur stdDeviation="32.393"/>
<feColorMatrix type="matrix" values="0 0 0 0 0 0 0 0 0 1 0 0 0 0 0.729412 0 0 0 1 0"/>
<feBlend mode="normal" in2="effect4_dropShadow_226_4348" result="effect5_dropShadow_226_4348"/>
<feColorMatrix in="SourceAlpha" type="matrix" values="0 0 0 0 0 0 0 0 0 0 0 0 0 0 0 0 0 0 127 0" result="hardAlpha"/>
<feOffset/>
<feGaussianBlur stdDeviation="56.6877"/>
<feColorMatrix type="matrix" values="0 0 0 0 0 0 0 0 0 1 0 0 0 0 0.729412 0 0 0 1 0"/>
<feBlend mode="normal" in2="effect5_dropShadow_226_4348" result="effect6_dropShadow_226_4348"/>
<feBlend mode="normal" in="SourceGraphic" in2="effect6_dropShadow_226_4348" result="shape"/>
</filter>
<filter id="filter10_dddddd_226_4348" x="363.336" y="262.101" width="233.774" height="243.532" filterUnits="userSpaceOnUse" color-interpolation-filters="sRGB">
<feFlood flood-opacity="0" result="BackgroundImageFix"/>
<feColorMatrix in="SourceAlpha" type="matrix" values="0 0 0 0 0 0 0 0 0 0 0 0 0 0 0 0 0 0 127 0" result="hardAlpha"/>
<feOffset/>
<feGaussianBlur stdDeviation="1.34971"/>
<feColorMatrix type="matrix" values="0 0 0 0 0 0 0 0 0 1 0 0 0 0 0.729412 0 0 0 1 0"/>
<feBlend mode="normal" in2="BackgroundImageFix" result="effect1_dropShadow_226_4348"/>
<feColorMatrix in="SourceAlpha" type="matrix" values="0 0 0 0 0 0 0 0 0 0 0 0 0 0 0 0 0 0 127 0" result="hardAlpha"/>
<feOffset/>
<feGaussianBlur stdDeviation="2.69941"/>
<feColorMatrix type="matrix" values="0 0 0 0 0 0 0 0 0 1 0 0 0 0 0.729412 0 0 0 1 0"/>
<feBlend mode="normal" in2="effect1_dropShadow_226_4348" result="effect2_dropShadow_226_4348"/>
<feColorMatrix in="SourceAlpha" type="matrix" values="0 0 0 0 0 0 0 0 0 0 0 0 0 0 0 0 0 0 127 0" result="hardAlpha"/>
<feOffset/>
<feGaussianBlur stdDeviation="9.44795"/>
<feColorMatrix type="matrix" values="0 0 0 0 0 0 0 0 0 1 0 0 0 0 0.729412 0 0 0 1 0"/>
<feBlend mode="normal" in2="effect2_dropShadow_226_4348" result="effect3_dropShadow_226_4348"/>
<feColorMatrix in="SourceAlpha" type="matrix" values="0 0 0 0 0 0 0 0 0 0 0 0 0 0 0 0 0 0 127 0" result="hardAlpha"/>
<feOffset/>
<feGaussianBlur stdDeviation="18.8959"/>
<feColorMatrix type="matrix" values="0 0 0 0 0 0 0 0 0 1 0 0 0 0 0.729412 0 0 0 1 0"/>
<feBlend mode="normal" in2="effect3_dropShadow_226_4348" result="effect4_dropShadow_226_4348"/>
<feColorMatrix in="SourceAlpha" type="matrix" values="0 0 0 0 0 0 0 0 0 0 0 0 0 0 0 0 0 0 127 0" result="hardAlpha"/>
<feOffset/>
<feGaussianBlur stdDeviation="32.393"/>
<feColorMatrix type="matrix" values="0 0 0 0 0 0 0 0 0 1 0 0 0 0 0.729412 0 0 0 1 0"/>
<feBlend mode="normal" in2="effect4_dropShadow_226_4348" result="effect5_dropShadow_226_4348"/>
<feColorMatrix in="SourceAlpha" type="matrix" values="0 0 0 0 0 0 0 0 0 0 0 0 0 0 0 0 0 0 127 0" result="hardAlpha"/>
<feOffset/>
<feGaussianBlur stdDeviation="56.6877"/>
<feColorMatrix type="matrix" values="0 0 0 0 0 0 0 0 0 1 0 0 0 0 0.729412 0 0 0 1 0"/>
<feBlend mode="normal" in2="effect5_dropShadow_226_4348" result="effect6_dropShadow_226_4348"/>
<feBlend mode="normal" in="SourceGraphic" in2="effect6_dropShadow_226_4348" result="shape"/>
</filter>
<filter id="filter11_dddddd_226_4348" x="358.806" y="258.829" width="199.185" height="195.638" filterUnits="userSpaceOnUse" color-interpolation-filters="sRGB">
<feFlood flood-opacity="0" result="BackgroundImageFix"/>
<feColorMatrix in="SourceAlpha" type="matrix" values="0 0 0 0 0 0 0 0 0 0 0 0 0 0 0 0 0 0 127 0" result="hardAlpha"/>
<feOffset/>
<feGaussianBlur stdDeviation="1.05486"/>
<feColorMatrix type="matrix" values="0 0 0 0 0 0 0 0 0 1 0 0 0 0 0.729412 0 0 0 1 0"/>
<feBlend mode="normal" in2="BackgroundImageFix" result="effect1_dropShadow_226_4348"/>
<feColorMatrix in="SourceAlpha" type="matrix" values="0 0 0 0 0 0 0 0 0 0 0 0 0 0 0 0 0 0 127 0" result="hardAlpha"/>
<feOffset/>
<feGaussianBlur stdDeviation="2.10972"/>
<feColorMatrix type="matrix" values="0 0 0 0 0 0 0 0 0 1 0 0 0 0 0.729412 0 0 0 1 0"/>
<feBlend mode="normal" in2="effect1_dropShadow_226_4348" result="effect2_dropShadow_226_4348"/>
<feColorMatrix in="SourceAlpha" type="matrix" values="0 0 0 0 0 0 0 0 0 0 0 0 0 0 0 0 0 0 127 0" result="hardAlpha"/>
<feOffset/>
<feGaussianBlur stdDeviation="7.38401"/>
<feColorMatrix type="matrix" values="0 0 0 0 0 0 0 0 0 1 0 0 0 0 0.729412 0 0 0 1 0"/>
<feBlend mode="normal" in2="effect2_dropShadow_226_4348" result="effect3_dropShadow_226_4348"/>
<feColorMatrix in="SourceAlpha" type="matrix" values="0 0 0 0 0 0 0 0 0 0 0 0 0 0 0 0 0 0 127 0" result="hardAlpha"/>
<feOffset/>
<feGaussianBlur stdDeviation="14.768"/>
<feColorMatrix type="matrix" values="0 0 0 0 0 0 0 0 0 1 0 0 0 0 0.729412 0 0 0 1 0"/>
<feBlend mode="normal" in2="effect3_dropShadow_226_4348" result="effect4_dropShadow_226_4348"/>
<feColorMatrix in="SourceAlpha" type="matrix" values="0 0 0 0 0 0 0 0 0 0 0 0 0 0 0 0 0 0 127 0" result="hardAlpha"/>
<feOffset/>
<feGaussianBlur stdDeviation="25.3166"/>
<feColorMatrix type="matrix" values="0 0 0 0 0 0 0 0 0 1 0 0 0 0 0.729412 0 0 0 1 0"/>
<feBlend mode="normal" in2="effect4_dropShadow_226_4348" result="effect5_dropShadow_226_4348"/>
<feColorMatrix in="SourceAlpha" type="matrix" values="0 0 0 0 0 0 0 0 0 0 0 0 0 0 0 0 0 0 127 0" result="hardAlpha"/>
<feOffset/>
<feGaussianBlur stdDeviation="44.3041"/>
<feColorMatrix type="matrix" values="0 0 0 0 0 0 0 0 0 1 0 0 0 0 0.729412 0 0 0 1 0"/>
<feBlend mode="normal" in2="effect5_dropShadow_226_4348" result="effect6_dropShadow_226_4348"/>
<feBlend mode="normal" in="SourceGraphic" in2="effect6_dropShadow_226_4348" result="shape"/>
</filter>
<linearGradient id="paint0_linear_226_4348" x1="-24.0029" y1="101.681" x2="608.905" y2="38.1138" gradientUnits="userSpaceOnUse">
<stop stop-color="#FF0099"/>
<stop offset="0.65" stop-color="#A000FF" stop-opacity="0"/>
</linearGradient>
<linearGradient id="paint1_linear_226_4348" x1="134.372" y1="101.681" x2="767.28" y2="38.1138" gradientUnits="userSpaceOnUse">
<stop stop-color="#FF0099"/>
<stop offset="0.65" stop-color="#A000FF" stop-opacity="0"/>
</linearGradient>
<linearGradient id="paint2_linear_226_4348" x1="-21.2252" y1="118.831" x2="540.838" y2="76.1178" gradientUnits="userSpaceOnUse">
<stop stop-color="#FF0099"/>
<stop offset="0.65" stop-color="#A000FF" stop-opacity="0"/>
</linearGradient>
<linearGradient id="paint3_linear_226_4348" x1="65.2905" y1="128.62" x2="623.366" y2="65.0858" gradientUnits="userSpaceOnUse">
<stop stop-color="#FF0099"/>
<stop offset="0.65" stop-color="#A000FF" stop-opacity="0"/>
</linearGradient>
<linearGradient id="paint4_linear_226_4348" x1="138.039" y1="103.154" x2="697.482" y2="53.293" gradientUnits="userSpaceOnUse">
<stop stop-color="#FF0099"/>
<stop offset="0.65" stop-color="#A000FF" stop-opacity="0"/>
</linearGradient>
<radialGradient id="paint5_radial_226_4348" cx="0" cy="0" r="1" gradientUnits="userSpaceOnUse" gradientTransform="translate(292.346 383.391) rotate(42.8276) scale(280.334 162.611)">
<stop stop-color="#1575E8" stop-opacity="0.3"/>
<stop offset="1" stop-color="#1575E8" stop-opacity="0"/>
</radialGradient>
<linearGradient id="paint6_linear_226_4348" x1="0.840883" y1="232.189" x2="278.975" y2="-2.12607" gradientUnits="userSpaceOnUse">
<stop stop-color="#FF0099"/>
<stop offset="0.65" stop-color="#A000FF" stop-opacity="0"/>
</linearGradient>
<linearGradient id="paint7_linear_226_4348" x1="334.671" y1="530.316" x2="247.968" y2="446.353" gradientUnits="userSpaceOnUse">
<stop stop-color="#5900FF" stop-opacity="0"/>
<stop offset="0.473957" stop-color="#005EFF" stop-opacity="0.31"/>
<stop offset="1" stop-color="#00FFBA"/>
</linearGradient>
<radialGradient id="paint8_radial_226_4348" cx="0" cy="0" r="1" gradientUnits="userSpaceOnUse" gradientTransform="translate(254.541 434.295) rotate(129.72) scale(23.8224 32.7374)">
<stop stop-color="#026FF7"/>
<stop offset="0.562168" stop-color="#FF00EF"/>
<stop offset="1" stop-color="#FF002B"/>
</radialGradient>
<radialGradient id="paint9_radial_226_4348" cx="0" cy="0" r="1" gradientUnits="userSpaceOnUse" gradientTransform="translate(515.067 185.897) rotate(51.7105) scale(12.0944 16.4451)">
<stop stop-color="#FF00D6"/>
<stop offset="0.562168" stop-color="#FF004D"/>
<stop offset="1" stop-color="#FF6291"/>
</radialGradient>
<radialGradient id="paint10_radial_226_4348" cx="0" cy="0" r="1" gradientUnits="userSpaceOnUse" gradientTransform="translate(573.842 314.437) rotate(136.253) scale(180.188 187.375)">
<stop stop-color="#FF00C7" stop-opacity="0.62"/>
<stop offset="0.562168" stop-color="#DB00FF" stop-opacity="0.03"/>
<stop offset="1" stop-color="#FF0099" stop-opacity="0"/>
</radialGradient>
<radialGradient id="paint11_radial_226_4348" cx="0" cy="0" r="1" gradientUnits="userSpaceOnUse" gradientTransform="translate(559.449 330.679) rotate(134.653) scale(21.3423 29.8322)">
<stop stop-color="#02D9F7"/>
<stop offset="0.562168" stop-color="#A000FF"/>
<stop offset="1" stop-color="#FF0099"/>
</radialGradient>
<radialGradient id="paint12_radial_226_4348" cx="0" cy="0" r="1" gradientUnits="userSpaceOnUse" gradientTransform="translate(558.291 376.488) rotate(135.001) scale(317.081 442.262)">
<stop stop-color="#FF0065"/>
<stop offset="0.562168" stop-color="#FF00C1" stop-opacity="0.1"/>
<stop offset="1" stop-color="#FF0037" stop-opacity="0"/>
</radialGradient>
<radialGradient id="paint13_radial_226_4348" cx="0" cy="0" r="1" gradientUnits="userSpaceOnUse" gradientTransform="translate(573.897 368.885) rotate(134.583) scale(94.0865 131.51)">
<stop stop-color="#FF00D6"/>
<stop offset="0.562168" stop-color="#FF004D"/>
<stop offset="1" stop-color="#FF6291"/>
</radialGradient>
<radialGradient id="paint14_radial_226_4348" cx="0" cy="0" r="1" gradientUnits="userSpaceOnUse" gradientTransform="translate(582.642 438.499) rotate(135.023) scale(79.0647 110.492)">
<stop stop-color="#00F1FF" stop-opacity="0.92"/>
<stop offset="0.562168" stop-color="#00FFB1" stop-opacity="0.1"/>
<stop offset="1" stop-color="#00C4FF" stop-opacity="0"/>
</radialGradient>
<radialGradient id="paint15_radial_226_4348" cx="0" cy="0" r="1" gradientUnits="userSpaceOnUse" gradientTransform="translate(580.479 442.34) rotate(134.183) scale(22.4016 31.3025)">
<stop stop-color="#F7EB02"/>
<stop offset="0.562168" stop-color="#00FF76"/>
<stop offset="1" stop-color="#00C4FF"/>
</radialGradient>
<linearGradient id="paint16_linear_226_4348" x1="158.163" y1="527.492" x2="614.057" y2="527.492" gradientUnits="userSpaceOnUse">
<stop stop-color="#0647C7" stop-opacity="0.1"/>
<stop offset="0.63" stop-color="#0647C7"/>
<stop offset="0.846419" stop-color="#0647C7"/>
<stop offset="1" stop-color="#0647C7" stop-opacity="0.2"/>
</linearGradient>
<radialGradient id="paint17_radial_226_4348" cx="0" cy="0" r="1" gradientUnits="userSpaceOnUse" gradientTransform="translate(412.023 497.67) scale(277.279 25.0871)">
<stop stop-color="#0647C7"/>
<stop offset="1" stop-color="#0647C7" stop-opacity="0"/>
</radialGradient>
<radialGradient id="paint18_radial_226_4348" cx="0" cy="0" r="1" gradientUnits="userSpaceOnUse" gradientTransform="translate(412.023 497.264) scale(277.279 25.0871)">
<stop stop-color="#0647C7"/>
<stop offset="1" stop-color="#0647C7" stop-opacity="0"/>
</radialGradient>
<radialGradient id="paint19_radial_226_4348" cx="0" cy="0" r="1" gradientUnits="userSpaceOnUse" gradientTransform="translate(266.325 337.475) rotate(49.4615) scale(11.5302 15.9229)">
<stop stop-color="#FF00D6"/>
<stop offset="0.562168" stop-color="#FF004D"/>
<stop offset="1" stop-color="#FF6291"/>
</radialGradient>
<radialGradient id="paint20_radial_226_4348" cx="0" cy="0" r="1" gradientUnits="userSpaceOnUse" gradientTransform="translate(269.806 338.655) rotate(136.73) scale(7.76225 9.77133)">
<stop stop-color="#FFE7AB"/>
<stop offset="1" stop-color="#FABC22"/>
</radialGradient>
<radialGradient id="paint21_radial_226_4348" cx="0" cy="0" r="1" gradientUnits="userSpaceOnUse" gradientTransform="translate(307.538 244.3) rotate(49.4615) scale(21.1386 29.192)">
<stop stop-color="#FF00D6"/>
<stop offset="0.562168" stop-color="#FF004D"/>
<stop offset="1" stop-color="#FF6291"/>
</radialGradient>
<radialGradient id="paint22_radial_226_4348" cx="0" cy="0" r="1" gradientUnits="userSpaceOnUse" gradientTransform="translate(313.921 246.464) rotate(136.73) scale(14.2308 17.9141)">
<stop stop-color="#FFE7AB"/>
<stop offset="1" stop-color="#FABC22"/>
</radialGradient>
<radialGradient id="paint23_radial_226_4348" cx="0" cy="0" r="1" gradientUnits="userSpaceOnUse" gradientTransform="translate(313.921 246.464) rotate(136.73) scale(14.2308 17.9141)">
<stop stop-color="#ADFFEE"/>
<stop offset="1" stop-color="#2DF9FF"/>
</radialGradient>
<linearGradient id="paint24_linear_226_4348" x1="339.18" y1="424.363" x2="370.599" y2="458.546" gradientUnits="userSpaceOnUse">
<stop stop-color="#0CFFDE"/>
<stop offset="0.65" stop-color="#0CFFDE" stop-opacity="0"/>
</linearGradient>
<radialGradient id="paint25_radial_226_4348" cx="0" cy="0" r="1" gradientUnits="userSpaceOnUse" gradientTransform="translate(488.206 428.714) rotate(134.253) scale(41.1445 57.467)">
<stop stop-color="#DA00FF"/>
<stop offset="0.562168" stop-color="#7E00FF" stop-opacity="0.1"/>
<stop offset="1" stop-color="#FF00F7" stop-opacity="0"/>
</radialGradient>
<linearGradient id="paint26_linear_226_4348" x1="427.615" y1="364.723" x2="275.863" y2="206.094" gradientUnits="userSpaceOnUse">
<stop offset="0.526589" stop-color="#0647C7"/>
<stop offset="1" stop-color="#ED00FF"/>
</linearGradient>
<radialGradient id="paint27_radial_226_4348" cx="0" cy="0" r="1" gradientUnits="userSpaceOnUse" gradientTransform="translate(281.584 191.954) rotate(130.538) scale(37.1998 51.3723)">
<stop stop-color="#FF3E00"/>
<stop offset="0.562168" stop-color="#FFC800"/>
<stop offset="1" stop-color="#FFDD62"/>
</radialGradient>
<linearGradient id="paint28_linear_226_4348" x1="445.482" y1="315.775" x2="559.059" y2="205.585" gradientUnits="userSpaceOnUse">
<stop stop-color="#5900FF" stop-opacity="0"/>
<stop offset="0.473957" stop-color="#005EFF" stop-opacity="0.31"/>
<stop offset="1" stop-color="#00FFBA"/>
</linearGradient>
<radialGradient id="paint29_radial_226_4348" cx="0" cy="0" r="1" gradientUnits="userSpaceOnUse" gradientTransform="translate(550.872 190.185) rotate(50.0893) scale(31.0552 42.7288)">
<stop stop-color="#026FF7"/>
<stop offset="0.562168" stop-color="#FF00EF"/>
<stop offset="1" stop-color="#FF002B"/>
</radialGradient>
<linearGradient id="paint30_linear_226_4348" x1="502.577" y1="346.722" x2="487.954" y2="342.096" gradientUnits="userSpaceOnUse">
<stop stop-color="#0087EA"/>
<stop offset="0.3" stop-color="#0093EF"/>
<stop offset="0.83" stop-color="#53AFFA"/>
</linearGradient>
<linearGradient id="paint31_linear_226_4348" x1="504.982" y1="338.789" x2="503.816" y2="338.429" gradientUnits="userSpaceOnUse">
<stop stop-color="#0087EA"/>
<stop offset="0.3" stop-color="#0093EF"/>
<stop offset="0.83" stop-color="#53AFFA"/>
</linearGradient>
<linearGradient id="paint32_linear_226_4348" x1="495.322" y1="369.479" x2="429.115" y2="348.536" gradientUnits="userSpaceOnUse">
<stop stop-color="#0087EA"/>
<stop offset="0.3" stop-color="#0093EF"/>
<stop offset="0.83" stop-color="#53AFFA"/>
</linearGradient>
<linearGradient id="paint33_linear_226_4348" x1="488.916" y1="336.123" x2="488.277" y2="335.919" gradientUnits="userSpaceOnUse">
<stop stop-color="#0087EA"/>
<stop offset="0.3" stop-color="#0093EF"/>
<stop offset="0.83" stop-color="#53AFFA"/>
</linearGradient>
<linearGradient id="paint34_linear_226_4348" x1="489.038" y1="336.556" x2="488.786" y2="336.484" gradientUnits="userSpaceOnUse">
<stop stop-color="#0087EA"/>
<stop offset="0.3" stop-color="#0093EF"/>
<stop offset="0.83" stop-color="#53AFFA"/>
</linearGradient>
<linearGradient id="paint35_linear_226_4348" x1="503.037" y1="345.215" x2="488.414" y2="340.589" gradientUnits="userSpaceOnUse">
<stop stop-color="#0087EA"/>
<stop offset="0.3" stop-color="#0093EF"/>
<stop offset="0.83" stop-color="#53AFFA"/>
</linearGradient>
<linearGradient id="paint36_linear_226_4348" x1="327.23" y1="300.304" x2="389.52" y2="363.315" gradientUnits="userSpaceOnUse">
<stop stop-color="#0087EA"/>
<stop offset="0.3" stop-color="#0093EF"/>
<stop offset="0.83" stop-color="#53AFFA"/>
</linearGradient>
<linearGradient id="paint37_linear_226_4348" x1="504.501" y1="339.078" x2="422.854" y2="313.256" gradientUnits="userSpaceOnUse">
<stop stop-color="#0087EA"/>
<stop offset="0.3" stop-color="#0093EF"/>
<stop offset="0.83" stop-color="#53AFFA"/>
</linearGradient>
</defs>
</svg>
