<svg width="1468" height="846" viewBox="0 0 1468 846" fill="none" xmlns="http://www.w3.org/2000/svg">
    <g clip-path="url(#clip0_920_16344)">
        <mask id="mask0_920_16344" style="mask-type:luminance" maskUnits="userSpaceOnUse" x="0" y="0" width="1381" height="799">
            <path d="M1380.2 0.821289H0.200012V798.821H1380.2V0.821289Z" fill="white"/>
        </mask>
        <g mask="url(#mask0_920_16344)">
            <path d="M631.9 1018.62L1350.3 300.221C1415.1 235.421 1415.1 130.321 1350.3 65.4213C1285.5 0.621288 1180.4 0.621288 1115.5 65.4213L397.1 783.821C332.3 848.621 332.3 953.721 397.1 1018.62C462 1083.42 567.1 1083.42 631.9 1018.62Z" fill="url(#paint0_linear_920_16344)"/>
            <path d="M181.3 1179.12L1270.8 89.6213C1319.8 40.6213 1319.8 -38.9787 1270.8 -87.9787L1174.1 -184.679C1125.1 -233.679 1045.5 -233.679 996.5 -184.679L-93 904.821C-142 953.821 -142 1033.42 -93 1082.42L3.7 1179.12C52.8 1228.22 132.3 1228.22 181.3 1179.12Z" fill="url(#paint1_linear_920_16344)"/>
            <path d="M431.4 1105.82L777.4 749.021L702.5 692.721L367.6 1040.02L431.4 1105.82Z" fill="url(#paint2_linear_920_16344)"/>
            <path d="M748.5 657.921L759.5 692.821H795.1L766.3 714.421L777.3 749.321L748.5 727.721L719.7 749.321L730.7 714.421L701.9 692.821H737.5L748.5 657.921Z" fill="url(#paint3_radial_920_16344)"/>
            <path fill-rule="evenodd" clip-rule="evenodd" d="M734.3 270.721L755.7 249.221C766.1 238.821 766.1 222.221 755.7 211.821C745.4 201.421 728.6 201.421 718.2 211.821L712 218.021L705.8 211.821C695.4 201.421 678.6 201.421 668.3 211.821C666.9 213.221 665.6 214.821 664.6 216.421L514.4 366.421L576.7 428.621L734.5 271.121L734.3 270.721Z" fill="url(#paint4_radial_920_16344)"/>
            <path d="M668.3 249.221L694.3 275.321L712 292.921L729.7 275.321L755.7 249.221C766.1 238.821 766.1 222.221 755.7 211.821C745.4 201.421 728.6 201.421 718.2 211.821L712 218.021L705.8 211.821C695.4 201.421 678.6 201.421 668.3 211.821C657.9 222.221 657.9 238.721 668.3 249.221Z" fill="url(#paint5_radial_920_16344)"/>
            <path fill-rule="evenodd" clip-rule="evenodd" d="M580.1 249.921L369.6 460.521L411.3 502.221L625.5 287.921L625 287.421L639.4 272.921C646.3 266.021 646.3 255.021 639.4 248.121C632.6 241.221 621.5 241.221 614.7 248.121L610.6 252.221L606.5 248.121C600.3 241.921 590.7 241.321 583.9 246.221L583.6 246.521C582.9 247.021 582.3 247.621 581.7 248.221C581.1 248.721 580.6 249.321 580.1 249.921Z" fill="url(#paint6_radial_920_16344)"/>
            <path d="M581.7 272.921L598.9 290.221L610.6 301.921L622.3 290.221L639.5 272.921C646.4 266.021 646.4 255.021 639.5 248.121C632.7 241.221 621.6 241.221 614.8 248.121L610.7 252.221L606.6 248.121C599.7 241.221 588.6 241.221 581.9 248.121C574.8 255.021 574.8 266.021 581.7 272.921Z" fill="url(#paint7_radial_920_16344)"/>
            <g opacity="0.1">
                <path d="M137.4 534.721L120.2 552.021L110.8 561.421L101.4 552.021L84.2 534.721C78.6 529.021 78.6 520.121 84.2 514.421C89.7 508.821 98.8 508.821 104.4 514.421L108.5 518.521L110.8 520.821L113.1 518.521L117.2 514.421C122.9 508.721 131.9 508.821 137.4 514.421C143 520.121 143 529.121 137.4 534.721Z" fill="white"/>
                <path d="M104.4 514.421C98.8 508.821 89.7 508.821 84.2 514.421C78.6 520.121 78.6 529.021 84.2 534.721L101.4 552.021L110.8 561.421L120.2 552.021L137.4 534.721C143 529.121 143 520.121 137.4 514.421C131.9 508.821 122.9 508.721 117.2 514.421M104.4 514.421L106.7 512.121M104.4 514.421L108.5 518.521L110.8 520.821L113.1 518.521L117.2 514.421M117.2 514.421L115.6 512.821" stroke="white" stroke-width="6.3734"/>
            </g>
            <path fill-rule="evenodd" clip-rule="evenodd" d="M115.9 550.121L115 549.221L77.2 511.021C62 495.821 62 471.621 77.2 456.321C92.1 441.121 116.6 441.121 131.8 456.321L140.8 465.321L149.8 456.321C165 441.121 189.5 441.121 204.4 456.321C206.1 458.021 207.6 459.821 208.9 461.621C209.2 461.921 209.6 462.221 209.9 462.521L347.7 600.521C353.7 606.521 353.7 616.421 347.7 622.421L278.4 691.821C272.4 697.821 262.6 697.821 256.5 691.821L118.7 553.821C117.6 552.821 116.6 551.521 115.9 550.121Z" fill="url(#paint8_linear_920_16344)" fill-opacity="0.25"/>
            <path d="M202.7 509.321L164.8 547.521L140.8 571.521L116.8 547.521L79 509.421C64.8 495.221 64.8 472.521 79 458.321C92.9 444.121 115.8 444.121 130 458.321L139 467.321L140.8 469.121L142.6 467.321L151.6 458.321C165.8 444.121 188.7 444.121 202.6 458.321C216.9 472.421 216.9 495.021 202.7 509.321Z" stroke="#00FFE1" stroke-width="4.9958"/>
            <path d="M202.7 509.321L164.8 547.521L140.8 571.521L116.8 547.521L79 509.421C64.8 495.221 64.8 472.521 79 458.321C92.9 444.121 115.8 444.121 130 458.321L139 467.321L140.8 469.121L142.6 467.321L151.6 458.321C165.8 444.121 188.7 444.121 202.6 458.321C216.9 472.421 216.9 495.021 202.7 509.321Z" stroke="#00FFE1" stroke-width="4.9958"/>
            <path d="M203.5 510.121L165.6 548.321L140.8 573.121L116 548.321L78.2 510.121C63.5 495.421 63.5 472.121 78.2 457.421C92.6 442.721 116.2 442.721 130.8 457.421L139.8 466.421L140.8 467.421L141.8 466.421L150.8 457.421C165.5 442.721 189.1 442.721 203.4 457.421C218.1 472.021 218.1 495.421 203.5 510.121Z" stroke="#96FFC0" stroke-width="2.7396"/>
            <path d="M211 267.921L212.3 285.621L229.5 286.921L212.3 288.221L211 305.921L209.7 288.221L192.5 286.921L209.7 285.621L211 267.921Z" fill="url(#paint9_radial_920_16344)"/>
            <path d="M211 267.921L212.3 285.621L229.5 286.921L212.3 288.221L211 305.921L209.7 288.221L192.5 286.921L209.7 285.621L211 267.921Z" fill="url(#paint10_radial_920_16344)"/>
            <path d="M138 626.921L141.2 669.621L183.5 672.921L141.2 676.221L138 718.921L134.8 676.221L92.5 672.921L134.8 669.621L138 626.921Z" fill="#00A3FF"/>
            <path d="M138 626.921L141.2 669.621L183.5 672.921L141.2 676.221L138 718.921L134.8 676.221L92.5 672.921L134.8 669.621L138 626.921Z" fill="url(#paint11_radial_920_16344)"/>
            <path d="M138 626.921L141.2 669.621L183.5 672.921L141.2 676.221L138 718.921L134.8 676.221L92.5 672.921L134.8 669.621L138 626.921Z" fill="url(#paint12_radial_920_16344)"/>
            <path d="M382.9 923.421C387.8 894.521 415.9 807.521 433.3 806.721C458.2 805.621 477.1 889.721 483.8 921.921C483.9 922.621 584.1 908.221 591.1 906.521C591.3 906.421 591.6 906.321 591.8 906.221C601.5 897.621 611.4 873.421 598.9 767.621C594.2 729.521 576.9 597.821 528.2 466.121C525 457.421 524.9 447.821 528.3 439.221C528.4 439.021 528.5 438.821 528.7 438.621C530.7 436.821 544.5 423.821 545.6 406.621C547.5 377.421 523.3 327.421 519.6 319.921C519.3 319.321 519.5 318.721 519.9 318.221C534 305.321 533.6 297.721 533.4 296.521C533.4 296.421 533.4 296.321 533.3 296.221C522.4 268.321 498.4 261.921 491.4 263.821C485.7 265.421 480.3 273.021 478.5 275.821C478.1 276.421 477.3 276.621 476.7 276.321C445.8 261.621 423.8 263.821 412.4 264.321C375.3 266.021 350.7 279.021 345.1 282.221C344.4 282.621 343.6 282.421 343.2 281.721C337 271.521 332.5 270.821 331.8 270.821C331.7 270.821 331.7 270.821 331.6 270.821C319.2 271.421 295.7 287.121 293.1 303.621C291.7 312.521 305.8 323.521 309.3 326.121C309.8 326.421 310 327.121 309.8 327.621C296.8 374.521 285.4 395.321 292 418.021C294.6 427.121 310 449.621 311.1 451.121C311.1 451.221 311.2 451.221 311.2 451.321C314.7 458.121 315.5 465.921 313.5 473.321C276.5 610.321 262.7 775.921 262.7 775.921C256.7 830.021 247.5 886.521 260.7 920.021C261 920.421 382.8 924.121 382.9 923.421Z" fill="#66B1FF"/>
            <path d="M516.7 563.621C473.9 523.021 430.8 562.421 427.3 565.721C423.5 562.721 377 527.321 338.1 571.621C294.9 620.721 340.5 714.521 355.6 736.321C370.7 758.221 400.2 793.521 437.9 792.921C475.5 790.121 501 752.421 514 729.221C527.1 706.121 564.1 608.721 516.7 563.621Z" fill="white"/>
            <path d="M482.7 365.221C477.1 349.821 419 354.521 419.1 354.821C419.1 354.421 362.6 358.521 358 375.521C355.2 385.821 357.9 405.821 363.6 418.021C369.8 431.521 405 457.621 426.8 455.721C447.8 454.121 480.3 422.521 484.2 408.121C487.8 395.121 486.4 375.321 482.7 365.221Z" fill="white"/>
            <path d="M380.3 355.421C389.9 355.021 397.4 346.821 396.9 337.221C396.5 327.621 388.3 320.121 378.7 320.621C369.1 321.021 361.6 329.221 362 338.821C362.4 348.421 370.6 355.821 380.3 355.421Z" fill="white"/>
            <path d="M472 336.321C473.4 326.821 466.8 317.921 457.3 316.521C447.8 315.121 438.9 321.721 437.5 331.221C436.1 340.721 442.7 349.621 452.2 351.021C461.7 352.421 470.6 345.821 472 336.321Z" fill="white"/>
            <path d="M772.6 392.921C771.2 381.721 759.5 373.721 745.7 380.121C736.7 384.321 735.8 390.121 735.8 390.121C735.8 390.121 738.8 368.121 738.6 354.621C738.3 342.721 736.6 333.521 724.3 330.121C714.4 327.321 703.9 332.421 700.1 346.321C697.1 357.221 695.6 371.621 695.6 371.621C686.6 344.921 679.4 339.121 663.6 340.721C656 341.521 646.2 350.221 648.6 360.421C652.4 377.021 662.9 404.621 662.9 404.621C662.9 404.621 652.4 403.121 646.6 406.321C632.1 414.121 628.6 430.321 645.7 451.221C640.9 550.421 528.1 467.521 528.1 467.521L561.2 578.521C650.3 645.421 735.6 619.221 762.2 465.721C762.1 465.621 774.8 411.321 772.6 392.921Z" fill="url(#paint13_linear_920_16344)"/>
            <path d="M740.1 430.121C730 425.721 728 415.721 729.1 406.821C718.5 403.721 704.6 405.221 701.3 415.421C701.3 415.421 687.1 403.121 676 411.221C685.3 417.421 695.1 429.521 687.4 442.521C684.4 447.721 680.3 450.821 676 452.521C687.3 462.321 705 466.921 712.9 466.621C730 465.921 749.9 450.221 748.7 431.821C746.2 431.921 743.3 431.521 740.1 430.121Z" fill="#66B1FF"/>
            <path d="M302 501.821C301.8 502.021 241 561.521 209.6 647.521C200.5 672.521 183.2 732.321 189.6 761.721C189.6 761.721 188.8 817.021 230.5 806.321L225.3 800.721C225.3 800.721 234.4 815.421 252.2 810.621C261.9 808.021 263.4 800.721 263.4 800.721C263.4 800.721 273.3 810.521 285.8 804.221C297.7 798.321 298.3 787.821 298.1 786.621C298.1 786.621 290.1 786.421 285.8 780.921C272.3 763.821 279.5 753.421 283.7 749.921C283.7 749.921 292.9 744.721 298.4 738.421C302.8 733.321 302.6 717.421 282.5 714.721C282.5 714.721 280.7 597.121 299.7 550.521L308.4 494.721L302 501.821Z" fill="url(#paint14_linear_920_16344)"/>
            <path d="M302 501.821C301.8 502.021 241 561.521 209.6 647.521C200.5 672.521 183.2 732.321 189.6 761.721C189.6 761.721 188.8 817.021 230.5 806.321L225.3 800.721C225.3 800.721 234.4 815.421 252.2 810.621C261.9 808.021 263.4 800.721 263.4 800.721C263.4 800.721 273.3 810.521 285.8 804.221C297.7 798.321 298.3 787.821 298.1 786.621C298.1 786.621 290.1 786.421 285.8 780.921C272.3 763.821 279.5 753.421 283.7 749.921C283.7 749.921 292.9 744.721 298.4 738.421C302.8 733.321 302.6 717.421 282.5 714.721C282.5 714.721 280.7 597.121 299.7 550.521L308.4 494.721L302 501.821Z" fill="url(#paint15_linear_920_16344)"/>
            <path d="M351.5 304.921C353.6 301.421 361.5 291.221 382.2 290.321C386.5 290.121 392.6 295.821 387.9 302.021C383.8 307.421 360.2 315.721 355.8 315.321C351.4 314.921 348.7 309.721 351.5 304.921Z" fill="#0073E4"/>
            <path d="M474 297.021C471.8 293.621 463.5 283.721 442.7 283.621C438.4 283.621 432.5 289.521 437.5 295.521C441.8 300.721 465.7 308.221 470.1 307.621C474.5 307.021 477 301.621 474 297.021Z" fill="#0073E4"/>
            <path d="M380 349.121C386.2 348.821 390.9 343.621 390.6 337.521C390.3 331.321 385.1 326.621 379 326.921C372.8 327.221 368.1 332.421 368.4 338.521C368.6 344.621 373.8 349.421 380 349.121Z" fill="#333333"/>
            <path d="M463 341.221C467.2 336.721 466.8 329.621 462.3 325.421C457.8 321.221 450.7 321.621 446.5 326.121C442.3 330.621 442.7 337.721 447.2 341.921C451.8 346.121 458.9 345.821 463 341.221Z" fill="#333333"/>
            <path d="M420.4 362.321C420.4 362.321 383.5 364.021 385.4 375.521C387.3 387.021 408.9 404.721 422.3 404.121C440.1 403.321 455.6 384.021 456.5 372.421C457.4 360.621 420.4 362.321 420.4 362.321Z" fill="#0073E4"/>
            <path d="M376.6 404.021C380.9 410.021 386.8 415.121 392.8 419.221C405.1 427.521 420.1 430.821 434.5 426.621C446.4 423.221 456.6 415.521 465.3 406.921C466.9 405.421 464.3 403.121 462.8 404.621C449.8 417.521 432.5 427.921 413.6 424.421C402.2 422.321 392.1 415.721 384.1 407.621C383.4 406.921 382.7 406.121 382 405.321C381.7 405.021 381.4 404.721 381.2 404.421C380.8 404.021 381.2 404.421 381 404.221C380.9 404.121 380.8 403.921 380.7 403.821C380.3 403.321 379.8 402.721 379.4 402.221C378.2 400.421 375.4 402.221 376.6 404.021Z" fill="#0073E4"/>
            <path d="M433.2 343.421L477.4 345.921L477.1 355.821L437.1 349.221L433.2 343.421Z" fill="#66B1FF"/>
            <path d="M357.8 354.621L400.8 344.221L402.4 350.421L362.7 361.621L357.8 354.621Z" fill="#66B1FF"/>
            <path d="M243.2 775.021C244.2 778.821 245.9 782.521 247.6 786.021C251.1 793.021 255.9 799.621 262.3 804.321C264.1 805.621 266.4 803.121 264.6 801.821C258.4 797.321 253.9 791.021 250.4 784.221C248.8 781.021 247.3 777.521 246.3 774.021C245.8 771.921 242.6 772.921 243.2 775.021Z" fill="#66B1FF"/>
            <path d="M207.7 780.221C210.3 787.721 214.6 795.021 220 800.721C222.4 803.321 225.1 805.521 228.1 807.321C230 808.421 231.6 805.421 229.7 804.321C223.6 800.621 219 794.821 215.5 788.721C213.7 785.721 212.1 782.421 211 779.121C210.2 777.121 207 778.121 207.7 780.221Z" fill="#66B1FF"/>
            <path d="M302 502.321C301.8 502.521 241 562.021 209.6 648.021C200.5 673.021 183.2 732.821 189.6 762.221C189.6 762.221 188.8 817.521 230.5 806.821L225.3 801.221C225.3 801.221 234.4 815.921 252.2 811.121C261.9 808.521 263.4 801.221 263.4 801.221C263.4 801.221 273.3 811.021 285.8 804.721C297.7 798.821 298.3 788.321 298.1 787.121C298.1 787.121 290.1 786.921 285.8 781.421C272.3 764.321 279.5 753.921 283.7 750.421C283.7 750.421 292.9 745.221 298.4 738.921C302.8 733.821 302.6 717.921 282.5 715.221C282.5 715.221 280.7 597.621 299.7 551.021L308.4 495.221L302 502.321Z" fill="url(#paint16_linear_920_16344)"/>
            <path d="M774.5 611.921L775.8 629.121L792.5 630.421L775.8 631.721L774.5 648.921L773.2 631.721L756.5 630.421L773.2 629.121L774.5 611.921Z" fill="url(#paint17_radial_920_16344)"/>
        </g>
        <path d="M243.2 776.721C244.2 780.521 245.9 784.221 247.6 787.721C251.1 794.721 255.9 801.321 262.3 806.021C264.1 807.321 266.4 804.821 264.6 803.521C258.4 799.021 253.9 792.721 250.4 785.921C248.8 782.721 247.3 779.221 246.3 775.721C245.9 773.521 242.6 774.621 243.2 776.721Z" fill="#66B1FF"/>
        <path d="M207.7 781.921C210.3 789.421 214.6 796.721 220 802.421C222.4 805.021 225.1 807.221 228.1 809.021C230 810.121 231.6 807.121 229.7 806.021C223.6 802.321 219 796.521 215.5 790.421C213.7 787.421 212.1 784.121 211 780.821C210.3 778.721 207 779.821 207.7 781.921Z" fill="#66B1FF"/>
        <path d="M211.9 789.321C218.8 788.821 329.9 775.521 329.9 775.521L322.8 739.521C322.8 739.521 213.1 769.421 208 771.421C202.9 773.421 205 789.821 211.9 789.321Z" fill="#4C4C4C"/>
        <path d="M223.4 788.921L224.3 788.821C224.5 788.821 224.7 788.721 224.8 788.621C225.1 788.421 225.2 787.921 225 787.621C222.2 781.321 220.7 774.721 220.8 767.821C220.8 767.521 220.7 767.321 220.5 767.121C220.3 766.921 220 766.921 219.7 767.021L218.7 767.321C218.3 767.421 218.1 767.721 218.1 768.121C218.1 775.121 219.5 782.021 222.4 788.421C222.6 788.821 223 789.021 223.4 788.921Z" fill="white" stroke="white" stroke-width="1.7257" stroke-linejoin="round"/>
        <path d="M340 777.721C347 782.121 357.3 786.121 366 784.421C384.1 780.821 395.9 763.321 392.4 745.221C388.8 727.121 371.3 715.321 353.2 718.821C344.5 720.521 336.7 727.521 331.9 734.221L340 777.721Z" fill="#989898"/>
        <path fill-rule="evenodd" clip-rule="evenodd" d="M331.9 733.821C331 733.221 329.8 732.921 328.7 733.121L326.9 733.421L323.1 734.121C322 734.321 321 735.021 320.4 735.921C319.8 736.821 319.5 738.021 319.8 739.121L327.3 777.121C327.5 778.221 328.2 779.221 329.1 779.821C330 780.421 331.2 780.721 332.3 780.421L333.9 780.121L337.7 779.421C338.8 779.221 339.8 778.621 340.4 777.621C341 776.721 341.3 775.521 341.1 774.421L333.8 736.321C333.5 735.421 332.9 734.521 331.9 733.821Z" fill="#ECECEC"/>
        <path d="M302 503.521C301.8 503.721 241 563.221 209.6 649.221C200.5 674.221 183.2 734.021 189.6 763.421C189.6 763.421 188.8 818.721 230.5 808.021L225.3 802.421C225.3 802.421 234.4 817.121 252.2 812.321C261.9 809.721 263.4 802.421 263.4 802.421C263.4 802.421 273.3 812.221 285.8 805.921C297.7 800.021 298.3 789.521 298.1 788.321C298.1 788.321 290.1 788.121 285.8 782.621C272.3 765.521 279.5 755.121 283.7 751.621C283.7 751.621 292.9 746.421 298.4 740.121C302.8 735.021 302.6 719.121 282.5 716.421C282.5 716.421 280.7 598.821 299.7 552.221L308.4 496.421L302 503.521Z" fill="url(#paint18_linear_920_16344)"/>
        <path d="M243.2 775.621C244.2 779.421 245.9 783.121 247.6 786.621C251.1 793.621 255.9 800.221 262.3 804.921C264.1 806.221 266.4 803.721 264.6 802.421C258.4 797.921 253.9 791.621 250.4 784.821C248.8 781.621 247.3 778.121 246.3 774.621C245.9 772.421 242.6 773.521 243.2 775.621Z" fill="#66B1FF"/>
        <path d="M207.7 780.821C210.3 788.321 214.6 795.621 220 801.321C222.4 803.921 225.1 806.121 228.1 807.921C230 809.021 231.6 806.021 229.7 804.921C223.6 801.221 219 795.421 215.5 789.321C213.7 786.321 212.1 783.021 211 779.721C210.3 777.621 207 778.721 207.7 780.821Z" fill="#66B1FF"/>
        <path d="M367.9 784.021C367.5 784.121 366.9 784.321 366.7 784.321C365.8 783.121 365 780.721 364.3 779.421C355.2 761.421 350.9 739.621 352.3 719.121C352.5 719.021 352.9 719.021 353.3 718.921C351.8 739.421 356.2 761.021 365.3 778.921C366 780.221 366.8 782.721 367.9 784.021Z" fill="#4C4C4C"/>
        <path fill-rule="evenodd" clip-rule="evenodd" d="M368.4 785.621C368.1 785.721 367.8 785.821 367.6 785.821C367.4 785.821 367 785.921 366.8 785.921C366.2 785.921 365.7 785.721 365.3 785.221C364.7 784.421 364.2 783.321 363.8 782.421C363.6 782.021 363.5 781.721 363.4 781.421C363.2 780.821 363 780.421 362.8 780.021C353.5 761.721 349.2 739.721 350.6 718.821C350.6 718.221 351 717.621 351.6 717.321C351.8 717.221 352 717.221 352.1 717.121C352.2 717.121 352.3 717.121 352.4 717.021C352.6 717.021 352.7 716.921 352.8 716.921C353.3 716.721 353.9 716.921 354.4 717.221C354.8 717.521 355.1 718.121 355 718.721C353.6 738.921 357.9 760.121 366.8 777.821C367.1 778.321 367.4 779.021 367.7 779.721C367.8 780.021 368 780.321 368.1 780.621C368.5 781.521 368.9 782.221 369.2 782.621C369.4 782.821 369.6 783.121 369.7 783.521C369.7 784.521 369.3 785.321 368.4 785.621Z" fill="#4C4C4C"/>
    </g>
    <defs>
        <linearGradient id="paint0_linear_920_16344" x1="304.258" y1="1007.49" x2="1483.01" y2="43.9088" gradientUnits="userSpaceOnUse">
            <stop stop-color="#FF0099"/>
            <stop offset="0.65" stop-color="#A000FF" stop-opacity="0"/>
        </linearGradient>
        <linearGradient id="paint1_linear_920_16344" x1="-175.388" y1="1104.76" x2="1406.63" y2="-152.842" gradientUnits="userSpaceOnUse">
            <stop stop-color="#FF0099"/>
            <stop offset="0.65" stop-color="#A000FF" stop-opacity="0"/>
        </linearGradient>
        <linearGradient id="paint2_linear_920_16344" x1="393.829" y1="1067.07" x2="750.126" y2="721.755" gradientUnits="userSpaceOnUse">
            <stop stop-color="#5900FF" stop-opacity="0"/>
            <stop offset="0.474" stop-color="#005EFF" stop-opacity="0.31"/>
            <stop offset="1" stop-color="#00FFBA"/>
        </linearGradient>
        <radialGradient id="paint3_radial_920_16344" cx="0" cy="0" r="1" gradientUnits="userSpaceOnUse" gradientTransform="translate(719.567 667.642) rotate(50.3128) scale(97.7556 134.309)">
            <stop stop-color="#026FF7"/>
            <stop offset="0.5622" stop-color="#FF00EF"/>
            <stop offset="1" stop-color="#FF002B"/>
        </radialGradient>
        <radialGradient id="paint4_radial_920_16344" cx="0" cy="0" r="1" gradientUnits="userSpaceOnUse" gradientTransform="translate(725.353 219.551) rotate(137.064) scale(215.695 301.306)">
            <stop stop-color="#FF0065"/>
            <stop offset="0.5622" stop-color="#FF00C1" stop-opacity="0.1"/>
            <stop offset="1" stop-color="#FF0037" stop-opacity="0"/>
        </radialGradient>
        <radialGradient id="paint5_radial_920_16344" cx="0" cy="0" r="1" gradientUnits="userSpaceOnUse" gradientTransform="translate(742.494 212.538) rotate(134.706) scale(93.2691 130.374)">
            <stop stop-color="#FF00D6"/>
            <stop offset="0.5622" stop-color="#FF004D"/>
            <stop offset="1" stop-color="#FF6291"/>
        </radialGradient>
        <radialGradient id="paint6_radial_920_16344" cx="0" cy="0" r="1" gradientUnits="userSpaceOnUse" gradientTransform="translate(619.769 253.117) rotate(134.402) scale(294.241 410.883)">
            <stop stop-color="#00F1FF" stop-opacity="0.57"/>
            <stop offset="0.4634" stop-color="#00FFB1" stop-opacity="0.12"/>
            <stop offset="1" stop-color="#00C4FF" stop-opacity="0"/>
        </radialGradient>
        <radialGradient id="paint7_radial_920_16344" cx="0" cy="0" r="1" gradientUnits="userSpaceOnUse" gradientTransform="translate(630.627 248.605) rotate(134.587) scale(61.7043 86.2475)">
            <stop stop-color="#F7EB02"/>
            <stop offset="0.5622" stop-color="#00FF76"/>
            <stop offset="1" stop-color="#00C4FF"/>
        </radialGradient>
        <linearGradient id="paint8_linear_920_16344" x1="151.284" y1="489.334" x2="325.615" y2="679.026" gradientUnits="userSpaceOnUse">
            <stop stop-color="#0CFFDE"/>
            <stop offset="0.65" stop-color="#0CFFDE" stop-opacity="0"/>
        </linearGradient>
        <radialGradient id="paint9_radial_920_16344" cx="0" cy="0" r="1" gradientUnits="userSpaceOnUse" gradientTransform="translate(211.005 275.43) rotate(135.967) scale(24.7246 31.1631)">
            <stop stop-color="#FFE4AD"/>
            <stop offset="1" stop-color="#FFEC2D"/>
        </radialGradient>
        <radialGradient id="paint10_radial_920_16344" cx="0" cy="0" r="1" gradientUnits="userSpaceOnUse" gradientTransform="translate(211.005 275.43) rotate(135.967) scale(24.7246 31.1631)">
            <stop stop-color="#ADFFEE"/>
            <stop offset="1" stop-color="#2DF9FF"/>
        </radialGradient>
        <radialGradient id="paint11_radial_920_16344" cx="0" cy="0" r="1" gradientUnits="userSpaceOnUse" gradientTransform="translate(138.065 645.03) rotate(136.417) scale(60.3522 76.0186)">
            <stop stop-color="#ADFFEE"/>
            <stop offset="1" stop-color="#2DF9FF"/>
        </radialGradient>
        <radialGradient id="paint12_radial_920_16344" cx="0" cy="0" r="1" gradientUnits="userSpaceOnUse" gradientTransform="translate(138.065 645.03) rotate(136.417) scale(60.3522 76.0186)">
            <stop stop-color="#FFE4AD"/>
            <stop offset="1" stop-color="#FFEC2D"/>
        </radialGradient>
        <linearGradient id="paint13_linear_920_16344" x1="724.965" y1="329.752" x2="587.037" y2="595.399" gradientUnits="userSpaceOnUse">
            <stop stop-color="#0F8AEF"/>
            <stop offset="0.3" stop-color="#2B96F4"/>
            <stop offset="0.83" stop-color="#66B1FF"/>
        </linearGradient>
        <linearGradient id="paint14_linear_920_16344" x1="256.718" y1="811.117" x2="242.995" y2="504.427" gradientUnits="userSpaceOnUse">
            <stop stop-color="#0F8AEF"/>
            <stop offset="0.3" stop-color="#2B96F4"/>
            <stop offset="0.83" stop-color="#66B1FF"/>
        </linearGradient>
        <linearGradient id="paint15_linear_920_16344" x1="256.718" y1="811.117" x2="242.995" y2="504.427" gradientUnits="userSpaceOnUse">
            <stop stop-color="#0F8AEF"/>
            <stop offset="0.3" stop-color="#2B96F4"/>
            <stop offset="0.83" stop-color="#66B1FF"/>
        </linearGradient>
        <linearGradient id="paint16_linear_920_16344" x1="256.743" y1="811.685" x2="243.021" y2="504.995" gradientUnits="userSpaceOnUse">
            <stop stop-color="#0F8AEF"/>
            <stop offset="0.3" stop-color="#2B96F4"/>
            <stop offset="0.83" stop-color="#66B1FF"/>
        </linearGradient>
        <radialGradient id="paint17_radial_920_16344" cx="0" cy="0" r="1" gradientUnits="userSpaceOnUse" gradientTransform="translate(774.478 619.253) rotate(135.946) scale(24.0649 30.3323)">
            <stop stop-color="#FFE4AD"/>
            <stop offset="1" stop-color="#FFEC2D"/>
        </radialGradient>
        <linearGradient id="paint18_linear_920_16344" x1="256.743" y1="812.81" x2="243.02" y2="506.12" gradientUnits="userSpaceOnUse">
            <stop stop-color="#0F8AEF"/>
            <stop offset="0.3" stop-color="#2B96F4"/>
            <stop offset="0.83" stop-color="#66B1FF"/>
        </linearGradient>
        <clipPath id="clip0_920_16344">
            <rect width="1467" height="845" fill="white" transform="translate(0.200012 0.821289)"/>
        </clipPath>
    </defs>
</svg>
