<svg width="1467" height="845" viewBox="0 0 1467 845" fill="none" xmlns="http://www.w3.org/2000/svg">
    <g clip-path="url(#clip0_331_10562)">
        <rect width="1348" height="332" rx="166" transform="matrix(0.707107 -0.707107 -0.707107 -0.707107 514.312 1135.12)" fill="url(#paint0_linear_331_10562)"/>
        <rect width="1792" height="388" rx="125.596" transform="matrix(0.707107 -0.707107 -0.707107 -0.707107 92.3125 1267.12)" fill="url(#paint1_linear_331_10562)"/>
        <path d="M431.185 1104.99L777.208 748.235L702.321 691.939L367.422 1039.19L431.185 1104.99Z" fill="url(#paint2_linear_331_10562)"/>
        <path d="M748.32 657.125L759.321 692.02L794.922 692.02L766.121 713.586L777.122 748.48L748.32 726.914L719.519 748.48L730.52 713.586L701.719 692.02L737.319 692.02L748.32 657.125Z" fill="url(#paint3_radial_331_10562)"/>
        <path fill-rule="evenodd" clip-rule="evenodd" d="M734.067 269.88L755.488 248.354C765.921 237.939 765.921 221.35 755.488 210.936C745.232 200.521 728.434 200.521 718.001 210.936L711.812 217.112L705.624 210.936C695.191 200.521 678.393 200.521 668.137 210.936C666.704 212.366 665.468 213.913 664.429 215.545L514.206 365.499L576.487 427.669L734.312 270.125L734.067 269.88Z" fill="url(#paint4_radial_331_10562)"/>
        <path d="M668.137 248.354L694.13 274.475L711.812 292.125L729.495 274.475L755.488 248.354C765.921 237.939 765.921 221.35 755.488 210.936C745.232 200.521 728.434 200.521 718.001 210.936L711.812 217.112L705.624 210.936C695.191 200.521 678.393 200.521 668.137 210.936C657.704 221.35 657.704 237.939 668.137 248.354Z" fill="url(#paint5_radial_331_10562)"/>
        <path fill-rule="evenodd" clip-rule="evenodd" d="M579.928 249.073L369.402 459.701L411.112 501.431L625.312 287.125L624.787 286.599L639.147 272.108C646.034 265.204 646.034 254.206 639.147 247.303C632.376 240.399 621.286 240.399 614.398 247.303L610.312 251.398L606.227 247.303C600.031 241.092 590.434 240.469 583.64 245.432L583.603 245.395L583.352 245.647C582.698 246.146 582.072 246.698 581.478 247.303C580.915 247.867 580.399 248.459 579.928 249.073Z" fill="url(#paint6_radial_331_10562)"/>
        <path d="M581.478 272.108L598.639 289.424L610.312 301.125L621.986 289.424L639.147 272.108C646.034 265.204 646.034 254.206 639.147 247.303C632.376 240.399 621.286 240.399 614.398 247.303L610.312 251.398L606.227 247.303C599.339 240.399 588.249 240.399 581.478 247.303C574.591 254.206 574.591 265.204 581.478 272.108Z" fill="url(#paint7_radial_331_10562)"/>
        <path opacity="0.1" d="M137.196 533.92L137.188 533.928L120.035 551.236L120.028 551.244L110.618 560.676L101.207 551.244L101.2 551.236L84.0468 533.927L84.0469 533.927L84.0392 533.92C78.3923 528.26 78.3922 519.276 84.0391 513.616L84.0488 513.606L84.0584 513.597C89.5689 507.978 98.6221 507.95 104.276 513.616L106.532 511.365L104.276 513.616L108.361 517.711L110.617 519.972L112.873 517.711L116.959 513.616L115.357 512.019L116.959 513.616C122.612 507.95 131.666 507.978 137.176 513.597L137.186 513.607L137.195 513.616C142.842 519.276 142.842 528.26 137.196 533.92Z" fill="white" stroke="white" stroke-width="6.37337"/>
        <path fill-rule="evenodd" clip-rule="evenodd" d="M115.727 549.26L114.867 548.399L77.0131 510.244C61.819 495.032 61.8189 470.8 77.0127 455.588C91.9475 440.377 116.411 440.377 131.605 455.589L140.617 464.611L149.629 455.589C164.823 440.377 189.287 440.377 204.222 455.589C205.894 457.263 207.382 459.046 208.686 460.915C209.031 461.205 209.367 461.513 209.692 461.838L347.509 599.875C353.546 605.922 353.546 615.725 347.509 621.772L278.227 691.165C272.19 697.211 262.402 697.211 256.365 691.165L118.548 553.128C117.382 551.961 116.442 550.653 115.727 549.26Z" fill="url(#paint8_linear_331_10562)" fill-opacity="0.25"/>
        <g filter="url(#filter0_f_331_10562)">
            <path d="M202.455 508.479L202.449 508.485L164.602 546.634L164.596 546.64L140.618 570.646L116.64 546.64L116.634 546.634L78.7864 508.485L78.7804 508.479C64.5605 494.242 64.5603 471.59 78.7801 457.354L78.7876 457.346L78.7952 457.338C92.7425 443.133 115.611 443.111 129.838 457.354L138.85 466.376L140.617 468.146L142.385 466.377L151.397 457.354C165.623 443.111 188.492 443.133 202.439 457.339L202.447 457.347L202.454 457.354C216.674 471.591 216.675 494.243 202.455 508.479Z" stroke="#00FFE1" stroke-width="4.99578"/>
        </g>
        <path d="M202.455 508.479L202.449 508.485L164.602 546.634L164.596 546.64L140.618 570.646L116.64 546.64L116.634 546.634L78.7864 508.485L78.7804 508.479C64.5605 494.242 64.5603 471.59 78.7801 457.354L78.7876 457.346L78.7952 457.338C92.7425 443.133 115.611 443.111 129.838 457.354L138.85 466.376L140.617 468.146L142.385 466.377L151.397 457.354C165.623 443.111 188.492 443.133 202.439 457.339L202.447 457.347L202.454 457.354C216.674 471.591 216.675 494.243 202.455 508.479Z" stroke="#00FFE1" stroke-width="4.99578"/>
        <g filter="url(#filter1_f_331_10562)">
            <path d="M203.253 509.277L203.25 509.28L165.4 547.431L165.397 547.435L140.618 572.242L115.839 547.434L115.836 547.431L77.9856 509.279L77.9823 509.276C63.3224 494.599 63.3222 471.233 77.9819 456.556L77.982 456.556L77.9902 456.548C92.3835 441.888 115.972 441.876 130.636 456.557L139.648 465.579L140.617 466.55L141.586 465.579L150.599 456.557C165.262 441.876 188.851 441.889 203.244 456.549L203.253 456.557C217.913 471.234 217.913 494.6 203.253 509.277Z" stroke="#96FFC0" stroke-width="2.73962"/>
        </g>
        <path d="M210.812 267.125L212.121 284.781L229.312 286.125L212.121 287.469L210.812 305.125L209.504 287.469L192.312 286.125L209.504 284.781L210.812 267.125Z" fill="url(#paint9_radial_331_10562)"/>
        <path d="M210.812 267.125L212.121 284.781L229.312 286.125L212.121 287.469L210.812 305.125L209.504 287.469L192.312 286.125L209.504 284.781L210.812 267.125Z" fill="url(#paint10_radial_331_10562)"/>
        <path d="M137.812 626.125L141.03 668.872L183.312 672.125L141.03 675.378L137.812 718.125L134.595 675.378L92.3125 672.125L134.595 668.872L137.812 626.125Z" fill="#00A3FF"/>
        <path d="M137.812 626.125L141.03 668.872L183.312 672.125L141.03 675.378L137.812 718.125L134.595 675.378L92.3125 672.125L134.595 668.872L137.812 626.125Z" fill="url(#paint11_radial_331_10562)"/>
        <path d="M137.812 626.125L141.03 668.872L183.312 672.125L141.03 675.378L137.812 718.125L134.595 675.378L92.3125 672.125L134.595 668.872L137.812 626.125Z" fill="url(#paint12_radial_331_10562)"/>
        <path d="M382.731 922.605C387.661 893.689 415.682 806.658 433.09 805.913C458.005 804.833 476.933 888.899 483.542 921.144C483.688 921.865 583.837 907.406 590.885 905.748C591.133 905.691 591.356 905.579 591.541 905.411C601.191 896.799 611.147 872.642 598.675 766.817C593.999 728.672 576.742 597.028 528.045 465.313C524.822 456.594 524.723 447.018 528.126 438.378C528.207 438.169 528.347 437.981 528.511 437.826C530.556 435.982 544.279 423.046 545.395 405.781C547.298 376.592 523.077 326.555 519.363 319.075C519.087 318.507 519.228 317.829 519.687 317.411C533.823 304.547 533.426 296.953 533.233 295.699C533.217 295.586 533.19 295.484 533.151 295.384C522.288 267.482 498.255 261.059 491.232 263.012C485.511 264.599 480.118 272.213 478.286 275.015C477.902 275.601 477.127 275.806 476.499 275.504C445.632 260.786 423.634 262.965 412.245 263.474C375.136 265.135 350.529 278.171 344.961 281.39C344.296 281.772 343.445 281.571 343.051 280.918C336.838 270.728 332.392 270.028 331.673 269.981C331.616 269.983 331.56 269.986 331.492 269.989C319.072 270.601 295.619 286.294 292.968 302.831C291.535 311.747 305.634 322.71 309.174 325.305C309.645 325.648 309.854 326.265 309.698 326.829C296.719 373.695 285.341 394.536 291.918 417.191C294.555 426.289 309.966 448.776 310.976 450.244C311.012 450.3 311.049 450.355 311.074 450.411C314.608 457.182 315.347 465.045 313.356 472.427C276.386 609.398 262.52 775.031 262.52 775.031C256.522 829.14 247.366 885.665 260.569 919.082C260.787 919.63 382.593 923.339 382.721 922.628L382.731 922.605Z" fill="#66B1FF"/>
        <path d="M516.456 562.82C473.703 522.225 430.535 561.635 427.065 564.942C423.302 561.959 376.798 526.561 337.841 570.812C294.606 619.919 340.193 713.669 355.292 735.544C370.391 757.42 399.914 792.713 437.64 792.14C475.278 789.341 500.703 751.601 513.787 728.453C526.871 705.317 563.904 607.881 516.456 562.82Z" fill="white"/>
        <path d="M482.527 364.431C476.89 349.062 418.853 353.684 418.881 354.035C418.853 353.684 362.408 357.746 357.796 374.7C354.992 385.02 357.718 405.003 363.373 417.22C369.621 430.73 404.761 456.772 426.544 454.876C447.543 453.253 480.013 421.649 483.978 407.295C487.562 394.323 486.22 374.495 482.527 364.431Z" fill="white"/>
        <path d="M380.068 354.604C389.694 354.173 397.149 346.02 396.718 336.394C396.287 326.767 388.135 319.313 378.508 319.744C368.882 320.174 361.427 328.327 361.858 337.954C362.289 347.58 370.442 355.034 380.068 354.604Z" fill="white"/>
        <path d="M471.783 335.5C473.18 325.966 466.584 317.104 457.05 315.707C447.516 314.31 438.654 320.906 437.257 330.44C435.859 339.974 442.456 348.836 451.99 350.233C461.524 351.631 470.386 345.034 471.783 335.5Z" fill="white"/>
        <path d="M772.38 392.053C771.012 380.816 759.325 372.873 745.514 379.283C736.508 383.463 735.595 389.25 735.595 389.25C735.595 389.25 738.638 367.234 738.352 353.719C738.101 341.772 736.325 332.578 724.101 329.188C714.193 326.435 703.691 331.512 699.874 345.371C696.88 356.268 695.364 370.706 695.364 370.706C686.319 344.02 679.189 338.252 663.364 339.814C655.729 340.565 646.006 349.34 648.326 359.476C652.129 376.065 662.65 403.698 662.65 403.698C662.65 403.698 652.104 402.201 646.317 405.35C631.865 413.199 628.309 429.321 645.402 450.266C640.638 549.5 527.827 466.608 527.827 466.608L560.943 577.642C650.078 644.538 735.355 618.342 761.913 464.804C761.913 464.804 774.615 410.476 772.38 392.064L772.38 392.053Z" fill="url(#paint13_linear_331_10562)"/>
        <path d="M739.945 429.288C729.85 424.904 727.81 414.903 728.97 405.999C718.398 402.911 704.471 404.41 701.195 414.615C701.195 414.615 687.004 402.336 675.907 410.399C685.207 416.593 695.008 428.659 687.342 441.688C684.308 446.853 680.284 449.98 675.955 451.653C687.235 461.411 704.976 466.056 712.903 465.724C730.039 464.991 749.886 449.312 748.665 430.912C745.965 431.101 743.067 430.65 739.957 429.299L739.945 429.288Z" fill="#66B1FF"/>
        <path d="M301.776 500.971C301.583 501.219 240.779 560.715 209.412 646.713C200.281 671.743 183.012 731.555 189.424 760.942C189.424 760.942 188.611 816.263 230.296 805.512L225.074 799.92C225.074 799.92 234.161 814.578 251.926 809.846C261.618 807.262 263.168 799.934 263.168 799.934C263.168 799.934 273.093 809.684 285.557 803.437C297.408 797.491 298.102 787.072 297.875 785.797C297.875 785.797 289.924 785.606 285.594 780.122C272.108 763.011 279.324 752.63 283.445 749.123C283.445 749.123 292.692 743.965 298.143 737.634C302.567 732.498 302.345 716.613 282.201 713.953C282.201 713.953 280.388 596.376 299.398 549.786L308.073 493.968L301.776 500.971Z" fill="url(#paint14_linear_331_10562)"/>
        <path d="M301.776 500.971C301.583 501.219 240.779 560.715 209.412 646.713C200.281 671.743 183.012 731.555 189.424 760.942C189.424 760.942 188.611 816.263 230.296 805.512L225.074 799.92C225.074 799.92 234.161 814.578 251.926 809.846C261.618 807.262 263.168 799.934 263.168 799.934C263.168 799.934 273.093 809.684 285.557 803.437C297.408 797.491 298.102 787.072 297.875 785.797C297.875 785.797 289.924 785.606 285.594 780.122C272.108 763.011 279.324 752.63 283.445 749.123C283.445 749.123 292.692 743.965 298.143 737.634C302.567 732.498 302.345 716.613 282.201 713.953C282.201 713.953 280.388 596.376 299.398 549.786L308.073 493.968L301.776 500.971Z" fill="url(#paint15_linear_331_10562)"/>
        <path d="M351.313 304.126C353.41 300.63 361.328 290.456 382.05 289.484C386.342 289.292 392.456 294.991 387.75 301.175C383.645 306.581 360.033 314.897 355.681 314.523C351.226 314.131 348.476 308.86 351.314 304.137L351.313 304.126Z" fill="#0073E4"/>
        <path d="M473.805 296.201C471.571 292.796 463.267 282.928 442.529 282.752C438.227 282.717 432.348 288.658 437.282 294.661C441.601 299.894 465.508 307.313 469.84 306.755C474.275 306.192 476.822 300.822 473.805 296.201Z" fill="#0073E4"/>
        <path d="M379.793 348.319C385.945 348.044 390.709 342.834 390.433 336.682C390.158 330.53 384.948 325.765 378.796 326.041C372.644 326.316 367.879 331.526 368.155 337.678C368.43 343.831 373.64 348.595 379.793 348.319Z" fill="#333333"/>
        <path d="M462.826 340.421C466.982 335.876 466.666 328.823 462.122 324.667C457.577 320.512 450.524 320.828 446.368 325.372C442.213 329.917 442.528 336.97 447.073 341.126C451.618 345.281 458.671 344.966 462.826 340.421Z" fill="#333333"/>
        <path d="M420.245 361.479C420.245 361.479 383.329 363.131 385.244 374.651C387.159 386.171 408.781 403.806 422.112 403.209C439.871 402.415 455.403 383.117 456.282 371.472C457.16 359.828 420.245 361.479 420.245 361.479Z" fill="#0073E4"/>
        <path d="M376.442 403.228C380.749 409.213 386.599 414.345 392.665 418.454C404.962 426.789 419.932 430.034 434.378 425.86C446.284 422.426 456.524 414.788 465.218 406.173C466.776 404.624 464.261 402.325 462.703 403.874C449.739 416.73 432.434 427.176 413.526 423.653C402.155 421.533 392.044 415 384.044 406.824C383.316 406.083 382.6 405.319 381.905 404.542C381.629 404.236 381.354 403.918 381.089 403.611C380.718 403.184 381.09 403.623 380.909 403.403C380.789 403.261 380.681 403.129 380.561 402.987C380.128 402.46 379.706 401.933 379.306 401.382C378.032 399.607 375.156 401.442 376.442 403.228Z" fill="#0073E4"/>
        <path d="M432.992 342.648L477.192 345.131L476.941 355.018L436.935 348.388L432.992 342.648Z" fill="#66B1FF"/>
        <path d="M357.622 353.845L400.619 343.411L402.262 349.618L362.587 360.802L357.622 353.845Z" fill="#66B1FF"/>
        <path d="M242.956 774.217C243.991 778.016 245.624 781.709 247.385 785.215C250.907 792.225 255.72 798.825 262.106 803.477C263.859 804.753 266.181 802.248 264.406 800.962C258.219 796.449 253.659 790.156 250.25 783.368C248.614 780.119 247.151 776.68 246.198 773.173C245.626 771.06 242.373 772.104 242.957 774.228L242.956 774.217Z" fill="#66B1FF"/>
        <path d="M207.501 779.382C210.054 786.868 214.431 794.159 219.809 799.926C222.2 802.493 224.905 804.727 227.91 806.527C229.804 807.659 231.375 804.631 229.493 803.509C223.355 799.836 218.772 794.033 215.244 787.922C213.493 784.883 211.87 781.667 210.742 778.327C210.034 776.254 206.782 777.298 207.501 779.382Z" fill="#66B1FF"/>
        <path d="M301.8 501.542C301.606 501.789 240.802 561.285 209.436 647.283C200.304 672.313 183.035 732.125 189.447 761.512C189.447 761.512 188.635 816.833 230.32 806.082L225.097 800.49C225.097 800.49 234.184 815.148 251.95 810.416C261.642 807.832 263.191 800.504 263.191 800.504C263.191 800.504 273.116 810.254 285.58 804.008C297.431 798.062 298.126 787.643 297.898 786.367C297.898 786.367 289.948 786.177 285.618 780.693C272.132 763.581 279.347 753.2 283.469 749.693C283.469 749.693 292.715 744.535 298.167 738.204C302.59 733.068 302.369 717.183 282.225 714.523C282.225 714.523 280.411 596.946 299.421 550.356L308.097 494.538L301.8 501.542Z" fill="url(#paint16_linear_331_10562)"/>
        <path d="M774.312 611.125L775.585 628.317L792.312 629.625L775.585 630.933L774.312 648.125L773.04 630.933L756.312 629.625L773.04 628.317L774.312 611.125Z" fill="url(#paint17_radial_331_10562)"/>
    </g>
    <path d="M242.98 775.912C244.015 779.712 245.648 783.405 247.409 786.91C250.931 793.92 255.743 800.52 262.13 805.173C263.882 806.448 266.205 803.943 264.429 802.658C258.242 798.144 253.683 791.852 250.273 785.064C248.637 781.815 247.175 778.376 246.221 774.868C245.649 772.755 242.396 773.799 242.98 775.924L242.98 775.912Z" fill="#66B1FF"/>
    <path d="M207.524 781.078C210.078 788.564 214.455 795.854 219.833 801.621C222.223 804.188 224.928 806.422 227.933 808.222C229.827 809.355 231.398 806.326 229.516 805.204C223.378 801.531 218.795 795.728 215.268 789.617C213.516 786.578 211.893 783.362 210.765 780.022C210.058 777.949 206.805 778.993 207.524 781.078Z" fill="#66B1FF"/>
    <path d="M211.714 788.489C218.602 788.021 329.752 774.667 329.752 774.667L322.687 738.647C322.687 738.647 212.952 768.514 207.903 770.586C202.854 772.659 204.826 788.957 211.714 788.489Z" fill="#4C4C4C"/>
    <path d="M223.181 788.148L224.131 788.026C224.317 788.022 224.501 787.957 224.653 787.833C224.956 787.586 225.055 787.166 224.895 786.809C222.071 780.55 220.626 773.875 220.706 767.024C220.709 766.75 220.583 766.492 220.365 766.326C220.147 766.161 219.863 766.109 219.601 766.186L218.603 766.479C218.237 766.586 217.984 766.921 217.983 767.303C217.951 774.35 219.43 781.19 222.282 787.641C222.436 787.991 222.802 788.197 223.181 788.148Z" fill="white" stroke="white" stroke-width="1.72573" stroke-linejoin="round"/>
    <path d="M339.793 776.939C346.75 781.323 357.073 785.31 365.78 783.603C383.891 780.05 395.693 762.489 392.14 744.379C388.587 726.268 371.026 714.466 352.916 718.019C344.209 719.726 336.43 726.697 331.645 733.385L339.793 776.939Z" fill="#989898"/>
    <path d="M368.529 782.987C368.615 783.411 368.372 783.833 367.963 783.973C367.73 784.053 367.445 784.134 367.195 784.196C366.971 784.251 366.692 784.314 366.507 784.327C366.22 784.346 365.942 784.221 365.766 783.993C365.229 783.298 364.759 782.305 364.361 781.394C364.215 781.06 364.079 780.738 363.95 780.433C363.707 779.857 363.489 779.341 363.28 778.923C363.279 778.922 363.279 778.922 363.278 778.921L364.05 778.534C354.919 760.552 350.662 738.782 352.052 718.229L368.529 782.987ZM368.529 782.987C368.492 782.802 368.398 782.641 368.267 782.522M368.529 782.987L368.267 782.522M368.267 782.522C367.867 782.015 367.465 781.215 367.054 780.289C366.922 779.992 366.788 779.678 366.654 779.365C366.377 778.717 366.101 778.073 365.847 777.578L368.267 782.522Z" fill="#4C4C4C" stroke="#4C4C4C" stroke-width="1.72573" stroke-linejoin="round"/>
    <path fill-rule="evenodd" clip-rule="evenodd" d="M331.74 733.041C330.801 732.404 329.671 732.171 328.558 732.384L326.762 732.728L326.758 732.709L322.948 733.456C321.835 733.674 320.874 734.313 320.242 735.254C319.61 736.195 319.381 737.326 319.6 738.438L327.06 776.477C327.279 777.589 327.917 778.55 328.858 779.183C329.799 779.815 330.93 780.043 332.043 779.825L333.632 779.513L333.634 779.524L337.447 778.793C338.561 778.58 339.525 777.946 340.161 777.007C340.798 776.069 341.031 774.939 340.818 773.826L333.525 735.755C333.312 734.641 332.678 733.677 331.74 733.041Z" fill="#ECECEC"/>
    <path d="M301.8 502.667C301.606 502.914 240.802 562.41 209.436 648.408C200.304 673.438 183.035 733.25 189.447 762.637C189.447 762.637 188.635 817.958 230.32 807.207L225.097 801.615C225.097 801.615 234.184 816.273 251.95 811.541C261.642 808.957 263.191 801.629 263.191 801.629C263.191 801.629 273.116 811.379 285.58 805.133C297.431 799.187 298.126 788.768 297.898 787.492C297.898 787.492 289.948 787.302 285.618 781.818C272.132 764.706 279.347 754.325 283.469 750.818C283.469 750.818 292.715 745.66 298.167 739.329C302.59 734.193 302.369 718.308 282.225 715.648C282.225 715.648 280.411 598.071 299.421 551.481L308.097 495.663L301.8 502.667Z" fill="url(#paint18_linear_331_10562)"/>
    <path d="M242.98 774.787C244.015 778.587 245.648 782.28 247.409 785.785C250.931 792.795 255.743 799.395 262.13 804.048C263.882 805.323 266.205 802.818 264.429 801.533C258.242 797.019 253.683 790.727 250.273 783.939C248.637 780.69 247.175 777.251 246.221 773.743C245.649 771.63 242.396 772.674 242.98 774.799L242.98 774.787Z" fill="#66B1FF"/>
    <path d="M207.524 779.953C210.078 787.439 214.455 794.729 219.833 800.496C222.223 803.063 224.928 805.297 227.933 807.097C229.827 808.23 231.398 805.201 229.516 804.079C223.378 800.406 218.795 794.603 215.268 788.492C213.516 785.453 211.893 782.237 210.765 778.897C210.058 776.824 206.805 777.868 207.524 779.953Z" fill="#66B1FF"/>
    <defs>
        <filter id="filter0_f_331_10562" x="42.411" y="420.973" width="196.412" height="176.412" filterUnits="userSpaceOnUse" color-interpolation-filters="sRGB">
            <feFlood flood-opacity="0" result="BackgroundImageFix"/>
            <feBlend mode="normal" in="SourceGraphic" in2="BackgroundImageFix" result="shape"/>
            <feGaussianBlur stdDeviation="11.6031" result="effect1_foregroundBlur_331_10562"/>
        </filter>
        <filter id="filter1_f_331_10562" x="63.361" y="441.924" width="154.512" height="134.512" filterUnits="userSpaceOnUse" color-interpolation-filters="sRGB">
            <feFlood flood-opacity="0" result="BackgroundImageFix"/>
            <feBlend mode="normal" in="SourceGraphic" in2="BackgroundImageFix" result="shape"/>
            <feGaussianBlur stdDeviation="1.12808" result="effect1_foregroundBlur_331_10562"/>
        </filter>
        <linearGradient id="paint0_linear_331_10562" x1="-57.4511" y1="243.373" x2="1457.42" y2="91.2255" gradientUnits="userSpaceOnUse">
            <stop stop-color="#FF0099"/>
            <stop offset="0.65" stop-color="#A000FF" stop-opacity="0"/>
        </linearGradient>
        <linearGradient id="paint1_linear_331_10562" x1="-76.3742" y1="284.424" x2="1931.56" y2="55.0234" gradientUnits="userSpaceOnUse">
            <stop stop-color="#FF0099"/>
            <stop offset="0.65" stop-color="#A000FF" stop-opacity="0"/>
        </linearGradient>
        <linearGradient id="paint2_linear_331_10562" x1="388.992" y1="1061.45" x2="745.289" y2="716.138" gradientUnits="userSpaceOnUse">
            <stop stop-color="#5900FF" stop-opacity="0"/>
            <stop offset="0.473957" stop-color="#005EFF" stop-opacity="0.31"/>
            <stop offset="1" stop-color="#00FFBA"/>
        </linearGradient>
        <radialGradient id="paint3_radial_331_10562" cx="0" cy="0" r="1" gradientUnits="userSpaceOnUse" gradientTransform="translate(719.334 666.837) rotate(50.3128) scale(97.7556 134.309)">
            <stop stop-color="#026FF7"/>
            <stop offset="0.562168" stop-color="#FF00EF"/>
            <stop offset="1" stop-color="#FF002B"/>
        </radialGradient>
        <radialGradient id="paint4_radial_331_10562" cx="0" cy="0" r="1" gradientUnits="userSpaceOnUse" gradientTransform="translate(725.184 218.758) rotate(137.064) scale(215.695 301.306)">
            <stop stop-color="#FF0065"/>
            <stop offset="0.562168" stop-color="#FF00C1" stop-opacity="0.1"/>
            <stop offset="1" stop-color="#FF0037" stop-opacity="0"/>
        </radialGradient>
        <radialGradient id="paint5_radial_331_10562" cx="0" cy="0" r="1" gradientUnits="userSpaceOnUse" gradientTransform="translate(742.277 211.683) rotate(134.706) scale(93.269 130.374)">
            <stop stop-color="#FF00D6"/>
            <stop offset="0.562168" stop-color="#FF004D"/>
            <stop offset="1" stop-color="#FF6291"/>
        </radialGradient>
        <radialGradient id="paint6_radial_331_10562" cx="0" cy="0" r="1" gradientUnits="userSpaceOnUse" gradientTransform="translate(619.527 252.273) rotate(134.402) scale(294.241 410.883)">
            <stop stop-color="#00F1FF" stop-opacity="0.57"/>
            <stop offset="0.463397" stop-color="#00FFB1" stop-opacity="0.12"/>
            <stop offset="1" stop-color="#00C4FF" stop-opacity="0"/>
        </radialGradient>
        <radialGradient id="paint7_radial_331_10562" cx="0" cy="0" r="1" gradientUnits="userSpaceOnUse" gradientTransform="translate(630.425 247.798) rotate(134.587) scale(61.7043 86.2475)">
            <stop stop-color="#F7EB02"/>
            <stop offset="0.562168" stop-color="#00FF76"/>
            <stop offset="1" stop-color="#00C4FF"/>
        </radialGradient>
        <linearGradient id="paint8_linear_331_10562" x1="170.756" y1="470.426" x2="345.087" y2="660.118" gradientUnits="userSpaceOnUse">
            <stop stop-color="#0CFFDE"/>
            <stop offset="0.65" stop-color="#0CFFDE" stop-opacity="0"/>
        </linearGradient>
        <radialGradient id="paint9_radial_331_10562" cx="0" cy="0" r="1" gradientUnits="userSpaceOnUse" gradientTransform="translate(210.82 274.591) rotate(135.967) scale(24.7246 31.1631)">
            <stop stop-color="#FFE4AD"/>
            <stop offset="1" stop-color="#FFEC2D"/>
        </radialGradient>
        <radialGradient id="paint10_radial_331_10562" cx="0" cy="0" r="1" gradientUnits="userSpaceOnUse" gradientTransform="translate(210.82 274.591) rotate(135.967) scale(24.7246 31.1631)">
            <stop stop-color="#ADFFEE"/>
            <stop offset="1" stop-color="#2DF9FF"/>
        </radialGradient>
        <radialGradient id="paint11_radial_331_10562" cx="0" cy="0" r="1" gradientUnits="userSpaceOnUse" gradientTransform="translate(137.83 644.201) rotate(136.417) scale(60.3522 76.0186)">
            <stop stop-color="#ADFFEE"/>
            <stop offset="1" stop-color="#2DF9FF"/>
        </radialGradient>
        <radialGradient id="paint12_radial_331_10562" cx="0" cy="0" r="1" gradientUnits="userSpaceOnUse" gradientTransform="translate(137.83 644.201) rotate(136.417) scale(60.3522 76.0186)">
            <stop stop-color="#FFE4AD"/>
            <stop offset="1" stop-color="#FFEC2D"/>
        </radialGradient>
        <linearGradient id="paint13_linear_331_10562" x1="724.761" y1="328.92" x2="586.834" y2="594.563" gradientUnits="userSpaceOnUse">
            <stop stop-color="#0F8AEF"/>
            <stop offset="0.3" stop-color="#2B96F4"/>
            <stop offset="0.83" stop-color="#66B1FF"/>
        </linearGradient>
        <linearGradient id="paint14_linear_331_10562" x1="253.227" y1="810.447" x2="239.505" y2="503.757" gradientUnits="userSpaceOnUse">
            <stop stop-color="#0F8AEF"/>
            <stop offset="0.3" stop-color="#2B96F4"/>
            <stop offset="0.83" stop-color="#66B1FF"/>
        </linearGradient>
        <linearGradient id="paint15_linear_331_10562" x1="253.227" y1="810.447" x2="239.505" y2="503.757" gradientUnits="userSpaceOnUse">
            <stop stop-color="#0F8AEF"/>
            <stop offset="0.3" stop-color="#2B96F4"/>
            <stop offset="0.83" stop-color="#66B1FF"/>
        </linearGradient>
        <linearGradient id="paint16_linear_331_10562" x1="253.251" y1="811.018" x2="239.528" y2="504.327" gradientUnits="userSpaceOnUse">
            <stop stop-color="#0F8AEF"/>
            <stop offset="0.3" stop-color="#2B96F4"/>
            <stop offset="0.83" stop-color="#66B1FF"/>
        </linearGradient>
        <radialGradient id="paint17_radial_331_10562" cx="0" cy="0" r="1" gradientUnits="userSpaceOnUse" gradientTransform="translate(774.32 618.395) rotate(135.946) scale(24.0649 30.3323)">
            <stop stop-color="#FFE4AD"/>
            <stop offset="1" stop-color="#FFEC2D"/>
        </radialGradient>
        <linearGradient id="paint18_linear_331_10562" x1="253.251" y1="812.143" x2="239.528" y2="505.452" gradientUnits="userSpaceOnUse">
            <stop stop-color="#0F8AEF"/>
            <stop offset="0.3" stop-color="#2B96F4"/>
            <stop offset="0.83" stop-color="#66B1FF"/>
        </linearGradient>
        <clipPath id="clip0_331_10562">
            <rect width="1380" height="798" fill="white"/>
        </clipPath>
    </defs>
</svg>
