<svg width="817" height="562" viewBox="0 0 817 562" fill="none" xmlns="http://www.w3.org/2000/svg">
    <g clip-path="url(#clip0_920_16893)">
        <rect width="672.555" height="165.644" rx="82.822" transform="matrix(0.707107 -0.707107 -0.707107 -0.707107 341.288 709.43)" fill="url(#paint0_linear_920_16893)"/>
        <rect width="894.078" height="193.584" rx="96.792" transform="matrix(0.688702 -0.725045 -0.725045 -0.688702 140.706 781.527)" fill="url(#paint1_linear_920_16893)"/>
        <path d="M305.992 687.329L469.703 501.089L431.008 474.867L272.609 656.102L305.992 687.329Z" fill="url(#paint2_linear_920_16893)"/>
        <path d="M453.079 456.394L459.414 473.514L477.155 472.644L463.33 484.095L469.665 501.215L454.785 491.172L440.96 502.623L445.589 484.966L430.709 474.923L448.45 474.052L453.079 456.394Z" fill="url(#paint3_radial_920_16893)"/>
        <path fill-rule="evenodd" clip-rule="evenodd" d="M445.798 255.5L456.485 244.76C461.691 239.564 461.691 231.287 456.485 226.091C451.368 220.895 442.987 220.895 437.782 226.091L434.694 229.173L431.607 226.091C426.401 220.895 418.02 220.895 412.904 226.091C412.189 226.805 411.572 227.576 411.054 228.39L336.103 303.207L367.177 334.225L445.92 255.622L445.798 255.5Z" fill="url(#paint4_radial_920_16893)"/>
        <path d="M412.904 244.76L425.872 257.793L434.694 266.599L443.517 257.793L456.485 244.76C461.691 239.564 461.691 231.287 456.485 226.091C451.368 220.896 442.987 220.896 437.782 226.091L434.694 229.173L431.607 226.091C426.401 220.896 418.02 220.896 412.904 226.091C407.698 231.287 407.698 239.564 412.904 244.76Z" fill="url(#paint5_radial_920_16893)"/>
        <path fill-rule="evenodd" clip-rule="evenodd" d="M368.891 245.121L263.856 350.208L284.666 371.028L391.537 264.105L391.274 263.842L398.439 256.612C401.875 253.167 401.875 247.68 398.439 244.236C395.061 240.791 389.528 240.791 386.091 244.236L384.053 246.279L382.014 244.236C378.923 241.137 374.134 240.826 370.745 243.303L370.727 243.285L370.604 243.408C370.276 243.657 369.963 243.933 369.666 244.236C369.385 244.518 369.126 244.814 368.891 245.121Z" fill="url(#paint6_radial_920_16893)"/>
        <path d="M369.666 256.612L378.228 265.251L384.053 271.089L389.877 265.251L398.439 256.612C401.875 253.167 401.875 247.68 398.439 244.236C395.061 240.791 389.528 240.791 386.091 244.236L384.053 246.279L382.014 244.236C378.578 240.791 373.044 240.791 369.666 244.236C366.23 247.68 366.23 253.167 369.666 256.612Z" fill="url(#paint7_radial_920_16893)"/>
        <path opacity="0.1" d="M169.131 373.478L169.131 373.478L169.124 373.485L160.283 382.406L160.276 382.414L156.52 386.178L152.764 382.414L152.757 382.406L143.916 373.485L143.916 373.485L143.908 373.478C141.598 371.162 141.598 367.505 143.908 365.189L143.918 365.179L143.928 365.17C146.159 362.895 149.84 362.867 152.157 365.189L154.408 362.943L152.157 365.189L154.264 367.301L156.52 369.562L158.776 367.301L160.882 365.189L158.631 362.943L160.882 365.189C163.199 362.867 166.881 362.895 169.112 365.17L169.122 365.18L169.131 365.189C171.442 367.505 171.442 371.162 169.131 373.478Z" fill="white" stroke="white" stroke-width="6.37337"/>
        <path fill-rule="evenodd" clip-rule="evenodd" d="M165.691 386.013L160.65 380.966L141.132 361.292C133.298 353.449 133.298 340.954 141.132 333.111C148.833 325.268 161.447 325.268 169.281 333.111L173.928 337.763L178.574 333.111C186.409 325.268 199.022 325.268 206.723 333.111C208.387 334.777 209.698 336.653 210.655 338.65C212.167 339.384 213.584 340.38 214.839 341.636L275.31 402.204C281.347 408.251 281.347 418.054 275.31 424.101L250.176 449.275C244.139 455.321 234.352 455.321 228.315 449.275L167.843 388.707C167.011 387.874 166.294 386.969 165.691 386.013Z" fill="url(#paint8_linear_920_16893)" fill-opacity="0.25"/>
        <g filter="url(#filter0_f_920_16893)">
            <path d="M204.956 359.528L204.95 359.534L185.438 379.201L185.432 379.207L173.928 390.724L162.423 379.207L162.417 379.201L142.905 359.533L142.899 359.527C136.039 352.659 136.039 341.744 142.899 334.876L142.906 334.869L142.914 334.861C149.627 328.024 160.646 328.002 167.513 334.877L172.16 339.529L173.927 341.298L175.694 339.529L180.341 334.877L178.574 333.111L180.341 334.877C187.208 328.002 198.227 328.024 204.94 334.861L204.948 334.869L204.955 334.877C211.816 341.745 211.816 352.659 204.956 359.528Z" stroke="#00FFE1" stroke-width="4.99578"/>
        </g>
        <path d="M205.662 360.233L205.658 360.236L186.144 379.906L186.14 379.91L173.928 392.136L161.715 379.909L161.711 379.906L142.197 360.236L142.193 360.232C134.944 352.975 134.944 341.429 142.193 334.171L142.193 334.171L142.202 334.162C149.31 326.923 160.966 326.909 168.219 334.171L172.866 338.824L173.927 339.886L174.988 338.824L179.635 334.171C186.889 326.91 198.545 326.923 205.652 334.162L205.661 334.172C212.911 341.429 212.911 352.975 205.662 360.233Z" stroke="#00FFE1" stroke-width="3"/>
        <g filter="url(#filter1_f_920_16893)">
            <path d="M205.721 360.66L205.719 360.662L186.203 380.333L186.201 380.335L173.527 393.024L160.852 380.335L160.85 380.333L141.334 360.662L141.332 360.66C133.829 353.148 133.829 341.191 141.332 333.68L141.332 333.68L141.337 333.674C148.702 326.173 160.773 326.166 168.278 333.68L172.925 338.332L173.526 338.934L174.128 338.332L178.774 333.68C186.28 326.166 198.351 326.174 205.715 333.675L205.72 333.68C213.223 341.191 213.223 353.148 205.721 360.66Z" stroke="#96FFC0" stroke-width="1.7"/>
        </g>
        <path d="M196.856 248.196L197.917 262.6L211.856 263.696L197.917 264.792L196.856 279.196L195.795 264.792L181.856 263.696L195.795 262.6L196.856 248.196Z" fill="url(#paint9_radial_920_16893)"/>
        <path d="M196.856 248.196L197.917 262.6L211.856 263.696L197.917 264.792L196.856 279.196L195.795 264.792L181.856 263.696L195.795 262.6L196.856 248.196Z" fill="url(#paint10_radial_920_16893)"/>
        <path d="M153.442 455.475L155.047 476.803L176.143 478.425L155.047 480.048L153.442 501.376L151.837 480.048L130.741 478.425L151.837 476.803L153.442 455.475Z" fill="#00A3FF"/>
        <path d="M153.442 455.475L155.047 476.803L176.143 478.425L155.047 480.048L153.442 501.376L151.837 480.048L130.741 478.425L151.837 476.803L153.442 455.475Z" fill="url(#paint11_radial_920_16893)"/>
        <path d="M153.442 455.475L155.047 476.803L176.143 478.425L155.047 480.048L153.442 501.376L151.837 480.048L130.741 478.425L151.837 476.803L153.442 455.475Z" fill="url(#paint12_radial_920_16893)"/>
        <path d="M477.837 423.196L478.472 431.774L486.817 432.427L478.472 433.079L477.837 441.657L477.202 433.079L468.856 432.427L477.202 431.774L477.837 423.196Z" fill="url(#paint13_radial_920_16893)"/>
        <path d="M277.838 598.444C280.406 583.378 295.006 538.031 304.077 537.642C317.059 537.079 326.921 580.882 330.365 597.683C330.441 598.059 382.623 590.525 386.296 589.661C386.425 589.631 386.541 589.573 386.637 589.485C391.665 584.998 396.853 572.411 390.354 517.272C387.918 497.396 378.926 428.804 353.553 360.174C351.874 355.631 351.822 350.642 353.595 346.14C353.638 346.031 353.71 345.933 353.796 345.852C354.861 344.892 362.011 338.151 362.593 329.156C363.584 313.946 350.964 287.875 349.029 283.978C348.885 283.682 348.959 283.329 349.198 283.11C356.563 276.408 356.357 272.451 356.256 271.798C356.248 271.739 356.234 271.686 356.213 271.633C350.553 257.095 338.031 253.749 334.371 254.766C331.391 255.593 328.581 259.561 327.626 261.02C327.426 261.326 327.022 261.433 326.695 261.275C310.612 253.606 299.15 254.742 293.216 255.007C273.88 255.872 261.059 262.665 258.158 264.342C257.811 264.541 257.368 264.437 257.163 264.096C253.925 258.787 251.609 258.422 251.234 258.397C251.205 258.399 251.175 258.4 251.14 258.401C244.668 258.721 232.448 266.897 231.067 275.514C230.321 280.159 237.666 285.872 239.511 287.224C239.757 287.403 239.866 287.724 239.784 288.018C233.022 312.437 227.093 323.296 230.52 335.101C231.894 339.841 239.924 351.558 240.45 352.323C240.469 352.352 240.488 352.38 240.501 352.409C242.343 355.937 242.728 360.034 241.69 363.881C222.427 435.249 215.202 521.551 215.202 521.551C212.077 549.744 207.306 579.197 214.186 596.609C214.299 596.894 277.766 598.827 277.832 598.456L277.838 598.444Z" fill="#66B1FF"/>
        <path d="M347.515 410.978C325.238 389.827 302.746 410.361 300.937 412.084C298.977 410.53 274.746 392.086 254.448 415.143C231.92 440.73 255.674 489.578 263.541 500.976C271.408 512.374 286.791 530.763 306.448 530.464C326.059 529.006 339.306 509.342 346.123 497.281C352.941 485.226 372.237 434.457 347.515 410.978Z" fill="white"/>
        <path d="M329.835 307.608C326.898 299.599 296.658 302.008 296.673 302.191C296.658 302.008 267.248 304.124 264.845 312.958C263.384 318.335 264.804 328.747 267.751 335.113C271.006 342.152 289.316 355.721 300.666 354.733C311.607 353.888 328.525 337.421 330.591 329.941C332.459 323.183 331.759 312.851 329.835 307.608Z" fill="white"/>
        <path d="M276.452 302.491C281.468 302.266 285.352 298.018 285.127 293.002C284.903 287.987 280.655 284.102 275.639 284.327C270.623 284.551 266.739 288.799 266.964 293.815C267.188 298.831 271.436 302.715 276.452 302.491Z" fill="white"/>
        <path d="M324.237 292.536C324.965 287.569 321.528 282.951 316.56 282.223C311.593 281.495 306.975 284.932 306.247 289.9C305.519 294.867 308.956 299.485 313.924 300.213C318.892 300.941 323.509 297.504 324.237 292.536Z" fill="white"/>
        <path d="M480.864 322.002C480.151 316.147 474.061 312.009 466.866 315.348C462.173 317.526 461.697 320.542 461.697 320.542C461.697 320.542 463.283 309.07 463.133 302.028C463.003 295.803 462.077 291.013 455.708 289.247C450.546 287.812 445.074 290.458 443.085 297.679C441.525 303.357 440.735 310.88 440.735 310.88C436.022 296.975 432.307 293.97 424.061 294.783C420.083 295.175 415.017 299.747 416.226 305.028C418.208 313.672 423.689 328.07 423.689 328.07C423.689 328.07 418.194 327.29 415.179 328.931C407.649 333.02 405.796 341.421 414.703 352.334C412.22 404.039 353.44 360.849 353.44 360.849L370.696 418.702C417.139 453.558 461.572 439.909 475.41 359.909C475.41 359.909 482.028 331.601 480.864 322.008L480.864 322.002Z" fill="url(#paint14_linear_920_16893)"/>
        <path d="M463.965 341.403C458.705 339.118 457.642 333.908 458.247 329.268C452.738 327.659 445.481 328.44 443.775 333.757C443.775 333.757 436.38 327.359 430.599 331.561C435.444 334.788 440.551 341.075 436.557 347.864C434.976 350.555 432.879 352.184 430.624 353.056C436.501 358.14 445.745 360.56 449.875 360.387C458.804 360.006 469.145 351.836 468.509 342.249C467.102 342.347 465.592 342.112 463.971 341.408L463.965 341.403Z" fill="#66B1FF"/>
        <path d="M235.656 378.753C235.555 378.882 203.874 409.882 187.53 454.691C182.772 467.733 173.774 498.898 177.115 514.209C177.115 514.209 176.692 543.034 198.412 537.433L195.691 534.519C195.691 534.519 200.425 542.156 209.682 539.691C214.732 538.344 215.539 534.526 215.539 534.526C215.539 534.526 220.711 539.606 227.205 536.352C233.38 533.253 233.742 527.825 233.623 527.16C233.623 527.16 229.481 527.061 227.225 524.204C220.198 515.287 223.957 509.879 226.105 508.051C226.105 508.051 230.923 505.364 233.763 502.065C236.068 499.389 235.953 491.112 225.457 489.726C225.457 489.726 224.512 428.463 234.417 404.188L238.937 375.104L235.656 378.753Z" fill="url(#paint15_linear_920_16893)"/>
        <path d="M235.656 378.753C235.555 378.882 203.874 409.882 187.53 454.691C182.772 467.733 173.774 498.898 177.115 514.209C177.115 514.209 176.692 543.034 198.412 537.433L195.691 534.519C195.691 534.519 200.425 542.156 209.682 539.691C214.732 538.344 215.539 534.526 215.539 534.526C215.539 534.526 220.711 539.606 227.205 536.352C233.38 533.253 233.742 527.825 233.623 527.16C233.623 527.16 229.481 527.061 227.225 524.204C220.198 515.287 223.957 509.879 226.105 508.051C226.105 508.051 230.923 505.364 233.763 502.065C236.068 499.389 235.953 491.112 225.457 489.726C225.457 489.726 224.512 428.463 234.417 404.188L238.937 375.104L235.656 378.753Z" fill="url(#paint16_linear_920_16893)"/>
        <path d="M261.468 276.187C262.56 274.366 266.686 269.065 277.483 268.558C279.719 268.458 282.905 271.428 280.453 274.65C278.314 277.467 266.011 281.799 263.744 281.604C261.422 281.4 259.989 278.654 261.468 276.193L261.468 276.187Z" fill="#0073E4"/>
        <path d="M325.292 272.057C324.128 270.283 319.801 265.141 308.995 265.05C306.754 265.031 303.691 268.127 306.261 271.254C308.512 273.982 320.968 277.847 323.226 277.556C325.537 277.263 326.864 274.465 325.292 272.057Z" fill="#0073E4"/>
        <path d="M276.305 299.213C279.511 299.069 281.993 296.354 281.849 293.149C281.706 289.943 278.991 287.461 275.786 287.604C272.58 287.748 270.098 290.463 270.241 293.668C270.385 296.874 273.099 299.356 276.305 299.213Z" fill="#333333"/>
        <path d="M319.571 295.101C321.736 292.733 321.572 289.058 319.204 286.893C316.835 284.727 313.16 284.892 310.995 287.26C308.83 289.628 308.994 293.303 311.362 295.468C313.731 297.633 317.406 297.469 319.571 295.101Z" fill="#333333"/>
        <path d="M297.385 306.071C297.385 306.071 278.151 306.932 279.149 312.934C280.146 318.936 291.412 328.125 298.358 327.814C307.612 327.4 315.705 317.345 316.162 311.278C316.62 305.211 297.385 306.071 297.385 306.071Z" fill="#0073E4"/>
        <path d="M274.562 327.825C276.806 330.943 279.854 333.617 283.015 335.758C289.422 340.102 297.223 341.792 304.749 339.617C310.953 337.828 316.288 333.848 320.818 329.36C321.63 328.553 320.32 327.354 319.508 328.161C312.753 334.86 303.736 340.303 293.884 338.467C287.96 337.363 282.691 333.959 278.523 329.699C278.144 329.313 277.77 328.914 277.408 328.51C277.265 328.35 277.121 328.185 276.984 328.025C276.79 327.802 276.984 328.031 276.89 327.916C276.827 327.842 276.771 327.773 276.708 327.699C276.483 327.425 276.263 327.15 276.054 326.863C275.39 325.938 273.892 326.894 274.562 327.825Z" fill="#0073E4"/>
        <path d="M304.024 296.26L327.054 297.553L326.923 302.705L306.079 299.25L304.024 296.26Z" fill="#66B1FF"/>
        <path d="M264.755 302.095L287.158 296.659L288.014 299.893L267.342 305.721L264.755 302.095Z" fill="#66B1FF"/>
        <path d="M205.01 521.125C205.549 523.105 206.4 525.029 207.318 526.855C209.153 530.508 211.66 533.947 214.988 536.371C215.901 537.036 217.111 535.731 216.186 535.061C212.963 532.709 210.587 529.43 208.81 525.894C207.958 524.201 207.196 522.409 206.699 520.581C206.401 519.48 204.706 520.024 205.01 521.131L205.01 521.125Z" fill="#66B1FF"/>
        <path d="M186.534 523.82C187.865 527.72 190.145 531.519 192.947 534.524C194.193 535.861 195.602 537.026 197.168 537.963C198.155 538.553 198.973 536.975 197.993 536.391C194.795 534.477 192.407 531.454 190.569 528.269C189.656 526.686 188.81 525.01 188.223 523.27C187.854 522.19 186.159 522.734 186.534 523.82Z" fill="#66B1FF"/>
        <path d="M235.669 379.05C235.568 379.179 203.887 410.179 187.543 454.988C182.785 468.029 173.787 499.194 177.128 514.506C177.128 514.506 176.705 543.331 198.425 537.729L195.704 534.816C195.704 534.816 200.438 542.453 209.695 539.987C214.745 538.641 215.552 534.823 215.552 534.823C215.552 534.823 220.724 539.903 227.218 536.648C233.393 533.55 233.755 528.121 233.636 527.457C233.636 527.457 229.494 527.358 227.238 524.5C220.211 515.584 223.97 510.175 226.118 508.348C226.118 508.348 230.936 505.66 233.776 502.362C236.081 499.686 235.966 491.409 225.47 490.023C225.47 490.023 224.525 428.76 234.43 404.485L238.95 375.401L235.669 379.05Z" fill="url(#paint17_linear_920_16893)"/>
        <path d="M205.023 521.421C205.562 523.4 206.413 525.325 207.331 527.151C209.166 530.804 211.673 534.243 215.001 536.667C215.914 537.331 217.124 536.026 216.199 535.356C212.975 533.005 210.6 529.726 208.823 526.189C207.971 524.496 207.209 522.704 206.712 520.877C206.414 519.776 204.719 520.32 205.023 521.427L205.023 521.421Z" fill="#66B1FF"/>
        <path d="M186.546 524.115C187.877 528.016 190.157 531.815 192.959 534.819C194.205 536.157 195.614 537.321 197.18 538.259C198.167 538.849 198.985 537.271 198.005 536.686C194.807 534.772 192.419 531.749 190.581 528.565C189.668 526.981 188.822 525.306 188.235 523.565C187.866 522.485 186.171 523.029 186.546 524.115Z" fill="#66B1FF"/>
    </g>
    <path d="M188.731 531.648C192.319 531.404 250.234 524.446 250.234 524.446L246.553 505.678C246.553 505.678 189.375 521.24 186.745 522.32C184.114 523.4 185.142 531.892 188.731 531.648Z" fill="#4C4C4C"/>
    <path d="M194.702 531.47L195.197 531.407C195.294 531.404 195.39 531.37 195.47 531.306C195.628 531.177 195.679 530.958 195.595 530.772C194.124 527.511 193.371 524.033 193.413 520.463C193.415 520.321 193.349 520.186 193.235 520.1C193.122 520.014 192.974 519.987 192.837 520.027L192.317 520.179C192.126 520.235 191.995 520.41 191.994 520.609C191.978 524.281 192.748 527.845 194.234 531.206C194.314 531.388 194.505 531.495 194.702 531.47Z" fill="white" stroke="white" stroke-width="0.899186" stroke-linejoin="round"/>
    <path d="M255.466 525.629C259.091 527.914 264.47 529.991 269.006 529.101C278.443 527.251 284.592 518.1 282.741 508.664C280.89 499.228 271.74 493.078 262.304 494.929C257.767 495.819 253.714 499.451 251.22 502.936L255.466 525.629Z" fill="#989898"/>
    <path fill-rule="evenodd" clip-rule="evenodd" d="M270.218 529.83C270.062 529.882 269.905 529.934 269.801 529.934C269.697 529.934 269.489 529.986 269.384 529.986C269.072 529.986 268.811 529.882 268.603 529.621C268.29 529.205 268.03 528.631 267.821 528.163C267.717 527.954 267.665 527.798 267.613 527.641C267.509 527.329 267.405 527.12 267.3 526.912C262.455 517.377 260.214 505.915 260.944 495.026C260.944 494.713 261.152 494.4 261.465 494.244C261.569 494.192 261.673 494.192 261.725 494.14C261.778 494.14 261.83 494.14 261.882 494.088C261.986 494.088 262.038 494.036 262.09 494.036C262.351 493.931 262.663 494.036 262.924 494.192C263.132 494.348 263.288 494.661 263.236 494.974C262.507 505.498 264.747 516.544 269.384 525.766C269.541 526.026 269.697 526.391 269.853 526.756C269.905 526.912 270.01 527.068 270.062 527.225C270.27 527.694 270.479 528.058 270.635 528.267C270.739 528.371 270.843 528.527 270.895 528.736C270.895 529.257 270.687 529.673 270.218 529.83Z" fill="#4C4C4C"/>
    <path fill-rule="evenodd" clip-rule="evenodd" d="M251.268 502.754C250.779 502.423 250.19 502.301 249.61 502.412L248.674 502.592L248.673 502.582L246.687 502.971C246.108 503.085 245.607 503.418 245.278 503.908C244.948 504.398 244.829 504.988 244.943 505.567L248.83 525.387C248.944 525.967 249.277 526.468 249.767 526.797C250.257 527.126 250.847 527.245 251.426 527.132L252.254 526.969L252.255 526.974L254.242 526.594C254.822 526.482 255.324 526.152 255.656 525.663C255.987 525.174 256.109 524.585 255.998 524.005L252.198 504.169C252.087 503.588 251.757 503.086 251.268 502.754Z" fill="#ECECEC"/>
    <path d="M235.67 379.634C235.569 379.764 203.887 410.764 187.544 455.572C182.786 468.614 173.788 499.779 177.129 515.091C177.129 515.091 176.705 543.916 198.425 538.314L195.704 535.4C195.704 535.4 200.439 543.038 209.695 540.572C214.745 539.226 215.553 535.407 215.553 535.407C215.553 535.407 220.724 540.488 227.218 537.233C233.394 534.135 233.755 528.706 233.637 528.041C233.637 528.041 229.494 527.942 227.238 525.085C220.211 516.169 223.971 510.76 226.118 508.933C226.118 508.933 230.936 506.245 233.777 502.946C236.082 500.27 235.966 491.994 225.47 490.608C225.47 490.608 224.525 429.345 234.43 405.069L238.951 375.985L235.67 379.634Z" fill="url(#paint18_linear_920_16893)"/>
    <path d="M205.024 522.007C205.563 523.986 206.414 525.91 207.331 527.737C209.167 531.39 211.674 534.828 215.002 537.252C215.915 537.917 217.125 536.612 216.2 535.942C212.976 533.59 210.6 530.312 208.824 526.775C207.971 525.082 207.209 523.29 206.713 521.463C206.414 520.361 204.72 520.906 205.024 522.012L205.024 522.007Z" fill="#66B1FF"/>
    <path d="M186.546 524.7C187.877 528.601 190.157 532.4 192.96 535.404C194.205 536.742 195.615 537.906 197.18 538.844C198.167 539.434 198.986 537.856 198.005 537.271C194.807 535.357 192.419 532.334 190.581 529.15C189.669 527.566 188.823 525.891 188.235 524.15C187.867 523.07 186.172 523.614 186.546 524.7Z" fill="#66B1FF"/>
    <defs>
        <filter id="filter0_f_920_16893" x="112.05" y="304.023" width="123.755" height="113.443" filterUnits="userSpaceOnUse" color-interpolation-filters="sRGB">
            <feFlood flood-opacity="0" result="BackgroundImageFix"/>
            <feBlend mode="normal" in="SourceGraphic" in2="BackgroundImageFix" result="shape"/>
            <feGaussianBlur stdDeviation="11.6031" result="effect1_foregroundBlur_920_16893"/>
        </filter>
        <filter id="filter1_f_920_16893" x="132.599" y="324.94" width="81.8546" height="71.5426" filterUnits="userSpaceOnUse" color-interpolation-filters="sRGB">
            <feFlood flood-opacity="0" result="BackgroundImageFix"/>
            <feBlend mode="normal" in="SourceGraphic" in2="BackgroundImageFix" result="shape"/>
            <feGaussianBlur stdDeviation="1.12808" result="effect1_foregroundBlur_920_16893"/>
        </filter>
        <linearGradient id="paint0_linear_920_16893" x1="-28.664" y1="121.425" x2="727.146" y2="45.515" gradientUnits="userSpaceOnUse">
            <stop stop-color="#FF0099"/>
            <stop offset="0.65" stop-color="#A000FF" stop-opacity="0"/>
        </linearGradient>
        <linearGradient id="paint1_linear_920_16893" x1="-38.1052" y1="141.907" x2="963.71" y2="27.4527" gradientUnits="userSpaceOnUse">
            <stop stop-color="#FF0099"/>
            <stop offset="0.65" stop-color="#A000FF" stop-opacity="0"/>
        </linearGradient>
        <linearGradient id="paint2_linear_920_16893" x1="283.902" y1="666.666" x2="453.012" y2="485.875" gradientUnits="userSpaceOnUse">
            <stop stop-color="#5900FF" stop-opacity="0"/>
            <stop offset="0.473957" stop-color="#005EFF" stop-opacity="0.31"/>
            <stop offset="1" stop-color="#00FFBA"/>
        </linearGradient>
        <radialGradient id="paint3_radial_920_16893" cx="0" cy="0" r="1" gradientUnits="userSpaceOnUse" gradientTransform="translate(438.872 461.943) rotate(47.5038) scale(48.773 67.0107)">
            <stop stop-color="#026FF7"/>
            <stop offset="0.562168" stop-color="#FF00EF"/>
            <stop offset="1" stop-color="#FF002B"/>
        </radialGradient>
        <radialGradient id="paint4_radial_920_16893" cx="0" cy="0" r="1" gradientUnits="userSpaceOnUse" gradientTransform="translate(441.366 229.994) rotate(137.064) scale(107.616 150.329)">
            <stop stop-color="#FF0065"/>
            <stop offset="0.562168" stop-color="#FF00C1" stop-opacity="0.1"/>
            <stop offset="1" stop-color="#FF0037" stop-opacity="0"/>
        </radialGradient>
        <radialGradient id="paint5_radial_920_16893" cx="0" cy="0" r="1" gradientUnits="userSpaceOnUse" gradientTransform="translate(449.894 226.464) rotate(134.706) scale(46.5345 65.0472)">
            <stop stop-color="#FF00D6"/>
            <stop offset="0.562168" stop-color="#FF004D"/>
            <stop offset="1" stop-color="#FF6291"/>
        </radialGradient>
        <radialGradient id="paint6_radial_920_16893" cx="0" cy="0" r="1" gradientUnits="userSpaceOnUse" gradientTransform="translate(388.65 246.715) rotate(134.402) scale(146.805 205.001)">
            <stop stop-color="#00F1FF" stop-opacity="0.57"/>
            <stop offset="0.463397" stop-color="#00FFB1" stop-opacity="0.12"/>
            <stop offset="1" stop-color="#00C4FF" stop-opacity="0"/>
        </radialGradient>
        <radialGradient id="paint7_radial_920_16893" cx="0" cy="0" r="1" gradientUnits="userSpaceOnUse" gradientTransform="translate(394.087 244.483) rotate(134.587) scale(30.786 43.0313)">
            <stop stop-color="#F7EB02"/>
            <stop offset="0.562168" stop-color="#00FF76"/>
            <stop offset="1" stop-color="#00C4FF"/>
        </radialGradient>
        <linearGradient id="paint8_linear_920_16893" x1="188.329" y1="340.437" x2="276.041" y2="436.167" gradientUnits="userSpaceOnUse">
            <stop stop-color="#0CFFDE"/>
            <stop offset="0.65" stop-color="#0CFFDE" stop-opacity="0"/>
        </linearGradient>
        <radialGradient id="paint9_radial_920_16893" cx="0" cy="0" r="1" gradientUnits="userSpaceOnUse" gradientTransform="translate(196.862 254.287) rotate(135.791) scale(20.1065 25.3472)">
            <stop stop-color="#FFE4AD"/>
            <stop offset="1" stop-color="#FFEC2D"/>
        </radialGradient>
        <radialGradient id="paint10_radial_920_16893" cx="0" cy="0" r="1" gradientUnits="userSpaceOnUse" gradientTransform="translate(196.862 254.287) rotate(135.791) scale(20.1065 25.3472)">
            <stop stop-color="#ADFFEE"/>
            <stop offset="1" stop-color="#2DF9FF"/>
        </radialGradient>
        <radialGradient id="paint11_radial_920_16893" cx="0" cy="0" r="1" gradientUnits="userSpaceOnUse" gradientTransform="translate(153.451 464.493) rotate(136.417) scale(30.1114 37.9278)">
            <stop stop-color="#ADFFEE"/>
            <stop offset="1" stop-color="#2DF9FF"/>
        </radialGradient>
        <radialGradient id="paint12_radial_920_16893" cx="0" cy="0" r="1" gradientUnits="userSpaceOnUse" gradientTransform="translate(153.451 464.493) rotate(136.417) scale(30.1114 37.9278)">
            <stop stop-color="#FFE4AD"/>
            <stop offset="1" stop-color="#FFEC2D"/>
        </radialGradient>
        <radialGradient id="paint13_radial_920_16893" cx="0" cy="0" r="1" gradientUnits="userSpaceOnUse" gradientTransform="translate(477.84 426.823) rotate(135.946) scale(12.0066 15.1336)">
            <stop stop-color="#FFE4AD"/>
            <stop offset="1" stop-color="#FFEC2D"/>
        </radialGradient>
        <linearGradient id="paint14_linear_920_16893" x1="456.052" y1="289.107" x2="384.186" y2="427.519" gradientUnits="userSpaceOnUse">
            <stop stop-color="#0F8AEF"/>
            <stop offset="0.3" stop-color="#2B96F4"/>
            <stop offset="0.83" stop-color="#66B1FF"/>
        </linearGradient>
        <linearGradient id="paint15_linear_920_16893" x1="210.36" y1="540.004" x2="203.21" y2="380.205" gradientUnits="userSpaceOnUse">
            <stop stop-color="#0F8AEF"/>
            <stop offset="0.3" stop-color="#2B96F4"/>
            <stop offset="0.83" stop-color="#66B1FF"/>
        </linearGradient>
        <linearGradient id="paint16_linear_920_16893" x1="210.36" y1="540.004" x2="203.21" y2="380.205" gradientUnits="userSpaceOnUse">
            <stop stop-color="#0F8AEF"/>
            <stop offset="0.3" stop-color="#2B96F4"/>
            <stop offset="0.83" stop-color="#66B1FF"/>
        </linearGradient>
        <linearGradient id="paint17_linear_920_16893" x1="210.373" y1="540.301" x2="203.223" y2="380.501" gradientUnits="userSpaceOnUse">
            <stop stop-color="#0F8AEF"/>
            <stop offset="0.3" stop-color="#2B96F4"/>
            <stop offset="0.83" stop-color="#66B1FF"/>
        </linearGradient>
        <linearGradient id="paint18_linear_920_16893" x1="210.373" y1="540.886" x2="203.223" y2="381.086" gradientUnits="userSpaceOnUse">
            <stop stop-color="#0F8AEF"/>
            <stop offset="0.3" stop-color="#2B96F4"/>
            <stop offset="0.83" stop-color="#66B1FF"/>
        </linearGradient>
        <clipPath id="clip0_920_16893">
            <rect width="817" height="524" fill="white" transform="translate(0 0.0317383)"/>
        </clipPath>
    </defs>
</svg>
