<svg width="159" height="50" viewBox="0 0 159 50" fill="none" xmlns="http://www.w3.org/2000/svg">
<path d="M18.2123 17.1865C15.8398 18.0329 15.0266 17.2645 14.3472 15.3714L13.4672 12.9326C12.6206 10.5607 13.3892 9.74778 15.2828 9.0685L17.7222 8.18876C20.0948 7.34244 20.908 8.11081 21.5874 10.0039L22.4674 12.4427C23.314 14.8146 22.5454 15.6275 20.6518 16.3068L18.2123 17.1865Z" fill="#FF4F3E"/>
<path d="M28.9703 17.1865C31.3429 18.0329 32.156 17.2645 32.8355 15.3714L33.7154 12.9326C34.562 10.5607 33.7934 9.74778 31.8998 9.0685L29.4604 8.18876C27.0878 7.34244 26.2747 8.11081 25.5952 10.0039L24.7152 12.4427C23.8687 14.8146 24.6373 15.6275 26.5309 16.3068L28.9703 17.1865Z" fill="#FABC22"/>
<path d="M40.6889 17.1865C38.3163 18.044 37.5032 17.2645 36.8237 15.3714L35.9437 12.9326C35.0972 10.5607 35.8658 9.74778 37.7594 9.0685L40.1988 8.18876C42.5714 7.34244 43.3845 8.11081 44.064 10.0039L44.944 12.4427C45.7905 14.8146 45.0219 15.6275 43.1283 16.3068L40.6889 17.1865Z" fill="#06C92E"/>
<path d="M51.441 17.1865C53.8136 18.0329 54.6267 17.2645 55.3062 15.3714L56.1861 12.9326C57.0327 10.5607 56.2641 9.74778 54.3705 9.0685L51.9311 8.18876C49.5585 7.34244 48.7454 8.11081 48.0659 10.0039L47.1859 12.4427C46.3394 14.8146 47.108 15.6275 49.0016 16.3068L51.441 17.1865Z" fill="#00C2FC"/>
<path d="M9.93511 31.9165C9.93511 31.9945 9.92398 32.0613 9.89056 32.1281C9.86828 32.1949 9.82373 32.2618 9.76803 32.3063C9.71234 32.362 9.65664 32.3954 9.58981 32.4288C9.52298 32.4622 9.445 32.4733 9.37817 32.4733H8.42023C8.34225 32.4733 8.27542 32.4622 8.20859 32.4288C8.14175 32.4065 8.07492 32.362 8.03036 32.3063C7.98581 32.2506 7.94125 32.1949 7.90784 32.1281C7.87442 32.0613 7.86328 31.9834 7.86328 31.9165V29.4667C7.86328 29.3887 7.87442 29.3219 7.90784 29.2551C7.94125 29.1883 7.97467 29.1214 8.03036 29.0769C8.08606 29.0212 8.14175 28.9878 8.20859 28.9544C8.27542 28.9321 8.35339 28.9099 8.42023 28.9099H8.72098C8.86578 28.7206 8.97717 28.5201 9.06628 28.2974C9.16653 28.0413 9.25564 27.7851 9.32248 27.5179C9.38931 27.2283 9.445 26.9388 9.5007 26.6381C9.54525 26.3375 9.57867 26.0368 9.60095 25.725L9.65664 24.8453C9.66778 24.6894 9.73461 24.5446 9.846 24.4444C9.9017 24.3887 9.96853 24.3553 10.0354 24.3219C10.1022 24.2885 10.1802 24.2773 10.2581 24.2773H14.4464C14.5243 24.2773 14.5912 24.2885 14.6691 24.3219C14.736 24.3553 14.8028 24.3887 14.8585 24.4444C14.9142 24.5001 14.9476 24.5557 14.981 24.6337C15.0144 24.7005 15.0256 24.7785 15.0256 24.8564V28.921H15.5714C15.6494 28.921 15.7162 28.9321 15.783 28.9655C15.8499 28.9878 15.9167 29.0324 15.9613 29.088C16.0169 29.1437 16.0504 29.1994 16.0838 29.2662C16.1172 29.333 16.1283 29.411 16.1283 29.4778V31.9277C16.1283 32.0056 16.1172 32.0724 16.0838 32.1393C16.0615 32.2061 16.0169 32.2729 15.9613 32.3174C15.9056 32.3731 15.8499 32.4065 15.783 32.4399C15.7162 32.4733 15.6382 32.4845 15.5714 32.4845H14.5912C14.5132 32.4845 14.4464 32.4733 14.3795 32.4399C14.3127 32.4177 14.2459 32.3731 14.2013 32.3174C14.1456 32.2618 14.1122 32.2061 14.0788 32.1393C14.0454 32.0724 14.0342 31.9945 14.0342 31.9277V30.9923H9.93511V31.9165ZM12.7533 26.382H11.7619L11.7396 26.6493C11.6951 27.1281 11.5948 27.5958 11.4611 28.0524C11.372 28.3531 11.2384 28.6426 11.0713 28.921H12.7644V26.382H12.7533Z" fill="white"/>
<path d="M19.0137 28.3865C19.114 28.6872 19.3256 28.9433 19.6041 29.0881C19.9048 29.244 20.239 29.3219 20.5843 29.3108C20.8071 29.3108 21.0187 29.2997 21.2415 29.2663C21.4308 29.2328 21.6091 29.1883 21.7873 29.1215C21.8875 29.0881 21.9989 29.0658 22.1103 29.0658C22.2217 29.0658 22.322 29.0881 22.4222 29.1438C22.5113 29.1994 22.5893 29.2774 22.6338 29.3776L22.8566 29.8565C22.9012 29.9344 22.9235 30.0346 22.9235 30.1237C22.9235 30.2239 22.9012 30.3242 22.8566 30.4021C22.8121 30.4912 22.7341 30.558 22.6561 30.6137C22.2885 30.8253 21.8875 30.9812 21.4754 31.0703C21.0967 31.1371 20.718 31.1705 20.3392 31.1705C19.8269 31.1816 19.3145 31.0925 18.8355 30.9144C18.4122 30.7585 18.0223 30.5135 17.6993 30.2017C17.3763 29.8899 17.1312 29.5001 16.9642 29.0881C16.7859 28.6315 16.6968 28.1415 16.708 27.6404C16.708 27.1727 16.7971 26.705 16.9642 26.2818C17.1312 25.8587 17.3763 25.4689 17.6993 25.146C18.0223 24.8119 18.4122 24.5558 18.8355 24.3887C19.3145 24.1994 19.8269 24.1104 20.3392 24.1104C20.7625 24.1104 21.1747 24.1883 21.5645 24.3331C21.9544 24.4778 22.2997 24.7006 22.6004 24.9789C22.9012 25.2573 23.1462 25.6026 23.3133 25.97C23.4915 26.3821 23.5918 26.8164 23.5807 27.2618C23.5807 27.4845 23.5695 27.7072 23.5361 27.93C23.5138 28.0524 23.447 28.1527 23.3467 28.2418C23.2576 28.3308 23.1462 28.3754 23.0237 28.3865H19.0137ZM21.3529 26.8943C21.3529 26.6605 21.2526 26.4266 21.0744 26.2596C20.963 26.1593 20.8405 26.0814 20.6957 26.0257C20.5509 25.9812 20.4061 25.9589 20.2613 25.97C19.9605 25.9478 19.6486 26.0257 19.3924 26.1928C19.1808 26.3709 19.0249 26.6048 18.9357 26.872L21.3529 26.8943Z" fill="white"/>
<path d="M26.6642 30.9825C26.5863 30.9825 26.5194 30.9714 26.4526 30.938C26.3858 30.9045 26.3189 30.8711 26.2744 30.8155C26.2187 30.7598 26.1853 30.7041 26.1519 30.6373C26.1184 30.5705 26.1073 30.4925 26.1073 30.4257V26.517H24.7484C24.6704 26.517 24.6035 26.5059 24.5367 26.4725C24.4699 26.4502 24.403 26.4057 24.3585 26.35C24.3028 26.2943 24.2694 26.2386 24.236 26.1718C24.2025 26.105 24.1914 26.027 24.1914 25.9602V24.8466C24.1914 24.7687 24.2025 24.7019 24.236 24.6239C24.2694 24.5571 24.3028 24.4903 24.3585 24.4346C24.4142 24.3789 24.4699 24.3455 24.5479 24.3121C24.6147 24.2787 24.6927 24.2676 24.7706 24.2676H29.7497C29.8277 24.2676 29.8945 24.2787 29.9614 24.3121C30.0282 24.3455 30.095 24.3789 30.1396 24.4346C30.1953 24.4903 30.2287 24.546 30.2621 24.6128C30.2955 24.6796 30.3067 24.7576 30.3067 24.8244V25.938C30.3067 26.0159 30.2955 26.0827 30.2621 26.1495C30.2287 26.2164 30.1953 26.2832 30.1396 26.3277C30.0839 26.3834 30.0282 26.4168 29.9614 26.4502C29.8945 26.4836 29.8165 26.4947 29.7497 26.4947H28.3908V30.3923C28.3908 30.4703 28.3796 30.5371 28.3462 30.6039C28.3239 30.6707 28.2794 30.7375 28.2237 30.7821C28.168 30.8377 28.1123 30.8711 28.0455 30.9045C27.9786 30.938 27.9007 30.9491 27.8338 30.9491H27.8227L26.6642 30.9825Z" fill="white"/>
<path d="M35.7116 26.4727C35.3997 26.3057 35.0432 26.2166 34.6868 26.2055C34.5086 26.2055 34.3304 26.2389 34.1633 26.2945C33.9962 26.3502 33.8402 26.4504 33.7066 26.5729C33.5618 26.6954 33.4504 26.8513 33.3724 27.0295C33.2833 27.23 33.2387 27.4415 33.2499 27.6531C33.2499 27.8647 33.2944 28.0763 33.3836 28.2656C33.4727 28.4326 33.5841 28.5885 33.7289 28.7222C34.0073 28.9671 34.3638 29.1008 34.7314 29.1008C35.0989 29.0896 35.4665 28.9783 35.7784 28.7778C35.9009 28.6887 36.0457 28.6442 36.1906 28.6442C36.2797 28.6442 36.3688 28.6665 36.4467 28.6999C36.5247 28.7444 36.5916 28.8001 36.6472 28.8669L37.1039 29.4794C37.1819 29.5796 37.2265 29.7021 37.2265 29.8357C37.2265 29.9248 37.2042 30.025 37.1708 30.103C37.1262 30.181 37.0705 30.2589 36.9926 30.3146C36.625 30.6264 36.1906 30.8714 35.7227 31.0161C35.3551 31.1164 34.9653 31.172 34.5866 31.1832C34.063 31.1943 33.5395 31.1052 33.0494 30.9271C32.615 30.7712 32.214 30.5262 31.8687 30.2144C31.5456 29.9026 31.2894 29.5239 31.1224 29.1008C30.9441 28.6442 30.855 28.1542 30.8662 27.6531C30.8662 27.1854 30.9553 26.7288 31.1224 26.2945C31.2894 25.8714 31.5345 25.4816 31.8464 25.1587C32.1583 24.8357 32.5481 24.5796 32.9603 24.4014C33.417 24.2121 33.9071 24.123 34.4083 24.123C34.8093 24.123 35.2215 24.1565 35.6113 24.2455C36.0123 24.3458 36.4022 24.5128 36.7475 24.7578C36.8477 24.8023 36.9257 24.8803 36.9814 24.9694C37.0371 25.0585 37.0705 25.1698 37.0705 25.27C37.0705 25.3703 37.0371 25.4705 36.9814 25.5596L36.547 26.2723C36.5024 26.3614 36.4245 26.4393 36.3354 26.495C36.2462 26.5507 36.146 26.5729 36.0346 26.5729C35.9232 26.5507 35.8118 26.5284 35.7116 26.4727Z" fill="white"/>
<path d="M40.7122 27.7851V30.4243C40.7122 30.5023 40.701 30.5691 40.6676 30.6359C40.6453 30.7027 40.6008 30.7695 40.5451 30.8141C40.4894 30.8698 40.4337 30.9032 40.3668 30.9366C40.3 30.97 40.222 30.9811 40.1552 30.9811H39.0413C38.9633 30.9811 38.8965 30.97 38.8297 30.9366C38.7628 30.9032 38.696 30.8698 38.6515 30.8141C38.5958 30.7584 38.5512 30.7027 38.5289 30.6248C38.4955 30.558 38.4844 30.48 38.4844 30.4021V24.8341C38.4844 24.7562 38.4955 24.6894 38.5289 24.6226C38.5512 24.5557 38.5958 24.4889 38.6515 24.4444C38.7072 24.3887 38.7628 24.3553 38.8297 24.3219C38.8965 24.2885 38.9745 24.2773 39.0413 24.2773H40.1552C40.2332 24.2773 40.3 24.2885 40.378 24.3219C40.4448 24.3553 40.5117 24.3887 40.5673 24.4444C40.623 24.5001 40.6565 24.5557 40.6899 24.6337C40.7233 24.7005 40.7344 24.7785 40.7344 24.8564V27.2061L42.461 24.656C42.5389 24.5446 42.6503 24.4555 42.7617 24.3887C42.8842 24.3219 43.0179 24.2885 43.1627 24.2885H44.1986C44.2766 24.2885 44.3546 24.2996 44.4325 24.333C44.4994 24.3664 44.5662 24.411 44.6219 24.4667C44.7222 24.578 44.789 24.7228 44.789 24.8675C44.789 24.99 44.7444 25.1125 44.6665 25.2128L43.0736 27.2952L43.8088 28.2974C43.9981 28.5981 44.2877 28.8208 44.6219 28.9321C44.8001 28.9544 44.9561 29.0324 45.0786 29.1548C45.1677 29.2996 45.2011 29.4778 45.19 29.6448V30.558C45.19 30.6805 45.1454 30.7918 45.0563 30.8809C44.9783 30.9811 44.867 31.0368 44.7444 31.0591C44.6665 31.0591 44.5885 31.0814 44.5217 31.0814C44.4437 31.0814 44.3768 31.0814 44.2989 31.0814C44.1095 31.0814 43.9202 31.0591 43.7419 31.0257C43.5414 30.9811 43.3409 30.9032 43.1627 30.803C42.9511 30.6805 42.7506 30.5357 42.5835 30.3687C42.3607 30.1459 42.1602 29.901 41.9931 29.6337L40.7122 27.7851Z" fill="white"/>
<path d="M51.6177 30.9923C51.5397 30.9923 51.4729 30.9811 51.406 30.9477C51.3392 30.9143 51.2724 30.8809 51.2278 30.8252C51.1721 30.7695 51.1387 30.7139 51.1053 30.6471C51.0719 30.5802 51.0607 30.5023 51.0607 30.4355V27.4845L48.9332 30.6136C48.8552 30.725 48.7661 30.8141 48.6547 30.8809C48.5433 30.9477 48.4208 30.9923 48.2871 30.9811H47.0062C46.9282 30.9811 46.8614 30.97 46.7945 30.9366C46.7277 30.9032 46.6609 30.8698 46.6163 30.8141C46.5606 30.7584 46.5161 30.7027 46.4938 30.6248C46.4604 30.558 46.4492 30.48 46.4492 30.4021V24.8341C46.4492 24.7562 46.4604 24.6894 46.4938 24.6226C46.5161 24.5557 46.5606 24.4889 46.6163 24.4444C46.672 24.3887 46.7277 24.3553 46.7945 24.3219C46.8614 24.2885 46.9393 24.2773 47.0062 24.2773H48.1201C48.198 24.2773 48.2649 24.2885 48.3428 24.3219C48.4097 24.3553 48.4765 24.3887 48.5322 24.4444C48.5879 24.5001 48.6213 24.5557 48.6547 24.6337C48.6881 24.7005 48.6993 24.7785 48.6993 24.8564V27.7851L50.8268 24.656C50.9048 24.5557 50.9939 24.4667 51.0941 24.3887C51.1944 24.3219 51.3281 24.2773 51.4506 24.2885H52.7427C52.8207 24.2885 52.8875 24.2996 52.9655 24.333C53.0323 24.3664 53.0991 24.3998 53.1548 24.4555C53.2105 24.5112 53.2439 24.5669 53.2774 24.6448C53.3108 24.7116 53.3219 24.7896 53.3219 24.8675V30.4355C53.3219 30.5134 53.3108 30.5802 53.2774 30.6471C53.2439 30.7139 53.2105 30.7807 53.1548 30.8252C53.0991 30.8809 53.0434 30.9143 52.9766 30.9477C52.9098 30.9811 52.8318 30.9923 52.765 30.9923H52.7538H51.6177Z" fill="white"/>
<path d="M60.1046 30.9908C60.0266 30.9908 59.9598 30.9797 59.8929 30.9463C59.8261 30.9129 59.7593 30.8795 59.7147 30.8238C59.659 30.7681 59.6256 30.7124 59.5922 30.6456C59.5588 30.5788 59.5476 30.5008 59.5476 30.434V27.483L57.4201 30.6122C57.3421 30.7236 57.253 30.8126 57.1416 30.8795C57.0302 30.9463 56.9077 30.9908 56.774 30.9797H55.5042C55.4262 30.9797 55.3594 30.9685 55.2926 30.9351C55.2257 30.9129 55.1589 30.8683 55.1143 30.8126C55.0587 30.757 55.0252 30.7013 54.9918 30.6345C54.9584 30.5677 54.9473 30.4897 54.9473 30.4229V24.855C54.9473 24.777 54.9584 24.7102 54.9918 24.6322C55.0252 24.5654 55.0587 24.4986 55.1143 24.4429C55.17 24.3873 55.2257 24.3539 55.3037 24.3204C55.3705 24.287 55.4485 24.2759 55.5265 24.2759H56.6292C56.7072 24.2759 56.774 24.287 56.852 24.3204C56.9188 24.3539 56.9857 24.3873 57.0414 24.4429C57.0971 24.4986 57.1305 24.5543 57.1639 24.6322C57.1973 24.6991 57.2085 24.777 57.2085 24.855V27.7837L59.336 24.6545C59.414 24.5543 59.5031 24.4652 59.6033 24.3873C59.7036 24.3204 59.8372 24.2759 59.9598 24.287H61.2519C61.3299 24.287 61.3967 24.2982 61.4747 24.3316C61.5415 24.365 61.6083 24.3984 61.664 24.4541C61.7197 24.5098 61.7531 24.5654 61.7865 24.6434C61.82 24.7102 61.8311 24.7882 61.8311 24.8661V30.434C61.8311 30.512 61.82 30.5788 61.7865 30.6456C61.7643 30.7124 61.7197 30.7792 61.664 30.8238C61.6083 30.8795 61.5526 30.9129 61.4858 30.9463C61.419 30.9797 61.341 30.9908 61.2742 30.9908H61.263H60.1046ZM59.7815 21.3583C59.9041 21.3472 60.0377 21.3694 60.1491 21.414C60.2717 21.4585 60.3719 21.5253 60.461 21.6144C60.617 21.7926 60.6949 22.0265 60.6838 22.2714C60.6838 22.4719 60.6281 22.6612 60.5279 22.8394C60.4276 23.0064 60.2828 23.1512 60.1157 23.2514C59.737 23.5187 59.1689 23.6523 58.4115 23.6523C57.576 23.6523 56.9745 23.5187 56.6181 23.2514C56.451 23.14 56.3173 22.9953 56.2282 22.8282C56.128 22.6612 56.0834 22.4608 56.0834 22.2714C56.0723 22.0265 56.1614 21.7926 56.3062 21.6144C56.3953 21.5253 56.4956 21.4585 56.6181 21.414C56.7406 21.3694 56.8632 21.3583 56.9857 21.3694C57.1862 21.3472 57.3867 21.4028 57.5538 21.5253C57.6763 21.6367 57.7654 21.7703 57.81 21.9262C57.8545 22.0487 57.9214 22.1601 58.0216 22.2603C58.133 22.3605 58.2889 22.4051 58.4337 22.3939C58.5006 22.3939 58.5674 22.3939 58.6342 22.3717C58.7011 22.3494 58.7568 22.316 58.8125 22.2714C58.9016 22.1712 58.9684 22.0599 59.0018 21.9374C59.0464 21.7815 59.1355 21.6367 59.258 21.5365C59.4028 21.4028 59.5922 21.3472 59.7815 21.3583Z" fill="white"/>
<path d="M24.5598 41.6152C24.5598 41.6931 24.5487 41.7599 24.5153 41.8267C24.493 41.8936 24.4484 41.9604 24.3927 42.0049C24.337 42.0606 24.2813 42.094 24.2145 42.1274C24.1477 42.1608 24.0697 42.172 24.0029 42.172H22.889C22.811 42.172 22.7442 42.1608 22.6773 42.1274C22.6105 42.1051 22.5437 42.0606 22.4991 42.0049C22.4434 41.9492 22.41 41.8936 22.3766 41.8267C22.3432 41.7599 22.332 41.682 22.332 41.6152V36.0361C22.332 35.9581 22.3432 35.8913 22.3766 35.8134C22.41 35.7466 22.4434 35.6797 22.4991 35.6241C22.5548 35.5684 22.6105 35.535 22.6885 35.5016C22.7553 35.4682 22.8333 35.457 22.9113 35.457H23.9694C24.1031 35.457 24.2368 35.4904 24.3482 35.5573C24.4707 35.6129 24.5709 35.702 24.6489 35.8022L26.3643 37.7399L27.946 35.8245C28.024 35.7243 28.1354 35.6352 28.2468 35.5684C28.3582 35.5016 28.4918 35.4682 28.6144 35.4682H29.6169C29.6948 35.4682 29.7617 35.4793 29.8396 35.5127C29.9065 35.5461 29.9733 35.5795 30.029 35.6352C30.0847 35.6909 30.1181 35.7466 30.1515 35.8245C30.1849 35.8913 30.1961 35.9693 30.1961 36.0472V41.6152C30.1961 41.6931 30.1849 41.7599 30.1515 41.8267C30.1293 41.8936 30.0847 41.9604 30.029 42.0049C29.9733 42.0606 29.9176 42.094 29.8508 42.1274C29.7839 42.1608 29.706 42.172 29.6391 42.172H28.5253C28.4473 42.172 28.3804 42.1608 28.3136 42.1274C28.2468 42.094 28.1799 42.0606 28.1354 42.0049C28.0797 41.9492 28.0463 41.8936 28.0129 41.8267C27.9794 41.7599 27.9683 41.682 27.9683 41.6152V38.8869L26.7208 40.3234C26.6762 40.3791 26.6094 40.4236 26.5425 40.457C26.4757 40.4904 26.3977 40.5016 26.3309 40.5016C26.2641 40.5016 26.1861 40.4904 26.1193 40.457C26.0524 40.4236 25.9967 40.3902 25.941 40.3345L24.6155 38.8869L24.5598 41.6152Z" fill="white"/>
<path d="M36.9595 42.1866C36.8815 42.1866 36.8147 42.1755 36.7478 42.1421C36.681 42.1086 36.6142 42.0752 36.5696 42.0196C36.5139 41.9639 36.4805 41.9082 36.4471 41.8414C36.4137 41.7746 36.4025 41.6966 36.4025 41.6298V38.6788L34.275 41.808C34.197 41.9193 34.1079 42.0084 33.9965 42.0752C33.8851 42.1421 33.7626 42.1866 33.6289 42.1755H32.348C32.27 42.1755 32.2032 42.1643 32.1363 42.1309C32.0695 42.0975 32.0027 42.0641 31.9581 42.0084C31.9024 41.9527 31.869 41.8971 31.8356 41.8303C31.8022 41.7634 31.791 41.6855 31.791 41.6187V36.0507C31.791 35.9728 31.8022 35.906 31.8356 35.828C31.869 35.7612 31.9024 35.6944 31.9581 35.6387C32.0138 35.583 32.0695 35.5496 32.1475 35.5162C32.2143 35.4828 32.2923 35.4717 32.3702 35.4717H33.473C33.551 35.4717 33.6178 35.4828 33.6958 35.5162C33.7626 35.5496 33.8294 35.583 33.8851 35.6387C33.9408 35.6944 33.9742 35.7501 34.0077 35.828C34.0411 35.8948 34.0522 35.9728 34.0522 36.0507V38.9795L36.1797 35.8503C36.2577 35.7501 36.3468 35.661 36.4582 35.5942C36.5585 35.5274 36.6921 35.4828 36.8147 35.494H38.1068C38.1847 35.494 38.2516 35.5051 38.3295 35.5385C38.3964 35.5719 38.4632 35.6053 38.5189 35.661C38.5746 35.7167 38.608 35.7723 38.6414 35.8503C38.6748 35.9171 38.686 35.9951 38.686 36.073V41.6409C38.686 41.7189 38.6748 41.7857 38.6414 41.8525C38.608 41.9193 38.5746 41.9862 38.5189 42.0307C38.4632 42.0864 38.4075 42.1198 38.3407 42.1532C38.2738 42.1866 38.1959 42.1977 38.129 42.1977H36.9595V42.1866Z" fill="white"/>
<path d="M42.4836 44.5895C42.4836 44.6674 42.4725 44.7342 42.4391 44.8011C42.4057 44.8679 42.3722 44.9347 42.3166 44.9792C42.2609 45.0349 42.2052 45.0683 42.1383 45.1017C42.0715 45.1351 41.9935 45.1463 41.9267 45.1463H40.8128C40.7348 45.1463 40.668 45.1351 40.6012 45.1017C40.5343 45.0683 40.4675 45.0349 40.4229 44.9792C40.3672 44.9236 40.3338 44.8679 40.3004 44.8011C40.267 44.7342 40.2559 44.6563 40.2559 44.5895V36.026C40.2559 35.9481 40.267 35.8812 40.3004 35.8033C40.3338 35.7365 40.3672 35.6697 40.4229 35.614C40.4786 35.5583 40.5343 35.5249 40.6123 35.4915C40.6791 35.4581 40.7571 35.4469 40.8351 35.4469H41.9935C42.0604 35.4469 42.1161 35.4581 42.1829 35.4804C42.2386 35.5026 42.2943 35.536 42.3388 35.5806C42.3834 35.6251 42.4168 35.6808 42.4502 35.7365C42.4725 35.7922 42.4836 35.859 42.4948 35.9258V35.9369C42.7176 35.7365 42.9737 35.5806 43.2522 35.4692C43.5975 35.3244 43.9763 35.2576 44.355 35.2688C44.7783 35.2688 45.2015 35.3467 45.5803 35.5249C45.9478 35.6919 46.2709 35.9369 46.5271 36.2376C46.7944 36.5605 46.9949 36.928 47.1286 37.3289C47.2734 37.7632 47.3513 38.2309 47.3513 38.6875C47.3513 39.1775 47.2622 39.6563 47.0951 40.1129C46.9281 40.5472 46.683 40.9369 46.36 41.271C46.0369 41.6051 45.6471 41.8612 45.2238 42.0394C44.756 42.2398 44.2547 42.3289 43.7423 42.3289C43.5196 42.3289 43.2856 42.3066 43.0629 42.2732C42.8624 42.251 42.673 42.1953 42.4948 42.1173L42.4836 44.5895ZM42.4836 40.0126C42.6284 40.1017 42.7844 40.1685 42.9515 40.2131C43.1408 40.2576 43.3302 40.2688 43.5307 40.2688C43.7312 40.2799 43.9317 40.2576 44.1211 40.1797C44.3104 40.1017 44.4775 39.9792 44.6112 39.8345C44.8451 39.5338 44.9676 39.1552 44.9565 38.7654C44.9676 38.4091 44.8451 38.0639 44.6223 37.7855C44.4998 37.6518 44.355 37.5405 44.1767 37.4737C44.0097 37.4069 43.8203 37.3734 43.6421 37.3846C43.4193 37.3957 43.1965 37.4514 42.996 37.5516C42.7955 37.6518 42.6173 37.7966 42.4836 37.9748V40.0126Z" fill="white"/>
<path d="M148.213 21.2577V9.71973H153.754C154.829 9.71973 155.755 9.89554 156.533 10.2472C157.323 10.5988 157.931 11.1043 158.358 11.7636C158.786 12.4119 159 13.1811 159 14.0712C159 14.9613 158.786 15.7305 158.358 16.3788C157.931 17.0271 157.323 17.5326 156.533 17.8952C155.755 18.2469 154.829 18.4227 153.754 18.4227H150.367L152.094 16.7579V21.2577H148.213ZM152.094 17.1865L150.367 15.4228H153.508C154.045 15.4228 154.439 15.3019 154.692 15.0602C154.955 14.8184 155.086 14.4888 155.086 14.0712C155.086 13.6536 154.955 13.324 154.692 13.0822C154.439 12.8405 154.045 12.7196 153.508 12.7196H150.367L152.094 10.9559V17.1865Z" fill="white"/>
<path d="M141.314 14.0053H146.447V16.8074H141.314V14.0053ZM141.577 18.3238H147.335V21.2577H137.761V9.71973H147.121V12.6537H141.577V18.3238Z" fill="white"/>
<path d="M125.47 21.2577V9.71973H136.633V21.2577H132.807V11.912L133.648 12.7361H128.454L129.295 11.912V21.2577H125.47Z" fill="white"/>
<path d="M109.671 21.5512C108.749 21.5512 107.894 21.4082 107.104 21.1221C106.326 20.825 105.646 20.4069 105.064 19.8677C104.494 19.3286 104.05 18.6904 103.732 17.9532C103.414 17.216 103.255 16.4017 103.255 15.5105C103.255 14.6192 103.414 13.805 103.732 13.0678C104.05 12.3305 104.494 11.6924 105.064 11.1532C105.646 10.6141 106.326 10.2014 107.104 9.91535C107.894 9.61827 108.749 9.46973 109.671 9.46973C110.8 9.46973 111.798 9.66778 112.665 10.0639C113.542 10.46 114.266 11.0322 114.836 11.7804L112.385 13.9755C112.045 13.5464 111.667 13.2163 111.25 12.9852C110.844 12.7432 110.384 12.6221 109.868 12.6221C109.462 12.6221 109.095 12.6882 108.766 12.8202C108.437 12.9522 108.152 13.1448 107.91 13.3979C107.68 13.6509 107.499 13.959 107.368 14.3221C107.236 14.6742 107.17 15.0703 107.17 15.5105C107.17 15.9506 107.236 16.3522 107.368 16.7153C107.499 17.0674 107.68 17.37 107.91 17.6231C108.152 17.8761 108.437 18.0687 108.766 18.2007C109.095 18.3328 109.462 18.3988 109.868 18.3988C110.384 18.3988 110.844 18.2833 111.25 18.0522C111.667 17.8101 112.045 17.4745 112.385 17.0454L114.836 19.2405C114.266 19.9777 113.542 20.5499 112.665 20.957C111.798 21.3531 110.8 21.5512 109.671 21.5512Z" fill="white"/>
<path d="M116.423 13.4239C117.019 13.5771 117.485 13.6297 117.821 13.5819C118.157 13.5244 118.455 13.3186 118.715 12.9644L119.205 12.2752L119.493 11.9592L122.419 6H125.705L121.655 13.5675C121.213 14.3908 120.68 15.0322 120.055 15.4917C119.44 15.9416 118.758 16.2001 118.008 16.2671C117.259 16.3341 116.466 16.2001 115.63 15.8651L116.423 13.4239ZM119.45 14.6158L114.751 6H118.34L121.295 12.2752L119.45 14.6158Z" fill="white"/>
<path d="M138.208 45.5562C137.721 45.5562 137.223 45.4805 136.714 45.3291C136.216 45.1885 135.815 44.9993 135.512 44.7613L136.73 42.2471C136.914 42.3876 137.12 42.5012 137.347 42.5877C137.586 42.6742 137.813 42.7175 138.03 42.7175C138.355 42.7175 138.604 42.6472 138.777 42.5066C138.95 42.3768 139.091 42.1768 139.199 41.9064L139.573 40.9656L139.833 40.6087L142.676 33.374H146.152L142.497 42.4255C142.172 43.2366 141.793 43.8692 141.36 44.3234C140.937 44.7776 140.461 45.0966 139.93 45.2804C139.41 45.4643 138.836 45.5562 138.208 45.5562ZM139.069 42.6526L135.203 33.374H138.972L141.636 40.2843L139.069 42.6526Z" fill="white"/>
<path d="M130.513 42.4289C129.51 42.4289 128.62 42.2338 127.844 41.8436C127.078 41.4425 126.474 40.8951 126.032 40.2014C125.589 39.5077 125.368 38.711 125.368 37.8113C125.368 36.9116 125.589 36.1149 126.032 35.4212C126.474 34.7275 127.078 34.1855 127.844 33.7953C128.62 33.4051 129.51 33.21 130.513 33.21C131.516 33.21 132.406 33.4051 133.183 33.7953C133.96 34.1855 134.564 34.7275 134.995 35.4212C135.437 36.1149 135.658 36.9116 135.658 37.8113C135.658 38.711 135.437 39.5077 134.995 40.2014C134.564 40.8951 133.96 41.4425 133.183 41.8436C132.406 42.2338 131.516 42.4289 130.513 42.4289ZM130.513 39.5673C130.783 39.5673 131.026 39.5023 131.241 39.3722C131.457 39.2421 131.63 39.047 131.759 38.7868C131.889 38.5159 131.953 38.1907 131.953 37.8113C131.953 37.4211 131.889 37.1013 131.759 36.852C131.63 36.5919 131.457 36.3968 131.241 36.2667C131.026 36.1366 130.783 36.0716 130.513 36.0716C130.244 36.0716 130.001 36.1366 129.785 36.2667C129.569 36.3968 129.397 36.5919 129.267 36.852C129.138 37.1013 129.073 37.4211 129.073 37.8113C129.073 38.1907 129.138 38.5159 129.267 38.7868C129.397 39.047 129.569 39.2421 129.785 39.3722C130.001 39.5023 130.244 39.5673 130.513 39.5673Z" fill="white"/>
<path d="M116.14 39.3872L115.343 40.1835V33.374H119.001V40.1835L118.188 39.3872H121.617L120.821 40.1835V33.374H124.462V42.2637H109.85V33.374H113.507V40.1835L112.71 39.3872H116.14Z" fill="white"/>
<path d="M131.589 31.8105L129.163 27.7502L132.106 26.0354L135.89 31.8105H131.589ZM125.477 31.8105V22.9619H129.131V31.8105H125.477ZM128.064 28.8663V26.0678H131.363V28.8663H128.064ZM132.478 27.7825L129.05 27.459L131.864 22.9619H135.712L132.478 27.7825Z" fill="white"/>
<path d="M114.363 31.8516V22.9619H118.011V26.9902L121.075 22.9619H124.448V31.8516H120.8V27.8328L117.752 31.8516H114.363Z" fill="white"/>
<path d="M109.966 31.7302V30.153L109.706 29.7303V26.7386C109.706 26.305 109.571 25.9744 109.3 25.7468C109.04 25.5192 108.613 25.4054 108.018 25.4054C107.617 25.4054 107.211 25.4704 106.8 25.6005C106.389 25.7197 106.037 25.8877 105.745 26.1045L104.576 23.6819C105.096 23.3567 105.718 23.1074 106.443 22.934C107.168 22.7605 107.877 22.6738 108.57 22.6738C110.095 22.6738 111.275 23.0153 112.108 23.6982C112.952 24.381 113.374 25.465 113.374 26.95V31.7302H109.966ZM107.45 31.8928C106.724 31.8928 106.118 31.7681 105.631 31.5188C105.144 31.2695 104.777 30.9389 104.528 30.527C104.279 30.1043 104.154 29.6382 104.154 29.1287C104.154 28.5542 104.3 28.0664 104.593 27.6654C104.885 27.2643 105.328 26.9608 105.924 26.7549C106.53 26.5489 107.293 26.446 108.212 26.446H110.063V28.2182H108.797C108.407 28.2182 108.12 28.2832 107.936 28.4133C107.763 28.5325 107.677 28.7168 107.677 28.9661C107.677 29.1721 107.753 29.3455 107.904 29.4864C108.066 29.6165 108.283 29.6815 108.553 29.6815C108.802 29.6815 109.029 29.6165 109.235 29.4864C109.452 29.3455 109.608 29.1287 109.706 28.836L110.177 29.9254C110.036 30.5866 109.738 31.0798 109.284 31.405C108.829 31.7302 108.218 31.8928 107.45 31.8928Z" fill="white"/>
<path d="M93 31.7316L93.146 28.7565C93.2108 28.7674 93.2757 28.7782 93.3406 28.7891C93.4054 28.7891 93.4649 28.7891 93.5189 28.7891C93.7568 28.7891 93.946 28.7457 94.0865 28.659C94.2271 28.5615 94.3352 28.426 94.4109 28.2526C94.4974 28.0683 94.5568 27.8515 94.5893 27.6023C94.6217 27.3422 94.6433 27.0441 94.6541 26.7081L94.7839 22.8389H103.249V31.7316H99.5841V24.9361L100.379 25.7002H97.2002L97.9462 24.8873L97.8651 26.8544C97.8327 27.6565 97.7624 28.3772 97.6543 29.0167C97.5462 29.6453 97.3732 30.1818 97.1353 30.6261C96.9083 31.0597 96.5948 31.3956 96.1947 31.6341C95.8055 31.8617 95.3082 31.9755 94.7028 31.9755C94.4649 31.9755 94.2001 31.9538 93.9081 31.9105C93.6271 31.8671 93.3243 31.8075 93 31.7316Z" fill="white"/>
<path d="M122.285 19.5688L120.865 20.9881L119.9 21.947L118.934 20.9881L117.514 19.5688C116.944 19.0029 116.944 18.1015 117.514 17.5357C118.074 16.9699 118.992 16.9699 119.562 17.5357L119.9 17.8713L120.237 17.5357C120.807 16.9699 121.725 16.9699 122.285 17.5357C122.855 18.1015 122.855 19.0029 122.285 19.5688Z" fill="#52FF00"/>
</svg>
