<svg width="1009" height="839" viewBox="0 0 1009 839" fill="none" xmlns="http://www.w3.org/2000/svg">
<rect width="771.828" height="138.709" rx="69.3544" transform="matrix(-0.707107 0.707107 0.707107 0.707107 865.898 29.7363)" fill="url(#paint0_linear_1501_5442)"/>
<rect opacity="0.5" x="139.67" y="40.9258" width="712.162" height="138.709" rx="69.3544" transform="rotate(45 139.67 40.9258)" fill="url(#paint1_linear_1501_5442)"/>
<rect width="644.492" height="162.105" rx="81.0527" transform="matrix(-0.707107 0.707107 0.707107 0.707107 894.227 122.99)" fill="url(#paint2_linear_1501_5442)"/>
<rect opacity="0.5" x="100.516" y="122.931" width="600.735" height="108.21" rx="54.1048" transform="rotate(45 100.516 122.931)" fill="url(#paint3_linear_1501_5442)"/>
<rect opacity="0.5" x="97.4902" width="706.565" height="137.873" rx="68.9366" transform="rotate(45 97.4902 0)" fill="url(#paint4_linear_1501_5442)"/>
<path fill-rule="evenodd" clip-rule="evenodd" d="M346.194 574.903L323.72 552.221C313.218 541.693 313.218 524.922 323.72 514.395C334.043 503.867 350.952 503.867 361.453 514.395L367.682 520.639L373.911 514.395C384.413 503.867 401.322 503.867 411.645 514.395C412.663 515.415 413.582 516.495 414.403 517.621L508.837 612.06L445.965 674.935L346.066 575.031L346.194 574.903Z" fill="url(#paint5_radial_1501_5442)"/>
<path d="M405.575 546.167L405.565 546.177L405.555 546.187L379.412 572.573L379.391 572.594L367.682 584.332L355.973 572.594L355.953 572.573L329.81 546.187L329.799 546.177L329.789 546.167C322.625 538.985 322.625 527.631 329.789 520.449L329.815 520.423L329.841 520.396C336.774 513.326 348.203 513.25 355.384 520.449L361.613 526.693L367.682 532.777L373.751 526.693L379.98 520.449C387.162 513.25 398.59 513.326 405.524 520.396L405.549 520.423L405.575 520.449C412.739 527.631 412.739 538.985 405.575 546.167Z" fill="#318FFF" stroke="#318FFF" stroke-width="17.1448"/>
<path d="M351.709 539.201C349.385 540.03 348.588 539.277 347.922 537.422L347.06 535.032C346.23 532.707 346.983 531.91 348.839 531.244L351.229 530.382C353.554 529.553 354.35 530.306 355.016 532.161L355.878 534.551C356.708 536.876 355.955 537.673 354.099 538.338L351.709 539.201Z" fill="#FF4F3E"/>
<path d="M362.124 539.201C364.448 540.03 365.245 539.277 365.911 537.422L366.773 535.032C367.602 532.707 366.849 531.91 364.994 531.244L362.604 530.382C360.279 529.553 359.482 530.306 358.817 532.161L357.954 534.551C357.125 536.876 357.878 537.673 359.733 538.338L362.124 539.201Z" fill="#FABC22"/>
<path d="M373.498 539.196C371.174 540.036 370.377 539.272 369.711 537.418L368.849 535.029C368.019 532.706 368.773 531.909 370.628 531.244L373.018 530.382C375.343 529.553 376.14 530.306 376.805 532.16L377.667 534.549C378.497 536.873 377.744 537.669 375.889 538.334L373.498 539.196Z" fill="#06C92E"/>
<path d="M383.915 539.201C386.239 540.03 387.036 539.277 387.702 537.422L388.564 535.032C389.393 532.707 388.64 531.91 386.785 531.244L384.395 530.382C382.07 529.553 381.273 530.306 380.608 532.161L379.745 534.551C378.916 536.876 379.669 537.673 381.524 538.338L383.915 539.201Z" fill="#00C2FC"/>
<path d="M343.831 553.385C343.831 553.462 343.82 553.528 343.787 553.594C343.766 553.659 343.722 553.725 343.668 553.769C343.613 553.824 343.559 553.857 343.493 553.89C343.428 553.923 343.352 553.934 343.286 553.934H342.349C342.273 553.934 342.208 553.923 342.142 553.89C342.077 553.868 342.012 553.824 341.968 553.769C341.925 553.714 341.881 553.659 341.848 553.594C341.816 553.528 341.805 553.451 341.805 553.385V550.972C341.805 550.896 341.816 550.83 341.848 550.764C341.881 550.698 341.914 550.632 341.968 550.588C342.023 550.534 342.077 550.501 342.142 550.468C342.208 550.446 342.284 550.424 342.349 550.424H342.644C342.785 550.237 342.894 550.04 342.981 549.821C343.079 549.568 343.166 549.316 343.232 549.053C343.297 548.768 343.352 548.483 343.406 548.187C343.45 547.89 343.482 547.594 343.504 547.287L343.559 546.421C343.57 546.267 343.635 546.125 343.744 546.026C343.798 545.971 343.864 545.938 343.929 545.905C343.994 545.872 344.071 545.861 344.147 545.861H348.243C348.319 545.861 348.385 545.872 348.461 545.905C348.526 545.938 348.592 545.971 348.646 546.026C348.701 546.081 348.733 546.136 348.766 546.212C348.799 546.278 348.809 546.355 348.809 546.432V550.435H349.343C349.42 550.435 349.485 550.446 349.55 550.479C349.616 550.501 349.681 550.545 349.725 550.599C349.779 550.654 349.812 550.709 349.844 550.775C349.877 550.841 349.888 550.918 349.888 550.983V553.396C349.888 553.473 349.877 553.539 349.844 553.605C349.823 553.67 349.779 553.736 349.725 553.78C349.67 553.835 349.616 553.868 349.55 553.901C349.485 553.934 349.409 553.945 349.343 553.945H348.385C348.308 553.945 348.243 553.934 348.178 553.901C348.112 553.879 348.047 553.835 348.003 553.78C347.949 553.725 347.916 553.67 347.884 553.605C347.851 553.539 347.84 553.462 347.84 553.396V552.475H343.831V553.385ZM346.587 547.934H345.618L345.596 548.197C345.552 548.669 345.454 549.13 345.323 549.579C345.236 549.876 345.106 550.161 344.942 550.435H346.598V547.934H346.587Z" fill="white"/>
<path d="M352.479 549.905C352.576 550.19 352.782 550.432 353.052 550.569C353.344 550.716 353.669 550.79 354.004 550.779C354.221 550.779 354.426 550.769 354.643 550.737C354.827 550.706 355 550.663 355.173 550.6C355.27 550.569 355.379 550.548 355.487 550.548C355.595 550.548 355.692 550.569 355.79 550.621C355.876 550.674 355.952 550.748 355.995 550.842L356.212 551.295C356.255 551.369 356.277 551.464 356.277 551.548C356.277 551.643 356.255 551.738 356.212 551.811C356.168 551.896 356.093 551.959 356.017 552.011C355.66 552.211 355.27 552.359 354.87 552.443C354.502 552.506 354.134 552.538 353.766 552.538C353.269 552.548 352.771 552.464 352.306 552.296C351.895 552.148 351.516 551.917 351.202 551.622C350.888 551.327 350.65 550.958 350.488 550.569C350.315 550.137 350.228 549.674 350.239 549.2C350.239 548.757 350.326 548.315 350.488 547.915C350.65 547.515 350.888 547.146 351.202 546.841C351.516 546.525 351.895 546.283 352.306 546.125C352.771 545.946 353.269 545.861 353.766 545.861C354.178 545.861 354.578 545.935 354.957 546.072C355.335 546.209 355.671 546.419 355.963 546.683C356.255 546.946 356.493 547.272 356.655 547.62C356.828 548.01 356.926 548.42 356.915 548.842C356.915 549.052 356.904 549.263 356.872 549.473C356.85 549.589 356.785 549.684 356.688 549.768C356.601 549.853 356.493 549.895 356.374 549.905H352.479ZM354.751 548.494C354.751 548.273 354.654 548.052 354.481 547.894C354.372 547.799 354.253 547.725 354.113 547.673C353.972 547.631 353.831 547.609 353.691 547.62C353.399 547.599 353.096 547.673 352.847 547.831C352.641 547.999 352.49 548.22 352.403 548.473L354.751 548.494Z" fill="white"/>
<path d="M360.035 552.539C359.959 552.539 359.894 552.528 359.828 552.495C359.763 552.461 359.698 552.428 359.654 552.373C359.6 552.317 359.567 552.262 359.534 552.196C359.502 552.129 359.491 552.052 359.491 551.985V548.098H358.163C358.087 548.098 358.022 548.087 357.957 548.054C357.891 548.032 357.826 547.988 357.782 547.932C357.728 547.877 357.695 547.821 357.663 547.755C357.63 547.689 357.619 547.611 357.619 547.545V546.437C357.619 546.36 357.63 546.293 357.663 546.216C357.695 546.149 357.728 546.083 357.782 546.027C357.837 545.972 357.891 545.939 357.967 545.906C358.033 545.872 358.109 545.861 358.185 545.861H363.05C363.126 545.861 363.191 545.872 363.256 545.906C363.322 545.939 363.387 545.972 363.431 546.027C363.485 546.083 363.518 546.138 363.55 546.205C363.583 546.271 363.594 546.349 363.594 546.415V547.522C363.594 547.6 363.583 547.666 363.55 547.733C363.518 547.799 363.485 547.866 363.431 547.91C363.376 547.965 363.322 547.999 363.256 548.032C363.191 548.065 363.115 548.076 363.05 548.076H361.722V551.952C361.722 552.029 361.711 552.096 361.678 552.162C361.657 552.229 361.613 552.295 361.559 552.34C361.504 552.395 361.45 552.428 361.385 552.461C361.319 552.495 361.243 552.506 361.178 552.506H361.167L360.035 552.539Z" fill="white"/>
<path d="M368.765 548.083C368.455 547.925 368.1 547.841 367.746 547.831C367.569 547.831 367.391 547.862 367.225 547.915C367.059 547.968 366.904 548.062 366.771 548.178C366.627 548.294 366.516 548.441 366.439 548.61C366.35 548.799 366.306 549 366.317 549.2C366.317 549.4 366.361 549.6 366.45 549.779C366.538 549.937 366.649 550.084 366.793 550.211C367.07 550.442 367.425 550.569 367.79 550.569C368.156 550.558 368.521 550.453 368.831 550.263C368.953 550.179 369.097 550.137 369.241 550.137C369.33 550.137 369.418 550.158 369.496 550.19C369.574 550.232 369.64 550.284 369.695 550.348L370.15 550.927C370.227 551.022 370.271 551.137 370.271 551.264C370.271 551.348 370.249 551.443 370.216 551.516C370.172 551.59 370.116 551.664 370.039 551.717C369.673 552.011 369.241 552.243 368.776 552.38C368.41 552.475 368.023 552.527 367.646 552.538C367.125 552.548 366.605 552.464 366.117 552.296C365.685 552.148 365.287 551.917 364.943 551.622C364.622 551.327 364.367 550.969 364.201 550.569C364.024 550.137 363.935 549.674 363.946 549.2C363.946 548.757 364.035 548.326 364.201 547.915C364.367 547.515 364.611 547.146 364.921 546.841C365.231 546.535 365.619 546.293 366.029 546.125C366.483 545.946 366.97 545.861 367.469 545.861C367.868 545.861 368.277 545.893 368.665 545.977C369.064 546.072 369.452 546.23 369.795 546.462C369.895 546.504 369.972 546.577 370.028 546.662C370.083 546.746 370.116 546.851 370.116 546.946C370.116 547.041 370.083 547.136 370.028 547.22L369.596 547.894C369.551 547.978 369.474 548.052 369.385 548.104C369.297 548.157 369.197 548.178 369.086 548.178C368.975 548.157 368.865 548.136 368.765 548.083Z" fill="white"/>
<path d="M373.427 549.304V551.894C373.427 551.971 373.417 552.036 373.385 552.102C373.364 552.167 373.322 552.233 373.27 552.277C373.217 552.331 373.165 552.364 373.102 552.397C373.039 552.43 372.965 552.44 372.902 552.44H371.851C371.778 552.44 371.715 552.43 371.652 552.397C371.589 552.364 371.526 552.331 371.484 552.277C371.431 552.222 371.389 552.167 371.368 552.091C371.337 552.025 371.326 551.949 371.326 551.872V546.408C371.326 546.331 371.337 546.266 371.368 546.2C371.389 546.135 371.431 546.069 371.484 546.025C371.536 545.971 371.589 545.938 371.652 545.905C371.715 545.872 371.788 545.861 371.851 545.861H372.902C372.975 545.861 373.039 545.872 373.112 545.905C373.175 545.938 373.238 545.971 373.291 546.025C373.343 546.08 373.375 546.135 373.406 546.211C373.438 546.277 373.448 546.353 373.448 546.43V548.736L375.077 546.233C375.15 546.124 375.255 546.036 375.36 545.971C375.476 545.905 375.602 545.872 375.738 545.872H376.715C376.789 545.872 376.862 545.883 376.936 545.916C376.999 545.949 377.062 545.992 377.115 546.047C377.209 546.156 377.272 546.298 377.272 546.441C377.272 546.561 377.23 546.681 377.157 546.779L375.654 548.823L376.348 549.807C376.526 550.102 376.799 550.32 377.115 550.43C377.283 550.451 377.43 550.528 377.545 550.648C377.629 550.79 377.661 550.965 377.65 551.129V552.025C377.65 552.145 377.608 552.255 377.524 552.342C377.451 552.44 377.346 552.495 377.23 552.517C377.157 552.517 377.083 552.539 377.02 552.539C376.946 552.539 376.883 552.539 376.81 552.539C376.631 552.539 376.453 552.517 376.285 552.484C376.096 552.44 375.906 552.364 375.738 552.266C375.539 552.145 375.35 552.003 375.192 551.839C374.982 551.621 374.793 551.38 374.635 551.118L373.427 549.304Z" fill="white"/>
<path d="M384.08 552.539C384.004 552.539 383.94 552.528 383.875 552.495C383.81 552.461 383.745 552.428 383.701 552.373C383.647 552.317 383.615 552.262 383.582 552.196C383.55 552.129 383.539 552.052 383.539 551.985V549.051L381.472 552.162C381.396 552.273 381.31 552.362 381.201 552.428C381.093 552.495 380.974 552.539 380.844 552.528H379.6C379.524 552.528 379.459 552.517 379.394 552.483C379.329 552.45 379.264 552.417 379.221 552.362C379.167 552.306 379.124 552.251 379.102 552.173C379.069 552.107 379.059 552.029 379.059 551.952V546.415C379.059 546.338 379.069 546.271 379.102 546.205C379.124 546.138 379.167 546.072 379.221 546.027C379.275 545.972 379.329 545.939 379.394 545.906C379.459 545.872 379.535 545.861 379.6 545.861H380.682C380.758 545.861 380.823 545.872 380.898 545.906C380.963 545.939 381.028 545.972 381.082 546.027C381.137 546.083 381.169 546.138 381.201 546.216C381.234 546.282 381.245 546.36 381.245 546.437V549.35L383.312 546.238C383.388 546.138 383.474 546.05 383.572 545.972C383.669 545.906 383.799 545.861 383.918 545.872H385.173C385.249 545.872 385.314 545.883 385.39 545.917C385.455 545.95 385.52 545.983 385.574 546.039C385.628 546.094 385.66 546.149 385.693 546.227C385.725 546.293 385.736 546.371 385.736 546.448V551.985C385.736 552.063 385.725 552.129 385.693 552.196C385.66 552.262 385.628 552.328 385.574 552.373C385.52 552.428 385.466 552.461 385.401 552.495C385.336 552.528 385.26 552.539 385.195 552.539H385.184H384.08Z" fill="white"/>
<path d="M392.495 552.539C392.419 552.539 392.354 552.528 392.29 552.495C392.225 552.462 392.16 552.429 392.117 552.374C392.063 552.32 392.03 552.265 391.998 552.199C391.965 552.133 391.955 552.056 391.955 551.991V549.084L389.891 552.166C389.815 552.276 389.729 552.363 389.621 552.429C389.513 552.495 389.394 552.539 389.264 552.528H388.032C387.957 552.528 387.892 552.517 387.827 552.484C387.762 552.462 387.697 552.418 387.654 552.363C387.6 552.309 387.568 552.254 387.535 552.188C387.503 552.122 387.492 552.045 387.492 551.98V546.496C387.492 546.419 387.503 546.354 387.535 546.277C387.568 546.211 387.6 546.145 387.654 546.09C387.708 546.036 387.762 546.003 387.838 545.97C387.903 545.937 387.978 545.926 388.054 545.926H389.124C389.199 545.926 389.264 545.937 389.34 545.97C389.405 546.003 389.47 546.036 389.524 546.09C389.578 546.145 389.61 546.2 389.642 546.277C389.675 546.343 389.686 546.419 389.686 546.496V549.38L391.749 546.299C391.825 546.2 391.911 546.112 392.009 546.036C392.106 545.97 392.236 545.926 392.354 545.937H393.608C393.683 545.937 393.748 545.948 393.824 545.981C393.889 546.014 393.954 546.047 394.008 546.101C394.062 546.156 394.094 546.211 394.126 546.288C394.159 546.354 394.17 546.43 394.17 546.507V551.991C394.17 552.067 394.159 552.133 394.126 552.199C394.105 552.265 394.062 552.331 394.008 552.374C393.954 552.429 393.9 552.462 393.835 552.495C393.77 552.528 393.694 552.539 393.629 552.539H393.619H392.495ZM392.182 543.053C392.3 543.042 392.43 543.064 392.538 543.107C392.657 543.151 392.754 543.217 392.841 543.305C392.992 543.48 393.068 543.711 393.057 543.952C393.057 544.149 393.003 544.336 392.906 544.511C392.808 544.676 392.668 544.818 392.506 544.917C392.138 545.18 391.587 545.312 390.853 545.312C390.042 545.312 389.459 545.18 389.113 544.917C388.951 544.807 388.821 544.665 388.735 544.5C388.638 544.336 388.594 544.138 388.594 543.952C388.583 543.711 388.67 543.48 388.81 543.305C388.897 543.217 388.994 543.151 389.113 543.107C389.232 543.064 389.351 543.053 389.47 543.064C389.664 543.042 389.858 543.096 390.021 543.217C390.139 543.327 390.226 543.458 390.269 543.612C390.312 543.733 390.377 543.842 390.474 543.941C390.582 544.04 390.734 544.083 390.874 544.073C390.939 544.073 391.004 544.073 391.069 544.051C391.133 544.029 391.188 543.996 391.242 543.952C391.328 543.853 391.393 543.744 391.425 543.623C391.468 543.469 391.555 543.327 391.674 543.228C391.814 543.096 391.998 543.042 392.182 543.053Z" fill="white"/>
<path d="M358.054 562.88C358.054 562.957 358.043 563.024 358.01 563.09C357.988 563.157 357.944 563.223 357.889 563.267C357.835 563.323 357.78 563.356 357.714 563.389C357.648 563.422 357.572 563.433 357.506 563.433H356.411C356.334 563.433 356.268 563.422 356.203 563.389C356.137 563.367 356.071 563.323 356.028 563.267C355.973 563.212 355.94 563.157 355.907 563.09C355.874 563.024 355.863 562.946 355.863 562.88V557.332C355.863 557.254 355.874 557.188 355.907 557.11C355.94 557.044 355.973 556.977 356.028 556.922C356.082 556.867 356.137 556.833 356.214 556.8C356.279 556.767 356.356 556.756 356.433 556.756H357.473C357.605 556.756 357.736 556.789 357.846 556.856C357.966 556.911 358.065 556.999 358.141 557.099L359.828 559.026L361.383 557.121C361.46 557.022 361.569 556.933 361.679 556.867C361.788 556.8 361.92 556.767 362.04 556.767H363.026C363.102 556.767 363.168 556.778 363.245 556.811C363.31 556.844 363.376 556.878 363.431 556.933C363.486 556.988 363.518 557.044 363.551 557.121C363.584 557.188 363.595 557.265 363.595 557.343V562.88C363.595 562.957 363.584 563.024 363.551 563.09C363.529 563.157 363.486 563.223 363.431 563.267C363.376 563.323 363.321 563.356 363.256 563.389C363.19 563.422 363.113 563.433 363.048 563.433H361.952C361.876 563.433 361.81 563.422 361.744 563.389C361.679 563.356 361.613 563.323 361.569 563.267C361.514 563.212 361.481 563.157 361.449 563.09C361.416 563.024 361.405 562.946 361.405 562.88V560.167L360.178 561.595C360.134 561.65 360.069 561.695 360.003 561.728C359.937 561.761 359.861 561.772 359.795 561.772C359.729 561.772 359.653 561.761 359.587 561.728C359.521 561.695 359.466 561.662 359.412 561.606L358.108 560.167L358.054 562.88Z" fill="white"/>
<path d="M370.005 563.422C369.93 563.422 369.865 563.411 369.8 563.378C369.736 563.345 369.671 563.312 369.628 563.256C369.574 563.201 369.542 563.146 369.509 563.08C369.477 563.013 369.466 562.936 369.466 562.87V559.94L367.406 563.046C367.33 563.157 367.244 563.245 367.136 563.312C367.028 563.378 366.909 563.422 366.78 563.411H365.539C365.464 563.411 365.399 563.4 365.334 563.367C365.27 563.334 365.205 563.301 365.162 563.245C365.108 563.19 365.076 563.135 365.043 563.069C365.011 563.002 365 562.925 365 562.858V557.331C365 557.253 365.011 557.187 365.043 557.11C365.076 557.043 365.108 556.977 365.162 556.922C365.216 556.866 365.27 556.833 365.345 556.8C365.41 556.767 365.485 556.756 365.561 556.756H366.629C366.704 556.756 366.769 556.767 366.845 556.8C366.909 556.833 366.974 556.866 367.028 556.922C367.082 556.977 367.114 557.032 367.147 557.11C367.179 557.176 367.19 557.253 367.19 557.331V560.238L369.25 557.132C369.326 557.032 369.412 556.944 369.52 556.877C369.617 556.811 369.747 556.767 369.865 556.778H371.117C371.192 556.778 371.257 556.789 371.332 556.822C371.397 556.855 371.462 556.889 371.516 556.944C371.57 556.999 371.602 557.054 371.634 557.132C371.667 557.198 371.678 557.275 371.678 557.353V562.881C371.678 562.958 371.667 563.024 371.634 563.091C371.602 563.157 371.57 563.223 371.516 563.268C371.462 563.323 371.408 563.356 371.343 563.389C371.278 563.422 371.203 563.433 371.138 563.433H370.005V563.422Z" fill="white"/>
<path d="M375.289 565.359C375.289 565.433 375.278 565.498 375.245 565.562C375.212 565.626 375.179 565.69 375.123 565.733C375.068 565.786 375.013 565.819 374.947 565.851C374.881 565.883 374.803 565.893 374.737 565.893H373.634C373.557 565.893 373.49 565.883 373.424 565.851C373.358 565.819 373.292 565.786 373.248 565.733C373.192 565.679 373.159 565.626 373.126 565.562C373.093 565.498 373.082 565.423 373.082 565.359V557.133C373.082 557.058 373.093 556.994 373.126 556.919C373.159 556.855 373.192 556.791 373.248 556.737C373.303 556.684 373.358 556.651 373.435 556.619C373.501 556.587 373.579 556.577 373.656 556.577H374.803C374.87 556.577 374.925 556.587 374.991 556.609C375.046 556.63 375.101 556.662 375.145 556.705C375.19 556.748 375.223 556.801 375.256 556.855C375.278 556.908 375.289 556.972 375.3 557.037V557.047C375.521 556.855 375.774 556.705 376.05 556.598C376.392 556.459 376.768 556.395 377.143 556.405C377.562 556.405 377.981 556.48 378.357 556.651C378.721 556.812 379.041 557.047 379.294 557.336C379.559 557.646 379.758 557.999 379.89 558.384C380.034 558.801 380.111 559.251 380.111 559.689C380.111 560.16 380.023 560.62 379.857 561.058C379.692 561.476 379.449 561.85 379.129 562.171C378.809 562.492 378.423 562.738 378.003 562.909C377.54 563.102 377.043 563.187 376.536 563.187C376.315 563.187 376.083 563.166 375.863 563.134C375.664 563.112 375.477 563.059 375.3 562.984L375.289 565.359ZM375.289 560.962C375.432 561.048 375.587 561.112 375.752 561.155C375.94 561.198 376.128 561.208 376.326 561.208C376.525 561.219 376.723 561.198 376.911 561.123C377.099 561.048 377.264 560.93 377.397 560.791C377.628 560.502 377.75 560.139 377.739 559.764C377.75 559.422 377.628 559.09 377.408 558.823C377.286 558.695 377.143 558.588 376.966 558.523C376.801 558.459 376.613 558.427 376.437 558.438C376.216 558.449 375.995 558.502 375.797 558.598C375.598 558.695 375.421 558.834 375.289 559.005V560.962Z" fill="white"/>
<rect opacity="0.5" x="105.328" y="369.435" width="418.926" height="12.3007" rx="6.15034" transform="rotate(45 105.328 369.435)" fill="url(#paint6_linear_1501_5442)"/>
<path d="M411.115 687.112L326.977 600.297L345.096 586.691L426.53 671.194L411.115 687.112Z" fill="url(#paint7_linear_1501_5442)"/>
<path d="M334.113 578.196L331.431 586.696L322.749 586.696L329.772 591.949L327.09 600.448L334.113 595.195L341.137 600.448L338.454 591.949L345.478 586.696L336.796 586.696L334.113 578.196Z" fill="url(#paint8_radial_1501_5442)"/>
<path d="M605.175 330.937L605.591 336.858L611.058 337.309L605.591 337.76L605.175 343.682L604.759 337.76L599.293 337.309L604.759 336.858L605.175 330.937Z" fill="url(#paint9_radial_1501_5442)"/>
<path d="M605.175 330.937L605.591 336.858L611.058 337.309L605.591 337.76L605.175 343.682L604.759 337.76L599.293 337.309L604.759 336.858L605.175 330.937Z" fill="white"/>
<path d="M418.197 420.845L418.474 424.033L422.118 424.276L418.474 424.519L418.197 427.707L417.92 424.519L414.275 424.276L417.92 424.033L418.197 420.845Z" fill="white"/>
<path fill-rule="evenodd" clip-rule="evenodd" d="M644.117 490.36L649.098 485.345C651.483 482.96 651.483 479.16 649.098 476.775C646.753 474.39 642.913 474.39 640.528 476.775L639.113 478.19L637.698 476.775C635.313 474.39 631.473 474.39 629.129 476.775C628.658 477.246 628.28 477.772 627.995 478.331L497.838 608.495L512.003 622.661L644.207 490.449L644.117 490.36Z" fill="url(#paint10_radial_1501_5442)"/>
<path d="M629.129 485.345L635.071 491.328L639.113 495.37L643.156 491.328L649.098 485.345C651.483 482.96 651.483 479.16 649.098 476.775C646.753 474.39 642.913 474.39 640.528 476.775L639.113 478.19L637.698 476.775C635.313 474.39 631.473 474.39 629.129 476.775C626.743 479.16 626.743 482.96 629.129 485.345Z" fill="url(#paint11_radial_1501_5442)"/>
<path fill-rule="evenodd" clip-rule="evenodd" d="M645.487 572.907L665.055 553.206C674.596 543.665 674.596 528.467 665.055 518.926C655.678 509.385 640.316 509.385 630.776 518.926L625.117 524.585L619.458 518.926C611.01 510.478 597.999 509.511 588.619 516.023L586.503 513.906L489.349 611.087L552.213 673.97L649.367 576.788L645.487 572.907Z" fill="url(#paint12_radial_1501_5442)"/>
<path d="M644.445 545.158V535.317H649.139C650.05 535.317 650.834 535.467 651.494 535.767C652.162 536.067 652.678 536.498 653.04 537.061C653.402 537.614 653.583 538.27 653.583 539.029C653.583 539.788 653.402 540.444 653.04 540.997C652.678 541.55 652.162 541.981 651.494 542.29C650.834 542.59 650.05 542.74 649.139 542.74H646.27L647.733 541.32V545.158H644.445ZM647.733 541.686L646.27 540.181H648.931C649.386 540.181 649.72 540.078 649.933 539.872C650.156 539.666 650.268 539.385 650.268 539.029C650.268 538.673 650.156 538.391 649.933 538.185C649.72 537.979 649.386 537.876 648.931 537.876H646.27L647.733 536.372V541.686Z" fill="white"/>
<path d="M638.66 538.972H642.993V541.362H638.66V538.972ZM638.882 542.656H643.743V545.158H635.66V535.317H643.563V537.82H638.882V542.656Z" fill="white"/>
<path d="M625.115 545.158V535.317H634.604V545.158H631.353V537.187L632.067 537.89H627.652L628.367 537.187V545.158H625.115Z" fill="white"/>
<path d="M611.588 545.509C610.805 545.509 610.079 545.384 609.408 545.135C608.746 544.875 608.168 544.511 607.674 544.04C607.19 543.57 606.812 543.013 606.542 542.369C606.272 541.726 606.137 541.015 606.137 540.238C606.137 539.46 606.272 538.749 606.542 538.106C606.812 537.462 607.19 536.906 607.674 536.435C608.168 535.964 608.746 535.604 609.408 535.355C610.079 535.095 610.805 534.966 611.588 534.966C612.548 534.966 613.396 535.139 614.132 535.484C614.878 535.83 615.493 536.329 615.977 536.982L613.895 538.898C613.606 538.524 613.284 538.235 612.93 538.034C612.585 537.823 612.194 537.717 611.756 537.717C611.411 537.717 611.099 537.775 610.819 537.89C610.54 538.005 610.298 538.173 610.093 538.394C609.897 538.615 609.743 538.884 609.631 539.2C609.519 539.508 609.463 539.853 609.463 540.238C609.463 540.622 609.519 540.972 609.631 541.289C609.743 541.596 609.897 541.86 610.093 542.081C610.298 542.302 610.54 542.47 610.819 542.585C611.099 542.701 611.411 542.758 611.756 542.758C612.194 542.758 612.585 542.657 612.93 542.456C613.284 542.244 613.606 541.952 613.895 541.577L615.977 543.493C615.493 544.136 614.878 544.635 614.132 544.991C613.396 545.336 612.548 545.509 611.588 545.509Z" fill="white"/>
<path d="M617.425 538.497C617.941 538.628 618.345 538.673 618.636 538.632C618.927 538.583 619.185 538.407 619.41 538.104L619.835 537.516L620.084 537.246L622.619 532.154H625.466L621.957 538.62C621.574 539.323 621.112 539.871 620.571 540.264C620.039 540.648 619.448 540.869 618.798 540.926C618.149 540.983 617.462 540.869 616.738 540.583L617.425 538.497ZM620.047 539.515L615.977 532.154H619.085L621.645 537.516L620.047 539.515Z" fill="white"/>
<path d="M635.804 565.893C635.381 565.893 634.95 565.828 634.509 565.696C634.077 565.575 633.73 565.411 633.467 565.205L634.523 563.029C634.682 563.151 634.861 563.249 635.058 563.324C635.264 563.399 635.461 563.436 635.649 563.436C635.931 563.436 636.146 563.375 636.297 563.254C636.447 563.141 636.569 562.968 636.663 562.734L636.986 561.92L637.212 561.611L639.675 555.35H642.688L639.521 563.183C639.239 563.885 638.911 564.433 638.535 564.826C638.169 565.219 637.756 565.495 637.296 565.654C636.846 565.813 636.348 565.893 635.804 565.893ZM636.55 563.38L633.199 555.35H636.465L638.774 561.33L636.55 563.38Z" fill="white"/>
<path d="M629.51 563.081C628.654 563.081 627.894 562.918 627.231 562.591C626.577 562.254 626.061 561.795 625.684 561.213C625.306 560.631 625.117 559.963 625.117 559.209C625.117 558.454 625.306 557.786 625.684 557.204C626.061 556.622 626.577 556.168 627.231 555.841C627.894 555.513 628.654 555.35 629.51 555.35C630.367 555.35 631.127 555.513 631.79 555.841C632.453 556.168 632.969 556.622 633.337 557.204C633.715 557.786 633.903 558.454 633.903 559.209C633.903 559.963 633.715 560.631 633.337 561.213C632.969 561.795 632.453 562.254 631.79 562.591C631.127 562.918 630.367 563.081 629.51 563.081ZM629.51 560.681C629.741 560.681 629.948 560.627 630.132 560.518C630.316 560.409 630.464 560.245 630.574 560.027C630.685 559.8 630.74 559.527 630.74 559.209C630.74 558.881 630.685 558.613 630.574 558.404C630.464 558.186 630.316 558.022 630.132 557.913C629.948 557.804 629.741 557.75 629.51 557.75C629.28 557.75 629.073 557.804 628.889 557.913C628.704 558.022 628.557 558.186 628.447 558.404C628.336 558.613 628.281 558.881 628.281 559.209C628.281 559.527 628.336 559.8 628.447 560.027C628.557 560.245 628.704 560.409 628.889 560.518C629.073 560.627 629.28 560.681 629.51 560.681Z" fill="white"/>
<path d="M617.057 560.58L616.386 561.272V555.35H619.465V561.272L618.781 560.58H621.668L620.997 561.272V555.35H624.062V563.081H611.762V555.35H614.84V561.272L614.17 560.58H617.057Z" fill="white"/>
<path d="M630.274 554.296L628.228 550.748L630.711 549.25L633.903 554.296H630.274ZM625.117 554.296V546.564H628.201V554.296H625.117ZM627.3 551.724V549.278H630.083V551.724H627.3ZM631.025 550.777L628.132 550.494L630.506 546.564H633.753L631.025 550.777Z" fill="white"/>
<path d="M615.629 554.296V546.564H618.68V550.068L621.243 546.564H624.064V554.296H621.012V550.801L618.463 554.296H615.629Z" fill="white"/>
<path d="M611.715 554.154V552.771L611.497 552.4V549.777C611.497 549.397 611.384 549.107 611.157 548.907C610.939 548.708 610.581 548.608 610.082 548.608C609.746 548.608 609.405 548.665 609.061 548.779C608.716 548.884 608.421 549.031 608.176 549.221L607.196 547.097C607.631 546.812 608.153 546.593 608.761 546.441C609.369 546.289 609.964 546.213 610.544 546.213C611.824 546.213 612.813 546.512 613.512 547.111C614.22 547.71 614.574 548.66 614.574 549.962V554.154H611.715ZM609.605 554.296C608.997 554.296 608.489 554.187 608.081 553.968C607.672 553.75 607.364 553.46 607.155 553.099C606.946 552.728 606.842 552.319 606.842 551.873C606.842 551.369 606.964 550.941 607.209 550.59C607.454 550.238 607.826 549.972 608.326 549.791C608.834 549.611 609.474 549.52 610.245 549.52H611.797V551.074H610.735C610.408 551.074 610.168 551.131 610.013 551.245C609.868 551.35 609.796 551.511 609.796 551.73C609.796 551.911 609.859 552.063 609.986 552.186C610.122 552.3 610.304 552.357 610.531 552.357C610.739 552.357 610.93 552.3 611.102 552.186C611.284 552.063 611.416 551.873 611.497 551.616L611.892 552.571C611.774 553.151 611.524 553.583 611.143 553.869C610.762 554.154 610.249 554.296 609.605 554.296Z" fill="white"/>
<path d="M597.354 554.08L597.479 551.448C597.534 551.458 597.59 551.468 597.645 551.477C597.701 551.477 597.752 551.477 597.798 551.477C598.002 551.477 598.164 551.439 598.285 551.362C598.405 551.276 598.498 551.156 598.563 551.002C598.637 550.839 598.688 550.648 598.716 550.427C598.744 550.197 598.762 549.933 598.772 549.636L598.883 546.213H606.14V554.08H602.998V548.068L603.679 548.744H600.954L601.594 548.025L601.524 549.766C601.496 550.475 601.436 551.113 601.343 551.678C601.251 552.235 601.102 552.709 600.899 553.102C600.704 553.486 600.435 553.783 600.092 553.994C599.759 554.196 599.332 554.296 598.813 554.296C598.609 554.296 598.382 554.277 598.132 554.239C597.891 554.2 597.632 554.148 597.354 554.08Z" fill="white"/>
<path d="M622.283 543.787L621.041 545.025L620.196 545.861L619.352 545.025L618.11 543.787C617.612 543.293 617.612 542.507 618.11 542.014C618.6 541.52 619.402 541.52 619.901 542.014L620.196 542.306L620.492 542.014C620.99 541.52 621.793 541.52 622.283 542.014C622.781 542.507 622.781 543.293 622.283 543.787Z" fill="white"/>
<path d="M585.912 552.221L612.076 578.627L629.874 596.47L647.673 578.627L673.837 552.221C684.338 541.693 684.338 524.922 673.837 514.395C663.514 503.867 646.605 503.867 636.103 514.395L629.874 520.639L623.645 514.395C613.144 503.867 596.235 503.867 585.912 514.395C575.41 524.922 575.41 541.693 585.912 552.221Z" fill="url(#paint13_radial_1501_5442)"/>
<path d="M649.611 544.254V534.38H654.354C655.273 534.38 656.066 534.53 656.732 534.831C657.407 535.132 657.928 535.565 658.294 536.129C658.66 536.684 658.843 537.342 658.843 538.104C658.843 538.866 658.66 539.524 658.294 540.079C657.928 540.633 657.407 541.066 656.732 541.376C656.066 541.677 655.273 541.828 654.354 541.828H651.455L652.932 540.403V544.254H649.611ZM652.932 540.77L651.455 539.261H654.143C654.602 539.261 654.94 539.157 655.156 538.95C655.381 538.743 655.493 538.461 655.493 538.104C655.493 537.746 655.381 537.464 655.156 537.257C654.94 537.051 654.602 536.947 654.143 536.947H651.455L652.932 535.438V540.77Z" fill="white"/>
<path d="M643.707 538.047H648.099V540.445H643.707V538.047ZM643.932 541.743H648.86V544.254H640.666V534.38H648.677V536.891H643.932V541.743Z" fill="white"/>
<path d="M630.146 544.254V534.38H639.7V544.254H636.426V536.256L637.146 536.961H632.701L633.42 536.256V544.254H630.146Z" fill="white"/>
<path d="M616.625 544.505C615.837 544.505 615.105 544.382 614.429 544.137C613.763 543.883 613.181 543.525 612.683 543.064C612.195 542.603 611.815 542.056 611.543 541.426C611.271 540.795 611.135 540.098 611.135 539.335C611.135 538.572 611.271 537.876 611.543 537.245C611.815 536.614 612.195 536.068 612.683 535.606C613.181 535.145 613.763 534.792 614.429 534.547C615.105 534.293 615.837 534.166 616.625 534.166C617.592 534.166 618.446 534.335 619.188 534.674C619.938 535.013 620.558 535.503 621.046 536.143L618.948 538.022C618.657 537.654 618.333 537.372 617.977 537.174C617.63 536.967 617.235 536.863 616.794 536.863C616.447 536.863 616.133 536.92 615.851 537.033C615.569 537.146 615.325 537.311 615.119 537.527C614.922 537.744 614.767 538.007 614.654 538.318C614.542 538.619 614.485 538.958 614.485 539.335C614.485 539.712 614.542 540.055 614.654 540.366C614.767 540.668 614.922 540.926 615.119 541.143C615.325 541.36 615.569 541.524 615.851 541.637C616.133 541.75 616.447 541.807 616.794 541.807C617.235 541.807 617.63 541.708 617.977 541.51C618.333 541.303 618.657 541.016 618.948 540.649L621.046 542.527C620.558 543.158 619.938 543.648 619.188 543.996C618.446 544.335 617.592 544.505 616.625 544.505Z" fill="white"/>
<path d="M622.403 537.55C622.913 537.681 623.312 537.726 623.6 537.685C623.888 537.636 624.143 537.459 624.365 537.156L624.784 536.566L625.031 536.296L627.535 531.196H630.347L626.881 537.672C626.503 538.377 626.046 538.926 625.512 539.319C624.986 539.704 624.402 539.925 623.76 539.983C623.119 540.04 622.44 539.925 621.725 539.639L622.403 537.55ZM624.994 538.57L620.973 531.196H624.044L626.573 536.566L624.994 538.57Z" fill="white"/>
<path d="M641.05 565.048C640.633 565.048 640.207 564.983 639.771 564.854C639.345 564.733 639.002 564.571 638.743 564.368L639.785 562.216C639.943 562.336 640.119 562.433 640.314 562.508C640.517 562.582 640.712 562.619 640.897 562.619C641.175 562.619 641.389 562.558 641.537 562.438C641.685 562.327 641.806 562.156 641.898 561.924L642.218 561.119L642.441 560.814L644.873 554.623H647.848L644.72 562.369C644.442 563.063 644.118 563.604 643.747 563.993C643.386 564.382 642.978 564.655 642.524 564.812C642.079 564.969 641.588 565.048 641.05 565.048ZM641.787 562.563L638.479 554.623H641.704L643.984 560.536L641.787 562.563Z" fill="white"/>
<path d="M634.462 562.371C633.603 562.371 632.842 562.204 632.177 561.87C631.522 561.527 631.005 561.059 630.626 560.465C630.248 559.871 630.059 559.19 630.059 558.42C630.059 557.65 630.248 556.968 630.626 556.374C631.005 555.781 631.522 555.317 632.177 554.983C632.842 554.649 633.603 554.482 634.462 554.482C635.32 554.482 636.082 554.649 636.746 554.983C637.411 555.317 637.928 555.781 638.297 556.374C638.676 556.968 638.865 557.65 638.865 558.42C638.865 559.19 638.676 559.871 638.297 560.465C637.928 561.059 637.411 561.527 636.746 561.87C636.082 562.204 635.32 562.371 634.462 562.371ZM634.462 559.922C634.693 559.922 634.9 559.867 635.085 559.755C635.269 559.644 635.417 559.477 635.528 559.255C635.639 559.023 635.694 558.744 635.694 558.42C635.694 558.086 635.639 557.812 635.528 557.599C635.417 557.376 635.269 557.209 635.085 557.098C634.9 556.987 634.693 556.931 634.462 556.931C634.231 556.931 634.023 556.987 633.839 557.098C633.654 557.209 633.506 557.376 633.396 557.599C633.285 557.812 633.229 558.086 633.229 558.42C633.229 558.744 633.285 559.023 633.396 559.255C633.506 559.477 633.654 559.644 633.839 559.755C634.023 559.867 634.231 559.922 634.462 559.922Z" fill="white"/>
<path d="M622.162 559.769L621.481 560.45V554.623H624.611V560.45L623.915 559.769H626.85L626.168 560.45V554.623H629.284V562.23H616.779V554.623H619.909V560.45L619.227 559.769H622.162Z" fill="white"/>
<path d="M635.383 553.284L633.308 549.81L635.826 548.342L639.064 553.284H635.383ZM630.152 553.284V545.712H633.28V553.284H630.152ZM632.366 550.765V548.37H635.19V550.765H632.366ZM636.144 549.837L633.211 549.56L635.619 545.712H638.912L636.144 549.837Z" fill="white"/>
<path d="M620.641 553.32V545.712H623.762V549.159L626.385 545.712H629.271V553.32H626.149V549.88L623.54 553.32H620.641Z" fill="white"/>
<path d="M616.879 553.216V551.866L616.657 551.504V548.944C616.657 548.573 616.541 548.29 616.31 548.095C616.088 547.9 615.722 547.803 615.212 547.803C614.87 547.803 614.523 547.859 614.171 547.97C613.819 548.072 613.518 548.216 613.268 548.401L612.267 546.328C612.712 546.05 613.244 545.836 613.865 545.688C614.485 545.54 615.092 545.465 615.685 545.465C616.991 545.465 618 545.758 618.713 546.342C619.435 546.926 619.797 547.854 619.797 549.125V553.216H616.879ZM614.726 553.355C614.106 553.355 613.587 553.248 613.17 553.035C612.754 552.821 612.439 552.538 612.226 552.186C612.013 551.824 611.906 551.425 611.906 550.989C611.906 550.498 612.031 550.08 612.281 549.737C612.531 549.394 612.911 549.134 613.42 548.958C613.939 548.782 614.592 548.693 615.379 548.693H616.963V550.21H615.879C615.546 550.21 615.3 550.266 615.143 550.377C614.995 550.479 614.921 550.637 614.921 550.85C614.921 551.026 614.986 551.175 615.115 551.295C615.254 551.407 615.439 551.462 615.671 551.462C615.884 551.462 616.078 551.407 616.254 551.295C616.44 551.175 616.574 550.989 616.657 550.739L617.06 551.671C616.94 552.237 616.685 552.659 616.296 552.937C615.907 553.216 615.384 553.355 614.726 553.355Z" fill="white"/>
<path d="M602.359 553.217L602.484 550.671C602.54 550.68 602.595 550.689 602.651 550.699C602.706 550.699 602.757 550.699 602.803 550.699C603.007 550.699 603.169 550.661 603.289 550.587C603.409 550.504 603.502 550.388 603.567 550.239C603.641 550.082 603.692 549.896 603.719 549.683C603.747 549.46 603.766 549.205 603.775 548.918L603.886 545.606H611.13V553.217H607.994V547.401L608.674 548.055H605.954L606.592 547.359L606.523 549.043C606.495 549.729 606.435 550.346 606.342 550.893C606.25 551.431 606.102 551.89 605.898 552.271C605.704 552.642 605.436 552.929 605.093 553.133C604.76 553.328 604.335 553.425 603.817 553.425C603.613 553.425 603.386 553.407 603.137 553.37C602.896 553.333 602.637 553.282 602.359 553.217Z" fill="white"/>
<path d="M627.423 542.809L626.208 544.023L625.382 544.844L624.555 544.023L623.34 542.809C622.853 542.324 622.853 541.553 623.34 541.069C623.82 540.585 624.605 540.585 625.092 541.069L625.382 541.356L625.671 541.069C626.158 540.585 626.944 540.585 627.423 541.069C627.911 541.553 627.911 542.324 627.423 542.809Z" fill="#52FF00"/>
<path fill-rule="evenodd" clip-rule="evenodd" d="M659.741 608.598L659.912 608.771L664.256 604.38L670.642 597.882C673.205 595.291 673.205 591.164 670.642 588.573C668.123 585.982 663.996 585.982 661.433 588.573L659.912 590.11L658.392 588.573C656.075 586.231 652.481 586.006 649.951 587.898L649.785 587.731L593.656 643.929L609.054 659.346L659.741 608.598Z" fill="url(#paint14_radial_1501_5442)"/>
<path d="M649.47 597.491L655.655 603.821L659.862 608.099L664.07 603.821L670.255 597.491C672.738 594.967 672.738 590.947 670.255 588.423C667.815 585.899 663.818 585.899 661.335 588.423L659.862 589.92L658.39 588.423C655.907 585.899 651.91 585.899 649.47 588.423C646.987 590.947 646.987 594.967 649.47 597.491Z" fill="url(#paint15_radial_1501_5442)"/>
<rect x="328.652" y="643.124" width="340" height="57.881" fill="#0D020D"/>
<rect x="328.652" y="643.124" width="340" height="57.881" fill="url(#paint16_linear_1501_5442)" fill-opacity="0.5"/>
<ellipse cx="498.652" cy="643.933" rx="170" ry="15.381" fill="#0D020D"/>
<ellipse cx="498.652" cy="643.933" rx="170" ry="15.381" fill="url(#paint17_radial_1501_5442)"/>
<ellipse cx="498.652" cy="643.933" rx="170" ry="15.381" fill="white" fill-opacity="0.2"/>
<ellipse cx="498.652" cy="643.527" rx="170" ry="15.381" fill="#0D020D"/>
<ellipse cx="498.652" cy="643.527" rx="170" ry="15.381" fill="url(#paint18_radial_1501_5442)"/>
<path d="M356.431 482.609L356.847 488.076L362.313 488.492L356.847 488.908L356.431 494.374L356.015 488.908L350.549 488.492L356.015 488.076L356.431 482.609Z" fill="url(#paint19_radial_1501_5442)"/>
<path d="M356.431 482.609L356.847 488.076L362.313 488.492L356.847 488.908L356.431 494.374L356.015 488.908L350.549 488.492L356.015 488.076L356.431 482.609Z" fill="url(#paint20_radial_1501_5442)"/>
<path d="M400.55 388.491L401.312 398.513L411.334 399.275L401.312 400.038L400.55 410.06L399.787 400.038L389.766 399.275L399.787 398.513L400.55 388.491Z" fill="url(#paint21_radial_1501_5442)"/>
<path d="M400.55 388.491L401.312 398.513L411.334 399.275L401.312 400.038L400.55 410.06L399.787 400.038L389.766 399.275L399.787 398.513L400.55 388.491Z" fill="url(#paint22_radial_1501_5442)"/>
<path d="M400.55 388.491L401.312 398.513L411.334 399.275L401.312 400.038L400.55 410.06L399.787 400.038L389.766 399.275L399.787 398.513L400.55 388.491Z" fill="url(#paint23_radial_1501_5442)"/>
<path opacity="0.1" d="M671.564 438.991L671.562 438.993L662.41 448.199L662.408 448.201L656.92 453.683L651.433 448.201L651.431 448.199L642.279 438.993L642.277 438.991C639.01 435.728 639.01 430.541 642.277 427.278L642.277 427.278L642.283 427.271C645.482 424.019 650.733 424.01 654.003 427.278L654.741 426.539L654.003 427.278L656.183 429.455L656.92 430.192L657.658 429.455L659.837 427.278C663.108 424.01 668.359 424.019 671.558 427.271L671.558 427.271L671.564 427.278C674.83 430.541 674.83 435.728 671.564 438.991Z" stroke="white" stroke-width="2.08718"/>
<path opacity="0.1" d="M361.891 456.612L361.889 456.614L354.545 464.001L354.543 464.003L350.139 468.403L345.736 464.003L345.734 464.001L338.389 456.614L338.387 456.612C335.766 453.993 335.766 449.831 338.387 447.212L338.387 447.212L338.392 447.207C340.96 444.597 345.174 444.59 347.798 447.212L349.547 448.959L350.139 449.551L350.731 448.959L352.48 447.212C355.105 444.59 359.318 444.597 361.886 447.207L361.886 447.207L361.891 447.212C364.512 449.831 364.512 453.993 361.891 456.612Z" stroke="white" stroke-width="1.67498"/>
<path d="M305.453 441.433L305.73 444.166L309.374 444.374L305.73 444.582L305.453 447.315L305.176 444.582L301.531 444.374L305.176 444.166L305.453 441.433Z" fill="white"/>
<path fill-rule="evenodd" clip-rule="evenodd" d="M414.345 583.021L408.872 577.504C406.202 574.831 406.202 570.572 408.872 567.899C411.496 565.226 415.795 565.226 418.465 567.899L420.048 569.485L421.632 567.899C424.005 565.524 427.663 565.259 430.291 567.106L430.418 566.978L458.526 595.034L442.358 611.172L414.25 583.116L414.345 583.021Z" fill="url(#paint24_linear_1501_5442)" fill-opacity="0.25"/>
<g filter="url(#filter0_f_1501_5442)">
<path d="M430.298 576.577L430.295 576.581L423.646 583.282L423.643 583.285L420.048 586.884L416.454 583.285L416.451 583.282L409.802 576.581L409.802 576.581L409.799 576.577C407.64 574.416 407.64 570.987 409.799 568.825L409.799 568.825L409.807 568.817C411.913 566.672 415.375 566.66 417.538 568.825L419.121 570.411L420.048 571.339L420.976 570.411L422.559 568.825L421.632 567.899L422.559 568.825C424.722 566.66 428.184 566.672 430.29 568.817L430.29 568.817L430.298 568.825C432.457 570.987 432.457 574.416 430.298 576.577Z" stroke="#00FFE1" stroke-width="2.62106"/>
</g>
<path d="M430.672 576.95L430.67 576.952L424.02 583.655L424.018 583.657L420.048 587.631L416.079 583.657L416.077 583.655L409.427 576.952L409.425 576.95C407.061 574.583 407.061 570.82 409.425 568.452L409.425 568.452L409.43 568.448C411.745 566.09 415.544 566.083 417.911 568.452L419.495 570.038L420.048 570.592L420.602 570.038L422.186 568.452C424.553 566.083 428.352 566.09 430.667 568.448L430.667 568.448L430.672 568.452C433.036 570.82 433.036 574.583 430.672 576.95Z" stroke="#00FFE1" stroke-width="1.56539"/>
<g filter="url(#filter1_f_1501_5442)">
<path d="M430.93 577.209L430.929 577.21L424.278 583.913L424.277 583.914L420.048 588.148L415.82 583.914L415.819 583.913L409.168 577.21L409.167 577.209C406.66 574.699 406.66 570.704 409.167 568.194L409.167 568.194L409.169 568.192C411.629 565.687 415.661 565.683 418.169 568.194L419.753 569.78L420.048 570.075L420.344 569.78L421.927 568.194C424.436 565.683 428.468 565.687 430.927 568.192L430.927 568.192L430.93 568.194C433.437 570.704 433.437 574.699 430.93 577.209Z" stroke="#96FFC0" stroke-width="0.834873"/>
</g>
<path fill-rule="evenodd" clip-rule="evenodd" d="M570.39 599.555L570.468 599.634L576.321 593.71L584.924 584.942C588.377 581.446 588.377 575.878 584.924 572.382C581.53 568.887 575.97 568.887 572.517 572.382L570.468 574.456L568.42 572.382C565.041 568.962 559.644 568.888 556.234 572.163L556.124 572.053L504.752 623.564L525.599 644.468L570.39 599.555Z" fill="url(#paint25_radial_1501_5442)"/>
<path d="M480.047 502.858L345.725 368.787L374.784 347.642L504.787 478.144L480.047 502.858Z" fill="url(#paint26_linear_1501_5442)"/>
<path d="M356.989 334.567L352.728 347.681L338.939 347.681L350.094 355.786L345.834 368.899L356.989 360.795L368.144 368.899L363.883 355.786L375.038 347.681L361.249 347.681L356.989 334.567Z" fill="url(#paint27_radial_1501_5442)"/>
<path d="M545.673 476.016L656.086 362.299L632.042 344.201L525.181 454.893L545.673 476.016Z" fill="url(#paint28_linear_1501_5442)"/>
<path d="M646.759 333.373L650.27 344.422H661.633L652.44 351.251L655.951 362.301L646.759 355.472L637.566 362.301L641.077 351.251L631.885 344.422H643.247L646.759 333.373Z" fill="url(#paint29_radial_1501_5442)"/>
<g filter="url(#filter2_f_1501_5442)">
<ellipse cx="494.947" cy="707.283" rx="232.449" ry="17.0789" fill="#0647C7"/>
</g>
<g filter="url(#filter3_f_1501_5442)">
<ellipse cx="517.682" cy="719.449" rx="232.449" ry="17.0789" fill="#0647C7"/>
</g>
<g filter="url(#filter4_f_1501_5442)">
<ellipse cx="523.965" cy="707.751" rx="232.449" ry="17.0789" fill="#0647C7"/>
</g>
<g filter="url(#filter5_f_1501_5442)">
<ellipse cx="544.605" cy="696.521" rx="232.449" ry="17.0789" fill="#0647C7"/>
</g>
<g filter="url(#filter6_f_1501_5442)">
<ellipse cx="386.65" cy="724.129" rx="232.449" ry="17.0789" fill="#0647C7"/>
</g>
<g filter="url(#filter7_f_1501_5442)">
<ellipse cx="342.672" cy="702.604" rx="232.449" ry="17.0789" fill="#0647C7"/>
</g>
<g filter="url(#filter8_dddddd_1501_5442)">
<path d="M568.02 538.515C568.288 538.492 568.52 538.406 568.718 538.262C569.627 537.605 569.477 535.874 568.381 534.403C567.654 533.428 566.702 532.788 565.822 532.688L565.293 532.627L570.334 524.86C570.377 524.791 570.373 524.705 570.321 524.644C570.214 524.514 567.64 521.488 564.479 521.762C564.138 521.792 563.796 521.862 563.466 521.965C563.417 521.981 563.379 522.013 563.358 522.056C563.337 522.099 563.333 522.149 563.346 522.197C563.375 522.276 563.454 522.331 563.541 522.323C563.875 522.221 564.185 522.161 564.494 522.134C566.888 521.927 568.979 523.78 569.768 524.585L569.952 524.77L564.51 533.167C563.877 533.981 564.128 535.497 565.092 536.792C565.932 537.921 567.082 538.597 568.02 538.515ZM565.495 533.049C566.293 532.98 567.331 533.612 568.086 534.625C568.547 535.241 568.847 535.925 568.93 536.545C569.016 537.19 568.861 537.708 568.504 537.969C568.36 538.071 568.184 538.136 567.982 538.153C567.188 538.222 566.146 537.591 565.391 536.577C564.418 535.271 564.231 533.77 564.977 533.233C565.121 533.13 565.297 533.066 565.499 533.048L565.495 533.049Z" fill="#00FFBA"/>
</g>
<path d="M396.412 348.52C394.966 348.823 393.74 348.645 392.733 347.987C391.726 347.329 391.09 346.364 390.824 345.094C390.632 344.173 390.689 343.247 390.997 342.313C391.34 341.327 392.012 340.386 393.013 339.491C394.197 338.374 395.72 337.346 397.582 336.408C399.487 335.461 401.426 334.78 403.397 334.368C405.456 333.937 407.4 333.827 409.228 334.039C411.1 334.242 412.785 334.758 414.285 335.588C415.776 336.374 417.041 337.504 418.082 338.978C419.122 340.452 419.862 342.241 420.302 344.344C420.651 346.009 420.57 347.81 420.06 349.746C419.551 351.681 418.391 353.57 416.582 355.413C419.534 355.755 421.782 356.771 423.325 358.46C424.867 360.15 425.914 362.309 426.464 364.938C426.904 367.041 426.821 369.048 426.214 370.958C425.643 372.816 424.692 374.501 423.362 376.014C422.076 377.518 420.516 378.805 418.682 379.874C416.839 380.9 414.888 381.629 412.828 382.06C411.076 382.426 409.445 382.608 407.935 382.604C406.477 382.634 405.16 382.567 403.982 382.402C402.795 382.193 401.779 381.925 400.933 381.599C400.087 381.273 399.426 380.954 398.949 380.642C397.74 379.889 396.887 379.199 396.389 378.571C395.927 377.891 395.613 377.156 395.448 376.367C395.145 374.921 395.403 373.747 396.22 372.844C397.037 371.942 398.015 371.371 399.154 371.133C399.943 370.968 400.725 370.987 401.499 371.191C402.317 371.386 403.166 371.619 404.047 371.893C404.918 372.122 405.85 372.316 406.844 372.473C407.881 372.622 409.035 372.564 410.305 372.298C411.006 372.151 411.716 371.934 412.433 371.647C413.185 371.307 413.831 370.897 414.371 370.418C414.902 369.895 415.3 369.286 415.566 368.59C415.867 367.841 415.921 367.007 415.728 366.087C415.444 364.729 414.663 363.726 413.384 363.079C412.105 362.432 410.217 362.37 407.72 362.892C406.099 363.231 404.693 363.068 403.502 362.403C402.345 361.684 401.602 360.537 401.272 358.959C400.951 357.426 401.185 356.142 401.975 355.108C402.808 354.065 404.036 353.373 405.657 353.034C407.059 352.741 408.217 352.155 409.131 351.278C410.036 350.357 410.337 349.174 410.034 347.728C409.732 346.282 409.025 345.309 407.915 344.81C406.848 344.301 405.57 344.203 404.08 344.515C403.16 344.707 402.355 345.013 401.665 345.432C401.01 345.797 400.386 346.202 399.793 346.647C399.234 347.038 398.676 347.429 398.118 347.82C397.594 348.159 397.025 348.392 396.412 348.52Z" fill="url(#paint30_radial_1501_5442)"/>
<path d="M444.449 344.633C449.018 344.017 452.609 344.189 455.223 345.146C457.83 346.06 459.322 347.914 459.698 350.709C459.824 351.64 459.782 352.504 459.573 353.3C459.364 354.096 459.032 354.818 458.578 355.467C458.167 356.109 457.676 356.65 457.102 357.088C456.523 357.483 455.932 357.788 455.329 358.005C457.27 358.33 458.831 359.024 460.013 360.084C461.233 361.094 461.95 362.397 462.165 363.994C462.584 367.1 461.681 369.615 459.456 371.541C457.269 373.416 453.67 374.692 448.657 375.367C447.548 375.516 446.236 375.67 444.722 375.829C443.252 375.982 441.801 376.11 440.37 376.212C439.027 376.303 437.852 375.964 436.845 375.197C435.832 374.384 435.236 373.313 435.057 371.982L432.287 351.42C432.114 350.134 432.408 348.965 433.17 347.914C433.976 346.857 435.016 346.197 436.291 345.935C437.527 345.723 438.83 345.503 440.199 345.273C441.613 345.038 443.029 344.824 444.449 344.633ZM444.617 367.51C444.978 367.507 445.564 367.495 446.374 367.477C447.223 367.407 448.003 367.325 448.712 367.229C449.644 367.104 450.349 366.806 450.828 366.335C451.345 365.813 451.564 365.264 451.486 364.688C451.283 363.179 449.873 362.601 447.256 362.954L444.062 363.384L444.617 367.51ZM443.255 357.395L446.582 356.947C447.336 356.846 448.025 356.595 448.649 356.195C449.266 355.75 449.518 355.106 449.405 354.263C449.327 353.687 449.039 353.229 448.542 352.889C448.039 352.505 447.343 352.373 446.456 352.493C446.146 352.534 445.794 352.604 445.4 352.703C445.001 352.756 444.605 352.832 444.212 352.931C443.857 352.978 443.527 353.045 443.222 353.132C442.956 353.167 442.779 353.191 442.69 353.203L443.255 357.395Z" fill="url(#paint31_radial_1501_5442)"/>
<path d="M487.631 352.667C487.565 351.639 487.081 350.728 486.179 349.933C485.318 349.091 484.083 348.721 482.475 348.823C480.778 348.93 479.505 349.37 478.657 350.141C477.809 350.913 477.181 351.984 476.775 353.356L487.631 352.667ZM482.279 340.425C484.2 340.303 486.052 340.522 487.837 341.082C489.667 341.638 491.291 342.5 492.711 343.665C494.13 344.831 495.297 346.26 496.212 347.951C497.127 349.642 497.652 351.56 497.788 353.704L497.873 355.044C497.956 356.34 497.568 357.306 496.712 357.944C495.9 358.578 495.069 358.923 494.221 358.976L477.535 360.035C478.117 361.434 479.055 362.428 480.349 363.019C481.687 363.607 483.182 363.848 484.835 363.743C485.416 363.707 486.061 363.621 486.77 363.486C487.476 363.307 488.224 363.08 489.014 362.805C489.452 362.643 489.895 362.548 490.341 362.519C491.101 362.471 491.808 362.651 492.461 363.058C493.112 363.42 493.618 363.971 493.979 364.711C494.183 365.101 494.302 365.565 494.336 366.101C494.385 366.86 494.187 367.635 493.744 368.426C493.343 369.169 492.709 369.792 491.844 370.296C490.764 370.947 489.537 371.406 488.164 371.673C486.835 371.937 485.545 372.108 484.294 372.188C481.793 372.346 479.513 372.11 477.454 371.478C475.396 370.846 473.608 369.883 472.09 368.589C470.618 367.292 469.417 365.686 468.488 363.772C467.604 361.854 467.086 359.712 466.936 357.344C466.797 355.155 467.047 353.076 467.684 351.107C468.366 349.135 469.355 347.39 470.649 345.873C471.985 344.308 473.632 343.06 475.591 342.128C477.548 341.152 479.777 340.584 482.279 340.425ZM475.738 338.082C474.219 338.178 472.893 337.769 471.758 336.854C470.624 335.939 469.997 334.544 469.878 332.668C469.77 330.97 470.223 329.618 471.235 328.612C472.245 327.561 473.509 326.988 475.028 326.891C476.324 326.809 477.516 327.227 478.606 328.144C479.738 329.014 480.358 330.298 480.465 331.996C480.584 333.872 480.139 335.336 479.129 336.386C478.164 337.434 477.034 338 475.738 338.082ZM488.671 337.261C487.197 337.355 485.87 336.945 484.691 336.033C483.557 335.119 482.93 333.723 482.811 331.847C482.703 330.149 483.155 328.797 484.168 327.791C485.222 326.738 486.487 326.164 487.961 326.07C489.257 325.988 490.449 326.406 491.539 327.324C492.671 328.194 493.29 329.477 493.398 331.175C493.517 333.051 493.072 334.515 492.062 335.566C491.097 336.614 489.967 337.179 488.671 337.261Z" fill="url(#paint32_radial_1501_5442)"/>
<path d="M505.579 341.991C506.75 341.24 508.232 340.627 510.027 340.15C511.822 339.674 513.861 339.445 516.144 339.466C520.396 339.503 523.567 340.337 525.656 341.967C527.746 343.597 528.779 345.754 528.755 348.44C528.743 349.872 528.239 351.188 527.243 352.388C526.248 353.543 524.898 354.404 523.192 354.971C525.291 355.482 526.828 356.391 527.801 357.698C528.819 358.96 529.321 360.464 529.305 362.21C529.293 363.642 528.946 364.915 528.265 366.028C527.583 367.141 526.613 368.095 525.352 368.89C524.092 369.684 522.565 370.275 520.771 370.662C519.021 371.095 517.072 371.301 514.923 371.282C512.82 371.264 510.852 370.978 509.022 370.425C507.191 369.916 505.808 369.344 504.874 368.709C503.45 367.712 502.745 366.475 502.758 364.998C502.765 364.192 502.995 363.478 503.448 362.855C504.265 361.654 505.299 361.058 506.553 361.069C507.314 361.076 508.229 361.33 509.299 361.832C510.056 362.242 510.859 362.585 511.707 362.861C512.601 363.092 513.428 363.212 514.189 363.218C515.755 363.232 516.876 363.041 517.551 362.644C518.226 362.247 518.566 361.735 518.572 361.108C518.577 360.482 518.313 359.942 517.78 359.49C517.292 359.038 516.488 358.807 515.369 358.797L512.952 358.776C512.012 358.767 511.209 358.447 510.543 357.814C509.922 357.137 509.616 356.329 509.624 355.389C509.633 354.449 509.953 353.669 510.585 353.047C511.262 352.382 512.071 352.053 513.011 352.062L515.092 352.08C516.122 352.089 516.863 351.849 517.315 351.361C517.767 350.872 517.995 350.315 518.001 349.688C518.013 348.256 516.722 347.528 514.126 347.505C513.275 347.498 512.446 347.625 511.638 347.886C510.874 348.148 510.155 348.455 509.481 348.807C508.806 349.16 508.066 349.332 507.261 349.325C505.828 349.312 504.759 348.676 504.054 347.417C503.702 346.787 503.528 346.136 503.534 345.465C503.54 344.838 503.702 344.235 504.02 343.656C504.339 343.032 504.859 342.477 505.579 341.991Z" fill="url(#paint33_radial_1501_5442)"/>
<path d="M539.64 371.164L539.46 373.17C539.344 374.463 538.779 375.514 537.763 376.322C536.787 377.178 535.653 377.549 534.36 377.433C533.067 377.317 531.994 376.749 531.142 375.729C530.33 374.758 529.982 373.626 530.097 372.333L530.773 364.776C530.865 363.75 531.324 362.892 532.149 362.202C532.975 361.512 533.923 361.215 534.993 361.311C535.64 360.604 536.235 359.736 536.776 358.706C537.318 357.676 537.801 356.551 538.224 355.33C538.652 354.065 539.015 352.772 539.313 351.45C539.66 350.088 539.937 348.742 540.146 347.413L540.441 345.619C540.646 344.334 541.257 343.287 542.273 342.479C543.337 341.631 544.516 341.265 545.809 341.38L560.321 342.678C561.614 342.794 562.665 343.36 563.473 344.376C564.329 345.351 564.7 346.485 564.584 347.778L563.148 363.829C564.531 363.953 565.67 364.526 566.567 365.55C567.468 366.53 567.861 367.666 567.745 368.959L567.147 375.647C567.032 376.94 566.466 377.99 565.45 378.798C564.474 379.655 563.34 380.025 562.047 379.909C560.754 379.794 559.681 379.226 558.829 378.206C558.017 377.234 557.669 376.102 557.784 374.809L557.964 372.803L539.64 371.164ZM553.117 362.932L554.134 351.563L549.653 351.162L549.412 352.354C548.872 354.867 548.261 356.925 547.579 358.526C546.896 360.128 546.201 361.369 545.493 362.25L553.117 362.932Z" fill="url(#paint34_radial_1501_5442)"/>
<path d="M589.093 353.925C591.681 354.451 593.768 355.194 595.355 356.155C596.985 357.126 598.202 358.218 599.006 359.432C599.854 360.654 600.368 361.946 600.549 363.307C600.729 364.669 600.686 366.007 600.419 367.323C600.125 368.771 599.568 370.165 598.747 371.506C597.971 372.856 596.897 373.985 595.525 374.894C594.196 375.812 592.54 376.435 590.555 376.763C588.614 377.1 586.349 377.005 583.761 376.48L576.128 374.93C574.856 374.672 573.848 374.011 573.105 372.947C572.414 371.847 572.198 370.661 572.457 369.389L576.664 348.662C576.923 347.389 577.601 346.408 578.701 345.718C579.853 344.992 581.131 344.772 582.534 345.057C583.938 345.342 585.007 346.039 585.741 347.147C586.528 348.22 586.793 349.393 586.535 350.665L586 353.297L589.093 353.925ZM605.946 354.606C606.205 353.333 606.883 352.352 607.983 351.662C609.135 350.937 610.413 350.716 611.816 351.001C613.22 351.286 614.289 351.983 615.023 353.091C615.81 354.164 616.075 355.337 615.817 356.609L611.475 377.995C611.217 379.267 610.512 380.266 609.36 380.991C608.261 381.682 607.009 381.884 605.605 381.599C604.201 381.314 603.106 380.635 602.319 379.562C601.585 378.454 601.347 377.264 601.605 375.991L605.946 354.606ZM583.128 367.445L585.3 367.886C586.616 368.153 587.635 368.085 588.356 367.684C589.129 367.247 589.614 366.546 589.81 365.581C590.006 364.616 589.855 363.786 589.356 363.091C588.902 362.405 587.995 361.924 586.635 361.648L584.397 361.194L583.128 367.445Z" fill="url(#paint35_radial_1501_5442)"/>
<path d="M362.114 406.502C362.404 406.376 362.759 406.231 363.178 406.069C363.629 405.851 364.092 405.677 364.566 405.546C365.029 405.372 365.497 405.219 365.972 405.088C366.435 404.913 366.839 404.778 367.184 404.683C369.384 404.075 371.458 403.85 373.406 404.008C375.397 404.154 377.213 404.674 378.853 405.567C380.481 406.417 381.879 407.61 383.046 409.145C384.257 410.668 385.155 412.486 385.739 414.6C387.051 419.346 386.567 423.474 384.286 426.984C382.005 430.494 378.018 433.036 372.322 434.611C369.259 435.457 366.653 436.108 364.503 436.563C363.11 436.902 361.808 436.728 360.597 436.041C359.416 435.299 358.635 434.238 358.254 432.857L348.431 397.328C348.062 395.99 348.22 394.716 348.907 393.504C349.594 392.293 350.606 391.502 351.943 391.132L369.546 386.266C370.884 385.896 372.158 386.055 373.37 386.741C374.581 387.428 375.372 388.44 375.742 389.778C376.112 391.115 375.953 392.39 375.266 393.601C374.58 394.813 373.567 395.604 372.23 395.973L360.128 399.319L362.114 406.502ZM367.284 425.206C368.171 425.053 368.907 424.943 369.492 424.874C370.064 424.762 370.653 424.623 371.257 424.456C373.414 423.859 374.756 423.001 375.282 421.88C375.839 420.704 375.945 419.491 375.599 418.24C375.229 416.902 374.519 415.845 373.468 415.067C372.405 414.246 370.924 414.098 369.026 414.623C367.689 414.993 366.279 415.522 364.797 416.21L367.284 425.206Z" fill="url(#paint36_radial_1501_5442)"/>
<path d="M404.905 409.617C405.308 410.268 405.64 410.91 405.902 411.542C406.208 412.166 406.518 412.812 406.832 413.48C406.79 412.804 406.748 412.128 406.705 411.452C406.654 410.732 406.665 409.977 406.737 409.187L407.735 398.312C407.834 397.198 408.236 396.229 408.94 395.405C409.688 394.573 410.611 394.048 411.709 393.831C413.378 393.501 414.773 393.75 415.895 394.578C417.008 395.362 417.695 396.412 417.955 397.73C418.094 398.432 418.097 399.139 417.964 399.85L413.55 424.609C413.025 427.496 412.467 429.865 411.875 431.716C411.291 433.611 410.611 435.137 409.836 436.294C409.114 437.486 408.282 438.358 407.342 438.909C406.454 439.495 405.439 439.901 404.297 440.127C403.551 440.274 402.831 440.325 402.137 440.28C401.444 440.234 400.786 440.136 400.163 439.986C399.347 439.782 398.65 439.372 398.072 438.756C397.538 438.132 397.192 437.424 397.036 436.634C396.923 436.063 396.907 435.519 396.987 435.001C397.218 433.632 397.765 432.703 398.626 432.213C399.488 431.723 400.467 431.37 401.565 431.153C402.268 431.014 402.795 430.682 403.148 430.156C403.544 429.621 403.822 428.95 403.982 428.143L404.328 426.432L389.797 405.897C389.359 405.299 389.058 404.583 388.893 403.748C388.615 402.343 388.881 401.036 389.692 399.826C390.537 398.564 391.773 397.772 393.397 397.451C394.671 397.199 395.768 397.324 396.688 397.827C397.644 398.277 398.398 398.972 398.949 399.912L404.905 409.617Z" fill="url(#paint37_radial_1501_5442)"/>
<path d="M434.676 421.007L434.924 423.006C435.084 424.294 434.752 425.44 433.93 426.444C433.157 427.487 432.127 428.089 430.838 428.249C429.55 428.409 428.382 428.08 427.333 427.263C426.334 426.485 425.755 425.452 425.595 424.163L424.66 416.634C424.534 415.612 424.801 414.677 425.462 413.828C426.124 412.979 426.988 412.489 428.054 412.356C428.537 411.529 428.935 410.555 429.247 409.434C429.559 408.313 429.793 407.111 429.95 405.828C430.101 404.502 430.182 403.161 430.195 401.806C430.246 400.401 430.233 399.027 430.157 397.684L430.067 395.868C429.996 394.569 430.371 393.417 431.194 392.413C432.055 391.359 433.13 390.752 434.418 390.592L448.878 388.797C450.166 388.637 451.312 388.968 452.316 389.791C453.36 390.563 453.961 391.594 454.121 392.882L456.106 408.874C457.483 408.703 458.718 409.023 459.811 409.835C460.899 410.602 461.523 411.63 461.683 412.918L462.51 419.581C462.67 420.869 462.338 422.016 461.516 423.02C460.743 424.063 459.713 424.665 458.424 424.825C457.136 424.984 455.968 424.656 454.919 423.839C453.92 423.061 453.341 422.027 453.181 420.739L452.933 418.74L434.676 421.007ZM446.111 410.115L444.705 398.787L440.241 399.341L440.256 400.557C440.26 403.128 440.097 405.268 439.768 406.978C439.439 408.688 439.021 410.048 438.515 411.058L446.111 410.115Z" fill="url(#paint38_radial_1501_5442)"/>
<path d="M477.657 400.415C477.961 401.117 478.196 401.8 478.364 402.464C478.576 403.126 478.79 403.81 479.004 404.516C479.06 403.841 479.116 403.166 479.172 402.491C479.226 401.771 479.345 401.026 479.531 400.255L482.093 389.639C482.352 388.55 482.89 387.65 483.706 386.936C484.567 386.221 485.556 385.836 486.673 385.78C488.372 385.695 489.717 386.143 490.707 387.124C491.695 388.061 492.223 389.2 492.29 390.541C492.325 391.257 492.226 391.956 491.991 392.64L484.04 416.5C483.103 419.281 482.208 421.544 481.354 423.29C480.502 425.08 479.609 426.492 478.675 427.525C477.788 428.6 476.839 429.342 475.828 429.751C474.865 430.203 473.802 430.457 472.639 430.515C471.879 430.553 471.16 430.5 470.48 430.354C469.801 430.209 469.163 430.017 468.569 429.778C467.791 429.458 467.161 428.952 466.678 428.259C466.24 427.563 466.001 426.813 465.96 426.009C465.931 425.427 465.994 424.887 466.148 424.386C466.575 423.065 467.25 422.224 468.174 421.864C469.097 421.505 470.117 421.297 471.235 421.241C471.95 421.205 472.52 420.953 472.945 420.483C473.414 420.011 473.787 419.388 474.062 418.612L474.652 416.969L463.245 394.547C462.899 393.892 462.705 393.14 462.662 392.291C462.591 390.86 463.043 389.605 464.02 388.525C465.04 387.399 466.376 386.794 468.031 386.711C469.327 386.647 470.394 386.929 471.233 387.56C472.113 388.143 472.758 388.94 473.167 389.95L477.657 400.415Z" fill="url(#paint39_radial_1501_5442)"/>
<path d="M545.401 419.64C545.345 420.937 544.828 422.012 543.85 422.866C542.915 423.766 541.798 424.188 540.502 424.131C539.205 424.075 538.107 423.557 537.209 422.577C536.353 421.644 535.954 420.528 536.01 419.232L536.098 417.219L502.893 415.775C501.596 415.719 500.497 415.223 499.597 414.288C498.743 413.31 498.345 412.172 498.401 410.876L499.32 389.745C499.376 388.448 499.893 387.373 500.871 386.519C501.896 385.623 503.124 385.206 504.555 385.268C505.986 385.33 507.151 385.851 508.049 386.831C508.994 387.769 509.438 388.886 509.382 390.183L508.667 406.617L514.705 406.88L515.419 390.445C515.476 389.148 515.993 388.073 516.971 387.219C517.996 386.323 519.223 385.906 520.654 385.968C522.086 386.03 523.25 386.551 524.149 387.531C525.093 388.469 525.538 389.586 525.481 390.883L524.767 407.317L530.804 407.58L531.519 391.145C531.575 389.848 532.092 388.773 533.07 387.919C534.095 387.023 535.323 386.606 536.754 386.668C538.185 386.73 539.372 387.252 540.315 388.234C541.26 389.172 541.704 390.289 541.648 391.585L540.933 408.02C542.32 408.081 543.462 408.601 544.36 409.581C545.305 410.518 545.749 411.635 545.693 412.932L545.401 419.64Z" fill="url(#paint40_radial_1501_5442)"/>
<path d="M568.697 402.764C568.846 401.745 568.562 400.754 567.844 399.789C567.176 398.786 566.045 398.168 564.451 397.935C562.768 397.688 561.431 397.854 560.442 398.433C559.452 399.012 558.616 399.93 557.935 401.188L568.697 402.764ZM565.999 389.679C567.903 389.958 569.671 390.556 571.301 391.473C572.975 392.397 574.386 393.576 575.533 395.011C576.68 396.446 577.526 398.085 578.07 399.929C578.614 401.773 578.731 403.758 578.419 405.884L578.225 407.213C578.037 408.497 577.457 409.363 576.487 409.809C575.561 410.261 574.678 410.426 573.836 410.303L557.294 407.88C557.573 409.369 558.285 410.536 559.427 411.382C560.615 412.234 562.028 412.781 563.666 413.021C564.242 413.105 564.891 413.155 565.612 413.17C566.34 413.141 567.119 413.074 567.949 412.969C568.411 412.901 568.864 412.9 569.307 412.964C570.06 413.075 570.714 413.397 571.269 413.93C571.831 414.42 572.212 415.064 572.411 415.862C572.53 416.287 572.551 416.765 572.473 417.296C572.362 418.049 572.009 418.766 571.411 419.448C570.864 420.092 570.116 420.57 569.165 420.883C567.974 421.297 566.678 421.492 565.279 421.468C563.925 421.45 562.627 421.351 561.387 421.169C558.907 420.806 556.725 420.102 554.843 419.057C552.96 418.012 551.41 416.7 550.194 415.119C549.022 413.545 548.18 411.725 547.668 409.66C547.201 407.601 547.139 405.397 547.483 403.05C547.801 400.88 548.475 398.898 549.507 397.103C550.583 395.316 551.912 393.814 553.492 392.597C555.124 391.343 556.994 390.464 559.104 389.958C561.22 389.409 563.519 389.316 565.999 389.679Z" fill="url(#paint41_radial_1501_5442)"/>
<path d="M594.329 405.345L590.587 421.708C590.297 422.974 589.568 423.955 588.398 424.652C587.282 425.315 586.026 425.487 584.63 425.167C583.233 424.848 582.155 424.142 581.395 423.05C580.688 421.924 580.479 420.728 580.769 419.463L585.559 398.517C585.848 397.252 586.529 396.283 587.602 395.609C588.728 394.903 589.923 394.694 591.189 394.983L602.97 397.678C604.236 397.967 605.2 398.67 605.863 399.786C606.58 400.868 606.794 402.042 606.504 403.308C606.215 404.573 605.507 405.559 604.381 406.266C603.309 406.939 602.14 407.131 600.875 406.842L594.329 405.345Z" fill="url(#paint42_radial_1501_5442)"/>
<path d="M617.697 434.136C615.228 433.333 613.139 432.23 611.43 430.827C609.721 429.424 608.385 427.813 607.424 425.994C606.504 424.189 605.959 422.247 605.788 420.167C605.66 418.101 605.948 415.983 606.654 413.812C607.36 411.641 608.373 409.758 609.692 408.163C611.053 406.582 612.636 405.331 614.442 404.412C616.289 403.507 618.317 402.989 620.524 402.86C622.731 402.73 625.07 403.067 627.539 403.87C630.008 404.673 632.097 405.775 633.806 407.178C635.515 408.581 636.829 410.185 637.748 411.991C638.71 413.81 639.255 415.752 639.383 417.818C639.554 419.897 639.287 422.023 638.581 424.194C637.875 426.365 636.841 428.241 635.48 429.822C634.161 431.417 632.578 432.668 630.73 433.573C628.925 434.492 626.919 435.017 624.711 435.146C622.504 435.276 620.166 434.939 617.697 434.136ZM624.632 412.809C623.099 412.311 621.578 412.428 620.069 413.161C618.574 413.852 617.508 415.176 616.871 417.134C616.276 418.965 616.345 420.635 617.078 422.144C617.811 423.653 618.986 424.671 620.604 425.197C622.221 425.723 623.756 425.634 625.209 424.929C626.676 424.182 627.728 422.83 628.364 420.872C628.974 418.999 628.905 417.329 628.158 415.862C627.425 414.353 626.249 413.335 624.632 412.809Z" fill="url(#paint43_radial_1501_5442)"/>
<path d="M595.527 489.032C595.137 485.915 591.88 483.688 588.038 485.469C585.533 486.638 585.283 488.253 585.283 488.253C585.283 488.253 586.118 482.129 586.062 478.371C585.978 475.058 585.505 472.497 582.081 471.551C579.325 470.771 576.403 472.191 575.345 476.06C574.51 479.094 574.092 483.103 574.092 483.103C571.587 475.67 569.582 474.056 565.184 474.501C563.069 474.724 560.34 477.146 561.009 479.985C562.066 484.606 564.989 492.289 564.989 492.289C564.989 492.289 562.066 491.872 560.452 492.762C556.415 494.934 555.441 499.443 560.201 505.261C558.865 532.876 527.465 509.799 527.465 509.799L536.679 540.698C561.482 559.321 585.227 552.028 592.632 509.298C592.604 509.27 596.139 494.154 595.527 489.032Z" fill="url(#paint44_linear_1501_5442)"/>
<path d="M586.476 499.388C583.665 498.163 583.108 495.38 583.414 492.902C580.464 492.039 576.594 492.457 575.676 495.296C575.676 495.296 571.723 491.872 568.633 494.127C571.222 495.853 573.95 499.221 571.806 502.84C570.971 504.287 569.83 505.15 568.633 505.624C571.778 508.352 576.706 509.632 578.905 509.549C583.665 509.354 589.204 504.983 588.87 499.861C588.174 499.889 587.367 499.778 586.476 499.388Z" fill="#66B1FF"/>
<path d="M501.672 624.241C501.138 628.188 500.784 631.341 500.57 633.451C500.518 633.945 500.475 634.381 500.44 634.754L499.728 640.372C504.61 644.572 533.159 635.522 534.947 635.288C546.653 628.194 541.243 581.786 541.243 581.786C526.342 559.362 496.672 608.755 496.672 608.755C503.983 610.029 502.218 620.21 501.675 624.241H501.672Z" fill="#66B1FF"/>
<path d="M458.519 634.914C464.9 639.322 494.011 640.866 493.981 640.554L493.403 634.758C493.367 634.384 493.325 633.948 493.273 633.454C493.055 631.341 492.701 628.188 492.171 624.241C491.628 620.21 489.859 610.029 497.174 608.755C497.174 608.755 467.504 559.362 452.602 581.786C452.602 581.786 447.837 628.718 458.522 634.91L458.519 634.914Z" fill="#66B1FF"/>
<path d="M520.911 506.623C533.874 493.66 533.874 472.643 520.911 459.68C507.948 446.717 486.931 446.717 473.968 459.68C461.005 472.643 461.005 493.66 473.968 506.623C486.931 519.586 507.948 519.586 520.911 506.623Z" fill="#66B1FF"/>
<path d="M529.01 511.28C528.145 508.676 527.287 506.134 528.447 503.65C530.219 499.86 534.89 494.577 533.843 488.131C532.608 480.534 528.158 467.476 528.158 467.476C533.184 463.393 532.676 460.993 532.676 460.993C529.848 452.593 522.833 450.376 520.733 450.861C518.633 451.345 516.553 454.524 516.553 454.524C507.476 449.596 500.845 449.957 497.438 449.957C484.916 449.957 477.004 454.547 477.004 454.547C475.053 450.809 473.571 450.809 473.571 450.809C469.907 450.809 462.762 455.132 461.761 459.982C461.143 462.963 466.468 466.998 466.468 466.998C464.833 473.623 459.336 483.889 459.895 489.399C460.509 495.458 464.43 501.063 466.559 504.226C467.758 506.01 466.192 508.244 465.519 510.285C447.015 566.553 451.541 600.431 451.541 600.431C451.541 600.431 471.903 608.751 496.668 608.754C524.943 608.758 542.436 599.361 542.436 599.361C542.436 599.361 546.775 564.739 529.006 511.28H529.01Z" fill="#66B1FF"/>
<path d="M523.697 535.28C511.63 522.749 498.387 533.798 497.317 534.728C496.248 533.798 483.007 522.752 470.937 535.28C457.544 549.187 469.747 577.424 473.908 584.071C478.069 590.719 486.307 601.512 497.438 601.84C508.568 601.512 516.562 590.719 520.723 584.071C524.884 577.424 537.087 549.187 523.694 535.28H523.697Z" fill="white"/>
<path d="M515.903 484.256C514.616 479.679 497.439 479.634 497.439 479.738C497.439 479.637 480.739 479.468 478.974 484.256C477.898 487.172 478.217 493.011 479.585 496.677C481.097 500.731 490.989 509.027 497.439 508.998C503.654 509.027 513.78 500.731 515.292 496.677C516.657 493.014 516.745 487.25 515.903 484.256Z" fill="white"/>
<path d="M491.575 473.707C492.029 470.9 490.12 468.256 487.313 467.803C484.505 467.35 481.862 469.258 481.408 472.066C480.955 474.873 482.864 477.517 485.671 477.97C488.479 478.423 491.122 476.515 491.575 473.707Z" fill="white"/>
<path d="M513.433 473.517C513.779 470.695 511.771 468.126 508.948 467.78C506.126 467.434 503.557 469.441 503.211 472.264C502.865 475.087 504.872 477.656 507.695 478.002C510.518 478.348 513.086 476.34 513.433 473.517Z" fill="white"/>
<path d="M480.2 462.954C480.967 462.03 483.733 459.414 489.819 460.057C491.08 460.191 492.608 462.128 490.957 463.724C489.516 465.115 482.257 466.487 481.006 466.178C479.725 465.863 479.159 464.205 480.196 462.954H480.2Z" fill="#0073E4"/>
<path d="M514.678 462.954C513.911 462.03 511.144 459.414 505.059 460.057C503.798 460.191 502.27 462.128 503.921 463.724C505.361 465.115 512.62 466.487 513.872 466.178C515.153 465.863 515.718 464.205 514.681 462.954H514.678Z" fill="#0073E4"/>
<path d="M489.422 472.895C489.422 474.497 488.125 475.795 486.523 475.795C484.92 475.795 483.623 474.497 483.623 472.895C483.623 471.292 484.92 469.995 486.523 469.995C488.125 469.995 489.422 471.292 489.422 472.895Z" fill="#333333"/>
<path d="M511.194 472.963C511.194 474.565 509.897 475.862 508.294 475.862C506.692 475.862 505.395 474.565 505.395 472.963C505.395 471.36 506.692 470.063 508.294 470.063C509.897 470.063 511.194 471.36 511.194 472.963Z" fill="#333333"/>
<path d="M497.437 481.916C497.437 481.916 486.534 481.916 486.947 485.335C487.36 488.755 494.167 494.242 497.437 494.242C501.92 494.242 507.515 488.758 507.928 485.335C508.34 481.916 497.437 481.916 497.437 481.916Z" fill="#0073E4"/>
<path d="M481.623 489.672C482.468 491.652 483.834 493.504 485.306 495.055C488.313 498.221 492.409 500.139 496.824 499.866C500.491 499.642 503.94 498.124 507.015 496.19C507.63 495.803 507.064 494.828 506.446 495.214C501.892 498.078 496.262 499.996 491.038 497.776C487.891 496.437 485.394 493.878 483.645 491.047C483.262 490.423 482.885 489.776 482.599 489.103C482.312 488.437 481.34 489.012 481.623 489.672Z" fill="#0073E4"/>
<path d="M457.381 633.311C456.091 633.61 450.922 635.557 451.286 643.261C451.286 643.261 452.583 647.023 459.848 648.97C465.7 650.54 477.227 650.039 484.951 645.407C484.951 645.407 493.614 643.99 493.982 640.547L457.381 633.308V633.311Z" fill="#66B1FF"/>
<path d="M458.402 633.802C458.552 633.747 458.721 633.727 458.88 633.704C458.955 633.691 459.027 633.682 459.101 633.672C458.991 633.688 459.16 633.665 459.251 633.656C459.449 633.633 459.651 633.613 459.849 633.597C461.003 633.503 462.167 633.506 463.321 633.587C466.637 633.828 469.926 634.806 472.696 636.676C474.666 638.005 476.291 639.774 477.53 641.796C477.91 642.413 478.885 641.848 478.505 641.227C476.291 637.625 472.959 634.962 468.967 633.584C466.178 632.622 463.148 632.258 460.21 632.443C459.54 632.485 458.747 632.485 458.107 632.716C457.427 632.96 457.72 634.052 458.406 633.805L458.402 633.802Z" fill="#0F8AEF"/>
<path d="M468.349 635.014C468.398 634.823 468.369 634.962 468.313 635.073C468.235 635.232 468.161 635.388 468.086 635.548C467.829 636.107 467.595 636.679 467.387 637.257C466.694 639.162 466.256 641.149 466.022 643.161C465.839 644.715 465.804 646.282 465.892 647.845C465.931 648.567 467.062 648.573 467.02 647.845C466.847 644.796 467.172 641.737 468.06 638.811C468.313 637.976 468.622 637.108 468.96 636.347C469.107 636.016 469.347 635.665 469.438 635.314C469.62 634.608 468.531 634.309 468.349 635.014Z" fill="#0F8AEF"/>
<path d="M462.549 632.599C458.238 634.381 454.773 637.94 453.655 642.533C453.541 643.002 453.421 643.509 453.424 643.996C453.424 644.721 454.555 644.725 454.552 643.996C454.552 643.948 454.552 643.902 454.558 643.853C454.562 643.808 454.588 643.596 454.575 643.681C454.565 643.749 454.601 643.509 454.614 643.447C454.636 643.32 454.662 643.197 454.688 643.073C454.838 642.394 455.053 641.724 455.313 641.08C456.08 639.192 457.305 637.495 458.833 636.152C460.017 635.112 461.395 634.29 462.848 633.688C463.511 633.415 463.219 632.323 462.549 632.599Z" fill="#0F8AEF"/>
<path d="M536.367 633.31C537.657 633.609 542.826 635.557 542.462 643.261C542.462 643.261 541.165 647.022 533.899 648.969C528.048 650.54 516.521 650.039 508.797 645.407C508.797 645.407 500.556 643.989 499.721 640.371L536.363 633.307L536.367 633.31Z" fill="#66B1FF"/>
<path d="M535.647 632.712C535.11 632.52 534.463 632.51 533.901 632.465C532.692 632.367 531.473 632.374 530.263 632.468C526.733 632.748 523.222 633.794 520.296 635.826C518.245 637.25 516.551 639.096 515.245 641.219C514.864 641.84 515.84 642.409 516.22 641.788C518.313 638.381 521.486 635.862 525.28 634.597C527.929 633.713 530.761 633.385 533.543 633.564C533.787 633.58 534.031 633.599 534.275 633.625C534.379 633.635 534.48 633.648 534.584 633.661C534.61 633.661 534.756 633.684 534.668 633.671C534.58 633.658 534.714 633.677 534.74 633.681C534.938 633.71 535.156 633.729 535.347 633.798C536.033 634.045 536.326 632.952 535.647 632.709V632.712Z" fill="#0F8AEF"/>
<path d="M524.31 635.316C524.401 635.667 524.641 636.018 524.787 636.349C525.125 637.113 525.434 637.981 525.688 638.813C526.572 641.739 526.897 644.798 526.728 647.847C526.686 648.572 527.817 648.572 527.856 647.847C528.087 643.725 527.427 639.506 525.74 635.725C525.652 635.524 525.558 635.325 525.46 635.13C525.408 635.023 525.34 634.792 525.399 635.016C525.216 634.314 524.127 634.61 524.31 635.316Z" fill="#0F8AEF"/>
<path d="M530.898 633.687C534.844 635.319 537.984 638.644 539.005 642.835C539.07 643.104 539.122 643.374 539.168 643.647C539.194 643.81 539.161 643.566 539.174 643.686C539.177 643.729 539.184 643.771 539.187 643.813C539.194 643.872 539.197 643.933 539.197 643.992C539.197 644.72 540.325 644.72 540.325 643.992C540.325 642.877 539.896 641.677 539.48 640.663C538.612 638.56 537.269 636.665 535.53 635.189C534.23 634.087 532.77 633.242 531.197 632.595C530.527 632.318 530.234 633.411 530.898 633.684V633.687Z" fill="#0F8AEF"/>
<path d="M480.599 477.084C480.599 477.084 486.636 475.368 491.986 475.986L492.26 478.525L480.596 480.787V477.081L480.599 477.084Z" fill="#66B1FF"/>
<path d="M502.414 475.528C502.414 475.528 510.717 476.263 513.942 477.43V480.791L501.66 478.665L502.414 475.528Z" fill="#66B1FF"/>
<path d="M438.232 594.124C440.096 593.989 470.095 590.398 470.095 590.398L468.178 580.677C468.178 580.677 438.556 588.75 437.179 589.29C435.802 589.83 436.369 594.259 438.232 594.124Z" fill="#4C4C4C"/>
<path d="M472.82 590.992C474.71 592.18 477.491 593.26 479.841 592.801C484.728 591.829 487.914 587.104 486.969 582.216C485.997 577.329 481.272 574.143 476.384 575.088C474.035 575.547 471.929 577.437 470.633 579.246L472.82 590.992Z" fill="#989898"/>
<path fill-rule="evenodd" clip-rule="evenodd" d="M470.635 579.138C470.392 578.976 470.068 578.895 469.771 578.949L469.285 579.03L468.259 579.219C467.962 579.273 467.692 579.462 467.53 579.705C467.368 579.948 467.287 580.272 467.368 580.569L469.393 590.83C469.447 591.127 469.636 591.397 469.879 591.559C470.122 591.721 470.446 591.802 470.743 591.721L471.175 591.64L472.201 591.451C472.498 591.397 472.768 591.235 472.93 590.965C473.092 590.722 473.173 590.398 473.119 590.101L471.148 579.813C471.067 579.57 470.905 579.327 470.635 579.138Z" fill="#ECECEC"/>
<path d="M462.559 516.952C462.505 517.006 446.088 533.073 437.609 556.294C435.152 563.045 430.481 579.192 432.209 587.131C432.209 587.131 431.993 602.063 443.253 599.174L441.848 597.661C441.848 597.661 444.306 601.631 449.112 600.335C451.731 599.633 452.136 597.661 452.136 597.661C452.136 597.661 454.809 600.308 458.185 598.607C461.398 597.013 461.56 594.178 461.506 593.854C461.506 593.854 459.346 593.8 458.185 592.315C454.539 587.698 456.484 584.89 457.618 583.944C457.618 583.944 460.102 582.54 461.587 580.839C462.775 579.462 462.721 575.169 457.294 574.44C457.294 574.44 456.808 542.685 461.938 530.102L464.287 515.035L462.559 516.952Z" fill="url(#paint45_linear_1501_5442)"/>
<path d="M446.68 590.425C446.95 591.451 447.409 592.45 447.868 593.395C448.813 595.285 450.109 597.067 451.837 598.337C452.323 598.688 452.944 598.013 452.458 597.661C450.784 596.446 449.569 594.745 448.624 592.909C448.192 592.045 447.787 591.1 447.517 590.155C447.409 589.561 446.518 589.858 446.68 590.425Z" fill="#66B1FF"/>
<path d="M437.096 591.829C437.799 593.854 438.96 595.825 440.418 597.364C441.066 598.066 441.795 598.66 442.605 599.146C443.118 599.443 443.55 598.633 443.037 598.336C441.39 597.337 440.148 595.771 439.203 594.124C438.717 593.314 438.285 592.423 437.988 591.532C437.799 590.965 436.907 591.262 437.096 591.829Z" fill="#66B1FF"/>
<path fill-rule="evenodd" clip-rule="evenodd" d="M480.488 593.125C480.407 593.152 480.326 593.179 480.272 593.179C480.218 593.179 480.11 593.206 480.056 593.206C479.894 593.206 479.759 593.152 479.651 593.017C479.489 592.801 479.354 592.504 479.246 592.261C479.192 592.153 479.165 592.072 479.138 591.991C479.084 591.829 479.03 591.721 478.976 591.613C476.464 586.672 475.303 580.731 475.681 575.088C475.681 574.926 475.789 574.764 475.951 574.683C476.005 574.656 476.059 574.656 476.086 574.629C476.113 574.629 476.14 574.629 476.167 574.602C476.221 574.602 476.248 574.575 476.275 574.575C476.41 574.521 476.572 574.575 476.707 574.656C476.815 574.737 476.896 574.899 476.869 575.061C476.491 580.515 477.652 586.24 480.056 591.019C480.137 591.154 480.218 591.343 480.299 591.532C480.326 591.613 480.38 591.694 480.407 591.775C480.515 592.018 480.623 592.207 480.704 592.315C480.758 592.369 480.812 592.45 480.839 592.558C480.839 592.828 480.731 593.044 480.488 593.125Z" fill="#4C4C4C"/>
<defs>
<filter id="filter0_f_1501_5442" x="394.694" y="553.719" width="50.7098" height="47.1947" filterUnits="userSpaceOnUse" color-interpolation-filters="sRGB">
<feFlood flood-opacity="0" result="BackgroundImageFix"/>
<feBlend mode="normal" in="SourceGraphic" in2="BackgroundImageFix" result="shape"/>
<feGaussianBlur stdDeviation="6.08762" result="effect1_foregroundBlur_1501_5442"/>
</filter>
<filter id="filter1_f_1501_5442" x="405.685" y="564.711" width="28.7268" height="25.2116" filterUnits="userSpaceOnUse" color-interpolation-filters="sRGB">
<feFlood flood-opacity="0" result="BackgroundImageFix"/>
<feBlend mode="normal" in="SourceGraphic" in2="BackgroundImageFix" result="shape"/>
<feGaussianBlur stdDeviation="0.591852" result="effect1_foregroundBlur_1501_5442"/>
</filter>
<filter id="filter2_f_1501_5442" x="148.119" y="575.825" width="693.657" height="262.916" filterUnits="userSpaceOnUse" color-interpolation-filters="sRGB">
<feFlood flood-opacity="0" result="BackgroundImageFix"/>
<feBlend mode="normal" in="SourceGraphic" in2="BackgroundImageFix" result="shape"/>
<feGaussianBlur stdDeviation="57.1897" result="effect1_foregroundBlur_1501_5442"/>
</filter>
<filter id="filter3_f_1501_5442" x="262.357" y="679.494" width="510.65" height="79.9095" filterUnits="userSpaceOnUse" color-interpolation-filters="sRGB">
<feFlood flood-opacity="0" result="BackgroundImageFix"/>
<feBlend mode="normal" in="SourceGraphic" in2="BackgroundImageFix" result="shape"/>
<feGaussianBlur stdDeviation="11.4379" result="effect1_foregroundBlur_1501_5442"/>
</filter>
<filter id="filter4_f_1501_5442" x="268.64" y="667.796" width="510.65" height="79.9095" filterUnits="userSpaceOnUse" color-interpolation-filters="sRGB">
<feFlood flood-opacity="0" result="BackgroundImageFix"/>
<feBlend mode="normal" in="SourceGraphic" in2="BackgroundImageFix" result="shape"/>
<feGaussianBlur stdDeviation="11.4379" result="effect1_foregroundBlur_1501_5442"/>
</filter>
<filter id="filter5_f_1501_5442" x="289.28" y="656.567" width="510.65" height="79.9095" filterUnits="userSpaceOnUse" color-interpolation-filters="sRGB">
<feFlood flood-opacity="0" result="BackgroundImageFix"/>
<feBlend mode="normal" in="SourceGraphic" in2="BackgroundImageFix" result="shape"/>
<feGaussianBlur stdDeviation="11.4379" result="effect1_foregroundBlur_1501_5442"/>
</filter>
<filter id="filter6_f_1501_5442" x="131.325" y="684.174" width="510.65" height="79.9095" filterUnits="userSpaceOnUse" color-interpolation-filters="sRGB">
<feFlood flood-opacity="0" result="BackgroundImageFix"/>
<feBlend mode="normal" in="SourceGraphic" in2="BackgroundImageFix" result="shape"/>
<feGaussianBlur stdDeviation="11.4379" result="effect1_foregroundBlur_1501_5442"/>
</filter>
<filter id="filter7_f_1501_5442" x="87.3468" y="662.65" width="510.65" height="79.9095" filterUnits="userSpaceOnUse" color-interpolation-filters="sRGB">
<feFlood flood-opacity="0" result="BackgroundImageFix"/>
<feBlend mode="normal" in="SourceGraphic" in2="BackgroundImageFix" result="shape"/>
<feGaussianBlur stdDeviation="11.4379" result="effect1_foregroundBlur_1501_5442"/>
</filter>
<filter id="filter8_dddddd_1501_5442" x="449.963" y="408.369" width="233.776" height="243.528" filterUnits="userSpaceOnUse" color-interpolation-filters="sRGB">
<feFlood flood-opacity="0" result="BackgroundImageFix"/>
<feColorMatrix in="SourceAlpha" type="matrix" values="0 0 0 0 0 0 0 0 0 0 0 0 0 0 0 0 0 0 127 0" result="hardAlpha"/>
<feOffset/>
<feGaussianBlur stdDeviation="1.34971"/>
<feColorMatrix type="matrix" values="0 0 0 0 0 0 0 0 0 1 0 0 0 0 0.729412 0 0 0 1 0"/>
<feBlend mode="normal" in2="BackgroundImageFix" result="effect1_dropShadow_1501_5442"/>
<feColorMatrix in="SourceAlpha" type="matrix" values="0 0 0 0 0 0 0 0 0 0 0 0 0 0 0 0 0 0 127 0" result="hardAlpha"/>
<feOffset/>
<feGaussianBlur stdDeviation="2.69941"/>
<feColorMatrix type="matrix" values="0 0 0 0 0 0 0 0 0 1 0 0 0 0 0.729412 0 0 0 1 0"/>
<feBlend mode="normal" in2="effect1_dropShadow_1501_5442" result="effect2_dropShadow_1501_5442"/>
<feColorMatrix in="SourceAlpha" type="matrix" values="0 0 0 0 0 0 0 0 0 0 0 0 0 0 0 0 0 0 127 0" result="hardAlpha"/>
<feOffset/>
<feGaussianBlur stdDeviation="9.44795"/>
<feColorMatrix type="matrix" values="0 0 0 0 0 0 0 0 0 1 0 0 0 0 0.729412 0 0 0 1 0"/>
<feBlend mode="normal" in2="effect2_dropShadow_1501_5442" result="effect3_dropShadow_1501_5442"/>
<feColorMatrix in="SourceAlpha" type="matrix" values="0 0 0 0 0 0 0 0 0 0 0 0 0 0 0 0 0 0 127 0" result="hardAlpha"/>
<feOffset/>
<feGaussianBlur stdDeviation="18.8959"/>
<feColorMatrix type="matrix" values="0 0 0 0 0 0 0 0 0 1 0 0 0 0 0.729412 0 0 0 1 0"/>
<feBlend mode="normal" in2="effect3_dropShadow_1501_5442" result="effect4_dropShadow_1501_5442"/>
<feColorMatrix in="SourceAlpha" type="matrix" values="0 0 0 0 0 0 0 0 0 0 0 0 0 0 0 0 0 0 127 0" result="hardAlpha"/>
<feOffset/>
<feGaussianBlur stdDeviation="32.393"/>
<feColorMatrix type="matrix" values="0 0 0 0 0 0 0 0 0 1 0 0 0 0 0.729412 0 0 0 1 0"/>
<feBlend mode="normal" in2="effect4_dropShadow_1501_5442" result="effect5_dropShadow_1501_5442"/>
<feColorMatrix in="SourceAlpha" type="matrix" values="0 0 0 0 0 0 0 0 0 0 0 0 0 0 0 0 0 0 127 0" result="hardAlpha"/>
<feOffset/>
<feGaussianBlur stdDeviation="56.6877"/>
<feColorMatrix type="matrix" values="0 0 0 0 0 0 0 0 0 1 0 0 0 0 0.729412 0 0 0 1 0"/>
<feBlend mode="normal" in2="effect5_dropShadow_1501_5442" result="effect6_dropShadow_1501_5442"/>
<feBlend mode="normal" in="SourceGraphic" in2="effect6_dropShadow_1501_5442" result="shape"/>
</filter>
<linearGradient id="paint0_linear_1501_5442" x1="-32.895" y1="101.681" x2="826.937" y2="-16.6693" gradientUnits="userSpaceOnUse">
<stop offset="0.05" stop-color="#FF0099"/>
<stop offset="0.864407" stop-color="#A000FF" stop-opacity="0"/>
</linearGradient>
<linearGradient id="paint1_linear_1501_5442" x1="109.318" y1="142.606" x2="904.879" y2="41.5679" gradientUnits="userSpaceOnUse">
<stop offset="0.244645" stop-color="#FF0099"/>
<stop offset="0.817875" stop-color="#A000FF" stop-opacity="0"/>
</linearGradient>
<linearGradient id="paint2_linear_1501_5442" x1="-27.468" y1="118.831" x2="697.103" y2="47.5726" gradientUnits="userSpaceOnUse">
<stop stop-color="#FF0099"/>
<stop offset="0.65" stop-color="#A000FF" stop-opacity="0"/>
</linearGradient>
<linearGradient id="paint3_linear_1501_5442" x1="74.9126" y1="202.254" x2="744.2" y2="110.343" gradientUnits="userSpaceOnUse">
<stop stop-color="#FF0099"/>
<stop offset="0.65" stop-color="#A000FF" stop-opacity="0"/>
</linearGradient>
<linearGradient id="paint4_linear_1501_5442" x1="67.3768" y1="101.068" x2="856.731" y2="1.00304" gradientUnits="userSpaceOnUse">
<stop offset="0.323072" stop-color="#FF0099"/>
<stop offset="0.894216" stop-color="#A000FF" stop-opacity="0"/>
</linearGradient>
<radialGradient id="paint5_radial_1501_5442" cx="0" cy="0" r="1" gradientUnits="userSpaceOnUse" gradientTransform="translate(378.978 529.655) rotate(42.8277) scale(280.333 162.61)">
<stop stop-color="#1575E8" stop-opacity="0.3"/>
<stop offset="1" stop-color="#1575E8" stop-opacity="0"/>
</radialGradient>
<linearGradient id="paint6_linear_1501_5442" x1="87.4737" y1="378.452" x2="365.608" y2="144.137" gradientUnits="userSpaceOnUse">
<stop stop-color="#FF0099"/>
<stop offset="0.65" stop-color="#A000FF" stop-opacity="0"/>
</linearGradient>
<linearGradient id="paint7_linear_1501_5442" x1="421.315" y1="676.578" x2="334.613" y2="592.616" gradientUnits="userSpaceOnUse">
<stop stop-color="#5900FF" stop-opacity="0"/>
<stop offset="0.473957" stop-color="#005EFF" stop-opacity="0.31"/>
<stop offset="1" stop-color="#00FFBA"/>
</linearGradient>
<radialGradient id="paint8_radial_1501_5442" cx="0" cy="0" r="1" gradientUnits="userSpaceOnUse" gradientTransform="translate(341.182 580.562) rotate(129.72) scale(23.8224 32.7374)">
<stop stop-color="#026FF7"/>
<stop offset="0.562168" stop-color="#FF00EF"/>
<stop offset="1" stop-color="#FF002B"/>
</radialGradient>
<radialGradient id="paint9_radial_1501_5442" cx="0" cy="0" r="1" gradientUnits="userSpaceOnUse" gradientTransform="translate(601.696 332.162) rotate(51.7105) scale(12.0944 16.4451)">
<stop stop-color="#FF00D6"/>
<stop offset="0.562168" stop-color="#FF004D"/>
<stop offset="1" stop-color="#FF6291"/>
</radialGradient>
<radialGradient id="paint10_radial_1501_5442" cx="0" cy="0" r="1" gradientUnits="userSpaceOnUse" gradientTransform="translate(660.471 460.704) rotate(136.253) scale(180.188 187.376)">
<stop stop-color="#FF00C7" stop-opacity="0.62"/>
<stop offset="0.562168" stop-color="#DB00FF" stop-opacity="0.03"/>
<stop offset="1" stop-color="#FF0099" stop-opacity="0"/>
</radialGradient>
<radialGradient id="paint11_radial_1501_5442" cx="0" cy="0" r="1" gradientUnits="userSpaceOnUse" gradientTransform="translate(646.078 476.946) rotate(134.653) scale(21.3423 29.8322)">
<stop stop-color="#02D9F7"/>
<stop offset="0.562168" stop-color="#A000FF"/>
<stop offset="1" stop-color="#FF0099"/>
</radialGradient>
<radialGradient id="paint12_radial_1501_5442" cx="0" cy="0" r="1" gradientUnits="userSpaceOnUse" gradientTransform="translate(644.924 522.751) rotate(135.001) scale(317.081 442.262)">
<stop stop-color="#FF0065"/>
<stop offset="0.562168" stop-color="#FF00C1" stop-opacity="0.1"/>
<stop offset="1" stop-color="#FF0037" stop-opacity="0"/>
</radialGradient>
<radialGradient id="paint13_radial_1501_5442" cx="0" cy="0" r="1" gradientUnits="userSpaceOnUse" gradientTransform="translate(660.539 515.15) rotate(134.583) scale(94.0865 131.51)">
<stop stop-color="#FF00D6"/>
<stop offset="0.562168" stop-color="#FF004D"/>
<stop offset="1" stop-color="#FF6291"/>
</radialGradient>
<radialGradient id="paint14_radial_1501_5442" cx="0" cy="0" r="1" gradientUnits="userSpaceOnUse" gradientTransform="translate(669.276 584.762) rotate(135.023) scale(79.0647 110.492)">
<stop stop-color="#00F1FF" stop-opacity="0.92"/>
<stop offset="0.562168" stop-color="#00FFB1" stop-opacity="0.1"/>
<stop offset="1" stop-color="#00C4FF" stop-opacity="0"/>
</radialGradient>
<radialGradient id="paint15_radial_1501_5442" cx="0" cy="0" r="1" gradientUnits="userSpaceOnUse" gradientTransform="translate(667.112 588.604) rotate(134.183) scale(22.4016 31.3025)">
<stop stop-color="#F7EB02"/>
<stop offset="0.562168" stop-color="#00FF76"/>
<stop offset="1" stop-color="#00C4FF"/>
</radialGradient>
<linearGradient id="paint16_linear_1501_5442" x1="244.792" y1="673.757" x2="700.686" y2="673.757" gradientUnits="userSpaceOnUse">
<stop stop-color="#0647C7" stop-opacity="0.1"/>
<stop offset="0.63" stop-color="#0647C7"/>
<stop offset="0.846419" stop-color="#0647C7"/>
<stop offset="1" stop-color="#0647C7" stop-opacity="0.2"/>
</linearGradient>
<radialGradient id="paint17_radial_1501_5442" cx="0" cy="0" r="1" gradientUnits="userSpaceOnUse" gradientTransform="translate(498.652 643.933) scale(277.279 25.0871)">
<stop stop-color="#0647C7"/>
<stop offset="1" stop-color="#0647C7" stop-opacity="0"/>
</radialGradient>
<radialGradient id="paint18_radial_1501_5442" cx="0" cy="0" r="1" gradientUnits="userSpaceOnUse" gradientTransform="translate(498.652 643.527) scale(277.279 25.0871)">
<stop stop-color="#0647C7"/>
<stop offset="1" stop-color="#0647C7" stop-opacity="0"/>
</radialGradient>
<radialGradient id="paint19_radial_1501_5442" cx="0" cy="0" r="1" gradientUnits="userSpaceOnUse" gradientTransform="translate(352.951 483.741) rotate(49.4615) scale(11.5302 15.9229)">
<stop stop-color="#FF00D6"/>
<stop offset="0.562168" stop-color="#FF004D"/>
<stop offset="1" stop-color="#FF6291"/>
</radialGradient>
<radialGradient id="paint20_radial_1501_5442" cx="0" cy="0" r="1" gradientUnits="userSpaceOnUse" gradientTransform="translate(356.433 484.921) rotate(136.73) scale(7.76225 9.77133)">
<stop stop-color="#FFE7AB"/>
<stop offset="1" stop-color="#FABC22"/>
</radialGradient>
<radialGradient id="paint21_radial_1501_5442" cx="0" cy="0" r="1" gradientUnits="userSpaceOnUse" gradientTransform="translate(394.17 390.565) rotate(49.4615) scale(21.1386 29.192)">
<stop stop-color="#FF00D6"/>
<stop offset="0.562168" stop-color="#FF004D"/>
<stop offset="1" stop-color="#FF6291"/>
</radialGradient>
<radialGradient id="paint22_radial_1501_5442" cx="0" cy="0" r="1" gradientUnits="userSpaceOnUse" gradientTransform="translate(400.554 392.729) rotate(136.73) scale(14.2308 17.9141)">
<stop stop-color="#FFE7AB"/>
<stop offset="1" stop-color="#FABC22"/>
</radialGradient>
<radialGradient id="paint23_radial_1501_5442" cx="0" cy="0" r="1" gradientUnits="userSpaceOnUse" gradientTransform="translate(400.554 392.729) rotate(136.73) scale(14.2308 17.9141)">
<stop stop-color="#ADFFEE"/>
<stop offset="1" stop-color="#2DF9FF"/>
</radialGradient>
<linearGradient id="paint24_linear_1501_5442" x1="425.815" y1="570.625" x2="457.234" y2="604.807" gradientUnits="userSpaceOnUse">
<stop stop-color="#0CFFDE"/>
<stop offset="0.65" stop-color="#0CFFDE" stop-opacity="0"/>
</linearGradient>
<radialGradient id="paint25_radial_1501_5442" cx="0" cy="0" r="1" gradientUnits="userSpaceOnUse" gradientTransform="translate(574.837 574.975) rotate(134.253) scale(41.1442 57.4666)">
<stop stop-color="#DA00FF"/>
<stop offset="0.562168" stop-color="#7E00FF" stop-opacity="0.1"/>
<stop offset="1" stop-color="#FF00F7" stop-opacity="0"/>
</radialGradient>
<linearGradient id="paint26_linear_1501_5442" x1="514.249" y1="510.984" x2="362.498" y2="352.356" gradientUnits="userSpaceOnUse">
<stop offset="0.526589" stop-color="#0647C7"/>
<stop offset="1" stop-color="#ED00FF"/>
</linearGradient>
<radialGradient id="paint27_radial_1501_5442" cx="0" cy="0" r="1" gradientUnits="userSpaceOnUse" gradientTransform="translate(368.215 338.217) rotate(130.538) scale(37.1998 51.3723)">
<stop stop-color="#FF3E00"/>
<stop offset="0.562168" stop-color="#FFC800"/>
<stop offset="1" stop-color="#FFDD62"/>
</radialGradient>
<linearGradient id="paint28_linear_1501_5442" x1="532.113" y1="462.039" x2="645.689" y2="351.849" gradientUnits="userSpaceOnUse">
<stop stop-color="#5900FF" stop-opacity="0"/>
<stop offset="0.473957" stop-color="#005EFF" stop-opacity="0.31"/>
<stop offset="1" stop-color="#00FFBA"/>
</linearGradient>
<radialGradient id="paint29_radial_1501_5442" cx="0" cy="0" r="1" gradientUnits="userSpaceOnUse" gradientTransform="translate(637.507 336.448) rotate(50.0893) scale(31.0552 42.7288)">
<stop stop-color="#026FF7"/>
<stop offset="0.562168" stop-color="#FF00EF"/>
<stop offset="1" stop-color="#FF002B"/>
</radialGradient>
<radialGradient id="paint30_radial_1501_5442" cx="0" cy="0" r="1" gradientUnits="userSpaceOnUse" gradientTransform="translate(409.931 360.388) rotate(78.1808) scale(42 20)">
<stop stop-color="#FFE4AD"/>
<stop offset="1" stop-color="#FABC22"/>
</radialGradient>
<radialGradient id="paint31_radial_1501_5442" cx="0" cy="0" r="1" gradientUnits="userSpaceOnUse" gradientTransform="translate(446.573 354.051) rotate(82.328) scale(42 17.5)">
<stop stop-color="#FFE4AD"/>
<stop offset="1" stop-color="#FABC22"/>
</radialGradient>
<radialGradient id="paint32_radial_1501_5442" cx="0" cy="0" r="1" gradientUnits="userSpaceOnUse" gradientTransform="translate(482.018 350.483) rotate(86.3686) scale(42 17.5)">
<stop stop-color="#FFE4AD"/>
<stop offset="1" stop-color="#FABC22"/>
</radialGradient>
<radialGradient id="paint33_radial_1501_5442" cx="0" cy="0" r="1" gradientUnits="userSpaceOnUse" gradientTransform="translate(516.411 349.489) rotate(90.5046) scale(42 16)">
<stop stop-color="#FFE4AD"/>
<stop offset="1" stop-color="#FABC22"/>
</radialGradient>
<radialGradient id="paint34_radial_1501_5442" cx="0" cy="0" r="1" gradientUnits="userSpaceOnUse" gradientTransform="translate(550.901 351.087) rotate(95.1114) scale(42 19.5)">
<stop stop-color="#FFE4AD"/>
<stop offset="1" stop-color="#FABC22"/>
</radialGradient>
<radialGradient id="paint35_radial_1501_5442" cx="0" cy="0" r="1" gradientUnits="userSpaceOnUse" gradientTransform="translate(595.601 357.455) rotate(101.475) scale(42 24)">
<stop stop-color="#FFE4AD"/>
<stop offset="1" stop-color="#FABC22"/>
</radialGradient>
<radialGradient id="paint36_radial_1501_5442" cx="0" cy="0" r="1" gradientUnits="userSpaceOnUse" gradientTransform="translate(368.434 413.55) rotate(74.5465) scale(42 21)">
<stop stop-color="#FFE4AD"/>
<stop offset="1" stop-color="#FABC22"/>
</radialGradient>
<radialGradient id="paint37_radial_1501_5442" cx="0" cy="0" r="1" gradientUnits="userSpaceOnUse" gradientTransform="translate(404.645 404.963) rotate(78.8182) scale(42 17.5)">
<stop stop-color="#FFE4AD"/>
<stop offset="1" stop-color="#FABC22"/>
</radialGradient>
<radialGradient id="paint38_radial_1501_5442" cx="0" cy="0" r="1" gradientUnits="userSpaceOnUse" gradientTransform="translate(441.445 399.005) rotate(82.924) scale(42 19.5)">
<stop stop-color="#FFE4AD"/>
<stop offset="1" stop-color="#FABC22"/>
</radialGradient>
<radialGradient id="paint39_radial_1501_5442" cx="0" cy="0" r="1" gradientUnits="userSpaceOnUse" gradientTransform="translate(478.072 395.772) rotate(87.1396) scale(42 17.5)">
<stop stop-color="#FFE4AD"/>
<stop offset="1" stop-color="#FABC22"/>
</radialGradient>
<radialGradient id="paint40_radial_1501_5442" cx="0" cy="0" r="1" gradientUnits="userSpaceOnUse" gradientTransform="translate(521.395 395.56) rotate(92.4897) scale(42 26)">
<stop stop-color="#FFE4AD"/>
<stop offset="1" stop-color="#FABC22"/>
</radialGradient>
<radialGradient id="paint41_radial_1501_5442" cx="0" cy="0" r="1" gradientUnits="userSpaceOnUse" gradientTransform="translate(563.659 399.464) rotate(98.3319) scale(42 17.5)">
<stop stop-color="#FFE4AD"/>
<stop offset="1" stop-color="#FABC22"/>
</radialGradient>
<radialGradient id="paint42_radial_1501_5442" cx="0" cy="0" r="1" gradientUnits="userSpaceOnUse" gradientTransform="translate(593.625 404.994) rotate(102.883) scale(42 13)">
<stop stop-color="#FFE4AD"/>
<stop offset="1" stop-color="#FABC22"/>
</radialGradient>
<radialGradient id="paint43_radial_1501_5442" cx="0" cy="0" r="1" gradientUnits="userSpaceOnUse" gradientTransform="translate(624.63 413.461) rotate(108.013) scale(42 19)">
<stop stop-color="#FFE4AD"/>
<stop offset="1" stop-color="#FABC22"/>
</radialGradient>
<linearGradient id="paint44_linear_1501_5442" x1="582.266" y1="471.448" x2="543.871" y2="545.396" gradientUnits="userSpaceOnUse">
<stop stop-color="#0F8AEF"/>
<stop offset="0.3" stop-color="#2B96F4"/>
<stop offset="0.83" stop-color="#66B1FF"/>
</linearGradient>
<linearGradient id="paint45_linear_1501_5442" x1="450.339" y1="600.467" x2="446.633" y2="517.654" gradientUnits="userSpaceOnUse">
<stop stop-color="#0F8AEF"/>
<stop offset="0.3" stop-color="#2B96F4"/>
<stop offset="0.83" stop-color="#66B1FF"/>
</linearGradient>
</defs>
</svg>
