<svg width="271" height="189" viewBox="0 0 271 189" fill="none" xmlns="http://www.w3.org/2000/svg">
<g clip-path="url(#clip0_215_15154)">
<g filter="url(#filter0_dddddd_215_15154)">
<path d="M20.653 161.255C20.1823 161.214 19.7728 161.065 19.4238 160.816C17.8218 159.68 18.0796 156.698 20.0038 154.164C21.2782 152.486 22.9511 151.387 24.5003 151.217L25.4299 151.114L16.531 137.709C16.4546 137.589 16.4612 137.441 16.5513 137.336C16.7403 137.112 21.2589 131.905 26.8211 132.388C27.4222 132.44 28.024 132.563 28.606 132.741C28.6909 132.769 28.7588 132.825 28.7956 132.898C28.8325 132.972 28.8391 133.058 28.8167 133.141C28.7674 133.278 28.6271 133.372 28.475 133.358C27.8858 133.18 27.3406 133.076 26.7974 133.029C22.5824 132.663 18.9102 135.851 17.5244 137.237L17.2025 137.555L26.81 152.047C27.9268 153.452 27.4919 156.065 25.8007 158.294C24.3261 160.237 22.3043 161.398 20.653 161.255ZM25.0771 151.84C23.6721 151.718 21.8471 152.804 20.5226 154.549C19.7149 155.61 19.1883 156.787 19.0442 157.856C18.8962 158.967 19.1702 159.861 19.7997 160.311C20.0532 160.489 20.3639 160.6 20.7188 160.631C22.1166 160.752 23.9488 159.667 25.2733 157.923C26.9809 155.674 27.3039 153.087 25.989 152.16C25.7355 151.982 25.4247 151.87 25.0698 151.84L25.0771 151.84Z" fill="#00FFBA"/>
</g>
<g filter="url(#filter1_dddddd_215_15154)">
<path d="M163.904 24.2102C163.272 23.7907 162.901 23.2396 162.825 22.6256C162.741 21.8881 163.109 21.1463 163.862 20.5202C164.683 19.8496 165.848 19.4009 167.147 19.2559C168.652 19.0924 170.068 19.366 171.04 20.0126C171.133 20.0745 171.226 20.1364 171.304 20.2102L171.901 20.7035L175.156 8.12747C175.19 8.00922 175.289 7.9271 175.413 7.92048L187.864 7.45539C187.926 7.45208 187.983 7.46762 188.029 7.49857C188.055 7.51577 188.076 7.52952 188.09 7.55356C188.149 7.62225 188.168 7.7166 188.144 7.79714L184.578 21.6123C184.33 23.0487 182.517 24.2455 180.26 24.495C179.043 24.6282 177.862 24.4733 176.928 24.06C176.721 23.967 176.525 23.8586 176.349 23.7417C175.718 23.3221 175.346 22.771 175.27 22.157C175.176 21.3681 175.597 20.5802 176.45 19.9388C177.257 19.3333 178.376 18.9205 179.598 18.7908C181.103 18.6273 182.522 18.8958 183.494 19.5423C183.587 19.6042 183.681 19.6661 183.758 19.74L184.355 20.2333L187.515 8.024L175.641 8.46446L172.128 22.0774C171.879 23.5138 170.066 24.7106 167.809 24.9601C166.593 25.0932 165.412 24.9384 164.478 24.5251C164.271 24.4321 164.074 24.3237 163.898 24.2068L163.904 24.2102ZM170.742 20.4595C169.904 19.9024 168.583 19.6547 167.219 19.8081C164.957 20.0542 163.237 21.2906 163.384 22.5598C163.435 23.0091 163.729 23.4194 164.226 23.7496C164.37 23.8459 164.536 23.9337 164.713 24.0146C165.541 24.3865 166.648 24.5292 167.754 24.4044C170.016 24.1584 171.736 22.9219 171.589 21.6528C171.533 21.2 171.242 20.7845 170.746 20.4544L170.742 20.4595ZM183.196 19.9893C182.358 19.4322 181.037 19.1845 179.673 19.3379C178.571 19.4576 177.526 19.8379 176.799 20.3784C176.113 20.8932 175.767 21.5013 175.838 22.0895C175.889 22.5389 176.183 22.9492 176.68 23.2794C176.825 23.3757 176.99 23.4634 177.168 23.5444C177.995 23.9163 179.102 24.059 180.208 23.9342C182.47 23.6882 184.19 22.4517 184.043 21.1826C183.987 20.7298 183.696 20.3143 183.2 19.9842L183.196 19.9893Z" fill="#00FFBA"/>
</g>
<path opacity="0.1" d="M42.4091 20.1173L42.4064 20.12L30.5685 32.0345L30.5658 32.0372L23.3115 39.2892L16.0572 32.0372L16.0545 32.0345L4.2167 20.12L4.21399 20.1173C-0.0977506 15.807 -0.0977505 8.95312 4.21399 4.64278L4.21402 4.64281L4.22083 4.63589C8.44643 0.338363 15.3788 0.328408 19.6946 4.64278L22.5136 7.46084L23.3115 8.2585L24.1095 7.46084L26.9284 4.64278C31.2442 0.328408 38.1766 0.338363 42.4022 4.63589L42.4022 4.63592L42.4091 4.64278C46.7208 8.95312 46.7208 15.807 42.4091 20.1173Z" stroke="white" stroke-width="2.25724"/>
<path d="M18.1023 93.6639L60.414 136.368L89.198 165.223L117.982 136.368L160.294 93.6639C177.277 76.6387 177.277 49.5169 160.294 32.4916C143.6 15.4663 116.255 15.4663 99.2715 32.4916L89.198 42.5899L79.1245 32.4916C62.141 15.4663 34.7962 15.4663 18.1023 32.4916C1.11885 49.5169 1.11885 76.6387 18.1023 93.6639Z" fill="url(#paint0_radial_215_15154)"/>
<path d="M121.102 81.5364V65.5469H128.781C130.27 65.5469 131.553 65.7905 132.632 66.2778C133.726 66.7651 134.569 67.4656 135.161 68.3793C135.754 69.2778 136.05 70.3437 136.05 71.5772C136.05 72.8107 135.754 73.8767 135.161 74.7751C134.569 75.6736 133.726 76.3741 132.632 76.8766C131.553 77.3639 130.27 77.6075 128.781 77.6075H124.087L126.479 75.3005V81.5364H121.102ZM126.479 75.8944L124.087 73.4503H128.439C129.184 73.4503 129.73 73.2828 130.08 72.9477C130.444 72.6127 130.627 72.1559 130.627 71.5772C130.627 70.9985 130.444 70.5417 130.08 70.2067C129.73 69.8717 129.184 69.7041 128.439 69.7041H124.087L126.479 67.26V75.8944Z" fill="white"/>
<path d="M111.542 71.4858H118.654V75.369H111.542V71.4858ZM111.906 77.4705H119.886V81.5364H106.617V65.5469H119.589V69.6128H111.906V77.4705Z" fill="white"/>
<path d="M89.5781 81.5364V65.5469H105.048V81.5364H99.7468V68.5849L100.912 69.727H93.7141L94.8795 68.5849V81.5364H89.5781Z" fill="white"/>
<path d="M67.6879 81.9419C66.4112 81.9419 65.2258 81.7436 64.1315 81.3472C63.0524 80.9355 62.1101 80.356 61.3046 79.6089C60.5143 78.8617 59.8988 77.9773 59.458 76.9557C59.0173 75.934 58.7969 74.8057 58.7969 73.5705C58.7969 72.3354 59.0173 71.2071 59.458 70.1854C59.8988 69.1638 60.5143 68.2794 61.3046 67.5322C62.1101 66.785 63.0524 66.2132 64.1315 65.8168C65.2258 65.4051 66.4112 65.1992 67.6879 65.1992C69.2533 65.1992 70.6364 65.4737 71.837 66.0226C73.0529 66.5716 74.056 67.3645 74.8463 68.4014L71.4495 71.4434C70.9783 70.8487 70.454 70.3913 69.8765 70.0711C69.3141 69.7356 68.6758 69.5679 67.9615 69.5679C67.3991 69.5679 66.89 69.6593 66.434 69.8423C65.9781 70.0253 65.5829 70.2922 65.2486 70.6429C64.9294 70.9936 64.6786 71.4205 64.4963 71.9237C64.3139 72.4117 64.2227 72.9606 64.2227 73.5705C64.2227 74.1805 64.3139 74.737 64.4963 75.2402C64.6786 75.7282 64.9294 76.1475 65.2486 76.4982C65.5829 76.8489 65.9781 77.1158 66.434 77.2987C66.89 77.4817 67.3991 77.5732 67.9615 77.5732C68.6758 77.5732 69.3141 77.4131 69.8765 77.0929C70.454 76.7574 70.9783 76.2924 71.4495 75.6977L74.8463 78.7397C74.056 79.7614 73.0529 80.5543 71.837 81.1184C70.6364 81.6674 69.2533 81.9419 67.6879 81.9419Z" fill="white"/>
<path d="M77.0436 70.6788C77.8692 70.891 78.515 70.964 78.9811 70.8977C79.4471 70.8181 79.8599 70.5329 80.2194 70.042L80.8986 69.0868L81.2981 68.649L85.3528 60.3906H89.9069L84.2942 70.8778C83.6816 72.0187 82.9426 72.9076 82.077 73.5443C81.2248 74.1679 80.2794 74.5261 79.2407 74.6189C78.2021 74.7118 77.1035 74.5261 75.945 74.0617L77.0436 70.6788ZM81.2381 72.3305L74.7266 60.3906H79.7001L83.7948 69.0868L81.2381 72.3305Z" fill="white"/>
<path d="M107.235 115.21C106.56 115.21 105.869 115.105 105.164 114.896C104.474 114.701 103.918 114.439 103.498 114.109L105.186 110.624C105.442 110.819 105.727 110.977 106.042 111.097C106.372 111.216 106.687 111.276 106.987 111.276C107.438 111.276 107.783 111.179 108.023 110.984C108.263 110.804 108.458 110.527 108.608 110.152L109.126 108.849L109.486 108.354L113.426 98.3281H118.243L113.178 110.872C112.728 111.996 112.203 112.872 111.602 113.502C111.017 114.131 110.357 114.573 109.621 114.828C108.901 115.083 108.105 115.21 107.235 115.21ZM108.428 111.186L103.07 98.3281H108.293L111.985 107.904L108.428 111.186Z" fill="white"/>
<path d="M96.5755 110.873C95.1853 110.873 93.9521 110.603 92.8759 110.062C91.8146 109.506 90.9775 108.748 90.3646 107.786C89.7517 106.825 89.4453 105.721 89.4453 104.474C89.4453 103.227 89.7517 102.123 90.3646 101.162C90.9775 100.201 91.8146 99.4496 92.8759 98.9088C93.9521 98.368 95.1853 98.0977 96.5755 98.0977C97.9657 98.0977 99.1989 98.368 100.275 98.9088C101.351 99.4496 102.188 100.201 102.786 101.162C103.399 102.123 103.706 103.227 103.706 104.474C103.706 105.721 103.399 106.825 102.786 107.786C102.188 108.748 101.351 109.506 100.275 110.062C99.1989 110.603 97.9657 110.873 96.5755 110.873ZM96.5755 106.908C96.9492 106.908 97.2855 106.818 97.5845 106.637C97.8834 106.457 98.1226 106.187 98.302 105.826C98.4814 105.451 98.5711 105 98.5711 104.474C98.5711 103.933 98.4814 103.49 98.302 103.145C98.1226 102.784 97.8834 102.514 97.5845 102.334C97.2855 102.153 96.9492 102.063 96.5755 102.063C96.2018 102.063 95.8655 102.153 95.5665 102.334C95.2676 102.514 95.0284 102.784 94.849 103.145C94.6696 103.49 94.5799 103.933 94.5799 104.474C94.5799 105 94.6696 105.451 94.849 105.826C95.0284 106.187 95.2676 106.457 95.5665 106.637C95.8655 106.818 96.2018 106.908 96.5755 106.908Z" fill="white"/>
<path d="M76.6546 106.661L75.5509 107.765V98.3281H80.6189V107.765L79.4927 106.661H84.2454L83.1417 107.765V98.3281H88.1872V110.648H67.9375V98.3281H73.0056V107.765L71.9019 106.661H76.6546Z" fill="white"/>
<path d="M98.0644 96.1608L94.703 90.534L98.7815 88.1578L104.025 96.1608H98.0644ZM89.5938 96.1608V83.8984H94.6582V96.1608H89.5938ZM93.1792 92.0808V88.2026H97.7507V92.0808H93.1792ZM99.2969 90.5789L94.5462 90.1305L98.4454 83.8984H103.779L99.2969 90.5789Z" fill="white"/>
<path d="M74.1875 96.2179V83.8984H79.2428V89.4808L83.4893 83.8984H88.1627V96.2179H83.1073V90.6486L78.8833 96.2179H74.1875Z" fill="white"/>
<path d="M68.0924 96.0504V93.8648L67.7324 93.2789V89.133C67.7324 88.5322 67.545 88.074 67.1701 87.7586C66.8101 87.4431 66.2178 87.2854 65.3929 87.2854C64.838 87.2854 64.2757 87.3755 63.7058 87.5558C63.1359 87.721 62.6485 87.9538 62.2436 88.2543L60.6239 84.897C61.3438 84.4463 62.2061 84.1009 63.2109 83.8605C64.2157 83.6202 65.198 83.5 66.1578 83.5C68.2723 83.5 69.907 83.9732 71.0617 84.9195C72.2315 85.8659 72.8164 87.368 72.8164 89.4259V96.0504H68.0924ZM64.6056 96.2757C63.6008 96.2757 62.761 96.103 62.0861 95.7575C61.4113 95.412 60.9014 94.9538 60.5565 94.383C60.2115 93.7972 60.0391 93.1513 60.0391 92.4452C60.0391 91.6491 60.2415 90.9731 60.6464 90.4174C61.0513 89.8616 61.6662 89.441 62.491 89.1556C63.3309 88.8702 64.3881 88.7274 65.6629 88.7274H68.2273V91.1834H66.4727C65.9328 91.1834 65.5354 91.2736 65.2805 91.4538C65.0405 91.6191 64.9205 91.8744 64.9205 92.2199C64.9205 92.5053 65.0255 92.7457 65.2355 92.941C65.4604 93.1212 65.7604 93.2113 66.1353 93.2113C66.4802 93.2113 66.7951 93.1212 67.0801 92.941C67.38 92.7457 67.5975 92.4452 67.7324 92.0397L68.3848 93.5493C68.1898 94.4656 67.7774 95.1491 67.1476 95.5997C66.5177 96.0504 65.6704 96.2757 64.6056 96.2757Z" fill="white"/>
<path d="M44.5859 96.0542L44.7882 91.9312C44.8781 91.9463 44.968 91.9613 45.0579 91.9763C45.1478 91.9763 45.2302 91.9763 45.3051 91.9763C45.6347 91.9763 45.8969 91.9162 46.0917 91.7961C46.2864 91.6609 46.4363 91.4731 46.5411 91.2328C46.661 90.9775 46.7434 90.6771 46.7884 90.3316C46.8333 89.9712 46.8633 89.5581 46.8782 89.0925L47.058 83.7305H58.7893V96.0542H53.7102V86.6368L54.8114 87.6957H50.4066L51.4404 86.5692L51.328 89.2953C51.2831 90.4067 51.1857 91.4056 51.0359 92.2917C50.886 93.1629 50.6463 93.9063 50.3167 94.5221C50.0021 95.1229 49.5676 95.5885 49.0132 95.919C48.4739 96.2344 47.7847 96.3921 46.9457 96.3921C46.6161 96.3921 46.249 96.3621 45.8445 96.302C45.4549 96.2419 45.0354 96.1593 44.5859 96.0542Z" fill="white"/>
<path d="M85.172 79.1946L83.2048 81.1615L81.8665 82.4905L80.5282 81.1615L78.561 79.1946C77.7713 78.4105 77.7713 77.1613 78.561 76.3772C79.3371 75.593 80.6085 75.593 81.3981 76.3772L81.8665 76.8423L82.3349 76.3772C83.1245 75.593 84.3959 75.593 85.172 76.3772C85.9616 77.1613 85.9616 78.4105 85.172 79.1946Z" fill="#52FF00"/>
<path d="M176.486 166.031C175.418 163.094 155.702 116.402 155.702 116.402L141.251 123.879C141.251 123.879 167.821 167.936 169.341 169.878C170.861 171.82 177.555 168.969 176.486 166.031Z" fill="#4C4C4C"/>
<path d="M175.056 161.025L174.887 160.635C174.849 160.521 174.775 160.419 174.672 160.346C174.462 160.198 174.182 160.21 173.99 160.375C171.699 162.353 169.061 163.785 166.158 164.581C165.988 164.627 165.851 164.753 165.788 164.92C165.726 165.088 165.746 165.276 165.842 165.429L166.093 165.827C166.227 166.04 166.483 166.141 166.722 166.074C169.752 165.219 172.501 163.727 174.907 161.683C175.095 161.523 175.155 161.256 175.056 161.025Z" fill="white" stroke="white" stroke-width="1.12788" stroke-linejoin="round"/>
<path d="M139.009 124.401C139.242 124.858 139.635 125.197 140.116 125.357C140.597 125.517 141.107 125.478 141.554 125.247L156.815 117.351C157.261 117.12 157.59 116.725 157.74 116.239C157.891 115.752 157.846 115.233 157.612 114.775L156.813 113.21L138.21 122.836L139.009 124.401Z" fill="white"/>
<path d="M137.849 122.095C137.618 121.637 137.575 121.117 137.727 120.632C137.88 120.146 138.211 119.752 138.658 119.523L153.954 111.697C154.402 111.468 154.913 111.431 155.393 111.593C155.872 111.755 156.264 112.097 156.496 112.555L157.288 114.123L138.642 123.664L137.849 122.095Z" fill="white"/>
<path d="M155.406 111.763C156.396 108.203 156.792 103.227 154.966 99.6501C151.167 92.2103 142.197 89.2268 134.931 92.9863C127.665 96.7459 124.854 105.824 128.653 113.264C130.479 116.84 134.43 119.37 137.883 120.633L155.406 111.763Z" fill="#989898"/>
<path d="M154.267 98.3668C154.515 98.2378 154.823 98.3172 154.985 98.5522C155.052 98.6492 155.125 98.7678 155.185 98.8717C155.236 98.9605 155.306 99.0874 155.341 99.1834C155.406 99.3616 155.379 99.5593 155.271 99.7109C155.028 100.049 154.649 100.387 154.312 100.671C154.183 100.779 154.061 100.879 153.946 100.974C153.735 101.147 153.551 101.299 153.403 101.437C153.403 101.437 153.402 101.437 153.402 101.438L153.045 101.047C153.042 101.05 153.039 101.053 153.036 101.055L153.034 101.058C146.502 107.239 137.829 111.805 128.869 113.717C128.823 113.727 128.778 113.736 128.733 113.746L128.725 113.712L128.61 113.19L128.733 113.112L128.721 113.054C128.773 113.043 128.826 113.032 128.879 113.02L129.082 112.891C129.098 112.916 129.112 112.941 129.127 112.966C137.816 111.029 146.289 106.609 152.621 100.611L152.26 100.224C152.26 100.224 152.261 100.224 152.261 100.223M154.267 98.3668L154.071 99.1938C154.091 99.2225 154.114 99.2567 154.137 99.2936C153.988 99.4457 153.8 99.6134 153.588 99.7926C153.488 99.8768 153.381 99.9648 153.273 100.053C153.042 100.243 152.807 100.436 152.634 100.599L152.632 100.601C152.628 100.604 152.625 100.607 152.621 100.611L152.262 100.222C152.262 100.222 152.261 100.223 152.261 100.223M154.267 98.3668C154.163 98.4207 154.083 98.5039 154.032 98.6022M154.267 98.3668L154.032 98.6022M152.261 100.223C152.444 100.048 152.692 99.8419 152.936 99.6401C153.051 99.5447 153.165 99.4503 153.27 99.3604C153.609 99.0718 153.88 98.815 154.032 98.6022M152.261 100.223L154.032 98.6022" fill="#4C4C4C" stroke="#4C4C4C" stroke-width="1.12788" stroke-linejoin="round"/>
</g>
<defs>
<filter id="filter0_dddddd_215_15154" x="-165.688" y="-49.8091" width="376.681" height="393.239" filterUnits="userSpaceOnUse" color-interpolation-filters="sRGB">
<feFlood flood-opacity="0" result="BackgroundImageFix"/>
<feColorMatrix in="SourceAlpha" type="matrix" values="0 0 0 0 0 0 0 0 0 0 0 0 0 0 0 0 0 0 127 0" result="hardAlpha"/>
<feOffset/>
<feGaussianBlur stdDeviation="2.16863"/>
<feColorMatrix type="matrix" values="0 0 0 0 0 0 0 0 0 1 0 0 0 0 0.729412 0 0 0 1 0"/>
<feBlend mode="normal" in2="BackgroundImageFix" result="effect1_dropShadow_215_15154"/>
<feColorMatrix in="SourceAlpha" type="matrix" values="0 0 0 0 0 0 0 0 0 0 0 0 0 0 0 0 0 0 127 0" result="hardAlpha"/>
<feOffset/>
<feGaussianBlur stdDeviation="4.33725"/>
<feColorMatrix type="matrix" values="0 0 0 0 0 0 0 0 0 1 0 0 0 0 0.729412 0 0 0 1 0"/>
<feBlend mode="normal" in2="effect1_dropShadow_215_15154" result="effect2_dropShadow_215_15154"/>
<feColorMatrix in="SourceAlpha" type="matrix" values="0 0 0 0 0 0 0 0 0 0 0 0 0 0 0 0 0 0 127 0" result="hardAlpha"/>
<feOffset/>
<feGaussianBlur stdDeviation="15.1804"/>
<feColorMatrix type="matrix" values="0 0 0 0 0 0 0 0 0 1 0 0 0 0 0.729412 0 0 0 1 0"/>
<feBlend mode="normal" in2="effect2_dropShadow_215_15154" result="effect3_dropShadow_215_15154"/>
<feColorMatrix in="SourceAlpha" type="matrix" values="0 0 0 0 0 0 0 0 0 0 0 0 0 0 0 0 0 0 127 0" result="hardAlpha"/>
<feOffset/>
<feGaussianBlur stdDeviation="30.3608"/>
<feColorMatrix type="matrix" values="0 0 0 0 0 0 0 0 0 1 0 0 0 0 0.729412 0 0 0 1 0"/>
<feBlend mode="normal" in2="effect3_dropShadow_215_15154" result="effect4_dropShadow_215_15154"/>
<feColorMatrix in="SourceAlpha" type="matrix" values="0 0 0 0 0 0 0 0 0 0 0 0 0 0 0 0 0 0 127 0" result="hardAlpha"/>
<feOffset/>
<feGaussianBlur stdDeviation="52.047"/>
<feColorMatrix type="matrix" values="0 0 0 0 0 0 0 0 0 1 0 0 0 0 0.729412 0 0 0 1 0"/>
<feBlend mode="normal" in2="effect4_dropShadow_215_15154" result="effect5_dropShadow_215_15154"/>
<feColorMatrix in="SourceAlpha" type="matrix" values="0 0 0 0 0 0 0 0 0 0 0 0 0 0 0 0 0 0 127 0" result="hardAlpha"/>
<feOffset/>
<feGaussianBlur stdDeviation="91.0823"/>
<feColorMatrix type="matrix" values="0 0 0 0 0 0 0 0 0 1 0 0 0 0 0.729412 0 0 0 1 0"/>
<feBlend mode="normal" in2="effect5_dropShadow_215_15154" result="effect6_dropShadow_215_15154"/>
<feBlend mode="normal" in="SourceGraphic" in2="effect6_dropShadow_215_15154" result="shape"/>
</filter>
<filter id="filter1_dddddd_215_15154" x="53.1579" y="-108.608" width="248.044" height="250.536" filterUnits="userSpaceOnUse" color-interpolation-filters="sRGB">
<feFlood flood-opacity="0" result="BackgroundImageFix"/>
<feColorMatrix in="SourceAlpha" type="matrix" values="0 0 0 0 0 0 0 0 0 0 0 0 0 0 0 0 0 0 127 0" result="hardAlpha"/>
<feOffset/>
<feGaussianBlur stdDeviation="1.2963"/>
<feColorMatrix type="matrix" values="0 0 0 0 0 0 0 0 0 1 0 0 0 0 0.729412 0 0 0 1 0"/>
<feBlend mode="normal" in2="BackgroundImageFix" result="effect1_dropShadow_215_15154"/>
<feColorMatrix in="SourceAlpha" type="matrix" values="0 0 0 0 0 0 0 0 0 0 0 0 0 0 0 0 0 0 127 0" result="hardAlpha"/>
<feOffset/>
<feGaussianBlur stdDeviation="2.5926"/>
<feColorMatrix type="matrix" values="0 0 0 0 0 0 0 0 0 1 0 0 0 0 0.729412 0 0 0 1 0"/>
<feBlend mode="normal" in2="effect1_dropShadow_215_15154" result="effect2_dropShadow_215_15154"/>
<feColorMatrix in="SourceAlpha" type="matrix" values="0 0 0 0 0 0 0 0 0 0 0 0 0 0 0 0 0 0 127 0" result="hardAlpha"/>
<feOffset/>
<feGaussianBlur stdDeviation="9.07409"/>
<feColorMatrix type="matrix" values="0 0 0 0 0 0 0 0 0 1 0 0 0 0 0.729412 0 0 0 1 0"/>
<feBlend mode="normal" in2="effect2_dropShadow_215_15154" result="effect3_dropShadow_215_15154"/>
<feColorMatrix in="SourceAlpha" type="matrix" values="0 0 0 0 0 0 0 0 0 0 0 0 0 0 0 0 0 0 127 0" result="hardAlpha"/>
<feOffset/>
<feGaussianBlur stdDeviation="18.1482"/>
<feColorMatrix type="matrix" values="0 0 0 0 0 0 0 0 0 1 0 0 0 0 0.729412 0 0 0 1 0"/>
<feBlend mode="normal" in2="effect3_dropShadow_215_15154" result="effect4_dropShadow_215_15154"/>
<feColorMatrix in="SourceAlpha" type="matrix" values="0 0 0 0 0 0 0 0 0 0 0 0 0 0 0 0 0 0 127 0" result="hardAlpha"/>
<feOffset/>
<feGaussianBlur stdDeviation="31.1111"/>
<feColorMatrix type="matrix" values="0 0 0 0 0 0 0 0 0 1 0 0 0 0 0.729412 0 0 0 1 0"/>
<feBlend mode="normal" in2="effect4_dropShadow_215_15154" result="effect5_dropShadow_215_15154"/>
<feColorMatrix in="SourceAlpha" type="matrix" values="0 0 0 0 0 0 0 0 0 0 0 0 0 0 0 0 0 0 127 0" result="hardAlpha"/>
<feOffset/>
<feGaussianBlur stdDeviation="54.4445"/>
<feColorMatrix type="matrix" values="0 0 0 0 0 0 0 0 0 1 0 0 0 0 0.729412 0 0 0 1 0"/>
<feBlend mode="normal" in2="effect5_dropShadow_215_15154" result="effect6_dropShadow_215_15154"/>
<feBlend mode="normal" in="SourceGraphic" in2="effect6_dropShadow_215_15154" result="shape"/>
</filter>
<radialGradient id="paint0_radial_215_15154" cx="0" cy="0" r="1" gradientUnits="userSpaceOnUse" gradientTransform="translate(138.789 33.7131) rotate(134.583) scale(152.157 212.677)">
<stop stop-color="#FF00D6"/>
<stop offset="0.562168" stop-color="#FF004D"/>
<stop offset="1" stop-color="#FF6291"/>
</radialGradient>
<clipPath id="clip0_215_15154">
<rect width="270" height="188" fill="white" transform="translate(0.3125 0.472656)"/>
</clipPath>
</defs>
</svg>
