<svg width="292" height="199" viewBox="0 0 292 199" fill="none" xmlns="http://www.w3.org/2000/svg">
    <g clip-path="url(#clip0_957_14382)">
        <g filter="url(#filter0_dddddd_957_14382)">
            <path d="M42.6554 172.253C42.1846 172.212 41.7751 172.064 41.4261 171.814C39.8241 170.678 40.0819 167.696 42.0061 165.163C43.2806 163.485 44.9534 162.386 46.5026 162.216L47.4322 162.113L38.5333 148.708C38.4569 148.588 38.4635 148.44 38.5537 148.335C38.7426 148.111 43.2612 142.904 48.8234 143.386C49.4245 143.438 50.0263 143.561 50.6083 143.739C50.6933 143.768 50.7611 143.823 50.798 143.897C50.8348 143.971 50.8414 144.056 50.819 144.139C50.7697 144.276 50.6295 144.37 50.4774 144.357C49.8881 144.179 49.3429 144.075 48.7997 144.028C44.5847 143.662 40.9125 146.85 39.5268 148.235L39.2048 148.554L48.8123 163.046C49.9291 164.45 49.4942 167.064 47.803 169.292C46.3284 171.236 44.3066 172.396 42.6554 172.253ZM47.0794 162.839C45.6744 162.717 43.8494 163.803 42.5249 165.547C41.7172 166.608 41.1906 167.785 41.0466 168.855C40.8985 169.966 41.1725 170.859 41.802 171.31C42.0555 171.487 42.3663 171.599 42.7211 171.63C44.1189 171.751 45.9511 170.666 47.2756 168.921C48.9832 166.673 49.3062 164.085 47.9913 163.158C47.7378 162.981 47.427 162.869 47.0722 162.838L47.0794 162.839Z" fill="#00FFBA"/>
        </g>
        <g filter="url(#filter1_dddddd_957_14382)">
            <path d="M185.903 35.2107C185.272 34.7912 184.9 34.24 184.824 33.6261C184.741 32.8886 185.108 32.1468 185.862 31.5207C186.682 30.8501 187.847 30.4014 189.146 30.2564C190.651 30.0929 192.067 30.3665 193.039 31.013C193.133 31.0749 193.226 31.1369 193.303 31.2107L193.9 31.704L197.155 19.128C197.189 19.0097 197.289 18.9276 197.413 18.921L209.863 18.4559C209.925 18.4526 209.982 18.4681 210.029 18.4991C210.055 18.5163 210.075 18.53 210.089 18.554C210.148 18.6227 210.167 18.7171 210.143 18.7976L206.577 32.6128C206.329 34.0492 204.516 35.246 202.259 35.4955C201.043 35.6286 199.862 35.4738 198.928 35.0605C198.721 34.9675 198.524 34.8591 198.348 34.7422C197.717 34.3226 197.345 33.7715 197.269 33.1575C197.176 32.3686 197.596 31.5807 198.45 30.9393C199.256 30.3338 200.375 29.921 201.597 29.7913C203.102 29.6278 204.521 29.8963 205.494 30.5428C205.587 30.6047 205.68 30.6666 205.757 30.7405L206.354 31.2337L209.514 19.0245L197.64 19.4649L194.127 33.0778C193.879 34.5143 192.065 35.7111 189.808 35.9606C188.592 36.0937 187.411 35.9389 186.477 35.5256C186.27 35.4326 186.074 35.3242 185.898 35.2073L185.903 35.2107ZM192.741 31.46C191.903 30.9029 190.583 30.6552 189.218 30.8086C186.956 31.0547 185.236 32.2911 185.383 33.5602C185.434 34.0096 185.728 34.4199 186.225 34.7501C186.37 34.8464 186.535 34.9342 186.713 35.0151C187.54 35.387 188.647 35.5297 189.753 35.4049C192.015 35.1589 193.735 33.9224 193.589 32.6533C193.532 32.2005 193.242 31.785 192.745 31.4549L192.741 31.46ZM205.196 30.9898C204.357 30.4326 203.037 30.1849 201.673 30.3384C200.57 30.458 199.525 30.8384 198.799 31.3789C198.112 31.8937 197.766 32.5018 197.837 33.09C197.888 33.5394 198.182 33.9497 198.679 34.2799C198.824 34.3762 198.989 34.4639 199.167 34.5449C199.994 34.9168 201.101 35.0595 202.207 34.9347C204.469 34.6886 206.19 33.4522 206.043 32.1831C205.986 31.7303 205.696 31.3148 205.199 30.9846L205.196 30.9898Z" fill="#00FFBA"/>
        </g>
        <path opacity="0.1" d="M64.413 31.1178L64.4103 31.1205L52.5724 43.035L52.5697 43.0377L45.3154 50.2897L38.0611 43.0377L38.0584 43.035L26.2206 31.1205L26.2179 31.1178C21.9062 26.8075 21.9062 19.9536 26.2179 15.6433L26.2179 15.6433L26.2247 15.6364C30.4503 11.3389 37.3828 11.3289 41.6985 15.6433L44.5175 18.4613L45.3154 19.259L46.1134 18.4613L48.9323 15.6433C53.2481 11.3289 60.1805 11.3389 64.4061 15.6364L64.4061 15.6364L64.413 15.6433C68.7247 19.9536 68.7247 26.8075 64.413 31.1178Z" stroke="white" stroke-width="2.25724"/>
        <path d="M40.1092 104.664L82.4208 147.369L111.205 176.224L139.989 147.369L182.3 104.664C199.284 87.6391 199.284 60.5174 182.3 43.4921C165.607 26.4668 138.262 26.4668 121.278 43.4921L111.205 53.5904L101.131 43.4921C84.1478 26.4668 56.803 26.4668 40.1092 43.4921C23.1257 60.5174 23.1257 87.6391 40.1092 104.664Z" fill="url(#paint0_radial_957_14382)"/>
        <path d="M143.103 92.5335V76.5439H150.783C152.271 76.5439 153.555 76.7876 154.634 77.2749C155.727 77.7622 156.571 78.4627 157.163 79.3764C157.755 80.2748 158.052 81.3408 158.052 82.5743C158.052 83.8078 157.755 84.8737 157.163 85.7722C156.571 86.6706 155.727 87.3711 154.634 87.8737C153.555 88.361 152.271 88.6046 150.783 88.6046H146.088L148.481 86.2975V92.5335H143.103ZM148.481 86.8914L146.088 84.4473H150.441C151.185 84.4473 151.732 84.2798 152.081 83.9448C152.446 83.6098 152.628 83.1529 152.628 82.5743C152.628 81.9956 152.446 81.5388 152.081 81.2037C151.732 80.8687 151.185 80.7012 150.441 80.7012H146.088L148.481 78.2571V86.8914Z" fill="white"/>
        <path d="M133.542 82.4829H140.655V86.3661H133.542V82.4829ZM133.907 88.4676H141.886V92.5335H128.618V76.5439H141.59V80.6099H133.907V88.4676Z" fill="white"/>
        <path d="M111.583 92.5335V76.5439H127.053V92.5335H121.752V79.582L122.917 80.7241H115.719L116.885 79.582V92.5335H111.583Z" fill="white"/>
        <path d="M89.6886 92.9389C88.412 92.9389 87.2265 92.7407 86.1322 92.3442C85.0531 91.9325 84.1108 91.3531 83.3053 90.6059C82.515 89.8588 81.8995 88.9744 81.4587 87.9527C81.018 86.9311 80.7976 85.8027 80.7976 84.5676C80.7976 83.3325 81.018 82.2041 81.4587 81.1825C81.8995 80.1608 82.515 79.2764 83.3053 78.5293C84.1108 77.7821 85.0531 77.2103 86.1322 76.8138C87.2265 76.4021 88.412 76.1963 89.6886 76.1963C91.2541 76.1963 92.6371 76.4708 93.8378 77.0197C95.0536 77.5686 96.0567 78.3615 96.847 79.3984L93.4502 82.4405C92.9791 81.8458 92.4547 81.3883 91.8772 81.0681C91.3149 80.7327 90.6765 80.5649 89.9622 80.5649C89.3999 80.5649 88.8907 80.6564 88.4348 80.8394C87.9788 81.0224 87.5837 81.2892 87.2493 81.6399C86.9301 81.9906 86.6794 82.4176 86.497 82.9208C86.3146 83.4087 86.2234 83.9577 86.2234 84.5676C86.2234 85.1775 86.3146 85.7341 86.497 86.2373C86.6794 86.7252 86.9301 87.1446 87.2493 87.4953C87.5837 87.846 87.9788 88.1128 88.4348 88.2958C88.8907 88.4788 89.3999 88.5703 89.9622 88.5703C90.6765 88.5703 91.3149 88.4102 91.8772 88.09C92.4547 87.7545 92.9791 87.2894 93.4502 86.6947L96.847 89.7368C96.0567 90.7584 95.0536 91.5513 93.8378 92.1155C92.6371 92.6645 91.2541 92.9389 89.6886 92.9389Z" fill="white"/>
        <path d="M99.0458 81.6763C99.8714 81.8886 100.517 81.9616 100.983 81.8952C101.449 81.8156 101.862 81.5304 102.222 81.0396L102.901 80.0844L103.3 79.6466L107.355 71.3882H111.909L106.296 81.8753C105.684 83.0163 104.945 83.9051 104.079 84.5419C103.227 85.1654 102.282 85.5236 101.243 85.6165C100.204 85.7094 99.1057 85.5236 97.9472 85.0593L99.0458 81.6763ZM103.24 83.328L96.7288 71.3882H101.702L105.797 80.0844L103.24 83.328Z" fill="white"/>
        <path d="M129.24 126.205C128.565 126.205 127.874 126.101 127.169 125.891C126.478 125.696 125.923 125.434 125.503 125.104L127.191 121.62C127.446 121.814 127.732 121.972 128.047 122.092C128.377 122.212 128.692 122.271 128.992 122.271C129.443 122.271 129.788 122.174 130.028 121.979C130.268 121.799 130.463 121.522 130.613 121.148L131.131 119.844L131.491 119.349L135.431 109.323H140.248L135.183 121.867C134.733 122.991 134.208 123.868 133.607 124.497C133.022 125.126 132.362 125.569 131.626 125.823C130.906 126.078 130.11 126.205 129.24 126.205ZM130.433 122.182L125.075 109.323H130.298L133.99 118.9L130.433 122.182Z" fill="white"/>
        <path d="M118.573 121.871C117.182 121.871 115.949 121.601 114.873 121.06C113.812 120.504 112.975 119.746 112.362 118.785C111.749 117.823 111.442 116.719 111.442 115.472C111.442 114.226 111.749 113.121 112.362 112.16C112.975 111.199 113.812 110.448 114.873 109.907C115.949 109.366 117.182 109.096 118.573 109.096C119.963 109.096 121.196 109.366 122.272 109.907C123.348 110.448 124.186 111.199 124.783 112.16C125.396 113.121 125.703 114.226 125.703 115.472C125.703 116.719 125.396 117.823 124.783 118.785C124.186 119.746 123.348 120.504 122.272 121.06C121.196 121.601 119.963 121.871 118.573 121.871ZM118.573 117.906C118.946 117.906 119.283 117.816 119.582 117.635C119.881 117.455 120.12 117.185 120.299 116.824C120.478 116.449 120.568 115.998 120.568 115.472C120.568 114.932 120.478 114.488 120.299 114.143C120.12 113.782 119.881 113.512 119.582 113.332C119.283 113.151 118.946 113.061 118.573 113.061C118.199 113.061 117.863 113.151 117.564 113.332C117.265 113.512 117.025 113.782 116.846 114.143C116.667 114.488 116.577 114.932 116.577 115.472C116.577 115.998 116.667 116.449 116.846 116.824C117.025 117.185 117.265 117.455 117.564 117.635C117.863 117.816 118.199 117.906 118.573 117.906Z" fill="white"/>
        <path d="M98.6551 117.657L97.5513 118.76V109.324H102.619V118.76L101.493 117.657H106.246L105.142 118.76V109.324H110.188V121.643H89.938V109.324H95.0061V118.76L93.9023 117.657H98.6551Z" fill="white"/>
        <path d="M120.065 107.156L116.703 101.53L120.782 99.1534L126.025 107.156H120.065ZM111.594 107.156V94.894H116.658V107.156H111.594ZM115.179 103.076V99.1982H119.751V103.076H115.179ZM121.297 101.574L116.546 101.126L120.446 94.894H125.779L121.297 101.574Z" fill="white"/>
        <path d="M96.1932 107.213V94.894H101.249V100.476L105.495 94.894H110.168V107.213H105.113V101.644L100.889 107.213H96.1932Z" fill="white"/>
        <path d="M90.1003 107.045V104.859L89.7404 104.274V100.128C89.7404 99.5268 89.5529 99.0686 89.178 98.7532C88.8181 98.4377 88.2257 98.28 87.4009 98.28C86.846 98.28 86.2836 98.3702 85.7137 98.5504C85.1438 98.7156 84.6564 98.9485 84.2515 99.2489L82.6319 95.8916C83.3517 95.441 84.214 95.0955 85.2188 94.8551C86.2236 94.6148 87.2059 94.4946 88.1657 94.4946C90.2803 94.4946 91.9149 94.9678 93.0697 95.9142C94.2394 96.8605 94.8243 98.3626 94.8243 100.421V107.045H90.1003ZM86.6135 107.27C85.6087 107.27 84.7689 107.098 84.0941 106.752C83.4192 106.407 82.9093 105.948 82.5644 105.378C82.2195 104.792 82.047 104.146 82.047 103.44C82.047 102.644 82.2495 101.968 82.6544 101.412C83.0593 100.856 83.6742 100.436 84.499 100.15C85.3388 99.8648 86.3961 99.7221 87.6708 99.7221H90.2353V102.178H88.4806C87.9408 102.178 87.5433 102.268 87.2884 102.448C87.0484 102.614 86.9285 102.869 86.9285 103.215C86.9285 103.5 87.0334 103.74 87.2434 103.936C87.4684 104.116 87.7683 104.206 88.1432 104.206C88.4881 104.206 88.8031 104.116 89.088 103.936C89.3879 103.74 89.6054 103.44 89.7404 103.034L90.3927 104.544C90.1978 105.46 89.7854 106.144 89.1555 106.594C88.5256 107.045 87.6783 107.27 86.6135 107.27Z" fill="white"/>
        <path d="M66.5884 107.047L66.7906 102.924C66.8805 102.939 66.9704 102.954 67.0603 102.969C67.1502 102.969 67.2326 102.969 67.3075 102.969C67.6371 102.969 67.8993 102.909 68.0941 102.789C68.2889 102.654 68.4387 102.466 68.5436 102.226C68.6634 101.97 68.7458 101.67 68.7908 101.324C68.8357 100.964 68.8657 100.551 68.8807 100.085L69.0605 94.7231H80.7917V107.047H75.7127V97.6295L76.8139 98.6884H72.409L73.4428 97.5619L73.3305 100.288C73.2855 101.399 73.1881 102.398 73.0383 103.284C72.8885 104.156 72.6488 104.899 72.3192 105.515C72.0045 106.116 71.57 106.581 71.0157 106.912C70.4763 107.227 69.7871 107.385 68.9481 107.385C68.6185 107.385 68.2514 107.355 67.8469 107.295C67.4574 107.235 67.0379 107.152 66.5884 107.047Z" fill="white"/>
        <path d="M107.174 90.1927L105.207 92.1595L103.869 93.4885L102.53 92.1595L100.563 90.1927C99.7735 89.4085 99.7735 88.1594 100.563 87.3752C101.339 86.5911 102.611 86.5911 103.4 87.3752L103.869 87.8403L104.337 87.3752C105.127 86.5911 106.398 86.5911 107.174 87.3752C107.964 88.1594 107.964 89.4085 107.174 90.1927Z" fill="#52FF00"/>
        <path d="M198.488 177.034C197.419 174.096 177.704 127.405 177.704 127.405L163.252 134.881C163.252 134.881 189.823 178.939 191.343 180.88C192.863 182.822 199.557 179.971 198.488 177.034Z" fill="#4C4C4C"/>
        <path d="M197.059 172.028L196.89 171.637C196.852 171.523 196.779 171.421 196.676 171.348C196.465 171.2 196.186 171.212 195.994 171.378C193.702 173.355 191.064 174.787 188.161 175.583C187.991 175.63 187.854 175.756 187.792 175.923C187.729 176.09 187.749 176.278 187.845 176.431L188.096 176.829C188.23 177.043 188.487 177.144 188.725 177.076C191.756 176.221 194.504 174.73 196.91 172.686C197.098 172.526 197.159 172.259 197.059 172.028Z" fill="white" stroke="white" stroke-width="1.12788" stroke-linejoin="round"/>
        <path d="M161.006 135.403C161.24 135.86 161.633 136.2 162.114 136.36C162.594 136.52 163.105 136.48 163.551 136.249L178.813 128.354C179.259 128.123 179.588 127.728 179.738 127.241C179.889 126.755 179.843 126.235 179.61 125.778L178.811 124.213L160.207 133.838L161.006 135.403Z" fill="white"/>
        <path d="M159.844 133.096C159.612 132.638 159.569 132.118 159.722 131.632C159.874 131.146 160.205 130.753 160.652 130.524L175.949 122.697C176.396 122.468 176.907 122.432 177.387 122.594C177.867 122.756 178.259 123.097 178.49 123.555L179.282 125.124L160.636 134.664L159.844 133.096Z" fill="white"/>
        <path d="M177.404 122.764C178.393 119.203 178.789 114.227 176.963 110.651C173.164 103.211 164.194 100.227 156.928 103.987C149.663 107.746 146.851 116.825 150.65 124.264C152.476 127.841 156.428 130.371 159.88 131.633L177.404 122.764Z" fill="#989898"/>
        <path fill-rule="evenodd" clip-rule="evenodd" d="M177.449 109.184C177.531 109.3 177.613 109.417 177.639 109.504C177.665 109.59 177.76 109.75 177.786 109.837C177.864 110.096 177.842 110.339 177.678 110.576C177.409 110.94 176.998 111.299 176.661 111.588C176.514 111.727 176.397 111.809 176.28 111.891C176.047 112.055 175.899 112.194 175.752 112.332C169.042 118.728 160.083 123.441 150.861 125.546C150.602 125.623 150.29 125.528 150.083 125.308C150.013 125.234 149.987 125.147 149.931 125.117C149.918 125.074 149.905 125.031 149.849 125C149.823 124.914 149.767 124.884 149.754 124.84C149.603 124.65 149.611 124.364 149.676 124.109C149.754 123.897 149.975 123.69 150.247 123.655C159.167 121.641 167.78 117.032 174.282 110.887C174.459 110.693 174.723 110.472 174.987 110.251C175.104 110.169 175.208 110.044 175.325 109.962C175.662 109.672 175.913 109.408 176.047 109.227C176.108 109.114 176.212 108.989 176.372 108.894C176.804 108.764 177.202 108.833 177.449 109.184Z" fill="#4C4C4C"/>
    </g>
    <defs>
        <filter id="filter0_dddddd_957_14382" x="-143.684" y="-38.81" width="376.68" height="393.24" filterUnits="userSpaceOnUse" color-interpolation-filters="sRGB">
            <feFlood flood-opacity="0" result="BackgroundImageFix"/>
            <feColorMatrix in="SourceAlpha" type="matrix" values="0 0 0 0 0 0 0 0 0 0 0 0 0 0 0 0 0 0 127 0" result="hardAlpha"/>
            <feOffset/>
            <feGaussianBlur stdDeviation="2.16863"/>
            <feColorMatrix type="matrix" values="0 0 0 0 0 0 0 0 0 1 0 0 0 0 0.729412 0 0 0 1 0"/>
            <feBlend mode="normal" in2="BackgroundImageFix" result="effect1_dropShadow_957_14382"/>
            <feColorMatrix in="SourceAlpha" type="matrix" values="0 0 0 0 0 0 0 0 0 0 0 0 0 0 0 0 0 0 127 0" result="hardAlpha"/>
            <feOffset/>
            <feGaussianBlur stdDeviation="4.33725"/>
            <feColorMatrix type="matrix" values="0 0 0 0 0 0 0 0 0 1 0 0 0 0 0.729412 0 0 0 1 0"/>
            <feBlend mode="normal" in2="effect1_dropShadow_957_14382" result="effect2_dropShadow_957_14382"/>
            <feColorMatrix in="SourceAlpha" type="matrix" values="0 0 0 0 0 0 0 0 0 0 0 0 0 0 0 0 0 0 127 0" result="hardAlpha"/>
            <feOffset/>
            <feGaussianBlur stdDeviation="15.1804"/>
            <feColorMatrix type="matrix" values="0 0 0 0 0 0 0 0 0 1 0 0 0 0 0.729412 0 0 0 1 0"/>
            <feBlend mode="normal" in2="effect2_dropShadow_957_14382" result="effect3_dropShadow_957_14382"/>
            <feColorMatrix in="SourceAlpha" type="matrix" values="0 0 0 0 0 0 0 0 0 0 0 0 0 0 0 0 0 0 127 0" result="hardAlpha"/>
            <feOffset/>
            <feGaussianBlur stdDeviation="30.3608"/>
            <feColorMatrix type="matrix" values="0 0 0 0 0 0 0 0 0 1 0 0 0 0 0.729412 0 0 0 1 0"/>
            <feBlend mode="normal" in2="effect3_dropShadow_957_14382" result="effect4_dropShadow_957_14382"/>
            <feColorMatrix in="SourceAlpha" type="matrix" values="0 0 0 0 0 0 0 0 0 0 0 0 0 0 0 0 0 0 127 0" result="hardAlpha"/>
            <feOffset/>
            <feGaussianBlur stdDeviation="52.047"/>
            <feColorMatrix type="matrix" values="0 0 0 0 0 0 0 0 0 1 0 0 0 0 0.729412 0 0 0 1 0"/>
            <feBlend mode="normal" in2="effect4_dropShadow_957_14382" result="effect5_dropShadow_957_14382"/>
            <feColorMatrix in="SourceAlpha" type="matrix" values="0 0 0 0 0 0 0 0 0 0 0 0 0 0 0 0 0 0 127 0" result="hardAlpha"/>
            <feOffset/>
            <feGaussianBlur stdDeviation="91.0823"/>
            <feColorMatrix type="matrix" values="0 0 0 0 0 0 0 0 0 1 0 0 0 0 0.729412 0 0 0 1 0"/>
            <feBlend mode="normal" in2="effect5_dropShadow_957_14382" result="effect6_dropShadow_957_14382"/>
            <feBlend mode="normal" in="SourceGraphic" in2="effect6_dropShadow_957_14382" result="shape"/>
        </filter>
        <filter id="filter1_dddddd_957_14382" x="75.9234" y="-90.4334" width="243.119" height="235.33" filterUnits="userSpaceOnUse" color-interpolation-filters="sRGB">
            <feFlood flood-opacity="0" result="BackgroundImageFix"/>
            <feColorMatrix in="SourceAlpha" type="matrix" values="0 0 0 0 0 0 0 0 0 0 0 0 0 0 0 0 0 0 127 0" result="hardAlpha"/>
            <feOffset/>
            <feGaussianBlur stdDeviation="1.2963"/>
            <feColorMatrix type="matrix" values="0 0 0 0 0 0 0 0 0 1 0 0 0 0 0.729412 0 0 0 1 0"/>
            <feBlend mode="normal" in2="BackgroundImageFix" result="effect1_dropShadow_957_14382"/>
            <feColorMatrix in="SourceAlpha" type="matrix" values="0 0 0 0 0 0 0 0 0 0 0 0 0 0 0 0 0 0 127 0" result="hardAlpha"/>
            <feOffset/>
            <feGaussianBlur stdDeviation="2.5926"/>
            <feColorMatrix type="matrix" values="0 0 0 0 0 0 0 0 0 1 0 0 0 0 0.729412 0 0 0 1 0"/>
            <feBlend mode="normal" in2="effect1_dropShadow_957_14382" result="effect2_dropShadow_957_14382"/>
            <feColorMatrix in="SourceAlpha" type="matrix" values="0 0 0 0 0 0 0 0 0 0 0 0 0 0 0 0 0 0 127 0" result="hardAlpha"/>
            <feOffset/>
            <feGaussianBlur stdDeviation="9.07409"/>
            <feColorMatrix type="matrix" values="0 0 0 0 0 0 0 0 0 1 0 0 0 0 0.729412 0 0 0 1 0"/>
            <feBlend mode="normal" in2="effect2_dropShadow_957_14382" result="effect3_dropShadow_957_14382"/>
            <feColorMatrix in="SourceAlpha" type="matrix" values="0 0 0 0 0 0 0 0 0 0 0 0 0 0 0 0 0 0 127 0" result="hardAlpha"/>
            <feOffset/>
            <feGaussianBlur stdDeviation="18.1482"/>
            <feColorMatrix type="matrix" values="0 0 0 0 0 0 0 0 0 1 0 0 0 0 0.729412 0 0 0 1 0"/>
            <feBlend mode="normal" in2="effect3_dropShadow_957_14382" result="effect4_dropShadow_957_14382"/>
            <feColorMatrix in="SourceAlpha" type="matrix" values="0 0 0 0 0 0 0 0 0 0 0 0 0 0 0 0 0 0 127 0" result="hardAlpha"/>
            <feOffset/>
            <feGaussianBlur stdDeviation="31.1111"/>
            <feColorMatrix type="matrix" values="0 0 0 0 0 0 0 0 0 1 0 0 0 0 0.729412 0 0 0 1 0"/>
            <feBlend mode="normal" in2="effect4_dropShadow_957_14382" result="effect5_dropShadow_957_14382"/>
            <feColorMatrix in="SourceAlpha" type="matrix" values="0 0 0 0 0 0 0 0 0 0 0 0 0 0 0 0 0 0 127 0" result="hardAlpha"/>
            <feOffset/>
            <feGaussianBlur stdDeviation="54.4445"/>
            <feColorMatrix type="matrix" values="0 0 0 0 0 0 0 0 0 1 0 0 0 0 0.729412 0 0 0 1 0"/>
            <feBlend mode="normal" in2="effect5_dropShadow_957_14382" result="effect6_dropShadow_957_14382"/>
            <feBlend mode="normal" in="SourceGraphic" in2="effect6_dropShadow_957_14382" result="shape"/>
        </filter>
        <radialGradient id="paint0_radial_957_14382" cx="0" cy="0" r="1" gradientUnits="userSpaceOnUse" gradientTransform="translate(160.796 44.7136) rotate(134.583) scale(152.157 212.677)">
            <stop stop-color="#FF00D6"/>
            <stop offset="0.562168" stop-color="#FF004D"/>
            <stop offset="1" stop-color="#FF6291"/>
        </radialGradient>
        <clipPath id="clip0_957_14382">
            <rect width="292" height="199" fill="white"/>
        </clipPath>
    </defs>
</svg>
