<svg width="81" height="69" viewBox="0 0 81 69" fill="none" xmlns="http://www.w3.org/2000/svg">
<rect x="11.2617" y="20.4941" width="58.9452" height="48.3753" fill="url(#paint0_radial_94_3643)"/>
<path d="M74.4552 34.9933L54.3869 55.2035L40.7346 68.8593L27.0824 55.2035L7.01408 34.9933C-1.04115 26.936 -1.04115 14.1004 7.01408 6.04302C14.9319 -2.01434 27.9016 -2.01434 35.9568 6.04302L40.7346 10.8221L45.5125 6.04302C53.5677 -2.01434 66.5374 -2.01434 74.4552 6.04302C82.5105 14.1004 82.5105 26.936 74.4552 34.9933Z" fill="#FF0099"/>
<path d="M57.375 62.1865H55.6426V62.9606H56.0887V64.592H56.9289V62.9606H57.375V62.1865Z" fill="white"/>
<path d="M55.077 63.6943C54.9999 63.7723 54.8927 63.8206 54.7755 63.8206C54.5396 63.8206 54.3492 63.6273 54.3492 63.3896C54.3492 63.1511 54.5404 62.9586 54.7755 62.9586C54.8935 62.9586 54.9999 63.0069 55.077 63.0849L55.6422 62.5136C55.4201 62.2891 55.114 62.1504 54.7748 62.1504C54.0978 62.1504 53.5488 62.7053 53.5488 63.3896C53.5488 64.0739 54.0978 64.6288 54.7748 64.6288C55.1133 64.6288 55.4201 64.4901 55.6422 64.2656L55.077 63.6943Z" fill="white"/>
<path d="M66.4322 64.0703C66.3593 63.9904 66.2157 63.9501 66.0014 63.9501C66.0014 63.9501 65.8893 63.9501 65.7434 63.9501C65.5975 63.9501 65.513 63.9455 65.4816 63.937C65.4501 63.9284 65.4339 63.8998 65.4339 63.8509C65.4339 63.8029 65.4508 63.7735 65.4846 63.7634C65.5184 63.7533 65.6075 63.7479 65.7511 63.7479C66.013 63.7479 66.2387 63.7603 66.4284 63.7859V63.1217C66.1658 63.1008 65.8156 63.0799 65.4677 63.0799C65.2481 63.0799 65.0861 63.0977 64.9816 63.1334C64.8772 63.169 64.7889 63.2488 64.749 63.3589V61.7129H63.8943V62.6366C63.8512 62.5552 63.786 62.4917 63.6977 62.446C63.6094 62.4003 63.4849 62.377 63.3559 62.377C63.0541 62.377 62.9313 62.4894 62.8806 62.539C62.8522 62.5669 62.8276 62.6017 62.8061 62.6428C62.8192 62.5963 62.8261 62.5475 62.8261 62.4971C62.8261 62.1965 62.5842 61.9523 62.2862 61.9523C61.9883 61.9523 61.7464 62.1965 61.7464 62.4971C61.7464 62.7978 61.9883 63.0419 62.2862 63.0419C62.4913 63.0419 62.6702 62.9264 62.7616 62.756C62.7355 62.842 62.704 63.0109 62.704 63.1349H61.8593V64.9963L61.2426 64.0323L61.8285 63.1357H60.9247L60.467 63.8796V61.7129H59.6123V65.0436H60.467V64.2531L60.9662 65.0436H61.8585H61.8884H62.7132V63.7525C62.737 63.9703 62.8053 64.147 62.8729 64.2152C62.9474 64.2903 63.0634 64.381 63.3567 64.381C63.5932 64.381 63.7583 64.2973 63.8943 64.1291V64.3275H64.749V63.9563C64.7674 64.0168 64.792 64.0633 64.825 64.0966C64.8979 64.1718 65.0454 64.209 65.2673 64.209H65.5215C65.6451 64.209 65.778 64.2144 65.8102 64.2245C65.8417 64.2345 65.8578 64.2655 65.8578 64.3159C65.8578 64.364 65.8394 64.3934 65.8033 64.4035C65.7665 64.4136 65.6743 64.419 65.5253 64.419C65.2558 64.419 65.0108 64.4066 64.7912 64.381V65.0645C65.0254 65.0901 65.3065 65.1025 65.6344 65.1025C65.9922 65.1025 66.2334 65.0645 66.357 64.9878C66.4806 64.9111 66.5421 64.7553 66.5421 64.5182C66.5421 64.3004 66.5052 64.1508 66.4322 64.0703ZM63.8943 63.5526C63.8943 63.6084 63.8804 63.6541 63.8528 63.6882C63.8251 63.7223 63.7898 63.7394 63.7468 63.7394C63.6838 63.7394 63.6401 63.713 63.6163 63.6611C63.5925 63.6092 63.5802 63.5169 63.5802 63.3844C63.5802 63.2442 63.5925 63.1473 63.6178 63.0923C63.6431 63.0373 63.6861 63.0101 63.746 63.0101C63.789 63.0101 63.8244 63.0241 63.852 63.052C63.8797 63.0799 63.8935 63.1194 63.8935 63.1705V63.5526H63.8943Z" fill="white"/>
<path d="M58.8307 63.6943C58.7536 63.7723 58.6464 63.8206 58.5291 63.8206C58.2931 63.8206 58.1026 63.6273 58.1026 63.3896C58.1026 63.1511 58.2939 62.9586 58.5291 62.9586C58.6471 62.9586 58.7536 63.0069 58.8307 63.0849L59.3961 62.5136C59.174 62.2891 58.8677 62.1504 58.5291 62.1504C57.8519 62.1504 57.3027 62.7053 57.3027 63.3896C57.3027 64.0739 57.8519 64.6288 58.5291 64.6288C58.8677 64.6288 59.1747 64.4901 59.3961 64.2656L58.8307 63.6943Z" fill="white"/>
<path d="M20.4903 60.6285C20.4872 61.0742 20.4787 62.5905 20.4903 62.9173C20.4966 63.0967 20.9683 63.0712 21.162 63.056C21.5324 63.027 22.0355 62.9471 22.3406 62.6545C22.5574 62.4466 22.6378 62.155 22.6375 61.9973C22.6359 61.3609 22.5485 61.1003 22.2478 60.8354C21.9768 60.5967 21.3473 60.5371 21.0049 60.5196C20.5053 60.4942 20.4908 60.554 20.4903 60.6285ZM21.2463 61.0272C21.4151 61.0258 21.6264 61.0533 21.766 61.1708C22.0248 61.3886 22.0096 61.6966 21.9928 61.8024C21.929 62.2047 21.6594 62.4142 21.2878 62.4142C21.1466 62.4142 21.1537 62.3883 21.158 62.2511C21.1599 62.1922 21.1698 61.2369 21.171 61.1538C21.1721 61.078 21.1781 61.0278 21.2463 61.0272Z" fill="white"/>
<path d="M17.9914 63.057C18.2225 63.0618 18.4538 63.0547 18.6849 63.0524C18.7469 63.0519 18.8011 63.0096 18.7746 62.9351C18.6897 62.6966 18.1749 62.1396 17.9733 61.8876C17.9182 61.8187 17.7557 61.6271 17.7557 61.6066C17.7557 61.5887 17.8708 61.4585 18.1237 61.1744C18.3907 60.8745 18.4863 60.7422 18.4537 60.6774C18.4254 60.6209 18.3791 60.6181 18.286 60.5777C18.0063 60.4562 17.9729 60.5015 17.835 60.6492C17.7672 60.7219 17.3943 61.1071 17.3028 61.2291C17.3035 61.2299 17.3049 61.21 17.3095 60.9338C17.3135 60.6937 17.3346 60.6551 17.2833 60.5775C17.2411 60.5139 17.085 60.5116 16.8867 60.5156C16.6487 60.5203 16.5249 60.5102 16.5094 60.5846C16.4743 60.7535 16.4924 61.1187 16.5086 61.7474C16.5214 62.2451 16.5339 62.3814 16.5396 62.821C16.5424 63.0388 16.5521 63.0572 16.7359 63.057C16.8764 63.0568 17.0169 63.0599 17.1574 63.0615C17.3214 63.0633 17.3025 62.9084 17.3025 62.8077C17.3025 62.6551 17.3026 62.5024 17.307 62.3499C17.3071 62.3456 17.826 63.0535 17.9914 63.057Z" fill="white"/>
<path d="M23.4073 60.4586C23.0797 60.4868 22.7762 60.6166 22.7542 61.0862C22.7396 61.3967 23.0071 61.6854 23.2256 61.8703C23.3132 61.9444 23.6505 62.1514 23.6561 62.3054C23.6607 62.4312 23.5886 62.5199 23.3756 62.502C23.1465 62.4828 22.9701 62.2446 22.7904 62.4777C22.6895 62.6085 22.657 62.6883 22.6928 62.8032C22.7823 63.0911 23.1729 63.1498 23.4522 63.1485C23.8175 63.1467 24.0403 63.0586 24.2136 62.8221C24.3309 62.6622 24.3451 62.5076 24.3451 62.3961C24.3451 62.2102 24.222 62.0099 24.1049 61.8748C23.9806 61.7315 23.8277 61.608 23.6833 61.485C23.4772 61.3095 23.424 61.2507 23.4723 61.1376C23.5989 60.8414 23.9268 61.3383 24.1593 61.1043C24.2864 60.9763 24.2808 60.7953 24.1593 60.6737C24.0166 60.531 23.6793 60.4352 23.4073 60.4586Z" fill="white"/>
<path d="M19.3726 63.4623C19.1458 63.4726 19.0435 63.5458 18.9849 63.6243C18.8385 63.8206 18.8218 64.2206 18.8399 64.4175C18.8902 64.9657 19.3191 64.9859 19.4669 64.9801C19.9756 64.9604 20.0365 64.4876 20.0228 64.0686C20.019 63.9515 19.9748 63.779 19.8905 63.6705C19.7636 63.5071 19.6118 63.4514 19.3726 63.4623ZM19.3818 63.7934C19.635 63.7967 19.6525 63.9762 19.6512 64.3451C19.6505 64.5213 19.5578 64.6578 19.4133 64.6578C19.1361 64.6578 19.1782 64.2441 19.1777 64.0943C19.1771 63.9499 19.2419 63.7916 19.3818 63.7934Z" fill="white"/>
<path d="M17.7658 63.4933C17.6633 63.495 17.6801 63.5534 17.6797 63.5737C17.6782 63.6417 17.6704 64.6148 17.6661 64.793C17.6641 64.8728 17.7191 64.9313 17.774 64.9515C17.8881 64.9936 17.9985 64.9573 18.0512 64.8791C18.0925 64.8178 18.1038 64.7127 18.1239 64.6956C18.1468 64.7105 18.2626 64.9086 18.3641 64.9425C18.4405 64.968 18.568 64.9632 18.6692 64.9616C18.8452 64.9588 18.7519 64.8408 18.6904 64.7748C18.6037 64.682 18.5148 64.5959 18.4093 64.5256C18.4416 64.506 18.5128 64.471 18.5952 64.4031C18.7477 64.2775 18.7519 64.0861 18.7402 63.9228C18.7263 63.7277 18.5786 63.5414 18.3821 63.5057C18.3548 63.5007 17.8595 63.4918 17.7658 63.4933ZM18.074 63.7686C18.2082 63.7649 18.3451 63.7705 18.3685 63.9046C18.4207 64.2033 18.2034 64.2523 18.092 64.2355C18.0405 64.2277 18.0424 64.2046 18.0422 64.1857C18.0407 64.0512 18.0392 63.9166 18.0422 63.7822C18.0425 63.7705 18.0728 63.7686 18.074 63.7686Z" fill="white"/>
<path d="M19.4424 60.1387C19.4132 60.1379 19.3611 60.2733 19.3046 60.401C19.2566 60.5095 19.2238 60.6127 19.1705 60.6146C19.0353 60.6194 18.6548 60.6102 18.6447 60.6916C18.6414 60.718 18.6823 60.7444 18.758 60.7914C18.8941 60.8758 18.9926 60.9517 18.9844 61.0641C18.9804 61.1185 18.9283 61.1727 18.8776 61.2793C18.7596 61.5272 18.7319 61.663 18.7762 61.6797C18.8057 61.6909 18.9849 61.3889 19.379 61.4576C19.6801 61.5102 19.7926 61.6355 20.1087 61.8973C20.1444 61.9269 20.1169 61.7236 20.1042 61.6797C19.9624 61.1909 19.9285 61.1957 19.873 61.0814C19.8623 61.0594 19.9043 61.0393 19.9727 60.9908C20.0455 60.9393 20.1131 60.8988 20.1671 60.8642C20.2413 60.8165 20.2897 60.78 20.29 60.7415C20.2926 60.6687 19.7695 60.6803 19.7371 60.6418C19.5431 60.4115 19.4994 60.1452 19.4424 60.1387Z" fill="white"/>
<path d="M16.8399 63.4908C16.701 63.4902 16.5296 63.4802 16.5284 63.6199C16.5251 64.0112 16.5301 64.4025 16.533 64.7938C16.5341 64.9352 16.6216 64.9428 16.7797 64.938C16.9401 64.9331 16.9085 64.6734 16.9176 64.5477C16.9179 64.5434 17.2441 64.5655 17.3534 64.4969C17.5437 64.3773 17.5845 64.203 17.5845 63.9236C17.5845 63.8221 17.541 63.696 17.4484 63.6124C17.2918 63.4709 17.099 63.4918 16.8399 63.4908ZM16.9487 63.7584C17.0459 63.7571 17.2158 63.7825 17.2285 63.947C17.2414 64.1162 17.1905 64.238 16.9772 64.2409C16.9135 64.2417 16.8687 64.2488 16.8645 64.1501C16.8581 64.0003 16.86 63.9414 16.8613 63.8006C16.8616 63.7727 16.8989 63.7591 16.9487 63.7584Z" fill="white"/>
<path d="M21.2089 63.5067C21.1571 63.5076 21.0793 63.5152 21.0775 63.62C21.0733 63.8557 21.0684 64.6685 21.0684 64.8393C21.0684 64.8692 21.0793 64.9663 21.227 64.9662C21.4446 64.966 21.6621 64.9646 21.8797 64.9617C22.0331 64.9596 22.0373 64.6666 21.9024 64.6127C21.8677 64.5988 21.552 64.6016 21.4507 64.6016C21.3824 64.6016 21.3948 64.5036 21.3957 64.4369C21.3969 64.358 21.4858 64.3598 21.5397 64.3589C21.6611 64.3566 21.8067 64.3714 21.8062 64.2409C21.8054 64.048 21.5099 64.1401 21.431 64.105C21.3769 64.081 21.3837 63.9821 21.3837 63.9369C21.3837 63.845 21.4361 63.8311 21.5092 63.8295C21.6286 63.8271 21.783 63.8217 21.9024 63.824C21.9336 63.8246 21.9546 63.8236 21.9522 63.7742C21.9488 63.7047 21.9552 63.6352 21.9568 63.5657C21.9576 63.5252 21.9426 63.5101 21.8706 63.5067C21.8283 63.5047 21.3871 63.5038 21.2089 63.5067Z" fill="white"/>
<path d="M22.5032 63.4778C22.2924 63.5189 22.1124 63.5957 22.0474 63.8909C22.0119 64.052 22.0066 64.2139 22.0183 64.3951C22.0338 64.6365 22.0968 64.7503 22.2427 64.8512C22.4098 64.9667 22.7139 64.962 22.904 64.9197C22.9774 64.9034 23.1035 64.8608 23.1397 64.7883C23.1878 64.6921 23.1553 64.5066 23.0309 64.4755C22.8691 64.4351 22.823 64.595 22.5686 64.5526C22.4732 64.5367 22.3969 64.4549 22.3828 64.3577C22.3613 64.2105 22.3011 63.8845 22.6184 63.8319C22.7765 63.8058 22.893 63.9045 22.972 63.8455C23.0917 63.7562 23.0886 63.5713 22.9122 63.5078C22.7996 63.4673 22.6615 63.447 22.5032 63.4778Z" fill="white"/>
<path d="M20.1528 63.5155C20.1261 63.5161 20.0762 63.5297 20.0757 63.5618C20.0743 63.651 20.0745 63.6502 20.0744 63.7662C20.0744 63.8082 20.0806 63.8415 20.1185 63.8419C20.1257 63.8419 20.1381 63.8418 20.1543 63.8416C20.2725 63.8398 20.5942 63.8324 20.5954 63.8633C20.5983 63.9448 20.5897 64.4455 20.5789 64.4855C20.5128 64.7306 20.1662 64.454 20.0395 64.5807C19.9815 64.6386 20.004 64.7483 20.0507 64.8016C20.1826 64.9523 20.511 65.0428 20.7427 64.9121C20.8621 64.8448 20.9324 64.7393 20.9324 64.5716C20.9324 64.4628 20.9496 63.8276 20.9478 63.7461C20.9464 63.6794 20.9625 63.5267 20.911 63.5267C20.8065 63.5265 20.3885 63.5108 20.1528 63.5155Z" fill="white"/>
<path d="M23.3806 63.4971C23.1072 63.4918 23.1177 63.828 23.3035 63.8416C23.3999 63.8487 23.497 63.8417 23.5935 63.8461C23.5979 63.8463 23.6026 63.8509 23.6026 63.8552C23.6056 64.0682 23.6071 64.2813 23.6026 64.4943C23.5977 64.7312 23.5573 64.9825 23.7883 64.9906C23.9052 64.9946 23.974 64.9073 23.9743 64.8433C23.9762 64.4367 23.9713 64.1815 23.9743 63.8507C23.9743 63.8464 23.9791 63.8417 23.9834 63.8416C24.0724 63.8387 24.1617 63.843 24.2508 63.8416C24.2764 63.8412 24.3118 63.8206 24.3188 63.7872C24.345 63.6627 24.3375 63.5272 24.2327 63.5062C24.1836 63.4964 24.1144 63.4971 24.074 63.4971C23.8973 63.4971 23.4349 63.4982 23.3806 63.4971Z" fill="white"/>
<path d="M19.1567 61.9063C19.1156 61.9045 19.0855 61.9294 19.0842 61.9743C19.0814 62.077 19.0813 62.6935 19.0842 62.899C19.0858 63.0128 19.1076 63.0363 19.4027 63.0405C19.5868 63.0432 19.6981 63.0455 19.7006 62.976C19.7035 62.899 19.7301 62.4666 19.687 62.3415C19.5989 62.0851 19.3949 61.917 19.1567 61.9063Z" fill="white"/>
<path d="M16.6499 59.233C16.5519 59.26 16.7329 59.3062 17.0229 59.433C17.4504 59.62 17.7891 59.7648 18.4589 60.3312C18.6602 60.5014 18.743 60.5053 18.8027 60.4138C18.8885 60.2824 18.7237 60.0893 18.4265 59.8925C18.0442 59.6394 17.8057 59.5279 17.3884 59.3832C17.0627 59.2702 16.7511 59.2051 16.6499 59.233Z" fill="white"/>
<path d="M17.7829 59.3441C17.6897 59.3458 17.6125 59.3653 17.6242 59.3849C17.6433 59.4167 17.8202 59.4563 17.8645 59.471C18.0784 59.5423 18.2945 59.6402 18.4809 59.752C18.6467 59.8515 18.9168 60.1266 18.9885 60.0557C19.1119 59.9337 18.9021 59.745 18.8027 59.6705C18.5143 59.4542 18.2018 59.3363 17.7829 59.3441Z" fill="white"/>
<path d="M55.1035 29.2655V21.8018H58.6882C59.3831 21.8018 59.9823 21.9155 60.4858 22.143C60.9964 22.3704 61.3899 22.6974 61.6665 23.1239C61.9431 23.5433 62.0813 24.0409 62.0813 24.6166C62.0813 25.1924 61.9431 25.69 61.6665 26.1094C61.3899 26.5288 60.9964 26.8558 60.4858 27.0903C59.9823 27.3178 59.3831 27.4315 58.6882 27.4315H56.497L57.6138 26.3546V29.2655H55.1035ZM57.6138 26.6319L56.497 25.491H58.5286C58.8761 25.491 59.1314 25.4128 59.2945 25.2564C59.4647 25.1 59.5498 24.8868 59.5498 24.6166C59.5498 24.3465 59.4647 24.1333 59.2945 23.9769C59.1314 23.8205 58.8761 23.7423 58.5286 23.7423H56.497L57.6138 22.6014V26.6319Z" fill="white"/>
<path d="M50.6414 24.574H53.9616V26.3866H50.6414V24.574ZM50.8117 27.3676H54.5363V29.2655H48.3428V21.8018H54.3979V23.6997H50.8117V27.3676Z" fill="white"/>
<path d="M40.3916 29.2655V21.8018H47.6128V29.2655H45.1382V23.2199L45.6822 23.753H42.3222L42.8662 23.2199V29.2655H40.3916Z" fill="white"/>
<path d="M30.1707 29.4549C29.5748 29.4549 29.0214 29.3624 28.5106 29.1773C28.0069 28.9852 27.5671 28.7147 27.1911 28.3659C26.8222 28.0171 26.5349 27.6043 26.3291 27.1274C26.1234 26.6505 26.0205 26.1238 26.0205 25.5473C26.0205 24.9707 26.1234 24.444 26.3291 23.9671C26.5349 23.4903 26.8222 23.0774 27.1911 22.7287C27.5671 22.3799 28.0069 22.113 28.5106 21.9279C29.0214 21.7357 29.5748 21.6396 30.1707 21.6396C30.9015 21.6396 31.5471 21.7678 32.1075 22.024C32.6751 22.2802 33.1433 22.6504 33.5122 23.1344L31.9266 24.5544C31.7067 24.2768 31.4619 24.0632 31.1923 23.9138C30.9298 23.7572 30.6319 23.6789 30.2984 23.6789C30.0359 23.6789 29.7983 23.7216 29.5854 23.807C29.3726 23.8924 29.1882 24.017 29.0321 24.1807C28.8831 24.3444 28.766 24.5437 28.6809 24.7786C28.5958 25.0063 28.5532 25.2626 28.5532 25.5473C28.5532 25.832 28.5958 26.0918 28.6809 26.3267C28.766 26.5544 28.8831 26.7502 29.0321 26.9139C29.1882 27.0776 29.3726 27.2022 29.5854 27.2876C29.7983 27.373 30.0359 27.4157 30.2984 27.4157C30.6319 27.4157 30.9298 27.341 31.1923 27.1915C31.4619 27.0349 31.7067 26.8178 31.9266 26.5402L33.5122 27.9602C33.1433 28.4371 32.6751 28.8072 32.1075 29.0706C31.5471 29.3268 30.9015 29.4549 30.1707 29.4549Z" fill="white"/>
<path d="M34.5386 24.1969C34.924 24.296 35.2254 24.3301 35.443 24.2991C35.6605 24.262 35.8532 24.1288 36.021 23.8997L36.3381 23.4538L36.5245 23.2495L38.4172 19.3945H40.543L37.9231 24.2898C37.6372 24.8224 37.2922 25.2373 36.8882 25.5345C36.4903 25.8256 36.049 25.9928 35.5642 26.0361C35.0794 26.0795 34.5666 25.9928 34.0258 25.7761L34.5386 24.1969ZM36.4966 24.9679L33.457 19.3945H35.7786L37.69 23.4538L36.4966 24.9679Z" fill="white"/>
<path d="M48.6325 44.9839C48.3173 44.9839 47.995 44.935 47.6658 44.837C47.3435 44.7461 47.0843 44.6237 46.8881 44.4698L47.6763 42.8433C47.7954 42.9343 47.9285 43.0077 48.0756 43.0637C48.2297 43.1196 48.3768 43.1476 48.5169 43.1476C48.7271 43.1476 48.8882 43.1021 49.0003 43.0112C49.1124 42.9273 49.2035 42.7978 49.2735 42.623L49.5152 42.0143L49.6833 41.7835L51.5223 37.1035H53.7711L51.4067 42.9587C51.1965 43.4834 50.9514 43.8926 50.6711 44.1864C50.3979 44.4803 50.0897 44.6866 49.7464 44.8055C49.4101 44.9245 49.0388 44.9839 48.6325 44.9839ZM49.1895 43.1056L46.6885 37.1035H49.1264L50.8498 41.5736L49.1895 43.1056Z" fill="white"/>
<path d="M43.6535 42.9606C43.0046 42.9606 42.4289 42.8344 41.9265 42.582C41.4311 42.3226 41.0404 41.9685 40.7543 41.5197C40.4682 41.0709 40.3252 40.5556 40.3252 39.9736C40.3252 39.3916 40.4682 38.8762 40.7543 38.4275C41.0404 37.9787 41.4311 37.6281 41.9265 37.3757C42.4289 37.1233 43.0046 36.9971 43.6535 36.9971C44.3024 36.9971 44.878 37.1233 45.3804 37.3757C45.8828 37.6281 46.2736 37.9787 46.5527 38.4275C46.8387 38.8762 46.9818 39.3916 46.9818 39.9736C46.9818 40.5556 46.8387 41.0709 46.5527 41.5197C46.2736 41.9685 45.8828 42.3226 45.3804 42.582C44.878 42.8344 44.3024 42.9606 43.6535 42.9606ZM43.6535 41.1095C43.8279 41.1095 43.9849 41.0674 44.1245 40.9833C44.264 40.8991 44.3757 40.7729 44.4594 40.6047C44.5431 40.4294 44.585 40.219 44.585 39.9736C44.585 39.7212 44.5431 39.5143 44.4594 39.353C44.3757 39.1848 44.264 39.0585 44.1245 38.9744C43.9849 38.8903 43.8279 38.8482 43.6535 38.8482C43.479 38.8482 43.3221 38.8903 43.1825 38.9744C43.043 39.0585 42.9313 39.1848 42.8476 39.353C42.7638 39.5143 42.722 39.7212 42.722 39.9736C42.722 40.219 42.7638 40.4294 42.8476 40.6047C42.9313 40.7729 43.043 40.8991 43.1825 40.9833C43.3221 41.0674 43.479 41.1095 43.6535 41.1095Z" fill="white"/>
<path d="M34.3561 40.9933L33.8409 41.5084V37.1035H36.2067V41.5084L35.6809 40.9933H37.8995L37.3843 41.5084V37.1035H39.7395V42.8541H30.2871V37.1035H32.6528V41.5084L32.1376 40.9933H34.3561Z" fill="white"/>
<path d="M44.3505 36.0921L42.7814 33.4656L44.6852 32.3564L47.1329 36.0921H44.3505ZM40.3965 36.0921V30.3682H42.7605V36.0921H40.3965ZM42.0701 34.1876V32.3773H44.2041V34.1876H42.0701ZM44.9258 33.4865L42.7082 33.2772L44.5283 30.3682H47.0179L44.9258 33.4865Z" fill="white"/>
<path d="M33.207 36.1187V30.3682H35.5668V32.974L37.549 30.3682H39.7305V36.1187H37.3707V33.5191L35.399 36.1187H33.207Z" fill="white"/>
<path d="M30.3627 36.039V35.0188L30.1947 34.7454V32.8101C30.1947 32.5296 30.1072 32.3158 29.9322 32.1685C29.7642 32.0213 29.4877 31.9476 29.1026 31.9476C28.8436 31.9476 28.5811 31.9897 28.3151 32.0739C28.0491 32.151 27.8216 32.2597 27.6326 32.3999L26.8765 30.8328C27.2125 30.6224 27.6151 30.4611 28.0841 30.3489C28.5531 30.2368 29.0116 30.1807 29.4597 30.1807C30.4467 30.1807 31.2097 30.4015 31.7488 30.8433C32.2948 31.285 32.5678 31.9862 32.5678 32.9468V36.039H30.3627ZM28.7351 36.1442C28.2661 36.1442 27.8741 36.0636 27.5591 35.9023C27.244 35.741 27.006 35.5272 26.845 35.2607C26.684 34.9873 26.6035 34.6858 26.6035 34.3562C26.6035 33.9846 26.698 33.669 26.887 33.4096C27.076 33.1502 27.3631 32.9538 27.7481 32.8206C28.1401 32.6874 28.6336 32.6208 29.2286 32.6208H30.4257V33.7672H29.6067C29.3547 33.7672 29.1691 33.8093 29.0501 33.8934C28.9381 33.9706 28.8821 34.0898 28.8821 34.251C28.8821 34.3843 28.9311 34.4964 29.0291 34.5876C29.1341 34.6717 29.2741 34.7138 29.4492 34.7138C29.6102 34.7138 29.7572 34.6717 29.8902 34.5876C30.0302 34.4964 30.1317 34.3562 30.1947 34.1669L30.4992 34.8716C30.4082 35.2993 30.2157 35.6183 29.9217 35.8287C29.6277 36.039 29.2321 36.1442 28.7351 36.1442Z" fill="white"/>
<path d="M19.3877 36.0397L19.4821 34.1151C19.5241 34.1222 19.566 34.1292 19.608 34.1362C19.65 34.1362 19.6884 34.1362 19.7234 34.1362C19.8772 34.1362 19.9996 34.1081 20.0906 34.052C20.1815 33.9889 20.2514 33.9013 20.3004 33.7891C20.3563 33.6699 20.3948 33.5297 20.4158 33.3685C20.4367 33.2002 20.4507 33.0074 20.4577 32.7901L20.5416 30.2871H26.0177V36.0397H23.6468V31.6437L24.1608 32.138H22.1047L22.5873 31.6122L22.5348 32.8847C22.5138 33.4035 22.4684 33.8698 22.3985 34.2834C22.3285 34.69 22.2166 35.0371 22.0628 35.3245C21.9159 35.605 21.7131 35.8223 21.4543 35.9766C21.2025 36.1238 20.8808 36.1974 20.4892 36.1974C20.3353 36.1974 20.164 36.1834 19.9752 36.1554C19.7933 36.1273 19.5975 36.0887 19.3877 36.0397Z" fill="white"/>
<path d="M38.3331 28.1727L37.4148 29.0908L36.7901 29.7111L36.1654 29.0908L35.2471 28.1727C34.8786 27.8067 34.8786 27.2236 35.2471 26.8575C35.6095 26.4915 36.2029 26.4915 36.5715 26.8575L36.7901 27.0746L37.0088 26.8575C37.3773 26.4915 37.9708 26.4915 38.3331 26.8575C38.7017 27.2236 38.7017 27.8067 38.3331 28.1727Z" fill="white"/>
<defs>
<radialGradient id="paint0_radial_94_3643" cx="0" cy="0" r="1" gradientUnits="userSpaceOnUse" gradientTransform="translate(45.7574 20.4941) rotate(143.373) scale(101.562 78.3276)">
<stop offset="0.171875" stop-color="#AFE7FF" stop-opacity="0.58"/>
<stop offset="0.416667" stop-color="white" stop-opacity="0.85"/>
<stop offset="1" stop-color="#11B8FF" stop-opacity="0.47"/>
</radialGradient>
</defs>
</svg>
