<svg width="119" height="101" viewBox="0 0 119 101" fill="none" xmlns="http://www.w3.org/2000/svg">
<path d="M107.31 65.7501C107.494 67.8334 105.629 69.5027 103.586 69.0708C94.5763 67.1869 82.5421 63.6543 65.4767 69.5309C51.8098 74.2361 44.324 79.6527 40.6187 83.0844C38.7074 84.8569 35.7296 84.7819 33.8652 82.9618C26.3032 75.5937 20.348 68.389 14.2537 59.7387C14.2537 59.7387 11.6474 56.5148 8.55392 48.8128C7.60428 46.457 8.88749 43.7546 10.8459 42.1298C17.255 36.8102 33.829 24.9603 57.6899 21.6757C79.348 18.6973 87.4019 18.9175 99.2496 21.2535C101.877 21.7742 103.894 23.886 104.269 26.5507L105.347 42.0199C105.891 47.5175 106.117 50.9595 106.47 56.7242L107.289 65.7543L107.31 65.7501Z" fill="white"/>
<path d="M32.2805 54.4271C32.325 54.3888 32.3801 54.3438 32.4456 54.2921C32.5137 54.2289 32.5862 54.1726 32.6632 54.1234C32.7358 54.0672 32.8106 54.0145 32.8876 53.9653C32.9601 53.9091 33.0244 53.8631 33.0804 53.8273C33.4375 53.5992 33.7931 53.4459 34.1473 53.3675C34.5085 53.2847 34.859 53.2777 35.1988 53.3465C35.5341 53.4083 35.8473 53.5434 36.1383 53.7519C36.4364 53.9559 36.695 54.2294 36.9143 54.5724C37.4065 55.3425 37.5462 56.1011 37.3336 56.8483C37.1209 57.5954 36.5524 58.2642 35.6282 58.8547C35.1311 59.1723 34.7043 59.4302 34.3478 59.6284C34.1193 59.7645 33.8788 59.8048 33.6263 59.7492C33.3764 59.6821 33.1798 59.5366 33.0366 59.3125L29.3517 53.5475C29.2129 53.3305 29.1714 53.0958 29.227 52.8434C29.2826 52.5909 29.4189 52.3954 29.6359 52.2567L32.4926 50.4316C32.7096 50.293 32.9444 50.2514 33.1969 50.307C33.4493 50.3627 33.6449 50.499 33.7837 50.716C33.9224 50.933 33.9639 51.1677 33.9083 51.4201C33.8528 51.6726 33.7164 51.8681 33.4994 52.0068L31.5354 53.2615L32.2805 54.4271ZM34.2203 57.4619C34.3693 57.3864 34.4937 57.3266 34.5937 57.2825C34.6892 57.2313 34.786 57.1744 34.884 57.1118C35.2341 56.8882 35.4251 56.6626 35.4572 56.435C35.4918 56.196 35.4442 55.975 35.3144 55.772C35.1757 55.555 34.9919 55.4062 34.7629 55.3257C34.5295 55.2382 34.2588 55.2929 33.9507 55.4897C33.7336 55.6284 33.5125 55.7992 33.2873 56.0023L34.2203 57.4619Z" fill="url(#paint0_radial_94_3708)"/>
<path d="M35.0176 49.8081C34.8983 49.5798 34.8793 49.346 34.9605 49.1067C35.0491 48.8636 35.2113 48.6805 35.4469 48.5575C35.6384 48.4575 35.8367 48.4242 36.0417 48.4578C36.2428 48.4839 36.4712 48.5802 36.7269 48.7467L40.2622 50.9918L39.9248 47.0625C39.9048 46.773 39.9341 46.5421 40.0128 46.3698C40.0915 46.1975 40.2377 46.0555 40.4512 45.944C40.6648 45.8325 40.878 45.8008 41.0907 45.8491C41.2995 45.89 41.4636 46.0246 41.5828 46.2529C41.6521 46.3854 41.6981 46.5723 41.721 46.8134L42.1214 52.7204C42.1805 53.5332 42.1179 54.1939 41.9337 54.7025C41.7456 55.2038 41.3828 55.5948 40.8451 55.8755C40.7052 55.9486 40.5446 56.0091 40.3633 56.0569C40.1526 56.12 39.9369 56.1108 39.7162 56.0293C39.4955 55.9477 39.3312 55.8038 39.2235 55.5976C39.1735 55.5019 39.1417 55.3873 39.1282 55.2537C39.105 54.994 39.1776 54.7921 39.346 54.6479C39.5179 54.4925 39.7217 54.3532 39.9574 54.2302C40.1047 54.1532 40.2108 54.0603 40.2758 53.9514C40.3407 53.8425 40.3658 53.6841 40.3509 53.4763L40.3292 53.1924L35.4603 50.2517C35.2537 50.1253 35.1061 49.9774 35.0176 49.8081Z" fill="url(#paint1_radial_94_3708)"/>
<path d="M46.7295 52.8116L46.9441 53.3297C47.0426 53.5677 47.0424 53.8061 46.9434 54.0449C46.8445 54.2837 46.676 54.4523 46.438 54.5508C46.2001 54.6494 45.9617 54.6491 45.7228 54.5502C45.484 54.4512 45.3153 54.2827 45.2168 54.0448L44.6398 52.6515C44.5413 52.4135 44.5392 52.1806 44.6337 51.9526C44.7327 51.7138 44.905 51.5436 45.1506 51.4419C45.1861 51.3103 45.2112 51.0886 45.2259 50.7768C45.2407 50.4649 45.2229 50.0856 45.1728 49.6387C45.1303 49.1887 45.0455 48.6798 44.9183 48.112C44.7879 47.5365 44.6013 46.9123 44.3587 46.2395L44.0833 45.4767C43.9969 45.2247 44.0048 44.9832 44.1069 44.752C44.2059 44.5132 44.3782 44.343 44.6238 44.2413L48.159 42.7778C48.3969 42.6793 48.6353 42.6795 48.8742 42.7785C49.113 42.8775 49.2817 43.0459 49.3802 43.2839L51.6451 48.7533L51.8754 48.658C52.1134 48.5595 52.3518 48.5597 52.5906 48.6586C52.8294 48.7576 52.9981 48.9261 53.0967 49.164L53.6689 50.5458C53.7674 50.7838 53.7672 51.0221 53.6682 51.2609C53.5693 51.4997 53.4008 51.6684 53.1629 51.7669C52.9249 51.8654 52.6865 51.8652 52.4477 51.7662C52.2088 51.6673 52.0401 51.4988 51.9416 51.2608L51.727 50.7427L46.7295 52.8116ZM49.8027 49.516L47.8954 44.9102L46.2603 45.5871L46.6963 46.9983C46.8086 47.3564 46.9033 47.7264 46.9805 48.1081C47.0544 48.4821 47.1112 48.8363 47.1507 49.1706C47.1947 49.4941 47.2168 49.7862 47.2168 50.047C47.2214 50.2969 47.2082 50.4822 47.1773 50.6029L49.8027 49.516Z" fill="url(#paint2_radial_94_3708)"/>
<path d="M50.8372 42.6048C50.7604 42.359 50.7833 42.1255 50.9058 41.9045C51.0362 41.681 51.2283 41.5297 51.4821 41.4505C51.6883 41.3861 51.8893 41.3886 52.0851 41.4581C52.2784 41.5196 52.486 41.655 52.708 41.8642L55.7875 44.7022L56.1543 40.7754C56.1861 40.4869 56.2561 40.2649 56.3642 40.1093C56.4722 39.9537 56.6413 39.84 56.8713 39.7682C57.1013 39.6964 57.3167 39.7031 57.5174 39.7885C57.7156 39.8658 57.8531 40.0275 57.9299 40.2733C57.9744 40.4161 57.9865 40.6081 57.9661 40.8495L57.3095 46.7338C57.2231 47.5441 57.044 48.1832 56.7722 48.651C56.498 49.1109 56.0714 49.4312 55.4924 49.6119C55.3418 49.6589 55.173 49.6899 54.9861 49.7047C54.7675 49.7294 54.5569 49.682 54.3542 49.5625C54.1515 49.443 54.0155 49.2722 53.9462 49.0501C53.914 48.947 53.9031 48.8285 53.9136 48.6947C53.9369 48.435 54.0443 48.2492 54.2356 48.1372C54.4324 48.0149 54.6577 47.9141 54.9115 47.8348C55.0702 47.7853 55.1911 47.7128 55.2744 47.6171C55.3577 47.5215 55.4105 47.3701 55.4329 47.1629L55.462 46.8797L51.1939 43.1202C51.0131 42.959 50.8942 42.7873 50.8372 42.6048Z" fill="url(#paint3_radial_94_3708)"/>
<path d="M71.9681 46.2814C72.0157 46.5345 71.9666 46.7678 71.8208 46.9812C71.6749 47.1947 71.4754 47.3252 71.2223 47.3728C70.9692 47.4204 70.7359 47.3713 70.5225 47.2255C70.3091 47.0797 70.1785 46.8802 70.1309 46.627L70.0273 46.0759L61.5762 47.6659C61.3231 47.7135 61.0898 47.6644 60.8764 47.5186C60.6629 47.3727 60.5324 47.1732 60.4848 46.9201L59.1946 40.0612C59.147 39.8081 59.1961 39.5748 59.342 39.3614C59.496 39.1464 59.7159 39.0121 60.0016 38.9583C60.2874 38.9045 60.537 38.9506 60.7505 39.0964C60.9721 39.2407 61.1067 39.4394 61.1543 39.6925L62.2717 45.6328L64.3538 45.2411L63.2364 39.3008C63.1888 39.0477 63.2379 38.8144 63.3838 38.601C63.5378 38.386 63.7577 38.2516 64.0435 38.1979C64.3292 38.1441 64.5788 38.1901 64.7923 38.336C65.0139 38.4803 65.1485 38.679 65.1961 38.9321L66.3135 44.8724L68.3956 44.4806L67.2782 38.5404C67.2306 38.2872 67.2797 38.054 67.4256 37.8405C67.5796 37.6256 67.7995 37.4912 68.0853 37.4374C68.3711 37.3837 68.6207 37.4297 68.8341 37.5755C69.0557 37.7198 69.1903 37.9185 69.2379 38.1717L70.3553 44.1119L70.6003 44.0659C70.8534 44.0182 71.0867 44.0673 71.3001 44.2132C71.5135 44.359 71.644 44.5585 71.6917 44.8116L71.9681 46.2814Z" fill="url(#paint4_radial_94_3708)"/>
<path d="M76.3047 43.7545C76.5618 43.7381 76.7873 43.8153 76.9814 43.986C77.1754 44.1568 77.2807 44.3707 77.297 44.6278C77.3134 44.8848 77.2362 45.1104 77.0655 45.3044C76.8947 45.4985 76.6808 45.6037 76.4237 45.6202L73.0034 45.8387C72.7464 45.8551 72.5208 45.7779 72.3268 45.6072C72.1327 45.4364 72.0275 45.2225 72.0111 44.9655L71.5749 38.1248C71.5585 37.8678 71.6357 37.6422 71.8065 37.4482C71.9772 37.2541 72.1911 37.1488 72.4482 37.1324L75.7441 36.9218C76.0011 36.9054 76.2267 36.9826 76.4207 37.1533C76.6148 37.3241 76.72 37.538 76.7364 37.7951C76.7528 38.0521 76.6756 38.2777 76.5048 38.4717C76.334 38.6658 76.1201 38.771 75.8631 38.7875L73.6243 38.9305L73.7219 40.4603L75.5875 40.3411C75.8446 40.3247 76.0701 40.4019 76.2642 40.5726C76.4582 40.7434 76.5634 40.9573 76.5798 41.2143C76.5962 41.4714 76.519 41.6969 76.3482 41.891C76.1775 42.0851 75.9636 42.1903 75.7065 42.2068L73.8409 42.326L73.9416 43.9055L76.3047 43.7545Z" fill="url(#paint5_radial_94_3708)"/>
<path d="M80.3902 38.8432L80.2412 44.8859C80.2349 45.1433 80.1339 45.3611 79.9384 45.5392C79.7511 45.7174 79.5122 45.803 79.2214 45.7959C78.9307 45.7887 78.6921 45.6915 78.5056 45.5041C78.3274 45.3169 78.2414 45.0945 78.2478 44.837L78.4198 37.86C78.4262 37.6025 78.523 37.3846 78.7102 37.2064C78.8975 37.0281 79.1198 36.9421 79.3773 36.9484L82.4921 37.0247C82.7496 37.031 82.9674 37.1278 83.1457 37.315C83.3239 37.5022 83.4098 37.7246 83.4035 37.982C83.3971 38.2395 83.3003 38.4574 83.1131 38.6357C82.9258 38.8139 82.7035 38.8999 82.446 38.8936L80.3902 38.8432Z" fill="url(#paint6_radial_94_3708)"/>
<path d="M87.3875 46.4169C86.7296 46.3222 86.1359 46.1318 85.6063 45.8457C85.0768 45.5597 84.6342 45.1938 84.2788 44.7481C83.9233 44.3024 83.6702 43.7875 83.5193 43.2034C83.3685 42.6192 83.3429 41.9818 83.4425 41.291C83.5326 40.666 83.7278 40.0982 84.0281 39.5874C84.3284 39.0766 84.705 38.6481 85.1578 38.302C85.6189 37.957 86.1456 37.7097 86.738 37.5599C87.3387 37.4113 87.9844 37.3868 88.6752 37.4862C89.3331 37.5809 89.9268 37.7713 90.4564 38.0574C90.986 38.3434 91.4285 38.7093 91.784 39.155C92.1394 39.6007 92.3926 40.1156 92.5434 40.6997C92.6942 41.2838 92.7198 41.9213 92.6202 42.6121C92.5254 43.2699 92.3231 43.8578 92.0134 44.3756C91.7049 44.8852 91.3166 45.3078 90.8485 45.6434C90.3804 45.9789 89.8507 46.2174 89.2595 46.359C88.6694 46.4923 88.0454 46.5116 87.3875 46.4169ZM88.4084 39.3365C88.0466 39.2844 87.7046 39.2981 87.3825 39.3777C87.0605 39.4572 86.7718 39.5962 86.5166 39.7945C86.2613 39.9928 86.0489 40.2434 85.8793 40.5463C85.7097 40.8493 85.5965 41.1981 85.5396 41.5929C85.4862 41.9629 85.5022 42.3178 85.5875 42.6574C85.6729 42.9971 85.8094 43.3022 85.997 43.5726C86.1859 43.8348 86.423 44.0536 86.7083 44.229C86.9936 44.4044 87.3089 44.5169 87.6543 44.5666C88.0655 44.6258 88.4327 44.6115 88.756 44.5237C89.0886 44.4289 89.3744 44.2812 89.6132 44.0805C89.8614 43.8728 90.062 43.6163 90.2152 43.311C90.3683 43.0056 90.471 42.672 90.5232 42.3102C90.5801 41.9155 90.5659 41.5483 90.4805 41.2086C90.4034 40.8702 90.2663 40.5692 90.0693 40.3058C89.8804 40.0436 89.6427 39.8289 89.3563 39.6618C89.0698 39.4946 88.7538 39.3862 88.4084 39.3365Z" fill="url(#paint7_radial_94_3708)"/>
<path d="M36.8016 38.4738C36.5569 38.5975 36.3283 38.6245 36.116 38.555C35.9036 38.4854 35.7429 38.3432 35.6338 38.1284C35.5548 37.9728 35.5203 37.804 35.5304 37.6221C35.5442 37.4289 35.6193 37.2281 35.7556 37.0195C35.9141 36.7626 36.1375 36.5054 36.4261 36.2479C36.7221 35.9866 37.0369 35.7717 37.3706 35.603C37.7191 35.4269 38.0625 35.3139 38.4006 35.2641C38.7461 35.2105 39.0734 35.222 39.3825 35.2985C39.6878 35.3677 39.9694 35.5093 40.2272 35.7235C40.4851 35.9376 40.7042 36.2225 40.8848 36.5781C41.0277 36.8596 41.1003 37.186 41.1024 37.5573C41.1046 37.9285 40.9879 38.3226 40.7523 38.7396C41.2985 38.6591 41.7507 38.7331 42.109 38.9616C42.4674 39.1901 42.7594 39.5267 42.9851 39.9712C43.1656 40.3268 43.2477 40.6902 43.2312 41.0616C43.2184 41.4218 43.1294 41.7694 42.964 42.1043C42.806 42.4355 42.5884 42.7409 42.3111 43.0207C42.03 43.293 41.7153 43.5172 41.3667 43.6934C41.0701 43.8432 40.7863 43.9541 40.5152 44.0259C40.2554 44.1013 40.0158 44.1526 39.7966 44.1796C39.5736 44.1992 39.3783 44.2001 39.2109 44.1823C39.0435 44.1645 38.9094 44.1391 38.8088 44.1062C38.5555 44.0294 38.3691 43.9467 38.2496 43.8582C38.1337 43.7585 38.042 43.6419 37.9743 43.5086C37.8501 43.2641 37.8395 43.0414 37.9425 42.8404C38.0454 42.6394 38.1933 42.4902 38.3861 42.3928C38.5196 42.3254 38.6607 42.2913 38.8095 42.2906C38.9656 42.2862 39.1292 42.2873 39.3003 42.2939C39.4677 42.2931 39.6443 42.283 39.8301 42.2636C40.0233 42.2404 40.2275 42.1745 40.4425 42.0658C40.5612 42.0059 40.6779 41.9329 40.7926 41.847C40.9111 41.7499 41.0072 41.6455 41.0809 41.5338C41.1508 41.4147 41.1929 41.2864 41.2069 41.1489C41.2247 41.0003 41.194 40.8483 41.115 40.6927C40.9984 40.463 40.8098 40.321 40.5492 40.2665C40.2886 40.212 39.9469 40.2915 39.5242 40.5051C39.2499 40.6438 38.9898 40.6821 38.744 40.6201C38.5019 40.547 38.3131 40.3771 38.1777 40.1104C38.046 39.8511 38.026 39.6099 38.1177 39.3867C38.2168 39.1597 38.4035 38.9769 38.6779 38.8383C38.9152 38.7184 39.0946 38.5579 39.2162 38.3568C39.3339 38.1484 39.3308 37.9219 39.2066 37.6774C39.0825 37.433 38.9088 37.2927 38.6854 37.2566C38.4695 37.2167 38.2355 37.2605 37.9834 37.3879C37.8277 37.4666 37.698 37.56 37.5946 37.6682C37.4947 37.7652 37.4023 37.8677 37.3174 37.9758C37.2362 38.0727 37.1549 38.1696 37.0737 38.2665C36.9961 38.3523 36.9054 38.4214 36.8016 38.4738Z" fill="url(#paint8_radial_94_3708)"/>
<path d="M43.7967 32.6661C44.2794 32.4637 44.7119 32.3455 45.0942 32.3114C45.4809 32.2664 45.8202 32.2908 46.1121 32.3847C46.4084 32.4677 46.658 32.6108 46.8607 32.8141C47.0634 33.0174 47.2228 33.2569 47.3388 33.5326C47.516 33.9538 47.5854 34.3436 47.547 34.7021C47.5162 35.0573 47.3933 35.3972 47.1782 35.7215C47.3496 35.7218 47.5252 35.7428 47.705 35.7845C47.8848 35.8262 48.0606 35.9012 48.2323 36.0094C48.404 36.1176 48.5641 36.2622 48.7124 36.4433C48.8651 36.6135 48.9963 36.8288 49.1058 37.0892C49.2831 37.5104 49.3611 37.9101 49.34 38.2883C49.3157 38.6589 49.2091 39.0054 49.0202 39.3278C48.8314 39.6502 48.5702 39.9398 48.2366 40.1968C47.9107 40.4505 47.5294 40.6689 47.0926 40.852C46.8704 40.9451 46.6312 41.0409 46.3751 41.1392C46.1223 41.2452 45.8755 41.3442 45.6347 41.4361C45.5198 41.4843 45.3974 41.504 45.2675 41.4954C45.1454 41.4835 45.026 41.457 44.9095 41.4157C44.7974 41.3636 44.6975 41.2974 44.6096 41.2171C44.5185 41.1292 44.4488 41.0278 44.4005 40.9129L41.7467 34.6065C41.6468 34.3691 41.6457 34.1308 41.7434 33.8916C41.8378 33.6448 42.0022 33.4678 42.2365 33.3606C42.4753 33.2425 42.7326 33.1256 43.0084 33.01C43.2811 32.8867 43.5438 32.7721 43.7967 32.6661ZM45.8673 39.2575C45.935 39.2471 46.0142 39.232 46.105 39.2119C46.2034 39.1887 46.3407 39.1402 46.5169 39.0663C46.8771 38.9153 47.1163 38.734 47.2345 38.5223C47.3495 38.3029 47.3522 38.063 47.2427 37.8026C47.1428 37.5652 47.0029 37.4256 46.8231 37.3839C46.6509 37.339 46.4513 37.3145 46.2243 37.3106L46.1294 37.3098C45.9657 37.3064 45.8038 37.2751 45.6437 37.2161C45.4881 37.1462 45.3652 37.004 45.275 36.7896C45.1815 36.5675 45.1713 36.3826 45.2443 36.2349C45.3218 36.0763 45.4096 35.9314 45.5076 35.8002L45.5688 35.7205C45.6579 35.6111 45.7275 35.4873 45.7776 35.3492C45.8276 35.2111 45.7979 35.0119 45.6883 34.7515C45.5852 34.5064 45.4175 34.365 45.1853 34.3272C44.9498 34.2818 44.721 34.3056 44.4988 34.3988C44.3838 34.447 44.2858 34.4925 44.2047 34.5355C44.1313 34.5753 44.0442 34.6253 43.9434 34.6856L45.8673 39.2575Z" fill="url(#paint9_radial_94_3708)"/>
<path d="M54.2892 36.1468C54.5331 36.0641 54.7711 36.08 55.003 36.1944C55.2349 36.3088 55.3923 36.488 55.4751 36.7319C55.558 36.9757 55.5423 37.2135 55.4279 37.4453C55.3136 37.677 55.1345 37.8342 54.8905 37.9169L51.6446 39.0167C51.4006 39.0994 51.1627 39.0835 50.9308 38.9691C50.6988 38.8547 50.5415 38.6756 50.4586 38.4317L48.2537 31.9414C48.1709 31.6976 48.1866 31.4598 48.3009 31.228C48.4152 30.9963 48.5944 30.8391 48.8383 30.7564L51.9663 29.6966C52.2102 29.6139 52.4481 29.6298 52.6801 29.7442C52.912 29.8586 53.0694 30.0377 53.1522 30.2816C53.2351 30.5255 53.2193 30.7633 53.105 30.995C52.9907 31.2268 52.8115 31.384 52.5676 31.4666L50.443 32.1865L50.9361 33.638L52.7066 33.0381C52.9505 32.9554 53.1885 32.9713 53.4204 33.0857C53.6523 33.2001 53.8097 33.3793 53.8925 33.6231C53.9754 33.867 53.9596 34.1048 53.8453 34.3365C53.731 34.5683 53.5519 34.7255 53.3079 34.8081L51.5374 35.4081L52.0465 36.9067L54.2892 36.1468Z" fill="url(#paint10_radial_94_3708)"/>
<path d="M55.7344 30.8263C55.4689 30.8949 55.24 30.8725 55.0476 30.7591C54.8553 30.6458 54.729 30.4725 54.6687 30.2392C54.625 30.0703 54.6276 29.8979 54.6766 29.7222C54.7316 29.5364 54.848 29.3562 55.026 29.1815C55.2358 28.9642 55.5093 28.7606 55.8463 28.5705C56.1914 28.3784 56.545 28.2356 56.907 28.142C57.2851 28.0444 57.6445 28.0073 57.9853 28.0308C58.3341 28.0523 58.6511 28.1334 58.9364 28.2742C59.2196 28.407 59.464 28.6056 59.6697 28.87C59.8753 29.1344 60.028 29.4596 60.1279 29.8457C60.2069 30.1514 60.2075 30.4859 60.1298 30.8492C60.0521 31.2126 59.8535 31.5728 59.5339 31.93C60.0843 31.968 60.5099 32.1369 60.8106 32.4368C61.1112 32.7367 61.3239 33.128 61.4487 33.6107C61.5485 33.9968 61.5505 34.3696 61.4546 34.729C61.3647 35.0783 61.203 35.399 60.9695 35.691C60.7441 35.9809 60.466 36.233 60.1352 36.4471C59.8023 36.6533 59.4469 36.8052 59.0688 36.9029C58.747 36.986 58.4461 37.0337 58.1661 37.046C57.8962 37.0642 57.6513 37.0631 57.4315 37.0427C57.2096 37.0142 57.0188 36.9734 56.8592 36.9202C56.6995 36.867 56.5742 36.8136 56.4831 36.7599C56.2523 36.6308 56.0881 36.5101 55.9905 36.398C55.8988 36.2758 55.8343 36.1423 55.7968 35.9976C55.7282 35.7321 55.7657 35.5122 55.9094 35.3377C56.0532 35.1633 56.2296 35.0491 56.4387 34.995C56.5835 34.9576 56.7286 34.9545 56.874 34.9856C57.0273 35.0146 57.1868 35.0506 57.3524 35.0937C57.5159 35.1287 57.6905 35.1565 57.8761 35.1772C58.0697 35.1958 58.2831 35.175 58.5164 35.1148C58.6451 35.0815 58.7747 35.0352 58.9053 34.9757C59.0417 34.9061 59.158 34.8246 59.254 34.7311C59.3479 34.6297 59.4165 34.5132 59.4597 34.3819C59.509 34.2405 59.5118 34.0853 59.4681 33.9164C59.4037 33.667 59.2501 33.4879 59.0074 33.3789C58.7647 33.27 58.4141 33.2748 57.9555 33.3932C57.6579 33.4701 57.3958 33.452 57.1691 33.3389C56.9485 33.2157 56.8007 33.0093 56.7259 32.7198C56.6531 32.4382 56.6854 32.1982 56.8229 31.9996C56.9684 31.799 57.19 31.6602 57.4876 31.5833C57.7451 31.5168 57.9547 31.3983 58.1166 31.2277C58.2764 31.0492 58.322 30.8271 58.2533 30.5617C58.1847 30.2962 58.0453 30.122 57.835 30.039C57.6328 29.954 57.395 29.9468 57.1215 30.0174C56.9525 30.0611 56.8059 30.1247 56.6816 30.2083C56.5633 30.2817 56.4511 30.3622 56.345 30.4497C56.2449 30.5271 56.1447 30.6044 56.0446 30.6818C55.9504 30.749 55.847 30.7972 55.7344 30.8263Z" fill="url(#paint11_radial_94_3708)"/>
<path d="M64.1242 35.589L64.2137 36.1427C64.2548 36.3969 64.1998 36.6289 64.0485 36.8387C63.8973 37.0484 63.6945 37.1739 63.4403 37.2152C63.1861 37.2565 62.9541 37.2015 62.7445 37.0504C62.5349 36.8992 62.4096 36.6965 62.3685 36.4423L62.1277 34.9536C62.0866 34.6993 62.1382 34.4721 62.2826 34.2719C62.4338 34.0622 62.6407 33.936 62.9031 33.8934C62.9679 33.7734 63.0433 33.5634 63.1295 33.2632C63.2156 32.963 63.2857 32.5897 63.3397 32.1432C63.402 31.6954 63.4365 31.1806 63.4434 30.5987C63.449 30.0085 63.4111 29.3581 63.3299 28.6474L63.2375 27.8418C63.2114 27.5766 63.2747 27.3433 63.4273 27.1418C63.5785 26.932 63.7853 26.8058 64.0478 26.7632L67.8244 26.1501C68.0786 26.1088 68.3106 26.1637 68.5202 26.3149C68.7298 26.466 68.8551 26.6687 68.8962 26.923L69.8413 32.7669L70.0873 32.7269C70.3416 32.6857 70.5735 32.7406 70.7831 32.8917C70.9927 33.0429 71.118 33.2456 71.1592 33.4999L71.3979 34.9762C71.439 35.2305 71.384 35.4625 71.2327 35.6722C71.0815 35.882 70.8787 36.0075 70.6245 36.0487C70.3703 36.09 70.1383 36.0351 69.9287 35.8839C69.7191 35.7328 69.5938 35.5301 69.5526 35.2758L69.4631 34.7222L64.1242 35.589ZM67.873 33.0865L67.0772 28.1653L65.3303 28.4489L65.4298 29.9226C65.4567 30.297 65.4637 30.6789 65.4509 31.0682C65.4368 31.4492 65.4105 31.807 65.372 32.1415C65.3404 32.4665 65.2946 32.756 65.2347 33.0098C65.1816 33.2541 65.1261 33.4314 65.0682 33.5419L67.873 33.0865Z" fill="url(#paint12_radial_94_3708)"/>
<path d="M77.195 32.2615L73.7443 32.3641L73.2581 33.7002C73.1887 33.8934 73.0767 34.0505 72.9222 34.1715C72.7676 34.2924 72.5741 34.3564 72.3416 34.3633C72.0841 34.3709 71.8699 34.29 71.6989 34.1205C71.5362 33.9508 71.4517 33.7497 71.4451 33.5171C71.4412 33.3759 71.4587 33.259 71.4977 33.1665L74.1219 26.2559C74.23 25.9617 74.3816 25.7328 74.5765 25.5691C74.7711 25.397 75.0221 25.3065 75.3294 25.2973C75.645 25.288 75.8963 25.3595 76.0834 25.5118C76.2706 25.6642 76.4305 25.8839 76.5632 26.1709L79.5544 32.8149C79.6077 32.938 79.6361 33.0618 79.6396 33.1864C79.6468 33.4438 79.5617 33.6708 79.3844 33.8672C79.207 34.0637 78.9772 34.1661 78.6948 34.1745C78.4706 34.1812 78.2738 34.1288 78.1044 34.0175C77.9434 33.9059 77.8228 33.7557 77.7427 33.5669L77.195 32.2615ZM75.3545 27.9773L74.4394 30.4732L76.3952 30.4151L75.3545 27.9773Z" fill="url(#paint13_radial_94_3708)"/>
<path d="M53.7246 64.1272C52.2231 65.2484 51.4767 64.88 50.5791 63.6824L49.4195 62.1407C48.2982 60.6392 48.6666 59.8928 49.8642 58.9952L51.4059 57.8355C52.9075 56.7143 53.6538 57.0827 54.5515 58.2803L55.7111 59.822C56.8324 61.3235 56.4639 62.0699 55.2664 62.9675L53.7246 64.1272Z" fill="#FF4F3E"/>
<path d="M61.2815 61.7999C63.1536 61.8824 63.5635 61.1579 63.6321 59.6629L63.7237 57.7359C63.8062 55.8637 63.0817 55.4538 61.5867 55.3853L59.6597 55.2937C57.7875 55.2112 57.3776 55.9356 57.3091 57.4307L57.2174 59.3577C57.1349 61.2298 57.8594 61.6397 59.3545 61.7083L61.2815 61.7999Z" fill="#FABC22"/>
<path d="M69.5342 59.2557C68.035 60.3846 67.2863 60.0085 66.3888 58.8116L65.2295 57.2707C64.1084 55.7701 64.477 55.024 65.6746 54.1266L67.2164 52.9672C68.7181 51.8463 69.4643 52.2144 70.3618 53.4113L71.5212 54.9522C72.6422 56.4529 72.2736 57.199 71.076 58.0964L69.5342 59.2557Z" fill="#06C92E"/>
<path d="M77.092 56.9317C78.9642 57.0142 79.374 56.2898 79.4426 54.7947L79.5342 52.8677C79.6167 50.9955 78.8923 50.5857 77.3972 50.5171L75.4702 50.4255C73.598 50.343 73.1882 51.0675 73.1196 52.5625L73.028 54.4895C72.9455 56.3617 73.6699 56.7716 75.165 56.8401L77.092 56.9317Z" fill="#00C2FC"/>
<path d="M86.8594 58.4656L86.8594 58.4656C86.8302 58.1248 87.0113 57.8119 87.315 57.5725L87.3161 57.5717L87.3161 57.5717C87.647 57.3153 88.1006 57.1575 88.5905 57.1159L88.5911 57.1159C89.1572 57.0696 89.7031 57.1845 90.0858 57.4543L90.0898 57.4571C90.118 57.4769 90.158 57.5051 90.1941 57.5399L91.398 53.3462L91.3993 53.3417L91.3994 53.3417C91.4342 53.2316 91.5334 53.1521 91.6544 53.1488L91.6572 53.1487L91.6572 53.1488L96.0976 53.1016C96.1546 53.1004 96.2113 53.1164 96.2594 53.1503C96.2596 53.1505 96.2599 53.1507 96.2604 53.151C96.2668 53.1553 96.298 53.1761 96.3229 53.213C96.3729 53.2809 96.3886 53.3696 96.3638 53.4503L94.9641 58.3381C94.8984 58.6525 94.6687 58.9152 94.3685 59.1038C94.0638 59.2953 93.6701 59.4219 93.243 59.4577L93.2428 59.4577C92.7834 59.4956 92.3323 59.4263 91.9707 59.2544L91.9697 59.2539C91.8887 59.2148 91.8114 59.1695 91.7417 59.1203C91.4887 58.9419 91.3264 58.6997 91.2993 58.419L91.2992 58.4181C91.2657 58.053 91.4726 57.7226 91.8133 57.48L91.8135 57.4799C92.1369 57.2502 92.5712 57.1053 93.033 57.0686C93.5984 57.0225 94.1456 57.1353 94.5286 57.4053L94.5326 57.4081C94.5608 57.4279 94.6007 57.4561 94.6369 57.4909L95.739 53.6517L91.8664 53.6918L90.5226 58.3853C90.4569 58.6998 90.2272 58.9624 89.927 59.151C89.6223 59.3425 89.2286 59.4691 88.8014 59.5049L88.8013 59.5049C88.3419 59.5428 87.8908 59.4735 87.5291 59.3016L87.5282 59.3012C87.4479 59.2624 87.3712 59.2175 87.302 59.1688L86.8594 58.4656ZM86.8594 58.4656L86.8596 58.4675C86.8867 58.7475 87.0482 58.9893 87.3002 59.1675L86.8594 58.4656ZM88.7726 59.1326C89.5811 59.0664 90.2059 58.6415 90.1656 58.1872C90.1544 58.0722 90.1011 57.9629 90.0091 57.8653L89.9171 57.9958L89.8239 57.9301M88.7726 59.1326L89.8751 57.7532L89.7761 57.8937C89.7931 57.9057 89.8091 57.9179 89.8239 57.9301M88.7726 59.1326C88.3772 59.1666 87.984 59.1051 87.6928 58.9645L88.7726 59.1326ZM89.8239 57.9301C89.9348 58.0216 89.9836 58.1171 89.9923 58.2033C90.004 58.3394 89.9175 58.5066 89.6896 58.6614C89.4665 58.8129 89.1383 58.928 88.7584 58.9591L88.7577 58.9592C88.3867 58.9911 88.0262 58.9321 87.7688 58.8079C87.7121 58.7801 87.6626 58.7518 87.6217 58.723C87.4745 58.6192 87.4143 58.5112 87.4061 58.4174L87.4061 58.4172C87.394 58.2809 87.4804 58.1134 87.7087 57.9583C87.9319 57.8068 88.2601 57.6918 88.64 57.6606L88.6406 57.6606C89.1016 57.6211 89.525 57.7194 89.7748 57.8955L89.8239 57.9301ZM94.2176 57.8465L94.2667 57.8811C94.3776 57.9726 94.4264 58.0681 94.4351 58.1543C94.4468 58.2904 94.3603 58.4576 94.1324 58.6124C93.9093 58.7639 93.5811 58.879 93.2011 58.9101L93.2004 58.9102C92.8295 58.942 92.4691 58.8831 92.2117 58.7589C92.1549 58.7311 92.1055 58.7028 92.0645 58.674C91.9173 58.5702 91.8571 58.4621 91.8489 58.3684L91.8488 58.3674C91.8374 58.245 91.9102 58.0838 92.135 57.9241C92.3687 57.7596 92.7132 57.6418 93.0827 57.6116L93.0834 57.6116C93.5444 57.5721 93.9678 57.6704 94.2176 57.8465Z" fill="#0647C7" stroke="#0647C7" stroke-width="0.348123"/>
<path d="M40.0843 73.9424C39.7061 73.4924 39.4423 72.8705 39.3308 72.1971C39.2193 71.5235 39.268 70.8501 39.482 70.2976L39.4823 70.2968C39.5621 70.0927 39.6651 69.9061 39.7915 69.7454L33.3501 68.4623C33.1394 68.4214 33.0159 68.2182 33.0547 68.0207L33.056 68.0142L33.056 68.0142C33.0789 67.9113 33.1385 67.8416 33.1866 67.8027C33.2772 67.7295 33.3868 67.7074 33.4866 67.7229L33.4978 67.7247L33.4977 67.7249L40.9615 69.2154C41.4322 69.2723 41.8447 69.5788 42.156 69.9967C42.4722 70.4213 42.7038 70.9849 42.807 71.6092C42.898 72.1585 42.8791 72.7008 42.7621 73.17C42.6459 73.6357 42.427 74.0505 42.0994 74.3156C41.926 74.4559 41.7283 74.5491 41.5123 74.5842C40.9839 74.6747 40.4765 74.4097 40.0843 73.9424ZM40.0843 73.9424L40.2557 73.7985L40.0843 73.9424ZM40.9014 69.9652C41.0809 69.9952 41.3238 70.1406 41.5531 70.444C41.7788 70.7428 41.9753 71.1756 42.0668 71.7315L42.0669 71.7319C42.1411 72.1784 42.126 72.6073 42.0405 72.9633C41.954 73.3232 41.8018 73.5854 41.6227 73.7303C41.5437 73.7942 41.4644 73.8289 41.3906 73.8413L41.3898 73.8414C41.2527 73.8649 41.118 73.8264 40.9865 73.7464C40.8536 73.6656 40.7409 73.552 40.6627 73.4589L40.6623 73.4585C40.3812 73.125 40.1695 72.6348 40.0764 72.0733C39.9834 71.5131 40.0274 70.9804 40.1859 70.5708C40.2511 70.404 40.3583 70.2029 40.5113 70.0791L40.5573 70.0419C40.6208 69.9993 40.6854 69.9734 40.7491 69.9622C40.7838 69.9573 40.8254 69.9565 40.8787 69.9633L40.8937 69.9651L40.9014 69.9652Z" fill="#0647C7" stroke="#0647C7" stroke-width="0.53"/>
<defs>
<radialGradient id="paint0_radial_94_3708" cx="0" cy="0" r="1" gradientUnits="userSpaceOnUse" gradientTransform="translate(33.5893 55.054) rotate(57.4137) scale(7.76176 3.88088)">
<stop stop-color="#FFE4AD"/>
<stop offset="1" stop-color="#FABC22"/>
</radialGradient>
<radialGradient id="paint1_radial_94_3708" cx="0" cy="0" r="1" gradientUnits="userSpaceOnUse" gradientTransform="translate(39.9797 51.3914) rotate(62.4151) scale(7.76176 4.27555)">
<stop stop-color="#FFE4AD"/>
<stop offset="1" stop-color="#FABC22"/>
</radialGradient>
<radialGradient id="paint2_radial_94_3708" cx="0" cy="0" r="1" gradientUnits="userSpaceOnUse" gradientTransform="translate(47.7022 47.8218) rotate(67.5053) scale(7.76176 4.80177)">
<stop stop-color="#FFE4AD"/>
<stop offset="1" stop-color="#FABC22"/>
</radialGradient>
<radialGradient id="paint3_radial_94_3708" cx="0" cy="0" r="1" gradientUnits="userSpaceOnUse" gradientTransform="translate(55.4384 45.0452) rotate(72.6613) scale(7.76176 4.27555)">
<stop stop-color="#FFE4AD"/>
<stop offset="1" stop-color="#FABC22"/>
</radialGradient>
<radialGradient id="paint4_radial_94_3708" cx="0" cy="0" r="1" gradientUnits="userSpaceOnUse" gradientTransform="translate(65.1069 42.689) rotate(79.3468) scale(7.76176 6.44621)">
<stop stop-color="#FFE4AD"/>
<stop offset="1" stop-color="#FABC22"/>
</radialGradient>
<radialGradient id="paint5_radial_94_3708" cx="0" cy="0" r="1" gradientUnits="userSpaceOnUse" gradientTransform="translate(74.2919 41.5095) rotate(86.3509) scale(7.76176 3.61777)">
<stop stop-color="#FFE4AD"/>
<stop offset="1" stop-color="#FABC22"/>
</radialGradient>
<radialGradient id="paint6_radial_94_3708" cx="0" cy="0" r="1" gradientUnits="userSpaceOnUse" gradientTransform="translate(80.4331 41.4614) rotate(91.4128) scale(7.76176 3.22311)">
<stop stop-color="#FFE4AD"/>
<stop offset="1" stop-color="#FABC22"/>
</radialGradient>
<radialGradient id="paint7_radial_94_3708" cx="0" cy="0" r="1" gradientUnits="userSpaceOnUse" gradientTransform="translate(88.0748 42.0828) rotate(98.2044) scale(7.76176 5.19643)">
<stop stop-color="#FFE4AD"/>
<stop offset="1" stop-color="#FABC22"/>
</radialGradient>
<radialGradient id="paint8_radial_94_3708" cx="0" cy="0" r="1" gradientUnits="userSpaceOnUse" gradientTransform="translate(39.6201 39.6598) rotate(63.0804) scale(7.76176 3.68354)">
<stop stop-color="#FFE4AD"/>
<stop offset="1" stop-color="#FABC22"/>
</radialGradient>
<radialGradient id="paint9_radial_94_3708" cx="0" cy="0" r="1" gradientUnits="userSpaceOnUse" gradientTransform="translate(45.6638 36.8013) rotate(67.1786) scale(7.76176 3.88088)">
<stop stop-color="#FFE4AD"/>
<stop offset="1" stop-color="#FABC22"/>
</radialGradient>
<radialGradient id="paint10_radial_94_3708" cx="0" cy="0" r="1" gradientUnits="userSpaceOnUse" gradientTransform="translate(51.7601 34.5027) rotate(71.236) scale(7.76176 3.61777)">
<stop stop-color="#FFE4AD"/>
<stop offset="1" stop-color="#FABC22"/>
</radialGradient>
<radialGradient id="paint11_radial_94_3708" cx="0" cy="0" r="1" gradientUnits="userSpaceOnUse" gradientTransform="translate(58.2308 32.5875) rotate(75.5058) scale(7.76176 3.68355)">
<stop stop-color="#FFE4AD"/>
<stop offset="1" stop-color="#FABC22"/>
</radialGradient>
<radialGradient id="paint12_radial_94_3708" cx="0" cy="0" r="1" gradientUnits="userSpaceOnUse" gradientTransform="translate(66.219 30.9552) rotate(80.8141) scale(7.76176 4.80177)">
<stop stop-color="#FFE4AD"/>
<stop offset="1" stop-color="#FABC22"/>
</radialGradient>
<radialGradient id="paint13_radial_94_3708" cx="0" cy="0" r="1" gradientUnits="userSpaceOnUse" gradientTransform="translate(76.534 29.8739) rotate(88.3966) scale(7.76176 5.52532)">
<stop stop-color="#FFE4AD"/>
<stop offset="1" stop-color="#FABC22"/>
</radialGradient>
</defs>
</svg>
