<svg width="421" height="346" viewBox="0 0 421 346" fill="none" xmlns="http://www.w3.org/2000/svg">
<g clip-path="url(#clip0_94_3483)">
<path d="M191.502 260.326L36.5647 105.678L70.0834 81.2882L220.04 231.82L191.502 260.326Z" fill="url(#paint0_linear_94_3483)"/>
<path d="M49.5553 66.2061L44.6405 81.3323H28.7358L41.603 90.6809L36.6881 105.807L49.5553 96.4586L62.4225 105.807L57.5077 90.6809L70.3749 81.3323H54.4701L49.5553 66.2061Z" fill="url(#paint1_radial_94_3483)"/>
<path d="M219.364 201.554L346.723 70.3832L318.988 49.5076L195.726 177.189L219.364 201.554Z" fill="url(#paint2_linear_94_3483)"/>
<path d="M335.963 37.0176L340.013 49.7629H353.119L342.516 57.6399L346.566 70.3852L335.963 62.5082L325.359 70.3852L329.409 57.6399L318.806 49.7629H331.912L335.963 37.0176Z" fill="url(#paint3_radial_94_3483)"/>
<path d="M83.419 195.408L159.178 271.87L210.716 323.534L262.254 271.87L338.013 195.408C368.422 164.924 368.422 116.362 338.013 85.8784C308.122 55.3947 259.161 55.3947 228.752 85.8784L210.716 103.959L192.679 85.8784C162.27 55.3947 113.309 55.3947 83.419 85.8784C53.0101 116.362 53.0101 164.924 83.419 195.408Z" fill="url(#paint4_radial_94_3483)"/>
<path d="M83.419 195.408L159.178 271.87L210.716 323.534L262.254 271.87L338.013 195.408C368.422 164.924 368.422 116.362 338.013 85.8784C308.122 55.3947 259.161 55.3947 228.752 85.8784L210.716 103.959L192.679 85.8784C162.27 55.3947 113.309 55.3947 83.419 85.8784C53.0101 116.362 53.0101 164.924 83.419 195.408Z" fill="url(#paint5_radial_94_3483)"/>
<path d="M140.302 95.52L182.207 137.815L210.715 166.393L239.223 137.815L281.129 95.52C297.949 78.658 297.949 51.7965 281.129 34.9345C264.595 18.0726 237.513 18.0726 220.692 34.9345L210.715 44.936L200.738 34.9345C183.918 18.0726 156.835 18.0726 140.302 34.9345C123.481 51.7965 123.481 78.658 140.302 95.52Z" fill="url(#paint6_radial_94_3483)"/>
<path d="M242.794 83.2619V67.377H250.448C251.932 67.377 253.212 67.619 254.287 68.1031C255.377 68.5872 256.218 69.2831 256.808 70.1909C257.399 71.0834 257.694 72.1424 257.694 73.3678C257.694 74.5932 257.399 75.6522 256.808 76.5448C256.218 77.4374 255.377 78.1333 254.287 78.6326C253.212 79.1167 251.932 79.3587 250.448 79.3587H245.769L248.154 77.0668V83.2619H242.794ZM248.154 77.6568L245.769 75.2286H250.108C250.85 75.2286 251.395 75.0622 251.743 74.7294C252.107 74.3966 252.288 73.9427 252.288 73.3678C252.288 72.793 252.107 72.3391 251.743 72.0063C251.395 71.6734 250.85 71.507 250.108 71.507H245.769L248.154 69.0789V77.6568Z" fill="white"/>
<path d="M233.264 73.2771H240.354V77.1348H233.264V73.2771ZM233.627 79.2226H241.581V83.2619H228.355V67.377H241.285V71.4163H233.627V79.2226Z" fill="white"/>
<path d="M211.373 83.2619V67.377H226.793V83.2619H221.509V70.3951L222.67 71.5297H215.496L216.657 70.3951V83.2619H211.373Z" fill="white"/>
<path d="M189.551 83.6644C188.278 83.6644 187.097 83.4674 186.006 83.0736C184.93 82.6646 183.991 82.0889 183.188 81.3466C182.4 80.6044 181.787 79.7257 181.347 78.7108C180.908 77.6958 180.688 76.5748 180.688 75.3478C180.688 74.1208 180.908 72.9998 181.347 71.9848C181.787 70.9699 182.4 70.0913 183.188 69.349C183.991 68.6067 184.93 68.0386 186.006 67.6448C187.097 67.2358 188.278 67.0312 189.551 67.0312C191.111 67.0312 192.49 67.3039 193.686 67.8493C194.898 68.3946 195.898 69.1823 196.686 70.2124L193.3 73.2346C192.83 72.6438 192.308 72.1893 191.732 71.8712C191.172 71.5379 190.535 71.3713 189.823 71.3713C189.263 71.3713 188.755 71.4622 188.301 71.644C187.846 71.8258 187.453 72.0909 187.119 72.4393C186.801 72.7877 186.551 73.2119 186.369 73.7118C186.188 74.1965 186.097 74.7419 186.097 75.3478C186.097 75.9538 186.188 76.5067 186.369 77.0066C186.551 77.4913 186.801 77.9079 187.119 78.2563C187.453 78.6047 187.846 78.8699 188.301 79.0516C188.755 79.2334 189.263 79.3243 189.823 79.3243C190.535 79.3243 191.172 79.1652 191.732 78.8471C192.308 78.5139 192.83 78.0518 193.3 77.461L196.686 80.4832C195.898 81.4981 194.898 82.2858 193.686 82.8463C192.49 83.3917 191.111 83.6644 189.551 83.6644Z" fill="white"/>
<path d="M198.879 72.4757C199.702 72.6866 200.345 72.7591 200.81 72.6932C201.275 72.6141 201.686 72.3308 202.044 71.8431L202.721 70.8942L203.12 70.4592L207.161 62.2549H211.701L206.106 72.6734C205.495 73.8069 204.759 74.6899 203.896 75.3226C203.047 75.942 202.104 76.2979 201.069 76.3901C200.034 76.4824 198.939 76.2979 197.784 75.8366L198.879 72.4757ZM203.06 74.1166L196.569 62.2549H201.527L205.608 70.8942L203.06 74.1166Z" fill="white"/>
<path d="M228.98 116.714C228.307 116.714 227.619 116.61 226.916 116.401C226.228 116.208 225.674 115.947 225.255 115.62L226.938 112.158C227.193 112.352 227.477 112.508 227.791 112.627C228.12 112.746 228.434 112.806 228.733 112.806C229.182 112.806 229.526 112.709 229.766 112.516C230.005 112.337 230.2 112.062 230.349 111.689L230.865 110.394L231.224 109.903L235.151 99.9424H239.953L234.904 112.404C234.455 113.521 233.932 114.392 233.333 115.017C232.75 115.642 232.092 116.081 231.359 116.334C230.641 116.588 229.848 116.714 228.98 116.714ZM230.17 112.717L224.829 99.9424H230.035L233.715 109.456L230.17 112.717Z" fill="white"/>
<path d="M218.345 112.408C216.96 112.408 215.731 112.139 214.658 111.602C213.6 111.05 212.765 110.296 212.155 109.341C211.544 108.386 211.238 107.289 211.238 106.051C211.238 104.812 211.544 103.715 212.155 102.76C212.765 101.805 213.6 101.059 214.658 100.522C215.731 99.9844 216.96 99.7158 218.345 99.7158C219.731 99.7158 220.96 99.9844 222.033 100.522C223.106 101.059 223.94 101.805 224.536 102.76C225.147 103.715 225.452 104.812 225.452 106.051C225.452 107.289 225.147 108.386 224.536 109.341C223.94 110.296 223.106 111.05 222.033 111.602C220.96 112.139 219.731 112.408 218.345 112.408ZM218.345 108.468C218.718 108.468 219.053 108.379 219.351 108.2C219.649 108.021 219.887 107.752 220.066 107.394C220.245 107.021 220.334 106.573 220.334 106.051C220.334 105.513 220.245 105.073 220.066 104.73C219.887 104.372 219.649 104.103 219.351 103.924C219.053 103.745 218.718 103.656 218.345 103.656C217.973 103.656 217.638 103.745 217.34 103.924C217.042 104.103 216.803 104.372 216.624 104.73C216.446 105.073 216.356 105.513 216.356 106.051C216.356 106.573 216.446 107.021 216.624 107.394C216.803 107.752 217.042 108.021 217.34 108.2C217.638 108.379 217.973 108.468 218.345 108.468Z" fill="white"/>
<path d="M198.495 108.221L197.394 109.317V99.9424H202.446V109.317L201.323 108.221H206.061L204.961 109.317V99.9424H209.99V112.181H189.806V99.9424H194.857V109.317L193.757 108.221H198.495Z" fill="white"/>
<path d="M219.827 97.7867L216.477 92.1967L220.542 89.836L225.769 97.7867H219.827ZM211.384 97.7867V85.6045H216.432V97.7867H211.384ZM214.958 93.7334V89.8805H219.514V93.7334H214.958ZM221.056 92.2412L216.32 91.7958L220.207 85.6045H225.523L221.056 92.2412Z" fill="white"/>
<path d="M196.036 97.8433V85.6045H201.075V91.1504L205.308 85.6045H209.966V97.8433H204.927V92.3105L200.717 97.8433H196.036Z" fill="white"/>
<path d="M189.963 97.6763V95.505L189.604 94.923V90.8042C189.604 90.2073 189.417 89.7521 189.043 89.4387C188.685 89.1253 188.094 88.9686 187.272 88.9686C186.719 88.9686 186.158 89.0582 185.59 89.2373C185.022 89.4014 184.537 89.6327 184.133 89.9312L182.519 86.5959C183.236 86.1482 184.096 85.8049 185.097 85.5662C186.099 85.3274 187.078 85.208 188.034 85.208C190.142 85.208 191.772 85.6781 192.923 86.6182C194.088 87.5584 194.671 89.0507 194.671 91.0952V97.6763H189.963ZM186.487 97.9001C185.486 97.9001 184.649 97.7285 183.976 97.3853C183.303 97.0421 182.795 96.5869 182.451 96.0198C182.107 95.4378 181.936 94.7961 181.936 94.0947C181.936 93.3038 182.137 92.6323 182.541 92.0801C182.945 91.528 183.557 91.1101 184.38 90.8266C185.217 90.543 186.271 90.4013 187.541 90.4013H190.097V92.8412H188.348C187.81 92.8412 187.414 92.9307 187.16 93.1098C186.921 93.274 186.801 93.5277 186.801 93.8709C186.801 94.1544 186.906 94.3932 187.115 94.5872C187.339 94.7663 187.638 94.8558 188.012 94.8558C188.356 94.8558 188.67 94.7663 188.954 94.5872C189.253 94.3932 189.469 94.0947 189.604 93.6918L190.254 95.1916C190.06 96.1019 189.649 96.7809 189.021 97.2286C188.393 97.6763 187.549 97.9001 186.487 97.9001Z" fill="white"/>
<path d="M166.527 97.6776L166.729 93.5817C166.819 93.5966 166.908 93.6115 166.998 93.6265C167.087 93.6265 167.17 93.6265 167.244 93.6265C167.573 93.6265 167.834 93.5668 168.028 93.4474C168.222 93.3131 168.372 93.1266 168.476 92.8879C168.596 92.6342 168.678 92.3358 168.723 91.9926C168.767 91.6344 168.797 91.2241 168.812 90.7615L168.991 85.4346H180.685V97.6776H175.622V88.3219L176.72 89.3738H172.329L173.36 88.2547L173.248 90.963C173.203 92.0672 173.106 93.0594 172.956 93.9398C172.807 94.8053 172.568 95.5439 172.24 96.1557C171.926 96.7525 171.493 97.2151 170.94 97.5434C170.403 97.8567 169.716 98.0134 168.879 98.0134C168.551 98.0134 168.185 97.9835 167.782 97.9239C167.394 97.8642 166.975 97.7821 166.527 97.6776Z" fill="white"/>
<path d="M206.979 80.937L205.018 82.891L203.684 84.2113L202.35 82.891L200.389 80.937C199.602 80.158 199.602 78.917 200.389 78.138C201.163 77.359 202.43 77.359 203.217 78.138L203.684 78.6L204.151 78.138C204.938 77.359 206.205 77.359 206.979 78.138C207.766 78.917 207.766 80.158 206.979 80.937Z" fill="#52FF00"/>
<path d="M130.266 347.506L33.2154 247.366L54.115 231.672L148.047 329.145L130.266 347.506Z" fill="url(#paint7_linear_94_3483)"/>
<path d="M41.4482 221.875L38.3537 231.679L28.3396 231.679L36.4412 237.738L33.3467 247.542L41.4482 241.483L49.5498 247.542L46.4553 237.738L54.5568 231.679L44.5428 231.679L41.4482 221.875Z" fill="url(#paint8_radial_94_3483)"/>
<path d="M109.553 67.8271L109.84 71.5944L113.607 71.881L109.84 72.1677L109.553 75.9349L109.266 72.1677L105.499 71.881L109.266 71.5944L109.553 67.8271Z" fill="white"/>
<path fill-rule="evenodd" clip-rule="evenodd" d="M359.492 220.699L365.236 214.916C367.988 212.164 367.988 207.781 365.236 205.03C362.532 202.279 358.102 202.279 355.351 205.03L353.719 206.662L352.087 205.03C349.336 202.279 344.907 202.279 342.202 205.03C341.657 205.575 341.22 206.184 340.891 206.832L190.764 356.968L207.102 373.307L359.598 220.804L359.492 220.699Z" fill="url(#paint9_radial_94_3483)"/>
<path d="M342.202 214.916L349.056 221.816L353.719 226.479L358.382 221.816L365.236 214.916C367.988 212.164 367.988 207.781 365.236 205.03C362.532 202.279 358.102 202.279 355.351 205.03L353.719 206.662L352.087 205.03C349.336 202.279 344.907 202.279 342.202 205.03C339.451 207.781 339.451 212.164 342.202 214.916Z" fill="url(#paint10_radial_94_3483)"/>
<path fill-rule="evenodd" clip-rule="evenodd" d="M366.681 273.85L366.879 274.05L371.889 268.985L379.255 261.49C382.212 258.501 382.212 253.74 379.255 250.752C376.349 247.764 371.589 247.764 368.632 250.752L366.879 252.525L365.125 250.752C362.453 248.051 358.308 247.791 355.389 249.972L355.198 249.781L290.453 314.603L308.215 332.387L366.681 273.85Z" fill="url(#paint11_radial_94_3483)"/>
<path d="M354.502 261.49L361.868 268.985L366.879 274.05L371.889 268.985L379.255 261.49C382.212 258.501 382.212 253.74 379.255 250.752C376.349 247.764 371.589 247.764 368.632 250.752L366.879 252.525L365.125 250.752C362.169 247.764 357.408 247.764 354.502 250.752C351.546 253.74 351.546 258.501 354.502 261.49Z" fill="url(#paint12_radial_94_3483)"/>
<path fill-rule="evenodd" clip-rule="evenodd" d="M376.74 297.278V327.845H376.74C376.74 327.857 376.74 327.87 376.74 327.882C376.74 336.39 302.408 343.287 210.715 343.287C119.022 343.287 44.6904 336.39 44.6904 327.882C44.6904 327.87 44.6906 327.857 44.6909 327.845H44.6904V297.278V296.872H44.7469C47.0647 288.552 120.484 281.873 210.715 281.873C300.947 281.873 374.366 288.552 376.684 296.872H376.74V297.278Z" fill="#FF0199"/>
<path fill-rule="evenodd" clip-rule="evenodd" d="M376.74 297.278V327.845H376.74C376.74 327.857 376.74 327.87 376.74 327.882C376.74 336.39 302.408 343.287 210.715 343.287C119.022 343.287 44.6904 336.39 44.6904 327.882C44.6904 327.87 44.6906 327.857 44.6909 327.845H44.6904V297.278V296.872H44.7469C47.0647 288.552 120.484 281.873 210.715 281.873C300.947 281.873 374.366 288.552 376.684 296.872H376.74V297.278Z" fill="url(#paint13_linear_94_3483)" fill-opacity="0.5"/>
<ellipse cx="210.715" cy="297.683" rx="166.025" ry="15.4048" fill="#FF0199"/>
<ellipse cx="210.715" cy="297.683" rx="166.025" ry="15.4048" fill="url(#paint14_radial_94_3483)"/>
<ellipse cx="210.715" cy="297.683" rx="166.025" ry="15.4048" fill="white" fill-opacity="0.2"/>
<g filter="url(#filter0_f_94_3483)">
<ellipse cx="206.036" cy="375.732" rx="314.987" ry="14.7967" fill="#0073E6"/>
</g>
<g filter="url(#filter1_f_94_3483)">
<ellipse cx="236.845" cy="386.272" rx="314.987" ry="14.7967" fill="#0073E6"/>
</g>
<g filter="url(#filter2_f_94_3483)">
<ellipse cx="245.359" cy="376.138" rx="314.987" ry="14.7967" fill="#0073E6"/>
</g>
<g filter="url(#filter3_f_94_3483)">
<ellipse cx="273.331" cy="366.408" rx="314.987" ry="14.7967" fill="#0073E6"/>
</g>
<g filter="url(#filter4_f_94_3483)">
<ellipse cx="59.2856" cy="390.326" rx="314.987" ry="14.7967" fill="#0073E6"/>
</g>
<g filter="url(#filter5_f_94_3483)">
<ellipse cx="-0.30719" cy="371.679" rx="314.987" ry="14.7967" fill="#0073E6"/>
</g>
<g filter="url(#filter6_f_94_3483)">
<ellipse cx="206.036" cy="372.893" rx="314.987" ry="14.7967" fill="#0073E6"/>
</g>
<g filter="url(#filter7_f_94_3483)">
<ellipse cx="236.845" cy="383.433" rx="314.987" ry="14.7967" fill="#0073E6"/>
</g>
<g filter="url(#filter8_f_94_3483)">
<ellipse cx="245.359" cy="373.299" rx="314.987" ry="14.7967" fill="#0073E6"/>
</g>
<g filter="url(#filter9_f_94_3483)">
<ellipse cx="273.331" cy="363.569" rx="314.987" ry="14.7967" fill="#0073E6"/>
</g>
<g filter="url(#filter10_f_94_3483)">
<ellipse cx="59.2856" cy="387.487" rx="314.987" ry="14.7967" fill="#0073E6"/>
</g>
<g filter="url(#filter11_f_94_3483)">
<ellipse cx="-0.30719" cy="368.84" rx="314.987" ry="14.7967" fill="#0073E6"/>
</g>
<path d="M37.7988 137.959L38.2861 144.363L44.6904 144.851L38.2861 145.338L37.7988 151.742L37.3115 145.338L30.9072 144.851L37.3115 144.363L37.7988 137.959Z" fill="url(#paint15_radial_94_3483)"/>
<path d="M37.7988 137.959L38.2861 144.363L44.6904 144.851L38.2861 145.338L37.7988 151.742L37.3115 145.338L30.9072 144.851L37.3115 144.363L37.7988 137.959Z" fill="url(#paint16_radial_94_3483)"/>
<g filter="url(#filter12_dddddd_94_3483)">
<path d="M303.469 164.695C303.16 164.557 302.918 164.36 302.74 164.109C301.922 162.961 302.792 160.99 304.684 159.714C305.937 158.869 307.324 158.512 308.411 158.758L309.063 158.905L306.174 147.696C306.151 147.597 306.19 147.498 306.275 147.447C306.455 147.339 310.724 144.849 314.372 146.477C314.766 146.653 315.144 146.877 315.496 147.135C315.547 147.174 315.58 147.227 315.588 147.286C315.595 147.345 315.58 147.405 315.546 147.456C315.48 147.538 315.363 147.569 315.264 147.525C314.907 147.265 314.563 147.067 314.206 146.908C311.442 145.674 308.216 146.987 306.956 147.607L306.664 147.749L309.779 159.863C310.206 161.081 309.302 162.759 307.639 163.881C306.189 164.86 304.551 165.178 303.469 164.695ZM308.655 159.317C307.734 158.906 306.247 159.219 304.945 160.097C304.151 160.631 303.521 161.31 303.174 162.004C302.814 162.727 302.791 163.399 303.112 163.853C303.242 164.033 303.426 164.182 303.658 164.286C304.575 164.695 306.067 164.384 307.369 163.505C309.048 162.373 309.87 160.686 309.197 159.748C309.067 159.568 308.883 159.419 308.651 159.315L308.655 159.317Z" fill="#00FFBA"/>
</g>
<g filter="url(#filter13_dddddd_94_3483)">
<path d="M281.926 205.634C282.155 205.614 282.355 205.541 282.525 205.417C283.305 204.853 283.176 203.367 282.235 202.103C281.611 201.266 280.794 200.717 280.038 200.631L279.584 200.579L283.912 193.91C283.949 193.85 283.946 193.777 283.901 193.724C283.809 193.612 281.599 191.014 278.885 191.25C278.592 191.275 278.298 191.336 278.015 191.424C277.973 191.438 277.94 191.465 277.922 191.502C277.904 191.539 277.901 191.581 277.912 191.623C277.937 191.691 278.005 191.738 278.079 191.732C278.367 191.643 278.632 191.592 278.897 191.569C280.954 191.391 282.749 192.982 283.427 193.674L283.584 193.833L278.912 201.042C278.368 201.741 278.583 203.043 279.411 204.155C280.132 205.124 281.12 205.704 281.926 205.634ZM279.757 200.941C280.442 200.881 281.334 201.424 281.982 202.294C282.377 202.823 282.636 203.41 282.707 203.943C282.78 204.497 282.648 204.941 282.341 205.165C282.218 205.253 282.066 205.309 281.893 205.324C281.211 205.383 280.316 204.841 279.668 203.97C278.832 202.849 278.672 201.56 279.312 201.099C279.436 201.011 279.587 200.955 279.761 200.94L279.757 200.941Z" fill="#00FFBA"/>
</g>
<path fill-rule="evenodd" clip-rule="evenodd" d="M106.352 256.571L106.158 256.378L98.4856 248.644C95.4058 245.56 95.4058 240.649 98.4856 237.565C101.513 234.482 106.471 234.482 109.551 237.565L111.378 239.394L113.205 237.565C116.284 234.482 121.243 234.482 124.27 237.565C124.466 237.761 124.649 237.965 124.82 238.174C125.09 238.318 125.343 238.503 125.57 238.73L153.529 266.636C154.762 267.866 154.762 269.861 153.529 271.091L139.343 285.251C138.11 286.481 136.112 286.481 134.879 285.251L106.921 257.345C106.686 257.111 106.497 256.85 106.352 256.571Z" fill="url(#paint17_linear_94_3483)" fill-opacity="0.25"/>
<g filter="url(#filter14_f_94_3483)">
<path d="M123.91 248.284L123.909 248.285L116.237 256.018L116.236 256.019L111.378 260.883L106.52 256.019L106.518 256.018L98.847 248.285L98.8458 248.284C95.9646 245.399 95.9646 240.81 98.8458 237.925L98.8458 237.925L98.8488 237.922C101.675 235.044 106.308 235.039 109.191 237.925L111.018 239.754L111.378 240.115L111.738 239.754L113.565 237.925C116.447 235.039 121.081 235.044 123.907 237.922L123.907 237.922L123.91 237.925C126.791 240.81 126.791 245.399 123.91 248.284Z" stroke="#00FFE1" stroke-width="1.01816"/>
</g>
<path d="M123.91 248.284L123.909 248.285L116.237 256.018L116.236 256.019L111.378 260.883L106.52 256.019L106.518 256.018L98.847 248.285L98.8458 248.284C95.9646 245.399 95.9646 240.81 98.8458 237.925L98.8458 237.925L98.8488 237.922C101.675 235.044 106.308 235.039 109.191 237.925L111.018 239.754L111.378 240.115L111.738 239.754L113.565 237.925C116.447 235.039 121.081 235.044 123.907 237.922L123.907 237.922L123.91 237.925C126.791 240.81 126.791 245.399 123.91 248.284Z" stroke="#00FFE1" stroke-width="1.01816"/>
<g filter="url(#filter15_f_94_3483)">
<path d="M124.073 248.446L124.072 248.447L116.4 256.18L116.399 256.181L111.378 261.208L106.356 256.181L106.356 256.18L98.6838 248.447L98.6831 248.446C95.7122 245.472 95.7122 240.737 98.6831 237.763L98.6831 237.763L98.6848 237.761C101.602 234.79 106.382 234.788 109.354 237.763L111.18 239.591L111.378 239.789L111.575 239.591L113.402 237.763C116.374 234.788 121.154 234.79 124.071 237.761L124.073 237.763C127.043 240.737 127.043 245.472 124.073 248.446Z" stroke="#96FFC0" stroke-width="0.558348"/>
</g>
<g clip-path="url(#clip1_94_3483)" filter="url(#filter16_dddddd_94_3483)">
<path d="M275.115 118.797C274.608 118.404 274.328 117.915 274.301 117.391C274.276 116.762 274.632 116.158 275.306 115.675C276.04 115.158 277.052 114.85 278.158 114.808C279.439 114.762 280.617 115.081 281.399 115.687C281.474 115.745 281.549 115.804 281.61 115.871L282.084 116.325L285.602 105.891C285.638 105.793 285.727 105.73 285.832 105.732L296.375 106.106C296.428 106.107 296.475 106.123 296.512 106.152C296.533 106.168 296.55 106.181 296.56 106.203C296.605 106.264 296.616 106.345 296.591 106.412L292.734 117.874C292.436 119.073 290.831 119.973 288.91 120.045C287.875 120.083 286.887 119.879 286.124 119.472C285.955 119.381 285.795 119.277 285.654 119.168C285.147 118.774 284.866 118.285 284.84 117.761C284.809 117.088 285.213 116.448 285.972 115.958C286.691 115.496 287.661 115.216 288.7 115.181C289.981 115.136 291.163 115.45 291.945 116.057C292.02 116.115 292.095 116.173 292.156 116.24L292.63 116.694L296.046 106.565L285.991 106.206L282.191 117.5C281.893 118.7 280.289 119.6 278.367 119.672C277.332 119.71 276.344 119.506 275.581 119.099C275.412 119.008 275.253 118.904 275.111 118.794L275.115 118.797ZM281.12 116.047C280.446 115.524 279.346 115.233 278.185 115.279C276.259 115.348 274.731 116.287 274.777 117.37C274.793 117.753 275.016 118.118 275.415 118.428C275.532 118.518 275.666 118.602 275.811 118.682C276.487 119.047 277.413 119.236 278.355 119.199C280.28 119.13 281.809 118.19 281.762 117.108C281.742 116.722 281.522 116.353 281.123 116.043L281.12 116.047ZM291.666 116.416C290.992 115.894 289.892 115.603 288.731 115.649C287.792 115.682 286.887 115.939 286.24 116.351C285.629 116.744 285.3 117.237 285.323 117.739C285.339 118.122 285.562 118.487 285.961 118.797C286.078 118.887 286.212 118.972 286.357 119.051C287.033 119.417 287.959 119.605 288.901 119.568C290.826 119.499 292.355 118.56 292.308 117.478C292.288 117.091 292.068 116.722 291.669 116.412L291.666 116.416Z" fill="#00FFBA"/>
</g>
<path d="M291.251 153.426C290.415 146.06 285.577 139.859 278.778 137.62C277.096 137.063 273.939 137.28 272.267 138.539C272.102 138.673 271.824 138.9 271.679 139.106C271.473 139.395 271.153 139.942 271.112 140.447C271.339 140.251 271.731 140.437 271.731 140.695C271.669 142.738 273.258 145.049 275.425 145.224C276.394 145.1 277.385 145.131 278.334 145.214C279.655 145.327 280.975 145.564 282.265 145.884C282.461 145.936 282.543 146.091 282.543 146.245C282.543 146.462 282.368 146.679 282.1 146.617C280.758 146.287 279.366 146.029 277.983 145.936C277.209 145.884 276.415 145.864 275.631 145.936C275.59 145.946 275.538 145.957 275.497 145.957H275.476C274.816 146.039 274.156 146.194 273.547 146.462C272.938 146.73 272.391 147.143 272.01 147.68C271.617 148.257 271.452 148.928 271.36 149.609C271.318 149.929 271.308 150.238 271.329 150.548C271.339 150.558 271.339 150.579 271.339 150.589C271.349 150.713 271.36 150.826 271.38 150.95C271.38 150.95 271.38 150.95 271.391 150.971C271.504 151.672 271.803 152.343 272.319 152.89C273.206 153.859 274.424 154.448 275.682 154.881C275.951 154.953 276.188 155.046 276.467 155.128C276.766 155.211 277.075 155.294 277.374 155.366L277.405 155.386C277.478 155.397 277.529 155.417 277.57 155.469C277.581 155.49 277.601 155.5 277.612 155.51C277.643 155.541 277.653 155.582 277.663 155.624C277.674 155.665 277.684 155.696 277.684 155.737C277.684 155.778 277.674 155.83 277.663 155.871C277.643 155.923 277.622 155.964 277.591 155.995C277.581 156.016 277.56 156.026 277.54 156.047C277.488 156.078 277.416 156.109 277.333 156.109H277.302C276.436 156.15 275.538 156.377 274.764 156.779C273.66 157.367 272.969 158.368 272.979 159.647C272.979 160.359 273.155 161.174 273.444 161.845C273.547 162.072 273.774 162.464 273.98 162.701C274.279 163.052 274.651 163.372 275.043 163.619C276.405 164.455 278.055 164.754 279.634 164.878C279.871 164.878 280.005 165.105 280.005 165.291C280.005 165.404 279.964 165.497 279.892 165.559C279.84 165.6 279.768 165.631 279.665 165.621C279.613 165.611 279.551 165.611 279.5 165.611C277.674 165.456 275.765 165.085 274.269 163.981C273.526 163.434 272.959 162.701 272.639 161.835C272.298 160.916 272.133 159.843 272.298 158.884C272.577 157.171 274.021 156.098 275.61 155.634C274.001 155.108 272.412 154.324 271.411 152.952C270.596 151.827 270.441 150.434 270.689 149.103C270.833 148.319 271.102 147.587 271.617 146.978C272.102 146.38 272.773 145.967 273.475 145.688C273.619 145.626 273.763 145.575 273.908 145.534C272.144 144.677 270.926 142.676 270.978 140.726C270.978 140.623 271.019 140.54 271.081 140.478C270.544 139.746 269.729 139.23 268.543 139.137C261.342 138.559 261.032 148.133 262.9 150.486C250.385 156.119 238.242 166.539 230.153 174.401C230.143 174.422 230.122 174.432 230.101 174.442C229.812 174.721 229.534 174.989 229.266 175.257C232.175 171.595 235.796 166.457 235.642 163.867C235.487 161.474 234.61 158.512 233.599 155.789C234.775 155.51 236.818 154.375 234.754 149.918C232.877 145.864 230.751 147.69 230.256 148.206C230.194 148.072 230.153 148.01 230.153 148.01C221.93 138.064 209.962 138.425 202.647 140.22C202.431 139.529 202.039 138.6 201.43 138.466C198.727 137.868 195.859 139.467 194.59 140.447C193.599 141.211 194.022 142.975 194.342 143.924C188.606 147.422 186.8 147.906 184.644 151.105C182.374 154.458 183.323 158.255 185.253 171.316C185.253 171.316 185.067 171.574 184.747 172.069C177.546 160.999 169.664 135.227 169.664 135.227C169.664 135.227 175.864 127.84 170.819 124.249C165.774 120.649 160.058 129.243 160.058 129.243C150.536 123.95 142.468 121.185 139.93 124.724C137.68 127.871 141.126 131.079 143.633 132.689C139.115 130.429 134.843 129.16 133.327 132.689C132.202 135.299 134.606 137.651 137.381 139.323C134.482 138.415 131.552 138.373 130.933 142.088C129.86 148.608 148.183 153.55 148.183 153.55C155.622 165.642 164.216 177.331 169.798 185.224C172.686 189.299 173.471 194.468 171.892 199.183C167.218 213.204 163.855 231.475 167.146 251.511C167.146 251.511 166.403 266.935 167.899 274.756C170.53 288.446 173.429 288.519 173.429 288.519C173.202 288.539 166.476 289.2 165.516 297.629C165.444 298.33 165.681 299.042 166.176 299.558C167.28 300.745 169.963 302.56 176.132 303.014C185.139 303.675 196.973 294.41 196.973 294.41C196.973 294.41 198.046 293.646 197.963 289.323H197.974C198.087 282.69 198.851 268.514 204.566 267.864C209.116 267.338 212.686 272.733 217.855 284.299C220.651 290.531 223.509 297.144 228.389 301.291C233.516 305.655 243.565 311.474 250.333 307.667C253.655 305.79 253.036 299.372 252.386 297.959C250.209 293.254 246.784 289.334 246.784 289.334C247.321 274.642 244.989 263.283 237.623 246.92C237.623 246.92 235.621 227.431 230.215 212.492C228.12 203.206 247.29 187.39 279.665 170.996C279.665 170.996 281.192 170.377 283.235 168.943C284.834 167.829 286.742 166.219 288.496 164.032C289.827 162.35 290.642 160.555 291.055 158.678C291.199 157.997 291.292 157.295 291.344 156.594C291.354 156.408 291.364 156.232 291.364 156.057C291.375 155.717 291.375 155.386 291.364 155.046C291.344 154.499 291.303 153.963 291.251 153.416V153.426Z" fill="#53AFFA"/>
<path d="M288.496 164.042C289.827 162.36 290.642 160.565 291.055 158.688C290.663 160.596 289.848 162.422 288.496 164.125C286.742 166.322 284.834 167.89 283.234 168.953C284.834 167.839 286.742 166.229 288.496 164.042Z" fill="url(#paint18_linear_94_3483)"/>
<path d="M291.344 156.604C291.292 157.315 291.209 158.007 291.055 158.688C291.199 158.007 291.292 157.305 291.344 156.604Z" fill="url(#paint19_linear_94_3483)"/>
<path d="M291.25 153.385C290.414 146.018 285.586 139.818 278.777 137.569C277.095 137.011 273.928 137.218 272.256 138.476C272.05 138.642 271.792 138.858 271.658 139.054C271.421 139.415 271.142 139.807 271.08 140.447C271.369 140.148 271.73 140.395 271.73 140.653C271.668 142.696 273.257 145.007 275.424 145.172C276.393 145.059 277.384 145.09 278.333 145.172C279.664 145.286 280.974 145.513 282.264 145.843C282.728 145.967 282.573 146.689 282.109 146.575C280.768 146.235 279.375 145.987 277.993 145.894C277.219 145.843 276.424 145.833 275.64 145.915C275.599 145.915 275.547 145.925 275.506 145.936H275.485C274.815 146.018 274.155 146.173 273.556 146.441C272.947 146.71 272.401 147.112 272.019 147.659C271.627 148.226 271.462 148.907 271.369 149.588C271.328 149.908 271.317 150.217 271.338 150.527C271.338 150.537 271.338 150.558 271.338 150.568C271.348 150.692 271.369 150.816 271.379 150.929C271.379 150.929 271.379 150.94 271.379 150.95C271.503 151.662 271.802 152.322 272.308 152.869C273.195 153.839 274.412 154.427 275.671 154.86C275.97 154.974 276.177 155.015 276.455 155.108C276.754 155.201 277.064 155.273 277.363 155.345C277.363 155.345 277.384 155.345 277.394 155.345C277.466 155.345 277.528 155.386 277.57 155.438C277.58 155.458 277.6 155.469 277.611 155.479C277.642 155.51 277.652 155.551 277.662 155.582C277.704 155.716 277.683 155.861 277.59 155.964C277.58 155.985 277.559 155.995 277.539 156.016C277.487 156.057 277.415 156.077 277.332 156.077H277.291C276.424 156.119 275.527 156.346 274.753 156.748C273.649 157.336 272.947 158.337 272.968 159.616C272.968 160.338 273.143 161.143 273.432 161.814C273.536 162.041 273.773 162.433 273.979 162.67C274.268 163.021 274.65 163.33 275.042 163.578C276.404 164.424 278.054 164.713 279.623 164.837C280.004 164.857 280.19 165.311 279.973 165.476C279.912 165.518 279.757 165.58 279.664 165.58C279.602 165.58 279.55 165.58 279.499 165.569C277.673 165.414 275.764 165.053 274.268 163.939C273.525 163.392 272.958 162.66 272.638 161.793C272.297 160.865 272.122 159.802 272.297 158.832C272.586 157.119 274.02 156.057 275.609 155.593C274 155.066 272.411 154.282 271.41 152.91C270.595 151.786 270.44 150.393 270.688 149.052C270.832 148.278 271.101 147.535 271.617 146.926C272.112 146.338 272.772 145.925 273.474 145.637C273.618 145.575 273.763 145.523 273.907 145.482C272.143 144.625 270.925 142.634 270.977 140.674C270.977 140.571 271.018 140.488 271.07 140.437C270.533 139.704 269.718 139.188 268.542 139.095C261.341 138.528 261.031 148.092 262.899 150.444C250.384 156.077 238.241 166.498 230.152 174.359C230.131 174.37 230.121 174.39 230.1 174.401C224.096 180.251 220.33 184.677 220.33 184.677L221.733 194.075L230.214 212.45C228.12 203.165 247.309 187.38 279.685 170.996C279.685 170.996 281.191 170.336 283.234 168.902C284.822 167.787 286.741 166.178 288.485 163.991C290.435 161.546 291.26 158.863 291.353 156.026C291.353 155.685 291.353 155.345 291.353 155.004C291.333 154.468 291.291 153.921 291.24 153.385H291.25Z" fill="url(#paint20_linear_94_3483)"/>
<path d="M277.404 155.335C277.476 155.335 277.538 155.376 277.579 155.428C277.538 155.386 277.476 155.356 277.404 155.335Z" fill="url(#paint21_linear_94_3483)"/>
<path d="M277.662 155.582C277.703 155.716 277.683 155.861 277.59 155.964C277.672 155.861 277.703 155.716 277.662 155.582Z" fill="url(#paint22_linear_94_3483)"/>
<path d="M291.364 156.016C291.281 158.884 290.456 161.608 288.496 164.073C286.742 166.261 284.833 167.829 283.244 168.902C284.833 167.787 286.752 166.178 288.496 163.991C290.445 161.546 291.271 158.863 291.364 156.026V156.016Z" fill="url(#paint23_linear_94_3483)"/>
<path d="M277.579 155.428C277.579 155.428 277.476 155.356 277.404 155.335C277.476 155.335 277.538 155.376 277.579 155.428Z" fill="#53AFFA"/>
<path d="M277.59 155.953C277.672 155.85 277.703 155.705 277.662 155.571C277.703 155.705 277.683 155.85 277.59 155.953Z" fill="#53AFFA"/>
<path d="M282.109 146.564C280.768 146.224 279.375 145.976 277.993 145.883C277.219 145.832 276.425 145.822 275.641 145.904C275.599 145.904 275.548 145.914 275.506 145.925H275.486C274.815 146.007 274.155 146.162 273.557 146.43C272.948 146.699 272.401 147.101 272.019 147.648C271.627 148.215 271.462 148.896 271.369 149.577C271.328 149.897 271.318 150.206 271.338 150.516C271.338 150.526 271.338 150.547 271.338 150.557C271.338 150.681 271.359 150.794 271.38 150.918C271.38 150.918 271.38 150.929 271.38 150.939C271.503 151.651 271.803 152.311 272.308 152.858C273.195 153.828 274.413 154.416 275.672 154.849C275.929 154.942 276.198 155.024 276.456 155.097C276.755 155.19 277.064 155.272 277.364 155.344C277.364 155.344 277.384 155.344 277.394 155.344C277.467 155.365 277.529 155.396 277.57 155.437C277.58 155.458 277.601 155.468 277.611 155.478C277.642 155.509 277.652 155.551 277.663 155.582C277.704 155.705 277.663 155.86 277.591 155.963C277.58 155.984 277.56 155.994 277.539 156.015C277.487 156.056 277.415 156.077 277.333 156.077H277.291C276.425 156.118 275.527 156.345 274.753 156.747C273.649 157.336 272.948 158.336 272.968 159.616C272.968 160.338 273.144 161.143 273.433 161.813C273.536 162.04 273.773 162.432 273.98 162.669C274.268 163.02 274.65 163.33 275.042 163.577C276.404 164.423 278.055 164.712 279.623 164.836C280.005 164.857 280.098 165.342 279.881 165.517C279.819 165.558 279.747 165.589 279.654 165.579C279.592 165.579 279.54 165.579 279.489 165.569C277.663 165.414 275.754 165.053 274.258 163.938C273.515 163.392 272.948 162.659 272.628 161.793C272.287 160.864 272.112 159.801 272.287 158.832C272.576 157.119 274.01 156.056 275.599 155.592C273.99 155.066 272.401 154.282 271.4 152.909C270.585 151.785 270.43 150.392 270.678 149.051C270.822 148.277 271.091 147.534 271.607 146.926C272.102 146.337 272.762 145.925 273.464 145.636C273.608 145.574 273.753 145.522 273.897 145.481C272.133 144.625 270.915 142.634 270.967 140.673C270.967 140.55 271.029 140.457 271.101 140.395C271.318 140.209 271.72 140.281 271.71 140.642C271.648 142.685 273.237 144.996 275.403 145.161C276.373 145.048 277.364 145.079 278.313 145.161C279.644 145.275 280.954 145.502 282.244 145.832C282.708 145.956 282.553 146.678 282.089 146.564H282.109Z" fill="#53AFFA"/>
<path d="M277.415 155.334C277.487 155.334 277.549 155.375 277.59 155.427C277.549 155.385 277.487 155.355 277.415 155.334Z" fill="#53AFFA"/>
<path d="M277.601 155.953C277.683 155.85 277.714 155.705 277.673 155.571C277.714 155.705 277.693 155.85 277.601 155.953Z" fill="#53AFFA"/>
<path d="M217.926 205.414C209.012 196.262 199.521 204.929 198.726 205.61C197.932 204.929 185.345 191.909 177.019 202.494C168.61 213.182 172.541 253.739 197.22 259.548C202.595 260.817 208.723 257.092 211.169 254.451C224.24 240.337 226.077 213.781 217.916 205.403L217.926 205.414Z" fill="white"/>
<path d="M175.739 289.653C175.863 289.602 175.977 289.509 176.101 289.457C176.255 289.364 176.255 289.344 176.358 289.292C177.937 289.529 179.485 289.983 180.919 290.664C180.857 290.706 180.805 290.757 180.743 290.798C180.341 291.118 179.99 291.479 179.67 291.871C178.453 293.388 177.782 295.266 177.473 297.154C177.194 298.887 177.184 300.641 177.339 302.374C177.38 302.9 178.216 302.911 178.174 302.374C177.854 298.691 178.164 293.976 181.249 291.448C181.29 291.407 181.321 291.387 181.362 291.356H181.373H181.393C181.393 291.356 181.404 291.335 181.414 291.325C181.465 291.283 181.527 291.242 181.589 291.211C181.641 291.17 181.703 291.129 181.754 291.098C182.776 291.655 183.735 292.346 184.592 293.161C185.685 294.203 186.593 295.4 187.336 296.7C187.594 297.164 188.316 296.751 188.058 296.287C186.758 294.028 184.963 292.067 182.724 290.685C180.981 289.622 179.02 288.921 177.008 288.57C176.111 288.415 175.213 288.322 174.305 288.291C173.769 288.271 173.769 289.096 174.305 289.117L174.863 289.148C174.089 289.499 173.346 289.932 172.655 290.396C170.798 291.634 169.157 293.285 168.249 295.338C167.641 296.731 167.403 298.227 167.517 299.743C167.558 300.27 168.394 300.27 168.352 299.743C168.167 297.288 169.002 294.987 170.663 293.171C171.871 291.841 173.387 290.798 175.007 290.004C175.151 289.932 175.306 289.86 175.451 289.798C175.512 289.767 175.574 289.746 175.636 289.715C175.657 289.705 175.667 289.695 175.698 289.684M181.249 290.437C181.249 290.437 181.269 290.417 181.28 290.417C181.269 290.427 181.259 290.437 181.249 290.448V290.437Z" fill="#0087EA"/>
<path d="M237.974 294.854C237.974 294.854 237.901 294.833 237.88 294.822C237.911 294.822 237.953 294.843 237.974 294.854Z" fill="#0087EA"/>
<path d="M247.898 295.286C246.928 294.296 245.855 293.398 244.72 292.594C245.432 292.645 246.144 292.769 246.835 292.975C247.351 293.13 247.578 292.336 247.062 292.181C244.266 291.366 241.377 291.779 238.808 293.079C236.879 294.048 235.177 295.451 233.701 297.009C233.361 297.37 233.062 297.835 232.67 298.144C232.257 298.485 232.845 299.062 233.258 298.732C233.557 298.485 233.794 298.124 234.052 297.845C234.64 297.205 235.259 296.597 235.92 296.029C236.477 295.544 237.075 295.09 237.694 294.688C237.735 294.74 237.787 294.791 237.849 294.822H237.828C237.859 294.853 237.89 294.874 237.911 294.894C238.035 295.018 238.158 295.152 238.272 295.286C238.612 295.689 238.974 296.236 239.293 296.751C240.366 298.536 241.078 300.507 241.532 302.529C241.893 304.169 242.058 305.841 242.089 307.512C242.089 308.038 242.935 308.038 242.925 307.512C242.873 304.665 242.409 301.796 241.367 299.124C240.758 297.566 239.974 296.04 238.901 294.75C238.767 294.585 238.612 294.389 238.427 294.234C239.593 293.553 240.851 293.037 242.172 292.759C242.543 292.686 242.925 292.635 243.296 292.604C243.307 292.614 243.317 292.625 243.338 292.635C247.093 295.101 250.353 298.567 251.447 302.993C251.581 303.519 251.664 304.056 251.746 304.592C251.818 305.108 252.623 304.892 252.551 304.376C252.056 300.909 250.374 297.804 247.908 295.286H247.898ZM237.88 294.822C237.88 294.822 237.952 294.843 237.973 294.853C237.931 294.853 237.901 294.832 237.88 294.822Z" fill="#0087EA"/>
<path d="M237.797 294.812C237.797 294.801 237.797 294.791 237.776 294.791C237.776 294.791 237.787 294.801 237.797 294.812Z" fill="#0087EA"/>
<path d="M237.974 294.854C237.974 294.854 237.901 294.833 237.88 294.822C237.911 294.822 237.953 294.843 237.974 294.854Z" fill="#0087EA"/>
<path d="M230.111 174.453C229.822 174.732 229.544 175 229.275 175.268C229.564 174.979 229.833 174.711 230.111 174.453Z" fill="#53AFFA"/>
<path d="M175.781 195.035C176.462 193.096 160.728 173.906 148.214 153.591C148.214 153.591 129.777 148.557 130.86 142.026C132.15 134.855 142.054 141.51 141.962 141.479C141.962 141.479 131.087 137.631 133.244 132.637C135.07 128.407 139.393 130.192 145.046 133.432C145.046 133.432 136.308 129.635 139.847 124.672C142.385 121.123 150.545 123.991 160.079 129.284C160.079 129.284 165.784 120.69 170.839 124.291C175.884 127.881 169.684 135.268 169.684 135.268C169.684 135.268 178.288 163.393 185.727 173.503L175.771 195.035H175.781Z" fill="url(#paint24_linear_94_3483)"/>
<path d="M147.368 137.538C147.368 137.538 143.344 139.416 143.117 142.036C143.148 147.618 150.37 150.434 155.446 142.542C157.231 139.766 159.986 135.155 156.777 131.75C154.353 129.377 150.453 129.748 147.378 137.538H147.368Z" fill="#53AFFA"/>
<path d="M223.591 158.255C223.612 156.45 217.494 152.57 210.767 150.775C204.566 149.114 197.767 149.403 196.643 150.259C194.827 151.652 192.568 155.335 192.774 158.183C193.001 161.33 199.686 169.253 204.267 170.553C208.662 171.853 219.733 167.912 221.641 165.374C223.375 163.084 223.571 160.515 223.591 158.245V158.255Z" fill="white"/>
<path d="M198.366 153.87C198.366 153.87 204.835 161.113 218.587 158.234C218.587 158.234 216.328 160.246 215.595 162.371C214.605 165.219 209.477 166.509 206.155 166.075C201.626 165.467 199.253 163.331 199.47 158.43C199.552 156.532 198.355 153.88 198.355 153.88L198.366 153.87Z" fill="#003461"/>
<path d="M200.244 162.723C200.244 162.723 206.434 160.649 211.118 165.643C211.118 165.643 206.362 167.211 202.287 164.848C200.729 163.93 200.233 162.723 200.233 162.723H200.244Z" fill="#FF846E"/>
<path d="M222.796 151.518C222.084 149.671 220.392 147.762 218.216 147.948C217.101 148.051 216.121 148.608 215.265 149.279C214.842 149.609 215.44 150.187 215.853 149.857C216.957 149 218.432 148.361 219.773 149.073C220.65 149.537 221.259 150.342 221.723 151.188C221.806 151.332 221.878 151.477 221.94 151.631C221.95 151.662 221.961 151.683 221.971 151.714C221.95 151.683 221.93 151.611 221.961 151.683C221.961 151.704 221.971 151.714 221.981 151.734C222.167 152.23 222.972 152.013 222.786 151.518H222.796Z" fill="#0071DF"/>
<path d="M207.847 146.968C206.887 145.451 205.092 144.1 203.194 144.481C202.276 144.667 201.491 145.255 200.852 145.915C200.48 146.297 201.068 146.875 201.44 146.493C202.317 145.585 203.462 144.956 204.741 145.379C205.567 145.657 206.258 146.287 206.805 146.937C206.898 147.05 206.918 147.081 207.032 147.236C207.063 147.288 207.094 147.329 207.125 147.37C207.403 147.814 208.136 147.401 207.847 146.957V146.968Z" fill="#0071DF"/>
<path d="M225.582 143.635C225.314 143.047 224.251 141.283 220.96 140.726C220.279 140.612 219.196 141.396 219.825 142.459C220.372 143.388 223.983 145.162 224.674 145.183C225.396 145.203 225.933 144.43 225.572 143.625L225.582 143.635Z" fill="#0071DF"/>
<path d="M210.385 139.034C209.849 138.673 208.002 137.724 204.917 138.962C204.277 139.22 203.761 140.448 204.865 141.026C205.825 141.531 209.838 141.17 210.447 140.83C211.076 140.479 211.118 139.54 210.385 139.045V139.034Z" fill="#0071DF"/>
<path d="M210.054 149.434C210.054 149.434 203.74 147.598 203.111 149.909C202.853 150.848 205.102 153.561 207.981 155.562C209.373 155.748 216.575 154.882 216.657 153.458C216.802 151.064 210.054 149.434 210.054 149.434Z" fill="#0071DF"/>
<path d="M181.28 290.417C181.28 290.417 181.259 290.438 181.249 290.448C181.249 290.448 181.27 290.417 181.28 290.417Z" fill="#0087EA"/>
<path d="M181.249 290.438C181.249 290.438 181.27 290.417 181.28 290.417C181.27 290.427 181.259 290.438 181.249 290.448V290.438Z" fill="#0087EA"/>
<path d="M268.284 146.462C268.284 146.462 268.192 146.483 268.14 146.483H268.109C268.171 146.483 268.233 146.462 268.284 146.462Z" fill="#53AFFA"/>
<path d="M269.976 156.625C270.038 156.625 270.09 156.614 270.131 156.594C270.079 156.625 270.007 156.645 269.925 156.625H269.976Z" fill="#53AFFA"/>
<path d="M278.28 175.339C278.28 173.228 276.51 139.041 276.51 139.041L265.374 140.45C265.374 140.45 272.211 174.547 272.739 176.131C273.266 177.714 278.28 177.45 278.28 175.339Z" fill="#4C4C4C"/>
<path d="M278.413 171.835L278.395 171.543C278.398 171.486 278.382 171.428 278.347 171.379C278.278 171.282 278.152 171.243 278.04 171.284C276.072 172.016 274.006 172.318 271.917 172.152C271.834 172.145 271.752 172.179 271.697 172.242C271.642 172.305 271.62 172.39 271.638 172.472L271.707 172.782C271.732 172.896 271.829 172.98 271.946 172.989C274.095 173.144 276.212 172.835 278.24 172.099C278.349 172.059 278.42 171.952 278.413 171.835Z" fill="white" stroke="white" stroke-width="0.527706" stroke-linejoin="round"/>
<path d="M263.796 140.263C263.839 140.607 264.014 140.913 264.288 141.126C264.562 141.338 264.902 141.431 265.246 141.388L277.006 139.9C277.35 139.856 277.656 139.682 277.869 139.408C278.081 139.134 278.174 138.793 278.131 138.449L277.982 137.272L263.647 139.085L263.796 140.263Z" fill="white"/>
<path d="M263.584 138.528C263.542 138.184 263.637 137.844 263.851 137.571C264.064 137.298 264.371 137.125 264.716 137.083L276.482 135.647C276.826 135.605 277.166 135.7 277.439 135.913C277.712 136.127 277.885 136.434 277.927 136.778L278.071 137.957L263.728 139.707L263.584 138.528Z" fill="white"/>
<path d="M277.411 136.024C278.893 133.992 280.324 130.926 279.983 128.234C279.275 122.635 274.162 118.67 268.563 119.379C262.964 120.087 258.999 125.2 259.708 130.799C260.048 133.491 262.014 136.009 263.955 137.607L277.411 136.024Z" fill="#989898"/>
<path d="M280.141 127.576C280.106 127.448 279.983 127.366 279.851 127.383C279.794 127.39 279.743 127.416 279.704 127.453C279.541 127.565 279.289 127.671 278.998 127.777C278.904 127.811 278.806 127.846 278.707 127.88C278.504 127.951 278.302 128.022 278.146 128.089C272.532 130.47 265.91 131.347 259.737 130.486C259.652 130.474 259.566 130.504 259.507 130.567C259.448 130.631 259.424 130.719 259.443 130.803C259.453 130.85 259.459 130.902 259.467 130.961C259.467 130.962 259.467 130.964 259.467 130.965C259.471 130.993 259.475 131.025 259.48 131.054C259.484 131.08 259.492 131.12 259.506 131.159C259.54 131.251 259.621 131.316 259.718 131.329C266.004 132.185 272.782 131.332 278.503 128.9C278.635 128.845 278.796 128.789 278.977 128.727C279.073 128.694 279.174 128.659 279.279 128.622C279.565 128.519 279.878 128.396 280.101 128.247C280.174 128.198 280.218 128.116 280.218 128.028C280.218 127.971 280.205 127.885 280.192 127.815C280.179 127.738 280.16 127.649 280.141 127.576Z" fill="#4C4C4C" stroke="#4C4C4C" stroke-width="0.527706" stroke-linejoin="round"/>
<path d="M278.921 165.043C275.764 164.775 274.01 163.754 273.288 163.011C273.072 162.784 272.68 162.185 272.576 161.958C272.288 161.288 272.061 160.246 272.05 159.534C272.04 158.255 272.68 156.975 273.784 156.387C274.547 155.985 276.229 155.335 276.229 155.335C276.311 155.335 276.115 155.335 275.816 155.242C275.506 155.17 275.279 155.025 274.949 154.922C273.711 154.489 272.37 153.901 271.483 152.931C270.977 152.384 270.575 151.022 270.554 150.888C270.534 150.775 270.472 149.805 270.503 149.485C270.596 148.804 270.709 148.072 271.101 147.494C271.472 146.947 272.03 146.431 272.628 146.163C273.226 145.895 273.66 145.761 274.464 145.668C272.422 145.379 271.163 143.862 270.637 141.892C270.544 141.561 270.503 140.695 270.503 140.303C270.544 139.983 270.657 139.642 270.833 139.312C271.947 137.249 276.208 136.733 278.23 137.393C285.091 139.632 289.93 145.905 290.755 153.271C291.178 157.12 290.549 160.906 287.928 164.053C283.863 168.953 279.283 170.8 279.283 170.8C279.087 167.561 279.128 168.035 278.983 165.621" fill="url(#paint25_linear_94_3483)"/>
<path d="M281.429 146.482C280.098 146.142 278.715 145.894 277.343 145.801C276.58 145.75 275.785 145.74 275.011 145.822C274.97 145.822 274.919 145.832 274.877 145.843H274.857C274.196 145.925 273.546 146.08 272.938 146.348C272.339 146.617 271.782 147.019 271.411 147.566C271.019 148.133 270.854 148.814 270.771 149.495C270.73 149.815 270.719 150.124 270.74 150.434C270.74 150.444 270.74 150.465 270.74 150.475C270.74 150.599 270.761 150.712 270.781 150.836C270.781 150.836 270.781 150.847 270.781 150.857C270.905 151.569 271.204 152.229 271.71 152.776C272.597 153.746 273.804 154.334 275.042 154.767C275.3 154.86 275.558 154.942 275.816 155.015C276.115 155.108 276.414 155.19 276.714 155.262C276.714 155.262 276.734 155.262 276.745 155.262C276.817 155.283 276.868 155.314 276.92 155.355C276.93 155.376 276.951 155.386 276.961 155.396C276.992 155.427 277.003 155.469 277.013 155.5C277.054 155.623 277.013 155.778 276.941 155.881C276.93 155.902 276.91 155.912 276.889 155.933C276.837 155.974 276.765 155.995 276.693 155.995H276.652C275.795 156.036 274.898 156.263 274.134 156.665C273.041 157.253 272.35 158.254 272.36 159.534C272.36 160.256 272.535 161.061 272.814 161.731C272.917 161.958 273.144 162.35 273.35 162.587C273.639 162.938 274.011 163.248 274.403 163.495C275.754 164.341 277.384 164.63 278.953 164.754C279.324 164.775 279.427 165.26 279.21 165.435C279.159 165.476 279.087 165.507 278.983 165.497C278.932 165.497 278.87 165.497 278.818 165.487C277.013 165.332 275.115 164.971 273.629 163.856C272.896 163.31 272.329 162.577 272.019 161.71C271.679 160.782 271.514 159.719 271.679 158.749C271.957 157.037 273.381 155.974 274.97 155.51C273.371 154.984 271.792 154.2 270.802 152.827C269.987 151.703 269.842 150.31 270.08 148.969C270.224 148.195 270.492 147.452 270.998 146.843C271.483 146.255 272.143 145.843 272.845 145.554C272.989 145.492 273.123 145.44 273.268 145.399C271.514 144.543 270.307 142.552 270.358 140.591C270.358 140.468 270.41 140.375 270.482 140.313C270.699 140.127 271.101 140.199 271.091 140.56C271.039 142.603 272.607 144.914 274.753 145.079C275.713 144.966 276.703 144.997 277.642 145.079C278.953 145.193 281.542 145.75 281.542 145.75C282.006 145.863 281.852 146.596 281.387 146.482H281.429Z" fill="#53AFFA"/>
<path d="M276.755 155.241C276.827 155.241 276.878 155.282 276.93 155.334C276.889 155.293 276.827 155.262 276.755 155.241Z" fill="#53AFFA"/>
<path d="M276.951 155.871C277.034 155.768 277.065 155.623 277.023 155.489C277.065 155.623 277.044 155.768 276.951 155.871Z" fill="#53AFFA"/>
<g clip-path="url(#clip2_94_3483)" filter="url(#filter17_dddddd_94_3483)">
<path d="M245.446 176.047C245.303 175.786 245.232 175.513 245.237 175.236C245.242 174.564 245.681 173.941 246.469 173.49C247.225 173.057 248.225 172.824 249.282 172.839C250.339 172.854 251.332 173.114 252.082 173.572C252.41 173.773 252.683 174.009 252.888 174.274L253.237 174.724L257.456 164C257.492 163.905 257.598 163.861 257.692 163.898C257.74 163.918 257.769 163.954 257.782 163.979C257.81 164.029 257.812 164.083 257.794 164.135L253.214 175.76C252.858 176.955 251.188 177.778 249.232 177.75C247.514 177.726 245.992 177.04 245.446 176.047ZM252.743 174.716C252.533 174.334 252.162 174.054 251.89 173.887C251.195 173.463 250.269 173.223 249.277 173.209C248.285 173.196 247.352 173.406 246.649 173.81C246.259 174.034 245.609 174.516 245.602 175.245C245.6 175.451 245.656 175.662 245.767 175.866C246.254 176.752 247.65 177.367 249.237 177.389C251.208 177.418 252.543 176.574 252.842 175.731L252.85 175.713L252.856 175.681C252.893 175.563 252.913 175.455 252.916 175.351C252.918 175.136 252.86 174.921 252.748 174.718L252.743 174.716Z" fill="#00FFBA"/>
</g>
</g>
<defs>
<filter id="filter0_f_94_3483" x="-149.49" y="320.397" width="711.051" height="110.671" filterUnits="userSpaceOnUse" color-interpolation-filters="sRGB">
<feFlood flood-opacity="0" result="BackgroundImageFix"/>
<feBlend mode="normal" in="SourceGraphic" in2="BackgroundImageFix" result="shape"/>
<feGaussianBlur stdDeviation="20.2694" result="effect1_foregroundBlur_94_3483"/>
</filter>
<filter id="filter1_f_94_3483" x="-118.68" y="330.937" width="711.051" height="110.671" filterUnits="userSpaceOnUse" color-interpolation-filters="sRGB">
<feFlood flood-opacity="0" result="BackgroundImageFix"/>
<feBlend mode="normal" in="SourceGraphic" in2="BackgroundImageFix" result="shape"/>
<feGaussianBlur stdDeviation="20.2694" result="effect1_foregroundBlur_94_3483"/>
</filter>
<filter id="filter2_f_94_3483" x="-110.167" y="320.802" width="711.051" height="110.671" filterUnits="userSpaceOnUse" color-interpolation-filters="sRGB">
<feFlood flood-opacity="0" result="BackgroundImageFix"/>
<feBlend mode="normal" in="SourceGraphic" in2="BackgroundImageFix" result="shape"/>
<feGaussianBlur stdDeviation="20.2694" result="effect1_foregroundBlur_94_3483"/>
</filter>
<filter id="filter3_f_94_3483" x="-82.1951" y="311.072" width="711.051" height="110.671" filterUnits="userSpaceOnUse" color-interpolation-filters="sRGB">
<feFlood flood-opacity="0" result="BackgroundImageFix"/>
<feBlend mode="normal" in="SourceGraphic" in2="BackgroundImageFix" result="shape"/>
<feGaussianBlur stdDeviation="20.2694" result="effect1_foregroundBlur_94_3483"/>
</filter>
<filter id="filter4_f_94_3483" x="-296.24" y="334.99" width="711.051" height="110.671" filterUnits="userSpaceOnUse" color-interpolation-filters="sRGB">
<feFlood flood-opacity="0" result="BackgroundImageFix"/>
<feBlend mode="normal" in="SourceGraphic" in2="BackgroundImageFix" result="shape"/>
<feGaussianBlur stdDeviation="20.2694" result="effect1_foregroundBlur_94_3483"/>
</filter>
<filter id="filter5_f_94_3483" x="-355.833" y="316.343" width="711.051" height="110.671" filterUnits="userSpaceOnUse" color-interpolation-filters="sRGB">
<feFlood flood-opacity="0" result="BackgroundImageFix"/>
<feBlend mode="normal" in="SourceGraphic" in2="BackgroundImageFix" result="shape"/>
<feGaussianBlur stdDeviation="20.2694" result="effect1_foregroundBlur_94_3483"/>
</filter>
<filter id="filter6_f_94_3483" x="-149.49" y="317.558" width="711.051" height="110.671" filterUnits="userSpaceOnUse" color-interpolation-filters="sRGB">
<feFlood flood-opacity="0" result="BackgroundImageFix"/>
<feBlend mode="normal" in="SourceGraphic" in2="BackgroundImageFix" result="shape"/>
<feGaussianBlur stdDeviation="20.2694" result="effect1_foregroundBlur_94_3483"/>
</filter>
<filter id="filter7_f_94_3483" x="-118.68" y="328.098" width="711.051" height="110.671" filterUnits="userSpaceOnUse" color-interpolation-filters="sRGB">
<feFlood flood-opacity="0" result="BackgroundImageFix"/>
<feBlend mode="normal" in="SourceGraphic" in2="BackgroundImageFix" result="shape"/>
<feGaussianBlur stdDeviation="20.2694" result="effect1_foregroundBlur_94_3483"/>
</filter>
<filter id="filter8_f_94_3483" x="-110.167" y="317.963" width="711.051" height="110.671" filterUnits="userSpaceOnUse" color-interpolation-filters="sRGB">
<feFlood flood-opacity="0" result="BackgroundImageFix"/>
<feBlend mode="normal" in="SourceGraphic" in2="BackgroundImageFix" result="shape"/>
<feGaussianBlur stdDeviation="20.2694" result="effect1_foregroundBlur_94_3483"/>
</filter>
<filter id="filter9_f_94_3483" x="-82.1951" y="308.234" width="711.051" height="110.671" filterUnits="userSpaceOnUse" color-interpolation-filters="sRGB">
<feFlood flood-opacity="0" result="BackgroundImageFix"/>
<feBlend mode="normal" in="SourceGraphic" in2="BackgroundImageFix" result="shape"/>
<feGaussianBlur stdDeviation="20.2694" result="effect1_foregroundBlur_94_3483"/>
</filter>
<filter id="filter10_f_94_3483" x="-296.24" y="332.152" width="711.051" height="110.671" filterUnits="userSpaceOnUse" color-interpolation-filters="sRGB">
<feFlood flood-opacity="0" result="BackgroundImageFix"/>
<feBlend mode="normal" in="SourceGraphic" in2="BackgroundImageFix" result="shape"/>
<feGaussianBlur stdDeviation="20.2694" result="effect1_foregroundBlur_94_3483"/>
</filter>
<filter id="filter11_f_94_3483" x="-355.833" y="313.504" width="711.051" height="110.671" filterUnits="userSpaceOnUse" color-interpolation-filters="sRGB">
<feFlood flood-opacity="0" result="BackgroundImageFix"/>
<feBlend mode="normal" in="SourceGraphic" in2="BackgroundImageFix" result="shape"/>
<feGaussianBlur stdDeviation="20.2694" result="effect1_foregroundBlur_94_3483"/>
</filter>
<filter id="filter12_dddddd_94_3483" x="205.085" y="48.5792" width="207.852" height="213.686" filterUnits="userSpaceOnUse" color-interpolation-filters="sRGB">
<feFlood flood-opacity="0" result="BackgroundImageFix"/>
<feColorMatrix in="SourceAlpha" type="matrix" values="0 0 0 0 0 0 0 0 0 0 0 0 0 0 0 0 0 0 127 0" result="hardAlpha"/>
<feOffset/>
<feGaussianBlur stdDeviation="1.1589"/>
<feColorMatrix type="matrix" values="0 0 0 0 0 0 0 0 0 1 0 0 0 0 0.729412 0 0 0 1 0"/>
<feBlend mode="normal" in2="BackgroundImageFix" result="effect1_dropShadow_94_3483"/>
<feColorMatrix in="SourceAlpha" type="matrix" values="0 0 0 0 0 0 0 0 0 0 0 0 0 0 0 0 0 0 127 0" result="hardAlpha"/>
<feOffset/>
<feGaussianBlur stdDeviation="2.3178"/>
<feColorMatrix type="matrix" values="0 0 0 0 0 0 0 0 0 1 0 0 0 0 0.729412 0 0 0 1 0"/>
<feBlend mode="normal" in2="effect1_dropShadow_94_3483" result="effect2_dropShadow_94_3483"/>
<feColorMatrix in="SourceAlpha" type="matrix" values="0 0 0 0 0 0 0 0 0 0 0 0 0 0 0 0 0 0 127 0" result="hardAlpha"/>
<feOffset/>
<feGaussianBlur stdDeviation="8.1123"/>
<feColorMatrix type="matrix" values="0 0 0 0 0 0 0 0 0 1 0 0 0 0 0.729412 0 0 0 1 0"/>
<feBlend mode="normal" in2="effect2_dropShadow_94_3483" result="effect3_dropShadow_94_3483"/>
<feColorMatrix in="SourceAlpha" type="matrix" values="0 0 0 0 0 0 0 0 0 0 0 0 0 0 0 0 0 0 127 0" result="hardAlpha"/>
<feOffset/>
<feGaussianBlur stdDeviation="16.2246"/>
<feColorMatrix type="matrix" values="0 0 0 0 0 0 0 0 0 1 0 0 0 0 0.729412 0 0 0 1 0"/>
<feBlend mode="normal" in2="effect3_dropShadow_94_3483" result="effect4_dropShadow_94_3483"/>
<feColorMatrix in="SourceAlpha" type="matrix" values="0 0 0 0 0 0 0 0 0 0 0 0 0 0 0 0 0 0 127 0" result="hardAlpha"/>
<feOffset/>
<feGaussianBlur stdDeviation="27.8136"/>
<feColorMatrix type="matrix" values="0 0 0 0 0 0 0 0 0 1 0 0 0 0 0.729412 0 0 0 1 0"/>
<feBlend mode="normal" in2="effect4_dropShadow_94_3483" result="effect5_dropShadow_94_3483"/>
<feColorMatrix in="SourceAlpha" type="matrix" values="0 0 0 0 0 0 0 0 0 0 0 0 0 0 0 0 0 0 127 0" result="hardAlpha"/>
<feOffset/>
<feGaussianBlur stdDeviation="48.6738"/>
<feColorMatrix type="matrix" values="0 0 0 0 0 0 0 0 0 1 0 0 0 0 0.729412 0 0 0 1 0"/>
<feBlend mode="normal" in2="effect5_dropShadow_94_3483" result="effect6_dropShadow_94_3483"/>
<feBlend mode="normal" in="SourceGraphic" in2="effect6_dropShadow_94_3483" result="shape"/>
</filter>
<filter id="filter13_dddddd_94_3483" x="180.559" y="93.8868" width="200.726" height="209.1" filterUnits="userSpaceOnUse" color-interpolation-filters="sRGB">
<feFlood flood-opacity="0" result="BackgroundImageFix"/>
<feColorMatrix in="SourceAlpha" type="matrix" values="0 0 0 0 0 0 0 0 0 0 0 0 0 0 0 0 0 0 127 0" result="hardAlpha"/>
<feOffset/>
<feGaussianBlur stdDeviation="1.1589"/>
<feColorMatrix type="matrix" values="0 0 0 0 0 0 0 0 0 1 0 0 0 0 0.729412 0 0 0 1 0"/>
<feBlend mode="normal" in2="BackgroundImageFix" result="effect1_dropShadow_94_3483"/>
<feColorMatrix in="SourceAlpha" type="matrix" values="0 0 0 0 0 0 0 0 0 0 0 0 0 0 0 0 0 0 127 0" result="hardAlpha"/>
<feOffset/>
<feGaussianBlur stdDeviation="2.3178"/>
<feColorMatrix type="matrix" values="0 0 0 0 0 0 0 0 0 1 0 0 0 0 0.729412 0 0 0 1 0"/>
<feBlend mode="normal" in2="effect1_dropShadow_94_3483" result="effect2_dropShadow_94_3483"/>
<feColorMatrix in="SourceAlpha" type="matrix" values="0 0 0 0 0 0 0 0 0 0 0 0 0 0 0 0 0 0 127 0" result="hardAlpha"/>
<feOffset/>
<feGaussianBlur stdDeviation="8.1123"/>
<feColorMatrix type="matrix" values="0 0 0 0 0 0 0 0 0 1 0 0 0 0 0.729412 0 0 0 1 0"/>
<feBlend mode="normal" in2="effect2_dropShadow_94_3483" result="effect3_dropShadow_94_3483"/>
<feColorMatrix in="SourceAlpha" type="matrix" values="0 0 0 0 0 0 0 0 0 0 0 0 0 0 0 0 0 0 127 0" result="hardAlpha"/>
<feOffset/>
<feGaussianBlur stdDeviation="16.2246"/>
<feColorMatrix type="matrix" values="0 0 0 0 0 0 0 0 0 1 0 0 0 0 0.729412 0 0 0 1 0"/>
<feBlend mode="normal" in2="effect3_dropShadow_94_3483" result="effect4_dropShadow_94_3483"/>
<feColorMatrix in="SourceAlpha" type="matrix" values="0 0 0 0 0 0 0 0 0 0 0 0 0 0 0 0 0 0 127 0" result="hardAlpha"/>
<feOffset/>
<feGaussianBlur stdDeviation="27.8136"/>
<feColorMatrix type="matrix" values="0 0 0 0 0 0 0 0 0 1 0 0 0 0 0.729412 0 0 0 1 0"/>
<feBlend mode="normal" in2="effect4_dropShadow_94_3483" result="effect5_dropShadow_94_3483"/>
<feColorMatrix in="SourceAlpha" type="matrix" values="0 0 0 0 0 0 0 0 0 0 0 0 0 0 0 0 0 0 127 0" result="hardAlpha"/>
<feOffset/>
<feGaussianBlur stdDeviation="48.6738"/>
<feColorMatrix type="matrix" values="0 0 0 0 0 0 0 0 0 1 0 0 0 0 0.729412 0 0 0 1 0"/>
<feBlend mode="normal" in2="effect5_dropShadow_94_3483" result="effect6_dropShadow_94_3483"/>
<feBlend mode="normal" in="SourceGraphic" in2="effect6_dropShadow_94_3483" result="shape"/>
</filter>
<filter id="filter14_f_94_3483" x="91.4462" y="230.523" width="39.8634" height="35.8096" filterUnits="userSpaceOnUse" color-interpolation-filters="sRGB">
<feFlood flood-opacity="0" result="BackgroundImageFix"/>
<feBlend mode="normal" in="SourceGraphic" in2="BackgroundImageFix" result="shape"/>
<feGaussianBlur stdDeviation="2.36477" result="effect1_foregroundBlur_94_3483"/>
</filter>
<filter id="filter15_f_94_3483" x="95.716" y="234.793" width="31.3239" height="27.2702" filterUnits="userSpaceOnUse" color-interpolation-filters="sRGB">
<feFlood flood-opacity="0" result="BackgroundImageFix"/>
<feBlend mode="normal" in="SourceGraphic" in2="BackgroundImageFix" result="shape"/>
<feGaussianBlur stdDeviation="0.229908" result="effect1_foregroundBlur_94_3483"/>
</filter>
<filter id="filter16_dddddd_94_3483" x="176.273" y="2.03333" width="221.031" height="222.394" filterUnits="userSpaceOnUse" color-interpolation-filters="sRGB">
<feFlood flood-opacity="0" result="BackgroundImageFix"/>
<feColorMatrix in="SourceAlpha" type="matrix" values="0 0 0 0 0 0 0 0 0 0 0 0 0 0 0 0 0 0 127 0" result="hardAlpha"/>
<feOffset/>
<feGaussianBlur stdDeviation="1.1589"/>
<feColorMatrix type="matrix" values="0 0 0 0 0 0 0 0 0 1 0 0 0 0 0.729412 0 0 0 1 0"/>
<feBlend mode="normal" in2="BackgroundImageFix" result="effect1_dropShadow_94_3483"/>
<feColorMatrix in="SourceAlpha" type="matrix" values="0 0 0 0 0 0 0 0 0 0 0 0 0 0 0 0 0 0 127 0" result="hardAlpha"/>
<feOffset/>
<feGaussianBlur stdDeviation="2.3178"/>
<feColorMatrix type="matrix" values="0 0 0 0 0 0 0 0 0 1 0 0 0 0 0.729412 0 0 0 1 0"/>
<feBlend mode="normal" in2="effect1_dropShadow_94_3483" result="effect2_dropShadow_94_3483"/>
<feColorMatrix in="SourceAlpha" type="matrix" values="0 0 0 0 0 0 0 0 0 0 0 0 0 0 0 0 0 0 127 0" result="hardAlpha"/>
<feOffset/>
<feGaussianBlur stdDeviation="8.1123"/>
<feColorMatrix type="matrix" values="0 0 0 0 0 0 0 0 0 1 0 0 0 0 0.729412 0 0 0 1 0"/>
<feBlend mode="normal" in2="effect2_dropShadow_94_3483" result="effect3_dropShadow_94_3483"/>
<feColorMatrix in="SourceAlpha" type="matrix" values="0 0 0 0 0 0 0 0 0 0 0 0 0 0 0 0 0 0 127 0" result="hardAlpha"/>
<feOffset/>
<feGaussianBlur stdDeviation="16.2246"/>
<feColorMatrix type="matrix" values="0 0 0 0 0 0 0 0 0 1 0 0 0 0 0.729412 0 0 0 1 0"/>
<feBlend mode="normal" in2="effect3_dropShadow_94_3483" result="effect4_dropShadow_94_3483"/>
<feColorMatrix in="SourceAlpha" type="matrix" values="0 0 0 0 0 0 0 0 0 0 0 0 0 0 0 0 0 0 127 0" result="hardAlpha"/>
<feOffset/>
<feGaussianBlur stdDeviation="27.8136"/>
<feColorMatrix type="matrix" values="0 0 0 0 0 0 0 0 0 1 0 0 0 0 0.729412 0 0 0 1 0"/>
<feBlend mode="normal" in2="effect4_dropShadow_94_3483" result="effect5_dropShadow_94_3483"/>
<feColorMatrix in="SourceAlpha" type="matrix" values="0 0 0 0 0 0 0 0 0 0 0 0 0 0 0 0 0 0 127 0" result="hardAlpha"/>
<feOffset/>
<feGaussianBlur stdDeviation="48.6738"/>
<feColorMatrix type="matrix" values="0 0 0 0 0 0 0 0 0 1 0 0 0 0 0.729412 0 0 0 1 0"/>
<feBlend mode="normal" in2="effect5_dropShadow_94_3483" result="effect6_dropShadow_94_3483"/>
<feBlend mode="normal" in="SourceGraphic" in2="effect6_dropShadow_94_3483" result="shape"/>
</filter>
<filter id="filter17_dddddd_94_3483" x="167.043" y="87.7387" width="171.025" height="167.979" filterUnits="userSpaceOnUse" color-interpolation-filters="sRGB">
<feFlood flood-opacity="0" result="BackgroundImageFix"/>
<feColorMatrix in="SourceAlpha" type="matrix" values="0 0 0 0 0 0 0 0 0 0 0 0 0 0 0 0 0 0 127 0" result="hardAlpha"/>
<feOffset/>
<feGaussianBlur stdDeviation="0.905734"/>
<feColorMatrix type="matrix" values="0 0 0 0 0 0 0 0 0 1 0 0 0 0 0.729412 0 0 0 1 0"/>
<feBlend mode="normal" in2="BackgroundImageFix" result="effect1_dropShadow_94_3483"/>
<feColorMatrix in="SourceAlpha" type="matrix" values="0 0 0 0 0 0 0 0 0 0 0 0 0 0 0 0 0 0 127 0" result="hardAlpha"/>
<feOffset/>
<feGaussianBlur stdDeviation="1.81147"/>
<feColorMatrix type="matrix" values="0 0 0 0 0 0 0 0 0 1 0 0 0 0 0.729412 0 0 0 1 0"/>
<feBlend mode="normal" in2="effect1_dropShadow_94_3483" result="effect2_dropShadow_94_3483"/>
<feColorMatrix in="SourceAlpha" type="matrix" values="0 0 0 0 0 0 0 0 0 0 0 0 0 0 0 0 0 0 127 0" result="hardAlpha"/>
<feOffset/>
<feGaussianBlur stdDeviation="6.34013"/>
<feColorMatrix type="matrix" values="0 0 0 0 0 0 0 0 0 1 0 0 0 0 0.729412 0 0 0 1 0"/>
<feBlend mode="normal" in2="effect2_dropShadow_94_3483" result="effect3_dropShadow_94_3483"/>
<feColorMatrix in="SourceAlpha" type="matrix" values="0 0 0 0 0 0 0 0 0 0 0 0 0 0 0 0 0 0 127 0" result="hardAlpha"/>
<feOffset/>
<feGaussianBlur stdDeviation="12.6803"/>
<feColorMatrix type="matrix" values="0 0 0 0 0 0 0 0 0 1 0 0 0 0 0.729412 0 0 0 1 0"/>
<feBlend mode="normal" in2="effect3_dropShadow_94_3483" result="effect4_dropShadow_94_3483"/>
<feColorMatrix in="SourceAlpha" type="matrix" values="0 0 0 0 0 0 0 0 0 0 0 0 0 0 0 0 0 0 127 0" result="hardAlpha"/>
<feOffset/>
<feGaussianBlur stdDeviation="21.7376"/>
<feColorMatrix type="matrix" values="0 0 0 0 0 0 0 0 0 1 0 0 0 0 0.729412 0 0 0 1 0"/>
<feBlend mode="normal" in2="effect4_dropShadow_94_3483" result="effect5_dropShadow_94_3483"/>
<feColorMatrix in="SourceAlpha" type="matrix" values="0 0 0 0 0 0 0 0 0 0 0 0 0 0 0 0 0 0 127 0" result="hardAlpha"/>
<feOffset/>
<feGaussianBlur stdDeviation="38.0408"/>
<feColorMatrix type="matrix" values="0 0 0 0 0 0 0 0 0 1 0 0 0 0 0.729412 0 0 0 1 0"/>
<feBlend mode="normal" in2="effect5_dropShadow_94_3483" result="effect6_dropShadow_94_3483"/>
<feBlend mode="normal" in="SourceGraphic" in2="effect6_dropShadow_94_3483" result="shape"/>
</filter>
<linearGradient id="paint0_linear_94_3483" x1="230.954" y1="269.7" x2="55.9116" y2="86.7248" gradientUnits="userSpaceOnUse">
<stop offset="0.526589" stop-color="#0647C7"/>
<stop offset="1" stop-color="#ED00FF"/>
</linearGradient>
<radialGradient id="paint1_radial_94_3483" cx="0" cy="0" r="1" gradientUnits="userSpaceOnUse" gradientTransform="translate(62.5049 70.4159) rotate(130.538) scale(42.9093 59.257)">
<stop stop-color="#FF3E00"/>
<stop offset="0.562168" stop-color="#FFC800"/>
<stop offset="1" stop-color="#FFDD62"/>
</radialGradient>
<linearGradient id="paint2_linear_94_3483" x1="203.722" y1="185.431" x2="334.731" y2="58.3299" gradientUnits="userSpaceOnUse">
<stop stop-color="#5900FF" stop-opacity="0"/>
<stop offset="0.473957" stop-color="#005EFF" stop-opacity="0.31"/>
<stop offset="1" stop-color="#00FFBA"/>
</linearGradient>
<radialGradient id="paint3_radial_94_3483" cx="0" cy="0" r="1" gradientUnits="userSpaceOnUse" gradientTransform="translate(325.291 40.5647) rotate(50.0893) scale(35.8215 49.2868)">
<stop stop-color="#026FF7"/>
<stop offset="0.562168" stop-color="#FF00EF"/>
<stop offset="1" stop-color="#FF002B"/>
</radialGradient>
<radialGradient id="paint4_radial_94_3483" cx="0" cy="0" r="1" gradientUnits="userSpaceOnUse" gradientTransform="translate(299.509 88.0655) rotate(134.583) scale(272.436 380.799)">
<stop stop-color="#FF00D6"/>
<stop offset="0.562168" stop-color="#FF004D"/>
<stop offset="1" stop-color="#FF6291"/>
</radialGradient>
<radialGradient id="paint5_radial_94_3483" cx="0" cy="0" r="1" gradientUnits="userSpaceOnUse" gradientTransform="translate(299.509 88.0655) rotate(134.583) scale(272.436 380.799)">
<stop stop-color="#A000FF"/>
<stop offset="0.562168" stop-color="#A000FF"/>
<stop offset="1" stop-color="#FF0099"/>
</radialGradient>
<radialGradient id="paint6_radial_94_3483" cx="0" cy="0" r="1" gradientUnits="userSpaceOnUse" gradientTransform="translate(259.831 36.1443) rotate(134.583) scale(150.697 210.637)">
<stop stop-color="#FF00D6"/>
<stop offset="0.562168" stop-color="#FF004D"/>
<stop offset="1" stop-color="#FF6291"/>
</radialGradient>
<linearGradient id="paint7_linear_94_3483" x1="142.032" y1="335.356" x2="42.0228" y2="238.507" gradientUnits="userSpaceOnUse">
<stop stop-color="#5900FF" stop-opacity="0"/>
<stop offset="0.473957" stop-color="#005EFF" stop-opacity="0.31"/>
<stop offset="1" stop-color="#00FFBA"/>
</linearGradient>
<radialGradient id="paint8_radial_94_3483" cx="0" cy="0" r="1" gradientUnits="userSpaceOnUse" gradientTransform="translate(49.6017 224.604) rotate(129.72) scale(27.4787 37.7619)">
<stop stop-color="#026FF7"/>
<stop offset="0.562168" stop-color="#FF00EF"/>
<stop offset="1" stop-color="#FF002B"/>
</radialGradient>
<radialGradient id="paint9_radial_94_3483" cx="0" cy="0" r="1" gradientUnits="userSpaceOnUse" gradientTransform="translate(378.355 186.493) rotate(136.253) scale(207.843 216.134)">
<stop stop-color="#FF00C7" stop-opacity="0.62"/>
<stop offset="0.562168" stop-color="#DB00FF" stop-opacity="0.03"/>
<stop offset="1" stop-color="#FF0099" stop-opacity="0"/>
</radialGradient>
<radialGradient id="paint10_radial_94_3483" cx="0" cy="0" r="1" gradientUnits="userSpaceOnUse" gradientTransform="translate(361.753 205.228) rotate(134.653) scale(24.6179 34.4108)">
<stop stop-color="#02D9F7"/>
<stop offset="0.562168" stop-color="#A000FF"/>
<stop offset="1" stop-color="#FF0099"/>
</radialGradient>
<radialGradient id="paint11_radial_94_3483" cx="0" cy="0" r="1" gradientUnits="userSpaceOnUse" gradientTransform="translate(377.68 246.356) rotate(135.023) scale(91.1991 127.45)">
<stop stop-color="#00F1FF" stop-opacity="0.92"/>
<stop offset="0.562168" stop-color="#00FFB1" stop-opacity="0.1"/>
<stop offset="1" stop-color="#00C4FF" stop-opacity="0"/>
</radialGradient>
<radialGradient id="paint12_radial_94_3483" cx="0" cy="0" r="1" gradientUnits="userSpaceOnUse" gradientTransform="translate(375.512 250.966) rotate(134.346) scale(26.5997 37.174)">
<stop stop-color="#F7EB02"/>
<stop offset="0.562168" stop-color="#00FF76"/>
<stop offset="1" stop-color="#00C4FF"/>
</radialGradient>
<linearGradient id="paint13_linear_94_3483" x1="-37.2092" y1="313.264" x2="408.025" y2="313.264" gradientUnits="userSpaceOnUse">
<stop stop-color="#CD06FE" stop-opacity="0.1"/>
<stop offset="0.63" stop-color="#CD06FE"/>
<stop offset="0.846419" stop-color="#CD06FE"/>
<stop offset="1" stop-color="#CD06FE" stop-opacity="0.2"/>
</linearGradient>
<radialGradient id="paint14_radial_94_3483" cx="0" cy="0" r="1" gradientUnits="userSpaceOnUse" gradientTransform="translate(210.715 297.683) scale(270.795 25.126)">
<stop stop-color="#FF0199"/>
<stop offset="1" stop-color="#FF00D6" stop-opacity="0"/>
</radialGradient>
<radialGradient id="paint15_radial_94_3483" cx="0" cy="0" r="1" gradientUnits="userSpaceOnUse" gradientTransform="translate(33.7221 139.284) rotate(49.4615) scale(13.5085 18.655)">
<stop stop-color="#FF00D6"/>
<stop offset="0.562168" stop-color="#FF004D"/>
<stop offset="1" stop-color="#FF6291"/>
</radialGradient>
<radialGradient id="paint16_radial_94_3483" cx="0" cy="0" r="1" gradientUnits="userSpaceOnUse" gradientTransform="translate(37.8015 140.667) rotate(136.73) scale(9.09409 11.4479)">
<stop stop-color="#FFE7AB"/>
<stop offset="1" stop-color="#FABC22"/>
</radialGradient>
<linearGradient id="paint17_linear_94_3483" x1="117.55" y1="240.573" x2="152.876" y2="279.126" gradientUnits="userSpaceOnUse">
<stop stop-color="#0CFFDE"/>
<stop offset="0.65" stop-color="#0CFFDE" stop-opacity="0"/>
</linearGradient>
<linearGradient id="paint18_linear_94_3483" x1="289.311" y1="164.506" x2="276.755" y2="160.534" gradientUnits="userSpaceOnUse">
<stop stop-color="#0087EA"/>
<stop offset="0.3" stop-color="#0093EF"/>
<stop offset="0.83" stop-color="#53AFFA"/>
</linearGradient>
<linearGradient id="paint19_linear_94_3483" x1="291.375" y1="157.697" x2="290.374" y2="157.388" gradientUnits="userSpaceOnUse">
<stop stop-color="#0087EA"/>
<stop offset="0.3" stop-color="#0093EF"/>
<stop offset="0.83" stop-color="#53AFFA"/>
</linearGradient>
<linearGradient id="paint20_linear_94_3483" x1="283.079" y1="184.047" x2="226.231" y2="166.064" gradientUnits="userSpaceOnUse">
<stop stop-color="#0087EA"/>
<stop offset="0.3" stop-color="#0093EF"/>
<stop offset="0.83" stop-color="#53AFFA"/>
</linearGradient>
<linearGradient id="paint21_linear_94_3483" x1="277.579" y1="155.407" x2="277.034" y2="155.232" gradientUnits="userSpaceOnUse">
<stop stop-color="#0087EA"/>
<stop offset="0.3" stop-color="#0093EF"/>
<stop offset="0.83" stop-color="#53AFFA"/>
</linearGradient>
<linearGradient id="paint22_linear_94_3483" x1="277.683" y1="155.778" x2="277.466" y2="155.716" gradientUnits="userSpaceOnUse">
<stop stop-color="#0087EA"/>
<stop offset="0.3" stop-color="#0093EF"/>
<stop offset="0.83" stop-color="#53AFFA"/>
</linearGradient>
<linearGradient id="paint23_linear_94_3483" x1="289.703" y1="163.217" x2="277.147" y2="159.245" gradientUnits="userSpaceOnUse">
<stop stop-color="#0087EA"/>
<stop offset="0.3" stop-color="#0093EF"/>
<stop offset="0.83" stop-color="#53AFFA"/>
</linearGradient>
<linearGradient id="paint24_linear_94_3483" x1="138.753" y1="124.652" x2="192.237" y2="178.755" gradientUnits="userSpaceOnUse">
<stop stop-color="#0087EA"/>
<stop offset="0.3" stop-color="#0093EF"/>
<stop offset="0.83" stop-color="#53AFFA"/>
</linearGradient>
<linearGradient id="paint25_linear_94_3483" x1="290.962" y1="157.945" x2="220.857" y2="135.774" gradientUnits="userSpaceOnUse">
<stop stop-color="#0087EA"/>
<stop offset="0.3" stop-color="#0093EF"/>
<stop offset="0.83" stop-color="#53AFFA"/>
</linearGradient>
<clipPath id="clip0_94_3483">
<rect width="420.431" height="345.45" fill="white" transform="translate(0.5 0.142578)"/>
</clipPath>
<clipPath id="clip1_94_3483">
<rect width="15.4048" height="23.1071" fill="white" transform="translate(287.785 99.3809) rotate(37.8083)"/>
</clipPath>
<clipPath id="clip2_94_3483">
<rect width="8.91854" height="16.6209" fill="white" transform="translate(257.695 163.82) rotate(61.2381)"/>
</clipPath>
</defs>
</svg>
