<svg width="308" height="199" viewBox="0 0 308 199" fill="none" xmlns="http://www.w3.org/2000/svg">
    <path d="M72.1375 132.171L71.0918 145.914L57.3492 146.959L71.0918 148.005L72.1375 161.748L73.1832 148.005L86.9258 146.959L73.1832 145.914L72.1375 132.171Z" fill="url(#paint0_radial_948_5821)"/>
    <path d="M72.1375 132.171L71.0918 145.914L57.3492 146.959L71.0918 148.005L72.1375 161.748L73.1832 148.005L86.9258 146.959L73.1832 145.914L72.1375 132.171Z" fill="url(#paint1_radial_948_5821)"/>
    <g clip-path="url(#clip0_948_5821)">
        <path d="M104.683 128.895C102.972 124.869 103.013 120.309 104.793 116.316C107.064 111.247 109.983 105.255 110.036 100.544C110.216 83.7455 97.2881 78.443 94.9851 69.3277C94.9851 69.3277 98.505 65.4206 97.6965 62.4246C96.4715 57.865 84.8993 53.0426 80.9548 54.3067C78.5048 55.0865 77.8064 57.8855 77.8064 57.8855C65.9034 54.8895 58.3697 57.237 54.4456 58.2302C40.0232 61.8911 32.2567 69.4714 32.2567 69.4714C30.1456 67.723 29.4963 67.2552 28.4551 67.5055C24.78 68.3961 17.2708 75.6153 17.5403 81.4595C17.7036 85.0547 23.7715 86.7949 23.7715 86.7949C25.3272 94.2356 17.675 107.336 22.5015 117.826C23.6938 120.42 26.3276 123.572 28.9818 126.601C31.097 128.989 31.4604 132.469 29.8801 135.244C22.8935 147.527 5.25344 181.998 11.8195 206.733L132.225 205.19C132.225 205.19 146.697 175.559 104.687 128.915" fill="#66B1FF"/>
        <path d="M101.526 163.649C85.032 149.344 70.1759 164.928 68.9813 166.232C67.5446 165.191 49.7985 152.908 36.5803 170.21C26.8473 182.953 31.8062 202.24 37.9966 216.086L107.507 216.705C111.94 202.035 115.996 176.198 101.526 163.649Z" fill="white"/>
        <path d="M92.5823 87.1487C89.1012 84.4288 67.8322 89.2344 67.8322 89.2344C67.8322 89.2344 50.0646 92.9544 46.2537 100.029C44.8939 102.562 42.6994 109.481 45.4395 112.673C48.7251 116.499 62.3561 127.911 72.2537 126.903C81.2108 125.955 97.4598 106.269 97.7936 101.139C98.0949 96.4997 95.5463 89.4742 92.5701 87.1446" fill="white"/>
        <path d="M78.9415 61.5709C77.7367 60.7886 73.6444 58.8114 67.0282 61.9663C65.6518 62.6239 64.643 65.5037 67.0894 66.7286C69.2213 67.7989 77.9122 66.5438 79.211 65.6885C80.5097 64.8331 80.5751 62.6368 78.9374 61.5709" fill="#0073E4"/>
        <path d="M40.6904 72.1186C41.4238 70.9484 44.1934 67.5281 51.4865 67.1432C52.9942 67.0608 55.1576 68.9496 53.5065 71.0308C52.0683 72.8451 43.7715 75.6881 42.2391 75.5742C40.7068 75.4603 39.6989 73.705 40.6863 72.1186" fill="#0073E4"/>
        <path d="M71.4582 86.8544C71.4582 86.8544 57.998 90.3208 59.6008 94.4553C61.2036 98.5899 70.4932 103.476 75.3507 102.223C81.8232 100.553 86.0633 92.2001 85.495 87.7857C84.9266 83.3713 71.4705 86.8544 71.4705 86.8544" fill="#0073E4"/>
        <path d="M54.8633 103.487C60.9692 107.976 69.7973 113.725 85.8605 104.527C86.7844 103.997 86.9651 105.647 79.6275 112.633C75.3078 116.744 70.8485 119.205 67.3912 118.366C63.5971 117.446 61.3306 114.15 59.4335 111.778C54.5801 105.708 52.9868 102.102 54.8675 103.483" fill="#143860"/>
        <path d="M58.5529 83.433C59.2864 86.7385 57.2269 90.0146 53.9575 90.7552C53.9451 90.7552 53.9326 90.7594 53.916 90.7635C50.6259 91.5167 47.3483 89.4498 46.5776 86.1318C45.8441 82.8264 47.9036 79.5503 51.173 78.8097C51.1854 78.8097 51.1978 78.8055 51.2143 78.8013C54.5044 78.0482 57.7822 80.1151 58.5529 83.433Z" fill="white"/>
        <path d="M83.8651 76.5361C84.595 79.8419 82.5338 83.1185 79.2577 83.855C79.2494 83.855 79.2412 83.855 79.2329 83.8592C75.9401 84.6125 72.6598 82.5453 71.8885 79.2268C71.1545 75.9209 73.2155 72.6444 76.4875 71.9037C76.4999 71.9037 76.5124 71.8995 76.529 71.8953C79.8217 71.1462 83.0979 73.2176 83.8651 76.5361Z" fill="white"/>
        <path d="M80.55 161.242L81.8287 161.46C82.5699 161.59 83.2786 161.101 83.413 160.366L84.7731 151.942C84.9034 151.211 82.9364 150.888 82.9364 150.888C81.9672 150.629 81.3645 150.67 81.2342 151.401L79.4301 159.704C79.3038 160.435 79.7966 161.129 80.5378 161.258H80.5459" fill="#F4901E"/>
        <path d="M120.211 144.718L120.137 144.955C119.845 145.898 120.42 146.883 121.414 147.159C121.419 147.159 121.423 147.159 121.431 147.163L125.855 148.37C126.862 148.645 127.913 148.106 128.217 147.159L128.291 146.922C128.587 145.979 128.702 145.323 127.675 145.048L122.322 143.123C121.312 142.847 120.523 143.755 120.227 144.702" fill="#F4901E"/>
        <path d="M112.852 216.211C104.756 217.282 83.6602 216.272 83.6602 216.272C79.3215 215.798 75.1834 213.819 75.605 208.068C76.6692 193.469 79.6122 170.421 84.6385 146.715C85.9196 140.669 87.3195 137.247 95.4525 138.874C104.208 140.628 118.476 143.285 126.335 146.449C131.218 148.416 132.25 150.415 131.185 156.637C128.582 171.819 124.456 196.507 119.684 211.211C118.48 214.915 116.696 215.708 112.856 216.207" fill="#FFBC00"/>
        <path d="M93.2642 161.385L90.5394 161.01C88.7296 160.586 87.5706 158.812 87.9041 156.98L89.8928 146.411C90.2182 144.698 91.8611 143.572 93.5692 143.894C93.6627 143.911 93.7604 143.935 93.8539 143.964L96.9529 144.78C98.7423 145.261 99.637 146.709 99.271 148.508L97.1358 158.938C96.782 160.659 95.1065 161.769 93.3903 161.414C93.3496 161.406 93.3048 161.398 93.2642 161.385Z" fill="#F4901E"/>
        <path d="M98.1072 146.955C99.0182 148.322 98.5855 150.125 97.1463 150.987C97.0673 151.035 96.984 151.078 96.9008 151.117C95.237 151.94 93.1822 151.428 92.1631 149.936C91.248 148.574 91.6764 146.77 93.1156 145.904C93.2113 145.845 93.3111 145.794 93.411 145.746C95.079 144.943 97.1214 145.475 98.1239 146.971" fill="#333333"/>
        <path d="M96.2186 157.267C95.7718 159.127 93.9381 160.279 92.0919 159.861C90.2667 159.421 89.0991 157.608 89.4405 155.74C89.8789 153.859 91.742 152.694 93.6009 153.138H93.6093C95.4218 153.594 96.5684 155.403 96.2228 157.263" fill="#333333"/>
        <path d="M113.157 176.363C113.197 180.387 109.967 183.682 105.943 183.722C101.92 183.763 98.625 180.533 98.5845 176.509C98.544 172.485 101.774 169.19 105.798 169.15C105.822 169.15 105.846 169.15 105.871 169.15C109.874 169.134 113.132 172.36 113.157 176.363Z" fill="#F4901E"/>
        <path d="M105.959 199.94C110.806 192.49 106.935 189.191 106.935 189.191C106.935 189.191 113.929 182.528 110.834 176.696C108.209 171.75 103.644 173.853 103.644 173.853C107.225 170.164 110.414 166.152 105.429 161.714C99.5822 156.51 88.9754 164.501 81.3408 170.439L82.4145 163.546C83.4883 155.108 76.2906 153.834 73.5226 155.047C69.7869 156.686 67.8068 160.038 67.3413 167.128C67.1862 169.259 66.5207 171.32 65.4021 173.135C64.1079 175.27 63.0137 177.52 62.1359 179.856C52.705 188.462 26.7718 186.36 21.101 180.733C19.6843 179.327 19.1495 177.381 20.7213 173.43C24.9591 162.776 30.4829 133.102 30.4829 133.102C-6.19172 169.89 -18.9868 185.196 -9.73139 205.092C0.218089 226.487 37.2398 234.027 76.5233 221.074C76.5233 221.065 95.8997 215.406 105.959 199.94Z" fill="url(#paint2_linear_948_5821)"/>
        <path d="M106.255 173.752C105.588 173.784 104.932 173.925 104.314 174.169C104.835 173.646 98.5586 179.008 94.2838 181.127C93.6003 181.465 94.2029 182.458 94.8864 182.12C99.1531 180.005 103.003 177.171 106.251 173.752" fill="#66B1FF"/>
        <path d="M107.785 190.069C107.591 189.706 107.341 189.379 107.044 189.094C103.191 193.325 98.6101 196.843 93.519 199.491C92.8282 199.851 93.4409 200.883 94.1359 200.524C99.2681 197.855 103.886 194.321 107.789 190.073" fill="#66B1FF"/>
        <path d="M121.506 164.995C118.977 169.64 121.999 173.834 125.331 176.722C122.109 175.137 118.443 174.428 116.739 177.996C114.414 182.867 116.123 186.66 121.465 190.793C119.096 189.609 116.241 189.113 114.798 192.353C111.23 200.366 119.752 206.592 119.752 206.592C120.727 210.688 124.491 212.118 127.745 212.101C138.519 212.056 141.565 200.435 141.536 189.314C141.504 176.98 139.155 172.053 137.511 169.288C135.815 166.42 130.412 162.25 126.093 162.25C124.16 162.181 122.366 163.254 121.506 164.995Z" fill="url(#paint3_linear_948_5821)"/>
        <path d="M129.833 178.813C127.618 176.755 125.097 175.051 122.362 173.752C123.136 174.729 124.008 175.63 124.964 176.437C124.738 176.329 127.606 178.363 129.075 179.733C129.635 180.256 130.394 179.331 129.837 178.825" fill="#66B1FF"/>
        <path d="M126.513 192.607C124.672 192.175 122.895 191.521 121.225 190.667C120.384 190.25 119.471 189.975 118.527 189.859C120.751 191.697 123.413 193.006 126.286 193.675C127.023 193.848 127.247 192.765 126.513 192.596" fill="#66B1FF"/>
        <path d="M61.0024 112.208C61.0024 112.208 71.1516 111.361 74.0154 115.549C74.3438 116.032 71.5 117.777 68.2438 117.471C67.3226 117.384 64.9756 116.574 63.1852 114.746" fill="#ED7865"/>
        <mask id="mask0_948_5821" style="mask-type:luminance" maskUnits="userSpaceOnUse" x="46" y="78" width="13" height="13">
            <path d="M58.5519 83.4321C59.2854 86.7375 57.2259 90.0136 53.9565 90.7542C53.9441 90.7542 53.9316 90.7584 53.9151 90.7626C50.625 91.5157 47.3473 89.4488 46.5766 86.1308C45.8432 82.8254 47.9026 79.5493 51.172 78.8087C51.1844 78.8087 51.1968 78.8045 51.2134 78.8003C54.5035 78.0472 57.7812 80.1141 58.5519 83.4321Z" fill="white"/>
        </mask>
        <g mask="url(#mask0_948_5821)">
            <path d="M48.7297 86.3153C48.7297 88.8555 50.7914 90.9173 53.3316 90.9173C55.8718 90.9173 57.9336 88.8555 57.9336 86.3153C57.9336 83.7752 55.8718 81.7134 53.3316 81.7134C50.7914 81.7134 48.7297 83.7752 48.7297 86.3153Z" fill="#333333"/>
        </g>
        <mask id="mask1_948_5821" style="mask-type:luminance" maskUnits="userSpaceOnUse" x="71" y="71" width="14" height="14">
            <path d="M83.8653 76.5351C84.5952 79.841 82.5341 83.1175 79.2579 83.854C79.2496 83.854 79.2414 83.8541 79.2331 83.8582C75.9404 84.6115 72.6601 82.5443 71.8887 79.2258C71.1547 75.92 73.2157 72.6434 76.4877 71.9027C76.5002 71.9027 76.5126 71.8985 76.5292 71.8943C79.822 71.1453 83.0981 73.2167 83.8653 76.5351Z" fill="white"/>
        </mask>
        <g mask="url(#mask1_948_5821)">
            <path d="M74.0414 79.411C74.0414 81.9523 75.9304 84.013 78.2599 84.013C80.5893 84.013 82.4783 81.9523 82.4783 79.411C82.4783 76.8698 80.5893 74.8091 78.2599 74.8091C75.9304 74.8091 74.0414 76.8698 74.0414 79.411Z" fill="#333333"/>
        </g>
        <path d="M47.1966 92.0034C47.1966 92.0034 52.5698 87.5185 61.0024 87.0825V89.8679L48.8361 95.5194L47.1966 92.0034Z" fill="#66B1FF"/>
        <path d="M71.7407 84.3973C71.7407 84.3973 78.0949 80.5571 87.0806 82.0654L85.2513 84.9119L72.206 85.5493L71.7407 84.3973Z" fill="#66B1FF"/>
    </g>
    <path d="M139.692 131.794C139.789 131.087 140.396 129.439 142.057 128.505C143.717 127.571 145.36 127.854 145.974 128.112" stroke="#0647C7" stroke-width="1.01386" stroke-linecap="round"/>
    <path d="M134.473 122.226C135.109 122.629 136.876 123.32 138.851 122.858C140.826 122.397 141.814 121.147 142.062 120.579" stroke="#0647C7" stroke-width="1.01386" stroke-linecap="round"/>
    <path d="M138.822 126.576C142.046 125.399 142.558 124.902 143.65 124.353" stroke="#0647C7" stroke-width="1.01386" stroke-linecap="round"/>
    <path d="M131.863 128.315C135.208 127.55 135.778 127.12 136.929 126.712" stroke="#0647C7" stroke-width="1.01386" stroke-linecap="round"/>
    <path d="M200.921 102.942C216.431 107.04 241.476 113.199 247.175 119.292C252.874 125.385 248.799 142.057 242.598 146.395C237.95 149.647 234.368 149.714 188.142 137.055C156.379 128.357 152.051 126.439 147.686 121.175C143.321 115.911 146.455 99.7194 154.128 96.1094C164.79 91.0955 186.285 99.074 200.921 102.942Z" fill="#0647C7"/>
    <path d="M169.772 104.276C169.836 104.036 169.975 103.858 170.188 103.742C170.409 103.627 170.644 103.603 170.891 103.669C171.092 103.723 171.254 103.829 171.378 103.986C171.503 104.135 171.602 104.353 171.675 104.637L172.72 108.532L175.04 105.526C175.214 105.308 175.385 105.164 175.553 105.093C175.721 105.022 175.918 105.016 176.142 105.076C176.366 105.136 176.537 105.253 176.657 105.426C176.778 105.591 176.807 105.793 176.743 106.033C176.706 106.172 176.617 106.334 176.476 106.52L172.912 110.969C172.424 111.584 171.95 112.012 171.488 112.252C171.028 112.485 170.516 112.526 169.952 112.375C169.805 112.335 169.652 112.274 169.492 112.189C169.301 112.097 169.154 111.95 169.051 111.748C168.948 111.547 168.925 111.338 168.983 111.121C169.01 111.021 169.062 110.919 169.139 110.815C169.292 110.616 169.475 110.52 169.688 110.528C169.912 110.529 170.147 110.563 170.394 110.63C170.549 110.671 170.684 110.674 170.801 110.64C170.918 110.605 171.039 110.509 171.164 110.352L171.334 110.136L169.797 104.879C169.733 104.655 169.724 104.454 169.772 104.276ZM177.502 110.311C177.438 110.551 177.441 110.742 177.51 110.885C177.58 111.028 177.699 111.122 177.869 111.167C177.962 111.192 178.076 111.214 178.212 111.234C178.349 111.246 178.466 111.244 178.561 111.229L178.927 109.861C178.987 109.637 179.119 109.469 179.323 109.358C179.536 109.241 179.774 109.218 180.037 109.288C180.292 109.357 180.475 109.493 180.586 109.697C180.699 109.893 180.726 110.103 180.666 110.327L179.657 114.094C179.597 114.318 179.46 114.489 179.247 114.605C179.043 114.716 178.818 114.739 178.571 114.672C178.323 114.606 178.135 114.473 178.007 114.273C177.888 114.067 177.859 113.852 177.919 113.628L178.154 112.747C177.981 112.775 177.785 112.781 177.566 112.763C177.355 112.748 177.145 112.713 176.936 112.657C176.581 112.561 176.292 112.434 176.07 112.275C175.857 112.111 175.697 111.919 175.59 111.699C175.493 111.475 175.444 111.225 175.442 110.952C175.451 110.672 175.499 110.37 175.586 110.046L175.843 109.084C175.903 108.86 176.041 108.685 176.256 108.561C176.482 108.431 176.741 108.405 177.035 108.484C177.298 108.554 177.488 108.692 177.607 108.898C177.736 109.098 177.77 109.31 177.71 109.534L177.502 110.311ZM182.071 115.611C181.6 115.484 181.245 115.232 181.007 114.853C180.778 114.469 180.736 114.01 180.878 113.477C180.957 113.183 181.075 112.942 181.234 112.752C181.392 112.563 181.575 112.421 181.782 112.328C181.991 112.227 182.217 112.171 182.46 112.162C182.711 112.154 182.963 112.185 183.218 112.253C183.45 112.315 183.646 112.405 183.805 112.522C183.974 112.634 184.092 112.732 184.161 112.816L184.189 112.712C184.261 112.442 184.248 112.227 184.15 112.068C184.061 111.904 183.905 111.791 183.681 111.731C183.542 111.694 183.408 111.67 183.278 111.66C183.158 111.645 183.039 111.638 182.923 111.64C182.88 111.645 182.843 111.643 182.812 111.635C182.781 111.627 182.751 111.618 182.72 111.61C182.573 111.571 182.453 111.493 182.36 111.377C182.274 111.263 182.225 111.122 182.213 110.952C182.204 110.892 182.209 110.827 182.227 110.758C182.269 110.603 182.356 110.477 182.49 110.381C182.633 110.278 182.794 110.218 182.973 110.2C183.127 110.183 183.317 110.184 183.543 110.204C183.778 110.225 184.011 110.267 184.243 110.329C185.039 110.542 185.547 110.886 185.768 111.359C185.989 111.832 186.006 112.421 185.818 113.124L185.175 115.523C185.101 115.802 184.967 115.993 184.773 116.099C184.579 116.204 184.389 116.232 184.204 116.182C183.98 116.122 183.824 116.023 183.737 115.883C183.65 115.744 183.604 115.578 183.597 115.386C183.412 115.552 183.182 115.652 182.908 115.686C182.636 115.712 182.357 115.687 182.071 115.611ZM183.881 113.86C183.75 113.7 183.546 113.583 183.267 113.509C183.121 113.469 182.991 113.472 182.88 113.517C182.771 113.554 182.699 113.638 182.663 113.769C182.632 113.885 182.653 113.994 182.725 114.096C182.797 114.198 182.906 114.269 183.053 114.309C183.231 114.356 183.378 114.363 183.495 114.328C183.622 114.287 183.722 114.239 183.795 114.184L183.881 113.86ZM190.698 113.96C190.582 113.929 190.449 113.868 190.299 113.778C190.22 113.732 190.14 113.69 190.059 113.652C189.986 113.616 189.907 113.586 189.822 113.564C189.683 113.526 189.542 113.513 189.398 113.524C189.254 113.536 189.115 113.577 188.98 113.648C188.847 113.712 188.727 113.804 188.62 113.925C188.521 114.047 188.447 114.201 188.397 114.387C188.349 114.564 188.342 114.732 188.374 114.89C188.406 115.048 188.463 115.191 188.544 115.321C188.628 115.442 188.728 115.548 188.845 115.637C188.971 115.721 189.104 115.781 189.243 115.819C189.352 115.848 189.459 115.864 189.566 115.868C189.672 115.871 189.773 115.865 189.869 115.85C189.954 115.839 190.038 115.837 190.119 115.842C190.203 115.84 190.283 115.849 190.36 115.87C190.608 115.936 190.776 116.109 190.867 116.39C190.909 116.543 190.911 116.688 190.874 116.827C190.833 116.982 190.757 117.111 190.646 117.213C190.536 117.316 190.413 117.391 190.276 117.437C190.077 117.5 189.833 117.53 189.544 117.527C189.263 117.526 188.971 117.485 188.67 117.404C188.237 117.288 187.861 117.117 187.54 116.89C187.22 116.664 186.968 116.397 186.785 116.092C186.602 115.786 186.486 115.444 186.438 115.067C186.398 114.692 186.433 114.299 186.542 113.89C186.644 113.511 186.805 113.173 187.025 112.876C187.245 112.579 187.508 112.339 187.814 112.156C188.13 111.967 188.476 111.849 188.853 111.801C189.233 111.745 189.627 111.772 190.036 111.882C190.33 111.96 190.589 112.059 190.815 112.177C191.04 112.296 191.223 112.415 191.364 112.536C191.5 112.647 191.594 112.776 191.646 112.922C191.7 113.061 191.709 113.2 191.671 113.339C191.638 113.462 191.568 113.584 191.461 113.705C191.238 113.951 190.983 114.036 190.698 113.96ZM194.491 118.07C194.431 118.294 194.295 118.465 194.081 118.581C193.877 118.692 193.652 118.715 193.405 118.648C193.157 118.582 192.969 118.449 192.841 118.249C192.722 118.043 192.693 117.828 192.753 117.604L193.497 114.822L192.802 114.636C192.578 114.576 192.406 114.443 192.288 114.237C192.179 114.025 192.157 113.796 192.223 113.549C192.29 113.301 192.422 113.117 192.62 112.997C192.827 112.87 193.043 112.837 193.267 112.897L196.397 113.736C196.621 113.796 196.788 113.931 196.897 114.143C197.015 114.349 197.042 114.575 196.976 114.822C196.909 115.07 196.772 115.257 196.565 115.383C196.367 115.504 196.156 115.534 195.931 115.474L195.236 115.288L194.491 118.07ZM200.336 114.717C201.131 114.93 201.712 115.206 202.077 115.544C202.444 115.874 202.562 116.283 202.432 116.77C202.389 116.932 202.322 117.071 202.233 117.188C202.144 117.305 202.039 117.401 201.92 117.477C201.808 117.555 201.689 117.61 201.565 117.643C201.442 117.668 201.323 117.677 201.209 117.672C201.507 117.859 201.717 118.081 201.838 118.337C201.97 118.588 201.999 118.852 201.924 119.131C201.779 119.671 201.457 120.024 200.958 120.188C200.468 120.347 199.787 120.309 198.913 120.075C198.72 120.024 198.493 119.959 198.233 119.88C197.98 119.804 197.732 119.725 197.489 119.644C197.261 119.566 197.09 119.429 196.977 119.233C196.866 119.03 196.842 118.812 196.904 118.58L197.863 114.998C197.923 114.774 198.052 114.602 198.25 114.481C198.455 114.362 198.672 114.325 198.901 114.369C199.119 114.42 199.349 114.473 199.591 114.53C199.84 114.588 200.088 114.65 200.336 114.717ZM198.788 118.501C198.848 118.526 198.945 118.564 199.08 118.617C199.225 118.664 199.359 118.704 199.483 118.737C199.645 118.781 199.782 118.78 199.893 118.735C200.014 118.685 200.088 118.61 200.115 118.509C200.186 118.246 199.993 118.054 199.537 117.932L198.981 117.783L198.788 118.501ZM199.26 116.739L199.839 116.895C199.971 116.93 200.102 116.936 200.232 116.913C200.365 116.882 200.45 116.793 200.49 116.646C200.517 116.546 200.501 116.451 200.442 116.36C200.386 116.262 200.28 116.193 200.125 116.151C200.071 116.137 200.008 116.124 199.937 116.113C199.867 116.095 199.797 116.08 199.725 116.069C199.663 116.052 199.604 116.041 199.548 116.034C199.502 116.021 199.471 116.013 199.455 116.009L199.26 116.739ZM205.174 121.828C204.726 121.708 204.343 121.531 204.024 121.296C203.706 121.062 203.453 120.787 203.264 120.471C203.083 120.158 202.967 119.816 202.917 119.446C202.875 119.079 202.906 118.698 203.012 118.304C203.117 117.91 203.28 117.564 203.501 117.267C203.729 116.972 203.999 116.734 204.313 116.553C204.634 116.374 204.991 116.263 205.384 116.219C205.776 116.175 206.197 116.213 206.645 116.333C207.093 116.454 207.476 116.631 207.795 116.865C208.113 117.1 208.362 117.373 208.544 117.687C208.732 118.003 208.848 118.344 208.89 118.712C208.94 119.081 208.913 119.463 208.807 119.857C208.702 120.251 208.535 120.596 208.307 120.891C208.087 121.188 207.816 121.426 207.495 121.605C207.181 121.786 206.828 121.899 206.435 121.942C206.043 121.986 205.622 121.948 205.174 121.828ZM206.211 117.956C205.932 117.882 205.662 117.917 205.4 118.062C205.139 118.199 204.962 118.446 204.866 118.801C204.777 119.133 204.805 119.431 204.951 119.693C205.096 119.956 205.315 120.126 205.609 120.205C205.902 120.284 206.175 120.253 206.428 120.114C206.683 119.967 206.858 119.716 206.953 119.36C207.044 119.02 207.016 118.723 206.869 118.468C206.724 118.206 206.504 118.035 206.211 117.956ZM212.741 118.042C213.537 118.255 214.118 118.531 214.483 118.869C214.85 119.199 214.968 119.608 214.838 120.095C214.794 120.257 214.728 120.397 214.639 120.513C214.55 120.63 214.445 120.727 214.325 120.802C214.214 120.88 214.095 120.935 213.971 120.968C213.848 120.993 213.729 121.003 213.615 120.997C213.913 121.184 214.122 121.406 214.244 121.662C214.376 121.913 214.404 122.178 214.33 122.456C214.185 122.997 213.863 123.349 213.364 123.514C212.874 123.672 212.192 123.635 211.319 123.4C211.126 123.349 210.899 123.284 210.639 123.206C210.386 123.13 210.138 123.051 209.894 122.969C209.667 122.891 209.496 122.755 209.383 122.559C209.272 122.355 209.248 122.137 209.31 121.905L210.269 118.323C210.328 118.099 210.457 117.927 210.655 117.806C210.861 117.687 211.078 117.65 211.306 117.695C211.525 117.745 211.755 117.798 211.996 117.855C212.246 117.913 212.494 117.976 212.741 118.042ZM211.194 121.826C211.254 121.851 211.351 121.889 211.486 121.942C211.631 121.989 211.765 122.029 211.889 122.062C212.051 122.106 212.188 122.105 212.299 122.06C212.42 122.01 212.494 121.935 212.521 121.834C212.592 121.572 212.399 121.379 211.943 121.257L211.386 121.108L211.194 121.826ZM211.666 120.064L212.245 120.22C212.377 120.255 212.508 120.261 212.638 120.238C212.77 120.207 212.856 120.119 212.896 119.972C212.922 119.871 212.907 119.776 212.848 119.686C212.791 119.588 212.686 119.518 212.531 119.476C212.477 119.462 212.414 119.449 212.343 119.438C212.273 119.42 212.203 119.405 212.131 119.394C212.069 119.377 212.01 119.366 211.954 119.359C211.908 119.347 211.877 119.338 211.861 119.334L211.666 120.064ZM216.334 124.794C215.863 124.668 215.508 124.416 215.27 124.037C215.042 123.653 214.999 123.194 215.141 122.661C215.22 122.367 215.339 122.126 215.497 121.936C215.655 121.747 215.838 121.605 216.045 121.512C216.255 121.41 216.481 121.355 216.723 121.346C216.974 121.338 217.227 121.369 217.482 121.437C217.713 121.499 217.909 121.589 218.068 121.706C218.237 121.817 218.356 121.916 218.424 122L218.452 121.896C218.524 121.625 218.511 121.411 218.413 121.252C218.325 121.087 218.168 120.975 217.944 120.915C217.805 120.878 217.671 120.854 217.541 120.844C217.421 120.828 217.303 120.822 217.186 120.824C217.143 120.829 217.107 120.827 217.076 120.819C217.045 120.81 217.014 120.802 216.983 120.794C216.836 120.755 216.716 120.677 216.623 120.561C216.538 120.447 216.488 120.305 216.476 120.136C216.467 120.076 216.472 120.011 216.491 119.941C216.532 119.787 216.619 119.661 216.753 119.564C216.896 119.462 217.057 119.402 217.236 119.383C217.39 119.367 217.58 119.368 217.807 119.387C218.041 119.409 218.274 119.45 218.506 119.513C219.302 119.726 219.81 120.069 220.032 120.543C220.253 121.016 220.269 121.604 220.081 122.308L219.438 124.707C219.364 124.985 219.23 125.177 219.036 125.282C218.842 125.388 218.652 125.416 218.467 125.366C218.243 125.306 218.087 125.206 218 125.067C217.914 124.928 217.867 124.762 217.86 124.57C217.675 124.735 217.445 124.835 217.171 124.87C216.899 124.896 216.62 124.871 216.334 124.794ZM218.145 123.043C218.013 122.884 217.809 122.767 217.531 122.692C217.384 122.653 217.255 122.656 217.143 122.7C217.034 122.737 216.962 122.822 216.927 122.953C216.896 123.069 216.916 123.178 216.988 123.28C217.06 123.382 217.17 123.453 217.316 123.492C217.494 123.54 217.642 123.546 217.759 123.511C217.885 123.471 217.985 123.423 218.058 123.368L218.145 123.043ZM223.423 125.825C223.363 126.049 223.226 126.219 223.013 126.336C222.809 126.447 222.584 126.469 222.337 126.403C222.089 126.337 221.901 126.204 221.773 126.004C221.654 125.798 221.624 125.583 221.684 125.359L222.429 122.577L221.734 122.39C221.51 122.33 221.338 122.197 221.219 121.992C221.11 121.78 221.089 121.551 221.155 121.303C221.221 121.056 221.353 120.872 221.551 120.751C221.759 120.625 221.975 120.591 222.199 120.652L225.329 121.49C225.553 121.55 225.719 121.686 225.829 121.898C225.947 122.103 225.974 122.33 225.907 122.577C225.841 122.825 225.704 123.011 225.496 123.138C225.298 123.259 225.087 123.289 224.863 123.229L224.168 123.043L223.423 125.825ZM229.027 123.786C229.483 123.908 229.847 124.064 230.12 124.253C230.4 124.444 230.605 124.652 230.735 124.878C230.873 125.105 230.951 125.341 230.968 125.586C230.985 125.831 230.963 126.069 230.901 126.301C230.832 126.556 230.718 126.799 230.557 127.029C230.404 127.261 230.2 127.451 229.945 127.598C229.698 127.747 229.396 127.84 229.038 127.876C228.688 127.915 228.285 127.873 227.829 127.751L226.427 127.375C226.203 127.315 226.03 127.186 225.909 126.988C225.798 126.784 225.773 126.57 225.833 126.346L226.81 122.695C226.87 122.471 227.002 122.303 227.206 122.192C227.419 122.075 227.649 122.05 227.897 122.116C228.144 122.183 228.327 122.319 228.446 122.525C228.574 122.725 228.609 122.937 228.549 123.161L228.425 123.625L229.027 123.786ZM227.757 126.117L228.198 126.235C228.43 126.297 228.612 126.296 228.745 126.232C228.888 126.163 228.982 126.043 229.028 125.873C229.073 125.703 229.055 125.554 228.974 125.424C228.9 125.297 228.744 125.201 228.504 125.137L228.052 125.016L227.757 126.117ZM173.387 118.882C174.183 119.095 174.763 119.371 175.128 119.709C175.495 120.039 175.613 120.448 175.483 120.935C175.44 121.097 175.373 121.236 175.284 121.353C175.195 121.47 175.09 121.566 174.971 121.642C174.859 121.72 174.741 121.775 174.616 121.808C174.493 121.833 174.375 121.843 174.26 121.837C174.558 122.024 174.768 122.246 174.89 122.502C175.021 122.753 175.05 123.017 174.975 123.296C174.83 123.837 174.508 124.189 174.009 124.353C173.519 124.512 172.838 124.474 171.965 124.24C171.771 124.189 171.544 124.124 171.284 124.045C171.031 123.969 170.783 123.891 170.54 123.809C170.312 123.731 170.142 123.594 170.028 123.398C169.917 123.195 169.893 122.977 169.955 122.745L170.914 119.163C170.974 118.939 171.103 118.767 171.301 118.646C171.506 118.527 171.723 118.49 171.952 118.535C172.17 118.585 172.4 118.638 172.642 118.695C172.891 118.753 173.139 118.816 173.387 118.882ZM171.839 122.666C171.899 122.691 171.996 122.729 172.131 122.782C172.276 122.829 172.41 122.869 172.534 122.902C172.696 122.946 172.833 122.945 172.944 122.9C173.066 122.85 173.14 122.775 173.166 122.674C173.237 122.411 173.044 122.219 172.588 122.097L172.032 121.948L171.839 122.666ZM172.311 120.904L172.891 121.06C173.022 121.095 173.153 121.101 173.283 121.078C173.416 121.047 173.502 120.958 173.541 120.812C173.568 120.711 173.552 120.616 173.493 120.525C173.437 120.427 173.331 120.358 173.177 120.316C173.122 120.302 173.06 120.289 172.988 120.278C172.918 120.26 172.848 120.245 172.776 120.234C172.714 120.217 172.655 120.206 172.599 120.199C172.553 120.186 172.522 120.178 172.507 120.174L172.311 120.904ZM180.365 123.809L179.9 125.547C179.84 125.771 179.703 125.942 179.49 126.059C179.286 126.17 179.06 126.192 178.813 126.126C178.566 126.059 178.378 125.926 178.249 125.726C178.131 125.52 178.101 125.305 178.161 125.081L179.17 121.314C179.23 121.09 179.361 120.922 179.565 120.811C179.779 120.694 180.009 120.669 180.256 120.736C180.503 120.802 180.687 120.938 180.805 121.144C180.934 121.344 180.968 121.556 180.908 121.78L180.465 123.438L182.083 121.846C182.231 121.696 182.388 121.589 182.554 121.525C182.722 121.454 182.907 121.446 183.108 121.5C183.393 121.576 183.592 121.717 183.703 121.92C183.822 122.126 183.851 122.341 183.791 122.565C183.742 122.751 183.636 122.913 183.475 123.052L182.347 124.017L182.977 125.701C183.055 125.904 183.067 126.106 183.013 126.307C182.951 126.539 182.815 126.722 182.605 126.856C182.403 126.993 182.171 127.026 181.908 126.955C181.684 126.895 181.516 126.796 181.404 126.659C181.299 126.523 181.212 126.354 181.141 126.153L180.365 123.809ZM186.149 128.117C185.7 127.997 185.317 127.819 184.999 127.585C184.681 127.351 184.427 127.076 184.239 126.76C184.057 126.446 183.942 126.105 183.892 125.735C183.849 125.368 183.881 124.987 183.986 124.593C184.092 124.199 184.255 123.853 184.475 123.556C184.703 123.261 184.974 123.023 185.287 122.842C185.609 122.663 185.966 122.552 186.358 122.508C186.751 122.464 187.171 122.502 187.62 122.622C188.068 122.742 188.451 122.92 188.769 123.154C189.087 123.388 189.337 123.662 189.518 123.976C189.707 124.292 189.822 124.633 189.865 125.001C189.915 125.37 189.887 125.752 189.782 126.146C189.676 126.54 189.51 126.885 189.281 127.18C189.061 127.477 188.79 127.715 188.469 127.894C188.156 128.075 187.803 128.187 187.41 128.231C187.017 128.275 186.597 128.237 186.149 128.117ZM187.185 124.245C186.907 124.171 186.637 124.206 186.374 124.351C186.114 124.488 185.936 124.734 185.841 125.09C185.752 125.422 185.78 125.72 185.925 125.982C186.07 126.245 186.289 126.415 186.583 126.494C186.877 126.573 187.15 126.542 187.402 126.403C187.657 126.256 187.832 126.005 187.927 125.649C188.018 125.309 187.99 125.012 187.843 124.757C187.698 124.494 187.479 124.324 187.185 124.245ZM194.678 125.471C194.738 125.247 194.87 125.079 195.073 124.968C195.287 124.851 195.517 124.826 195.764 124.892C196.012 124.959 196.195 125.095 196.314 125.3C196.442 125.5 196.477 125.713 196.417 125.937L195.408 129.704C195.348 129.928 195.211 130.099 194.998 130.215C194.794 130.326 194.569 130.349 194.321 130.282C194.074 130.216 193.886 130.083 193.758 129.883C193.639 129.677 193.609 129.462 193.669 129.238L193.964 128.137L192.283 127.686L191.989 128.788C191.929 129.012 191.792 129.182 191.579 129.299C191.375 129.41 191.149 129.432 190.902 129.366C190.655 129.3 190.467 129.166 190.338 128.966C190.219 128.761 190.19 128.546 190.25 128.322L191.259 124.554C191.319 124.33 191.45 124.163 191.654 124.051C191.867 123.935 192.098 123.91 192.345 123.976C192.592 124.042 192.775 124.178 192.894 124.384C193.023 124.584 193.057 124.796 192.997 125.02L192.718 126.063L194.399 126.514L194.678 125.471ZM198.883 128.772L198.418 130.511C198.358 130.735 198.221 130.905 198.008 131.022C197.804 131.133 197.579 131.156 197.331 131.089C197.084 131.023 196.896 130.89 196.768 130.69C196.649 130.484 196.619 130.269 196.679 130.045L197.688 126.277C197.748 126.053 197.88 125.886 198.083 125.775C198.297 125.658 198.527 125.633 198.774 125.699C199.022 125.765 199.205 125.901 199.324 126.107C199.452 126.307 199.487 126.519 199.427 126.743L198.983 128.401L200.601 126.81C200.749 126.659 200.906 126.552 201.072 126.489C201.24 126.418 201.425 126.409 201.626 126.463C201.912 126.54 202.11 126.68 202.221 126.884C202.34 127.09 202.37 127.305 202.31 127.529C202.26 127.714 202.154 127.876 201.993 128.015L200.865 128.98L201.495 130.665C201.573 130.868 201.585 131.07 201.531 131.271C201.469 131.503 201.333 131.686 201.123 131.82C200.921 131.956 200.689 131.989 200.426 131.919C200.202 131.859 200.034 131.76 199.922 131.622C199.817 131.486 199.73 131.318 199.659 131.117L198.883 128.772ZM205.476 130.117C205.489 130.253 205.492 130.382 205.484 130.504C205.484 130.628 205.483 130.756 205.481 130.888C205.527 130.776 205.574 130.665 205.62 130.553C205.669 130.433 205.73 130.313 205.804 130.192L206.821 128.527C206.925 128.356 207.066 128.232 207.243 128.155C207.429 128.081 207.618 128.07 207.812 128.121C208.105 128.2 208.309 128.35 208.424 128.571C208.541 128.785 208.568 129.007 208.506 129.239C208.473 129.363 208.418 129.476 208.34 129.58L205.681 133.203C205.369 133.625 205.093 133.961 204.852 134.211C204.609 134.469 204.38 134.66 204.164 134.784C203.955 134.918 203.752 134.993 203.558 135.007C203.37 135.031 203.175 135.016 202.974 134.962C202.843 134.927 202.723 134.878 202.615 134.816C202.508 134.754 202.41 134.687 202.322 134.613C202.207 134.516 202.128 134.396 202.083 134.251C202.047 134.109 202.047 133.968 202.085 133.829C202.112 133.729 202.152 133.64 202.205 133.563C202.35 133.362 202.511 133.256 202.688 133.246C202.865 133.235 203.05 133.256 203.243 133.307C203.367 133.34 203.477 133.329 203.575 133.272C203.681 133.218 203.779 133.132 203.868 133.015L204.058 132.768L203.346 128.328C203.323 128.198 203.331 128.059 203.37 127.912C203.437 127.665 203.582 127.476 203.808 127.346C204.043 127.211 204.303 127.181 204.589 127.258C204.813 127.318 204.979 127.424 205.087 127.578C205.205 127.725 205.271 127.896 205.286 128.09L205.476 130.117ZM210.544 132.705C210.655 132.818 210.76 132.904 210.86 132.964C210.97 133.018 211.117 133.07 211.303 133.12C211.682 133.221 211.99 133.184 212.227 133.007C212.475 132.825 212.642 132.572 212.729 132.247C212.81 131.946 212.789 131.667 212.667 131.411C212.553 131.156 212.33 130.985 211.998 130.896C211.673 130.809 211.33 130.882 210.969 131.117L210.544 132.705ZM210.718 128.9C210.934 128.958 211.088 129.049 211.179 129.173C211.278 129.299 211.348 129.425 211.388 129.552C211.572 129.452 211.802 129.385 212.076 129.351C212.352 129.309 212.652 129.332 212.977 129.419C213.325 129.512 213.624 129.663 213.875 129.871C214.133 130.081 214.331 130.332 214.467 130.626C214.604 130.919 214.683 131.243 214.705 131.596C214.734 131.952 214.696 132.323 214.593 132.709C214.487 133.103 214.319 133.456 214.086 133.766C213.864 134.071 213.595 134.318 213.279 134.507C212.972 134.697 212.624 134.82 212.237 134.873C211.858 134.929 211.456 134.9 211.031 134.786C210.853 134.738 210.679 134.675 210.51 134.597C210.346 134.528 210.21 134.45 210.101 134.363L209.691 135.893C209.631 136.117 209.495 136.283 209.284 136.392C209.078 136.511 208.852 136.538 208.604 136.471C208.357 136.405 208.17 136.268 208.044 136.06C207.923 135.862 207.892 135.651 207.952 135.427L209.535 129.515C209.595 129.291 209.73 129.112 209.94 128.977C210.157 128.845 210.417 128.82 210.718 128.9ZM219.417 133.046C219.301 133.015 219.168 132.954 219.018 132.864C218.939 132.818 218.859 132.776 218.778 132.738C218.705 132.702 218.626 132.672 218.541 132.65C218.402 132.612 218.261 132.599 218.117 132.61C217.973 132.622 217.834 132.663 217.699 132.734C217.566 132.798 217.446 132.89 217.339 133.011C217.24 133.133 217.166 133.287 217.116 133.473C217.068 133.65 217.061 133.818 217.093 133.976C217.125 134.134 217.182 134.277 217.263 134.407C217.347 134.528 217.447 134.634 217.564 134.723C217.69 134.807 217.823 134.867 217.962 134.905C218.071 134.934 218.178 134.95 218.285 134.954C218.391 134.957 218.492 134.951 218.588 134.936C218.673 134.925 218.757 134.923 218.838 134.928C218.922 134.926 219.002 134.935 219.079 134.955C219.326 135.022 219.495 135.195 219.586 135.476C219.628 135.628 219.63 135.774 219.593 135.913C219.552 136.068 219.476 136.196 219.365 136.299C219.255 136.402 219.132 136.477 218.995 136.523C218.796 136.586 218.552 136.616 218.263 136.613C217.982 136.612 217.69 136.571 217.389 136.49C216.956 136.374 216.58 136.203 216.259 135.976C215.939 135.75 215.687 135.483 215.504 135.177C215.321 134.872 215.205 134.53 215.157 134.153C215.117 133.778 215.152 133.385 215.261 132.976C215.363 132.597 215.524 132.259 215.744 131.962C215.964 131.665 216.227 131.425 216.533 131.242C216.849 131.053 217.195 130.935 217.572 130.887C217.951 130.831 218.346 130.858 218.755 130.968C219.049 131.046 219.308 131.145 219.533 131.263C219.759 131.381 219.942 131.501 220.083 131.622C220.219 131.733 220.313 131.861 220.365 132.008C220.419 132.147 220.428 132.285 220.39 132.425C220.357 132.548 220.287 132.67 220.18 132.791C219.957 133.037 219.702 133.122 219.417 133.046ZM224.217 134.755C224.265 134.577 224.235 134.395 224.127 134.209C224.029 134.017 223.842 133.884 223.563 133.809C223.27 133.731 223.029 133.732 222.841 133.815C222.654 133.897 222.486 134.042 222.339 134.251L224.217 134.755ZM224.009 132.376C224.341 132.465 224.643 132.608 224.913 132.804C225.191 133.003 225.417 133.242 225.591 133.52C225.765 133.799 225.881 134.107 225.939 134.446C225.998 134.785 225.977 135.14 225.878 135.511L225.816 135.742C225.756 135.967 225.635 136.108 225.454 136.167C225.28 136.228 225.12 136.239 224.973 136.2L222.087 135.426C222.106 135.696 222.208 135.918 222.393 136.092C222.586 136.268 222.826 136.394 223.112 136.471C223.212 136.498 223.326 136.52 223.454 136.538C223.584 136.548 223.723 136.552 223.873 136.551C223.956 136.548 224.037 136.558 224.114 136.578C224.245 136.613 224.355 136.684 224.442 136.79C224.532 136.889 224.586 137.011 224.605 137.157C224.617 137.235 224.611 137.32 224.586 137.413C224.551 137.544 224.473 137.664 224.353 137.773C224.243 137.876 224.1 137.945 223.925 137.981C223.705 138.03 223.471 138.037 223.223 138.004C222.983 137.973 222.755 137.928 222.538 137.87C222.106 137.754 221.733 137.584 221.42 137.36C221.108 137.135 220.86 136.87 220.677 136.564C220.501 136.26 220.39 135.92 220.342 135.542C220.301 135.167 220.336 134.775 220.446 134.365C220.547 133.986 220.708 133.649 220.928 133.351C221.156 133.056 221.423 132.817 221.729 132.634C222.044 132.446 222.395 132.328 222.78 132.282C223.167 132.229 223.576 132.26 224.009 132.376Z" fill="white"/>
    <path opacity="0.1" d="M177.428 167.237L177.43 167.238L185.111 175.151L185.113 175.153L189.808 179.957L194.503 175.153L194.505 175.151L202.186 167.238L202.188 167.237C204.99 164.369 204.99 159.803 202.188 156.936L202.188 156.936L202.184 156.931C199.446 154.082 194.963 154.075 192.168 156.936L190.338 158.807L189.808 159.35L189.278 158.807L187.448 156.936C184.653 154.075 180.17 154.082 177.432 156.931L177.433 156.931L177.428 156.936C174.626 159.803 174.626 164.369 177.428 167.237Z" stroke="#FF0199" stroke-width="1.483"/>
    <path d="M252.396 107.779C252.487 108.487 252.326 110.236 250.964 111.568C249.602 112.9 247.942 113.053 247.282 112.962" stroke="#0647C7" stroke-width="1.01386" stroke-linecap="round"/>
    <path d="M259.915 115.671C259.196 115.446 257.31 115.237 255.522 116.193C253.734 117.15 253.103 118.614 253.011 119.226" stroke="#0647C7" stroke-width="1.01386" stroke-linecap="round"/>
    <path d="M259.572 109.751C256.111 111.289 251.413 115.179 250.5 115.992" stroke="#0647C7" stroke-width="1.01386" stroke-linecap="round"/>
    <path d="M57.407 2.14551L56.7799 10.3877L48.5377 11.0149L56.7799 11.642L57.407 19.8842L58.0342 11.642L66.2764 11.0149L58.0342 10.3877L57.407 2.14551Z" fill="url(#paint4_radial_948_5821)"/>
    <path d="M57.407 2.14551L56.7799 10.3877L48.5377 11.0149L56.7799 11.642L57.407 19.8842L58.0342 11.642L66.2764 11.0149L58.0342 10.3877L57.407 2.14551Z" fill="url(#paint5_radial_948_5821)"/>
    <path d="M296.939 127.514L296.312 135.756L288.07 136.383L296.312 137.01L296.939 145.252L297.566 137.01L305.809 136.383L297.566 135.756L296.939 127.514Z" fill="url(#paint6_radial_948_5821)"/>
    <path d="M296.939 127.514L296.312 135.756L288.07 136.383L296.312 137.01L296.939 145.252L297.566 137.01L305.809 136.383L297.566 135.756L296.939 127.514Z" fill="url(#paint7_radial_948_5821)"/>
    <defs>
        <radialGradient id="paint0_radial_948_5821" cx="0" cy="0" r="1" gradientUnits="userSpaceOnUse" gradientTransform="translate(80.8855 135.015) rotate(130.538) scale(28.9871 40.0307)">
            <stop stop-color="#FF00D6"/>
            <stop offset="0.562168" stop-color="#FF004D"/>
            <stop offset="1" stop-color="#FF6291"/>
        </radialGradient>
        <radialGradient id="paint1_radial_948_5821" cx="0" cy="0" r="1" gradientUnits="userSpaceOnUse" gradientTransform="translate(72.1317 137.982) rotate(43.2703) scale(19.5145 24.5654)">
            <stop stop-color="#FFE7AB"/>
            <stop offset="1" stop-color="#FABC22"/>
        </radialGradient>
        <linearGradient id="paint2_linear_948_5821" x1="97.2592" y1="215.132" x2="1.85693" y2="160.262" gradientUnits="userSpaceOnUse">
            <stop stop-color="#0F8AEF"/>
            <stop offset="0.37" stop-color="#3D8AE7"/>
            <stop offset="0.7" stop-color="#66B1FF"/>
        </linearGradient>
        <linearGradient id="paint3_linear_948_5821" x1="113.925" y1="187.176" x2="141.536" y2="187.176" gradientUnits="userSpaceOnUse">
            <stop stop-color="#0F8AEF"/>
            <stop offset="0.58" stop-color="#408DE9"/>
            <stop offset="0.73" stop-color="#4390EA"/>
            <stop offset="0.85" stop-color="#4D99F0"/>
            <stop offset="0.96" stop-color="#5EAAFA"/>
            <stop offset="1" stop-color="#66B1FF"/>
        </linearGradient>
        <radialGradient id="paint4_radial_948_5821" cx="0" cy="0" r="1" gradientUnits="userSpaceOnUse" gradientTransform="translate(62.6537 3.85115) rotate(130.538) scale(17.3852 24.0086)">
            <stop stop-color="#FF00D6"/>
            <stop offset="0.562168" stop-color="#FF004D"/>
            <stop offset="1" stop-color="#FF6291"/>
        </radialGradient>
        <radialGradient id="paint5_radial_948_5821" cx="0" cy="0" r="1" gradientUnits="userSpaceOnUse" gradientTransform="translate(57.4035 5.63077) rotate(43.2703) scale(11.7039 14.7332)">
            <stop stop-color="#FFE7AB"/>
            <stop offset="1" stop-color="#FABC22"/>
        </radialGradient>
        <radialGradient id="paint6_radial_948_5821" cx="0" cy="0" r="1" gradientUnits="userSpaceOnUse" gradientTransform="translate(302.186 129.219) rotate(130.538) scale(17.3852 24.0086)">
            <stop stop-color="#FF00D6"/>
            <stop offset="0.562168" stop-color="#FF004D"/>
            <stop offset="1" stop-color="#FF6291"/>
        </radialGradient>
        <radialGradient id="paint7_radial_948_5821" cx="0" cy="0" r="1" gradientUnits="userSpaceOnUse" gradientTransform="translate(296.936 130.999) rotate(43.2703) scale(11.7039 14.7332)">
            <stop stop-color="#FFE7AB"/>
            <stop offset="1" stop-color="#FABC22"/>
        </radialGradient>
        <clipPath id="clip0_948_5821">
            <path d="M188.847 63.136C188.847 53.6553 181.161 45.9697 171.681 45.9697H18.1381C8.65747 45.9697 0.971878 53.6553 0.971878 63.136V181.392C0.971878 190.873 8.65747 198.559 18.1381 198.559H170.677C180.712 198.559 188.847 190.424 188.847 180.389V63.136Z" fill="white"/>
        </clipPath>
    </defs>
</svg>
