<svg width="323" height="328" viewBox="0 0 323 328" fill="none" xmlns="http://www.w3.org/2000/svg">
<g clip-path="url(#clip0_121_20633)">
<path d="M170.085 218.743C161.37 211.202 149.258 209.177 139.059 213.715C136.017 215.067 131.851 219.228 132.737 222.751C134.167 228.421 140.217 231.755 140.217 231.755C139.094 228.487 133.884 222.446 128.976 226.238C120.078 233.106 129.804 244.343 134.435 245.086C119.632 279.136 87.2031 238.199 87.2031 238.199L102.959 286.193C133.86 310.172 155.324 303.52 175.357 250.996C175.357 250.996 178.854 243.72 178.186 233.83C177.755 227.497 174.635 222.681 170.089 218.747L170.085 218.743Z" fill="url(#paint0_linear_121_20633)"/>
<g filter="url(#filter0_dd_121_20633)">
<path d="M105.396 197.455C104.891 197.23 104.495 196.91 104.204 196.502C102.865 194.637 104.284 191.439 107.375 189.37C109.422 188 111.689 187.422 113.466 187.823L114.533 188.063L109.795 169.861C109.756 169.7 109.819 169.539 109.959 169.457C110.253 169.281 117.228 165.244 123.193 167.893C123.837 168.179 124.456 168.544 125.032 168.962C125.115 169.026 125.168 169.113 125.181 169.208C125.194 169.304 125.169 169.401 125.112 169.484C125.006 169.617 124.815 169.667 124.652 169.595C124.068 169.174 123.505 168.851 122.923 168.593C118.403 166.585 113.131 168.712 111.073 169.717L110.596 169.946L115.703 189.619C116.403 191.596 114.929 194.32 112.212 196.14C109.843 197.727 107.166 198.241 105.396 197.455ZM113.866 188.731C112.36 188.062 109.93 188.568 107.802 189.993C106.506 190.858 105.476 191.959 104.91 193.086C104.324 194.258 104.287 195.35 104.811 196.087C105.024 196.38 105.325 196.622 105.705 196.791C107.204 197.456 109.642 196.953 111.77 195.529C114.512 193.693 115.854 190.956 114.753 189.431C114.54 189.138 114.239 188.897 113.859 188.728L113.866 188.731Z" fill="#00FFBA"/>
</g>
<g clip-path="url(#clip1_121_20633)" filter="url(#filter1_d_121_20633)">
</g>
<path d="M97.8546 255.158L92.017 243.29C91.3749 238.884 99.4639 227.528 99.5452 219.769C99.7193 203.534 87.3129 198.412 85.1039 189.603C85.1039 189.603 88.4811 185.825 87.7074 182.932C86.5314 178.526 75.4288 173.868 71.6415 175.088C69.3011 175.843 68.6202 178.545 68.6202 178.545C57.1964 175.649 49.9661 177.918 46.202 178.878C32.3566 182.413 24.9019 189.727 24.9019 189.727C22.8748 188.039 22.2521 187.586 21.254 187.826C17.7298 188.686 10.5226 195.663 10.7818 201.312C10.9404 204.785 16.7625 206.481 16.7625 206.481C18.2558 213.675 10.9133 226.332 15.544 236.468C17.2268 240.15 21.8885 245.025 25.227 248.885C25.1264 250.527 24.0585 252.316 23.5092 253.996C1.83772 319.949 6.82826 359.151 6.82826 359.151C6.82826 359.151 30.9871 369.408 59.9933 369.412C93.104 369.416 113.739 358.609 113.739 358.609C113.739 358.609 118.215 315.74 97.8623 255.161L97.8546 255.158Z" fill="#66B1FF"/>
<path d="M16.5591 331.51C10.3343 301.432 23.8356 252.857 23.8356 252.857C23.8356 252.857 -19.2757 298.434 -17.6464 339.562C-17.4306 345.007 -14.8844 357.352 -6.71825 358.256C-6.71825 358.256 -2.09978 364.962 2.57652 361.351C2.57652 361.351 5.71594 366.894 10.4308 362.844C12.8536 360.762 12.7688 356.336 12.2565 352.946C12.6725 353.315 13.1464 353.571 13.6741 353.676C17.8997 354.525 22.861 346.729 16.8866 332.278C16.7749 332.006 16.6671 331.754 16.5554 331.514L16.5591 331.51Z" fill="url(#paint1_linear_121_20633)"/>
<path d="M91.6673 283.14C77.4603 268.408 61.8688 281.4 60.6088 282.491C59.3487 281.396 43.7611 268.408 29.5502 283.14C13.7798 299.491 28.1501 332.688 33.0504 340.506C37.9507 348.324 47.6463 361.013 60.7527 361.398C73.8552 361.013 83.2668 348.324 88.1671 340.506C93.0674 332.688 107.434 299.491 91.6673 283.14Z" fill="white"/>
</g>
<g clip-path="url(#clip2_121_20633)">
<path d="M170.085 218.552C161.37 211.01 149.258 208.985 139.059 213.524C136.017 214.875 131.851 219.037 132.737 222.559C134.167 228.23 140.217 231.564 140.217 231.564C139.094 228.295 133.884 222.255 128.976 226.047C120.078 232.915 129.804 244.152 134.435 244.895C119.632 278.945 87.2031 238.008 87.2031 238.008L102.959 286.002C133.86 309.981 155.324 303.329 175.357 250.804C175.357 250.804 178.854 243.528 178.186 233.639C177.755 227.306 174.635 222.49 170.089 218.556L170.085 218.552Z" fill="url(#paint2_linear_121_20633)"/>
<path d="M178.977 254.482C176.509 252.433 134.812 221.318 134.812 221.318L125.651 235.708C125.651 235.708 172.161 260.81 174.524 261.73C176.888 262.65 181.446 256.531 178.977 254.482Z" fill="#4C4C4C"/>
<path d="M175.012 250.926L174.653 250.662C174.589 250.605 174.506 250.567 174.415 250.56C174.234 250.546 174.066 250.656 174.006 250.828C172.951 253.839 171.299 256.549 169.077 258.83C168.988 258.921 168.948 259.049 168.968 259.174C168.989 259.3 169.068 259.408 169.181 259.466L169.61 259.687C169.768 259.768 169.96 259.736 170.083 259.609C172.352 257.246 174.045 254.47 175.152 251.385C175.212 251.217 175.155 251.031 175.012 250.926Z" fill="white" stroke="white" stroke-width="0.801993" stroke-linejoin="round"/>
<path d="M132.16 217.335C131.223 213.63 129.025 208.98 125.547 206.766C118.312 202.159 108.713 204.29 104.106 211.525C99.5003 218.76 101.631 228.359 108.866 232.965C112.344 235.18 117.196 235.326 120.949 234.608L132.16 217.335Z" fill="#989898"/>
<path d="M124.934 205.943C124.751 205.858 124.534 205.923 124.427 206.093C124.38 206.167 124.36 206.252 124.366 206.334C124.338 206.632 124.217 207.031 124.059 207.474C124.008 207.616 123.953 207.765 123.898 207.913C123.784 208.22 123.67 208.525 123.597 208.773C120.932 217.649 115.53 226.244 108.53 232.626C108.433 232.715 108.386 232.845 108.403 232.975C108.42 233.105 108.5 233.218 108.616 233.279C108.681 233.312 108.748 233.355 108.824 233.404C108.826 233.405 108.828 233.406 108.829 233.407C108.865 233.43 108.907 233.456 108.945 233.479C108.981 233.5 109.035 233.53 109.094 233.551C109.234 233.6 109.389 233.568 109.498 233.468C116.601 226.947 122.183 218.194 124.892 209.143C124.956 208.935 125.047 208.692 125.15 208.42C125.204 208.276 125.262 208.124 125.32 207.965C125.478 207.53 125.637 207.046 125.679 206.64C125.693 206.507 125.64 206.375 125.537 206.29C125.471 206.235 125.357 206.167 125.263 206.114C125.159 206.055 125.038 205.99 124.934 205.943Z" fill="#4C4C4C" stroke="#4C4C4C" stroke-width="0.801993" stroke-linejoin="round"/>
<path fill-rule="evenodd" clip-rule="evenodd" d="M120.808 234.697C120.92 235.212 121.225 235.653 121.669 235.938L122.384 236.398L122.38 236.405L123.902 237.374C124.346 237.657 124.874 237.75 125.389 237.636C125.903 237.522 126.342 237.214 126.625 236.77L136.3 221.574C136.583 221.13 136.676 220.601 136.562 220.087C136.448 219.573 136.14 219.133 135.696 218.85L135.06 218.446L135.062 218.442L133.545 217.467C133.102 217.182 132.574 217.087 132.059 217.198C131.544 217.31 131.104 217.616 130.819 218.059L121.076 233.212C120.791 233.655 120.696 234.183 120.808 234.697Z" fill="#ECECEC"/>
<g clip-path="url(#clip3_121_20633)">
<path d="M168.283 217.723C159.219 210.503 146.981 209.026 136.939 214.102C133.944 215.613 129.794 220.754 130.832 224.277C132.507 229.949 141.859 227.3 141.859 227.3C140.122 229.036 139.376 230.583 140.418 234.352C150.375 244.306 150.581 235.327 155.26 235.86C147.057 247.731 161.832 247.822 161.832 247.822L168.589 243.765L173.419 243.683C160.812 235.771 171.104 248.253 174.714 249.888C174.714 249.888 178.142 242.587 177.052 232.609C176.351 226.221 173.016 221.494 168.287 217.727L168.283 217.723Z" fill="url(#paint3_linear_121_20633)"/>
<path d="M131.94 225.793C134.594 228.509 139.583 229.088 142.593 226.516C143.15 226.038 142.299 225.29 141.746 225.764C139.193 227.949 134.9 227.196 132.721 224.965C132.21 224.444 131.433 225.276 131.94 225.793Z" fill="#66B1FF"/>
<path d="M150.361 219.226C148.533 220.29 146.773 221.473 145.143 222.808C143.167 224.425 141.214 226.329 140.172 228.655C139.687 229.74 139.402 230.919 139.511 232.099C139.622 233.325 140.135 234.428 140.85 235.429C142.082 237.149 143.825 238.506 146.018 238.829C149.595 239.353 153.203 237.583 156.183 235.857C156.844 235.472 156.202 234.506 155.541 234.891C152.992 236.369 150.022 237.867 146.974 237.765C145.022 237.699 143.363 236.711 142.194 235.247C141.529 234.412 140.952 233.493 140.757 232.441C140.571 231.434 140.742 230.379 141.129 229.43C142.006 227.265 143.773 225.485 145.559 223.973C147.241 222.551 149.097 221.31 151.007 220.196C151.669 219.811 151.026 218.845 150.365 219.23L150.361 219.226Z" fill="#66B1FF"/>
<path d="M155.389 235.126C153.076 237.52 151.568 241.446 153.692 244.359C154.581 245.583 155.954 246.552 157.359 247.18C158.665 247.763 160.118 247.935 161.542 247.719C164.532 247.265 167.134 245.503 169.386 243.619C169.961 243.139 169.091 242.375 168.523 242.852C166.634 244.432 164.463 245.907 162.007 246.476C161.297 246.64 160.529 246.71 159.813 246.652C159.314 246.611 158.617 246.446 158.255 246.31C157.188 245.903 156.109 245.21 155.306 244.443C153.877 243.08 153.538 241.247 154.123 239.411C154.535 238.122 155.305 236.873 156.252 235.894C156.774 235.355 155.907 234.587 155.389 235.126Z" fill="#66B1FF"/>
</g>
<path d="M97.8585 254.966L92.0209 243.099C91.3788 238.693 99.4678 227.337 99.5491 219.578C99.7232 203.343 87.3168 198.22 85.1078 189.412C85.1078 189.412 88.4851 185.633 87.7113 182.741C86.5353 178.335 75.4327 173.677 71.6454 174.897C69.305 175.652 68.6241 178.354 68.6241 178.354C57.2004 175.458 49.97 177.727 46.2059 178.687C32.3605 182.222 24.9058 189.536 24.9058 189.536C22.8787 187.848 22.256 187.395 21.2579 187.635C17.7337 188.494 10.5265 195.471 10.7857 201.12C10.9443 204.594 16.7664 206.289 16.7664 206.289C18.2597 213.483 10.9172 226.14 15.5479 236.277C17.2307 239.959 21.8924 244.834 25.2309 248.694C25.1303 250.335 24.0624 252.124 23.5131 253.805C1.84163 319.758 6.83217 358.96 6.83217 358.96C6.83217 358.96 30.991 369.216 59.9972 369.22C93.1079 369.224 113.743 358.418 113.743 358.418C113.743 358.418 118.219 315.549 97.8662 254.97L97.8585 254.966Z" fill="#66B1FF"/>
<path d="M82.394 206.831C79.0362 204.209 58.5209 208.842 58.5209 208.842C58.5209 208.842 39.173 212.734 37.7151 219.237C37.1103 221.932 35.1638 227.781 36.9319 231.417C39.1032 235.882 60.3744 244.373 68.3656 240.921C77.0276 240.007 89.0513 222.383 89.377 217.44C89.6678 212.971 85.267 209.072 82.3977 206.831H82.394Z" fill="white"/>
<path d="M33.6158 196.119C34.2634 194.931 36.7599 191.43 43.7656 190.735C45.2167 190.59 47.3933 192.368 45.911 194.49C44.616 196.347 36.7676 199.518 35.2853 199.469C33.7679 199.419 32.7382 197.729 33.6158 196.119Z" fill="#0073E4"/>
<path d="M71.5363 185.581C70.4269 184.846 66.641 182.939 60.2397 185.355C58.9129 185.857 57.8453 188.299 60.1138 189.474C62.0926 190.496 70.3734 189.823 71.6354 189.147C72.9279 188.452 73.0423 186.574 71.5363 185.577V185.581Z" fill="#0073E4"/>
<path d="M61.4516 206.53C61.4516 206.53 48.6673 209.823 50.1743 213.752C51.6812 217.68 60.5236 222.322 65.1365 221.136C71.287 219.552 75.3134 211.594 74.7727 207.413C74.2321 203.237 61.4478 206.53 61.4478 206.53H61.4516Z" fill="#0073E4"/>
<path d="M52.0389 204.273C49.1581 201.939 44.7324 200.582 41.3985 202.73C39.7142 203.813 38.5566 205.524 37.7241 207.32C37.4104 207.999 38.4132 208.591 38.7269 207.909C39.9078 205.356 41.8633 202.944 44.8641 202.815C46.7692 202.734 48.62 203.451 50.2192 204.425C50.4941 204.592 50.765 204.768 51.0244 204.955C51.098 205.006 51.1678 205.06 51.2375 205.115C51.342 205.193 51.1058 205.009 51.2142 205.095C51.7912 205.563 52.6198 204.741 52.0352 204.269L52.0389 204.273Z" fill="#0073E4"/>
<path d="M76.7148 196.582C73.6318 194.905 69.1181 194.236 66.3711 196.81C64.9878 198.104 64.2883 199.915 63.9049 201.681C63.7507 202.384 64.8929 202.688 65.047 201.98C65.5846 199.5 66.8455 196.937 69.6873 196.342C71.4699 195.972 73.3553 196.406 75.039 197.057C75.1062 197.083 75.2564 197.143 75.4422 197.225C75.5568 197.278 75.6753 197.33 75.79 197.382C75.9006 197.435 76.0113 197.487 76.118 197.547C76.7821 197.906 77.3788 196.937 76.7148 196.578V196.582Z" fill="#0073E4"/>
<path d="M16.7154 331.305C10.4906 301.227 23.9918 252.652 23.9918 252.652C23.9918 252.652 -19.1195 298.229 -17.4901 339.357C-17.2744 344.802 -14.7282 357.147 -6.562 358.051C-6.562 358.051 -1.94353 364.757 2.73277 361.146C2.73277 361.146 5.87218 366.689 10.587 362.639C13.0099 360.557 12.9251 356.131 12.4127 352.741C12.8288 353.11 13.3026 353.366 13.8303 353.471C18.056 354.32 23.0172 346.524 17.0428 332.073C16.9311 331.801 16.8233 331.549 16.7116 331.309L16.7154 331.305Z" fill="url(#paint4_linear_121_20633)"/>
<path d="M78.7578 217.69C73.8213 222.926 66.5569 229.805 49.9724 223.956C49.0184 223.618 49.1321 225.191 57.1848 230.464C61.9251 233.567 66.5132 235.105 69.6001 233.73C72.9877 232.224 74.5411 228.757 75.9073 226.216C79.4027 219.716 80.2739 216.075 78.7532 217.687" fill="#143860"/>
<path d="M73.8985 227.178C73.8985 227.178 64.2701 228.12 62.3115 232.522C62.0874 233.03 65.0434 234.174 68.0336 233.332C68.8795 233.094 70.9338 231.936 72.2937 229.923" fill="#ED7865"/>
</g>
<g filter="url(#filter2_dddddd_121_20633)">
<path d="M90.7942 165.823C90.2829 165.596 89.8817 165.272 89.5871 164.858C88.2312 162.969 89.6686 159.73 92.7987 157.635C94.8719 156.247 97.168 155.661 98.9677 156.068L100.048 156.311L95.2497 137.876C95.2103 137.712 95.2746 137.549 95.4162 137.466C95.714 137.288 102.778 133.199 108.819 135.882C109.472 136.172 110.099 136.542 110.682 136.965C110.766 137.03 110.82 137.118 110.833 137.215C110.846 137.312 110.82 137.41 110.763 137.494C110.655 137.628 110.462 137.679 110.297 137.606C109.706 137.179 109.136 136.853 108.546 136.591C103.968 134.558 98.6289 136.712 96.5438 137.73L96.0608 137.962L101.234 157.887C101.943 159.889 100.449 162.648 97.6976 164.491C95.2981 166.099 92.5876 166.619 90.7942 165.823ZM99.3735 156.987C97.8476 156.31 95.3863 156.822 93.2315 158.265C91.9185 159.142 90.8755 160.257 90.3024 161.398C89.7086 162.585 89.6712 163.691 90.2023 164.438C90.4178 164.734 90.7226 164.979 91.108 165.15C92.6261 165.824 95.0953 165.315 97.25 163.873C100.028 162.013 101.386 159.241 100.271 157.696C100.056 157.4 99.7511 157.155 99.3657 156.984L99.3735 156.987Z" fill="#00FFBA"/>
</g>
<g filter="url(#filter3_dddddd_121_20633)">
<path d="M42.4334 116.591C41.9471 116.214 41.6786 115.746 41.6532 115.244C41.6292 114.642 41.9704 114.063 42.6171 113.601C43.3207 113.106 44.2905 112.812 45.3504 112.771C46.5785 112.727 47.7082 113.032 48.4576 113.612C48.5293 113.668 48.6011 113.723 48.6596 113.788L49.1139 114.222L52.4885 104.233C52.523 104.139 52.6084 104.079 52.7091 104.081L62.8155 104.437C62.8659 104.438 62.911 104.453 62.9468 104.481C62.9668 104.497 62.9827 104.509 62.9925 104.529C63.036 104.588 63.046 104.666 63.022 104.73L59.3228 115.704C59.0373 116.852 57.4989 117.714 55.6572 117.783C54.6648 117.819 53.7179 117.625 52.986 117.235C52.8241 117.148 52.6714 117.048 52.5359 116.943C52.0496 116.567 51.781 116.099 51.7557 115.597C51.7262 114.953 52.1131 114.34 52.8416 113.871C53.5303 113.428 54.4604 113.16 55.4568 113.127C56.6849 113.083 57.8177 113.384 58.5671 113.964C58.6388 114.02 58.7106 114.075 58.7691 114.14L59.2234 114.574L62.4994 104.876L52.861 104.534L49.2164 115.348C48.9309 116.496 47.3925 117.358 45.5508 117.427C44.5584 117.464 43.6114 117.269 42.8796 116.879C42.7177 116.792 42.565 116.692 42.4294 116.587L42.4334 116.591ZM48.1901 113.957C47.5443 113.456 46.4898 113.178 45.3765 113.222C43.5307 113.288 42.0654 114.188 42.1097 115.224C42.1248 115.591 42.3386 115.94 42.7212 116.237C42.8328 116.323 42.9616 116.404 43.1006 116.48C43.7483 116.83 44.636 117.01 45.5388 116.974C47.3845 116.908 48.8499 116.008 48.8056 114.972C48.7865 114.602 48.5758 114.249 48.1931 113.953L48.1901 113.957ZM58.2996 114.308C57.6538 113.808 56.5993 113.53 55.486 113.574C54.5863 113.606 53.7179 113.852 53.0982 114.247C52.5121 114.624 52.1965 115.095 52.2192 115.576C52.2343 115.943 52.4481 116.292 52.8307 116.589C52.9423 116.675 53.0711 116.756 53.2101 116.832C53.8578 117.181 54.7455 117.362 55.6483 117.326C57.494 117.26 58.9594 116.36 58.9151 115.324C58.896 114.954 58.6853 114.601 58.3026 114.305L58.2996 114.308Z" fill="#00FFBA"/>
</g>
<g filter="url(#filter4_dddddd_121_20633)">
<path d="M236.635 262.035C236.393 261.596 236.281 261.133 236.304 260.659C236.348 259.509 237.161 258.421 238.585 257.61C239.951 256.829 241.741 256.38 243.621 256.352C245.5 256.323 247.252 256.716 248.563 257.461C249.136 257.788 249.609 258.178 249.96 258.62L250.557 259.372L258.613 240.811C258.682 240.648 258.871 240.568 259.037 240.626C259.121 240.658 259.17 240.717 259.193 240.759C259.24 240.843 259.241 240.936 259.206 241.025L250.463 261.145C249.768 263.208 246.758 264.701 243.28 264.753C240.225 264.8 237.553 263.706 236.635 262.035ZM249.679 259.384C249.325 258.741 248.68 258.281 248.205 258.009C246.992 257.32 245.356 256.957 243.593 256.985C241.83 257.012 240.159 257.42 238.889 258.147C238.183 258.549 237.002 259.408 236.953 260.655C236.938 261.008 237.027 261.366 237.215 261.709C238.035 263.2 240.485 264.18 243.308 264.136C246.811 264.085 249.228 262.573 249.804 261.115L249.819 261.083L249.832 261.029C249.903 260.826 249.943 260.64 249.954 260.462C249.968 260.094 249.877 259.729 249.688 259.386L249.679 259.384Z" fill="#00FFBA"/>
</g>
<defs>
<filter id="filter0_dd_121_20633" x="-29.0155" y="34.2794" width="286.914" height="296.254" filterUnits="userSpaceOnUse" color-interpolation-filters="sRGB">
<feFlood flood-opacity="0" result="BackgroundImageFix"/>
<feColorMatrix in="SourceAlpha" type="matrix" values="0 0 0 0 0 0 0 0 0 0 0 0 0 0 0 0 0 0 127 0" result="hardAlpha"/>
<feOffset/>
<feGaussianBlur stdDeviation="37.9185"/>
<feColorMatrix type="matrix" values="0 0 0 0 0 0 0 0 0 1 0 0 0 0 0.729412 0 0 0 1 0"/>
<feBlend mode="normal" in2="BackgroundImageFix" result="effect1_dropShadow_121_20633"/>
<feColorMatrix in="SourceAlpha" type="matrix" values="0 0 0 0 0 0 0 0 0 0 0 0 0 0 0 0 0 0 127 0" result="hardAlpha"/>
<feOffset/>
<feGaussianBlur stdDeviation="66.3574"/>
<feColorMatrix type="matrix" values="0 0 0 0 0 0 0 0 0 1 0 0 0 0 0.729412 0 0 0 1 0"/>
<feBlend mode="normal" in2="effect1_dropShadow_121_20633" result="effect2_dropShadow_121_20633"/>
<feBlend mode="normal" in="SourceGraphic" in2="effect2_dropShadow_121_20633" result="shape"/>
</filter>
<filter id="filter1_d_121_20633" x="73.0699" y="132.562" width="141.915" height="138.727" filterUnits="userSpaceOnUse" color-interpolation-filters="sRGB">
<feFlood flood-opacity="0" result="BackgroundImageFix"/>
<feColorMatrix in="SourceAlpha" type="matrix" values="0 0 0 0 0 0 0 0 0 0 0 0 0 0 0 0 0 0 127 0" result="hardAlpha"/>
<feOffset/>
<feGaussianBlur stdDeviation="31.0002"/>
<feColorMatrix type="matrix" values="0 0 0 0 0 0 0 0 0 1 0 0 0 0 0.729412 0 0 0 1 0"/>
<feBlend mode="normal" in2="BackgroundImageFix" result="effect1_dropShadow_121_20633"/>
<feBlend mode="normal" in="SourceGraphic" in2="effect1_dropShadow_121_20633" result="shape"/>
</filter>
<filter id="filter2_dddddd_121_20633" x="-45.337" y="0.557541" width="290.588" height="300.049" filterUnits="userSpaceOnUse" color-interpolation-filters="sRGB">
<feFlood flood-opacity="0" result="BackgroundImageFix"/>
<feColorMatrix in="SourceAlpha" type="matrix" values="0 0 0 0 0 0 0 0 0 0 0 0 0 0 0 0 0 0 127 0" result="hardAlpha"/>
<feOffset/>
<feGaussianBlur stdDeviation="1.60018"/>
<feColorMatrix type="matrix" values="0 0 0 0 0 0 0 0 0 1 0 0 0 0 0.729412 0 0 0 1 0"/>
<feBlend mode="normal" in2="BackgroundImageFix" result="effect1_dropShadow_121_20633"/>
<feColorMatrix in="SourceAlpha" type="matrix" values="0 0 0 0 0 0 0 0 0 0 0 0 0 0 0 0 0 0 127 0" result="hardAlpha"/>
<feOffset/>
<feGaussianBlur stdDeviation="3.20036"/>
<feColorMatrix type="matrix" values="0 0 0 0 0 0 0 0 0 1 0 0 0 0 0.729412 0 0 0 1 0"/>
<feBlend mode="normal" in2="effect1_dropShadow_121_20633" result="effect2_dropShadow_121_20633"/>
<feColorMatrix in="SourceAlpha" type="matrix" values="0 0 0 0 0 0 0 0 0 0 0 0 0 0 0 0 0 0 127 0" result="hardAlpha"/>
<feOffset/>
<feGaussianBlur stdDeviation="11.2013"/>
<feColorMatrix type="matrix" values="0 0 0 0 0 0 0 0 0 1 0 0 0 0 0.729412 0 0 0 1 0"/>
<feBlend mode="normal" in2="effect2_dropShadow_121_20633" result="effect3_dropShadow_121_20633"/>
<feColorMatrix in="SourceAlpha" type="matrix" values="0 0 0 0 0 0 0 0 0 0 0 0 0 0 0 0 0 0 127 0" result="hardAlpha"/>
<feOffset/>
<feGaussianBlur stdDeviation="22.4025"/>
<feColorMatrix type="matrix" values="0 0 0 0 0 0 0 0 0 1 0 0 0 0 0.729412 0 0 0 1 0"/>
<feBlend mode="normal" in2="effect3_dropShadow_121_20633" result="effect4_dropShadow_121_20633"/>
<feColorMatrix in="SourceAlpha" type="matrix" values="0 0 0 0 0 0 0 0 0 0 0 0 0 0 0 0 0 0 127 0" result="hardAlpha"/>
<feOffset/>
<feGaussianBlur stdDeviation="38.4043"/>
<feColorMatrix type="matrix" values="0 0 0 0 0 0 0 0 0 1 0 0 0 0 0.729412 0 0 0 1 0"/>
<feBlend mode="normal" in2="effect4_dropShadow_121_20633" result="effect5_dropShadow_121_20633"/>
<feColorMatrix in="SourceAlpha" type="matrix" values="0 0 0 0 0 0 0 0 0 0 0 0 0 0 0 0 0 0 127 0" result="hardAlpha"/>
<feOffset/>
<feGaussianBlur stdDeviation="67.2076"/>
<feColorMatrix type="matrix" values="0 0 0 0 0 0 0 0 0 1 0 0 0 0 0.729412 0 0 0 1 0"/>
<feBlend mode="normal" in2="effect5_dropShadow_121_20633" result="effect6_dropShadow_121_20633"/>
<feBlend mode="normal" in="SourceGraphic" in2="effect6_dropShadow_121_20633" result="shape"/>
</filter>
<filter id="filter3_dddddd_121_20633" x="-39.3467" y="17.6533" width="185.94" height="187.213" filterUnits="userSpaceOnUse" color-interpolation-filters="sRGB">
<feFlood flood-opacity="0" result="BackgroundImageFix"/>
<feColorMatrix in="SourceAlpha" type="matrix" values="0 0 0 0 0 0 0 0 0 0 0 0 0 0 0 0 0 0 127 0" result="hardAlpha"/>
<feOffset/>
<feGaussianBlur stdDeviation="0.956509"/>
<feColorMatrix type="matrix" values="0 0 0 0 0 0 0 0 0 1 0 0 0 0 0.729412 0 0 0 1 0"/>
<feBlend mode="normal" in2="BackgroundImageFix" result="effect1_dropShadow_121_20633"/>
<feColorMatrix in="SourceAlpha" type="matrix" values="0 0 0 0 0 0 0 0 0 0 0 0 0 0 0 0 0 0 127 0" result="hardAlpha"/>
<feOffset/>
<feGaussianBlur stdDeviation="1.91302"/>
<feColorMatrix type="matrix" values="0 0 0 0 0 0 0 0 0 1 0 0 0 0 0.729412 0 0 0 1 0"/>
<feBlend mode="normal" in2="effect1_dropShadow_121_20633" result="effect2_dropShadow_121_20633"/>
<feColorMatrix in="SourceAlpha" type="matrix" values="0 0 0 0 0 0 0 0 0 0 0 0 0 0 0 0 0 0 127 0" result="hardAlpha"/>
<feOffset/>
<feGaussianBlur stdDeviation="6.69556"/>
<feColorMatrix type="matrix" values="0 0 0 0 0 0 0 0 0 1 0 0 0 0 0.729412 0 0 0 1 0"/>
<feBlend mode="normal" in2="effect2_dropShadow_121_20633" result="effect3_dropShadow_121_20633"/>
<feColorMatrix in="SourceAlpha" type="matrix" values="0 0 0 0 0 0 0 0 0 0 0 0 0 0 0 0 0 0 127 0" result="hardAlpha"/>
<feOffset/>
<feGaussianBlur stdDeviation="13.3911"/>
<feColorMatrix type="matrix" values="0 0 0 0 0 0 0 0 0 1 0 0 0 0 0.729412 0 0 0 1 0"/>
<feBlend mode="normal" in2="effect3_dropShadow_121_20633" result="effect4_dropShadow_121_20633"/>
<feColorMatrix in="SourceAlpha" type="matrix" values="0 0 0 0 0 0 0 0 0 0 0 0 0 0 0 0 0 0 127 0" result="hardAlpha"/>
<feOffset/>
<feGaussianBlur stdDeviation="22.9562"/>
<feColorMatrix type="matrix" values="0 0 0 0 0 0 0 0 0 1 0 0 0 0 0.729412 0 0 0 1 0"/>
<feBlend mode="normal" in2="effect4_dropShadow_121_20633" result="effect5_dropShadow_121_20633"/>
<feColorMatrix in="SourceAlpha" type="matrix" values="0 0 0 0 0 0 0 0 0 0 0 0 0 0 0 0 0 0 127 0" result="hardAlpha"/>
<feOffset/>
<feGaussianBlur stdDeviation="40.1734"/>
<feColorMatrix type="matrix" values="0 0 0 0 0 0 0 0 0 1 0 0 0 0 0.729412 0 0 0 1 0"/>
<feBlend mode="normal" in2="effect5_dropShadow_121_20633" result="effect6_dropShadow_121_20633"/>
<feBlend mode="normal" in="SourceGraphic" in2="effect6_dropShadow_121_20633" result="shape"/>
</filter>
<filter id="filter4_dddddd_121_20633" x="169.928" y="177.697" width="159.144" height="153.17" filterUnits="userSpaceOnUse" color-interpolation-filters="sRGB">
<feFlood flood-opacity="0" result="BackgroundImageFix"/>
<feColorMatrix in="SourceAlpha" type="matrix" values="0 0 0 0 0 0 0 0 0 0 0 0 0 0 0 0 0 0 127 0" result="hardAlpha"/>
<feOffset/>
<feGaussianBlur stdDeviation="0.747556"/>
<feColorMatrix type="matrix" values="0 0 0 0 0 0 0 0 0 1 0 0 0 0 0.729412 0 0 0 1 0"/>
<feBlend mode="normal" in2="BackgroundImageFix" result="effect1_dropShadow_121_20633"/>
<feColorMatrix in="SourceAlpha" type="matrix" values="0 0 0 0 0 0 0 0 0 0 0 0 0 0 0 0 0 0 127 0" result="hardAlpha"/>
<feOffset/>
<feGaussianBlur stdDeviation="1.49511"/>
<feColorMatrix type="matrix" values="0 0 0 0 0 0 0 0 0 1 0 0 0 0 0.729412 0 0 0 1 0"/>
<feBlend mode="normal" in2="effect1_dropShadow_121_20633" result="effect2_dropShadow_121_20633"/>
<feColorMatrix in="SourceAlpha" type="matrix" values="0 0 0 0 0 0 0 0 0 0 0 0 0 0 0 0 0 0 127 0" result="hardAlpha"/>
<feOffset/>
<feGaussianBlur stdDeviation="5.23289"/>
<feColorMatrix type="matrix" values="0 0 0 0 0 0 0 0 0 1 0 0 0 0 0.729412 0 0 0 1 0"/>
<feBlend mode="normal" in2="effect2_dropShadow_121_20633" result="effect3_dropShadow_121_20633"/>
<feColorMatrix in="SourceAlpha" type="matrix" values="0 0 0 0 0 0 0 0 0 0 0 0 0 0 0 0 0 0 127 0" result="hardAlpha"/>
<feOffset/>
<feGaussianBlur stdDeviation="10.4658"/>
<feColorMatrix type="matrix" values="0 0 0 0 0 0 0 0 0 1 0 0 0 0 0.729412 0 0 0 1 0"/>
<feBlend mode="normal" in2="effect3_dropShadow_121_20633" result="effect4_dropShadow_121_20633"/>
<feColorMatrix in="SourceAlpha" type="matrix" values="0 0 0 0 0 0 0 0 0 0 0 0 0 0 0 0 0 0 127 0" result="hardAlpha"/>
<feOffset/>
<feGaussianBlur stdDeviation="17.9414"/>
<feColorMatrix type="matrix" values="0 0 0 0 0 0 0 0 0 1 0 0 0 0 0.729412 0 0 0 1 0"/>
<feBlend mode="normal" in2="effect4_dropShadow_121_20633" result="effect5_dropShadow_121_20633"/>
<feColorMatrix in="SourceAlpha" type="matrix" values="0 0 0 0 0 0 0 0 0 0 0 0 0 0 0 0 0 0 127 0" result="hardAlpha"/>
<feOffset/>
<feGaussianBlur stdDeviation="31.3974"/>
<feColorMatrix type="matrix" values="0 0 0 0 0 0 0 0 0 1 0 0 0 0 0.729412 0 0 0 1 0"/>
<feBlend mode="normal" in2="effect5_dropShadow_121_20633" result="effect6_dropShadow_121_20633"/>
<feBlend mode="normal" in="SourceGraphic" in2="effect6_dropShadow_121_20633" result="shape"/>
</filter>
<linearGradient id="paint0_linear_121_20633" x1="153.688" y1="208.696" x2="107.286" y2="289.815" gradientUnits="userSpaceOnUse">
<stop stop-color="#0F8AEF"/>
<stop offset="0.3" stop-color="#2B96F4"/>
<stop offset="0.83" stop-color="#66B1FF"/>
</linearGradient>
<linearGradient id="paint1_linear_121_20633" x1="3.07341" y1="364.322" x2="3.07341" y2="252.857" gradientUnits="userSpaceOnUse">
<stop stop-color="#0F8AEF"/>
<stop offset="0.3" stop-color="#2B96F4"/>
<stop offset="0.83" stop-color="#66B1FF"/>
</linearGradient>
<linearGradient id="paint2_linear_121_20633" x1="153.688" y1="208.504" x2="107.286" y2="289.623" gradientUnits="userSpaceOnUse">
<stop stop-color="#0F8AEF"/>
<stop offset="0.3" stop-color="#2B96F4"/>
<stop offset="0.83" stop-color="#66B1FF"/>
</linearGradient>
<linearGradient id="paint3_linear_121_20633" x1="151.077" y1="208.005" x2="107.571" y2="292.097" gradientUnits="userSpaceOnUse">
<stop stop-color="#0F8AEF"/>
<stop offset="0.3" stop-color="#2B96F4"/>
<stop offset="0.83" stop-color="#66B1FF"/>
</linearGradient>
<linearGradient id="paint4_linear_121_20633" x1="3.22966" y1="364.117" x2="3.22966" y2="252.652" gradientUnits="userSpaceOnUse">
<stop stop-color="#0F8AEF"/>
<stop offset="0.3" stop-color="#2B96F4"/>
<stop offset="0.83" stop-color="#66B1FF"/>
</linearGradient>
<clipPath id="clip0_121_20633">
<path d="M17.8555 253H222.855V302H35.8555C25.9143 302 17.8555 293.941 17.8555 284V253Z" fill="white"/>
</clipPath>
<clipPath id="clip1_121_20633">
<rect width="8.01398" height="16.028" fill="white" transform="matrix(0.481688 0.876343 -0.876911 0.480652 149.125 194.562)"/>
</clipPath>
<clipPath id="clip2_121_20633">
<rect width="217" height="121" fill="white" transform="translate(5.85547 134)"/>
</clipPath>
<clipPath id="clip3_121_20633">
<rect width="44.4411" height="142.794" fill="white" transform="matrix(0.70913 -0.705078 0.70913 0.705078 117.805 214.041)"/>
</clipPath>
</defs>
</svg>
