<svg width="321" height="225" viewBox="0 0 321 225" fill="none" xmlns="http://www.w3.org/2000/svg">
    <g clip-path="url(#clip0_948_5766)">
        <g clip-path="url(#clip1_948_5766)">
            <path d="M129.164 134.621C131.395 129.372 131.342 123.427 129.02 118.22C126.06 111.612 122.254 103.8 122.185 97.6568C121.95 75.7554 138.806 68.842 141.808 56.9576C141.808 56.9576 137.219 51.8636 138.273 47.9574C139.87 42.0125 154.958 35.7252 160.101 37.3733C163.295 38.39 164.206 42.0393 164.206 42.0393C179.725 38.1331 189.547 41.1938 194.664 42.4887C213.468 47.2617 223.593 57.1449 223.593 57.1449C226.346 54.8654 227.192 54.2554 228.55 54.5819C233.341 55.743 243.132 65.1553 242.781 72.775C242.568 77.4624 234.656 79.7312 234.656 79.7312C232.628 89.4324 242.605 106.513 236.312 120.189C234.758 123.571 231.324 127.681 227.863 131.63C225.105 134.744 224.632 139.282 226.692 142.899C235.801 158.914 258.8 203.856 250.239 236.106L93.2548 234.095C93.2548 234.095 74.387 195.461 129.159 134.648" fill="#66B1FF"/>
            <path d="M133.281 179.932C154.786 161.282 174.155 181.6 175.713 183.301C177.586 181.943 200.723 165.928 217.957 188.487C230.647 205.101 224.181 230.248 216.11 248.299L125.483 249.106C119.703 229.98 114.415 196.294 133.281 179.932Z" fill="white"/>
            <path d="M144.941 80.1935C149.48 76.6473 177.21 82.9128 177.21 82.9128C177.21 82.9128 200.376 87.763 205.344 96.9864C207.117 100.289 209.978 109.311 206.406 113.472C202.122 118.46 184.35 133.339 171.446 132.025C159.767 130.789 138.582 105.123 138.147 98.4335C137.754 92.3853 141.077 83.2255 144.957 80.1882" fill="white"/>
            <path d="M162.726 46.8445C164.297 45.8246 169.632 43.2467 178.258 47.36C180.053 48.2174 181.368 51.9721 178.178 53.5692C175.399 54.9646 164.068 53.3282 162.374 52.213C160.681 51.0978 160.596 48.2343 162.731 46.8445" fill="#0073E4"/>
            <path d="M212.598 60.5967C211.642 59.071 208.031 54.6116 198.522 54.1098C196.556 54.0023 193.736 56.465 195.889 59.1785C197.764 61.5439 208.581 65.2506 210.579 65.1021C212.577 64.9536 213.891 62.6651 212.603 60.5967" fill="#0073E4"/>
            <path d="M172.483 79.8079C172.483 79.8079 190.032 84.3274 187.942 89.7181C185.853 95.1087 173.741 101.479 167.408 99.8459C158.969 97.6679 153.441 86.7777 154.182 81.0222C154.923 75.2667 172.467 79.8079 172.467 79.8079" fill="#0073E4"/>
            <path d="M194.119 101.495C186.159 107.347 174.649 114.842 153.705 102.851C152.501 102.16 152.265 104.311 161.832 113.419C167.464 118.779 173.278 121.987 177.786 120.893C182.732 119.695 185.688 115.397 188.161 112.304C194.489 104.39 196.566 99.6891 194.114 101.49" fill="#143860"/>
            <path d="M189.309 75.3471C188.352 79.6567 191.037 83.9281 195.3 84.8937C195.316 84.8937 195.332 84.8991 195.354 84.9046C199.644 85.8865 203.917 83.1917 204.922 78.8658C205.878 74.5562 203.193 70.2848 198.93 69.3192C198.914 69.3192 198.898 69.3137 198.877 69.3083C194.587 68.3264 190.313 71.0212 189.309 75.3471Z" fill="white"/>
            <path d="M156.307 66.3567C155.355 70.6669 158.042 74.9389 162.314 75.8991C162.325 75.8991 162.335 75.8991 162.346 75.9046C166.639 76.8866 170.916 74.1914 171.922 69.8649C172.879 65.5547 170.192 61.2827 165.926 60.317C165.909 60.317 165.893 60.3115 165.872 60.3061C161.578 59.3295 157.307 62.0301 156.307 66.3567Z" fill="white"/>
            <path d="M160.629 176.795L158.962 177.079C157.996 177.248 157.072 176.611 156.897 175.653L155.123 164.669C154.953 163.716 157.518 163.295 157.518 163.295C158.782 162.958 159.567 163.011 159.737 163.964L162.09 174.789C162.254 175.742 161.612 176.648 160.645 176.816H160.635" fill="#F4901E"/>
            <path d="M108.92 155.251L109.016 155.56C109.397 156.789 108.647 158.075 107.351 158.434C107.345 158.434 107.34 158.434 107.329 158.439L101.561 160.013C100.249 160.372 98.8775 159.669 98.4812 158.434L98.3847 158.125C97.999 156.896 97.8491 156.041 99.1881 155.681L106.167 153.172C107.484 152.812 108.513 153.997 108.898 155.231" fill="#F4901E"/>
            <path d="M118.514 248.464C129.069 249.861 156.574 248.544 156.574 248.544C162.231 247.926 167.626 245.346 167.077 237.847C165.689 218.814 161.852 188.764 155.299 157.856C153.628 149.973 151.803 145.512 141.199 147.633C129.785 149.92 111.181 153.384 100.935 157.51C94.5685 160.073 93.2236 162.68 94.6112 170.792C98.0052 190.587 103.385 222.774 109.607 241.946C111.176 246.775 113.503 247.809 118.508 248.459" fill="#FFBC00"/>
            <path d="M144.052 176.983L147.605 176.494C149.964 175.941 151.476 173.627 151.041 171.239L148.448 157.46C148.024 155.226 145.882 153.758 143.655 154.178C143.533 154.199 143.405 154.231 143.283 154.269L139.243 155.332C136.91 155.96 135.743 157.848 136.221 160.193L139.004 173.792C139.466 176.036 141.65 177.483 143.888 177.02C143.941 177.01 143.999 176.999 144.052 176.983Z" fill="#F4901E"/>
            <path d="M137.737 158.169C136.55 159.951 137.114 162.302 138.99 163.426C139.093 163.488 139.202 163.545 139.31 163.596C141.48 164.669 144.159 164.001 145.487 162.056C146.681 160.279 146.122 157.928 144.245 156.799C144.121 156.722 143.991 156.655 143.86 156.593C141.686 155.546 139.023 156.239 137.716 158.19" fill="#333333"/>
            <path d="M140.201 171.613C140.783 174.038 143.174 175.54 145.581 174.995C147.961 174.422 149.483 172.058 149.038 169.622C148.466 167.169 146.037 165.651 143.614 166.229H143.603C141.24 166.824 139.745 169.183 140.195 171.608" fill="#333333"/>
            <path d="M118.116 196.511C118.063 201.757 122.274 206.053 127.52 206.106C132.766 206.159 137.062 201.947 137.115 196.701C137.168 191.455 132.956 187.159 127.71 187.107C127.679 187.107 127.647 187.107 127.615 187.107C122.396 187.085 118.147 191.292 118.116 196.511Z" fill="#F4901E"/>
            <path d="M127.501 227.25C121.183 217.536 126.229 213.235 126.229 213.235C126.229 213.235 117.111 204.548 121.145 196.945C124.568 190.496 130.519 193.237 130.519 193.237C125.851 188.428 121.694 183.197 128.193 177.411C135.816 170.625 149.645 181.044 159.599 188.786L158.199 179.799C156.799 168.798 166.183 167.136 169.792 168.718C174.663 170.855 177.244 175.226 177.851 184.469C178.053 187.247 178.921 189.935 180.38 192.302C182.067 195.085 183.493 198.019 184.638 201.064C196.934 212.284 230.746 209.543 238.139 202.208C239.986 200.375 240.683 197.837 238.634 192.686C233.109 178.795 225.907 140.106 225.907 140.106C273.723 188.07 290.405 208.026 278.338 233.966C265.366 261.861 217.097 271.693 165.88 254.803C165.88 254.793 140.617 247.414 127.501 227.25Z" fill="url(#paint0_linear_948_5766)"/>
            <path d="M127.115 193.106C127.985 193.147 128.84 193.332 129.646 193.649C128.966 192.968 137.15 199.958 142.723 202.722C143.614 203.162 142.829 204.457 141.937 204.016C136.374 201.258 131.355 197.564 127.121 193.106" fill="#66B1FF"/>
            <path d="M125.121 214.378C125.373 213.905 125.7 213.479 126.086 213.106C131.11 218.624 137.082 223.21 143.72 226.663C144.621 227.131 143.822 228.477 142.916 228.009C136.225 224.529 130.203 219.922 125.115 214.383" fill="#66B1FF"/>
            <path d="M107.231 181.689C110.527 187.745 106.588 193.214 102.244 196.979C106.444 194.912 111.224 193.988 113.446 198.64C116.477 204.99 114.249 209.935 107.284 215.324C110.373 213.781 114.095 213.135 115.977 217.359C120.629 227.805 109.517 235.923 109.517 235.923C108.247 241.264 103.339 243.128 99.0965 243.106C85.0498 243.048 81.0783 227.896 81.1155 213.396C81.158 197.316 84.2204 190.891 86.363 187.286C88.5748 183.547 95.6194 178.111 101.25 178.111C103.77 178.02 106.109 179.419 107.231 181.689Z" fill="url(#paint1_linear_948_5766)"/>
            <path d="M96.3742 199.704C99.2618 197.021 102.549 194.799 106.115 193.106C105.105 194.38 103.969 195.554 102.723 196.607C103.017 196.466 99.2775 199.117 97.363 200.904C96.6319 201.586 95.6431 200.38 96.369 199.72" fill="#66B1FF"/>
            <path d="M100.703 217.69C103.103 217.126 105.421 216.273 107.598 215.16C108.694 214.616 109.884 214.258 111.115 214.106C108.216 216.504 104.745 218.21 100.999 219.082C100.038 219.308 99.7467 217.896 100.703 217.675" fill="#66B1FF"/>
            <path d="M186.326 112.895C186.326 112.895 173.093 111.79 169.36 117.251C168.931 117.881 172.639 120.156 176.885 119.757C178.086 119.644 181.146 118.587 183.48 116.205" fill="#ED7865"/>
            <mask id="mask0_948_5766" style="mask-type:luminance" maskUnits="userSpaceOnUse" x="189" y="69" width="17" height="17">
                <path d="M189.309 75.3471C188.352 79.6567 191.037 83.9281 195.3 84.8937C195.316 84.8937 195.332 84.8991 195.354 84.9046C199.644 85.8865 203.917 83.1917 204.922 78.8658C205.878 74.5562 203.193 70.2848 198.93 69.3192C198.914 69.3192 198.898 69.3137 198.877 69.3083C194.587 68.3264 190.313 71.0212 189.309 75.3471Z" fill="white"/>
            </mask>
            <g mask="url(#mask0_948_5766)">
                <path d="M202.115 79.1064C202.115 82.4183 199.427 85.1064 196.115 85.1064C192.803 85.1064 190.115 82.4183 190.115 79.1064C190.115 75.7946 192.803 73.1064 196.115 73.1064C199.427 73.1064 202.115 75.7946 202.115 79.1064Z" fill="#333333"/>
            </g>
            <mask id="mask1_948_5766" style="mask-type:luminance" maskUnits="userSpaceOnUse" x="156" y="60" width="17" height="17">
                <path d="M156.307 66.3567C155.355 70.6669 158.042 74.9389 162.314 75.8991C162.325 75.8991 162.335 75.8991 162.346 75.9046C166.639 76.8866 170.916 74.1914 171.922 69.8649C172.879 65.5547 170.192 61.2827 165.926 60.317C165.909 60.317 165.893 60.3115 165.872 60.3061C161.578 59.3295 157.307 62.0301 156.307 66.3567Z" fill="white"/>
            </mask>
            <g mask="url(#mask1_948_5766)">
                <path d="M169.115 70.1064C169.115 73.4197 166.652 76.1064 163.615 76.1064C160.578 76.1064 158.115 73.4197 158.115 70.1064C158.115 66.7932 160.578 64.1064 163.615 64.1064C166.652 64.1064 169.115 66.7932 169.115 70.1064Z" fill="#333333"/>
            </g>
            <path d="M204.115 86.5223C204.115 86.5223 197.11 80.6749 186.115 80.1064V83.738L201.978 91.1064L204.115 86.5223Z" fill="#66B1FF"/>
            <path d="M172.115 76.6044C172.115 76.6044 163.831 71.5976 152.115 73.5642L154.5 77.2754L171.509 78.1064L172.115 76.6044Z" fill="#66B1FF"/>
        </g>
        <path d="M144.115 141.106C144.005 140.294 143.307 138.399 141.398 137.325C139.489 136.252 137.6 136.576 136.894 136.873" stroke="#0647C7" stroke-width="1.16549" stroke-linecap="round"/>
        <path d="M150.115 130.106C149.384 130.57 147.352 131.364 145.082 130.833C142.812 130.303 141.676 128.866 141.391 128.213" stroke="#0647C7" stroke-width="1.16549" stroke-linecap="round"/>
        <path d="M145.115 135.106C141.41 133.754 140.822 133.183 139.566 132.551" stroke="#0647C7" stroke-width="1.16549" stroke-linecap="round"/>
        <path d="M153.115 137.106C149.27 136.227 148.616 135.733 147.292 135.263" stroke="#0647C7" stroke-width="1.16549" stroke-linecap="round"/>
    </g>
    <path d="M70.8452 108.643C88.8389 104.604 117.651 97.6142 126.694 100.809C135.737 104.005 140.416 123.171 136.389 130.883C133.371 136.663 129.753 138.63 75.8885 150.215C38.8768 158.176 33.4452 158.514 26.2031 155.457C18.9611 152.4 13.5763 134.222 19.4909 126.473C27.7097 115.708 53.8651 112.455 70.8452 108.643Z" fill="#0647C7"/>
    <path d="M38.3113 125.677C38.2508 125.403 38.2972 125.152 38.4505 124.924C38.6127 124.693 38.8351 124.547 39.1178 124.484C39.3475 124.434 39.5653 124.455 39.7713 124.549C39.9753 124.633 40.188 124.799 40.4095 125.047L43.4881 128.411L44.2494 124.185C44.3106 123.875 44.407 123.641 44.5387 123.482C44.6704 123.324 44.8643 123.216 45.1205 123.159C45.3767 123.103 45.6097 123.13 45.8196 123.241C46.0275 123.344 46.1617 123.532 46.2223 123.806C46.2574 123.965 46.2528 124.174 46.2083 124.434L44.9516 130.756C44.7828 131.628 44.5294 132.304 44.1913 132.786C43.8512 133.26 43.3587 133.568 42.7139 133.71C42.546 133.747 42.36 133.765 42.1559 133.764C41.9165 133.77 41.6923 133.699 41.4835 133.551C41.2746 133.403 41.1429 133.205 41.0882 132.957C41.0628 132.842 41.062 132.713 41.0857 132.569C41.135 132.289 41.2687 132.098 41.4867 131.994C41.7115 131.879 41.9653 131.791 42.248 131.728C42.4247 131.689 42.5626 131.622 42.6618 131.526C42.761 131.43 42.8324 131.271 42.8758 131.048L42.9335 130.743L38.6507 126.269C38.4693 126.078 38.3562 125.88 38.3113 125.677ZM49.2148 127.703C49.2753 127.977 49.3777 128.167 49.5218 128.274C49.6659 128.382 49.8352 128.414 50.0295 128.371C50.1355 128.347 50.2617 128.31 50.4079 128.26C50.5523 128.2 50.6681 128.137 50.7555 128.072L50.4099 126.508C50.3532 126.252 50.3982 126.015 50.5446 125.797C50.698 125.569 50.9248 125.422 51.2252 125.355C51.5167 125.291 51.7713 125.332 51.989 125.479C52.2047 125.616 52.3409 125.813 52.3975 126.069L53.3495 130.376C53.4062 130.632 53.3578 130.874 53.2045 131.102C53.058 131.32 52.8434 131.46 52.5608 131.522C52.2781 131.585 52.02 131.549 51.7866 131.415C51.5601 131.271 51.4185 131.071 51.3619 130.814L51.1393 129.807C50.9802 129.926 50.7862 130.034 50.5575 130.13C50.3376 130.225 50.1083 130.299 49.8698 130.352C49.4635 130.441 49.1072 130.464 48.8011 130.421C48.5019 130.366 48.2414 130.257 48.0198 130.093C47.8051 129.918 47.6258 129.694 47.4818 129.42C47.3448 129.135 47.2352 128.807 47.1532 128.436L46.9101 127.336C46.8535 127.08 46.9008 126.833 47.0522 126.596C47.2105 126.348 47.4575 126.187 47.7932 126.113C48.0935 126.047 48.357 126.086 48.5835 126.23C48.8169 126.364 48.9619 126.559 49.0185 126.815L49.2148 127.703ZM56.5625 130.639C56.0237 130.758 55.536 130.69 55.0996 130.434C54.6701 130.167 54.388 129.729 54.2532 129.12C54.179 128.784 54.172 128.48 54.2322 128.207C54.2923 127.935 54.402 127.697 54.5612 127.496C54.7185 127.285 54.9164 127.111 55.155 126.975C55.4024 126.837 55.6719 126.736 55.9634 126.672C56.2285 126.613 56.4713 126.601 56.6921 126.636C56.9197 126.66 57.09 126.696 57.2028 126.746L57.1764 126.626C57.108 126.317 56.9832 126.109 56.8017 126C56.6272 125.881 56.4118 125.85 56.1556 125.907C55.9966 125.942 55.8494 125.988 55.7139 126.046C55.5853 126.093 55.4631 126.148 55.3472 126.21C55.3069 126.238 55.2691 126.255 55.2338 126.263C55.1985 126.271 55.1631 126.279 55.1278 126.287C54.9599 126.324 54.799 126.308 54.645 126.24C54.4999 126.17 54.3769 126.054 54.276 125.891C54.2358 125.835 54.2069 125.767 54.1893 125.688C54.1503 125.511 54.1725 125.339 54.2561 125.173C54.3466 124.995 54.4768 124.851 54.6467 124.739C54.792 124.642 54.9835 124.544 55.2211 124.445C55.4675 124.345 55.7232 124.265 55.9883 124.207C56.8982 124.006 57.5874 124.085 58.0561 124.445C58.5248 124.805 58.848 125.387 59.0257 126.19L59.632 128.933C59.7023 129.251 59.6677 129.514 59.5281 129.72C59.3885 129.927 59.2127 130.054 59.0007 130.101C58.7445 130.157 58.5365 130.138 58.3767 130.044C58.2168 129.95 58.0835 129.808 57.9768 129.618C57.8774 129.881 57.699 130.101 57.4417 130.278C57.1825 130.447 56.8894 130.567 56.5625 130.639ZM57.4664 127.938C57.2516 127.847 56.9852 127.836 56.6671 127.906C56.4993 127.943 56.3712 128.013 56.2827 128.116C56.1923 128.21 56.1637 128.332 56.1969 128.482C56.2262 128.615 56.3036 128.714 56.4292 128.779C56.5547 128.843 56.7014 128.857 56.8693 128.82C57.0724 128.776 57.2236 128.705 57.3229 128.609C57.429 128.502 57.5041 128.402 57.5484 128.309L57.4664 127.938ZM64.3584 124.485C64.2259 124.514 64.061 124.523 63.8638 124.511C63.7608 124.506 63.6587 124.505 63.5577 124.509C63.4654 124.511 63.3707 124.522 63.2735 124.544C63.1145 124.579 62.9658 124.64 62.8273 124.726C62.6889 124.812 62.5705 124.926 62.4722 125.068C62.3719 125.202 62.2996 125.356 62.2553 125.533C62.2198 125.708 62.2254 125.901 62.2723 126.113C62.3172 126.316 62.397 126.488 62.5117 126.63C62.6263 126.771 62.7582 126.886 62.9072 126.973C63.0544 127.052 63.2098 127.106 63.3737 127.134C63.5444 127.152 63.7093 127.144 63.8683 127.109C63.992 127.081 64.1083 127.042 64.2173 126.99C64.3263 126.938 64.4245 126.879 64.5119 126.814C64.5924 126.759 64.6749 126.713 64.7593 126.676C64.8418 126.63 64.9272 126.597 65.0155 126.577C65.2982 126.515 65.5582 126.601 65.7954 126.836C65.9169 126.967 65.9953 127.111 66.0304 127.27C66.0695 127.447 66.0605 127.616 66.0034 127.777C65.9463 127.938 65.8612 128.077 65.7483 128.194C65.5813 128.361 65.3519 128.518 65.0603 128.666C64.7776 128.812 64.4639 128.923 64.1194 128.999C63.6247 129.108 63.1575 129.132 62.718 129.072C62.2784 129.011 61.887 128.875 61.5438 128.664C61.2006 128.453 60.9065 128.17 60.6616 127.816C60.4255 127.461 60.2557 127.049 60.1522 126.581C60.0565 126.148 60.0417 125.725 60.1079 125.312C60.1741 124.899 60.3129 124.521 60.5243 124.178C60.7425 123.824 61.0284 123.525 61.382 123.28C61.7336 123.026 62.1435 122.848 62.6117 122.744C62.9474 122.67 63.259 122.634 63.5465 122.635C63.834 122.637 64.0803 122.661 64.2853 122.708C64.4796 122.749 64.6409 122.829 64.7693 122.949C64.8958 123.06 64.9766 123.195 65.0118 123.354C65.043 123.495 65.0365 123.654 64.9921 123.831C64.8965 124.195 64.6853 124.413 64.3584 124.485ZM70.3082 126.632C70.3648 126.888 70.3164 127.13 70.1631 127.359C70.0167 127.576 69.8021 127.716 69.5194 127.779C69.2367 127.841 68.9787 127.806 68.7453 127.672C68.5187 127.527 68.3772 127.327 68.3205 127.071L67.6175 123.891L66.8225 124.066C66.5663 124.123 66.3249 124.079 66.0984 123.934C65.8787 123.779 65.7377 123.56 65.6752 123.277C65.6127 122.995 65.6493 122.741 65.785 122.516C65.9275 122.281 66.1269 122.135 66.3831 122.079L69.9608 121.289C70.217 121.232 70.4549 121.282 70.6746 121.437C70.9011 121.582 71.0456 121.795 71.1081 122.078C71.1706 122.36 71.1305 122.619 70.988 122.855C70.8523 123.079 70.6564 123.22 70.4002 123.276L69.6052 123.452L70.3082 126.632ZM74.4247 120.22C75.3346 120.019 76.0608 119.993 76.6033 120.142C77.1438 120.282 77.4756 120.63 77.5986 121.187C77.6396 121.372 77.6458 121.547 77.6172 121.711C77.5885 121.875 77.5339 122.026 77.4533 122.164C77.3815 122.3 77.2916 122.417 77.1835 122.515C77.0735 122.605 76.9596 122.676 76.8418 122.73C77.2382 122.763 77.5644 122.876 77.8203 123.07C78.0831 123.253 78.2496 123.503 78.3199 123.821C78.4566 124.439 78.3172 124.961 77.9016 125.386C77.4929 125.801 76.7895 126.118 75.7912 126.339C75.5704 126.387 75.3088 126.441 75.0065 126.498C74.713 126.554 74.423 126.604 74.1364 126.648C73.8675 126.689 73.6251 126.641 73.4094 126.503C73.1917 126.357 73.0536 126.151 72.995 125.886L72.0898 121.792C72.0332 121.535 72.0727 121.295 72.2084 121.071C72.3529 120.844 72.5513 120.694 72.8036 120.62C73.049 120.556 73.3076 120.49 73.5795 120.421C73.8603 120.349 74.142 120.282 74.4247 120.22ZM74.845 124.824C74.9176 124.818 75.0353 124.805 75.1983 124.788C75.3681 124.76 75.5236 124.73 75.665 124.699C75.8505 124.658 75.9875 124.586 76.0759 124.483C76.1712 124.369 76.2062 124.255 76.1808 124.14C76.1144 123.84 75.8206 123.747 75.2994 123.862L74.6633 124.003L74.845 124.824ZM74.3997 122.81L75.0623 122.664C75.2124 122.631 75.3469 122.569 75.4658 122.478C75.5827 122.378 75.6226 122.244 75.5855 122.076C75.5601 121.961 75.4944 121.874 75.3885 121.814C75.2806 121.745 75.1384 121.73 74.9617 121.769C74.8998 121.783 74.8302 121.803 74.7526 121.829C74.6731 121.847 74.5946 121.869 74.517 121.895C74.4463 121.911 74.3811 121.93 74.3212 121.952C74.2682 121.964 74.2328 121.972 74.2152 121.976L74.3997 122.81ZM82.9874 124.833C82.475 124.947 81.9981 124.968 81.5566 124.899C81.1151 124.83 80.7173 124.686 80.3633 124.468C80.0181 124.247 79.724 123.965 79.481 123.62C79.2469 123.274 79.08 122.875 78.9804 122.424C78.8808 121.974 78.8641 121.542 78.9303 121.129C79.0054 120.714 79.153 120.334 79.3732 119.989C79.6022 119.642 79.9024 119.344 80.2736 119.096C80.6448 118.847 81.0866 118.666 81.5989 118.553C82.1113 118.44 82.5883 118.418 83.0298 118.487C83.4713 118.556 83.8646 118.701 84.2098 118.922C84.5638 119.14 84.8579 119.422 85.092 119.769C85.335 120.114 85.5063 120.511 85.6059 120.962C85.7055 121.412 85.7178 121.845 85.6427 122.26C85.5765 122.673 85.4289 123.053 85.1999 123.4C84.9797 123.745 84.684 124.042 84.3128 124.291C83.9416 124.539 83.4998 124.72 82.9874 124.833ZM82.009 120.408C81.691 120.478 81.4381 120.654 81.2504 120.937C81.0607 121.21 81.0108 121.55 81.1006 121.956C81.1846 122.336 81.3677 122.62 81.6502 122.808C81.9326 122.996 82.2416 123.053 82.5773 122.978C82.913 122.904 83.1713 122.731 83.3521 122.46C83.531 122.18 83.5756 121.836 83.4858 121.43C83.3998 121.041 83.2166 120.757 82.9362 120.578C82.6538 120.391 82.3447 120.334 82.009 120.408ZM88.6073 117.089C89.5172 116.888 90.2434 116.862 90.7859 117.011C91.3265 117.151 91.6583 117.5 91.7813 118.056C91.8223 118.242 91.8285 118.416 91.7998 118.58C91.7712 118.744 91.7166 118.895 91.636 119.033C91.5642 119.169 91.4742 119.287 91.3662 119.385C91.2562 119.474 91.1423 119.545 91.0245 119.599C91.4209 119.632 91.747 119.745 92.0029 119.939C92.2657 120.122 92.4323 120.372 92.5026 120.69C92.6393 121.308 92.4998 121.83 92.0843 122.255C91.6756 122.67 90.9721 122.987 89.9739 123.208C89.753 123.256 89.4915 123.31 89.1892 123.367C88.8957 123.423 88.6056 123.473 88.3191 123.517C88.0501 123.558 87.8078 123.51 87.5921 123.372C87.3744 123.226 87.2362 123.02 87.1776 122.755L86.2725 118.661C86.2159 118.405 86.2554 118.164 86.3911 117.94C86.5356 117.713 86.734 117.563 86.9862 117.489C87.2316 117.425 87.4903 117.359 87.7622 117.29C88.0429 117.218 88.3246 117.152 88.6073 117.089ZM89.0276 121.693C89.1002 121.687 89.218 121.675 89.3809 121.657C89.5507 121.629 89.7063 121.599 89.8476 121.568C90.0332 121.527 90.1701 121.455 90.2586 121.352C90.3539 121.239 90.3888 121.124 90.3635 121.009C90.2971 120.709 90.0033 120.616 89.4821 120.732L88.846 120.872L89.0276 121.693ZM88.5824 119.679L89.2449 119.533C89.3951 119.5 89.5296 119.438 89.6484 119.347C89.7653 119.247 89.8052 119.113 89.7681 118.945C89.7427 118.83 89.6771 118.743 89.5712 118.683C89.4633 118.614 89.321 118.599 89.1444 118.638C89.0825 118.652 89.0128 118.672 88.9353 118.698C88.8558 118.716 88.7772 118.738 88.6997 118.764C88.629 118.78 88.5637 118.799 88.5038 118.821C88.4508 118.833 88.4155 118.841 88.3978 118.845L88.5824 119.679ZM95.7331 121.992C95.1942 122.111 94.7066 122.043 94.2702 121.787C93.8407 121.52 93.5585 121.082 93.4238 120.473C93.3496 120.137 93.3426 119.833 93.4027 119.56C93.4629 119.288 93.5726 119.05 93.7318 118.848C93.889 118.638 94.0869 118.464 94.3256 118.328C94.573 118.19 94.8425 118.089 95.134 118.025C95.399 117.966 95.6419 117.954 95.8627 117.989C96.0903 118.013 96.2605 118.049 96.3733 118.099L96.347 117.979C96.2786 117.67 96.1537 117.461 95.9723 117.353C95.7978 117.234 95.5824 117.203 95.3262 117.26C95.1672 117.295 95.0199 117.341 94.8845 117.399C94.7559 117.446 94.6336 117.501 94.5178 117.563C94.4775 117.591 94.4397 117.608 94.4044 117.616C94.369 117.624 94.3337 117.632 94.2983 117.639C94.1305 117.676 93.9696 117.661 93.8156 117.593C93.6704 117.523 93.5474 117.407 93.4465 117.244C93.4063 117.188 93.3775 117.12 93.3599 117.041C93.3208 116.864 93.3431 116.692 93.4267 116.526C93.5172 116.348 93.6474 116.203 93.8173 116.092C93.9626 115.995 94.1541 115.897 94.3917 115.798C94.6381 115.698 94.8938 115.618 95.1588 115.559C96.0687 115.359 96.758 115.438 97.2267 115.798C97.6953 116.158 98.0185 116.739 98.1962 117.543L98.8026 120.286C98.8729 120.604 98.8382 120.866 98.6987 121.073C98.5591 121.28 98.3833 121.407 98.1713 121.454C97.9151 121.51 97.7071 121.491 97.5472 121.397C97.3874 121.303 97.2541 121.161 97.1473 120.971C97.0479 121.234 96.8696 121.454 96.6123 121.631C96.353 121.8 96.06 121.92 95.7331 121.992ZM96.6369 119.291C96.4221 119.199 96.1557 119.189 95.8377 119.259C95.6699 119.296 95.5417 119.366 95.4533 119.469C95.3629 119.563 95.3343 119.685 95.3675 119.835C95.3968 119.968 95.4742 120.067 95.5997 120.131C95.7253 120.196 95.872 120.21 96.0398 120.173C96.243 120.128 96.3942 120.058 96.4934 119.962C96.5995 119.855 96.6747 119.755 96.719 119.662L96.6369 119.291ZM103.384 119.33C103.44 119.586 103.392 119.829 103.239 120.057C103.092 120.275 102.878 120.415 102.595 120.477C102.312 120.54 102.054 120.504 101.821 120.37C101.594 120.226 101.453 120.025 101.396 119.769L100.693 116.589L99.8981 116.765C99.6419 116.821 99.4005 116.777 99.174 116.633C98.9544 116.477 98.8133 116.258 98.7508 115.976C98.6883 115.693 98.7249 115.439 98.8606 115.215C99.0031 114.979 99.2025 114.834 99.4587 114.777L103.036 113.987C103.293 113.931 103.531 113.98 103.75 114.135C103.977 114.28 104.121 114.494 104.184 114.776C104.246 115.059 104.206 115.318 104.064 115.553C103.928 115.778 103.732 115.918 103.476 115.975L102.681 116.15L103.384 119.33ZM107.945 114.363C108.466 114.248 108.912 114.214 109.284 114.262C109.665 114.307 109.979 114.409 110.228 114.568C110.484 114.724 110.685 114.921 110.83 115.157C110.975 115.394 111.077 115.645 111.136 115.91C111.2 116.201 111.212 116.504 111.17 116.819C111.137 117.132 111.031 117.429 110.853 117.709C110.682 117.988 110.428 118.239 110.088 118.462C109.757 118.683 109.331 118.851 108.81 118.966L107.206 119.32C106.95 119.377 106.71 119.337 106.485 119.201C106.267 119.055 106.13 118.854 106.074 118.597L105.151 114.424C105.094 114.168 105.139 113.931 105.286 113.713C105.439 113.485 105.657 113.339 105.94 113.277C106.222 113.214 106.477 113.255 106.703 113.4C106.937 113.534 107.082 113.729 107.138 113.985L107.256 114.515L107.945 114.363ZM107.885 117.364L108.389 117.253C108.654 117.194 108.837 117.098 108.937 116.965C109.044 116.821 109.076 116.652 109.033 116.457C108.99 116.263 108.894 116.122 108.745 116.034C108.605 115.945 108.398 115.93 108.124 115.991L107.607 116.105L107.885 117.364ZM49.4584 138.02C50.3683 137.82 51.0945 137.794 51.637 137.942C52.1776 138.083 52.5094 138.431 52.6324 138.987C52.6734 139.173 52.6796 139.347 52.651 139.511C52.6223 139.675 52.5677 139.826 52.4871 139.964C52.4153 140.101 52.3254 140.218 52.2173 140.316C52.1073 140.405 51.9934 140.476 51.8756 140.53C52.272 140.563 52.5981 140.676 52.854 140.87C53.1168 141.053 53.2834 141.303 53.3537 141.621C53.4904 142.24 53.3509 142.761 52.9354 143.187C52.5267 143.601 51.8232 143.919 50.825 144.139C50.6041 144.188 50.3426 144.241 50.0403 144.298C49.7468 144.354 49.4567 144.404 49.1702 144.449C48.9012 144.49 48.6589 144.441 48.4432 144.303C48.2255 144.157 48.0873 143.951 48.0288 143.686L47.1236 139.592C47.067 139.336 47.1065 139.095 47.2422 138.871C47.3867 138.645 47.5851 138.494 47.8374 138.42C48.0828 138.357 48.3414 138.29 48.6133 138.221C48.894 138.15 49.1757 138.083 49.4584 138.02ZM49.8787 142.625C49.9513 142.618 50.0691 142.606 50.232 142.588C50.4018 142.56 50.5574 142.53 50.6987 142.499C50.8843 142.458 51.0212 142.386 51.1097 142.283C51.205 142.17 51.2399 142.056 51.2146 141.941C51.1482 141.64 50.8544 141.548 50.3332 141.663L49.6971 141.803L49.8787 142.625ZM49.4335 140.611L50.096 140.464C50.2462 140.431 50.3807 140.369 50.4996 140.278C50.6164 140.178 50.6563 140.044 50.6192 139.876C50.5938 139.762 50.5282 139.674 50.4223 139.614C50.3144 139.545 50.1721 139.53 49.9955 139.569C49.9336 139.583 49.8639 139.603 49.7864 139.63C49.7069 139.647 49.6283 139.669 49.5508 139.695C49.4801 139.711 49.4148 139.73 49.3549 139.753C49.3019 139.764 49.2666 139.772 49.2489 139.776L49.4335 140.611ZM59.0298 139.326L59.4692 141.314C59.5259 141.57 59.4775 141.812 59.3242 142.04C59.1777 142.258 58.9631 142.398 58.6804 142.46C58.3978 142.523 58.1397 142.487 57.9063 142.353C57.6798 142.209 57.5382 142.009 57.4816 141.752L56.5296 137.446C56.4729 137.19 56.5179 136.953 56.6643 136.735C56.8177 136.507 57.0357 136.362 57.3184 136.299C57.601 136.237 57.8556 136.278 58.0822 136.422C58.3156 136.556 58.4606 136.751 58.5172 137.007L58.9361 138.902L59.7307 136.461C59.8007 136.233 59.9024 136.044 60.0361 135.894C60.1677 135.735 60.3484 135.63 60.5781 135.58C60.9049 135.507 61.1772 135.545 61.3949 135.691C61.6214 135.836 61.763 136.036 61.8196 136.292C61.8665 136.504 61.8452 136.722 61.7556 136.946L61.1268 138.502L62.637 139.864C62.8213 140.027 62.9389 140.223 62.9897 140.453C63.0482 140.718 63.0072 140.973 62.8666 141.217C62.7349 141.459 62.5188 141.613 62.2185 141.679C61.9623 141.736 61.742 141.724 61.5576 141.645C61.382 141.563 61.2065 141.44 61.031 141.275L59.0298 139.326ZM67.0794 140.634C66.5671 140.747 66.0901 140.769 65.6486 140.7C65.2071 140.631 64.8093 140.487 64.4553 140.268C64.1102 140.048 63.8161 139.766 63.5731 139.421C63.3389 139.074 63.1721 138.676 63.0725 138.225C62.9729 137.775 62.9562 137.343 63.0224 136.93C63.0974 136.515 63.2451 136.135 63.4652 135.79C63.6943 135.443 63.9944 135.145 64.3656 134.896C64.7368 134.648 65.1786 134.467 65.691 134.354C66.2034 134.24 66.6803 134.219 67.1218 134.288C67.5633 134.357 67.9567 134.502 68.3018 134.722C68.6559 134.941 68.9499 135.223 69.1841 135.57C69.4271 135.914 69.5984 136.312 69.698 136.763C69.7975 137.213 69.8098 137.646 69.7348 138.061C69.6686 138.474 69.521 138.854 69.2919 139.201C69.0717 139.546 68.776 139.843 68.4048 140.091C68.0336 140.34 67.5918 140.521 67.0794 140.634ZM66.1011 136.209C65.7831 136.279 65.5302 136.455 65.3424 136.737C65.1527 137.011 65.1028 137.351 65.1926 137.757C65.2766 138.137 65.4598 138.421 65.7422 138.609C66.0246 138.796 66.3337 138.853 66.6694 138.779C67.005 138.705 67.2633 138.532 67.4442 138.261C67.6231 137.98 67.6676 137.637 67.5778 137.231C67.4919 136.842 67.3087 136.558 67.0282 136.379C66.7458 136.191 66.4368 136.134 66.1011 136.209ZM74.2589 133.532C74.2023 133.276 74.2472 133.039 74.3937 132.822C74.547 132.593 74.765 132.448 75.0477 132.385C75.3304 132.323 75.585 132.364 75.8115 132.509C76.0449 132.642 76.19 132.837 76.2466 133.093L77.1986 137.4C77.2552 137.656 77.2069 137.898 77.0535 138.127C76.9071 138.344 76.6925 138.484 76.4098 138.547C76.1271 138.609 75.8691 138.573 75.6357 138.44C75.4092 138.295 75.2676 138.095 75.211 137.838L74.9327 136.58L73.0113 137.004L73.2896 138.263C73.3462 138.519 73.2978 138.761 73.1445 138.99C72.998 139.207 72.7835 139.347 72.5008 139.41C72.2181 139.472 71.9601 139.436 71.7266 139.303C71.5001 139.158 71.3585 138.958 71.3019 138.701L70.3499 134.395C70.2933 134.139 70.3382 133.902 70.4847 133.684C70.638 133.456 70.856 133.311 71.1387 133.248C71.4214 133.186 71.676 133.227 71.9025 133.371C72.1359 133.505 72.2809 133.7 72.3376 133.956L72.6012 135.149L74.5226 134.725L74.2589 133.532ZM80.2003 134.653L80.6397 136.64C80.6963 136.896 80.648 137.139 80.4946 137.367C80.3482 137.585 80.1336 137.725 79.8509 137.787C79.5682 137.849 79.3102 137.814 79.0768 137.68C78.8503 137.535 78.7087 137.335 78.6521 137.079L77.7001 132.773C77.6434 132.516 77.6883 132.28 77.8348 132.062C77.9881 131.833 78.2061 131.688 78.4888 131.626C78.7715 131.563 79.0261 131.604 79.2526 131.749C79.4861 131.883 79.6311 132.078 79.6877 132.334L80.1066 134.229L80.9012 131.788C80.9711 131.559 81.0729 131.37 81.2065 131.22C81.3382 131.062 81.5189 130.957 81.7486 130.906C82.0754 130.834 82.3477 130.871 82.5654 131.018C82.7919 131.162 82.9335 131.362 82.9901 131.619C83.037 131.831 83.0156 132.048 82.9261 132.272L82.2973 133.828L83.8075 135.19C83.9918 135.353 84.1094 135.55 84.1601 135.78C84.2187 136.045 84.1777 136.299 84.0371 136.543C83.9054 136.785 83.6893 136.94 83.3889 137.006C83.1328 137.062 82.9125 137.051 82.7281 136.971C82.5525 136.889 82.377 136.766 82.2015 136.601L80.2003 134.653ZM87.5169 132.565C87.6012 132.695 87.6712 132.823 87.727 132.949C87.7916 133.074 87.8572 133.203 87.9238 133.337C87.9122 133.2 87.9005 133.064 87.8889 132.927C87.8753 132.782 87.874 132.63 87.885 132.47L88.0376 130.268C88.0526 130.042 88.1293 129.845 88.2679 129.675C88.4153 129.504 88.5994 129.394 88.8202 129.345C89.1559 129.271 89.439 129.315 89.6694 129.477C89.8979 129.63 90.0414 129.84 90.1 130.105C90.1313 130.246 90.135 130.389 90.1113 130.533L89.3315 135.555C89.2386 136.141 89.1365 136.622 89.0252 136.998C88.9158 137.384 88.7855 137.695 88.6341 137.933C88.4935 138.177 88.3294 138.356 88.1418 138.472C87.9651 138.594 87.7618 138.681 87.5322 138.732C87.382 138.765 87.2367 138.778 87.0964 138.772C86.9561 138.766 86.8226 138.749 86.6961 138.722C86.5303 138.684 86.3876 138.604 86.268 138.483C86.1573 138.359 86.0843 138.217 86.0492 138.058C86.0238 137.944 86.018 137.834 86.0319 137.729C86.0724 137.451 86.1786 137.261 86.3504 137.158C86.5223 137.055 86.7186 136.98 86.9395 136.931C87.0808 136.9 87.1859 136.83 87.2547 136.722C87.3324 136.613 87.3855 136.476 87.4141 136.312L87.4763 135.965L84.4471 131.881C84.356 131.762 84.2919 131.618 84.2548 131.451C84.1923 131.168 84.2402 130.903 84.3985 130.655C84.5636 130.396 84.8096 130.23 85.1365 130.158C85.3927 130.102 85.6149 130.122 85.8032 130.219C85.9984 130.306 86.1538 130.443 86.2694 130.631L87.5169 132.565ZM93.9522 132.52C94.122 132.575 94.2726 132.607 94.404 132.615C94.5424 132.612 94.7176 132.587 94.9296 132.54C95.3625 132.445 95.6522 132.247 95.7987 131.946C95.9522 131.634 95.9879 131.292 95.9059 130.921C95.8297 130.577 95.6637 130.308 95.4078 130.114C95.1607 129.919 94.8472 129.863 94.4673 129.947C94.0963 130.028 93.7909 130.281 93.5509 130.705L93.9522 132.52ZM92.1431 128.611C92.3905 128.557 92.5921 128.568 92.7481 128.645C92.9128 128.719 93.0487 128.81 93.1555 128.916C93.2882 128.72 93.4832 128.533 93.7405 128.356C93.9958 128.17 94.309 128.036 94.6801 127.954C95.0776 127.866 95.4564 127.861 95.8164 127.939C96.1853 128.016 96.5149 128.165 96.8051 128.388C97.0953 128.611 97.3433 128.895 97.549 129.239C97.7635 129.58 97.9196 129.972 98.0172 130.414C98.1168 130.864 98.131 131.306 98.0599 131.738C97.9957 132.16 97.8544 132.548 97.6362 132.902C97.4268 133.254 97.1418 133.558 96.7814 133.813C96.4298 134.067 96.0111 134.247 95.5252 134.355C95.322 134.399 95.115 134.427 94.904 134.436C94.7038 134.453 94.5261 134.445 94.3711 134.415L94.7578 136.164C94.8144 136.42 94.7651 136.658 94.6098 136.877C94.4653 137.104 94.2517 137.248 93.969 137.311C93.6863 137.373 93.4273 137.333 93.1919 137.19C92.9674 137.055 92.8268 136.859 92.7701 136.603L91.2762 129.845C91.2196 129.589 91.2616 129.339 91.4022 129.095C91.5516 128.849 91.7986 128.687 92.1431 128.611ZM103.033 128.236C102.901 128.266 102.736 128.274 102.538 128.262C102.435 128.257 102.333 128.256 102.232 128.26C102.14 128.262 102.045 128.274 101.948 128.295C101.789 128.33 101.64 128.391 101.502 128.477C101.363 128.563 101.245 128.677 101.147 128.819C101.047 128.953 100.974 129.108 100.93 129.284C100.894 129.459 100.9 129.652 100.947 129.864C100.992 130.067 101.072 130.24 101.186 130.381C101.301 130.523 101.433 130.637 101.582 130.725C101.729 130.803 101.884 130.857 102.048 130.886C102.219 130.904 102.384 130.895 102.543 130.86C102.667 130.833 102.783 130.793 102.892 130.741C103.001 130.689 103.099 130.63 103.186 130.565C103.267 130.51 103.349 130.464 103.434 130.427C103.516 130.381 103.602 130.348 103.69 130.329C103.973 130.266 104.233 130.352 104.47 130.587C104.592 130.718 104.67 130.863 104.705 131.022C104.744 131.198 104.735 131.367 104.678 131.528C104.621 131.689 104.536 131.828 104.423 131.946C104.256 132.112 104.027 132.269 103.735 132.417C103.452 132.563 103.139 132.674 102.794 132.75C102.299 132.859 101.832 132.884 101.393 132.823C100.953 132.763 100.562 132.627 100.218 132.415C99.8752 132.204 99.5811 131.921 99.3362 131.568C99.1001 131.212 98.9303 130.8 98.8268 130.332C98.7311 129.899 98.7163 129.476 98.7826 129.063C98.8488 128.65 98.9875 128.272 99.1989 127.929C99.4172 127.575 99.703 127.276 100.057 127.031C100.408 126.778 100.818 126.599 101.286 126.496C101.622 126.422 101.934 126.385 102.221 126.387C102.509 126.388 102.755 126.412 102.96 126.46C103.154 126.5 103.316 126.58 103.444 126.7C103.57 126.811 103.651 126.946 103.686 127.105C103.718 127.247 103.711 127.406 103.667 127.582C103.571 127.946 103.36 128.164 103.033 128.236ZM108.741 127.449C108.696 127.245 108.571 127.079 108.367 126.948C108.168 126.806 107.91 126.77 107.592 126.841C107.257 126.915 107.016 127.042 106.871 127.222C106.725 127.403 106.633 127.636 106.595 127.923L108.741 127.449ZM107.292 125.17C107.672 125.086 108.049 125.072 108.423 125.129C108.806 125.183 109.157 125.305 109.477 125.494C109.796 125.683 110.074 125.932 110.309 126.241C110.544 126.55 110.708 126.917 110.802 127.341L110.861 127.606C110.917 127.862 110.87 128.067 110.719 128.221C110.576 128.373 110.421 128.468 110.253 128.505L106.954 129.233C107.114 129.494 107.332 129.664 107.608 129.742C107.894 129.818 108.2 129.819 108.527 129.747C108.642 129.722 108.768 129.685 108.905 129.636C109.041 129.578 109.183 129.51 109.332 129.431C109.415 129.384 109.5 129.352 109.589 129.332C109.739 129.299 109.885 129.313 110.029 129.374C110.17 129.426 110.288 129.521 110.383 129.657C110.436 129.729 110.474 129.818 110.498 129.924C110.531 130.074 110.515 130.235 110.451 130.406C110.394 130.567 110.287 130.711 110.13 130.839C109.935 131.002 109.704 131.132 109.438 131.228C109.181 131.322 108.928 131.396 108.681 131.45C108.186 131.56 107.724 131.583 107.293 131.521C106.862 131.458 106.475 131.321 106.132 131.11C105.797 130.896 105.508 130.613 105.263 130.259C105.027 129.904 104.857 129.492 104.753 129.024C104.658 128.591 104.643 128.168 104.709 127.755C104.784 127.34 104.927 126.961 105.139 126.618C105.357 126.264 105.647 125.964 106.01 125.717C106.37 125.461 106.798 125.279 107.292 125.17Z" fill="white"/>
    <path d="M52.1155 63.1064L53.3176 78.9044L69.1155 80.1064L53.3176 81.3085L52.1155 97.1064L50.9134 81.3085L35.1155 80.1064L50.9134 78.9044L52.1155 63.1064Z" fill="url(#paint2_radial_948_5766)"/>
    <path d="M52.1155 63.1064L53.3176 78.9044L69.1155 80.1064L53.3176 81.3085L52.1155 97.1064L50.9134 81.3085L35.1155 80.1064L50.9134 78.9044L52.1155 63.1064Z" fill="url(#paint3_radial_948_5766)"/>
    <path opacity="0.1" d="M68.8469 192.264L68.8449 192.266L60.0145 201.363L60.0125 201.365L54.6155 206.887L49.2185 201.365L49.2165 201.363L40.386 192.266L40.384 192.264C37.1625 188.968 37.1625 183.719 40.384 180.423L40.384 180.423L40.3891 180.418C43.5356 177.142 48.6893 177.135 51.9031 180.423L52.4651 179.873L51.9031 180.423L54.0059 182.574L54.6155 183.198L55.2251 182.574L57.3279 180.423C60.5417 177.135 65.6953 177.142 68.8418 180.418L68.8418 180.418L68.8469 180.423C72.0685 183.719 72.0685 188.968 68.8469 192.264Z" stroke="#FF0199" stroke-width="1.70479"/>
    <path d="M14.5562 113.499C14.4525 114.313 14.6367 116.323 16.2028 117.855C17.7688 119.386 19.6773 119.561 20.4358 119.457" stroke="#0647C7" stroke-width="1.16549" stroke-linecap="round"/>
    <path d="M5.91357 122.571C6.74043 122.313 8.90801 122.072 10.9635 123.172C13.0189 124.272 13.7447 125.954 13.8506 126.658" stroke="#0647C7" stroke-width="1.16549" stroke-linecap="round"/>
    <path d="M6.30713 115.765C10.2858 117.533 15.6869 122.004 16.7362 122.939" stroke="#0647C7" stroke-width="1.16549" stroke-linecap="round"/>
    <defs>
        <linearGradient id="paint0_linear_948_5766" x1="138.844" y1="247.056" x2="263.229" y2="175.517" gradientUnits="userSpaceOnUse">
            <stop stop-color="#0F8AEF"/>
            <stop offset="0.37" stop-color="#3D8AE7"/>
            <stop offset="0.7" stop-color="#66B1FF"/>
        </linearGradient>
        <linearGradient id="paint1_linear_948_5766" x1="117.115" y1="210.608" x2="81.1155" y2="210.608" gradientUnits="userSpaceOnUse">
            <stop stop-color="#0F8AEF"/>
            <stop offset="0.58" stop-color="#408DE9"/>
            <stop offset="0.73" stop-color="#4390EA"/>
            <stop offset="0.85" stop-color="#4D99F0"/>
            <stop offset="0.96" stop-color="#5EAAFA"/>
            <stop offset="1" stop-color="#66B1FF"/>
        </linearGradient>
        <radialGradient id="paint2_radial_948_5766" cx="0" cy="0" r="1" gradientUnits="userSpaceOnUse" gradientTransform="translate(42.0591 66.3757) rotate(49.4615) scale(33.3223 46.0175)">
            <stop stop-color="#FF00D6"/>
            <stop offset="0.562168" stop-color="#FF004D"/>
            <stop offset="1" stop-color="#FF6291"/>
        </radialGradient>
        <radialGradient id="paint3_radial_948_5766" cx="0" cy="0" r="1" gradientUnits="userSpaceOnUse" gradientTransform="translate(52.1221 69.7867) rotate(136.73) scale(22.433 28.2393)">
            <stop stop-color="#FFE7AB"/>
            <stop offset="1" stop-color="#FABC22"/>
        </radialGradient>
        <clipPath id="clip0_948_5766">
            <rect width="247" height="223" fill="white" transform="translate(73.1155 1.10645)"/>
        </clipPath>
        <clipPath id="clip1_948_5766">
            <path d="M19.1152 27.1064H283.115V225.106H43.1152C29.8604 225.106 19.1152 214.361 19.1152 201.106V27.1064Z" fill="white"/>
        </clipPath>
    </defs>
</svg>
