<svg width="320" height="223" viewBox="0 0 320 223" fill="none" xmlns="http://www.w3.org/2000/svg">
<g clip-path="url(#clip0_100_2604)">
<g clip-path="url(#clip1_100_2604)">
<path d="M129.049 133.514C131.28 128.265 131.226 122.32 128.905 117.114C125.945 110.505 122.139 102.693 122.069 96.5503C121.835 74.649 138.69 67.7356 141.693 55.8512C141.693 55.8512 137.104 50.7571 138.158 46.851C139.755 40.9061 154.843 34.6187 159.986 36.2668C163.18 37.2835 164.091 40.9328 164.091 40.9328C179.61 37.0266 189.432 40.0874 194.548 41.3823C213.352 46.1553 223.478 56.0385 223.478 56.0385C226.231 53.759 227.077 53.149 228.435 53.4754C233.226 54.6366 243.017 64.0488 242.665 71.6685C242.452 76.3559 234.541 78.6247 234.541 78.6247C232.513 88.326 242.49 105.406 236.197 119.083C234.642 122.465 231.208 126.574 227.748 130.523C224.99 133.638 224.516 138.175 226.577 141.792C235.686 157.808 258.685 202.75 250.124 235L93.1396 232.988C93.1396 232.988 74.2718 194.354 129.044 133.541" fill="#66B1FF"/>
<path d="M133.166 178.826C154.671 160.175 174.04 180.494 175.597 182.194C177.471 180.836 200.608 164.822 217.842 187.381C230.531 203.994 224.066 229.141 215.995 247.193L125.368 248C119.588 228.874 114.3 195.188 133.166 178.826Z" fill="white"/>
<path d="M144.826 79.087C149.365 75.5408 177.095 81.8063 177.095 81.8063C177.095 81.8063 200.261 86.6565 205.229 95.8799C207.002 99.1823 209.863 108.204 206.291 112.365C202.007 117.353 184.235 132.233 171.33 130.918C159.652 129.683 138.467 104.017 138.032 97.327C137.639 91.2788 140.962 82.1191 144.842 79.0817" fill="white"/>
<path d="M162.611 45.7381C164.181 44.7181 169.517 42.1403 178.143 46.2536C179.938 47.111 181.253 50.8656 178.063 52.4627C175.284 53.8581 163.952 52.2218 162.259 51.1066C160.566 49.9914 160.481 47.1278 162.616 45.7381" fill="#0073E4"/>
<path d="M212.483 59.4903C211.527 57.9645 207.916 53.5051 198.407 53.0034C196.441 52.8959 193.621 55.3585 195.773 58.072C197.648 60.4374 208.466 64.1441 210.464 63.9957C212.462 63.8472 213.776 61.5587 212.488 59.4903" fill="#0073E4"/>
<path d="M172.367 78.7015C172.367 78.7015 189.917 83.221 187.827 88.6116C185.737 94.0023 173.626 100.373 167.292 98.7395C158.854 96.5615 153.325 85.6712 154.066 79.9157C154.807 74.1603 172.351 78.7015 172.351 78.7015" fill="#0073E4"/>
<path d="M194.004 100.388C186.043 106.24 174.533 113.736 153.59 101.744C152.386 101.053 152.15 103.205 161.717 112.312C167.349 117.672 173.163 120.881 177.671 119.787C182.617 118.588 185.572 114.291 188.046 111.197C194.374 103.283 196.451 98.5827 193.999 100.383" fill="#143860"/>
<path d="M189.193 74.2407C188.237 78.5503 190.922 82.8217 195.185 83.7872C195.201 83.7872 195.217 83.7927 195.239 83.7982C199.528 84.7801 203.802 82.0853 204.807 77.7593C205.763 73.4497 203.078 69.1783 198.815 68.2128C198.799 68.2128 198.783 68.2073 198.761 68.2018C194.472 67.2199 190.198 69.9147 189.193 74.2407Z" fill="white"/>
<path d="M156.192 65.2502C155.24 69.5604 157.927 73.8324 162.199 74.7927C162.209 74.7927 162.22 74.7927 162.231 74.7981C166.524 75.7802 170.801 73.085 171.807 68.7584C172.764 64.4482 170.076 60.1762 165.81 59.2105C165.794 59.2105 165.778 59.2051 165.756 59.1996C161.463 58.223 157.192 60.9237 156.192 65.2502Z" fill="white"/>
<path d="M160.514 175.689L158.847 175.973C157.881 176.141 156.957 175.504 156.781 174.546L155.008 163.563C154.838 162.61 157.403 162.189 157.403 162.189C158.666 161.852 159.452 161.904 159.622 162.857L161.974 173.683C162.139 174.636 161.496 175.541 160.53 175.71H160.519" fill="#F4901E"/>
<path d="M108.805 154.145L108.901 154.454C109.281 155.683 108.531 156.968 107.235 157.328C107.23 157.328 107.225 157.328 107.214 157.333L101.446 158.906C100.133 159.265 98.7623 158.562 98.3659 157.328L98.2694 157.019C97.8838 155.789 97.7338 154.934 99.0728 154.575L106.052 152.065C107.369 151.706 108.398 152.89 108.783 154.125" fill="#F4901E"/>
<path d="M118.398 247.358C128.954 248.754 156.459 247.438 156.459 247.438C162.116 246.82 167.511 244.24 166.961 236.741C165.574 217.708 161.737 187.658 155.183 156.75C153.513 148.867 151.688 144.405 141.084 146.527C129.669 148.813 111.066 152.278 100.82 156.403C94.4533 158.967 93.1084 161.573 94.4959 169.685C97.89 189.481 103.269 221.668 109.492 240.839C111.061 245.668 113.387 246.702 118.393 247.353" fill="#FFBC00"/>
<path d="M143.937 175.877L147.49 175.387C149.849 174.834 151.36 172.521 150.926 170.133L148.333 156.353C147.908 154.119 145.766 152.652 143.539 153.072C143.417 153.093 143.29 153.125 143.168 153.162L139.128 154.226C136.795 154.853 135.628 156.741 136.105 159.087L138.889 172.686C139.35 174.93 141.535 176.377 143.773 175.914C143.826 175.903 143.884 175.893 143.937 175.877Z" fill="#F4901E"/>
<path d="M137.622 157.063C136.435 158.844 136.999 161.196 138.875 162.32C138.978 162.382 139.087 162.438 139.195 162.489C141.364 163.562 144.043 162.895 145.372 160.949C146.565 159.173 146.007 156.822 144.13 155.692C144.005 155.615 143.875 155.548 143.745 155.487C141.57 154.439 138.908 155.132 137.601 157.083" fill="#333333"/>
<path d="M140.086 170.507C140.668 172.932 143.059 174.433 145.466 173.888C147.846 173.315 149.368 170.952 148.923 168.516C148.351 166.063 145.922 164.544 143.498 165.123H143.488C141.124 165.718 139.629 168.076 140.08 170.501" fill="#333333"/>
<path d="M118 195.405C117.948 200.651 122.159 204.947 127.405 205C132.651 205.052 136.947 200.841 137 195.595C137.052 190.349 132.841 186.053 127.595 186C127.563 186 127.532 186 127.5 186C122.281 185.979 118.032 190.185 118 195.405Z" fill="#F4901E"/>
<path d="M127.386 226.143C121.067 216.43 126.114 212.129 126.114 212.129C126.114 212.129 116.995 203.441 121.03 195.838C124.453 189.389 130.404 192.13 130.404 192.13C125.736 187.322 121.579 182.091 128.078 176.304C135.7 169.519 149.529 179.938 159.483 187.68L158.084 178.693C156.684 167.692 166.068 166.03 169.677 167.611C174.547 169.749 177.129 174.119 177.736 183.362C177.938 186.141 178.806 188.828 180.264 191.195C181.952 193.979 183.378 196.912 184.523 199.958C196.819 211.178 230.63 208.437 238.024 201.101C239.871 199.268 240.568 196.731 238.519 191.58C232.994 177.688 225.792 139 225.792 139C273.608 186.964 290.29 206.92 278.223 232.86C265.251 260.755 216.982 270.586 165.765 253.697C165.765 253.686 140.502 246.308 127.386 226.143Z" fill="url(#paint0_linear_100_2604)"/>
<path d="M127 192C127.87 192.041 128.724 192.225 129.531 192.542C128.851 191.862 137.034 198.852 142.608 201.615C143.499 202.055 142.713 203.35 141.822 202.91C136.259 200.152 131.239 196.457 127.005 192" fill="#66B1FF"/>
<path d="M125.005 213.272C125.257 212.798 125.584 212.372 125.97 212C130.994 217.517 136.967 222.104 143.605 225.556C144.506 226.025 143.707 227.371 142.801 226.903C136.109 223.423 130.088 218.815 125 213.277" fill="#66B1FF"/>
<path d="M107.116 180.582C110.412 186.639 106.473 192.107 102.129 195.873C106.329 193.806 111.109 192.882 113.331 197.534C116.362 203.884 114.134 208.829 107.169 214.218C110.258 212.674 113.98 212.028 115.862 216.253C120.514 226.699 109.402 234.817 109.402 234.817C108.131 240.157 103.224 242.021 98.9813 242C84.9345 241.941 80.963 226.79 81.0003 212.29C81.0428 196.209 84.1051 189.784 86.2478 186.179C88.4595 182.441 95.5042 177.004 101.135 177.004C103.655 176.913 105.994 178.313 107.116 180.582Z" fill="url(#paint1_linear_100_2604)"/>
<path d="M96.259 198.598C99.1466 195.915 102.434 193.693 106 192C104.99 193.273 103.854 194.447 102.608 195.501C102.902 195.359 99.1623 198.011 97.2478 199.798C96.5167 200.479 95.5279 199.274 96.2537 198.614" fill="#66B1FF"/>
<path d="M100.587 216.583C102.988 216.02 105.305 215.167 107.482 214.054C108.579 213.51 109.769 213.152 111 213C108.101 215.397 104.63 217.103 100.884 217.976C99.9225 218.201 99.6314 216.789 100.587 216.569" fill="#66B1FF"/>
<path d="M185 112.092C185 112.092 171.767 110.987 168.034 116.447C167.606 117.078 171.313 119.352 175.559 118.953C176.76 118.84 179.82 117.784 182.154 115.401" fill="#ED7865"/>
<mask id="mask0_100_2604" style="mask-type:luminance" maskUnits="userSpaceOnUse" x="189" y="68" width="16" height="16">
<path d="M189.193 74.2407C188.237 78.5503 190.922 82.8217 195.185 83.7872C195.201 83.7872 195.217 83.7927 195.239 83.7982C199.528 84.7801 203.802 82.0853 204.807 77.7593C205.763 73.4497 203.078 69.1783 198.815 68.2128C198.799 68.2128 198.783 68.2073 198.761 68.2018C194.472 67.2199 190.198 69.9147 189.193 74.2407Z" fill="white"/>
</mask>
<g mask="url(#mask0_100_2604)">
<path d="M202 78C202 81.3119 199.312 84 196 84C192.688 84 190 81.3119 190 78C190 74.6881 192.688 72 196 72C199.312 72 202 74.6881 202 78Z" fill="#333333"/>
</g>
<mask id="mask1_100_2604" style="mask-type:luminance" maskUnits="userSpaceOnUse" x="156" y="59" width="16" height="16">
<path d="M156.192 65.2502C155.24 69.5604 157.927 73.8324 162.199 74.7927C162.209 74.7927 162.22 74.7927 162.231 74.7981C166.524 75.7802 170.801 73.085 171.807 68.7584C172.764 64.4482 170.076 60.1762 165.81 59.2105C165.794 59.2105 165.778 59.2051 165.756 59.1996C161.463 58.223 157.192 60.9237 156.192 65.2502Z" fill="white"/>
</mask>
<g mask="url(#mask1_100_2604)">
<path d="M169 69C169 72.3133 166.537 75 163.5 75C160.463 75 158 72.3133 158 69C158 65.6867 160.463 63 163.5 63C166.537 63 169 65.6867 169 69Z" fill="#333333"/>
</g>
<path d="M204 85.4158C204 85.4158 196.994 79.5684 186 79V82.6316L201.862 90L204 85.4158Z" fill="#66B1FF"/>
<path d="M172 75.498C172 75.498 163.715 70.4911 152 72.4577L154.385 76.169L171.393 77L172 75.498Z" fill="#66B1FF"/>
</g>
<path d="M144 140C143.889 139.187 143.191 137.293 141.282 136.219C139.373 135.145 137.484 135.47 136.779 135.767" stroke="#0647C7" stroke-width="1.16549" stroke-linecap="round"/>
<path d="M150 129C149.268 129.463 147.237 130.257 144.967 129.727C142.697 129.197 141.56 127.759 141.276 127.107" stroke="#0647C7" stroke-width="1.16549" stroke-linecap="round"/>
<path d="M145 134C141.294 132.648 140.706 132.076 139.451 131.445" stroke="#0647C7" stroke-width="1.16549" stroke-linecap="round"/>
<path d="M153 136C149.155 135.12 148.5 134.627 147.176 134.157" stroke="#0647C7" stroke-width="1.16549" stroke-linecap="round"/>
</g>
<path d="M70.7294 107.537C88.7232 103.498 117.535 96.5078 126.578 99.703C135.621 102.898 140.3 122.065 136.273 129.777C133.255 135.557 129.637 137.523 75.7728 149.109C38.7611 157.07 33.3295 157.407 26.0874 154.35C18.8453 151.294 13.4606 133.116 19.3752 125.366C27.594 114.601 53.7494 111.348 70.7294 107.537Z" fill="#0647C7"/>
<path d="M39.6039 125.995C39.5567 125.782 39.5928 125.586 39.7122 125.408C39.8385 125.229 40.0117 125.115 40.2318 125.066C40.4106 125.027 40.5802 125.043 40.7405 125.116C40.8994 125.182 41.065 125.311 41.2375 125.504L43.6343 128.124L44.227 124.833C44.2747 124.592 44.3498 124.41 44.4523 124.286C44.5548 124.162 44.7058 124.079 44.9052 124.035C45.1047 123.991 45.2861 124.012 45.4495 124.098C45.6114 124.178 45.7159 124.324 45.763 124.538C45.7904 124.661 45.7868 124.825 45.7522 125.027L44.7737 129.949C44.6423 130.628 44.445 131.154 44.1818 131.53C43.917 131.898 43.5336 132.138 43.0315 132.249C42.9009 132.278 42.7561 132.292 42.5971 132.291C42.4107 132.296 42.2362 132.241 42.0736 132.125C41.911 132.01 41.8084 131.855 41.7658 131.663C41.7461 131.573 41.7454 131.473 41.7639 131.36C41.8023 131.143 41.9064 130.994 42.0761 130.913C42.2511 130.824 42.4487 130.755 42.6688 130.706C42.8064 130.676 42.9138 130.623 42.991 130.549C43.0683 130.474 43.1238 130.35 43.1576 130.176L43.2026 129.939L39.8681 126.456C39.7269 126.307 39.6388 126.153 39.6039 125.995ZM48.5887 125.515C48.648 125.783 48.7234 125.994 48.815 126.147C48.9049 126.293 49.0045 126.401 49.1137 126.47C49.2298 126.539 49.3535 126.576 49.4849 126.583C49.6148 126.583 49.7451 126.569 49.8757 126.54C50.0821 126.495 50.267 126.418 50.4307 126.309C50.6012 126.2 50.756 126.068 50.8952 125.915L50.3912 123.635C50.3441 123.422 50.3795 123.223 50.4973 123.038C50.6221 122.852 50.8048 122.732 51.0455 122.679C51.2862 122.626 51.499 122.658 51.6837 122.776C51.8754 122.893 51.9948 123.057 52.0419 123.271L53.3418 129.151C53.389 129.364 53.3502 129.564 53.2254 129.75C53.1076 129.935 52.9283 130.053 52.6875 130.107C52.4468 130.16 52.2306 130.128 52.039 130.012C51.8542 129.894 51.7383 129.728 51.6912 129.515L51.2282 127.421C51.1027 127.571 50.9184 127.717 50.6753 127.857C50.4391 127.995 50.1387 128.105 49.7742 128.186C49.5128 128.243 49.2397 128.264 48.9547 128.247C48.6766 128.229 48.4112 128.155 48.1585 128.023C47.9126 127.89 47.689 127.694 47.4876 127.435C47.2915 127.168 47.1448 126.815 47.0475 126.375L46.6256 124.466C46.5785 124.253 46.6139 124.054 46.7317 123.869C46.8565 123.683 47.0392 123.563 47.2799 123.51C47.5206 123.457 47.7334 123.49 47.9181 123.607C48.1098 123.724 48.2292 123.889 48.2763 124.102L48.5887 125.515ZM59.1444 126.983L56.2867 127.613L56.0951 128.803C56.0682 128.974 56 129.123 55.8906 129.248C55.7812 129.373 55.6303 129.457 55.4377 129.499C55.2245 129.547 55.0331 129.513 54.8636 129.399C54.701 129.283 54.5984 129.129 54.5559 128.937C54.53 128.82 54.5259 128.72 54.5436 128.637L55.6254 122.469C55.6685 122.207 55.7581 121.992 55.8943 121.825C56.0289 121.651 56.2235 121.536 56.478 121.48C56.7393 121.422 56.9601 121.442 57.1403 121.539C57.3205 121.636 57.4888 121.794 57.6452 122.012L61.198 127.07C61.262 127.164 61.3055 127.263 61.3283 127.366C61.3754 127.579 61.3408 127.782 61.2245 127.973C61.1081 128.165 60.933 128.286 60.6992 128.338C60.5135 128.379 60.3412 128.367 60.1824 128.301C60.0304 128.233 59.906 128.127 59.8091 127.983L59.1444 126.983ZM56.9271 123.707L56.5636 125.929L58.1833 125.572L56.9271 123.707ZM65.7203 121.268C65.6034 121.294 65.4632 121.296 65.2997 121.274C65.1889 121.263 65.0583 121.259 64.9078 121.263C64.7641 121.266 64.5995 121.288 64.4138 121.329C64.1318 121.391 63.8776 121.498 63.6513 121.649C63.4304 121.792 63.2476 121.976 63.1029 122.203C62.9651 122.428 62.8716 122.69 62.8224 122.99C62.7785 123.281 62.7961 123.605 62.8752 123.963C62.9466 124.286 63.0636 124.57 63.2261 124.816C63.3939 125.053 63.5961 125.25 63.8328 125.407C64.0679 125.557 64.3318 125.657 64.6244 125.708C64.9154 125.752 65.2226 125.738 65.5458 125.667C65.8416 125.601 66.106 125.493 66.3392 125.34C66.4891 125.235 66.6431 125.165 66.8013 125.13C66.932 125.101 67.0515 125.104 67.16 125.137C67.2753 125.17 67.3818 125.243 67.4795 125.359C67.5688 125.469 67.6263 125.583 67.6522 125.699C67.7191 126.002 67.603 126.277 67.304 126.523C67.122 126.678 66.8968 126.818 66.6285 126.942C66.3617 127.074 66.0633 127.175 65.7331 127.248C65.176 127.371 64.6439 127.395 64.1367 127.319C63.6363 127.242 63.1819 127.079 62.7734 126.831C62.3703 126.573 62.0257 126.238 61.7397 125.825C61.4521 125.406 61.246 124.914 61.1213 124.35C61.0073 123.834 60.9792 123.332 61.0371 122.843C61.1018 122.352 61.2551 121.904 61.497 121.497C61.7388 121.09 62.0723 120.739 62.4975 120.443C62.9279 120.139 63.4527 119.918 64.0717 119.782C64.3881 119.712 64.6803 119.68 64.9485 119.686C65.2151 119.684 65.4256 119.707 65.5799 119.752C65.987 119.864 66.2217 120.061 66.284 120.343C66.3129 120.474 66.3074 120.612 66.2675 120.758C66.1778 121.037 65.9954 121.207 65.7203 121.268ZM71.8478 125.065C71.895 125.279 71.8562 125.478 71.7314 125.665C71.6136 125.849 71.4343 125.968 71.1935 126.021C70.9528 126.074 70.7366 126.043 70.545 125.926C70.3602 125.809 70.2443 125.643 70.1972 125.43L69.0911 120.427L67.6983 120.734C67.4851 120.781 67.2861 120.746 67.1014 120.628C66.9166 120.51 66.8007 120.344 66.7535 120.131C66.7064 119.918 66.7418 119.719 66.8596 119.534C66.9775 119.35 67.143 119.234 67.3562 119.187L71.7924 118.207C72.0056 118.16 72.2046 118.196 72.3894 118.314C72.5741 118.431 72.6901 118.597 72.7372 118.81C72.7843 119.023 72.749 119.222 72.6311 119.407C72.5133 119.592 72.3477 119.708 72.1345 119.755L70.7417 120.062L71.8478 125.065ZM75.7718 117.286C76.2051 117.19 76.5837 117.157 76.9076 117.186C77.2369 117.207 77.5161 117.279 77.7451 117.402C77.9796 117.516 78.1658 117.673 78.3039 117.873C78.4419 118.074 78.5383 118.298 78.5931 118.545C78.6767 118.924 78.6752 119.259 78.5885 119.553C78.5087 119.844 78.3545 120.109 78.1258 120.347C78.2686 120.373 78.4118 120.417 78.5554 120.479C78.699 120.542 78.8341 120.631 78.9608 120.747C79.0875 120.863 79.1989 121.008 79.295 121.182C79.3964 121.347 79.4729 121.546 79.5246 121.78C79.6083 122.158 79.6125 122.504 79.5372 122.816C79.4605 123.122 79.3189 123.394 79.1123 123.635C78.9058 123.875 78.6439 124.077 78.3266 124.241C78.0162 124.403 77.665 124.528 77.273 124.614C77.0735 124.658 76.8596 124.702 76.6311 124.745C76.4041 124.795 76.1833 124.84 75.9685 124.881C75.8654 124.903 75.7603 124.901 75.6534 124.874C75.5533 124.846 75.4579 124.806 75.367 124.754C75.2815 124.693 75.2082 124.623 75.1472 124.543C75.0847 124.455 75.042 124.36 75.0192 124.257L73.7671 118.594C73.72 118.38 73.7554 118.181 73.8732 117.997C73.9896 117.805 74.1536 117.682 74.3653 117.628C74.5823 117.566 74.8147 117.508 75.0623 117.453C75.3083 117.391 75.5449 117.336 75.7718 117.286ZM76.4942 123.098C76.5523 123.1 76.6207 123.099 76.6994 123.096C76.785 123.092 76.9068 123.072 77.065 123.037C77.3883 122.966 77.6153 122.851 77.7462 122.692C77.8755 122.527 77.9143 122.327 77.8626 122.093C77.8154 121.88 77.7201 121.742 77.5765 121.68C77.4398 121.617 77.2771 121.566 77.0885 121.528L77.0094 121.513C76.8735 121.486 76.7432 121.435 76.6188 121.361C76.4997 121.28 76.4189 121.142 76.3763 120.95C76.3322 120.75 76.3519 120.594 76.4353 120.482C76.524 120.362 76.6193 120.254 76.721 120.16L76.7841 120.102C76.8751 120.025 76.952 119.932 77.0147 119.824C77.0775 119.717 77.083 119.546 77.0313 119.312C76.9827 119.092 76.8644 118.949 76.6766 118.882C76.4872 118.808 76.2927 118.793 76.0933 118.837C75.9901 118.86 75.9015 118.883 75.8273 118.907C75.7601 118.929 75.6798 118.958 75.5866 118.993L76.4942 123.098ZM84.9069 123.016C84.3567 123.137 83.8287 123.163 83.323 123.095C82.8173 123.026 82.3568 122.868 81.9414 122.621C81.5261 122.373 81.1712 122.041 80.8768 121.622C80.5823 121.204 80.3712 120.706 80.2435 120.128C80.128 119.606 80.1129 119.097 80.1982 118.602C80.2836 118.107 80.4541 117.655 80.7097 117.245C80.9722 116.834 81.316 116.48 81.7412 116.184C82.1732 115.887 82.678 115.674 83.2558 115.547C83.806 115.425 84.3339 115.399 84.8396 115.468C85.3453 115.536 85.8059 115.694 86.2212 115.942C86.6366 116.189 86.9915 116.522 87.2859 116.94C87.5804 117.358 87.7914 117.856 87.9192 118.434C88.0408 118.984 88.0562 119.511 87.9655 120.014C87.8733 120.511 87.6917 120.962 87.4208 121.368C87.1499 121.774 86.8011 122.121 86.3745 122.41C85.9463 122.692 85.4571 122.894 84.9069 123.016ZM83.5978 117.094C83.2952 117.161 83.0281 117.274 82.7964 117.433C82.5647 117.593 82.3773 117.789 82.2342 118.023C82.0911 118.256 81.9976 118.519 81.9537 118.81C81.9098 119.101 81.9244 119.411 81.9974 119.741C82.0658 120.051 82.1847 120.327 82.354 120.571C82.5233 120.815 82.7229 121.016 82.9527 121.175C83.181 121.327 83.4345 121.429 83.7133 121.483C83.9921 121.537 84.276 121.532 84.5648 121.468C84.9087 121.392 85.1957 121.271 85.4259 121.105C85.6614 120.93 85.8438 120.728 85.9732 120.497C86.1079 120.258 86.1904 119.995 86.2205 119.707C86.2506 119.419 86.2322 119.124 86.1653 118.821C86.0923 118.491 85.9712 118.204 85.8018 117.96C85.6394 117.715 85.4406 117.517 85.2054 117.367C84.9771 117.215 84.7244 117.116 84.4471 117.069C84.1698 117.022 83.8867 117.03 83.5978 117.094ZM90.6424 114.003C91.0757 113.907 91.4543 113.874 91.7782 113.903C92.1075 113.925 92.3866 113.996 92.6157 114.119C92.8501 114.233 93.0364 114.39 93.1744 114.591C93.3125 114.791 93.4089 115.015 93.4636 115.263C93.5473 115.641 93.5457 115.977 93.4591 116.27C93.3793 116.561 93.2251 116.826 92.9964 117.064C93.1392 117.091 93.2824 117.135 93.426 117.197C93.5695 117.259 93.7047 117.348 93.8314 117.464C93.9581 117.581 94.0694 117.725 94.1655 117.899C94.2669 118.064 94.3435 118.264 94.3952 118.497C94.4788 118.876 94.483 119.221 94.4078 119.533C94.3311 119.839 94.1894 120.112 93.9829 120.352C93.7763 120.592 93.5144 120.794 93.1972 120.958C92.8868 121.121 92.5356 121.245 92.1436 121.332C91.9441 121.376 91.7301 121.419 91.5017 121.462C91.2747 121.513 91.0538 121.558 90.8391 121.598C90.7359 121.621 90.6309 121.619 90.524 121.592C90.4239 121.563 90.3284 121.523 90.2376 121.471C90.1521 121.411 90.0788 121.34 90.0178 121.26C89.9552 121.173 89.9125 121.078 89.8897 120.974L88.6377 115.311C88.5906 115.098 88.6259 114.899 88.7438 114.714C88.8601 114.522 89.0242 114.4 89.2358 114.346C89.4529 114.283 89.6852 114.225 89.9328 114.17C90.1789 114.109 90.4154 114.053 90.6424 114.003ZM91.3648 119.816C91.4229 119.817 91.4913 119.817 91.57 119.814C91.6555 119.809 91.7774 119.789 91.9356 119.755C92.2589 119.683 92.4859 119.568 92.6167 119.409C92.746 119.244 92.7848 119.044 92.7331 118.81C92.686 118.597 92.5906 118.459 92.4471 118.397C92.3104 118.334 92.1477 118.283 91.959 118.245L91.88 118.23C91.744 118.203 91.6138 118.152 91.4894 118.079C91.3703 117.997 91.2894 117.86 91.2469 117.667C91.2028 117.467 91.2224 117.312 91.3058 117.2C91.3946 117.079 91.4898 116.971 91.5915 116.877L91.6546 116.82C91.7456 116.742 91.8225 116.649 91.8853 116.541C91.9481 116.434 91.9536 116.263 91.9019 116.029C91.8533 115.809 91.735 115.666 91.5471 115.599C91.3577 115.525 91.1633 115.511 90.9638 115.555C90.8607 115.577 90.772 115.601 90.6979 115.624C90.6306 115.646 90.5504 115.675 90.4571 115.71L91.3648 119.816ZM100.23 117.913L97.3722 118.544L97.1806 119.733C97.1537 119.905 97.0855 120.053 96.9761 120.178C96.8667 120.303 96.7157 120.387 96.5232 120.43C96.3099 120.477 96.1186 120.443 95.9491 120.329C95.7865 120.214 95.6839 120.06 95.6413 119.867C95.6155 119.75 95.6114 119.65 95.6291 119.567L96.7109 113.399C96.754 113.137 96.8436 112.922 96.9798 112.755C97.1144 112.581 97.309 112.466 97.5635 112.41C97.8248 112.352 98.0456 112.372 98.2258 112.469C98.406 112.567 98.5743 112.724 98.7307 112.942L102.283 118C102.348 118.094 102.391 118.193 102.414 118.296C102.461 118.509 102.426 118.712 102.31 118.903C102.194 119.095 102.019 119.217 101.785 119.268C101.599 119.309 101.427 119.297 101.268 119.231C101.116 119.163 100.991 119.057 100.895 118.913L100.23 117.913ZM98.0125 114.637L97.6491 116.86L99.2688 116.502L98.0125 114.637ZM106.062 117.512C106.109 117.726 106.071 117.925 105.946 118.111C105.828 118.296 105.649 118.415 105.408 118.468C105.167 118.521 104.951 118.49 104.759 118.373C104.575 118.256 104.459 118.09 104.412 117.877L103.305 112.873L101.913 113.181C101.699 113.228 101.501 113.193 101.316 113.075C101.131 112.957 101.015 112.791 100.968 112.578C100.921 112.365 100.956 112.166 101.074 111.981C101.192 111.797 101.357 111.681 101.571 111.634L106.007 110.654C106.22 110.607 106.419 110.643 106.604 110.76C106.789 110.878 106.904 111.044 106.952 111.257C106.999 111.47 106.963 111.669 106.846 111.854C106.728 112.039 106.562 112.155 106.349 112.202L104.956 112.509L106.062 117.512ZM110.709 115.545C110.808 115.538 110.896 115.529 110.973 115.519C111.051 115.51 111.127 115.496 111.203 115.48C111.54 115.405 111.795 115.27 111.967 115.073C112.147 114.874 112.197 114.593 112.116 114.228C112.078 114.056 112.015 113.919 111.928 113.816C111.845 113.704 111.745 113.625 111.626 113.579C111.507 113.526 111.375 113.501 111.231 113.504C111.086 113.5 110.938 113.515 110.786 113.548C110.718 113.563 110.644 113.587 110.564 113.619C110.49 113.643 110.403 113.673 110.303 113.709L110.709 115.545ZM111.349 117.07C111.149 117.114 110.949 117.155 110.748 117.192C110.549 117.236 110.359 117.278 110.181 117.317C109.959 117.359 109.757 117.324 109.573 117.213C109.395 117.094 109.282 116.924 109.234 116.704L107.956 110.927C107.909 110.714 107.945 110.515 108.063 110.33C108.187 110.144 108.37 110.024 108.611 109.971C108.851 109.918 109.064 109.95 109.249 110.068C109.441 110.185 109.56 110.35 109.607 110.563L109.958 112.151C110.086 112.109 110.204 112.072 110.313 112.041C110.421 112.01 110.513 111.986 110.589 111.969C111.057 111.866 111.475 111.835 111.845 111.876C112.215 111.917 112.533 112.019 112.8 112.184C113.073 112.34 113.298 112.557 113.475 112.836C113.65 113.107 113.779 113.429 113.861 113.8C113.946 114.185 113.956 114.554 113.89 114.908C113.829 115.253 113.693 115.568 113.482 115.853C113.277 116.136 112.996 116.382 112.639 116.591C112.281 116.8 111.851 116.959 111.349 117.07ZM51.139 136.036C51.5723 135.941 51.9509 135.908 52.2748 135.937C52.6041 135.958 52.8833 136.03 53.1123 136.153C53.3467 136.267 53.533 136.424 53.6711 136.624C53.8091 136.825 53.9055 137.049 53.9603 137.296C54.0439 137.674 54.0424 138.01 53.9557 138.303C53.8759 138.595 53.7217 138.86 53.493 139.098C53.6358 139.124 53.779 139.168 53.9226 139.23C54.0661 139.292 54.2013 139.382 54.328 139.498C54.4547 139.614 54.5661 139.759 54.6621 139.933C54.7636 140.098 54.8401 140.297 54.8918 140.531C54.9754 140.909 54.9796 141.255 54.9044 141.567C54.8277 141.872 54.686 142.145 54.4795 142.386C54.2729 142.626 54.011 142.828 53.6938 142.992C53.3834 143.154 53.0322 143.279 52.6402 143.365C52.4407 143.409 52.2268 143.453 51.9983 143.496C51.7713 143.546 51.5504 143.591 51.3357 143.631C51.2325 143.654 51.1275 143.652 51.0206 143.625C50.9205 143.597 50.8251 143.557 50.7342 143.505C50.6487 143.444 50.5754 143.374 50.5144 143.293C50.4518 143.206 50.4092 143.111 50.3864 143.008L49.1343 137.344C49.0872 137.131 49.1225 136.932 49.2404 136.748C49.3567 136.556 49.5208 136.433 49.7325 136.379C49.9495 136.317 50.1818 136.258 50.4294 136.204C50.6755 136.142 50.912 136.086 51.139 136.036ZM51.8614 141.849C51.9195 141.851 51.9879 141.85 52.0666 141.847C52.1521 141.843 52.274 141.823 52.4322 141.788C52.7555 141.717 52.9825 141.602 53.1133 141.443C53.2426 141.277 53.2814 141.078 53.2297 140.844C53.1826 140.631 53.0873 140.493 52.9437 140.431C52.807 140.367 52.6443 140.317 52.4557 140.279L52.3766 140.264C52.2406 140.236 52.1104 140.186 51.986 140.112C51.8669 140.03 51.786 139.893 51.7435 139.701C51.6994 139.501 51.719 139.345 51.8024 139.233C51.8912 139.113 51.9864 139.005 52.0882 138.91L52.1513 138.853C52.2423 138.775 52.3191 138.683 52.3819 138.575C52.4447 138.467 52.4502 138.297 52.3985 138.063C52.3499 137.843 52.2316 137.699 52.0437 137.633C51.8543 137.559 51.6599 137.544 51.4605 137.588C51.3573 137.611 51.2686 137.634 51.1945 137.658C51.1272 137.68 51.047 137.708 50.9537 137.743L51.8614 141.849ZM59.8813 138.12L60.4925 140.885C60.5397 141.098 60.5009 141.298 60.3761 141.484C60.2583 141.669 60.079 141.788 59.8382 141.841C59.5975 141.894 59.3813 141.863 59.1897 141.746C59.0049 141.628 58.889 141.463 58.8419 141.25L57.5419 135.369C57.4948 135.156 57.5302 134.957 57.648 134.773C57.7728 134.586 57.9555 134.467 58.1962 134.414C58.4369 134.36 58.6497 134.393 58.8344 134.511C59.0261 134.627 59.1455 134.792 59.1926 135.005L59.7399 137.481L61.1978 134.238C61.2943 134.022 61.3942 133.87 61.4975 133.782C61.6076 133.693 61.7417 133.631 61.8999 133.596C62.1475 133.541 62.345 133.57 62.4923 133.682C62.6381 133.786 62.7308 133.928 62.7703 134.107C62.8175 134.32 62.7912 134.528 62.6917 134.73L61.411 137.307L64.0157 139.545C64.1562 139.658 64.2477 139.811 64.2903 140.003C64.3359 140.21 64.3089 140.414 64.2094 140.616C64.1152 140.81 63.9443 140.935 63.6967 140.989C63.5179 141.029 63.3464 141.02 63.1822 140.962C63.0233 140.896 62.8363 140.768 62.621 140.578L59.8813 138.12ZM68.6866 139.909C68.1364 140.031 67.6084 140.057 67.1027 139.989C66.597 139.92 66.1365 139.762 65.7212 139.514C65.3058 139.267 64.9509 138.934 64.6565 138.516C64.362 138.098 64.151 137.6 64.0232 137.022C63.9077 136.499 63.8926 135.991 63.978 135.496C64.0633 135.001 64.2338 134.549 64.4894 134.139C64.752 133.727 65.0958 133.374 65.5209 133.078C65.9529 132.781 66.4578 132.568 67.0355 132.441C67.5857 132.319 68.1137 132.293 68.6194 132.361C69.1251 132.43 69.5856 132.588 70.0009 132.835C70.4163 133.083 70.7712 133.416 71.0656 133.834C71.3601 134.252 71.5712 134.75 71.6989 135.328C71.8205 135.878 71.836 136.405 71.7453 136.908C71.653 137.404 71.4715 137.856 71.2005 138.262C70.9296 138.668 70.5809 139.015 70.1542 139.304C69.7261 139.586 69.2369 139.788 68.6866 139.909ZM67.3776 133.988C67.075 134.055 66.8078 134.168 66.5761 134.327C66.3445 134.487 66.1571 134.683 66.0139 134.917C65.8708 135.15 65.7773 135.412 65.7334 135.703C65.6896 135.994 65.7041 136.305 65.7771 136.635C65.8455 136.944 65.9644 137.221 66.1337 137.465C66.3031 137.709 66.5026 137.91 66.7324 138.069C66.9607 138.22 67.2142 138.323 67.493 138.377C67.7718 138.431 68.0557 138.426 68.3445 138.362C68.6884 138.286 68.9755 138.165 69.2056 137.999C69.4411 137.824 69.6236 137.622 69.7529 137.391C69.8877 137.152 69.9701 136.889 70.0002 136.601C70.0303 136.313 70.0119 136.017 69.945 135.715C69.8721 135.385 69.7509 135.098 69.5816 134.854C69.4191 134.608 69.2203 134.411 68.9851 134.261C68.7569 134.109 68.5041 134.01 68.2268 133.963C67.9495 133.916 67.6664 133.924 67.3776 133.988ZM76.6738 131.146C76.6266 130.933 76.662 130.734 76.7799 130.549C76.9046 130.363 77.0873 130.243 77.3281 130.19C77.5688 130.137 77.7815 130.169 77.9663 130.287C78.1579 130.404 78.2773 130.568 78.3244 130.782L79.6244 136.662C79.6715 136.875 79.6327 137.075 79.508 137.261C79.3901 137.446 79.2108 137.564 78.9701 137.618C78.7294 137.671 78.5132 137.639 78.3215 137.523C78.1368 137.405 78.0208 137.239 77.9737 137.026L77.4788 134.787L74.8481 135.368L75.3429 137.607C75.3901 137.82 75.3513 138.02 75.2265 138.206C75.1087 138.391 74.9294 138.51 74.6887 138.563C74.4479 138.616 74.2318 138.584 74.0401 138.468C73.8554 138.35 73.7394 138.184 73.6923 137.971L72.3923 132.091C72.3452 131.878 72.3806 131.679 72.4984 131.494C72.6232 131.308 72.8059 131.188 73.0466 131.135C73.2874 131.082 73.5001 131.114 73.6849 131.232C73.8765 131.349 73.9959 131.513 74.043 131.727L74.506 133.821L77.1367 133.24L76.6738 131.146ZM82.5197 133.123L83.1309 135.888C83.178 136.101 83.1392 136.301 83.0144 136.487C82.8966 136.671 82.7173 136.79 82.4766 136.843C82.2358 136.897 82.0197 136.865 81.828 136.749C81.6433 136.631 81.5273 136.465 81.4802 136.252L80.1802 130.372C80.1331 130.159 80.1685 129.96 80.2863 129.775C80.4111 129.589 80.5938 129.469 80.8345 129.416C81.0753 129.363 81.288 129.395 81.4728 129.513C81.6644 129.629 81.7838 129.794 81.8309 130.007L82.3783 132.483L83.8362 129.24C83.9327 129.024 84.0325 128.872 84.1358 128.785C84.2459 128.695 84.38 128.633 84.5382 128.598C84.7858 128.544 84.9833 128.572 85.1306 128.684C85.2764 128.789 85.3691 128.931 85.4086 129.109C85.4558 129.323 85.4296 129.53 85.33 129.733L84.0493 132.309L86.6541 134.547C86.7945 134.66 86.886 134.813 86.9286 135.006C86.9742 135.212 86.9472 135.417 86.8477 135.619C86.7535 135.813 86.5826 135.937 86.335 135.992C86.1562 136.031 85.9847 136.022 85.8205 135.965C85.6616 135.899 85.4746 135.771 85.2594 135.58L82.5197 133.123ZM86.4727 128.961C86.4255 128.748 86.4617 128.552 86.581 128.375C86.7073 128.195 86.8805 128.081 87.1006 128.033C87.2794 127.993 87.449 128.01 87.6093 128.083C87.7682 128.149 87.9338 128.278 88.1063 128.471L90.5031 131.09L91.0958 127.8C91.1435 127.559 91.2186 127.376 91.3211 127.252C91.4236 127.129 91.5746 127.045 91.774 127.001C91.9735 126.957 92.1549 126.978 92.3183 127.065C92.4802 127.144 92.5847 127.291 92.6318 127.504C92.6592 127.628 92.6556 127.791 92.621 127.993L91.6426 132.916C91.5112 133.594 91.3138 134.121 91.0506 134.496C90.7858 134.865 90.4024 135.105 89.9003 135.215C89.7697 135.244 89.6249 135.258 89.466 135.257C89.2795 135.262 89.105 135.207 88.9424 135.092C88.7798 134.976 88.6772 134.822 88.6346 134.629C88.6149 134.54 88.6142 134.439 88.6327 134.327C88.6711 134.109 88.7752 133.96 88.9449 133.879C89.12 133.79 89.3175 133.721 89.5376 133.673C89.6752 133.642 89.7826 133.59 89.8598 133.515C89.9371 133.44 89.9926 133.316 90.0264 133.143L90.0714 132.906L86.7369 129.422C86.5957 129.273 86.5076 129.119 86.4727 128.961ZM96.249 133.803C96.0082 133.856 95.7921 133.825 95.6004 133.708C95.4157 133.59 95.2997 133.425 95.2526 133.212L93.9754 127.435C93.9268 127.215 93.9587 127.016 94.0712 126.84C94.1891 126.655 94.3573 126.535 94.5759 126.48C94.8304 126.424 95.0883 126.367 95.3496 126.309C95.6163 126.243 95.8357 126.191 96.0076 126.153C96.5578 126.032 97.0331 125.995 97.4334 126.044C97.8337 126.092 98.1724 126.205 98.4495 126.382C98.7252 126.552 98.943 126.771 99.1032 127.038C99.2702 127.305 99.3879 127.592 99.4563 127.902C99.5263 128.218 99.5424 128.536 99.5046 128.854C99.4653 129.166 99.3736 129.453 99.2297 129.715C99.0858 129.978 98.888 130.209 98.6365 130.409C98.3902 130.6 98.0917 130.735 97.741 130.812L97.6894 130.824C97.4624 130.874 97.2554 130.851 97.0683 130.755C96.8881 130.658 96.7706 130.485 96.7159 130.238C96.6673 130.018 96.6843 129.834 96.7669 129.686C96.8565 129.536 96.9682 129.421 97.102 129.341L97.1306 129.324C97.2071 129.278 97.287 129.232 97.3703 129.185C97.4536 129.137 97.5263 129.074 97.5883 128.996C97.6502 128.917 97.6939 128.821 97.7192 128.707C97.7446 128.593 97.7382 128.451 97.7002 128.279C97.6288 127.955 97.4873 127.756 97.2757 127.68C97.0642 127.604 96.8105 127.599 96.5148 127.664C96.4047 127.688 96.2989 127.715 96.1972 127.745C96.1009 127.766 95.9676 127.799 95.7972 127.844L96.9033 132.847C96.9504 133.06 96.9116 133.26 96.7868 133.446C96.669 133.631 96.4897 133.75 96.249 133.803ZM105.154 125.876C105.037 125.902 104.897 125.904 104.733 125.882C104.622 125.871 104.492 125.867 104.341 125.871C104.198 125.874 104.033 125.896 103.847 125.937C103.565 125.999 103.311 126.106 103.085 126.257C102.864 126.399 102.681 126.584 102.536 126.811C102.399 127.036 102.305 127.298 102.256 127.598C102.212 127.888 102.23 128.213 102.309 128.57C102.38 128.894 102.497 129.178 102.66 129.423C102.827 129.66 103.03 129.857 103.266 130.014C103.501 130.164 103.765 130.265 104.058 130.316C104.349 130.36 104.656 130.346 104.979 130.275C105.275 130.209 105.54 130.1 105.773 129.948C105.923 129.843 106.077 129.773 106.235 129.738C106.366 129.709 106.485 129.711 106.594 129.745C106.709 129.777 106.815 129.851 106.913 129.967C107.002 130.077 107.06 130.19 107.086 130.307C107.153 130.61 107.037 130.884 106.738 131.131C106.556 131.286 106.33 131.426 106.062 131.55C105.795 131.681 105.497 131.783 105.167 131.856C104.61 131.979 104.077 132.003 103.57 131.927C103.07 131.85 102.615 131.687 102.207 131.438C101.804 131.181 101.459 130.846 101.173 130.433C100.886 130.013 100.68 129.522 100.555 128.958C100.441 128.442 100.413 127.939 100.471 127.451C100.535 126.96 100.689 126.512 100.93 126.105C101.172 125.698 101.506 125.347 101.931 125.051C102.361 124.747 102.886 124.526 103.505 124.39C103.822 124.32 104.114 124.288 104.382 124.293C104.649 124.292 104.859 124.314 105.013 124.36C105.421 124.472 105.655 124.669 105.718 124.951C105.746 125.081 105.741 125.22 105.701 125.366C105.611 125.645 105.429 125.815 105.154 125.876ZM111.707 128.66C111.92 128.613 112.119 128.648 112.303 128.766C112.488 128.884 112.604 129.049 112.651 129.263C112.698 129.476 112.663 129.675 112.545 129.859C112.427 130.044 112.262 130.16 112.049 130.207L109.212 130.833C108.998 130.88 108.799 130.845 108.615 130.727C108.43 130.609 108.314 130.444 108.267 130.231L107.012 124.557C106.965 124.344 107.001 124.145 107.118 123.96C107.236 123.775 107.402 123.659 107.615 123.612L110.349 123.009C110.562 122.962 110.761 122.997 110.946 123.115C111.131 123.233 111.247 123.398 111.294 123.612C111.341 123.825 111.306 124.024 111.188 124.208C111.07 124.393 110.904 124.509 110.691 124.556L108.834 124.966L109.115 126.235L110.662 125.893C110.875 125.846 111.074 125.882 111.259 126C111.444 126.117 111.56 126.283 111.607 126.496C111.654 126.709 111.619 126.908 111.501 127.093C111.383 127.278 111.217 127.394 111.004 127.441L109.457 127.782L109.746 129.092L111.707 128.66Z" fill="white"/>
<path d="M49.9375 59L51.1396 74.7979L66.9375 76L51.1396 77.2021L49.9375 93L48.7354 77.2021L32.9375 76L48.7354 74.7979L49.9375 59Z" fill="url(#paint2_radial_100_2604)"/>
<path d="M49.9375 59L51.1396 74.7979L66.9375 76L51.1396 77.2021L49.9375 93L48.7354 77.2021L32.9375 76L48.7354 74.7979L49.9375 59Z" fill="url(#paint3_radial_100_2604)"/>
<path opacity="0.1" d="M66.669 188.158L66.6669 188.16L57.8365 197.256L57.8345 197.259L52.4375 202.78L47.0405 197.259L47.0385 197.256L38.2081 188.16L38.206 188.158C34.9845 184.862 34.9845 179.612 38.206 176.316L38.2061 176.316L38.2111 176.311C41.3577 173.036 46.5113 173.028 49.7251 176.316L50.2871 175.767L49.7251 176.316L51.8279 178.468L52.4375 179.092L53.0471 178.468L55.1499 176.316C58.3637 173.028 63.5173 173.036 66.6639 176.311L66.6638 176.311L66.669 176.316C69.8905 179.612 69.8905 184.862 66.669 188.158Z" stroke="#FF0199" stroke-width="1.70479"/>
<path d="M12.377 109.393C12.2733 110.206 12.4575 112.217 14.0236 113.748C15.5896 115.28 17.4981 115.455 18.2566 115.351" stroke="#0647C7" stroke-width="1.16549" stroke-linecap="round"/>
<path d="M3.73438 118.465C4.56123 118.207 6.72881 117.966 8.78426 119.065C10.8397 120.165 11.5655 121.848 11.6714 122.551" stroke="#0647C7" stroke-width="1.16549" stroke-linecap="round"/>
<path d="M4.12891 111.659C8.10762 113.427 13.5086 117.899 14.558 118.833" stroke="#0647C7" stroke-width="1.16549" stroke-linecap="round"/>
<defs>
<linearGradient id="paint0_linear_100_2604" x1="138.729" y1="245.95" x2="263.114" y2="174.41" gradientUnits="userSpaceOnUse">
<stop stop-color="#0F8AEF"/>
<stop offset="0.37" stop-color="#3D8AE7"/>
<stop offset="0.7" stop-color="#66B1FF"/>
</linearGradient>
<linearGradient id="paint1_linear_100_2604" x1="117" y1="209.502" x2="81.0003" y2="209.502" gradientUnits="userSpaceOnUse">
<stop stop-color="#0F8AEF"/>
<stop offset="0.58" stop-color="#408DE9"/>
<stop offset="0.73" stop-color="#4390EA"/>
<stop offset="0.85" stop-color="#4D99F0"/>
<stop offset="0.96" stop-color="#5EAAFA"/>
<stop offset="1" stop-color="#66B1FF"/>
</linearGradient>
<radialGradient id="paint2_radial_100_2604" cx="0" cy="0" r="1" gradientUnits="userSpaceOnUse" gradientTransform="translate(39.8812 62.2692) rotate(49.4615) scale(33.3223 46.0175)">
<stop stop-color="#FF00D6"/>
<stop offset="0.562168" stop-color="#FF004D"/>
<stop offset="1" stop-color="#FF6291"/>
</radialGradient>
<radialGradient id="paint3_radial_100_2604" cx="0" cy="0" r="1" gradientUnits="userSpaceOnUse" gradientTransform="translate(49.9442 65.6802) rotate(136.73) scale(22.433 28.2393)">
<stop stop-color="#FFE7AB"/>
<stop offset="1" stop-color="#FABC22"/>
</radialGradient>
<clipPath id="clip0_100_2604">
<rect width="247" height="223" fill="white" transform="translate(73)"/>
</clipPath>
<clipPath id="clip1_100_2604">
<path d="M19 26H283V224H43C29.7452 224 19 213.255 19 200V26Z" fill="white"/>
</clipPath>
</defs>
</svg>
