<svg width="351" height="210" viewBox="0 0 351 210" fill="none" xmlns="http://www.w3.org/2000/svg">
<g clip-path="url(#clip0_121_20518)">
<path d="M32.0292 119.449C31.4559 120.186 12.0625 189.861 12.0625 189.861L128.057 189.695L127.197 169.067L117.186 115.506L32.0338 119.454L32.0292 119.449Z" fill="#66B1FF"/>
<path d="M39.9834 136.39C56.3082 121.753 71.4823 137.161 72.7025 138.45C74.126 137.378 91.745 124.756 105.301 141.914C115.285 154.55 110.459 176.692 103.069 188.862H34.1366C29.4453 174.202 25.6643 149.225 39.9879 136.385" fill="white"/>
<path d="M110.74 116.675C110.74 116.675 46.756 126.971 42.4239 123.432C38.7338 120.421 22.2553 105.891 19.8213 101.979C12.7089 90.5565 25.9869 86.1621 22.4584 77.1435C22.4584 77.1435 17.1658 75.9438 16.0481 72.9514C14.3485 68.3961 21.1653 57.4928 25.2295 56.2195C27.7419 55.4335 30.0141 57.3595 30.0141 57.3595C38.2026 47.7893 45.9295 45.3025 49.8182 43.8086C64.1076 38.334 75.1549 40.0899 75.1549 40.0899C75.8799 37.3733 76.1431 36.5919 77.1684 36.1873C80.78 34.7578 91.4025 36.3758 94.677 41.4413C96.6906 44.5578 92.6542 49.6233 92.6542 49.6233C95.8086 56.7941 110.43 60.4301 112.666 72.101C113.525 76.5827 113.839 87.725 109.382 96.6885C102.773 109.987 110.745 116.675 110.745 116.675H110.74Z" fill="#66B1FF"/>
<path d="M34.6582 98.0023C38.6143 96.9007 41.1962 93.7627 40.4252 90.9934C39.6541 88.2242 35.8221 86.8724 31.8661 87.974C27.9101 89.0757 25.3282 92.2137 26.0992 94.9829C26.8702 97.7521 30.7022 99.104 34.6582 98.0023Z" fill="#FFB3DF"/>
<path d="M103.029 71.6802C106.016 69.5045 107.263 66.1261 105.812 64.1342C104.362 62.1423 100.764 62.2912 97.7768 64.4669C94.7891 66.6426 93.5428 70.021 94.9931 72.0129C96.4433 74.0048 100.041 73.8559 103.029 71.6802Z" fill="#FFB3DF"/>
<path d="M15.1586 119.799C15.1586 119.799 -21.7928 168.126 -2.36793 182.841C5.55611 188.848 11.0315 189.318 19.4095 188.613C27.0493 187.972 34.1846 178.346 39.614 168.001C44.9793 157.781 55.5032 126.24 48.2762 113.032C41.7141 101.042 29.3422 99.995 29.3422 99.995C29.3422 99.995 33.0748 93.3889 28.5166 90.0006C24.8664 87.2853 21.6748 89.3414 21.6748 89.3414L24.4215 88.7236C20.6108 80.0937 5.99644 86.2619 5.29941 100.521C4.64366 113.972 15.1539 119.799 15.1539 119.799H15.1586Z" fill="url(#paint0_linear_121_20518)"/>
<path d="M119.576 114.373C119.576 114.373 156.975 162.316 139.993 180.777C131.697 189.791 124.259 188.83 116.509 188.835C107.892 188.835 101.708 177.437 97.8007 168.377C92.2914 155.598 79.0417 119.889 86.3185 106.704C92.9205 94.7379 105.215 93.9571 105.215 93.9571C105.215 93.9571 101.556 87.2025 106.106 83.8807C109.751 81.2195 112.901 83.3679 112.901 83.3679L110.178 82.6841C114.026 74.0538 128.492 80.6051 129.08 95.0197C129.635 108.621 119.576 114.373 119.576 114.373Z" fill="url(#paint1_linear_121_20518)"/>
<path d="M89.2185 72.5508C85.5209 70.3066 65.5755 77.6233 65.5755 77.6233C65.5755 77.6233 46.7022 84.0433 46.0791 90.8542C45.8179 93.6779 44.6176 99.8864 46.8537 103.368C49.5983 107.645 71.3395 110.28 78.1437 107.254C84.728 104.398 97.8783 87.5569 97.5668 82.4797C97.2873 77.8855 92.38 74.4732 89.223 72.5508H89.2185Z" fill="white"/>
<path d="M38.2704 69.5252C38.7648 68.1815 40.8166 64.1458 47.7579 62.5031C49.1951 62.1612 51.6122 63.7565 50.4014 66.2017C49.3431 68.3382 41.875 72.7158 40.387 72.8582C38.8573 73.0006 37.6048 71.3484 38.2749 69.5252H38.2704Z" fill="#0E70E3"/>
<path d="M76.8474 53.6965C75.6186 53.0605 71.5058 51.525 65.3111 54.8959C64.0273 55.5955 63.266 58.3168 65.7374 59.2663C67.8925 60.0976 76.2376 58.3304 77.4297 57.4536C78.654 56.5541 78.5165 54.5506 76.8521 53.692L76.8474 53.6965Z" fill="#0E70E3"/>
<path d="M66.0159 78.1888C66.0159 78.1888 54.2468 82.9086 56.1446 86.493C58.0424 90.0773 67.0063 93.4459 71.2533 91.7428C76.9144 89.4721 79.7979 81.3509 78.7891 77.41C77.7803 73.4691 66.0114 78.1888 66.0114 78.1888H66.0159Z" fill="#0E70E3"/>
<path d="M57.2368 77.2448C54.7779 74.921 50.6811 73.0882 47.6927 75.4712C46.2029 76.6582 45.3726 78.5227 44.8118 80.31C44.5829 81.0422 45.7093 81.365 45.9381 80.6374C46.674 78.3135 48.092 75.5667 50.8157 75.5212C52.5163 75.4939 54.1315 76.3489 55.4956 77.3403C55.6347 77.4404 55.7694 77.545 55.904 77.6496C56.0252 77.7451 55.8591 77.6086 56.0072 77.7314C56.0521 77.7678 56.0925 77.8042 56.1374 77.8406C56.2271 77.9179 56.3168 77.9952 56.402 78.077C56.954 78.6 57.7931 77.7678 57.2412 77.2448H57.2368Z" fill="#0E70E3"/>
<path d="M83.0395 64.8117C79.6672 63.4935 75.0199 63.436 72.6064 66.3688C71.3926 67.8463 70.9533 69.7396 70.8069 71.5621C70.7455 72.3052 71.9829 72.314 72.0395 71.5753C72.2426 69.0804 73.2156 66.3423 75.9549 65.462C77.7497 64.8869 79.672 65.0772 81.4431 65.5372C81.8682 65.6478 82.2934 65.7672 82.6995 65.9265C83.4316 66.214 83.7668 65.0993 83.0395 64.8162V64.8117Z" fill="#0E70E3"/>
<path d="M51.6708 95.3964C53.3431 96.8201 55.3164 97.8649 57.3268 98.7247C59.9255 99.8387 62.6772 100.588 65.489 100.934C68.4999 101.304 71.6175 101.152 74.5312 100.269C77.7738 99.2886 80.6782 97.4165 82.9295 94.8925C85.9127 91.5504 87.7472 87.3392 88.896 83.0494C89.0721 82.393 89.2293 81.732 89.3776 81.0663C89.5443 80.3082 88.3817 79.9708 88.215 80.7335C87.2422 85.125 85.672 89.5072 82.8741 93.0851C80.8868 95.6321 78.2416 97.6661 75.1889 98.7755C72.4281 99.7833 69.4681 100.065 66.5498 99.8295C63.8214 99.6076 61.1299 98.9327 58.5822 97.9388C56.6273 97.1761 54.654 96.173 52.9354 94.874C52.7918 94.7677 52.9309 94.874 52.778 94.7538C52.6992 94.6891 52.6159 94.6198 52.5371 94.5551C51.9488 94.0512 51.0779 94.8925 51.6708 95.401V95.3964Z" fill="#0E70E3"/>
<path d="M91.4515 81.0308C90.1525 79.5946 88.1267 79.109 86.478 80.0239C85.5742 80.5248 84.8703 81.3681 84.2798 82.2677C84.089 82.559 84.2299 83.0139 84.4843 83.1826C84.784 83.3819 85.1065 83.2439 85.2973 82.9526C85.806 82.1859 86.4735 81.4295 87.2637 81.087C87.8542 80.8315 88.4311 80.8213 88.9625 80.9746C89.0942 81.0104 89.2259 81.0564 89.3531 81.1126C89.4166 81.1382 89.4849 81.1688 89.5484 81.1994C89.4258 81.1381 89.5894 81.2199 89.6121 81.2353C89.8119 81.3477 90.0026 81.4704 90.1843 81.6084C90.2569 81.6646 90.3296 81.7259 90.4023 81.7821C90.3296 81.7106 90.5294 81.8844 90.4023 81.7821C90.425 81.8026 90.4477 81.823 90.4659 81.8435C90.5113 81.8895 90.5567 81.9304 90.6021 81.9815C91.1471 82.5846 91.9965 81.6493 91.4515 81.0462V81.0308Z" fill="#0E70E3"/>
<path d="M54.5946 92.9438C54.007 92.9351 53.3914 93.0613 52.8457 93.2526C51.6424 93.6789 50.7189 94.4922 50.2758 95.6317C49.9214 96.5407 49.9401 97.5237 50.0706 98.4718C50.1126 98.7763 50.5277 98.9459 50.8169 98.8763C51.1713 98.7893 51.2927 98.4892 51.2507 98.1804C51.2041 97.8281 51.1854 97.4018 51.2134 97.0235C51.218 96.9278 51.2321 96.8321 51.2414 96.7364C51.2414 96.719 51.2554 96.6233 51.2414 96.7234C51.246 96.6886 51.2554 96.6538 51.2601 96.619C51.2927 96.4537 51.3347 96.2884 51.386 96.1275C51.4093 96.0536 51.4371 95.9753 51.4698 95.9013C51.4884 95.8579 51.5585 95.7143 51.5026 95.8274C51.5679 95.6969 51.6377 95.5708 51.7217 95.449C51.759 95.3925 51.8011 95.336 51.843 95.2794C51.8757 95.2359 51.9642 95.1402 51.8756 95.2359C51.9642 95.1402 52.0575 95.0446 52.1555 94.9532C52.2394 94.8749 52.3327 94.8053 52.426 94.7358C52.2814 94.8445 52.4539 94.7183 52.4866 94.6966C52.5379 94.6618 52.5891 94.6313 52.6451 94.6009C52.7383 94.5487 52.8365 94.5009 52.9297 94.453C52.981 94.4269 53.0369 94.4052 53.0882 94.3834C53.1115 94.3747 53.1303 94.366 53.1536 94.3573C53.2655 94.3095 53.0136 94.4008 53.1349 94.366C53.4894 94.2573 53.8297 94.1616 54.1982 94.1051C54.2121 94.1051 54.2262 94.1051 54.2448 94.1007C54.3614 94.0833 54.1795 94.1181 54.1701 94.1094C54.1841 94.1181 54.2681 94.1007 54.2867 94.0964C54.338 94.092 54.3895 94.0877 54.4455 94.0877C54.4968 94.0877 54.548 94.0833 54.5946 94.0877C55.3781 94.0964 55.392 92.9612 54.6085 92.9525L54.5946 92.9438Z" fill="#0E70E3"/>
</g>
<path d="M102.786 19.7022L94.1961 23.593L88.3638 26.2109L85.8809 20.3221L82.2477 11.6231C80.7827 8.14852 82.3568 4.15061 85.798 2.60595C89.1974 1.04483 93.1471 2.59852 94.6121 6.07312L95.4811 8.13402L97.5222 7.21783C100.963 5.67317 104.913 7.22686 106.336 10.685C107.801 14.1596 106.227 18.1575 102.786 19.7022Z" fill="#FF0199"/>
<path d="M111.297 39.401L107.185 42.4937L104.39 44.5809L102.397 41.7189L99.4702 37.4871C98.294 35.7985 98.6706 33.4726 100.32 32.2411C101.945 31.0057 104.219 31.3738 105.395 33.0624L106.093 34.064L107.071 33.3336C108.72 32.1021 110.995 32.4702 112.147 34.1549C113.323 35.8436 112.946 38.1695 111.297 39.401Z" fill="#FF0199"/>
<path d="M40.9643 30.8008L39.732 35.7956L38.8851 39.1787L35.5308 38.2203L30.5875 36.7898C28.6084 36.2243 27.43 34.1839 27.9297 32.1878C28.4082 30.2039 30.4038 29.0521 32.3829 29.6176L33.5568 29.953L33.8532 28.769C34.3529 26.7729 36.3484 25.6212 38.3064 26.1988C40.2855 26.7643 41.464 28.8047 40.9643 30.8008Z" fill="#FF0199"/>
<path d="M201.9 136.841L189.996 141.43L181.917 144.514L179.1 136.334L174.987 124.254C173.325 119.428 175.799 114.135 180.567 112.315C185.279 110.47 190.455 112.89 192.116 117.717L193.102 120.579L195.929 119.5C200.697 117.681 205.872 120.101 207.479 124.902C209.141 129.728 206.667 135.021 201.9 136.841Z" fill="#FF0199"/>
<path d="M334.333 189.184L302.236 201.558L280.45 209.874L272.856 187.818L261.765 155.244C257.285 142.231 263.955 127.957 276.81 123.051C289.516 118.076 303.472 124.603 307.952 137.616L310.61 145.335L318.235 142.425C331.089 137.519 345.045 144.046 349.377 156.99C353.858 170.004 347.188 184.277 334.333 189.184Z" fill="#FF0199"/>
<defs>
<linearGradient id="paint0_linear_121_20518" x1="46.0196" y1="112.414" x2="-19.6614" y2="164.711" gradientUnits="userSpaceOnUse">
<stop stop-color="#0F8AEF"/>
<stop offset="0.3" stop-color="#2B96F4"/>
<stop offset="0.83" stop-color="#66B1FF"/>
</linearGradient>
<linearGradient id="paint1_linear_121_20518" x1="84.5107" y1="107.979" x2="153.587" y2="163.604" gradientUnits="userSpaceOnUse">
<stop stop-color="#0F8AEF"/>
<stop offset="0.3" stop-color="#2B96F4"/>
<stop offset="0.83" stop-color="#66B1FF"/>
</linearGradient>
<clipPath id="clip0_121_20518">
<path d="M0 35.6895H152.429V188.862H18C8.05886 188.862 0 180.803 0 170.862V35.6895Z" fill="white"/>
</clipPath>
</defs>
</svg>
