<svg width="332" height="328" viewBox="0 0 332 328" fill="none" xmlns="http://www.w3.org/2000/svg">
<g clip-path="url(#clip0_94_6511)">
<path d="M170.085 219.744C161.37 212.203 149.258 210.178 139.059 214.716C136.017 216.068 131.851 220.229 132.737 223.752C134.167 229.422 140.217 232.756 140.217 232.756C139.094 229.488 133.884 223.447 128.976 227.239C120.078 234.107 129.804 245.344 134.435 246.087C119.632 280.137 87.2031 239.2 87.2031 239.2L102.959 287.194C133.86 311.173 155.324 304.521 175.357 251.996C175.357 251.996 178.854 244.721 178.186 234.831C177.755 228.498 174.635 223.682 170.089 219.748L170.085 219.744Z" fill="url(#paint0_linear_94_6511)"/>
<g filter="url(#filter0_dd_94_6511)">
<path d="M105.396 198.457C104.891 198.232 104.495 197.912 104.204 197.504C102.865 195.639 104.284 192.441 107.375 190.372C109.422 189.002 111.689 188.424 113.466 188.825L114.533 189.065L109.795 170.863C109.756 170.702 109.819 170.541 109.959 170.459C110.253 170.283 117.228 166.246 123.193 168.895C123.837 169.181 124.456 169.546 125.032 169.964C125.115 170.028 125.168 170.115 125.181 170.21C125.194 170.306 125.169 170.403 125.112 170.486C125.006 170.619 124.815 170.669 124.652 170.597C124.068 170.176 123.505 169.853 122.923 169.595C118.403 167.587 113.131 169.714 111.073 170.719L110.596 170.948L115.703 190.621C116.403 192.598 114.929 195.322 112.212 197.142C109.843 198.729 107.166 199.243 105.396 198.457ZM113.866 189.733C112.36 189.064 109.93 189.57 107.802 190.994C106.506 191.86 105.476 192.961 104.91 194.088C104.324 195.26 104.287 196.352 104.811 197.089C105.024 197.382 105.325 197.623 105.705 197.792C107.204 198.458 109.642 197.955 111.77 196.531C114.512 194.695 115.854 191.958 114.753 190.433C114.54 190.14 114.239 189.899 113.859 189.73L113.866 189.733Z" fill="#00FFBA"/>
</g>
<g clip-path="url(#clip1_94_6511)" filter="url(#filter1_d_94_6511)">
</g>
<path d="M97.8546 256.159L92.017 244.291C91.3749 239.885 99.4639 228.529 99.5452 220.77C99.7193 204.535 87.3129 199.413 85.1039 190.604C85.1039 190.604 88.4811 186.825 87.7074 183.933C86.5314 179.527 75.4288 174.869 71.6415 176.089C69.3011 176.844 68.6202 179.546 68.6202 179.546C57.1964 176.65 49.9661 178.919 46.202 179.879C32.3566 183.414 24.9019 190.728 24.9019 190.728C22.8748 189.04 22.2521 188.587 21.254 188.827C17.7298 189.687 10.5226 196.664 10.7818 202.313C10.9404 205.786 16.7625 207.482 16.7625 207.482C18.2558 214.676 10.9133 227.333 15.544 237.469C17.2268 241.151 21.8885 246.026 25.227 249.886C25.1264 251.528 24.0585 253.317 23.5092 254.997C1.83772 320.95 6.82826 360.152 6.82826 360.152C6.82826 360.152 30.9871 370.409 59.9933 370.413C93.104 370.417 113.739 359.61 113.739 359.61C113.739 359.61 118.215 316.741 97.8623 256.162L97.8546 256.159Z" fill="#66B1FF"/>
<path d="M16.5591 332.511C10.3343 302.433 23.8356 253.858 23.8356 253.858C23.8356 253.858 -19.2757 299.435 -17.6464 340.563C-17.4306 346.008 -14.8844 358.353 -6.71825 359.257C-6.71825 359.257 -2.09978 365.963 2.57652 362.352C2.57652 362.352 5.71594 367.895 10.4308 363.845C12.8536 361.763 12.7688 357.337 12.2565 353.947C12.6725 354.316 13.1464 354.572 13.6741 354.677C17.8997 355.526 22.861 347.73 16.8866 333.279C16.7749 333.007 16.6671 332.755 16.5554 332.515L16.5591 332.511Z" fill="url(#paint1_linear_94_6511)"/>
<path d="M91.6673 284.141C77.4603 269.409 61.8688 282.401 60.6088 283.492C59.3487 282.397 43.7611 269.409 29.5502 284.141C13.7798 300.492 28.1501 333.688 33.0504 341.507C37.9507 349.325 47.6463 362.014 60.7527 362.399C73.8552 362.014 83.2668 349.325 88.1671 341.507C93.0674 333.688 107.434 300.492 91.6673 284.141Z" fill="white"/>
</g>
<g clip-path="url(#clip2_94_6511)">
<path d="M170.087 219.552C161.372 212.01 149.26 209.985 139.061 214.524C136.019 215.875 131.853 220.037 132.739 223.559C134.169 229.23 140.219 232.564 140.219 232.564C139.096 229.295 133.886 223.255 128.978 227.047C120.08 233.915 129.806 245.152 134.437 245.895C119.634 279.945 87.2051 239.008 87.2051 239.008L102.961 287.002C133.862 310.981 155.326 304.329 175.359 251.804C175.359 251.804 178.856 244.528 178.188 234.639C177.757 228.306 174.637 223.49 170.091 219.556L170.087 219.552Z" fill="url(#paint2_linear_94_6511)"/>
<path d="M178.979 255.481C176.51 253.432 134.814 222.317 134.814 222.317L125.653 236.707C125.653 236.707 172.163 261.809 174.526 262.729C176.89 263.649 181.448 257.53 178.979 255.481Z" fill="#4C4C4C"/>
<path d="M175.012 251.925L174.653 251.662C174.589 251.604 174.506 251.566 174.415 251.559C174.234 251.545 174.066 251.655 174.006 251.827C172.951 254.838 171.299 257.548 169.077 259.829C168.988 259.92 168.948 260.048 168.968 260.173C168.989 260.299 169.068 260.407 169.181 260.465L169.61 260.686C169.768 260.768 169.96 260.735 170.083 260.608C172.352 258.245 174.045 255.469 175.152 252.384C175.212 252.216 175.155 252.03 175.012 251.925Z" fill="white" stroke="white" stroke-width="0.801993" stroke-linejoin="round"/>
<path d="M132.162 218.335C131.225 214.63 129.027 209.98 125.549 207.766C118.314 203.159 108.715 205.29 104.108 212.525C99.5023 219.76 101.633 229.359 108.867 233.965C112.346 236.18 117.198 236.326 120.951 235.608L132.162 218.335Z" fill="#989898"/>
<path d="M124.934 206.943C124.751 206.858 124.534 206.923 124.427 207.093C124.38 207.167 124.36 207.252 124.366 207.334C124.338 207.632 124.217 208.031 124.059 208.474C124.008 208.616 123.953 208.765 123.898 208.913C123.784 209.22 123.67 209.525 123.597 209.773C120.932 218.649 115.53 227.244 108.53 233.626C108.433 233.715 108.386 233.845 108.403 233.975C108.42 234.105 108.5 234.218 108.616 234.279C108.681 234.312 108.748 234.355 108.824 234.404C108.826 234.405 108.828 234.406 108.829 234.407C108.865 234.43 108.907 234.456 108.945 234.479C108.981 234.5 109.035 234.53 109.094 234.551C109.234 234.6 109.389 234.568 109.498 234.468C116.601 227.947 122.183 219.194 124.892 210.143C124.956 209.935 125.047 209.692 125.15 209.42C125.204 209.276 125.262 209.124 125.32 208.965C125.478 208.53 125.637 208.046 125.679 207.64C125.693 207.507 125.64 207.375 125.537 207.29C125.471 207.235 125.357 207.167 125.263 207.114C125.159 207.055 125.038 206.99 124.934 206.943Z" fill="#4C4C4C" stroke="#4C4C4C" stroke-width="0.801993" stroke-linejoin="round"/>
<path fill-rule="evenodd" clip-rule="evenodd" d="M120.808 235.697C120.92 236.212 121.225 236.653 121.669 236.938L122.384 237.398L122.38 237.405L123.902 238.374C124.346 238.657 124.874 238.75 125.389 238.636C125.903 238.522 126.342 238.214 126.625 237.77L136.3 222.574C136.583 222.13 136.676 221.601 136.562 221.087C136.448 220.573 136.14 220.133 135.696 219.85L135.06 219.446L135.062 219.442L133.545 218.467C133.102 218.182 132.574 218.087 132.059 218.198C131.544 218.31 131.104 218.616 130.819 219.059L121.076 234.212C120.791 234.655 120.696 235.183 120.808 235.697Z" fill="#ECECEC"/>
<g clip-path="url(#clip3_94_6511)">
<path d="M168.283 218.722C159.219 211.502 146.981 210.025 136.939 215.101C133.944 216.612 129.794 221.753 130.832 225.276C132.507 230.948 141.859 228.299 141.859 228.299C140.122 230.035 139.376 231.582 140.418 235.351C150.375 245.305 150.581 236.326 155.26 236.859C147.057 248.73 161.832 248.821 161.832 248.821L168.589 244.764L173.419 244.682C160.812 236.77 171.104 249.252 174.714 250.887C174.714 250.887 178.142 243.586 177.052 233.608C176.351 227.22 173.016 222.493 168.287 218.726L168.283 218.722Z" fill="url(#paint3_linear_94_6511)"/>
<path d="M131.94 226.792C134.594 229.507 139.583 230.086 142.593 227.514C143.15 227.036 142.299 226.288 141.746 226.763C139.193 228.947 134.9 228.194 132.721 225.963C132.21 225.442 131.433 226.274 131.94 226.792Z" fill="#66B1FF"/>
<path d="M150.359 220.225C148.531 221.289 146.771 222.472 145.141 223.807C143.165 225.424 141.212 227.328 140.17 229.654C139.685 230.739 139.4 231.918 139.509 233.098C139.621 234.324 140.133 235.427 140.848 236.428C142.08 238.148 143.823 239.505 146.016 239.828C149.593 240.352 153.201 238.582 156.181 236.856C156.842 236.471 156.2 235.505 155.539 235.89C152.99 237.368 150.021 238.866 146.972 238.764C145.02 238.698 143.361 237.71 142.192 236.246C141.527 235.411 140.951 234.492 140.755 233.44C140.569 232.433 140.74 231.378 141.127 230.429C142.005 228.264 143.771 226.484 145.557 224.972C147.239 223.55 149.095 222.309 151.005 221.195C151.667 220.81 151.024 219.844 150.363 220.229L150.359 220.225Z" fill="#66B1FF"/>
<path d="M155.391 236.125C153.078 238.519 151.57 242.445 153.694 245.358C154.583 246.582 155.956 247.551 157.361 248.179C158.667 248.762 160.119 248.934 161.544 248.718C164.534 248.264 167.136 246.502 169.388 244.619C169.963 244.138 169.092 243.374 168.525 243.851C166.636 245.431 164.465 246.906 162.009 247.475C161.299 247.639 160.53 247.709 159.815 247.651C159.316 247.61 158.619 247.445 158.257 247.309C157.19 246.902 156.111 246.209 155.307 245.442C153.879 244.079 153.54 242.246 154.125 240.41C154.537 239.121 155.307 237.872 156.254 236.893C156.775 236.354 155.909 235.586 155.391 236.125Z" fill="#66B1FF"/>
</g>
<path d="M97.8565 255.965L92.019 244.098C91.3768 239.692 99.4659 228.336 99.5471 220.577C99.7212 204.342 87.3148 199.219 85.1059 190.411C85.1059 190.411 88.4831 186.632 87.7094 183.74C86.5334 179.334 75.4308 174.676 71.6435 175.896C69.303 176.651 68.6222 179.353 68.6222 179.353C57.1984 176.457 49.9681 178.726 46.204 179.686C32.3585 183.221 24.9039 190.535 24.9039 190.535C22.8768 188.847 22.254 188.394 21.256 188.634C17.7317 189.493 10.5246 196.47 10.7837 202.119C10.9424 205.593 16.7645 207.288 16.7645 207.288C18.2577 214.482 10.9153 227.139 15.5459 237.276C17.2287 240.958 21.8904 245.833 25.2289 249.693C25.1284 251.334 24.0605 253.123 23.5112 254.804C1.83968 320.757 6.83022 359.959 6.83022 359.959C6.83022 359.959 30.989 370.215 59.9952 370.219C93.1059 370.223 113.741 359.417 113.741 359.417C113.741 359.417 118.217 316.548 97.8643 255.969L97.8565 255.965Z" fill="#66B1FF"/>
<path d="M82.392 207.83C79.0342 205.208 58.519 209.841 58.519 209.841C58.519 209.841 39.1711 213.733 37.7132 220.236C37.1083 222.931 35.1619 228.78 36.93 232.416C39.1013 236.881 60.3724 245.372 68.3636 241.92C77.0257 241.006 89.0493 223.382 89.375 218.439C89.6658 213.97 85.265 210.071 82.3958 207.83H82.392Z" fill="white"/>
<path d="M33.6139 197.119C34.2614 195.931 36.7579 192.43 43.7637 191.735C45.2147 191.59 47.3913 193.368 45.9091 195.49C44.614 197.347 36.7656 200.518 35.2833 200.469C33.7659 200.419 32.7362 198.729 33.6139 197.119Z" fill="#0073E4"/>
<path d="M71.5324 186.581C70.423 185.846 66.6371 183.939 60.2358 186.355C58.909 186.857 57.8414 189.299 60.1099 190.474C62.0887 191.496 70.3695 190.823 71.6315 190.147C72.924 189.452 73.0384 187.574 71.5324 186.577V186.581Z" fill="#0073E4"/>
<path d="M61.4477 207.531C61.4477 207.531 48.6634 210.824 50.1704 214.753C51.6773 218.681 60.5197 223.323 65.1326 222.137C71.2831 220.553 75.3095 212.595 74.7688 208.414C74.2282 204.238 61.4439 207.531 61.4439 207.531H61.4477Z" fill="#0073E4"/>
<path d="M52.037 205.273C49.1562 202.939 44.7304 201.582 41.3966 203.73C39.7122 204.813 38.5546 206.524 37.7221 208.32C37.4085 208.999 38.4113 209.591 38.7249 208.909C39.9059 206.356 41.8613 203.944 44.8622 203.815C46.7672 203.734 48.6181 204.451 50.2172 205.425C50.4922 205.592 50.763 205.768 51.0225 205.955C51.096 206.006 51.1658 206.06 51.2355 206.115C51.3401 206.193 51.1039 206.009 51.2123 206.095C51.7892 206.563 52.6179 205.741 52.0332 205.269L52.037 205.273Z" fill="#0073E4"/>
<path d="M76.7148 197.582C73.6318 195.905 69.1181 195.236 66.3711 197.81C64.9878 199.104 64.2883 200.915 63.9049 202.681C63.7507 203.384 64.8929 203.688 65.047 202.98C65.5846 200.5 66.8455 197.937 69.6873 197.342C71.4699 196.972 73.3553 197.406 75.039 198.057C75.1062 198.083 75.2564 198.143 75.4422 198.225C75.5568 198.278 75.6753 198.33 75.79 198.382C75.9006 198.435 76.0113 198.487 76.118 198.547C76.7821 198.906 77.3788 197.937 76.7148 197.578V197.582Z" fill="#0073E4"/>
<path d="M16.7154 332.304C10.4906 302.226 23.9918 253.651 23.9918 253.651C23.9918 253.651 -19.1195 299.228 -17.4901 340.356C-17.2744 345.801 -14.7282 358.146 -6.562 359.05C-6.562 359.05 -1.94353 365.756 2.73277 362.145C2.73277 362.145 5.87218 367.688 10.587 363.638C13.0099 361.556 12.9251 357.13 12.4127 353.74C12.8288 354.109 13.3026 354.365 13.8303 354.47C18.056 355.319 23.0172 347.523 17.0428 333.072C16.9311 332.8 16.8233 332.548 16.7116 332.308L16.7154 332.304Z" fill="url(#paint4_linear_94_6511)"/>
<path d="M78.7578 218.689C73.8213 223.925 66.5569 230.804 49.9724 224.955C49.0184 224.617 49.1321 226.19 57.1848 231.463C61.9251 234.566 66.5132 236.104 69.6001 234.73C72.9877 233.223 74.5411 229.756 75.9073 227.215C79.4027 220.715 80.2739 217.074 78.7532 218.686" fill="#143860"/>
<path d="M73.9005 228.178C73.9005 228.178 64.272 229.119 62.3134 233.521C62.0894 234.029 65.0454 235.173 68.0356 234.331C68.8815 234.093 70.9357 232.935 72.2956 230.922" fill="#ED7865"/>
</g>
<g filter="url(#filter2_dddddd_94_6511)">
<path d="M99.7942 165.823C99.2829 165.596 98.8817 165.272 98.5871 164.858C97.2312 162.969 98.6686 159.73 101.799 157.635C103.872 156.247 106.168 155.661 107.968 156.068L109.048 156.311L104.25 137.876C104.21 137.712 104.275 137.549 104.416 137.466C104.714 137.288 111.778 133.199 117.819 135.882C118.472 136.172 119.099 136.542 119.682 136.965C119.766 137.03 119.82 137.118 119.833 137.215C119.846 137.312 119.82 137.41 119.763 137.494C119.655 137.628 119.462 137.679 119.297 137.606C118.706 137.179 118.136 136.853 117.546 136.591C112.968 134.558 107.629 136.712 105.544 137.73L105.061 137.962L110.234 157.887C110.943 159.889 109.449 162.648 106.698 164.491C104.298 166.099 101.588 166.619 99.7942 165.823ZM108.374 156.987C106.848 156.31 104.386 156.822 102.232 158.265C100.919 159.142 99.8755 160.257 99.3024 161.398C98.7086 162.585 98.6712 163.691 99.2023 164.438C99.4178 164.734 99.7226 164.979 100.108 165.15C101.626 165.824 104.095 165.315 106.25 163.873C109.028 162.013 110.386 159.241 109.271 157.696C109.056 157.4 108.751 157.155 108.366 156.984L108.374 156.987Z" fill="#00FFBA"/>
</g>
<g clip-path="url(#clip4_94_6511)" filter="url(#filter3_dddddd_94_6511)">
<path d="M51.4334 116.591C50.9471 116.214 50.6786 115.746 50.6532 115.244C50.6292 114.642 50.9704 114.063 51.6171 113.601C52.3207 113.106 53.2905 112.812 54.3504 112.771C55.5785 112.727 56.7082 113.032 57.4576 113.612C57.5293 113.668 57.6011 113.723 57.6596 113.788L58.1139 114.222L61.4885 104.233C61.523 104.139 61.6084 104.079 61.7091 104.081L71.8155 104.437C71.8659 104.438 71.911 104.453 71.9468 104.481C71.9668 104.497 71.9827 104.509 71.9925 104.529C72.036 104.588 72.046 104.666 72.022 104.73L68.3228 115.704C68.0373 116.852 66.4989 117.714 64.6572 117.783C63.6648 117.819 62.7179 117.625 61.986 117.235C61.8241 117.148 61.6714 117.048 61.5359 116.943C61.0496 116.567 60.781 116.099 60.7557 115.597C60.7262 114.953 61.1131 114.34 61.8416 113.871C62.5303 113.428 63.4604 113.16 64.4568 113.127C65.6849 113.083 66.8177 113.384 67.5671 113.964C67.6388 114.02 67.7106 114.075 67.7691 114.14L68.2234 114.574L71.4994 104.876L61.861 104.534L58.2164 115.348C57.9309 116.496 56.3925 117.358 54.5508 117.427C53.5584 117.464 52.6114 117.269 51.8796 116.879C51.7177 116.792 51.565 116.692 51.4294 116.587L51.4334 116.591ZM57.1901 113.957C56.5443 113.456 55.4898 113.178 54.3765 113.222C52.5307 113.288 51.0654 114.188 51.1097 115.224C51.1248 115.591 51.3386 115.94 51.7212 116.237C51.8328 116.323 51.9616 116.404 52.1006 116.48C52.7483 116.83 53.636 117.01 54.5388 116.974C56.3845 116.908 57.8499 116.008 57.8056 114.972C57.7865 114.602 57.5758 114.249 57.1931 113.953L57.1901 113.957ZM67.2996 114.308C66.6538 113.808 65.5993 113.53 64.486 113.574C63.5863 113.606 62.7179 113.852 62.0982 114.247C61.5121 114.624 61.1965 115.095 61.2192 115.576C61.2343 115.943 61.4481 116.292 61.8307 116.589C61.9423 116.675 62.0711 116.756 62.2101 116.832C62.8578 117.181 63.7455 117.362 64.6483 117.326C66.494 117.26 67.9594 116.36 67.9151 115.324C67.896 114.954 67.6853 114.601 67.3026 114.305L67.2996 114.308Z" fill="#00FFBA"/>
</g>
<g clip-path="url(#clip5_94_6511)" filter="url(#filter4_dddddd_94_6511)">
<path d="M245.635 262.035C245.393 261.596 245.281 261.133 245.304 260.659C245.348 259.509 246.161 258.421 247.585 257.61C248.951 256.829 250.741 256.38 252.621 256.352C254.5 256.323 256.252 256.716 257.563 257.461C258.136 257.788 258.609 258.178 258.96 258.62L259.557 259.372L267.613 240.811C267.682 240.648 267.871 240.568 268.037 240.626C268.121 240.658 268.17 240.717 268.193 240.759C268.24 240.843 268.241 240.936 268.206 241.025L259.463 261.145C258.768 263.208 255.758 264.701 252.28 264.753C249.225 264.8 246.553 263.706 245.635 262.035ZM258.679 259.384C258.325 258.741 257.68 258.281 257.205 258.009C255.992 257.32 254.356 256.957 252.593 256.985C250.83 257.012 249.159 257.42 247.889 258.147C247.183 258.549 246.002 259.408 245.953 260.655C245.938 261.008 246.027 261.366 246.215 261.709C247.035 263.2 249.485 264.18 252.308 264.136C255.811 264.085 258.228 262.573 258.804 261.115L258.819 261.083L258.832 261.029C258.903 260.826 258.943 260.64 258.954 260.462C258.968 260.094 258.877 259.729 258.688 259.386L258.679 259.384Z" fill="#00FFBA"/>
</g>
<defs>
<filter id="filter0_dd_94_6511" x="-29.0155" y="35.2823" width="286.914" height="296.252" filterUnits="userSpaceOnUse" color-interpolation-filters="sRGB">
<feFlood flood-opacity="0" result="BackgroundImageFix"/>
<feColorMatrix in="SourceAlpha" type="matrix" values="0 0 0 0 0 0 0 0 0 0 0 0 0 0 0 0 0 0 127 0" result="hardAlpha"/>
<feOffset/>
<feGaussianBlur stdDeviation="37.9185"/>
<feColorMatrix type="matrix" values="0 0 0 0 0 0 0 0 0 1 0 0 0 0 0.729412 0 0 0 1 0"/>
<feBlend mode="normal" in2="BackgroundImageFix" result="effect1_dropShadow_94_6511"/>
<feColorMatrix in="SourceAlpha" type="matrix" values="0 0 0 0 0 0 0 0 0 0 0 0 0 0 0 0 0 0 127 0" result="hardAlpha"/>
<feOffset/>
<feGaussianBlur stdDeviation="66.3574"/>
<feColorMatrix type="matrix" values="0 0 0 0 0 0 0 0 0 1 0 0 0 0 0.729412 0 0 0 1 0"/>
<feBlend mode="normal" in2="effect1_dropShadow_94_6511" result="effect2_dropShadow_94_6511"/>
<feBlend mode="normal" in="SourceGraphic" in2="effect2_dropShadow_94_6511" result="shape"/>
</filter>
<filter id="filter1_d_94_6511" x="73.0719" y="133.563" width="141.915" height="138.727" filterUnits="userSpaceOnUse" color-interpolation-filters="sRGB">
<feFlood flood-opacity="0" result="BackgroundImageFix"/>
<feColorMatrix in="SourceAlpha" type="matrix" values="0 0 0 0 0 0 0 0 0 0 0 0 0 0 0 0 0 0 127 0" result="hardAlpha"/>
<feOffset/>
<feGaussianBlur stdDeviation="31.0002"/>
<feColorMatrix type="matrix" values="0 0 0 0 0 0 0 0 0 1 0 0 0 0 0.729412 0 0 0 1 0"/>
<feBlend mode="normal" in2="BackgroundImageFix" result="effect1_dropShadow_94_6511"/>
<feBlend mode="normal" in="SourceGraphic" in2="effect1_dropShadow_94_6511" result="shape"/>
</filter>
<filter id="filter2_dddddd_94_6511" x="-36.3389" y="0.557541" width="290.59" height="300.048" filterUnits="userSpaceOnUse" color-interpolation-filters="sRGB">
<feFlood flood-opacity="0" result="BackgroundImageFix"/>
<feColorMatrix in="SourceAlpha" type="matrix" values="0 0 0 0 0 0 0 0 0 0 0 0 0 0 0 0 0 0 127 0" result="hardAlpha"/>
<feOffset/>
<feGaussianBlur stdDeviation="1.60018"/>
<feColorMatrix type="matrix" values="0 0 0 0 0 0 0 0 0 1 0 0 0 0 0.729412 0 0 0 1 0"/>
<feBlend mode="normal" in2="BackgroundImageFix" result="effect1_dropShadow_94_6511"/>
<feColorMatrix in="SourceAlpha" type="matrix" values="0 0 0 0 0 0 0 0 0 0 0 0 0 0 0 0 0 0 127 0" result="hardAlpha"/>
<feOffset/>
<feGaussianBlur stdDeviation="3.20036"/>
<feColorMatrix type="matrix" values="0 0 0 0 0 0 0 0 0 1 0 0 0 0 0.729412 0 0 0 1 0"/>
<feBlend mode="normal" in2="effect1_dropShadow_94_6511" result="effect2_dropShadow_94_6511"/>
<feColorMatrix in="SourceAlpha" type="matrix" values="0 0 0 0 0 0 0 0 0 0 0 0 0 0 0 0 0 0 127 0" result="hardAlpha"/>
<feOffset/>
<feGaussianBlur stdDeviation="11.2013"/>
<feColorMatrix type="matrix" values="0 0 0 0 0 0 0 0 0 1 0 0 0 0 0.729412 0 0 0 1 0"/>
<feBlend mode="normal" in2="effect2_dropShadow_94_6511" result="effect3_dropShadow_94_6511"/>
<feColorMatrix in="SourceAlpha" type="matrix" values="0 0 0 0 0 0 0 0 0 0 0 0 0 0 0 0 0 0 127 0" result="hardAlpha"/>
<feOffset/>
<feGaussianBlur stdDeviation="22.4025"/>
<feColorMatrix type="matrix" values="0 0 0 0 0 0 0 0 0 1 0 0 0 0 0.729412 0 0 0 1 0"/>
<feBlend mode="normal" in2="effect3_dropShadow_94_6511" result="effect4_dropShadow_94_6511"/>
<feColorMatrix in="SourceAlpha" type="matrix" values="0 0 0 0 0 0 0 0 0 0 0 0 0 0 0 0 0 0 127 0" result="hardAlpha"/>
<feOffset/>
<feGaussianBlur stdDeviation="38.4043"/>
<feColorMatrix type="matrix" values="0 0 0 0 0 0 0 0 0 1 0 0 0 0 0.729412 0 0 0 1 0"/>
<feBlend mode="normal" in2="effect4_dropShadow_94_6511" result="effect5_dropShadow_94_6511"/>
<feColorMatrix in="SourceAlpha" type="matrix" values="0 0 0 0 0 0 0 0 0 0 0 0 0 0 0 0 0 0 127 0" result="hardAlpha"/>
<feOffset/>
<feGaussianBlur stdDeviation="67.2076"/>
<feColorMatrix type="matrix" values="0 0 0 0 0 0 0 0 0 1 0 0 0 0 0.729412 0 0 0 1 0"/>
<feBlend mode="normal" in2="effect5_dropShadow_94_6511" result="effect6_dropShadow_94_6511"/>
<feBlend mode="normal" in="SourceGraphic" in2="effect6_dropShadow_94_6511" result="shape"/>
</filter>
<filter id="filter3_dddddd_94_6511" x="-30.3467" y="17.6533" width="185.942" height="187.212" filterUnits="userSpaceOnUse" color-interpolation-filters="sRGB">
<feFlood flood-opacity="0" result="BackgroundImageFix"/>
<feColorMatrix in="SourceAlpha" type="matrix" values="0 0 0 0 0 0 0 0 0 0 0 0 0 0 0 0 0 0 127 0" result="hardAlpha"/>
<feOffset/>
<feGaussianBlur stdDeviation="0.956509"/>
<feColorMatrix type="matrix" values="0 0 0 0 0 0 0 0 0 1 0 0 0 0 0.729412 0 0 0 1 0"/>
<feBlend mode="normal" in2="BackgroundImageFix" result="effect1_dropShadow_94_6511"/>
<feColorMatrix in="SourceAlpha" type="matrix" values="0 0 0 0 0 0 0 0 0 0 0 0 0 0 0 0 0 0 127 0" result="hardAlpha"/>
<feOffset/>
<feGaussianBlur stdDeviation="1.91302"/>
<feColorMatrix type="matrix" values="0 0 0 0 0 0 0 0 0 1 0 0 0 0 0.729412 0 0 0 1 0"/>
<feBlend mode="normal" in2="effect1_dropShadow_94_6511" result="effect2_dropShadow_94_6511"/>
<feColorMatrix in="SourceAlpha" type="matrix" values="0 0 0 0 0 0 0 0 0 0 0 0 0 0 0 0 0 0 127 0" result="hardAlpha"/>
<feOffset/>
<feGaussianBlur stdDeviation="6.69556"/>
<feColorMatrix type="matrix" values="0 0 0 0 0 0 0 0 0 1 0 0 0 0 0.729412 0 0 0 1 0"/>
<feBlend mode="normal" in2="effect2_dropShadow_94_6511" result="effect3_dropShadow_94_6511"/>
<feColorMatrix in="SourceAlpha" type="matrix" values="0 0 0 0 0 0 0 0 0 0 0 0 0 0 0 0 0 0 127 0" result="hardAlpha"/>
<feOffset/>
<feGaussianBlur stdDeviation="13.3911"/>
<feColorMatrix type="matrix" values="0 0 0 0 0 0 0 0 0 1 0 0 0 0 0.729412 0 0 0 1 0"/>
<feBlend mode="normal" in2="effect3_dropShadow_94_6511" result="effect4_dropShadow_94_6511"/>
<feColorMatrix in="SourceAlpha" type="matrix" values="0 0 0 0 0 0 0 0 0 0 0 0 0 0 0 0 0 0 127 0" result="hardAlpha"/>
<feOffset/>
<feGaussianBlur stdDeviation="22.9562"/>
<feColorMatrix type="matrix" values="0 0 0 0 0 0 0 0 0 1 0 0 0 0 0.729412 0 0 0 1 0"/>
<feBlend mode="normal" in2="effect4_dropShadow_94_6511" result="effect5_dropShadow_94_6511"/>
<feColorMatrix in="SourceAlpha" type="matrix" values="0 0 0 0 0 0 0 0 0 0 0 0 0 0 0 0 0 0 127 0" result="hardAlpha"/>
<feOffset/>
<feGaussianBlur stdDeviation="40.1734"/>
<feColorMatrix type="matrix" values="0 0 0 0 0 0 0 0 0 1 0 0 0 0 0.729412 0 0 0 1 0"/>
<feBlend mode="normal" in2="effect5_dropShadow_94_6511" result="effect6_dropShadow_94_6511"/>
<feBlend mode="normal" in="SourceGraphic" in2="effect6_dropShadow_94_6511" result="shape"/>
</filter>
<filter id="filter4_dddddd_94_6511" x="178.93" y="177.697" width="159.142" height="153.17" filterUnits="userSpaceOnUse" color-interpolation-filters="sRGB">
<feFlood flood-opacity="0" result="BackgroundImageFix"/>
<feColorMatrix in="SourceAlpha" type="matrix" values="0 0 0 0 0 0 0 0 0 0 0 0 0 0 0 0 0 0 127 0" result="hardAlpha"/>
<feOffset/>
<feGaussianBlur stdDeviation="0.747556"/>
<feColorMatrix type="matrix" values="0 0 0 0 0 0 0 0 0 1 0 0 0 0 0.729412 0 0 0 1 0"/>
<feBlend mode="normal" in2="BackgroundImageFix" result="effect1_dropShadow_94_6511"/>
<feColorMatrix in="SourceAlpha" type="matrix" values="0 0 0 0 0 0 0 0 0 0 0 0 0 0 0 0 0 0 127 0" result="hardAlpha"/>
<feOffset/>
<feGaussianBlur stdDeviation="1.49511"/>
<feColorMatrix type="matrix" values="0 0 0 0 0 0 0 0 0 1 0 0 0 0 0.729412 0 0 0 1 0"/>
<feBlend mode="normal" in2="effect1_dropShadow_94_6511" result="effect2_dropShadow_94_6511"/>
<feColorMatrix in="SourceAlpha" type="matrix" values="0 0 0 0 0 0 0 0 0 0 0 0 0 0 0 0 0 0 127 0" result="hardAlpha"/>
<feOffset/>
<feGaussianBlur stdDeviation="5.23289"/>
<feColorMatrix type="matrix" values="0 0 0 0 0 0 0 0 0 1 0 0 0 0 0.729412 0 0 0 1 0"/>
<feBlend mode="normal" in2="effect2_dropShadow_94_6511" result="effect3_dropShadow_94_6511"/>
<feColorMatrix in="SourceAlpha" type="matrix" values="0 0 0 0 0 0 0 0 0 0 0 0 0 0 0 0 0 0 127 0" result="hardAlpha"/>
<feOffset/>
<feGaussianBlur stdDeviation="10.4658"/>
<feColorMatrix type="matrix" values="0 0 0 0 0 0 0 0 0 1 0 0 0 0 0.729412 0 0 0 1 0"/>
<feBlend mode="normal" in2="effect3_dropShadow_94_6511" result="effect4_dropShadow_94_6511"/>
<feColorMatrix in="SourceAlpha" type="matrix" values="0 0 0 0 0 0 0 0 0 0 0 0 0 0 0 0 0 0 127 0" result="hardAlpha"/>
<feOffset/>
<feGaussianBlur stdDeviation="17.9414"/>
<feColorMatrix type="matrix" values="0 0 0 0 0 0 0 0 0 1 0 0 0 0 0.729412 0 0 0 1 0"/>
<feBlend mode="normal" in2="effect4_dropShadow_94_6511" result="effect5_dropShadow_94_6511"/>
<feColorMatrix in="SourceAlpha" type="matrix" values="0 0 0 0 0 0 0 0 0 0 0 0 0 0 0 0 0 0 127 0" result="hardAlpha"/>
<feOffset/>
<feGaussianBlur stdDeviation="31.3974"/>
<feColorMatrix type="matrix" values="0 0 0 0 0 0 0 0 0 1 0 0 0 0 0.729412 0 0 0 1 0"/>
<feBlend mode="normal" in2="effect5_dropShadow_94_6511" result="effect6_dropShadow_94_6511"/>
<feBlend mode="normal" in="SourceGraphic" in2="effect6_dropShadow_94_6511" result="shape"/>
</filter>
<linearGradient id="paint0_linear_94_6511" x1="153.688" y1="209.696" x2="107.286" y2="290.816" gradientUnits="userSpaceOnUse">
<stop stop-color="#0F8AEF"/>
<stop offset="0.3" stop-color="#2B96F4"/>
<stop offset="0.83" stop-color="#66B1FF"/>
</linearGradient>
<linearGradient id="paint1_linear_94_6511" x1="3.07341" y1="365.323" x2="3.07341" y2="253.858" gradientUnits="userSpaceOnUse">
<stop stop-color="#0F8AEF"/>
<stop offset="0.3" stop-color="#2B96F4"/>
<stop offset="0.83" stop-color="#66B1FF"/>
</linearGradient>
<linearGradient id="paint2_linear_94_6511" x1="153.69" y1="209.504" x2="107.288" y2="290.623" gradientUnits="userSpaceOnUse">
<stop stop-color="#0F8AEF"/>
<stop offset="0.3" stop-color="#2B96F4"/>
<stop offset="0.83" stop-color="#66B1FF"/>
</linearGradient>
<linearGradient id="paint3_linear_94_6511" x1="151.077" y1="209.004" x2="107.571" y2="293.096" gradientUnits="userSpaceOnUse">
<stop stop-color="#0F8AEF"/>
<stop offset="0.3" stop-color="#2B96F4"/>
<stop offset="0.83" stop-color="#66B1FF"/>
</linearGradient>
<linearGradient id="paint4_linear_94_6511" x1="3.22966" y1="365.116" x2="3.22966" y2="253.651" gradientUnits="userSpaceOnUse">
<stop stop-color="#0F8AEF"/>
<stop offset="0.3" stop-color="#2B96F4"/>
<stop offset="0.83" stop-color="#66B1FF"/>
</linearGradient>
<clipPath id="clip0_94_6511">
<path d="M17.8555 254H222.855V303H35.8555C25.9143 303 17.8555 294.941 17.8555 285V254Z" fill="white"/>
</clipPath>
<clipPath id="clip1_94_6511">
<rect width="8.01398" height="16.028" fill="white" transform="matrix(0.481688 0.876343 -0.876911 0.480652 149.127 195.563)"/>
</clipPath>
<clipPath id="clip2_94_6511">
<rect width="217" height="121" fill="white" transform="translate(5.85547 135)"/>
</clipPath>
<clipPath id="clip3_94_6511">
<rect width="44.4411" height="142.794" fill="white" transform="matrix(0.70913 -0.705078 0.70913 0.705078 117.803 215.04)"/>
</clipPath>
<clipPath id="clip4_94_6511">
<rect width="14.7576" height="22.1363" fill="white" transform="matrix(0.790481 0.612486 -0.613558 0.78965 63.582 98)"/>
</clipPath>
<clipPath id="clip5_94_6511">
<rect width="15.0088" height="30.0177" fill="white" transform="matrix(0.481688 0.876343 -0.876911 0.480653 268.047 240.492)"/>
</clipPath>
</defs>
</svg>
