<svg width="337" height="328" viewBox="0 0 337 328" fill="none" xmlns="http://www.w3.org/2000/svg">
    <g clip-path="url(#clip0_949_6056)">
        <g filter="url(#filter0_dddddd_949_6056)">
            <path d="M95.6424 152.496C95.1311 152.269 94.7299 151.944 94.4353 151.531C93.0794 149.642 94.5167 146.403 97.6469 144.308C99.72 142.92 102.016 142.334 103.816 142.741L104.896 142.984L100.098 124.548C100.058 124.385 100.123 124.222 100.264 124.139C100.562 123.961 107.627 119.872 113.667 122.555C114.32 122.845 114.947 123.215 115.53 123.638C115.614 123.702 115.668 123.791 115.681 123.888C115.694 123.984 115.669 124.083 115.612 124.167C115.504 124.301 115.31 124.352 115.145 124.279C114.554 123.852 113.984 123.526 113.394 123.264C108.816 121.231 103.477 123.385 101.392 124.402L100.909 124.635L106.082 144.56C106.791 146.562 105.297 149.32 102.546 151.164C100.146 152.771 97.4358 153.292 95.6424 152.496ZM104.222 143.66C102.696 142.983 100.234 143.495 98.0797 144.938C96.7667 145.815 95.7236 146.93 95.1505 148.071C94.5567 149.258 94.5193 150.364 95.0505 151.111C95.2659 151.407 95.5707 151.652 95.9562 151.823C97.4743 152.497 99.9435 151.988 102.098 150.545C104.876 148.686 106.234 145.914 105.119 144.369C104.904 144.073 104.599 143.828 104.214 143.657L104.222 143.66Z" fill="#00FFBA"/>
        </g>
        <g filter="url(#filter1_dddddd_949_6056)">
            <path d="M47.2828 103.263C46.7965 102.887 46.528 102.419 46.5026 101.917C46.4786 101.315 46.8198 100.736 47.4665 100.274C48.1701 99.7792 49.1398 99.4845 50.1997 99.4435C51.4279 99.3997 52.5576 99.7044 53.307 100.285C53.3787 100.341 53.4504 100.396 53.509 100.461L53.9633 100.895L57.3379 90.9059C57.3724 90.8122 57.4578 90.7516 57.5585 90.7535L67.6649 91.1095C67.7152 91.1104 67.7603 91.1263 67.7962 91.1541C67.8161 91.1696 67.8321 91.1819 67.8419 91.2022C67.8854 91.2613 67.8954 91.3388 67.8714 91.4026L64.1722 102.376C63.8866 103.525 62.3483 104.387 60.5066 104.456C59.5142 104.492 58.5672 104.297 57.8354 103.908C57.6735 103.821 57.5207 103.721 57.3852 103.616C56.8989 103.239 56.6304 102.771 56.605 102.27C56.5755 101.626 56.9625 101.013 57.6909 100.544C58.3797 100.101 59.3098 99.8326 60.3062 99.7994C61.5343 99.7556 62.6671 100.056 63.4164 100.637C63.4882 100.693 63.5599 100.748 63.6185 100.813L64.0728 101.247L67.3487 91.5492L57.7104 91.2073L54.0657 102.021C53.7802 103.169 52.2419 104.031 50.4001 104.1C49.4077 104.136 48.4608 103.942 47.729 103.552C47.567 103.465 47.4143 103.365 47.2788 103.26L47.2828 103.263ZM53.0394 100.629C52.3937 100.129 51.3392 99.8508 50.2258 99.8948C48.3801 99.9609 46.9147 100.861 46.959 101.897C46.9742 102.263 47.1879 102.613 47.5706 102.909C47.6822 102.996 47.811 103.077 47.9499 103.153C48.5977 103.502 49.4854 103.683 50.3882 103.647C52.2339 103.581 53.6993 102.681 53.655 101.645C53.6358 101.275 53.4252 100.922 53.0425 100.625L53.0394 100.629ZM63.1489 100.981C62.5032 100.481 61.4486 100.203 60.3353 100.247C59.4356 100.279 58.5673 100.525 57.9476 100.92C57.3614 101.296 57.0459 101.768 57.0685 102.249C57.0837 102.615 57.2974 102.965 57.6801 103.261C57.7917 103.348 57.9205 103.429 58.0594 103.505C58.7072 103.854 59.5949 104.035 60.4977 103.999C62.3434 103.933 63.8088 103.033 63.7645 101.997C63.7453 101.627 63.5347 101.274 63.152 100.977L63.1489 100.981Z" fill="#00FFBA"/>
        </g>
        <g filter="url(#filter2_dddddd_949_6056)">
            <path d="M241.484 248.708C241.243 248.269 241.13 247.806 241.153 247.332C241.197 246.181 242.01 245.094 243.434 244.282C244.8 243.502 246.59 243.053 248.47 243.024C250.349 242.996 252.101 243.389 253.412 244.133C253.985 244.461 254.458 244.851 254.809 245.292L255.406 246.045L263.462 227.484C263.531 227.321 263.72 227.24 263.886 227.298C263.97 227.33 264.019 227.389 264.043 227.431C264.089 227.516 264.09 227.609 264.056 227.698L255.312 247.817C254.617 249.88 251.607 251.374 248.129 251.426C245.074 251.473 242.403 250.379 241.484 248.708ZM254.528 246.057C254.174 245.413 253.529 244.953 253.054 244.682C251.841 243.993 250.205 243.63 248.442 243.657C246.679 243.685 245.008 244.092 243.738 244.82C243.033 245.222 241.851 246.081 241.802 247.328C241.787 247.68 241.876 248.039 242.064 248.382C242.884 249.873 245.335 250.853 248.157 250.808C251.66 250.758 254.077 249.246 254.653 247.788L254.668 247.755L254.681 247.702C254.752 247.498 254.792 247.312 254.803 247.134C254.818 246.766 254.726 246.402 254.537 246.059L254.528 246.057Z" fill="#00FFBA"/>
        </g>
        <g clip-path="url(#clip1_949_6056)">
            <path d="M169.85 207.984C161.513 200.769 149.927 198.832 140.169 203.174C137.259 204.466 133.274 208.448 134.122 211.817C135.489 217.242 141.277 220.431 141.277 220.431C140.203 217.305 135.218 211.526 130.523 215.154C122.011 221.724 131.315 232.474 135.746 233.185C121.584 265.76 90.5607 226.596 90.5607 226.596L105.634 272.51C135.196 295.45 155.729 289.087 174.895 238.838C174.895 238.838 178.24 231.878 177.601 222.416C177.188 216.358 174.203 211.751 169.854 207.987L169.85 207.984Z" fill="url(#paint0_linear_949_6056)"/>
            <g clip-path="url(#clip2_949_6056)">
                <path d="M176.26 241.818L176.628 242.147C175.244 245.139 173.209 247.858 170.736 250.012L170.323 249.742C172.834 247.588 174.887 244.84 176.26 241.815L176.26 241.818Z" fill="white"/>
            </g>
            <g filter="url(#filter3_dd_949_6056)">
                <path d="M107.964 187.616C107.481 187.401 107.102 187.095 106.824 186.704C105.543 184.92 106.9 181.861 109.857 179.882C111.815 178.571 113.984 178.018 115.684 178.402L116.705 178.631L112.172 161.218C112.135 161.064 112.196 160.91 112.329 160.831C112.611 160.663 119.283 156.801 124.989 159.335C125.606 159.609 126.198 159.958 126.749 160.358C126.828 160.419 126.88 160.502 126.892 160.594C126.904 160.685 126.88 160.778 126.826 160.857C126.724 160.984 126.541 161.033 126.385 160.963C125.827 160.56 125.288 160.252 124.731 160.005C120.407 158.084 115.364 160.119 113.395 161.08L112.938 161.3L117.825 180.12C118.494 182.011 117.084 184.616 114.484 186.358C112.218 187.876 109.658 188.368 107.964 187.616ZM116.067 179.27C114.626 178.63 112.301 179.114 110.266 180.477C109.026 181.305 108.04 182.358 107.499 183.436C106.938 184.558 106.903 185.602 107.405 186.307C107.608 186.587 107.896 186.819 108.26 186.98C109.694 187.617 112.026 187.136 114.062 185.774C116.685 184.017 117.969 181.399 116.915 179.94C116.712 179.66 116.424 179.429 116.06 179.267L116.067 179.27Z" fill="#00FFBA"/>
            </g>
            <g clip-path="url(#clip3_949_6056)" filter="url(#filter4_d_949_6056)">
            </g>
            <path d="M100.753 242.819L95.1686 231.466C94.5542 227.251 102.293 216.387 102.37 208.964C102.537 193.433 90.6683 188.532 88.5551 180.106C88.5551 180.106 91.7859 176.491 91.0458 173.724C89.9207 169.508 79.2993 165.052 75.6761 166.219C73.4371 166.942 72.7857 169.527 72.7857 169.527C61.8571 166.756 54.9401 168.927 51.3391 169.846C38.0937 173.227 30.9621 180.224 30.9621 180.224C29.0229 178.609 28.4271 178.176 27.4723 178.406C24.1008 179.228 17.206 185.903 17.4539 191.307C17.6057 194.629 23.1755 196.252 23.1755 196.252C24.604 203.134 17.5798 215.242 22.0097 224.939C23.6196 228.462 28.0793 233.125 31.2731 236.818C31.1769 238.389 30.1553 240.1 29.6298 241.708C8.89749 304.802 13.6717 342.306 13.6717 342.306C13.6717 342.306 36.7836 352.118 64.5327 352.121C96.2084 352.125 115.949 341.787 115.949 341.787C115.949 341.787 120.231 300.776 100.761 242.823L100.753 242.819Z" fill="#66B1FF"/>
            <path d="M22.9632 315.85C17.0082 287.076 29.9243 240.606 29.9243 240.606C29.9243 240.606 -11.3187 284.207 -9.75988 323.553C-9.55352 328.762 -7.11766 340.573 0.69462 341.437C0.69462 341.437 5.11294 347.852 9.58658 344.398C9.58658 344.398 12.5899 349.7 17.1004 345.827C19.4183 343.834 19.3372 339.6 18.847 336.358C19.245 336.71 19.6983 336.955 20.2032 337.055C24.2457 337.868 28.992 330.41 23.2765 316.585C23.1696 316.325 23.0665 316.084 22.9596 315.854L22.9632 315.85Z" fill="url(#paint1_linear_949_6056)"/>
            <path d="M94.8347 269.588C81.2434 255.495 66.3276 267.924 65.1221 268.968C63.9167 267.92 49.0046 255.495 35.4096 269.588C20.3226 285.231 34.0702 316.989 38.7581 324.468C43.4461 331.948 52.7215 344.087 65.2598 344.455C77.7945 344.087 86.7982 331.948 91.4861 324.468C96.1741 316.989 109.918 285.231 94.8347 269.588Z" fill="white"/>
        </g>
        <g clip-path="url(#clip4_949_6056)">
            <path d="M169.851 207.982C161.513 200.767 149.927 198.83 140.169 203.172C137.259 204.465 133.274 208.446 134.122 211.816C135.49 217.241 141.277 220.43 141.277 220.43C140.203 217.303 135.218 211.525 130.524 215.152C122.011 221.723 131.315 232.473 135.746 233.184C121.584 265.758 90.5608 226.595 90.5608 226.595L105.634 272.509C135.196 295.449 155.729 289.085 174.895 238.837C174.895 238.837 178.24 231.876 177.601 222.415C177.188 216.357 174.203 211.75 169.854 207.986L169.851 207.982Z" fill="url(#paint2_linear_949_6056)"/>
            <path d="M178.358 242.355C175.996 240.394 136.107 210.628 136.107 210.628L127.342 224.394C127.342 224.394 171.837 248.408 174.098 249.289C176.359 250.169 180.719 244.315 178.358 242.355Z" fill="#4C4C4C"/>
            <path d="M174.562 238.952L174.219 238.7C174.158 238.645 174.078 238.609 173.991 238.603C173.818 238.589 173.657 238.694 173.6 238.858C172.591 241.739 171.01 244.332 168.885 246.514C168.8 246.601 168.761 246.723 168.781 246.843C168.8 246.963 168.876 247.067 168.984 247.122L169.395 247.334C169.546 247.412 169.73 247.381 169.847 247.259C172.017 244.999 173.638 242.343 174.696 239.391C174.754 239.231 174.699 239.053 174.562 238.952Z" fill="white" stroke="white" stroke-width="0.767236" stroke-linejoin="round"/>
            <path d="M133.569 206.818C132.673 203.274 130.57 198.826 127.243 196.707C120.321 192.3 111.138 194.339 106.731 201.26C102.325 208.181 104.363 217.365 111.284 221.771C114.612 223.89 119.254 224.029 122.844 223.342L133.569 206.818Z" fill="#989898"/>
            <path fill-rule="evenodd" clip-rule="evenodd" d="M126.938 195.626C127.065 195.686 127.191 195.746 127.255 195.808C127.319 195.869 127.477 195.96 127.541 196.021C127.732 196.206 127.83 196.423 127.804 196.705C127.749 197.144 127.571 197.648 127.422 198.058C127.363 198.247 127.303 198.373 127.243 198.5C127.122 198.752 127.063 198.941 127.004 199.13C124.351 207.819 118.967 216.151 112.105 222.384C111.921 222.575 111.609 222.644 111.326 222.555C111.231 222.525 111.167 222.464 111.105 222.465C111.073 222.435 111.041 222.404 110.978 222.405C110.915 222.344 110.852 222.345 110.82 222.314C110.599 222.224 110.47 221.976 110.402 221.727C110.367 221.509 110.456 221.225 110.672 221.065C117.319 215.056 122.457 206.978 125.054 198.603C125.112 198.352 125.231 198.037 125.35 197.721C125.41 197.595 125.439 197.438 125.499 197.312C125.648 196.902 125.735 196.556 125.762 196.336C125.76 196.211 125.788 196.054 125.879 195.896C126.186 195.577 126.559 195.445 126.938 195.626Z" fill="#4C4C4C"/>
            <path fill-rule="evenodd" clip-rule="evenodd" d="M122.709 223.426C122.816 223.919 123.108 224.34 123.532 224.613L124.217 225.053L124.212 225.061L125.668 225.988C126.093 226.258 126.598 226.347 127.09 226.238C127.582 226.129 128.003 225.835 128.273 225.409L137.529 210.872C137.8 210.447 137.889 209.942 137.78 209.45C137.67 208.958 137.376 208.538 136.951 208.267L136.343 207.88L136.345 207.876L134.893 206.942C134.469 206.67 133.965 206.578 133.472 206.686C132.98 206.793 132.558 207.085 132.285 207.509L122.965 222.005C122.693 222.429 122.602 222.934 122.709 223.426Z" fill="#ECECEC"/>
            <g clip-path="url(#clip5_949_6056)">
                <path d="M168.129 207.188C159.457 200.28 147.75 198.867 138.144 203.723C135.278 205.169 131.308 210.087 132.301 213.458C133.903 218.883 142.85 216.349 142.85 216.349C141.189 218.01 140.475 219.49 141.471 223.096C150.997 232.618 151.194 224.028 155.67 224.538C147.823 235.895 161.958 235.982 161.958 235.982L168.421 232.101L173.042 232.022C160.982 224.453 170.828 236.394 174.282 237.959C174.282 237.959 177.561 230.974 176.518 221.428C175.847 215.317 172.656 210.795 168.133 207.191L168.129 207.188Z" fill="url(#paint3_linear_949_6056)"/>
                <path d="M133.359 214.908C135.898 217.506 140.672 218.059 143.551 215.599C144.084 215.142 143.27 214.427 142.74 214.88C140.298 216.97 136.192 216.249 134.106 214.116C133.618 213.617 132.874 214.413 133.359 214.908Z" fill="#66B1FF"/>
                <path d="M150.981 208.626C149.232 209.643 147.549 210.775 145.99 212.052C144.099 213.599 142.231 215.42 141.234 217.646C140.77 218.684 140.497 219.812 140.602 220.941C140.708 222.113 141.198 223.169 141.883 224.126C143.061 225.771 144.728 227.069 146.827 227.379C150.248 227.88 153.7 226.187 156.551 224.536C157.183 224.167 156.569 223.243 155.936 223.612C153.499 225.026 150.657 226.459 147.741 226.361C145.874 226.298 144.286 225.353 143.168 223.952C142.532 223.154 141.98 222.274 141.793 221.267C141.616 220.304 141.779 219.295 142.149 218.387C142.989 216.316 144.679 214.613 146.387 213.167C147.996 211.807 149.772 210.619 151.6 209.554C152.232 209.185 151.618 208.261 150.985 208.629L150.981 208.626Z" fill="#66B1FF"/>
                <path d="M155.794 223.837C153.581 226.127 152.138 229.883 154.17 232.669C155.021 233.841 156.334 234.767 157.679 235.368C158.927 235.926 160.317 236.09 161.68 235.884C164.54 235.45 167.029 233.764 169.184 231.962C169.734 231.502 168.901 230.771 168.358 231.227C166.552 232.739 164.475 234.15 162.125 234.695C161.446 234.851 160.71 234.919 160.026 234.863C159.548 234.824 158.882 234.666 158.536 234.536C157.515 234.146 156.483 233.483 155.714 232.75C154.347 231.446 154.023 229.692 154.583 227.936C154.977 226.703 155.714 225.508 156.619 224.572C157.118 224.055 156.289 223.321 155.794 223.837Z" fill="#66B1FF"/>
            </g>
            <path d="M100.753 242.819L95.1687 231.466C94.5544 227.251 102.293 216.387 102.371 208.964C102.537 193.433 90.6684 188.532 88.5552 180.105C88.5552 180.105 91.7861 176.49 91.0459 173.723C89.9208 169.508 79.2994 165.052 75.6763 166.219C73.4372 166.941 72.7859 169.527 72.7859 169.527C61.8572 166.756 54.9402 168.927 51.3392 169.845C38.0938 173.227 30.9622 180.224 30.9622 180.224C29.023 178.609 28.4273 178.176 27.4724 178.405C24.1009 179.228 17.2061 185.902 17.4541 191.306C17.6058 194.629 23.1756 196.251 23.1756 196.251C24.6041 203.133 17.5799 215.242 22.0099 224.939C23.6197 228.462 28.0794 233.125 31.2732 236.818C31.177 238.389 30.1554 240.1 29.6299 241.707C8.89761 304.802 13.6719 342.305 13.6719 342.305C13.6719 342.305 36.7837 352.117 64.5328 352.121C96.2086 352.125 115.949 341.787 115.949 341.787C115.949 341.787 120.231 300.776 100.761 242.822L100.753 242.819Z" fill="#66B1FF"/>
            <path d="M85.9582 196.769C82.7459 194.26 63.1198 198.693 63.1198 198.693C63.1198 198.693 44.6104 202.416 43.2157 208.637C42.637 211.215 40.775 216.811 42.4664 220.289C44.5436 224.561 64.8929 232.683 72.5378 229.381C80.8244 228.507 92.327 211.647 92.6386 206.918C92.9168 202.642 88.7067 198.912 85.9618 196.769H85.9582Z" fill="white"/>
            <path d="M39.2939 186.523C39.9133 185.386 42.3016 182.036 49.0038 181.371C50.392 181.233 52.4742 182.933 51.0562 184.964C49.8173 186.741 42.309 189.774 40.891 189.727C39.4393 189.679 38.4542 188.063 39.2939 186.523Z" fill="#0073E4"/>
            <path d="M75.57 176.44C74.5086 175.737 70.8868 173.913 64.7629 176.224C63.4936 176.705 62.4723 179.04 64.6425 180.165C66.5355 181.143 74.4575 180.499 75.6648 179.852C76.9012 179.187 77.0107 177.39 75.57 176.437V176.44Z" fill="#0073E4"/>
            <path d="M65.9221 196.483C65.9221 196.483 53.6919 199.633 55.1335 203.392C56.5752 207.15 65.0343 211.59 69.4473 210.456C75.3313 208.94 79.1832 201.327 78.6659 197.328C78.1487 193.332 65.9185 196.483 65.9185 196.483H65.9221Z" fill="#0073E4"/>
            <path d="M56.9188 194.323C54.1628 192.09 49.9289 190.793 46.7395 192.847C45.1282 193.883 44.0207 195.52 43.2243 197.239C42.9242 197.887 43.8836 198.454 44.1836 197.802C45.3134 195.36 47.1841 193.052 50.0549 192.929C51.8774 192.851 53.648 193.537 55.1779 194.469C55.4409 194.629 55.7 194.797 55.9482 194.976C56.0186 195.024 56.0854 195.076 56.1521 195.129C56.2521 195.203 56.0261 195.028 56.1298 195.11C56.6817 195.557 57.4745 194.771 56.9152 194.32L56.9188 194.323Z" fill="#0073E4"/>
            <path d="M80.5261 186.965C77.5767 185.362 73.2586 184.721 70.6307 187.184C69.3073 188.422 68.6381 190.154 68.2713 191.844C68.1239 192.517 69.2165 192.807 69.364 192.13C69.8782 189.757 71.0845 187.305 73.8032 186.736C75.5085 186.382 77.3122 186.797 78.9229 187.42C78.9872 187.445 79.1309 187.502 79.3086 187.581C79.4183 187.631 79.5317 187.681 79.6413 187.731C79.7472 187.781 79.8531 187.831 79.9552 187.889C80.5904 188.232 81.1613 187.305 80.5261 186.962V186.965Z" fill="#0073E4"/>
            <path d="M22.9632 315.85C17.0082 287.075 29.9243 240.606 29.9243 240.606C29.9243 240.606 -11.3187 284.207 -9.75988 323.553C-9.55352 328.762 -7.11766 340.572 0.69462 341.437C0.69462 341.437 5.11294 347.852 9.58658 344.398C9.58658 344.398 12.5899 349.7 17.1004 345.826C19.4183 343.834 19.3372 339.6 18.847 336.357C19.245 336.71 19.6983 336.955 20.2032 337.055C24.2457 337.867 28.992 330.409 23.2765 316.584C23.1696 316.325 23.0665 316.084 22.9596 315.853L22.9632 315.85Z" fill="url(#paint4_linear_949_6056)"/>
            <path d="M82.48 207.158C77.7575 212.167 70.808 218.748 54.9422 213.152C54.0295 212.83 54.1383 214.334 61.842 219.379C66.3768 222.347 70.7662 223.818 73.7192 222.503C76.9601 221.062 78.4461 217.745 79.7531 215.315C83.097 209.096 83.9305 205.613 82.4757 207.155" fill="#143860"/>
            <path d="M78.7239 215.998C78.7239 215.998 69.5127 216.899 67.639 221.111C67.4247 221.597 70.2525 222.691 73.1132 221.886C73.9224 221.658 75.8876 220.55 77.1886 218.624" fill="#ED7865"/>
        </g>
    </g>
    <defs>
        <filter id="filter0_dddddd_949_6056" x="-40.4904" y="-12.7696" width="290.59" height="300.048" filterUnits="userSpaceOnUse" color-interpolation-filters="sRGB">
            <feFlood flood-opacity="0" result="BackgroundImageFix"/>
            <feColorMatrix in="SourceAlpha" type="matrix" values="0 0 0 0 0 0 0 0 0 0 0 0 0 0 0 0 0 0 127 0" result="hardAlpha"/>
            <feOffset/>
            <feGaussianBlur stdDeviation="1.60018"/>
            <feColorMatrix type="matrix" values="0 0 0 0 0 0 0 0 0 1 0 0 0 0 0.729412 0 0 0 1 0"/>
            <feBlend mode="normal" in2="BackgroundImageFix" result="effect1_dropShadow_949_6056"/>
            <feColorMatrix in="SourceAlpha" type="matrix" values="0 0 0 0 0 0 0 0 0 0 0 0 0 0 0 0 0 0 127 0" result="hardAlpha"/>
            <feOffset/>
            <feGaussianBlur stdDeviation="3.20036"/>
            <feColorMatrix type="matrix" values="0 0 0 0 0 0 0 0 0 1 0 0 0 0 0.729412 0 0 0 1 0"/>
            <feBlend mode="normal" in2="effect1_dropShadow_949_6056" result="effect2_dropShadow_949_6056"/>
            <feColorMatrix in="SourceAlpha" type="matrix" values="0 0 0 0 0 0 0 0 0 0 0 0 0 0 0 0 0 0 127 0" result="hardAlpha"/>
            <feOffset/>
            <feGaussianBlur stdDeviation="11.2013"/>
            <feColorMatrix type="matrix" values="0 0 0 0 0 0 0 0 0 1 0 0 0 0 0.729412 0 0 0 1 0"/>
            <feBlend mode="normal" in2="effect2_dropShadow_949_6056" result="effect3_dropShadow_949_6056"/>
            <feColorMatrix in="SourceAlpha" type="matrix" values="0 0 0 0 0 0 0 0 0 0 0 0 0 0 0 0 0 0 127 0" result="hardAlpha"/>
            <feOffset/>
            <feGaussianBlur stdDeviation="22.4025"/>
            <feColorMatrix type="matrix" values="0 0 0 0 0 0 0 0 0 1 0 0 0 0 0.729412 0 0 0 1 0"/>
            <feBlend mode="normal" in2="effect3_dropShadow_949_6056" result="effect4_dropShadow_949_6056"/>
            <feColorMatrix in="SourceAlpha" type="matrix" values="0 0 0 0 0 0 0 0 0 0 0 0 0 0 0 0 0 0 127 0" result="hardAlpha"/>
            <feOffset/>
            <feGaussianBlur stdDeviation="38.4043"/>
            <feColorMatrix type="matrix" values="0 0 0 0 0 0 0 0 0 1 0 0 0 0 0.729412 0 0 0 1 0"/>
            <feBlend mode="normal" in2="effect4_dropShadow_949_6056" result="effect5_dropShadow_949_6056"/>
            <feColorMatrix in="SourceAlpha" type="matrix" values="0 0 0 0 0 0 0 0 0 0 0 0 0 0 0 0 0 0 127 0" result="hardAlpha"/>
            <feOffset/>
            <feGaussianBlur stdDeviation="67.2076"/>
            <feColorMatrix type="matrix" values="0 0 0 0 0 0 0 0 0 1 0 0 0 0 0.729412 0 0 0 1 0"/>
            <feBlend mode="normal" in2="effect5_dropShadow_949_6056" result="effect6_dropShadow_949_6056"/>
            <feBlend mode="normal" in="SourceGraphic" in2="effect6_dropShadow_949_6056" result="shape"/>
        </filter>
        <filter id="filter1_dddddd_949_6056" x="-135.663" y="-91.4111" width="385.712" height="378.036" filterUnits="userSpaceOnUse" color-interpolation-filters="sRGB">
            <feFlood flood-opacity="0" result="BackgroundImageFix"/>
            <feColorMatrix in="SourceAlpha" type="matrix" values="0 0 0 0 0 0 0 0 0 0 0 0 0 0 0 0 0 0 127 0" result="hardAlpha"/>
            <feOffset/>
            <feGaussianBlur stdDeviation="2.16863"/>
            <feColorMatrix type="matrix" values="0 0 0 0 0 0 0 0 0 1 0 0 0 0 0.729412 0 0 0 1 0"/>
            <feBlend mode="normal" in2="BackgroundImageFix" result="effect1_dropShadow_949_6056"/>
            <feColorMatrix in="SourceAlpha" type="matrix" values="0 0 0 0 0 0 0 0 0 0 0 0 0 0 0 0 0 0 127 0" result="hardAlpha"/>
            <feOffset/>
            <feGaussianBlur stdDeviation="4.33725"/>
            <feColorMatrix type="matrix" values="0 0 0 0 0 0 0 0 0 1 0 0 0 0 0.729412 0 0 0 1 0"/>
            <feBlend mode="normal" in2="effect1_dropShadow_949_6056" result="effect2_dropShadow_949_6056"/>
            <feColorMatrix in="SourceAlpha" type="matrix" values="0 0 0 0 0 0 0 0 0 0 0 0 0 0 0 0 0 0 127 0" result="hardAlpha"/>
            <feOffset/>
            <feGaussianBlur stdDeviation="15.1804"/>
            <feColorMatrix type="matrix" values="0 0 0 0 0 0 0 0 0 1 0 0 0 0 0.729412 0 0 0 1 0"/>
            <feBlend mode="normal" in2="effect2_dropShadow_949_6056" result="effect3_dropShadow_949_6056"/>
            <feColorMatrix in="SourceAlpha" type="matrix" values="0 0 0 0 0 0 0 0 0 0 0 0 0 0 0 0 0 0 127 0" result="hardAlpha"/>
            <feOffset/>
            <feGaussianBlur stdDeviation="30.3608"/>
            <feColorMatrix type="matrix" values="0 0 0 0 0 0 0 0 0 1 0 0 0 0 0.729412 0 0 0 1 0"/>
            <feBlend mode="normal" in2="effect3_dropShadow_949_6056" result="effect4_dropShadow_949_6056"/>
            <feColorMatrix in="SourceAlpha" type="matrix" values="0 0 0 0 0 0 0 0 0 0 0 0 0 0 0 0 0 0 127 0" result="hardAlpha"/>
            <feOffset/>
            <feGaussianBlur stdDeviation="52.047"/>
            <feColorMatrix type="matrix" values="0 0 0 0 0 0 0 0 0 1 0 0 0 0 0.729412 0 0 0 1 0"/>
            <feBlend mode="normal" in2="effect4_dropShadow_949_6056" result="effect5_dropShadow_949_6056"/>
            <feColorMatrix in="SourceAlpha" type="matrix" values="0 0 0 0 0 0 0 0 0 0 0 0 0 0 0 0 0 0 127 0" result="hardAlpha"/>
            <feOffset/>
            <feGaussianBlur stdDeviation="91.0823"/>
            <feColorMatrix type="matrix" values="0 0 0 0 0 0 0 0 0 1 0 0 0 0 0.729412 0 0 0 1 0"/>
            <feBlend mode="normal" in2="effect5_dropShadow_949_6056" result="effect6_dropShadow_949_6056"/>
            <feBlend mode="normal" in="SourceGraphic" in2="effect6_dropShadow_949_6056" result="shape"/>
        </filter>
        <filter id="filter2_dddddd_949_6056" x="58.9859" y="45.115" width="387.258" height="388.477" filterUnits="userSpaceOnUse" color-interpolation-filters="sRGB">
            <feFlood flood-opacity="0" result="BackgroundImageFix"/>
            <feColorMatrix in="SourceAlpha" type="matrix" values="0 0 0 0 0 0 0 0 0 0 0 0 0 0 0 0 0 0 127 0" result="hardAlpha"/>
            <feOffset/>
            <feGaussianBlur stdDeviation="2.16863"/>
            <feColorMatrix type="matrix" values="0 0 0 0 0 0 0 0 0 1 0 0 0 0 0.729412 0 0 0 1 0"/>
            <feBlend mode="normal" in2="BackgroundImageFix" result="effect1_dropShadow_949_6056"/>
            <feColorMatrix in="SourceAlpha" type="matrix" values="0 0 0 0 0 0 0 0 0 0 0 0 0 0 0 0 0 0 127 0" result="hardAlpha"/>
            <feOffset/>
            <feGaussianBlur stdDeviation="4.33725"/>
            <feColorMatrix type="matrix" values="0 0 0 0 0 0 0 0 0 1 0 0 0 0 0.729412 0 0 0 1 0"/>
            <feBlend mode="normal" in2="effect1_dropShadow_949_6056" result="effect2_dropShadow_949_6056"/>
            <feColorMatrix in="SourceAlpha" type="matrix" values="0 0 0 0 0 0 0 0 0 0 0 0 0 0 0 0 0 0 127 0" result="hardAlpha"/>
            <feOffset/>
            <feGaussianBlur stdDeviation="15.1804"/>
            <feColorMatrix type="matrix" values="0 0 0 0 0 0 0 0 0 1 0 0 0 0 0.729412 0 0 0 1 0"/>
            <feBlend mode="normal" in2="effect2_dropShadow_949_6056" result="effect3_dropShadow_949_6056"/>
            <feColorMatrix in="SourceAlpha" type="matrix" values="0 0 0 0 0 0 0 0 0 0 0 0 0 0 0 0 0 0 127 0" result="hardAlpha"/>
            <feOffset/>
            <feGaussianBlur stdDeviation="30.3608"/>
            <feColorMatrix type="matrix" values="0 0 0 0 0 0 0 0 0 1 0 0 0 0 0.729412 0 0 0 1 0"/>
            <feBlend mode="normal" in2="effect3_dropShadow_949_6056" result="effect4_dropShadow_949_6056"/>
            <feColorMatrix in="SourceAlpha" type="matrix" values="0 0 0 0 0 0 0 0 0 0 0 0 0 0 0 0 0 0 127 0" result="hardAlpha"/>
            <feOffset/>
            <feGaussianBlur stdDeviation="52.047"/>
            <feColorMatrix type="matrix" values="0 0 0 0 0 0 0 0 0 1 0 0 0 0 0.729412 0 0 0 1 0"/>
            <feBlend mode="normal" in2="effect4_dropShadow_949_6056" result="effect5_dropShadow_949_6056"/>
            <feColorMatrix in="SourceAlpha" type="matrix" values="0 0 0 0 0 0 0 0 0 0 0 0 0 0 0 0 0 0 127 0" result="hardAlpha"/>
            <feOffset/>
            <feGaussianBlur stdDeviation="91.0823"/>
            <feColorMatrix type="matrix" values="0 0 0 0 0 0 0 0 0 1 0 0 0 0 0.729412 0 0 0 1 0"/>
            <feBlend mode="normal" in2="effect5_dropShadow_949_6056" result="effect6_dropShadow_949_6056"/>
            <feBlend mode="normal" in="SourceGraphic" in2="effect6_dropShadow_949_6056" result="shape"/>
        </filter>
        <filter id="filter3_dd_949_6056" x="-20.622" y="31.5127" width="274.48" height="283.414" filterUnits="userSpaceOnUse" color-interpolation-filters="sRGB">
            <feFlood flood-opacity="0" result="BackgroundImageFix"/>
            <feColorMatrix in="SourceAlpha" type="matrix" values="0 0 0 0 0 0 0 0 0 0 0 0 0 0 0 0 0 0 127 0" result="hardAlpha"/>
            <feOffset/>
            <feGaussianBlur stdDeviation="36.2752"/>
            <feColorMatrix type="matrix" values="0 0 0 0 0 0 0 0 0 1 0 0 0 0 0.729412 0 0 0 1 0"/>
            <feBlend mode="normal" in2="BackgroundImageFix" result="effect1_dropShadow_949_6056"/>
            <feColorMatrix in="SourceAlpha" type="matrix" values="0 0 0 0 0 0 0 0 0 0 0 0 0 0 0 0 0 0 127 0" result="hardAlpha"/>
            <feOffset/>
            <feGaussianBlur stdDeviation="63.4816"/>
            <feColorMatrix type="matrix" values="0 0 0 0 0 0 0 0 0 1 0 0 0 0 0.729412 0 0 0 1 0"/>
            <feBlend mode="normal" in2="effect1_dropShadow_949_6056" result="effect2_dropShadow_949_6056"/>
            <feBlend mode="normal" in="SourceGraphic" in2="effect2_dropShadow_949_6056" result="shape"/>
        </filter>
        <filter id="filter4_d_949_6056" x="77.0437" y="125.535" width="135.766" height="132.715" filterUnits="userSpaceOnUse" color-interpolation-filters="sRGB">
            <feFlood flood-opacity="0" result="BackgroundImageFix"/>
            <feColorMatrix in="SourceAlpha" type="matrix" values="0 0 0 0 0 0 0 0 0 0 0 0 0 0 0 0 0 0 127 0" result="hardAlpha"/>
            <feOffset/>
            <feGaussianBlur stdDeviation="29.6567"/>
            <feColorMatrix type="matrix" values="0 0 0 0 0 0 0 0 0 1 0 0 0 0 0.729412 0 0 0 1 0"/>
            <feBlend mode="normal" in2="BackgroundImageFix" result="effect1_dropShadow_949_6056"/>
            <feBlend mode="normal" in="SourceGraphic" in2="effect1_dropShadow_949_6056" result="shape"/>
        </filter>
        <linearGradient id="paint0_linear_949_6056" x1="154.164" y1="198.371" x2="109.773" y2="275.975" gradientUnits="userSpaceOnUse">
            <stop stop-color="#0F8AEF"/>
            <stop offset="0.3" stop-color="#2B96F4"/>
            <stop offset="0.83" stop-color="#66B1FF"/>
        </linearGradient>
        <linearGradient id="paint1_linear_949_6056" x1="10.0619" y1="347.24" x2="10.0619" y2="240.606" gradientUnits="userSpaceOnUse">
            <stop stop-color="#0F8AEF"/>
            <stop offset="0.3" stop-color="#2B96F4"/>
            <stop offset="0.83" stop-color="#66B1FF"/>
        </linearGradient>
        <linearGradient id="paint2_linear_949_6056" x1="154.164" y1="198.37" x2="109.773" y2="275.973" gradientUnits="userSpaceOnUse">
            <stop stop-color="#0F8AEF"/>
            <stop offset="0.3" stop-color="#2B96F4"/>
            <stop offset="0.83" stop-color="#66B1FF"/>
        </linearGradient>
        <linearGradient id="paint3_linear_949_6056" x1="151.668" y1="197.89" x2="110.048" y2="278.338" gradientUnits="userSpaceOnUse">
            <stop stop-color="#0F8AEF"/>
            <stop offset="0.3" stop-color="#2B96F4"/>
            <stop offset="0.83" stop-color="#66B1FF"/>
        </linearGradient>
        <linearGradient id="paint4_linear_949_6056" x1="10.0619" y1="347.24" x2="10.0619" y2="240.606" gradientUnits="userSpaceOnUse">
            <stop stop-color="#0F8AEF"/>
            <stop offset="0.3" stop-color="#2B96F4"/>
            <stop offset="0.83" stop-color="#66B1FF"/>
        </linearGradient>
        <clipPath id="clip0_949_6056">
            <rect width="336" height="328" fill="white" transform="translate(0.5)"/>
        </clipPath>
        <clipPath id="clip1_949_6056">
            <path d="M18.0758 247.576H219.5V288H30.6212C23.6926 288 18.0758 282.383 18.0758 275.454V247.576Z" fill="white"/>
        </clipPath>
        <clipPath id="clip2_949_6056">
            <rect width="62.7273" height="66.9091" fill="white" transform="matrix(-0.0909521 -0.995855 0.995949 -0.0899242 112.864 256.636)"/>
        </clipPath>
        <clipPath id="clip3_949_6056">
            <rect width="7.66667" height="15.3333" fill="white" transform="matrix(0.481688 0.876343 -0.876911 0.480652 149.803 184.849)"/>
        </clipPath>
        <clipPath id="clip4_949_6056">
            <rect width="207" height="122.667" fill="white" transform="translate(12.5 127)"/>
        </clipPath>
        <clipPath id="clip5_949_6056">
            <rect width="42.5151" height="136.606" fill="white" transform="matrix(0.70913 -0.705078 0.70913 0.705078 119.833 203.665)"/>
        </clipPath>
    </defs>
</svg>
