<svg width="306" height="197" viewBox="0 0 306 197" fill="none" xmlns="http://www.w3.org/2000/svg">
<path d="M72.0203 130.372L70.9746 144.115L57.232 145.16L70.9746 146.206L72.0203 159.949L73.066 146.206L86.8086 145.16L73.066 144.115L72.0203 130.372Z" fill="url(#paint0_radial_94_6341)"/>
<path d="M72.0203 130.372L70.9746 144.115L57.232 145.16L70.9746 146.206L72.0203 159.949L73.066 146.206L86.8086 145.16L73.066 144.115L72.0203 130.372Z" fill="url(#paint1_radial_94_6341)"/>
<g clip-path="url(#clip0_94_6341)">
<path d="M109.603 123.712C107.809 119.491 107.852 114.71 109.719 110.522C112.099 105.208 115.161 98.9247 115.216 93.9843C115.405 76.3703 101.849 70.8102 99.4339 61.2523C99.4339 61.2523 103.125 57.1554 102.277 54.0139C100.993 49.2328 88.8582 44.1762 84.7221 45.5017C82.1531 46.3194 81.4209 49.2543 81.4209 49.2543C68.9398 46.1128 61.0401 48.5743 56.9254 49.6158C41.8025 53.4544 33.6588 61.4029 33.6588 61.4029C31.4452 59.5696 30.7644 59.0791 29.6726 59.3416C25.8191 60.2754 17.9451 67.8452 18.2276 73.9733C18.3989 77.7431 24.7615 79.5678 24.7615 79.5678C26.3928 87.3699 18.3689 101.107 23.4298 112.106C24.6801 114.826 27.4418 118.131 30.2249 121.307C32.4428 123.811 32.8239 127.461 31.1669 130.37C23.8409 143.25 5.34407 179.395 12.229 205.332L138.483 203.714C138.483 203.714 153.657 172.643 109.607 123.734" fill="#66B1FF"/>
<path d="M106.292 160.154C88.9973 145.155 73.4196 161.496 72.167 162.863C70.6605 161.771 52.0526 148.892 38.1924 167.035C27.9866 180.396 33.1863 200.62 39.6774 215.138L112.564 215.787C117.213 200.405 121.465 173.313 106.292 160.154Z" fill="white"/>
<path d="M96.9144 79.9387C93.2643 77.0867 70.9622 82.1257 70.9622 82.1257C70.9622 82.1257 52.3317 86.0264 48.3357 93.4443C46.9098 96.1002 44.6088 103.356 47.4819 106.703C50.9271 110.714 65.2202 122.681 75.5985 121.624C84.9906 120.63 102.029 99.9881 102.379 94.6081C102.695 89.7439 100.022 82.3772 96.9016 79.9344" fill="white"/>
<path d="M82.611 53.1185C81.3476 52.2983 77.0566 50.225 70.119 53.5331C68.6759 54.2227 67.618 57.2423 70.1832 58.5268C72.4187 59.649 81.5318 58.333 82.8936 57.4361C84.2554 56.5392 84.324 54.2362 82.6067 53.1185" fill="#0073E4"/>
<path d="M42.502 64.1787C43.271 62.9517 46.1752 59.3652 53.8224 58.9617C55.4034 58.8752 57.6719 60.8558 55.9405 63.0381C54.4326 64.9405 45.7328 67.9216 44.126 67.8022C42.5192 67.6828 41.4623 65.8422 42.4977 64.1787" fill="#0073E4"/>
<path d="M74.7632 79.6301C74.7632 79.6301 60.6492 83.2649 62.3299 87.6003C64.0105 91.9357 73.7514 97.0593 78.8448 95.7456C85.6317 93.9939 90.0777 85.2355 89.4818 80.6067C88.8858 75.9779 74.7761 79.6301 74.7761 79.6301" fill="#0073E4"/>
<path d="M57.3625 97.0712C63.7648 101.778 73.0218 107.806 89.8652 98.1615C90.8339 97.6058 91.0234 99.336 83.3293 106.661C78.7999 110.971 74.124 113.552 70.4987 112.672C66.5204 111.708 64.1438 108.252 62.1546 105.764C57.0654 99.3992 55.3948 95.6189 57.3668 97.067" fill="#143860"/>
<path d="M61.2313 76.0425C62.0003 79.5084 59.8408 82.9437 56.4127 83.7202C56.3996 83.7202 56.3866 83.7246 56.3692 83.729C52.9193 84.5187 49.4824 82.3514 48.6743 78.8723C47.9052 75.4063 50.0647 71.9711 53.4929 71.1946C53.5059 71.1946 53.5189 71.1902 53.5363 71.1858C56.9862 70.3961 60.4231 72.5634 61.2313 76.0425Z" fill="white"/>
<path d="M87.7737 68.8109C88.539 72.2773 86.3778 75.7131 82.9425 76.4853C82.9338 76.4853 82.9252 76.4853 82.9165 76.4897C79.4638 77.2795 76.0242 75.1119 75.2154 71.6323C74.4457 68.1659 76.6069 64.7302 80.0378 63.9535C80.0508 63.9535 80.0639 63.9491 80.0813 63.9447C83.534 63.1593 86.9692 65.3313 87.7737 68.8109Z" fill="white"/>
<path d="M84.2977 157.631L85.6385 157.86C86.4157 157.995 87.1588 157.483 87.2997 156.712L88.7259 147.879C88.8626 147.113 86.8 146.774 86.8 146.774C85.7837 146.503 85.1517 146.545 85.0151 147.312L83.1234 156.018C82.991 156.784 83.5077 157.513 84.2849 157.648H84.2934" fill="#F4901E"/>
<path d="M125.885 140.304L125.807 140.552C125.501 141.541 126.104 142.575 127.147 142.864C127.151 142.864 127.155 142.864 127.164 142.868L131.803 144.133C132.858 144.422 133.961 143.857 134.28 142.864L134.358 142.615C134.668 141.627 134.788 140.939 133.711 140.65L128.099 138.632C127.039 138.343 126.212 139.295 125.902 140.288" fill="#F4901E"/>
<path d="M118.169 215.269C109.679 216.392 87.5588 215.334 87.5588 215.334C83.0094 214.836 78.6703 212.762 79.1124 206.731C80.2282 191.423 83.3142 167.256 88.5846 142.398C89.928 136.058 91.3958 132.471 99.9238 134.177C109.104 136.016 124.066 138.802 132.306 142.12C137.426 144.181 138.508 146.278 137.392 152.802C134.663 168.722 130.336 194.608 125.332 210.027C124.07 213.911 122.199 214.742 118.173 215.265" fill="#FFBC00"/>
<path d="M97.6284 157.781L94.7713 157.388C92.8736 156.943 91.6583 155.082 92.008 153.162L94.0933 142.08C94.4345 140.283 96.1572 139.103 97.9482 139.441C98.0463 139.458 98.1487 139.483 98.2468 139.513L101.496 140.369C103.373 140.873 104.311 142.392 103.927 144.278L101.688 155.215C101.317 157.02 99.5602 158.183 97.7606 157.811C97.718 157.803 97.6711 157.794 97.6284 157.781Z" fill="#F4901E"/>
<path d="M102.707 142.65C103.662 144.083 103.208 145.974 101.699 146.878C101.616 146.928 101.529 146.973 101.442 147.015C99.697 147.877 97.5424 147.341 96.4738 145.776C95.5142 144.347 95.9635 142.456 97.4726 141.548C97.5729 141.486 97.6776 141.432 97.7822 141.383C99.5313 140.54 101.673 141.098 102.724 142.667" fill="#333333"/>
<path d="M100.728 153.463C100.26 155.413 98.3369 156.621 96.4009 156.183C94.4871 155.722 93.2628 153.821 93.6208 151.862C94.0805 149.889 96.0341 148.668 97.9833 149.133H97.9921C99.8926 149.612 101.095 151.508 100.732 153.458" fill="#333333"/>
<path d="M118.488 173.487C118.53 177.706 115.143 181.161 110.924 181.203C106.706 181.246 103.25 177.858 103.208 173.639C103.166 169.42 106.553 165.965 110.772 165.923C110.797 165.923 110.823 165.923 110.848 165.923C115.046 165.906 118.462 169.289 118.488 173.487Z" fill="#F4901E"/>
<path d="M110.941 198.209C116.022 190.397 111.964 186.937 111.964 186.937C111.964 186.937 119.297 179.95 116.052 173.836C113.3 168.649 108.513 170.854 108.513 170.854C112.268 166.986 115.611 162.78 110.384 158.126C104.254 152.669 93.132 161.048 85.1266 167.274L86.2524 160.047C87.3783 151.199 79.8311 149.863 76.9286 151.135C73.0115 152.853 70.9352 156.368 70.4471 163.802C70.2845 166.037 69.5867 168.198 68.4137 170.102C67.0566 172.34 65.9093 174.7 64.9889 177.149C55.0999 186.173 27.9072 183.968 21.9609 178.068C20.4754 176.595 19.9146 174.553 21.5628 170.411C26.0065 159.239 31.7986 128.124 31.7986 128.124C-6.65736 166.698 -20.0739 182.748 -10.3689 203.61C0.0637665 226.045 38.8836 233.951 80.075 220.368C80.075 220.36 100.393 214.426 110.941 198.209Z" fill="url(#paint2_linear_94_6341)"/>
<path d="M111.252 170.749C110.552 170.782 109.865 170.93 109.216 171.185C109.763 170.638 103.182 176.26 98.6994 178.482C97.9828 178.836 98.6146 179.877 99.3313 179.523C103.805 177.305 107.842 174.334 111.248 170.749" fill="#66B1FF"/>
<path d="M112.855 187.858C112.652 187.477 112.389 187.134 112.079 186.835C108.038 191.272 103.235 194.961 97.8965 197.738C97.1721 198.114 97.8146 199.197 98.5433 198.82C103.925 196.022 108.767 192.316 112.859 187.862" fill="#66B1FF"/>
<path d="M127.243 161.566C124.592 166.436 127.76 170.835 131.253 173.863C127.875 172.201 124.031 171.457 122.244 175.199C119.807 180.306 121.598 184.283 127.2 188.617C124.715 187.375 121.722 186.856 120.209 190.253C116.467 198.655 125.404 205.183 125.404 205.183C126.426 209.478 130.373 210.977 133.785 210.96C145.082 210.913 148.276 198.728 148.246 187.066C148.212 174.133 145.749 168.966 144.026 166.067C142.247 163.06 136.581 158.688 132.053 158.688C130.026 158.615 128.145 159.74 127.243 161.566Z" fill="url(#paint3_linear_94_6341)"/>
<path d="M135.975 176.055C133.653 173.897 131.009 172.11 128.141 170.749C128.953 171.773 129.867 172.717 130.87 173.564C130.633 173.451 133.64 175.583 135.18 177.02C135.768 177.568 136.563 176.599 135.98 176.068" fill="#66B1FF"/>
<path d="M132.492 190.52C130.562 190.066 128.698 189.38 126.947 188.485C126.065 188.048 125.109 187.76 124.118 187.638C126.45 189.566 129.241 190.938 132.254 191.639C133.027 191.821 133.261 190.685 132.492 190.508" fill="#66B1FF"/>
<path d="M64.6052 106.484C64.6052 106.484 75.2474 105.595 78.2502 109.987C78.5946 110.494 75.6127 112.323 72.1983 112.002C71.2323 111.911 68.7713 111.062 66.894 109.146" fill="#ED7865"/>
<mask id="mask0_94_6341" style="mask-type:luminance" maskUnits="userSpaceOnUse" x="48" y="71" width="14" height="13">
<path d="M61.2313 76.0415C62.0003 79.5075 59.8408 82.9427 56.4127 83.7192C56.3996 83.7192 56.3866 83.7236 56.3692 83.728C52.9193 84.5177 49.4824 82.3504 48.6743 78.8713C47.9052 75.4054 50.0647 71.9701 53.4929 71.1936C53.5059 71.1936 53.5189 71.1892 53.5363 71.1848C56.9862 70.3951 60.4231 72.5624 61.2313 76.0415Z" fill="white"/>
</mask>
<g mask="url(#mask0_94_6341)">
<path d="M50.9311 79.0647C50.9311 81.7283 53.093 83.8902 55.7565 83.8902C58.4201 83.8902 60.582 81.7283 60.582 79.0647C60.582 76.4012 58.4201 74.2393 55.7565 74.2393C53.093 74.2393 50.9311 76.4012 50.9311 79.0647Z" fill="#333333"/>
</g>
<mask id="mask1_94_6341" style="mask-type:luminance" maskUnits="userSpaceOnUse" x="75" y="63" width="13" height="14">
<path d="M87.7737 68.8099C88.539 72.2764 86.3778 75.7121 82.9425 76.4844C82.9338 76.4844 82.9252 76.4844 82.9165 76.4887C79.4638 77.2786 76.0242 75.111 75.2154 71.6314C74.4457 68.1649 76.6069 64.7292 80.0378 63.9525C80.0508 63.9525 80.0639 63.9481 80.0813 63.9437C83.534 63.1583 86.9692 65.3303 87.7737 68.8099Z" fill="white"/>
</mask>
<g mask="url(#mask1_94_6341)">
<path d="M77.4736 71.8255C77.4736 74.4901 79.4544 76.6509 81.897 76.6509C84.3396 76.6509 86.3203 74.4901 86.3203 71.8255C86.3203 69.1608 84.3396 67 81.897 67C79.4544 67 77.4736 69.1608 77.4736 71.8255Z" fill="#333333"/>
</g>
<path d="M49.3244 85.029C49.3244 85.029 54.9585 80.3263 63.8008 79.8691V82.7898L51.0435 88.7158L49.3244 85.029Z" fill="#66B1FF"/>
<path d="M75.0597 77.0535C75.0597 77.0535 81.7224 73.0267 91.1445 74.6084L89.2264 77.5931L75.5476 78.2615L75.0597 77.0535Z" fill="#66B1FF"/>
</g>
<path d="M139.576 129.996C139.672 129.289 140.28 127.641 141.94 126.707C143.601 125.773 145.244 126.055 145.858 126.313" stroke="#0647C7" stroke-width="1.01386" stroke-linecap="round"/>
<path d="M134.355 120.428C134.992 120.831 136.759 121.521 138.734 121.06C140.709 120.599 141.697 119.348 141.945 118.781" stroke="#0647C7" stroke-width="1.01386" stroke-linecap="round"/>
<path d="M138.705 124.777C141.929 123.601 142.44 123.104 143.533 122.555" stroke="#0647C7" stroke-width="1.01386" stroke-linecap="round"/>
<path d="M131.746 126.517C135.091 125.751 135.66 125.322 136.812 124.913" stroke="#0647C7" stroke-width="1.01386" stroke-linecap="round"/>
<path d="M200.804 101.143C216.314 105.241 241.359 111.4 247.058 117.493C252.757 123.586 248.682 140.258 242.481 144.597C237.833 147.848 234.251 147.915 188.025 135.256C156.261 126.558 151.933 124.64 147.569 119.376C143.204 114.112 146.338 97.9205 154.011 94.3106C164.673 89.2967 186.168 97.2752 200.804 101.143Z" fill="#0647C7"/>
<path d="M169.297 103.199C169.346 103.015 169.453 102.879 169.616 102.79C169.785 102.702 169.965 102.683 170.154 102.734C170.308 102.775 170.432 102.856 170.527 102.977C170.623 103.091 170.699 103.257 170.755 103.475L171.555 106.459L173.332 104.157C173.465 103.989 173.596 103.879 173.725 103.824C173.854 103.77 174.004 103.766 174.176 103.812C174.347 103.858 174.479 103.947 174.57 104.079C174.663 104.206 174.685 104.361 174.636 104.544C174.607 104.651 174.539 104.775 174.431 104.918L171.702 108.325C171.329 108.796 170.965 109.123 170.611 109.308C170.259 109.486 169.867 109.517 169.435 109.401C169.322 109.371 169.205 109.324 169.083 109.26C168.937 109.189 168.824 109.076 168.745 108.922C168.666 108.767 168.648 108.607 168.693 108.441C168.713 108.364 168.753 108.286 168.813 108.207C168.93 108.054 169.07 107.981 169.233 107.987C169.404 107.988 169.584 108.014 169.774 108.065C169.892 108.097 169.996 108.099 170.086 108.072C170.175 108.046 170.268 107.972 170.363 107.852L170.493 107.687L169.316 103.661C169.267 103.489 169.261 103.335 169.297 103.199ZM176.425 106.432C176.363 106.663 176.337 106.856 176.347 107.01C176.357 107.159 176.391 107.282 176.447 107.38C176.51 107.479 176.59 107.558 176.689 107.616C176.789 107.668 176.895 107.709 177.008 107.739C177.185 107.787 177.359 107.802 177.529 107.784C177.704 107.768 177.876 107.728 178.045 107.666L178.571 105.703C178.62 105.52 178.727 105.381 178.892 105.285C179.063 105.192 179.252 105.172 179.459 105.228C179.666 105.284 179.817 105.394 179.913 105.559C180.014 105.726 180.04 105.901 179.991 106.084L178.636 111.145C178.587 111.328 178.477 111.467 178.306 111.56C178.141 111.656 177.955 111.676 177.748 111.62C177.541 111.565 177.387 111.453 177.285 111.287C177.19 111.122 177.167 110.947 177.216 110.764L177.698 108.962C177.541 109.027 177.341 109.066 177.097 109.076C176.859 109.089 176.583 109.053 176.269 108.969C176.044 108.908 175.825 108.815 175.612 108.688C175.405 108.563 175.23 108.398 175.087 108.195C174.951 107.994 174.857 107.753 174.805 107.473C174.761 107.188 174.789 106.856 174.891 106.477L175.33 104.835C175.38 104.652 175.487 104.512 175.652 104.417C175.823 104.323 176.012 104.304 176.219 104.36C176.426 104.415 176.577 104.525 176.673 104.69C176.774 104.857 176.8 105.032 176.751 105.216L176.425 106.432ZM183.985 111.798L181.526 111.139L180.901 111.98C180.812 112.102 180.699 112.189 180.565 112.242C180.43 112.295 180.28 112.299 180.114 112.254C179.931 112.205 179.797 112.103 179.711 111.947C179.632 111.792 179.615 111.632 179.659 111.466C179.686 111.366 179.723 111.287 179.77 111.23L183.079 106.902C183.217 106.717 183.372 106.588 183.545 106.513C183.718 106.433 183.915 106.422 184.134 106.481C184.358 106.541 184.521 106.645 184.621 106.792C184.721 106.94 184.788 107.129 184.821 107.36L185.535 112.689C185.547 112.788 185.541 112.881 185.517 112.97C185.468 113.153 185.36 113.296 185.193 113.397C185.027 113.498 184.843 113.522 184.642 113.468C184.482 113.425 184.354 113.346 184.258 113.232C184.167 113.119 184.114 112.987 184.097 112.837L183.985 111.798ZM183.587 108.38L182.415 109.95L183.809 110.324L183.587 108.38ZM191.353 110.024C191.252 109.997 191.143 109.942 191.026 109.86C190.945 109.807 190.846 109.752 190.728 109.695C190.616 109.639 190.48 109.59 190.32 109.547C190.077 109.482 189.838 109.463 189.603 109.488C189.375 109.51 189.16 109.579 188.958 109.696C188.761 109.814 188.584 109.979 188.426 110.191C188.275 110.398 188.159 110.655 188.076 110.963C188.002 111.241 187.978 111.508 188.005 111.762C188.039 112.013 188.116 112.246 188.236 112.462C188.358 112.672 188.521 112.855 188.726 113.012C188.933 113.162 189.176 113.275 189.454 113.35C189.709 113.418 189.957 113.44 190.198 113.416C190.356 113.395 190.503 113.402 190.639 113.439C190.751 113.469 190.842 113.519 190.913 113.588C190.989 113.659 191.041 113.759 191.07 113.887C191.095 114.008 191.094 114.119 191.067 114.22C190.997 114.48 190.798 114.645 190.468 114.716C190.265 114.763 190.035 114.78 189.778 114.769C189.52 114.763 189.249 114.722 188.965 114.646C188.485 114.517 188.065 114.322 187.704 114.06C187.348 113.8 187.063 113.492 186.847 113.136C186.639 112.776 186.508 112.379 186.453 111.946C186.399 111.506 186.437 111.044 186.567 110.559C186.686 110.115 186.866 109.716 187.106 109.361C187.353 109.009 187.651 108.724 188.001 108.507C188.351 108.29 188.749 108.153 189.196 108.095C189.65 108.033 190.144 108.073 190.676 108.216C190.949 108.289 191.187 108.381 191.392 108.493C191.598 108.599 191.752 108.7 191.853 108.797C192.122 109.047 192.224 109.293 192.159 109.536C192.129 109.648 192.069 109.753 191.98 109.85C191.799 110.029 191.59 110.087 191.353 110.024ZM194.56 115.413C194.511 115.596 194.401 115.735 194.23 115.829C194.065 115.924 193.879 115.944 193.672 115.888C193.465 115.833 193.31 115.722 193.209 115.555C193.114 115.39 193.091 115.216 193.14 115.032L194.293 110.726L193.094 110.405C192.911 110.356 192.771 110.249 192.676 110.084C192.581 109.918 192.557 109.744 192.607 109.561C192.656 109.377 192.763 109.238 192.928 109.143C193.093 109.047 193.267 109.024 193.451 109.073L197.268 110.096C197.451 110.146 197.591 110.253 197.686 110.418C197.781 110.583 197.804 110.757 197.755 110.941C197.706 111.124 197.599 111.264 197.434 111.359C197.269 111.454 197.095 111.477 196.911 111.428L195.713 111.107L194.56 115.413ZM200.709 110.981C201.082 111.081 201.388 111.207 201.626 111.36C201.872 111.508 202.058 111.675 202.186 111.862C202.321 112.044 202.402 112.24 202.428 112.45C202.454 112.66 202.439 112.872 202.382 113.085C202.295 113.41 202.159 113.669 201.974 113.86C201.796 114.054 201.571 114.196 201.299 114.288C201.398 114.366 201.491 114.457 201.577 114.563C201.663 114.668 201.732 114.791 201.783 114.932C201.834 115.072 201.862 115.229 201.866 115.401C201.878 115.57 201.858 115.754 201.804 115.956C201.717 116.281 201.581 116.549 201.398 116.76C201.216 116.965 200.997 117.119 200.742 117.222C200.486 117.325 200.203 117.375 199.892 117.375C199.587 117.375 199.266 117.331 198.929 117.24C198.757 117.194 198.575 117.142 198.381 117.084C198.186 117.032 197.997 116.978 197.815 116.923C197.726 116.899 197.646 116.855 197.574 116.792C197.509 116.73 197.451 116.66 197.402 116.584C197.36 116.503 197.332 116.419 197.317 116.332C197.303 116.24 197.309 116.149 197.332 116.061L198.637 111.187C198.686 111.003 198.793 110.864 198.959 110.768C199.125 110.667 199.301 110.638 199.486 110.682C199.679 110.72 199.881 110.768 200.094 110.826C200.309 110.877 200.514 110.929 200.709 110.981ZM198.936 115.758C198.98 115.782 199.033 115.809 199.095 115.838C199.163 115.869 199.265 115.903 199.401 115.94C199.679 116.014 199.9 116.016 200.065 115.946C200.231 115.87 200.341 115.732 200.395 115.53C200.444 115.347 200.426 115.202 200.34 115.097C200.26 114.993 200.155 114.889 200.024 114.784L199.969 114.741C199.875 114.665 199.795 114.574 199.729 114.467C199.669 114.356 199.662 114.218 199.706 114.052C199.752 113.88 199.83 113.768 199.939 113.715C200.056 113.657 200.173 113.612 200.289 113.58L200.361 113.561C200.463 113.538 200.559 113.497 200.651 113.439C200.742 113.381 200.815 113.252 200.869 113.05C200.92 112.861 200.886 112.703 200.768 112.576C200.651 112.443 200.507 112.354 200.335 112.308C200.246 112.284 200.169 112.266 200.102 112.255C200.041 112.245 199.968 112.235 199.882 112.224L198.936 115.758ZM205.463 119.068C204.99 118.941 204.571 118.749 204.209 118.494C203.846 118.238 203.554 117.931 203.332 117.574C203.111 117.216 202.97 116.817 202.911 116.376C202.851 115.935 202.888 115.466 203.021 114.969C203.141 114.519 203.334 114.12 203.598 113.772C203.863 113.425 204.176 113.144 204.537 112.93C204.905 112.718 205.312 112.582 205.759 112.525C206.212 112.468 206.687 112.507 207.184 112.64C207.657 112.767 208.075 112.958 208.438 113.214C208.801 113.47 209.093 113.777 209.315 114.134C209.536 114.492 209.677 114.891 209.736 115.332C209.796 115.773 209.759 116.242 209.626 116.739C209.499 117.213 209.3 117.625 209.028 117.977C208.758 118.324 208.436 118.599 208.064 118.804C207.692 119.009 207.284 119.137 206.839 119.189C206.395 119.235 205.936 119.195 205.463 119.068ZM206.827 113.972C206.567 113.902 206.315 113.882 206.073 113.912C205.83 113.942 205.606 114.019 205.402 114.142C205.198 114.265 205.021 114.43 204.87 114.637C204.72 114.844 204.606 115.089 204.53 115.373C204.459 115.64 204.44 115.901 204.473 116.157C204.505 116.413 204.579 116.649 204.693 116.863C204.808 117.072 204.963 117.253 205.156 117.406C205.35 117.559 205.571 117.669 205.82 117.736C206.115 117.815 206.386 117.837 206.63 117.801C206.882 117.761 207.104 117.677 207.296 117.551C207.496 117.421 207.665 117.251 207.804 117.04C207.943 116.83 208.047 116.595 208.117 116.335C208.193 116.05 208.214 115.78 208.181 115.524C208.154 115.269 208.08 115.037 207.959 114.827C207.843 114.618 207.688 114.44 207.493 114.293C207.298 114.145 207.076 114.038 206.827 113.972ZM213.505 114.411C213.878 114.51 214.183 114.637 214.422 114.789C214.667 114.938 214.854 115.105 214.982 115.292C215.117 115.474 215.198 115.67 215.224 115.88C215.25 116.09 215.235 116.301 215.178 116.514C215.091 116.84 214.955 117.099 214.77 117.29C214.592 117.483 214.366 117.626 214.094 117.718C214.194 117.795 214.287 117.887 214.373 117.992C214.459 118.098 214.527 118.221 214.579 118.362C214.63 118.502 214.658 118.659 214.662 118.831C214.674 118.999 214.653 119.184 214.599 119.385C214.512 119.711 214.377 119.979 214.194 120.19C214.012 120.395 213.793 120.549 213.537 120.651C213.281 120.754 212.998 120.805 212.688 120.804C212.383 120.805 212.062 120.76 211.725 120.67C211.553 120.624 211.37 120.572 211.177 120.514C210.981 120.461 210.793 120.407 210.611 120.352C210.522 120.329 210.442 120.285 210.37 120.221C210.304 120.159 210.247 120.09 210.197 120.013C210.156 119.932 210.127 119.849 210.112 119.762C210.099 119.67 210.104 119.579 210.128 119.49L211.433 114.616C211.482 114.433 211.589 114.293 211.754 114.198C211.921 114.097 212.097 114.068 212.282 114.111C212.474 114.15 212.677 114.198 212.89 114.255C213.105 114.306 213.31 114.358 213.505 114.411ZM211.731 119.187C211.776 119.212 211.829 119.239 211.891 119.268C211.959 119.299 212.06 119.333 212.197 119.369C212.475 119.444 212.696 119.446 212.861 119.376C213.027 119.3 213.137 119.161 213.191 118.96C213.24 118.777 213.222 118.632 213.136 118.527C213.056 118.423 212.95 118.318 212.82 118.214L212.765 118.17C212.671 118.094 212.591 118.003 212.524 117.897C212.465 117.786 212.458 117.647 212.502 117.481C212.548 117.31 212.626 117.197 212.735 117.144C212.852 117.087 212.969 117.042 213.085 117.01L213.157 116.991C213.258 116.967 213.355 116.927 213.446 116.869C213.538 116.811 213.611 116.681 213.665 116.48C213.715 116.291 213.682 116.132 213.563 116.006C213.447 115.873 213.302 115.783 213.131 115.737C213.042 115.714 212.964 115.696 212.898 115.684C212.837 115.675 212.763 115.664 212.677 115.654L211.731 119.187ZM219.338 121.274L216.879 120.615L216.254 121.456C216.164 121.578 216.052 121.665 215.918 121.718C215.783 121.77 215.633 121.775 215.467 121.73C215.284 121.681 215.149 121.578 215.064 121.422C214.985 121.268 214.968 121.108 215.012 120.942C215.039 120.842 215.076 120.763 215.123 120.705L218.432 116.378C218.57 116.193 218.725 116.063 218.897 115.989C219.071 115.909 219.268 115.898 219.486 115.957C219.711 116.017 219.874 116.121 219.974 116.268C220.074 116.415 220.141 116.605 220.174 116.836L220.888 122.165C220.9 122.263 220.894 122.357 220.87 122.446C220.821 122.629 220.713 122.771 220.546 122.873C220.38 122.974 220.196 122.998 219.995 122.944C219.835 122.901 219.707 122.822 219.611 122.708C219.52 122.595 219.467 122.463 219.45 122.312L219.338 121.274ZM218.94 117.856L217.768 119.426L219.162 119.799L218.94 117.856ZM224.001 123.304C223.952 123.487 223.842 123.626 223.671 123.72C223.506 123.815 223.319 123.835 223.112 123.779C222.905 123.724 222.751 123.613 222.65 123.446C222.554 123.281 222.531 123.107 222.58 122.923L223.733 118.617L222.535 118.296C222.351 118.247 222.212 118.14 222.116 117.975C222.021 117.81 221.998 117.635 222.047 117.452C222.096 117.268 222.203 117.129 222.368 117.034C222.533 116.938 222.708 116.915 222.891 116.964L226.708 117.988C226.892 118.037 227.031 118.144 227.127 118.309C227.222 118.474 227.245 118.648 227.196 118.832C227.147 119.015 227.04 119.155 226.875 119.25C226.71 119.345 226.535 119.368 226.352 119.319L225.153 118.998L224.001 123.304ZM228.376 123.649C228.456 123.683 228.528 123.712 228.591 123.735C228.655 123.758 228.719 123.779 228.784 123.796C229.074 123.874 229.325 123.871 229.538 123.789C229.756 123.708 229.907 123.51 229.991 123.197C230.031 123.049 230.037 122.917 230.011 122.802C229.992 122.683 229.946 122.582 229.873 122.499C229.802 122.41 229.71 122.338 229.598 122.283C229.488 122.221 229.368 122.173 229.237 122.138C229.178 122.122 229.111 122.111 229.037 122.104C228.971 122.092 228.891 122.08 228.799 122.069L228.376 123.649ZM228.259 125.083C228.087 125.037 227.916 124.988 227.746 124.936C227.575 124.89 227.412 124.846 227.258 124.805C227.07 124.748 226.928 124.64 226.831 124.481C226.742 124.318 226.722 124.141 226.773 123.952L228.104 118.98C228.153 118.797 228.26 118.657 228.425 118.562C228.596 118.468 228.785 118.449 228.992 118.505C229.199 118.56 229.351 118.67 229.446 118.835C229.547 119.002 229.573 119.177 229.524 119.361L229.158 120.728C229.274 120.746 229.38 120.765 229.476 120.785C229.572 120.804 229.653 120.823 229.718 120.84C230.121 120.948 230.456 121.092 230.725 121.272C230.994 121.452 231.199 121.659 231.339 121.893C231.487 122.123 231.573 122.381 231.598 122.666C231.625 122.946 231.595 123.246 231.51 123.566C231.421 123.897 231.28 124.186 231.087 124.433C230.902 124.675 230.671 124.863 230.394 124.998C230.122 125.135 229.807 125.212 229.447 125.23C229.087 125.247 228.691 125.198 228.259 125.083ZM174.254 115.278C174.627 115.378 174.933 115.505 175.171 115.657C175.417 115.805 175.603 115.973 175.731 116.159C175.866 116.341 175.947 116.538 175.973 116.748C175.999 116.958 175.984 117.169 175.927 117.382C175.84 117.708 175.704 117.966 175.519 118.158C175.341 118.351 175.116 118.494 174.844 118.586C174.943 118.663 175.036 118.755 175.122 118.86C175.208 118.966 175.277 119.089 175.328 119.229C175.379 119.37 175.407 119.526 175.411 119.699C175.423 119.867 175.402 120.052 175.349 120.253C175.261 120.578 175.126 120.847 174.943 121.058C174.761 121.263 174.542 121.417 174.287 121.519C174.031 121.622 173.747 121.673 173.437 121.672C173.132 121.673 172.811 121.628 172.474 121.538C172.302 121.492 172.12 121.44 171.926 121.381C171.731 121.329 171.542 121.275 171.36 121.22C171.271 121.196 171.191 121.153 171.119 121.089C171.053 121.027 170.996 120.958 170.947 120.881C170.905 120.8 170.877 120.716 170.862 120.63C170.848 120.537 170.854 120.447 170.877 120.358L172.182 115.484C172.231 115.301 172.338 115.161 172.503 115.066C172.67 114.965 172.846 114.936 173.031 114.979C173.223 115.018 173.426 115.066 173.639 115.123C173.854 115.174 174.059 115.226 174.254 115.278ZM172.481 120.055C172.525 120.08 172.578 120.107 172.64 120.136C172.708 120.167 172.81 120.2 172.946 120.237C173.224 120.311 173.445 120.314 173.61 120.244C173.776 120.168 173.886 120.029 173.94 119.828C173.989 119.644 173.971 119.5 173.885 119.394C173.805 119.291 173.7 119.186 173.569 119.081L173.514 119.038C173.42 118.962 173.34 118.871 173.273 118.764C173.214 118.653 173.207 118.515 173.251 118.349C173.297 118.178 173.375 118.065 173.484 118.012C173.601 117.955 173.718 117.91 173.834 117.877L173.906 117.859C174.007 117.835 174.104 117.794 174.196 117.736C174.287 117.679 174.36 117.549 174.414 117.348C174.464 117.158 174.431 117 174.312 116.873C174.196 116.741 174.052 116.651 173.88 116.605C173.791 116.581 173.713 116.564 173.647 116.552C173.586 116.542 173.513 116.532 173.427 116.522L172.481 120.055ZM180.167 120.393L179.53 122.772C179.481 122.956 179.371 123.095 179.2 123.188C179.035 123.284 178.849 123.303 178.642 123.248C178.434 123.192 178.28 123.081 178.179 122.915C178.084 122.749 178.061 122.575 178.11 122.392L179.464 117.331C179.513 117.148 179.621 117.008 179.786 116.913C179.957 116.819 180.146 116.8 180.353 116.856C180.56 116.911 180.711 117.022 180.807 117.187C180.908 117.353 180.934 117.529 180.885 117.712L180.314 119.843L182.74 117.924C182.901 117.796 183.039 117.719 183.154 117.692C183.275 117.668 183.404 117.674 183.54 117.71C183.753 117.767 183.894 117.868 183.963 118.014C184.033 118.153 184.048 118.3 184.007 118.454C183.958 118.637 183.854 118.787 183.696 118.903L181.674 120.378L182.787 123.151C182.85 123.294 182.86 123.449 182.815 123.615C182.768 123.792 182.665 123.939 182.507 124.056C182.356 124.168 182.175 124.195 181.962 124.138C181.808 124.097 181.679 124.021 181.575 123.911C181.479 123.796 181.386 123.622 181.296 123.389L180.167 120.393ZM186.247 125.305C185.773 125.178 185.355 124.987 184.992 124.731C184.629 124.475 184.337 124.169 184.116 123.811C183.894 123.454 183.754 123.055 183.694 122.614C183.635 122.173 183.672 121.704 183.805 121.206C183.925 120.757 184.118 120.358 184.382 120.01C184.646 119.662 184.959 119.381 185.321 119.167C185.689 118.955 186.096 118.82 186.543 118.762C186.995 118.706 187.47 118.744 187.967 118.878C188.441 119.005 188.859 119.196 189.222 119.452C189.585 119.708 189.877 120.014 190.098 120.372C190.32 120.729 190.46 121.129 190.52 121.57C190.579 122.01 190.542 122.48 190.409 122.977C190.283 123.45 190.083 123.863 189.811 124.215C189.541 124.561 189.22 124.837 188.848 125.042C188.476 125.246 188.068 125.375 187.622 125.427C187.179 125.473 186.72 125.432 186.247 125.305ZM187.611 120.209C187.351 120.14 187.099 120.12 186.856 120.15C186.613 120.18 186.39 120.256 186.186 120.379C185.982 120.502 185.804 120.667 185.654 120.874C185.503 121.081 185.39 121.327 185.314 121.611C185.243 121.877 185.223 122.139 185.256 122.395C185.289 122.651 185.362 122.886 185.476 123.101C185.592 123.309 185.746 123.49 185.94 123.644C186.134 123.797 186.355 123.907 186.603 123.974C186.899 124.053 187.169 124.075 187.414 124.039C187.665 123.998 187.887 123.915 188.08 123.789C188.28 123.659 188.449 123.488 188.588 123.278C188.726 123.068 188.831 122.833 188.9 122.572C188.976 122.288 188.998 122.018 188.965 121.762C188.938 121.507 188.864 121.275 188.743 121.065C188.627 120.856 188.472 120.678 188.277 120.531C188.081 120.383 187.859 120.276 187.611 120.209ZM195.927 121.744C195.976 121.56 196.083 121.421 196.248 121.326C196.419 121.232 196.608 121.213 196.815 121.268C197.022 121.324 197.174 121.434 197.269 121.599C197.37 121.766 197.396 121.941 197.347 122.124L195.992 127.185C195.943 127.368 195.833 127.507 195.662 127.601C195.497 127.696 195.311 127.716 195.104 127.66C194.897 127.605 194.743 127.494 194.641 127.327C194.546 127.162 194.523 126.988 194.572 126.804L195.088 124.878L192.824 124.271L192.308 126.197C192.259 126.381 192.149 126.52 191.978 126.613C191.813 126.709 191.627 126.728 191.42 126.673C191.213 126.617 191.059 126.506 190.957 126.34C190.862 126.175 190.839 126 190.888 125.817L192.243 120.756C192.292 120.573 192.399 120.433 192.564 120.338C192.735 120.244 192.924 120.225 193.131 120.281C193.338 120.336 193.49 120.447 193.585 120.612C193.686 120.778 193.712 120.954 193.663 121.137L193.181 122.939L195.444 123.546L195.927 121.744ZM199.647 125.614L199.01 127.994C198.961 128.177 198.85 128.316 198.679 128.409C198.514 128.505 198.328 128.525 198.121 128.469C197.914 128.414 197.76 128.302 197.659 128.136C197.563 127.971 197.54 127.796 197.589 127.613L198.944 122.552C198.993 122.369 199.1 122.23 199.265 122.134C199.436 122.041 199.625 122.021 199.832 122.077C200.04 122.133 200.191 122.243 200.286 122.408C200.387 122.575 200.413 122.75 200.364 122.933L199.794 125.064L202.22 123.145C202.381 123.017 202.519 122.94 202.634 122.914C202.755 122.889 202.883 122.895 203.019 122.931C203.232 122.988 203.373 123.09 203.442 123.235C203.513 123.374 203.527 123.521 203.486 123.675C203.437 123.858 203.334 124.008 203.176 124.124L201.154 125.6L202.267 128.372C202.33 128.516 202.339 128.67 202.295 128.836C202.247 129.014 202.145 129.161 201.987 129.277C201.836 129.389 201.654 129.416 201.441 129.359C201.287 129.318 201.159 129.242 201.055 129.132C200.959 129.017 200.866 128.843 200.776 128.61L199.647 125.614ZM204.367 123.987C204.416 123.804 204.523 123.667 204.686 123.578C204.855 123.49 205.035 123.471 205.224 123.522C205.378 123.563 205.502 123.644 205.597 123.765C205.693 123.879 205.769 124.046 205.825 124.264L206.625 127.247L208.402 124.945C208.535 124.778 208.666 124.667 208.795 124.612C208.924 124.558 209.074 124.554 209.246 124.6C209.417 124.646 209.549 124.735 209.64 124.868C209.733 124.994 209.755 125.149 209.706 125.332C209.677 125.439 209.609 125.563 209.501 125.706L206.772 129.113C206.399 129.584 206.035 129.912 205.681 130.096C205.329 130.274 204.937 130.305 204.505 130.19C204.392 130.16 204.275 130.112 204.153 130.048C204.007 129.977 203.894 129.864 203.815 129.71C203.736 129.555 203.718 129.395 203.763 129.23C203.783 129.153 203.823 129.075 203.883 128.995C204 128.843 204.14 128.769 204.303 128.775C204.474 128.776 204.654 128.802 204.844 128.853C204.962 128.885 205.066 128.887 205.156 128.861C205.245 128.834 205.338 128.76 205.433 128.64L205.563 128.475L204.386 124.449C204.337 124.277 204.331 124.123 204.367 123.987ZM209.972 131.646C209.765 131.59 209.611 131.479 209.509 131.312C209.414 131.147 209.391 130.973 209.44 130.789L210.771 125.818C210.822 125.628 210.926 125.488 211.083 125.397C211.248 125.302 211.426 125.277 211.617 125.321C211.836 125.38 212.058 125.44 212.283 125.5C212.516 125.556 212.706 125.604 212.854 125.643C213.327 125.77 213.709 125.933 213.998 126.131C214.288 126.329 214.504 126.552 214.647 126.799C214.791 127.041 214.872 127.297 214.888 127.568C214.91 127.841 214.886 128.11 214.815 128.376C214.742 128.649 214.627 128.9 214.47 129.131C214.315 129.356 214.129 129.54 213.912 129.685C213.696 129.83 213.451 129.93 213.176 129.983C212.909 130.032 212.625 130.016 212.323 129.935L212.279 129.923C212.084 129.871 211.933 129.77 211.827 129.621C211.727 129.474 211.705 129.294 211.762 129.081C211.813 128.891 211.9 128.756 212.023 128.675C212.152 128.595 212.285 128.551 212.42 128.543L212.449 128.541C212.526 128.537 212.607 128.533 212.69 128.53C212.773 128.527 212.854 128.507 212.934 128.472C213.013 128.436 213.085 128.379 213.151 128.301C213.216 128.224 213.268 128.111 213.308 127.963C213.382 127.685 213.353 127.474 213.22 127.331C213.087 127.187 212.894 127.081 212.639 127.013C212.545 126.988 212.452 126.966 212.362 126.948C212.279 126.926 212.163 126.898 212.013 126.864L210.86 131.17C210.811 131.354 210.701 131.492 210.53 131.586C210.365 131.681 210.179 131.701 209.972 131.646ZM220.025 129.097C219.925 129.07 219.816 129.016 219.698 128.934C219.617 128.88 219.518 128.825 219.4 128.768C219.288 128.713 219.152 128.663 218.992 128.621C218.749 128.556 218.51 128.536 218.275 128.562C218.048 128.583 217.832 128.652 217.63 128.769C217.433 128.888 217.256 129.053 217.098 129.264C216.947 129.471 216.831 129.729 216.748 130.036C216.674 130.315 216.65 130.581 216.677 130.836C216.712 131.086 216.789 131.319 216.908 131.535C217.03 131.745 217.193 131.929 217.399 132.085C217.606 132.236 217.848 132.348 218.126 132.423C218.381 132.491 218.629 132.513 218.87 132.489C219.028 132.468 219.175 132.476 219.311 132.512C219.423 132.542 219.515 132.592 219.585 132.662C219.661 132.733 219.713 132.832 219.743 132.961C219.767 133.082 219.766 133.192 219.739 133.293C219.67 133.553 219.47 133.719 219.14 133.789C218.937 133.836 218.707 133.854 218.451 133.842C218.192 133.836 217.921 133.795 217.637 133.719C217.157 133.59 216.737 133.395 216.376 133.134C216.02 132.873 215.735 132.565 215.52 132.21C215.312 131.849 215.18 131.452 215.125 131.019C215.071 130.58 215.109 130.117 215.239 129.632C215.358 129.188 215.538 128.789 215.778 128.435C216.025 128.082 216.323 127.797 216.673 127.58C217.023 127.363 217.421 127.226 217.868 127.168C218.322 127.106 218.816 127.146 219.349 127.289C219.621 127.362 219.859 127.454 220.064 127.566C220.27 127.672 220.424 127.774 220.525 127.871C220.794 128.12 220.896 128.367 220.831 128.609C220.801 128.722 220.742 128.826 220.652 128.923C220.471 129.103 220.262 129.161 220.025 129.097ZM223.967 133.874C224.15 133.923 224.29 134.031 224.385 134.196C224.481 134.361 224.504 134.535 224.455 134.719C224.405 134.902 224.298 135.041 224.133 135.137C223.968 135.232 223.794 135.255 223.61 135.206L221.169 134.552C220.986 134.502 220.846 134.395 220.751 134.23C220.656 134.065 220.633 133.891 220.682 133.707L221.989 128.824C222.038 128.641 222.145 128.502 222.31 128.406C222.475 128.311 222.649 128.288 222.833 128.337L225.185 128.968C225.369 129.017 225.508 129.124 225.604 129.289C225.699 129.454 225.722 129.628 225.673 129.812C225.624 129.995 225.517 130.135 225.352 130.23C225.187 130.325 225.012 130.348 224.829 130.299L223.231 129.871L222.939 130.963L224.27 131.32C224.454 131.369 224.593 131.476 224.688 131.641C224.784 131.806 224.807 131.981 224.758 132.164C224.709 132.348 224.602 132.487 224.437 132.582C224.271 132.678 224.097 132.701 223.914 132.652L222.582 132.295L222.28 133.422L223.967 133.874Z" fill="white"/>
<path opacity="0.1" d="M177.311 165.438L177.313 165.44L184.994 173.353L184.996 173.354L189.691 178.158L194.386 173.354L194.387 173.353L202.069 165.44L202.071 165.438C204.873 162.571 204.873 158.004 202.071 155.137L202.071 155.137L202.066 155.132C199.329 152.283 194.846 152.276 192.05 155.137L191.52 154.619L192.05 155.137L190.221 157.008L189.691 157.551L189.161 157.008L187.331 155.137C184.536 152.276 180.052 152.283 177.315 155.132L177.315 155.132L177.311 155.137C174.508 158.004 174.508 162.571 177.311 165.438Z" stroke="#FF0199" stroke-width="1.483"/>
<path d="M252.279 105.98C252.369 106.688 252.209 108.437 250.847 109.769C249.485 111.102 247.824 111.254 247.165 111.164" stroke="#0647C7" stroke-width="1.01386" stroke-linecap="round"/>
<path d="M259.799 113.872C259.08 113.648 257.194 113.438 255.406 114.395C253.618 115.351 252.987 116.815 252.894 117.427" stroke="#0647C7" stroke-width="1.01386" stroke-linecap="round"/>
<path d="M259.455 107.952C255.994 109.49 251.296 113.38 250.383 114.193" stroke="#0647C7" stroke-width="1.01386" stroke-linecap="round"/>
<path d="M57.2908 0.34668L56.6636 8.58888L48.4214 9.21604L56.6636 9.8432L57.2908 18.0854L57.918 9.8432L66.1602 9.21604L57.918 8.58888L57.2908 0.34668Z" fill="url(#paint4_radial_94_6341)"/>
<path d="M57.2908 0.34668L56.6636 8.58888L48.4214 9.21604L56.6636 9.8432L57.2908 18.0854L57.918 9.8432L66.1602 9.21604L57.918 8.58888L57.2908 0.34668Z" fill="url(#paint5_radial_94_6341)"/>
<path d="M296.822 125.715L296.195 133.957L287.953 134.584L296.195 135.211L296.822 143.454L297.449 135.211L305.691 134.584L297.449 133.957L296.822 125.715Z" fill="url(#paint6_radial_94_6341)"/>
<path d="M296.822 125.715L296.195 133.957L287.953 134.584L296.195 135.211L296.822 143.454L297.449 135.211L305.691 134.584L297.449 133.957L296.822 125.715Z" fill="url(#paint7_radial_94_6341)"/>
<defs>
<radialGradient id="paint0_radial_94_6341" cx="0" cy="0" r="1" gradientUnits="userSpaceOnUse" gradientTransform="translate(80.7683 133.216) rotate(130.538) scale(28.9871 40.0307)">
<stop stop-color="#FF00D6"/>
<stop offset="0.562168" stop-color="#FF004D"/>
<stop offset="1" stop-color="#FF6291"/>
</radialGradient>
<radialGradient id="paint1_radial_94_6341" cx="0" cy="0" r="1" gradientUnits="userSpaceOnUse" gradientTransform="translate(72.0145 136.183) rotate(43.2703) scale(19.5145 24.5654)">
<stop stop-color="#FFE7AB"/>
<stop offset="1" stop-color="#FABC22"/>
</radialGradient>
<linearGradient id="paint2_linear_94_6341" x1="101.818" y1="214.138" x2="1.7822" y2="156.603" gradientUnits="userSpaceOnUse">
<stop stop-color="#0F8AEF"/>
<stop offset="0.37" stop-color="#3D8AE7"/>
<stop offset="0.7" stop-color="#66B1FF"/>
</linearGradient>
<linearGradient id="paint3_linear_94_6341" x1="119.294" y1="184.824" x2="148.246" y2="184.824" gradientUnits="userSpaceOnUse">
<stop stop-color="#0F8AEF"/>
<stop offset="0.58" stop-color="#408DE9"/>
<stop offset="0.73" stop-color="#4390EA"/>
<stop offset="0.85" stop-color="#4D99F0"/>
<stop offset="0.96" stop-color="#5EAAFA"/>
<stop offset="1" stop-color="#66B1FF"/>
</linearGradient>
<radialGradient id="paint4_radial_94_6341" cx="0" cy="0" r="1" gradientUnits="userSpaceOnUse" gradientTransform="translate(62.5375 2.05232) rotate(130.538) scale(17.3852 24.0086)">
<stop stop-color="#FF00D6"/>
<stop offset="0.562168" stop-color="#FF004D"/>
<stop offset="1" stop-color="#FF6291"/>
</radialGradient>
<radialGradient id="paint5_radial_94_6341" cx="0" cy="0" r="1" gradientUnits="userSpaceOnUse" gradientTransform="translate(57.2873 3.83194) rotate(43.2703) scale(11.7039 14.7332)">
<stop stop-color="#FFE7AB"/>
<stop offset="1" stop-color="#FABC22"/>
</radialGradient>
<radialGradient id="paint6_radial_94_6341" cx="0" cy="0" r="1" gradientUnits="userSpaceOnUse" gradientTransform="translate(302.069 127.42) rotate(130.538) scale(17.3852 24.0086)">
<stop stop-color="#FF00D6"/>
<stop offset="0.562168" stop-color="#FF004D"/>
<stop offset="1" stop-color="#FF6291"/>
</radialGradient>
<radialGradient id="paint7_radial_94_6341" cx="0" cy="0" r="1" gradientUnits="userSpaceOnUse" gradientTransform="translate(296.819 129.2) rotate(43.2703) scale(11.7039 14.7332)">
<stop stop-color="#FFE7AB"/>
<stop offset="1" stop-color="#FABC22"/>
</radialGradient>
<clipPath id="clip0_94_6341">
<path d="M197.855 54.7598C197.855 44.8186 189.797 36.7598 179.855 36.7598H18.8555C8.91435 36.7598 0.855469 44.8186 0.855469 54.7598V178.76C0.855469 188.701 8.91434 196.76 18.8555 196.76H179.855C189.797 196.76 197.855 188.701 197.855 178.76V54.7598Z" fill="white"/>
</clipPath>
</defs>
</svg>
