<svg width="246" height="246" viewBox="0 0 246 246" fill="none" xmlns="http://www.w3.org/2000/svg">
<path d="M217.807 169.386C217.898 162.453 214.744 161.493 214.744 161.493C214.744 161.493 221.494 161.311 221.225 152.612C220.908 142.42 210.793 142.957 210.793 142.957C210.793 142.957 243.673 140.821 239.391 126.904C237.106 119.477 234.61 115.895 217.956 118.382C206.213 120.134 196.746 119.75 196.746 119.75C196.746 119.75 211.95 91.6416 188.013 90.5134C180.245 90.1485 178.954 111.618 169.741 114.998C157.566 119.467 154.83 121.555 147.196 123.673C135.665 126.87 125.809 125.78 126.702 153.572C127.225 169.933 129.717 174.235 146.472 179.381C161.632 184.038 178.262 184.748 187.725 183.491C192.358 182.876 217.624 182.852 217.807 169.391V169.386Z" fill="url(#paint0_linear_94_3113)"/>
<path d="M202.78 164.753C199.232 164.753 195.55 164.143 192.828 162.203C190.24 160.36 188.852 157.556 188.708 153.879C188.584 150.657 189.601 148.017 191.738 146.039C197.398 140.797 208.934 142.069 209.419 142.126C209.904 142.184 210.254 142.621 210.197 143.111C210.139 143.595 209.702 143.946 209.213 143.888C209.102 143.874 197.998 142.65 192.938 147.34C191.176 148.977 190.37 151.09 190.475 153.807C190.6 156.951 191.704 159.222 193.85 160.758C200.254 165.329 213.562 161.406 213.697 161.368C214.162 161.229 214.662 161.493 214.801 161.963C214.94 162.434 214.676 162.928 214.206 163.068C213.846 163.173 208.493 164.753 202.775 164.753H202.78Z" fill="#66B1FF"/>
<path d="M197.182 182.252C195.977 182.252 187.653 181.92 186.832 172.852C186.553 169.784 187.273 167.297 188.968 165.454C191.916 162.252 196.717 162.237 196.913 162.252C197.403 162.252 197.797 162.655 197.792 163.145C197.792 163.634 197.413 164.042 196.899 164.023C196.822 164.023 192.66 164.052 190.264 166.664C188.93 168.123 188.368 170.149 188.598 172.693C189.323 180.715 196.923 180.495 197.245 180.48C197.734 180.485 198.147 180.84 198.166 181.325C198.186 181.815 197.811 182.228 197.321 182.247C197.317 182.247 197.264 182.247 197.177 182.247L197.182 182.252Z" fill="#66B1FF"/>
<path d="M144.34 157.653C163.073 137.303 175.315 122.809 170.091 101.052C167.715 91.1572 146.995 66.9035 146.995 66.9035C151.94 64.9016 152.3 60.3024 152.3 60.3024C151.743 51.4065 133.86 41.4256 129.933 42.333C126.001 43.2404 124.181 47.4507 124.181 47.4507C74.8579 39.7022 52.5725 63.6966 52.5725 63.6966C49.8649 58.6797 46.2691 58.2237 43.8254 58.7806C37.6036 60.2016 28.4917 72.0164 26.6146 81.0899C25.4624 86.6685 36.3698 92.0694 36.3698 92.0694C36.8691 104.388 31.0793 114.379 31.953 126.851C32.7932 138.82 50.3785 151.47 55.5778 159.545C63.6144 172.032 76.0965 179.391 104.095 179.391C127.451 179.391 128.55 174.802 144.34 157.648V157.653Z" fill="#66B1FF"/>
<path d="M138.094 98.9201C133.523 91.2869 102.222 97.864 102.27 98.0464C102.222 97.864 70.9592 105.046 70.1191 114.566C69.6102 120.361 67.253 126.525 71.5209 132.473C76.2401 139.05 105.285 152.958 116.917 149.737C128.156 146.736 143.523 123.937 144.263 115.877C144.93 108.584 141.08 103.913 138.094 98.9201Z" fill="white"/>
<path d="M68.2087 73.6147C69.6298 71.872 74.7666 66.9368 86.1686 68.0506C88.5306 68.281 91.4158 71.8864 88.3529 74.8917C85.6789 77.5178 72.1166 80.1918 69.769 79.6397C67.3686 79.0732 66.2836 75.9719 68.2087 73.6147Z" fill="#0073E4"/>
<path d="M123.274 56.6195C121.071 56.173 113.97 55.6065 105.852 63.6862C104.167 65.3617 104.22 69.9801 108.497 70.369C112.227 70.7098 124.422 64.1855 125.881 62.2748C127.379 60.3161 126.26 57.2292 123.274 56.6243V56.6195Z" fill="#0073E4"/>
<path d="M109.424 97.8641C109.424 97.8641 89.4766 102.146 91.5745 108.243C93.6725 114.34 108.843 121.585 114.263 120.423C121.632 118.464 130.547 106.429 129.962 100.005C129.376 93.5818 109.424 97.8641 109.424 97.8641Z" fill="#0073E4"/>
<path d="M50.6377 92.7468L149.654 63.001L149.362 68.013L143.553 70.2502C143.553 70.2502 143.788 89.1606 126.217 92.6988C112.41 95.4832 104.215 81.8201 104.215 81.8201L99.9948 83.4092C99.9948 83.4092 102.395 100.164 88.2712 106.107C67.7046 114.763 59.1447 96.5154 59.1447 96.5154L52.1932 99.0694L50.6425 92.742L50.6377 92.7468Z" fill="black"/>
<path d="M65.9616 88.1422L64.4014 103.313C64.4014 103.313 65.4767 104.287 67.4883 105.564L70.0327 86.918L65.9616 88.1422Z" fill="#B0B0B0"/>
<path d="M69.3271 106.563L71.886 86.3609L72.9326 86.0488L70.0329 106.884L69.3271 106.563Z" fill="#B0B0B0"/>
<path d="M64.8816 102.405C65.6114 101.791 65.885 98.8096 65.885 98.8096C65.885 98.8096 65.9954 101.858 66.7203 102.497C67.3589 103.058 69.7497 103.289 69.7497 103.289C69.7497 103.289 67.3444 103.27 66.7203 103.884C66.0722 104.523 65.7938 107.345 65.7938 107.345C65.7938 107.345 65.4193 104.518 64.7616 103.87C64.1567 103.274 61.4395 103.145 61.4395 103.145C61.4395 103.145 64.2335 102.962 64.8816 102.41V102.405Z" fill="white"/>
<path d="M53.4128 88.2523C54.613 87.1001 55.069 81.5264 55.069 81.5264C55.069 81.5264 55.2515 87.2249 56.4469 88.4203C57.503 89.4765 61.4397 89.899 61.4397 89.899C61.4397 89.899 57.4742 89.8606 56.4421 91.0128C55.4099 92.165 54.9106 97.4795 54.9106 97.4795C54.9106 97.4795 54.2961 92.1938 53.2111 90.9792C52.2125 89.8606 47.7334 89.6253 47.7334 89.6253C47.7334 89.6253 52.3374 89.2797 53.408 88.2523H53.4128Z" fill="white"/>
<path d="M115.098 125.56H115.045C100.648 125.589 98.6793 124.268 92.9711 116.016C91.2764 113.567 88.0647 110.773 84.6273 110.956C82.0013 111.095 79.7113 112.838 77.815 116.141C76.5379 118.373 76.1155 120.836 76.5619 123.471C77.4981 128.988 82.1837 133.913 84.8097 135.954C87.2245 137.831 94.6658 142.852 104.988 142.852C107.748 142.852 110.715 142.492 113.84 141.619C118.756 140.245 123.98 137.274 123.893 133.044C123.821 129.559 122.755 125.56 115.098 125.56Z" fill="#0E70E3"/>
<path d="M79.0394 117.111C76.0005 122.411 79.4523 128.162 82.6832 131.734L90.8734 115.901C88.2954 113.035 83.1969 109.866 79.0394 117.115V117.111Z" fill="white"/>
<path d="M115.703 139.204C119.328 137.802 122.477 135.55 122.429 133.088C122.376 130.452 121.848 127.274 115.055 127.288C114.868 127.288 114.685 127.288 114.503 127.288L115.708 139.204H115.703Z" fill="white"/>
<path d="M84.085 133.174C84.6563 133.716 85.1843 134.168 85.6212 134.509C88.3817 136.655 91.9679 138.599 96.1062 139.818L99.2891 125.056C96.7063 123.611 94.7524 121.282 92.1647 117.576L84.0898 133.174H84.085Z" fill="white"/>
<path d="M112.607 127.283C107.34 127.226 103.855 126.894 101.147 125.91L98.0938 140.337C102.741 141.383 107.979 141.489 113.504 139.943C113.624 139.909 113.744 139.871 113.86 139.837L112.607 127.288V127.283Z" fill="white"/>
<path d="M83.667 210.851C86.3555 204.461 81.2186 201.945 81.2186 201.945C81.2186 201.945 89.2792 203.448 92.3085 196.074C97.1381 184.317 85.6689 182.248 85.6689 182.248C85.6689 182.248 114.512 193.678 117.628 178.349C119.404 169.602 112.261 163.957 100.196 162.353C88.4246 160.788 79.7111 157.077 79.7111 157.077C79.7111 157.077 103.158 135.363 80.8585 126.582C73.6237 123.735 65.4816 143.644 55.6735 143.88C42.7065 144.192 40.815 144.47 32.9609 145.531C23.5273 146.803 16.6141 147.72 10.0226 168.892C5.15462 184.523 7.4494 193.856 15.9852 199.651C29.1106 208.551 41.2759 212.661 50.6375 214.514C55.2222 215.421 77.5076 225.484 83.6574 210.851H83.667Z" fill="url(#paint1_linear_94_3113)"/>
<path d="M48.0745 150.802C50.7005 148.229 51.6895 135.785 51.6895 135.785C51.6895 135.785 52.0831 148.507 54.6948 151.172C56.9992 153.524 65.5926 154.47 65.5926 154.47C65.5926 154.47 56.9416 154.383 54.69 156.957C52.3472 159.631 51.3486 171.398 51.3486 171.398C51.3486 171.398 50.0092 159.592 47.6376 156.89C45.4532 154.398 35.6836 153.87 35.6836 153.87C35.6836 153.87 45.7317 153.102 48.0745 150.802Z" fill="white"/>
<path d="M189.621 140.735C191.421 140.015 194.734 134.038 194.734 134.038C194.734 134.038 191.993 140.447 192.583 142.324C193.101 143.985 196.841 146.28 196.841 146.28C196.841 146.28 192.876 144.398 191.248 145.195C189.558 146.026 186.395 151.662 186.395 151.662C186.395 151.662 188.488 145.512 188.017 143.664C187.585 141.959 183.207 139.621 183.207 139.621C183.207 139.621 188.008 141.374 189.616 140.73L189.621 140.735Z" fill="white"/>
<defs>
<linearGradient id="paint0_linear_94_3113" x1="189.188" y1="136.667" x2="135.279" y2="192.306" gradientUnits="userSpaceOnUse">
<stop stop-color="#0F8AEF"/>
<stop offset="0.34" stop-color="#2B96F4"/>
<stop offset="0.95" stop-color="#66B1FF"/>
</linearGradient>
<linearGradient id="paint1_linear_94_3113" x1="61.9971" y1="171.214" x2="-29.6417" y2="161.459" gradientUnits="userSpaceOnUse">
<stop stop-color="#0F8AEF"/>
<stop offset="0.34" stop-color="#2B96F4"/>
<stop offset="0.95" stop-color="#66B1FF"/>
</linearGradient>
</defs>
</svg>
