<svg width="266" height="183" viewBox="0 0 266 183" fill="none" xmlns="http://www.w3.org/2000/svg">
    <g clip-path="url(#clip0_591_14807)">
        <path d="M122.442 97.1898C120.217 93.4067 134.22 74.8231 131.036 56.2339C129.482 47.1523 111.013 26.7159 111.013 26.7159C114.486 23.237 114.547 20.8643 114.547 20.8643C114.076 13.3645 98.1809 6.24078 94.8576 7.00403C91.5344 7.76729 89.9921 11.3181 89.9921 11.3181C42.9898 0.267478 29.4306 25.0124 29.4306 25.0124C27.1393 20.7814 24.099 20.3997 22.0352 20.8698C16.7702 22.0644 9.06962 32.0255 7.48291 39.6746C6.50647 44.3758 15.4942 50.8635 15.4942 50.8635C15.9158 61.2449 10.6674 71.7203 11.4053 82.2344C12.1155 92.3226 29.3141 100.425 28.4653 103.904C11.9379 171.823 11.9878 211.213 20.3042 234.575C20.3042 234.575 -4.31205 298.351 1.03064 311.216C21.5137 313.65 40.4045 319.059 61.1427 320.442C66.2025 307.953 75.5841 274.453 90.1474 266.621C99.3016 268.529 83.7506 307.433 77.4537 322.654C94.7467 323.417 135.269 314.872 134.709 314.64C160.773 313.893 157.794 225.151 157.794 225.151C160.778 181.994 150.121 144.268 122.448 97.1842L122.442 97.1898Z" fill="#66B1FF"/>
        <path d="M225.352 61.9193C207.127 71.5706 202.911 76.9189 202.911 76.9189C198.145 72.4832 187.049 65.5641 181.302 69.856C168.863 79.1368 186.245 89.8057 191.227 94.7779C187.199 154.334 122.443 98.091 122.443 98.091L145.617 159.321C194.124 189.953 214.196 180.485 242.701 115.751C242.701 115.751 259.384 114.346 258.884 102.997C258.585 96.2713 254.707 94.3742 254.707 94.3742C254.707 94.3742 257.691 88.8545 254.856 82.0349C251.972 75.0993 242.64 75.8736 242.64 75.8736C242.64 75.8736 267.195 67.0519 261.042 54.5578C256.504 45.3434 230.529 59.1816 225.358 61.9193H225.352Z" fill="#66B1FF"/>
        <g clip-path="url(#clip1_591_14807)">
            <path d="M27.3828 107.926C27.3828 107.926 -10.0244 148.348 -31.3452 174.359C-47.8504 194.497 -59.9364 209.113 -42.9763 231.275C-38.3382 237.337 -28.9511 243.343 -28.9511 243.343L17.0285 202.944V174.359C17.0285 174.359 26.5174 164.949 29.9515 140.237C30.9502 133.042 27.3828 107.926 27.3828 107.926Z" fill="#66B1FF"/>
        </g>
        <path d="M103.311 53.9601C99.7216 47.3674 73.1968 53.3075 73.2301 53.4679C73.1968 53.313 46.1893 58.3405 45.1408 66.327C44.5028 71.1886 43.0714 80.6132 46.4667 85.7734C50.2227 91.4812 73.0858 100.231 83.0278 97.9246C92.6257 95.7953 105.813 80.0435 106.723 73.2793C107.544 67.1622 105.658 58.2686 103.306 53.9546L103.311 53.9601Z" fill="white"/>
        <path d="M44.137 35.3316C45.463 33.971 50.151 30.2045 59.6769 31.9744C61.6519 32.3394 63.8156 35.5804 61.0139 37.8813C58.5673 39.889 46.9443 41.1389 45.0081 40.5029C43.0274 39.8502 42.3395 37.1678 44.137 35.326V35.3316Z" fill="#0073E4"/>
        <path d="M89.0579 16.7994C87.2992 15.7983 81.4517 13.315 72.9966 17.983C71.2434 18.9509 70.3447 22.933 73.8565 24.4651C76.9245 25.8035 88.4809 23.6244 90.1009 22.391C91.7598 21.1245 91.4435 18.16 89.0579 16.8049V16.7994Z" fill="#0073E4"/>
        <path d="M74.6486 55.0826C74.6486 55.0826 57.7551 58.5891 59.4971 63.7383C61.2392 68.8875 74.0328 75.0765 78.6209 74.1252C84.8624 72.5102 92.4686 62.4164 92.0026 56.9962C91.5366 51.5816 74.6486 55.0826 74.6486 55.0826Z" fill="#0073E4"/>
        <path d="M64.414 49.137C60.9299 45.9236 55.1268 43.4126 50.9325 46.7532C48.8465 48.4124 47.6981 50.9843 46.9102 53.4621C46.5607 54.5572 48.2861 55.0273 48.6357 53.9377C49.6454 50.752 51.5983 46.991 55.3931 46.9247C57.7509 46.8859 60.0034 48.0585 61.9064 49.408C62.389 49.7509 62.6387 49.9223 63.1547 50.398C63.9979 51.1778 65.2629 49.9168 64.4196 49.137H64.414Z" fill="#0073E4"/>
        <path d="M85.4159 48.2923C89.629 48.2923 93.0443 44.8875 93.0443 40.6874C93.0443 36.4873 89.629 33.0825 85.4159 33.0825C81.2028 33.0825 77.7874 36.4873 77.7874 40.6874C77.7874 44.8875 81.2028 48.2923 85.4159 48.2923Z" fill="white"/>
        <path d="M85.4142 45.663C88.1719 45.663 90.4074 43.4344 90.4074 40.6853C90.4074 37.9361 88.1719 35.7075 85.4142 35.7075C82.6566 35.7075 80.4211 37.9361 80.4211 40.6853C80.4211 43.4344 82.6566 45.663 85.4142 45.663Z" fill="#3B3B3B"/>
        <path d="M76.624 51.7748L76.6629 48.6223C76.6629 48.6223 77.8002 45.5471 84.835 44.4299C89.8226 43.639 93.8671 46.0393 93.8671 46.0393L94.211 50.3976L76.624 51.7693V51.7748Z" fill="#66B1FF"/>
        <path d="M89.3236 77.2393C85.6786 74.6453 78.0391 79.4958 73.6007 78.8764C67.9973 78.0965 59.226 69.0205 53.8722 70.8512C50.7986 71.9021 48.7792 79.3576 50.0774 82.3221C52.7792 88.4779 65.5118 92.1061 72.2526 92.1061C76.0529 92.1061 83.182 90.9226 86.2722 87.8364C88.4138 85.7015 91.7869 78.987 89.3236 77.2337V77.2393Z" fill="white"/>
        <path d="M72.2543 92.935C65.8242 92.935 52.2816 89.4063 49.319 82.6532C48.337 80.4187 49.0028 76.5914 50.1623 73.9587C50.8059 72.4986 51.9266 70.6402 53.6076 70.065C57.0862 68.8704 61.5245 71.5971 65.8131 74.2297C68.6315 75.9609 71.5441 77.7473 73.7189 78.0515C75.4055 78.2838 77.7967 77.5925 80.1102 76.9233C83.6775 75.889 87.3614 74.8215 89.808 76.5582C90.2962 76.9011 90.8954 77.5869 91.0008 78.8811C91.2505 81.8844 88.6762 86.6132 86.8621 88.4218C83.5666 91.7071 76.1545 92.935 72.2543 92.935ZM55.4329 71.4367C54.978 71.4367 54.5452 71.4975 54.1458 71.6358C53.2914 71.9289 52.3926 73.0185 51.6825 74.6279C50.5396 77.2219 50.1679 80.4574 50.8447 81.9894C53.2914 87.5701 65.3526 91.2757 72.2543 91.2757C76.1545 91.2757 82.9008 90.0257 85.6859 87.2493C87.2726 85.6675 89.5417 81.3534 89.3475 79.0194C89.3031 78.4829 89.1367 78.1179 88.8427 77.9132C87.0507 76.6411 83.7607 77.598 80.5762 78.5161C77.9798 79.2683 75.5276 79.9818 73.4915 79.6942C70.9672 79.3458 68.0434 77.5482 64.9421 75.6401C61.5634 73.566 58.0848 71.4311 55.4384 71.4311L55.4329 71.4367Z" fill="#0073E4"/>
        <path d="M54.9867 87.6217C54.8536 87.6217 54.7204 87.5885 54.5928 87.5221C54.1878 87.3064 54.038 86.8032 54.2544 86.3994L61.3502 73.2139C61.5666 72.8101 62.0715 72.6608 62.4765 72.8765C62.8815 73.0922 63.0313 73.5955 62.8149 73.9993L55.7191 87.1847C55.5693 87.4613 55.2808 87.6217 54.9867 87.6217Z" fill="#0073E4"/>
        <path d="M66.9663 91.9408C66.9053 91.9408 66.8442 91.9354 66.7832 91.9188C66.3338 91.8192 66.0564 91.3712 66.1563 90.9287L69.1189 77.8428C69.2188 77.3948 69.6626 77.1127 70.112 77.2178C70.5614 77.3173 70.8388 77.7654 70.7389 78.2078L67.7763 91.2938C67.6875 91.6809 67.3436 91.9408 66.9663 91.9408Z" fill="#0073E4"/>
        <path d="M81.9485 90.7141C81.5324 90.7141 81.1718 90.3989 81.1219 89.9785L79.807 78.4412C79.7571 77.9877 80.0844 77.5729 80.5393 77.5231C80.9943 77.4733 81.4104 77.7996 81.4603 78.2531L82.7752 89.7905C82.8251 90.244 82.4978 90.6588 82.0428 90.7086C82.0095 90.7086 81.9818 90.7086 81.9485 90.7086V90.7141Z" fill="#0073E4"/>
        <path d="M23.7407 48.2917L112.625 24.8853L111.493 30.4659L103.359 33.082C103.359 33.082 107.409 48.159 91.1484 51.7761C76.6127 55.0117 73.112 40.7643 73.112 40.7643L66.9815 42.241C66.9815 42.241 71.2923 56.7041 56.2961 60.6808C39.8409 65.0391 36.4844 50.8581 36.4844 50.8581L26.4481 53.9719L23.7463 48.2917H23.7407Z" fill="#333238"/>
        <path d="M32.9116 56.654L35.3416 56.2613C37.3333 55.9405 38.9256 54.5301 39.3694 52.6883L40.4957 48.0259L41.5831 52.81C41.9936 54.6075 43.486 56.0179 45.4001 56.4161L48.1907 56.9969L44.6955 57.821C43.142 58.186 41.9437 59.3475 41.6108 60.8131L40.5012 65.6802L39.547 61.228C39.1531 59.3973 37.694 57.9205 35.7744 57.4117L32.9172 56.654H32.9116Z" fill="white"/>
        <path d="M95.2646 28.4192L96.5462 28.2201C97.5948 28.0542 98.4325 27.3242 98.6655 26.3729L99.2592 23.9614L99.8306 26.4337C100.047 27.3629 100.829 28.0929 101.839 28.2976L103.309 28.5963L101.467 29.0221C100.646 29.2102 100.019 29.813 99.8417 30.5707L99.2592 33.0873L98.7543 30.7864C98.549 29.8407 97.7779 29.0775 96.7681 28.812L95.2646 28.4192Z" fill="white"/>
        <path opacity="0.5" d="M84.4547 52.036C84.2772 51.8756 91.373 30.4492 91.373 30.4492L95.2621 29.3872L86.685 52.2517C86.685 52.2517 84.9152 52.4563 84.4547 52.036Z" fill="white"/>
        <path opacity="0.5" d="M90.405 52.1571L89.5396 52.1239L97.7783 28.7894L98.7935 28.5239L90.405 52.1571Z" fill="white"/>
        <path d="M225.352 61.6361C207.127 71.2874 202.911 76.6357 202.911 76.6357C198.145 72.2 187.049 65.2809 181.301 69.5728C168.863 78.8536 186.245 89.5225 191.227 94.4947C187.199 154.051 122.443 97.8077 122.443 97.8077L151.75 154.31C195.046 187.412 209.736 186.055 242.701 115.468C242.701 115.468 259.383 114.063 258.884 102.714C258.584 95.9881 254.706 94.091 254.706 94.091C254.706 94.091 257.691 88.5712 254.856 81.7517C251.971 74.8161 242.64 75.5904 242.64 75.5904C242.64 75.5904 267.195 66.7687 261.042 54.2746C256.504 45.0602 230.528 58.8984 225.358 61.6361H225.352Z" fill="url(#paint0_linear_591_14807)"/>
        <path d="M217.091 90.9598C217.091 90.9598 227.801 85.7104 232.783 88.5419C242.754 95.4657 239.251 113.082 218.901 112.332C211.739 112.067 205.589 109.468 203.403 99.5967C202.099 92.3885 206.997 87.0874 217.091 90.9598Z" fill="#66B1FF"/>
        <path d="M225.352 61.6361C207.127 71.2874 202.91 76.6357 202.91 76.6357C198.145 72.2 187.049 65.2809 181.301 69.5728C168.862 78.8536 186.244 89.5225 191.226 94.4947C187.198 154.051 199.359 81.7517 199.359 81.7517L222.808 86.4285C221.344 93.4856 218.971 95.7792 226.645 101.73C219.824 116.181 233.041 118.306 242.7 115.468C242.7 115.468 259.383 114.063 258.884 102.714C258.584 95.9881 254.706 94.091 254.706 94.091C254.706 94.091 257.691 88.5712 254.856 81.7517C251.971 74.8161 242.639 75.5904 242.639 75.5904C242.639 75.5904 267.194 66.7687 261.042 54.2746C256.504 45.0602 230.528 58.8984 225.357 61.6361H225.352Z" fill="url(#paint1_linear_591_14807)"/>
        <path d="M35.7169 146.345C58.4438 122.604 83.3876 143.536 85.3963 145.297C87.4113 143.536 112.349 122.604 135.076 146.345C160.298 172.691 137.318 226.191 129.479 238.786C121.641 251.38 106.127 271.83 85.1689 272.452C64.2044 271.83 49.1522 251.387 41.3134 238.786C33.4745 226.191 10.4951 172.698 35.7169 146.345Z" fill="white"/>
        <path d="M233.409 117.916C233.409 117.916 233.359 117.916 233.337 117.916C233.049 117.893 226.225 117.252 224.361 111.743C222.735 106.942 224.111 104.017 224.849 102.446C224.976 102.18 225.126 101.86 225.182 101.671C221.187 98.0709 219.523 94.4592 220.227 90.9416C221.714 83.5082 233.287 79.4155 233.776 79.2495C234.208 79.1002 234.685 79.3269 234.835 79.7583C234.985 80.1897 234.758 80.6654 234.325 80.8147C234.214 80.8534 223.157 84.7693 221.859 91.268C221.27 94.2049 222.807 97.3297 226.419 100.549C227.24 101.279 226.768 102.274 226.358 103.148C225.676 104.603 224.533 107.036 225.942 111.207C227.462 115.698 233.42 116.251 233.481 116.256C233.942 116.295 234.28 116.699 234.242 117.152C234.203 117.584 233.842 117.91 233.415 117.91L233.409 117.916Z" fill="#0073E4"/>
        <path d="M230.838 102.8C227.698 102.8 225.706 102.004 225.545 101.937C225.118 101.76 224.918 101.274 225.096 100.853C225.273 100.433 225.756 100.228 226.183 100.405C226.283 100.444 233.357 103.204 241.984 97.5513C242.367 97.3025 242.883 97.4075 243.138 97.7891C243.393 98.1708 243.282 98.6852 242.899 98.9396C238.206 102.015 233.961 102.806 230.844 102.806L230.838 102.8Z" fill="#0073E4"/>
    </g>
    <g clip-path="url(#clip2_591_14807)">
        <path d="M122.442 97.1898C120.217 93.4067 134.22 74.8231 131.036 56.2339C129.482 47.1523 111.013 26.7159 111.013 26.7159C114.486 23.237 114.547 20.8643 114.547 20.8643C114.076 13.3645 98.1809 6.24078 94.8576 7.00403C91.5344 7.76729 89.9921 11.3181 89.9921 11.3181C42.9898 0.267478 29.4306 25.0124 29.4306 25.0124C27.1393 20.7814 24.099 20.3997 22.0352 20.8698C16.7702 22.0644 9.06962 32.0255 7.48291 39.6746C6.50647 44.3758 15.4942 50.8635 15.4942 50.8635C15.9158 61.2449 10.6674 71.7203 11.4053 82.2344C12.1155 92.3226 29.3141 100.425 28.4653 103.904C11.9379 171.823 11.9878 211.213 20.3042 234.575C20.3042 234.575 -4.31205 298.351 1.03064 311.216C21.5137 313.65 40.4045 319.059 61.1427 320.442C66.2025 307.953 75.5841 274.453 90.1474 266.621C99.3016 268.529 83.7506 307.433 77.4537 322.654C94.7467 323.417 135.269 314.872 134.709 314.64C160.773 313.893 157.794 225.151 157.794 225.151C160.778 181.994 150.121 144.268 122.448 97.1842L122.442 97.1898Z" fill="#66B1FF"/>
        <path d="M225.352 61.9193C207.127 71.5706 202.911 76.9189 202.911 76.9189C198.145 72.4832 187.049 65.5641 181.302 69.856C168.863 79.1368 186.245 89.8057 191.227 94.7779C187.199 154.334 122.443 98.091 122.443 98.091L145.617 159.321C194.124 189.953 214.196 180.485 242.701 115.751C242.701 115.751 259.384 114.346 258.884 102.997C258.585 96.2713 254.707 94.3742 254.707 94.3742C254.707 94.3742 257.691 88.8545 254.856 82.0349C251.972 75.0993 242.64 75.8736 242.64 75.8736C242.64 75.8736 267.195 67.0519 261.042 54.5578C256.504 45.3434 230.529 59.1816 225.358 61.9193H225.352Z" fill="#66B1FF"/>
        <g clip-path="url(#clip3_591_14807)">
            <path d="M27.3828 107.926C27.3828 107.926 -10.0244 148.348 -31.3452 174.359C-47.8504 194.497 -59.9364 209.113 -42.9763 231.275C-38.3382 237.337 -28.9511 243.343 -28.9511 243.343L17.0285 202.944V174.359C17.0285 174.359 26.5174 164.949 29.9515 140.237C30.9502 133.042 27.3828 107.926 27.3828 107.926Z" fill="#66B1FF"/>
        </g>
        <path d="M103.311 53.9601C99.7216 47.3674 73.1968 53.3075 73.2301 53.4679C73.1968 53.313 46.1893 58.3405 45.1408 66.327C44.5028 71.1886 43.0714 80.6132 46.4667 85.7734C50.2227 91.4812 73.0858 100.231 83.0278 97.9246C92.6257 95.7953 105.813 80.0435 106.723 73.2793C107.544 67.1622 105.658 58.2686 103.306 53.9546L103.311 53.9601Z" fill="white"/>
        <path d="M44.137 35.3316C45.463 33.971 50.151 30.2045 59.6769 31.9744C61.6519 32.3394 63.8156 35.5804 61.0139 37.8813C58.5673 39.889 46.9443 41.1389 45.0081 40.5029C43.0274 39.8502 42.3395 37.1678 44.137 35.326V35.3316Z" fill="#0073E4"/>
        <path d="M89.0579 16.7994C87.2992 15.7983 81.4517 13.315 72.9966 17.983C71.2434 18.9509 70.3447 22.933 73.8565 24.4651C76.9245 25.8035 88.4809 23.6244 90.1009 22.391C91.7598 21.1245 91.4435 18.16 89.0579 16.8049V16.7994Z" fill="#0073E4"/>
        <path d="M74.6486 55.0826C74.6486 55.0826 57.7551 58.5891 59.4971 63.7383C61.2392 68.8875 74.0328 75.0765 78.6209 74.1252C84.8624 72.5102 92.4686 62.4164 92.0026 56.9962C91.5366 51.5816 74.6486 55.0826 74.6486 55.0826Z" fill="#0073E4"/>
        <path d="M64.414 49.137C60.9299 45.9236 55.1268 43.4126 50.9325 46.7532C48.8465 48.4124 47.6981 50.9843 46.9102 53.4621C46.5607 54.5572 48.2861 55.0273 48.6357 53.9377C49.6454 50.752 51.5983 46.991 55.3931 46.9247C57.7509 46.8859 60.0034 48.0585 61.9064 49.408C62.389 49.7509 62.6387 49.9223 63.1547 50.398C63.9979 51.1778 65.2629 49.9168 64.4196 49.137H64.414Z" fill="#0073E4"/>
        <path d="M85.4159 48.2923C89.629 48.2923 93.0443 44.8875 93.0443 40.6874C93.0443 36.4873 89.629 33.0825 85.4159 33.0825C81.2028 33.0825 77.7874 36.4873 77.7874 40.6874C77.7874 44.8875 81.2028 48.2923 85.4159 48.2923Z" fill="white"/>
        <path d="M85.4142 45.663C88.1719 45.663 90.4074 43.4344 90.4074 40.6853C90.4074 37.9361 88.1719 35.7075 85.4142 35.7075C82.6566 35.7075 80.4211 37.9361 80.4211 40.6853C80.4211 43.4344 82.6566 45.663 85.4142 45.663Z" fill="#3B3B3B"/>
        <path d="M76.624 51.7748L76.6629 48.6223C76.6629 48.6223 77.8002 45.5471 84.835 44.4299C89.8226 43.639 93.8671 46.0393 93.8671 46.0393L94.211 50.3976L76.624 51.7693V51.7748Z" fill="#66B1FF"/>
        <path d="M89.3236 77.2393C85.6786 74.6453 78.0391 79.4958 73.6007 78.8764C67.9973 78.0965 59.226 69.0205 53.8722 70.8512C50.7986 71.9021 48.7792 79.3576 50.0774 82.3221C52.7792 88.4779 65.5118 92.1061 72.2526 92.1061C76.0529 92.1061 83.182 90.9226 86.2722 87.8364C88.4138 85.7015 91.7869 78.987 89.3236 77.2337V77.2393Z" fill="white"/>
        <path d="M72.2543 92.935C65.8242 92.935 52.2816 89.4063 49.319 82.6532C48.337 80.4187 49.0028 76.5914 50.1623 73.9587C50.8059 72.4986 51.9266 70.6402 53.6076 70.065C57.0862 68.8704 61.5245 71.5971 65.8131 74.2297C68.6315 75.9609 71.5441 77.7473 73.7189 78.0515C75.4055 78.2838 77.7967 77.5925 80.1102 76.9233C83.6775 75.889 87.3614 74.8215 89.808 76.5582C90.2962 76.9011 90.8954 77.5869 91.0008 78.8811C91.2505 81.8844 88.6762 86.6132 86.8621 88.4218C83.5666 91.7071 76.1545 92.935 72.2543 92.935ZM55.4329 71.4367C54.978 71.4367 54.5452 71.4975 54.1458 71.6358C53.2914 71.9289 52.3926 73.0185 51.6825 74.6279C50.5396 77.2219 50.1679 80.4574 50.8447 81.9894C53.2914 87.5701 65.3526 91.2757 72.2543 91.2757C76.1545 91.2757 82.9008 90.0257 85.6859 87.2493C87.2726 85.6675 89.5417 81.3534 89.3475 79.0194C89.3031 78.4829 89.1367 78.1179 88.8427 77.9132C87.0507 76.6411 83.7607 77.598 80.5762 78.5161C77.9798 79.2683 75.5276 79.9818 73.4915 79.6942C70.9672 79.3458 68.0434 77.5482 64.9421 75.6401C61.5634 73.566 58.0848 71.4311 55.4384 71.4311L55.4329 71.4367Z" fill="#0073E4"/>
        <path d="M54.9867 87.6217C54.8536 87.6217 54.7204 87.5885 54.5928 87.5221C54.1878 87.3064 54.038 86.8032 54.2544 86.3994L61.3502 73.2139C61.5666 72.8101 62.0715 72.6608 62.4765 72.8765C62.8815 73.0922 63.0313 73.5955 62.8149 73.9993L55.7191 87.1847C55.5693 87.4613 55.2808 87.6217 54.9867 87.6217Z" fill="#0073E4"/>
        <path d="M66.9663 91.9408C66.9053 91.9408 66.8442 91.9354 66.7832 91.9188C66.3338 91.8192 66.0564 91.3712 66.1563 90.9287L69.1189 77.8428C69.2188 77.3948 69.6626 77.1127 70.112 77.2178C70.5614 77.3173 70.8388 77.7654 70.7389 78.2078L67.7763 91.2938C67.6875 91.6809 67.3436 91.9408 66.9663 91.9408Z" fill="#0073E4"/>
        <path d="M81.9485 90.7141C81.5324 90.7141 81.1718 90.3989 81.1219 89.9785L79.807 78.4412C79.7571 77.9877 80.0844 77.5729 80.5393 77.5231C80.9943 77.4733 81.4104 77.7996 81.4603 78.2531L82.7752 89.7905C82.8251 90.244 82.4978 90.6588 82.0428 90.7086C82.0095 90.7086 81.9818 90.7086 81.9485 90.7086V90.7141Z" fill="#0073E4"/>
        <path d="M23.7407 48.2917L112.625 24.8853L111.493 30.4659L103.359 33.082C103.359 33.082 107.409 48.159 91.1484 51.7761C76.6127 55.0117 73.112 40.7643 73.112 40.7643L66.9815 42.241C66.9815 42.241 71.2923 56.7041 56.2961 60.6808C39.8409 65.0391 36.4844 50.8581 36.4844 50.8581L26.4481 53.9719L23.7463 48.2917H23.7407Z" fill="#333238"/>
        <path d="M32.9116 56.654L35.3416 56.2613C37.3333 55.9405 38.9256 54.5301 39.3694 52.6883L40.4957 48.0259L41.5831 52.81C41.9936 54.6075 43.486 56.0179 45.4001 56.4161L48.1907 56.9969L44.6955 57.821C43.142 58.186 41.9437 59.3475 41.6108 60.8131L40.5012 65.6802L39.547 61.228C39.1531 59.3973 37.694 57.9205 35.7744 57.4117L32.9172 56.654H32.9116Z" fill="white"/>
        <path d="M95.2646 28.4192L96.5462 28.2201C97.5948 28.0542 98.4325 27.3242 98.6655 26.3729L99.2592 23.9614L99.8306 26.4337C100.047 27.3629 100.829 28.0929 101.839 28.2976L103.309 28.5963L101.467 29.0221C100.646 29.2102 100.019 29.813 99.8417 30.5707L99.2592 33.0873L98.7543 30.7864C98.549 29.8407 97.7779 29.0775 96.7681 28.812L95.2646 28.4192Z" fill="white"/>
        <path opacity="0.5" d="M84.4547 52.036C84.2772 51.8756 91.373 30.4492 91.373 30.4492L95.2621 29.3872L86.685 52.2517C86.685 52.2517 84.9152 52.4563 84.4547 52.036Z" fill="white"/>
        <path opacity="0.5" d="M90.405 52.1571L89.5396 52.1239L97.7783 28.7894L98.7935 28.5239L90.405 52.1571Z" fill="white"/>
        <path d="M225.352 61.6361C207.127 71.2874 202.911 76.6357 202.911 76.6357C198.145 72.2 187.049 65.2809 181.301 69.5728C168.863 78.8536 186.245 89.5225 191.227 94.4947C187.199 154.051 122.443 97.8077 122.443 97.8077L151.75 154.31C195.046 187.412 209.736 186.055 242.701 115.468C242.701 115.468 259.383 114.063 258.884 102.714C258.584 95.9881 254.706 94.091 254.706 94.091C254.706 94.091 257.691 88.5712 254.856 81.7517C251.971 74.8161 242.64 75.5904 242.64 75.5904C242.64 75.5904 267.195 66.7687 261.042 54.2746C256.504 45.0602 230.528 58.8984 225.358 61.6361H225.352Z" fill="url(#paint2_linear_591_14807)"/>
        <path d="M217.091 90.9598C217.091 90.9598 227.801 85.7104 232.783 88.5419C242.754 95.4657 239.251 113.082 218.901 112.332C211.739 112.067 205.589 109.468 203.403 99.5967C202.099 92.3885 206.997 87.0874 217.091 90.9598Z" fill="#66B1FF"/>
        <path d="M225.352 61.6361C207.127 71.2874 202.91 76.6357 202.91 76.6357C198.145 72.2 187.049 65.2809 181.301 69.5728C168.862 78.8536 186.244 89.5225 191.226 94.4947C187.198 154.051 199.359 81.7517 199.359 81.7517L222.808 86.4285C221.344 93.4856 218.971 95.7792 226.645 101.73C219.824 116.181 233.041 118.306 242.7 115.468C242.7 115.468 259.383 114.063 258.884 102.714C258.584 95.9881 254.706 94.091 254.706 94.091C254.706 94.091 257.691 88.5712 254.856 81.7517C251.971 74.8161 242.639 75.5904 242.639 75.5904C242.639 75.5904 267.194 66.7687 261.042 54.2746C256.504 45.0602 230.528 58.8984 225.357 61.6361H225.352Z" fill="url(#paint3_linear_591_14807)"/>
        <path d="M233.409 117.916C233.409 117.916 233.359 117.916 233.337 117.916C233.049 117.893 226.225 117.252 224.361 111.743C222.735 106.942 224.111 104.017 224.849 102.446C224.976 102.18 225.126 101.86 225.182 101.671C221.187 98.0709 219.523 94.4592 220.227 90.9416C221.714 83.5082 233.287 79.4155 233.776 79.2495C234.208 79.1002 234.685 79.3269 234.835 79.7583C234.985 80.1897 234.758 80.6654 234.325 80.8147C234.214 80.8534 223.157 84.7693 221.859 91.268C221.27 94.2049 222.807 97.3297 226.419 100.549C227.24 101.279 226.768 102.274 226.358 103.148C225.676 104.603 224.533 107.036 225.942 111.207C227.462 115.698 233.42 116.251 233.481 116.256C233.942 116.295 234.28 116.699 234.242 117.152C234.203 117.584 233.842 117.91 233.415 117.91L233.409 117.916Z" fill="#0073E4"/>
        <path d="M230.838 102.8C227.698 102.8 225.706 102.004 225.545 101.937C225.118 101.76 224.918 101.274 225.096 100.853C225.273 100.433 225.756 100.228 226.183 100.405C226.283 100.444 233.357 103.204 241.984 97.5513C242.367 97.3025 242.883 97.4075 243.138 97.7891C243.393 98.1708 243.282 98.6852 242.899 98.9396C238.206 102.015 233.961 102.806 230.844 102.806L230.838 102.8Z" fill="#0073E4"/>
    </g>
    <defs>
        <linearGradient id="paint0_linear_591_14807" x1="248.815" y1="66.8771" x2="159.608" y2="173.832" gradientUnits="userSpaceOnUse">
            <stop stop-color="#0F8AEF"/>
            <stop offset="0.3" stop-color="#2B96F4"/>
            <stop offset="0.83" stop-color="#66B1FF"/>
        </linearGradient>
        <linearGradient id="paint1_linear_591_14807" x1="248.816" y1="66.8771" x2="159.608" y2="173.832" gradientUnits="userSpaceOnUse">
            <stop stop-color="#0F8AEF"/>
            <stop offset="0.3" stop-color="#2B96F4"/>
            <stop offset="0.83" stop-color="#66B1FF"/>
        </linearGradient>
        <linearGradient id="paint2_linear_591_14807" x1="248.815" y1="66.8771" x2="159.608" y2="173.832" gradientUnits="userSpaceOnUse">
            <stop stop-color="#0F8AEF"/>
            <stop offset="0.3" stop-color="#2B96F4"/>
            <stop offset="0.83" stop-color="#66B1FF"/>
        </linearGradient>
        <linearGradient id="paint3_linear_591_14807" x1="248.816" y1="66.8771" x2="159.608" y2="173.832" gradientUnits="userSpaceOnUse">
            <stop stop-color="#0F8AEF"/>
            <stop offset="0.3" stop-color="#2B96F4"/>
            <stop offset="0.83" stop-color="#66B1FF"/>
        </linearGradient>
        <clipPath id="clip0_591_14807">
            <rect width="257" height="182" rx="18" transform="matrix(-1 0 0 1 265.315 0.473145)" fill="white"/>
        </clipPath>
        <clipPath id="clip1_591_14807">
            <rect width="22" height="136" fill="white" transform="translate(8.31537 107.473)"/>
        </clipPath>
        <clipPath id="clip2_591_14807">
            <rect width="265" height="121" rx="18" transform="matrix(-1 0 0 1 265 0)" fill="white"/>
        </clipPath>
        <clipPath id="clip3_591_14807">
            <rect width="22" height="136" fill="white" transform="translate(8.31537 107.473)"/>
        </clipPath>
    </defs>
</svg>
