<svg width="336" height="328" viewBox="0 0 336 328" fill="none" xmlns="http://www.w3.org/2000/svg">
    <g clip-path="url(#clip0_615_13289)">
        <g filter="url(#filter0_dddddd_615_13289)">
            <path d="M95.1424 152.496C94.6311 152.269 94.2299 151.944 93.9353 151.531C92.5794 149.642 94.0167 146.403 97.1469 144.308C99.22 142.92 101.516 142.334 103.316 142.741L104.396 142.984L99.5979 124.548C99.5585 124.385 99.6228 124.222 99.7643 124.139C100.062 123.961 107.127 119.872 113.167 122.555C113.82 122.845 114.447 123.215 115.03 123.638C115.114 123.702 115.168 123.791 115.181 123.888C115.194 123.984 115.169 124.083 115.112 124.167C115.004 124.301 114.81 124.352 114.645 124.279C114.054 123.852 113.484 123.526 112.894 123.264C108.316 121.231 102.977 123.385 100.892 124.402L100.409 124.635L105.582 144.56C106.291 146.562 104.797 149.32 102.046 151.164C99.6463 152.771 96.9358 153.292 95.1424 152.496ZM103.722 143.66C102.196 142.983 99.7344 143.495 97.5797 144.938C96.2667 145.815 95.2236 146.93 94.6505 148.071C94.0567 149.258 94.0193 150.364 94.5505 151.111C94.7659 151.407 95.0707 151.652 95.4562 151.823C96.9743 152.497 99.4435 151.988 101.598 150.545C104.376 148.686 105.734 145.914 104.619 144.369C104.404 144.073 104.099 143.828 103.714 143.657L103.722 143.66Z" fill="#00FFBA"/>
        </g>
        <g filter="url(#filter1_dddddd_615_13289)">
            <path d="M46.7828 103.263C46.2965 102.887 46.028 102.419 46.0026 101.917C45.9786 101.315 46.3198 100.736 46.9665 100.274C47.6701 99.7792 48.6398 99.4845 49.6997 99.4435C50.9279 99.3997 52.0576 99.7044 52.807 100.285C52.8787 100.341 52.9504 100.396 53.009 100.461L53.4633 100.895L56.8379 90.9059C56.8724 90.8122 56.9578 90.7516 57.0585 90.7535L67.1649 91.1095C67.2152 91.1104 67.2603 91.1263 67.2962 91.1541C67.3161 91.1696 67.3321 91.1819 67.3419 91.2022C67.3854 91.2613 67.3954 91.3388 67.3714 91.4026L63.6722 102.376C63.3866 103.525 61.8483 104.387 60.0066 104.456C59.0142 104.492 58.0672 104.297 57.3354 103.908C57.1735 103.821 57.0207 103.721 56.8852 103.616C56.3989 103.239 56.1304 102.771 56.105 102.27C56.0755 101.626 56.4625 101.013 57.1909 100.544C57.8797 100.101 58.8098 99.8326 59.8062 99.7994C61.0343 99.7556 62.1671 100.056 62.9165 100.637C62.9882 100.693 63.0599 100.748 63.1185 100.813L63.5728 101.247L66.8487 91.5492L57.2104 91.2073L53.5657 102.021C53.2802 103.169 51.7419 104.031 49.9001 104.1C48.9077 104.136 47.9608 103.942 47.229 103.552C47.067 103.465 46.9143 103.365 46.7788 103.26L46.7828 103.263ZM52.5394 100.629C51.8937 100.129 50.8392 99.8508 49.7258 99.8948C47.8801 99.9609 46.4147 100.861 46.459 101.897C46.4742 102.263 46.6879 102.613 47.0706 102.909C47.1822 102.996 47.311 103.077 47.4499 103.153C48.0977 103.502 48.9854 103.683 49.8882 103.647C51.7339 103.581 53.1993 102.681 53.155 101.645C53.1358 101.275 52.9252 100.922 52.5425 100.625L52.5394 100.629ZM62.6489 100.981C62.0032 100.481 60.9486 100.203 59.8353 100.247C58.9356 100.279 58.0673 100.525 57.4476 100.92C56.8614 101.296 56.5459 101.768 56.5685 102.249C56.5837 102.615 56.7974 102.965 57.1801 103.261C57.2917 103.348 57.4205 103.429 57.5594 103.505C58.2072 103.854 59.0949 104.035 59.9977 103.999C61.8434 103.933 63.3088 103.033 63.2645 101.997C63.2453 101.627 63.0347 101.274 62.652 100.977L62.6489 100.981Z" fill="#00FFBA"/>
        </g>
        <g filter="url(#filter2_dddddd_615_13289)">
            <path d="M240.984 248.708C240.743 248.269 240.63 247.806 240.653 247.332C240.697 246.181 241.51 245.094 242.934 244.282C244.3 243.502 246.09 243.053 247.97 243.024C249.849 242.996 251.601 243.389 252.912 244.133C253.485 244.461 253.958 244.851 254.309 245.292L254.906 246.045L262.962 227.484C263.031 227.321 263.22 227.24 263.386 227.298C263.47 227.33 263.519 227.389 263.543 227.431C263.589 227.516 263.59 227.609 263.556 227.698L254.812 247.817C254.117 249.88 251.107 251.374 247.629 251.426C244.574 251.473 241.903 250.379 240.984 248.708ZM254.028 246.057C253.674 245.413 253.029 244.953 252.554 244.682C251.341 243.993 249.705 243.63 247.942 243.657C246.179 243.685 244.508 244.092 243.238 244.82C242.533 245.222 241.351 246.081 241.302 247.328C241.287 247.68 241.376 248.039 241.564 248.382C242.384 249.873 244.835 250.853 247.657 250.808C251.16 250.758 253.577 249.246 254.153 247.788L254.168 247.755L254.181 247.702C254.252 247.498 254.292 247.312 254.303 247.134C254.318 246.766 254.226 246.402 254.037 246.059L254.028 246.057Z" fill="#00FFBA"/>
        </g>
        <g clip-path="url(#clip1_615_13289)">
            <path d="M169.35 207.983C161.013 200.769 149.427 198.831 139.669 203.174C136.759 204.466 132.774 208.447 133.622 211.817C134.989 217.242 140.777 220.431 140.777 220.431C139.703 217.304 134.718 211.526 130.023 215.154C121.511 221.724 130.815 232.474 135.246 233.185C121.084 265.759 90.0607 226.596 90.0607 226.596L105.134 272.51C134.696 295.45 155.229 289.086 174.395 238.838C174.395 238.838 177.74 231.877 177.101 222.416C176.688 216.358 173.703 211.751 169.354 207.987L169.35 207.983Z" fill="url(#paint0_linear_615_13289)"/>
            <g clip-path="url(#clip2_615_13289)">
                <path d="M175.76 241.818L176.128 242.147C174.744 245.139 172.709 247.857 170.236 250.011L169.823 249.742C172.334 247.588 174.387 244.839 175.76 241.815L175.76 241.818Z" fill="white"/>
            </g>
            <g filter="url(#filter3_dd_615_13289)">
                <path d="M107.464 187.616C106.981 187.401 106.602 187.095 106.324 186.704C105.043 184.92 106.4 181.861 109.357 179.882C111.315 178.571 113.484 178.018 115.184 178.402L116.205 178.631L111.672 161.218C111.635 161.064 111.696 160.91 111.829 160.831C112.111 160.663 118.783 156.801 124.489 159.335C125.106 159.609 125.698 159.958 126.249 160.358C126.328 160.419 126.38 160.502 126.392 160.594C126.404 160.685 126.38 160.778 126.326 160.857C126.224 160.984 126.041 161.033 125.885 160.963C125.327 160.56 124.788 160.252 124.231 160.005C119.907 158.084 114.864 160.119 112.895 161.08L112.438 161.3L117.325 180.12C117.994 182.011 116.584 184.616 113.984 186.358C111.718 187.876 109.158 188.368 107.464 187.616ZM115.567 179.27C114.126 178.63 111.801 179.114 109.766 180.477C108.526 181.305 107.54 182.358 106.999 183.436C106.438 184.558 106.403 185.602 106.905 186.307C107.108 186.587 107.396 186.819 107.76 186.98C109.194 187.617 111.526 187.136 113.562 185.774C116.185 184.017 117.469 181.399 116.415 179.94C116.212 179.66 115.924 179.429 115.56 179.267L115.567 179.27Z" fill="#00FFBA"/>
            </g>
            <g clip-path="url(#clip3_615_13289)" filter="url(#filter4_d_615_13289)">
            </g>
            <path d="M100.253 242.819L94.6686 231.466C94.0542 227.251 101.793 216.387 101.87 208.964C102.037 193.433 90.1683 188.532 88.0551 180.105C88.0551 180.105 91.2859 176.49 90.5458 173.723C89.4207 169.508 78.7993 165.052 75.1761 166.219C72.9371 166.941 72.2857 169.527 72.2857 169.527C61.3571 166.756 54.4401 168.927 50.8391 169.845C37.5937 173.227 30.4621 180.224 30.4621 180.224C28.5229 178.609 27.9271 178.176 26.9723 178.405C23.6008 179.228 16.706 185.902 16.9539 191.306C17.1057 194.629 22.6755 196.251 22.6755 196.251C24.104 203.133 17.0798 215.242 21.5097 224.939C23.1196 228.462 27.5793 233.125 30.7731 236.818C30.6769 238.389 29.6553 240.1 29.1298 241.707C8.39749 304.802 13.1717 342.305 13.1717 342.305C13.1717 342.305 36.2836 352.117 64.0327 352.121C95.7084 352.125 115.449 341.787 115.449 341.787C115.449 341.787 119.731 300.776 100.261 242.822L100.253 242.819Z" fill="#66B1FF"/>
            <path d="M22.4632 315.85C16.5082 287.075 29.4243 240.606 29.4243 240.606C29.4243 240.606 -11.8187 284.207 -10.2599 323.553C-10.0535 328.762 -7.61766 340.572 0.19462 341.437C0.19462 341.437 4.61294 347.852 9.08658 344.398C9.08658 344.398 12.0899 349.7 16.6004 345.826C18.9183 343.834 18.8372 339.6 18.347 336.357C18.745 336.71 19.1983 336.955 19.7032 337.055C23.7457 337.867 28.492 330.409 22.7765 316.584C22.6696 316.325 22.5665 316.084 22.4596 315.853L22.4632 315.85Z" fill="url(#paint1_linear_615_13289)"/>
            <path d="M94.3347 269.588C80.7434 255.495 65.8276 267.923 64.6221 268.967C63.4167 267.92 48.5046 255.495 34.9096 269.588C19.8226 285.231 33.5702 316.988 38.2581 324.468C42.9461 331.948 52.2215 344.087 64.7598 344.454C77.2945 344.087 86.2982 331.948 90.9861 324.468C95.6741 316.988 109.418 285.231 94.3347 269.588Z" fill="white"/>
        </g>
        <g clip-path="url(#clip4_615_13289)">
            <path d="M169.351 207.982C161.013 200.768 149.427 198.83 139.669 203.173C136.759 204.465 132.774 208.446 133.622 211.816C134.99 217.241 140.777 220.43 140.777 220.43C139.703 217.304 134.718 211.525 130.024 215.153C121.511 221.723 130.815 232.473 135.246 233.184C121.084 265.758 90.0608 226.595 90.0608 226.595L105.134 272.509C134.696 295.449 155.229 289.085 174.395 238.837C174.395 238.837 177.74 231.876 177.101 222.415C176.688 216.357 173.703 211.75 169.354 207.986L169.351 207.982Z" fill="url(#paint2_linear_615_13289)"/>
            <path d="M177.858 242.355C175.496 240.395 135.607 210.628 135.607 210.628L126.842 224.394C126.842 224.394 171.337 248.409 173.598 249.289C175.859 250.169 180.219 244.315 177.858 242.355Z" fill="#4C4C4C"/>
            <path d="M174.062 238.953L173.719 238.701C173.658 238.645 173.578 238.61 173.491 238.603C173.318 238.589 173.157 238.694 173.1 238.858C172.091 241.74 170.51 244.332 168.385 246.514C168.3 246.601 168.261 246.723 168.281 246.843C168.3 246.963 168.376 247.067 168.484 247.123L168.895 247.334C169.046 247.412 169.23 247.381 169.347 247.259C171.517 244.999 173.138 242.343 174.196 239.391C174.254 239.231 174.199 239.053 174.062 238.953Z" fill="white" stroke="white" stroke-width="0.767236" stroke-linejoin="round"/>
            <path d="M133.069 206.818C132.173 203.274 130.07 198.826 126.743 196.707C119.821 192.3 110.638 194.339 106.231 201.26C101.825 208.181 103.863 217.365 110.784 221.771C114.112 223.89 118.754 224.029 122.344 223.342L133.069 206.818Z" fill="#989898"/>
            <path fill-rule="evenodd" clip-rule="evenodd" d="M126.438 195.626C126.565 195.686 126.691 195.746 126.755 195.808C126.819 195.869 126.977 195.96 127.041 196.022C127.232 196.206 127.33 196.423 127.304 196.705C127.249 197.144 127.071 197.649 126.922 198.058C126.863 198.247 126.803 198.374 126.743 198.5C126.622 198.753 126.563 198.941 126.504 199.13C123.851 207.819 118.467 216.152 111.605 222.384C111.421 222.575 111.109 222.644 110.826 222.555C110.731 222.526 110.667 222.464 110.605 222.465C110.573 222.435 110.541 222.404 110.478 222.405C110.415 222.344 110.352 222.345 110.32 222.314C110.099 222.225 109.97 221.977 109.902 221.727C109.867 221.509 109.956 221.226 110.172 221.065C116.819 215.056 121.957 206.978 124.554 198.604C124.612 198.352 124.731 198.037 124.85 197.722C124.91 197.595 124.939 197.438 124.999 197.312C125.148 196.902 125.235 196.556 125.262 196.337C125.26 196.212 125.288 196.055 125.379 195.896C125.686 195.578 126.059 195.445 126.438 195.626Z" fill="#4C4C4C"/>
            <path fill-rule="evenodd" clip-rule="evenodd" d="M122.209 223.426C122.316 223.919 122.608 224.341 123.032 224.613L123.717 225.053L123.712 225.061L125.168 225.988C125.593 226.259 126.098 226.348 126.59 226.238C127.082 226.129 127.503 225.835 127.773 225.41L137.029 210.873C137.3 210.447 137.389 209.942 137.28 209.45C137.17 208.958 136.876 208.538 136.451 208.267L135.843 207.88L135.845 207.876L134.393 206.942C133.969 206.67 133.465 206.579 132.972 206.686C132.48 206.793 132.058 207.085 131.785 207.509L122.465 222.005C122.193 222.429 122.102 222.934 122.209 223.426Z" fill="#ECECEC"/>
            <g clip-path="url(#clip5_615_13289)">
                <path d="M167.629 207.188C158.957 200.28 147.25 198.867 137.644 203.723C134.778 205.169 130.808 210.087 131.801 213.458C133.403 218.884 142.35 216.349 142.35 216.349C140.689 218.01 139.975 219.49 140.971 223.096C150.497 232.618 150.694 224.028 155.17 224.538C147.323 235.895 161.458 235.982 161.458 235.982L167.921 232.101L172.542 232.023C160.482 224.453 170.328 236.394 173.782 237.959C173.782 237.959 177.061 230.974 176.018 221.429C175.347 215.317 172.157 210.795 167.633 207.191L167.629 207.188Z" fill="url(#paint3_linear_615_13289)"/>
                <path d="M132.859 214.908C135.398 217.506 140.172 218.06 143.051 215.599C143.584 215.142 142.77 214.427 142.24 214.88C139.798 216.97 135.692 216.25 133.606 214.116C133.118 213.617 132.374 214.413 132.859 214.908Z" fill="#66B1FF"/>
                <path d="M150.481 208.626C148.732 209.643 147.049 210.775 145.49 212.052C143.599 213.599 141.731 215.42 140.734 217.646C140.27 218.684 139.997 219.812 140.102 220.941C140.208 222.114 140.698 223.169 141.383 224.127C142.561 225.772 144.228 227.07 146.327 227.379C149.748 227.881 153.2 226.187 156.051 224.536C156.683 224.168 156.069 223.243 155.436 223.612C152.999 225.026 150.157 226.459 147.241 226.361C145.374 226.298 143.786 225.353 142.668 223.952C142.032 223.154 141.48 222.274 141.293 221.267C141.116 220.304 141.279 219.295 141.649 218.387C142.489 216.316 144.179 214.613 145.887 213.167C147.496 211.807 149.272 210.619 151.1 209.554C151.732 209.185 151.118 208.261 150.485 208.629L150.481 208.626Z" fill="#66B1FF"/>
                <path d="M155.294 223.837C153.081 226.127 151.638 229.883 153.67 232.67C154.521 233.841 155.834 234.768 157.179 235.368C158.427 235.926 159.817 236.09 161.18 235.884C164.04 235.45 166.529 233.764 168.684 231.962C169.234 231.502 168.401 230.772 167.858 231.228C166.052 232.739 163.975 234.151 161.625 234.695C160.946 234.851 160.21 234.919 159.526 234.864C159.048 234.824 158.382 234.666 158.036 234.536C157.015 234.146 155.983 233.484 155.214 232.75C153.847 231.446 153.523 229.692 154.083 227.937C154.477 226.703 155.214 225.508 156.119 224.572C156.618 224.056 155.789 223.321 155.294 223.837Z" fill="#66B1FF"/>
            </g>
            <path d="M100.253 242.819L94.6687 231.466C94.0544 227.251 101.793 216.387 101.871 208.964C102.037 193.433 90.1684 188.532 88.0552 180.105C88.0552 180.105 91.2861 176.49 90.5459 173.723C89.4208 169.508 78.7994 165.052 75.1763 166.219C72.9372 166.941 72.2859 169.527 72.2859 169.527C61.3572 166.756 54.4402 168.927 50.8392 169.845C37.5938 173.227 30.4622 180.224 30.4622 180.224C28.523 178.609 27.9273 178.176 26.9724 178.405C23.6009 179.228 16.7061 185.902 16.9541 191.306C17.1058 194.629 22.6756 196.251 22.6756 196.251C24.1041 203.133 17.0799 215.242 21.5099 224.939C23.1197 228.462 27.5794 233.125 30.7732 236.818C30.677 238.389 29.6554 240.1 29.1299 241.707C8.39761 304.802 13.1719 342.305 13.1719 342.305C13.1719 342.305 36.2837 352.117 64.0328 352.121C95.7086 352.125 115.449 341.787 115.449 341.787C115.449 341.787 119.731 300.776 100.261 242.822L100.253 242.819Z" fill="#66B1FF"/>
            <path d="M85.4582 196.769C82.2459 194.26 62.6198 198.693 62.6198 198.693C62.6198 198.693 44.1104 202.416 42.7157 208.637C42.137 211.215 40.275 216.811 41.9664 220.289C44.0436 224.561 64.3929 232.683 72.0378 229.381C80.3244 228.507 91.827 211.647 92.1386 206.918C92.4168 202.642 88.2067 198.912 85.4618 196.769H85.4582Z" fill="white"/>
            <path d="M38.7939 186.523C39.4133 185.386 41.8016 182.036 48.5038 181.371C49.892 181.233 51.9742 182.933 50.5562 184.964C49.3173 186.741 41.809 189.774 40.391 189.727C38.9393 189.679 37.9542 188.063 38.7939 186.523Z" fill="#0073E4"/>
            <path d="M75.07 176.44C74.0086 175.737 70.3868 173.913 64.2629 176.224C62.9936 176.705 61.9723 179.04 64.1425 180.165C66.0355 181.143 73.9575 180.499 75.1648 179.852C76.4012 179.187 76.5107 177.39 75.07 176.437V176.44Z" fill="#0073E4"/>
            <path d="M65.4221 196.483C65.4221 196.483 53.1919 199.633 54.6335 203.392C56.0752 207.15 64.5343 211.59 68.9473 210.456C74.8313 208.94 78.6832 201.327 78.1659 197.328C77.6487 193.332 65.4185 196.483 65.4185 196.483H65.4221Z" fill="#0073E4"/>
            <path d="M56.4188 194.323C53.6628 192.09 49.4289 190.793 46.2395 192.847C44.6282 193.883 43.5207 195.52 42.7243 197.239C42.4242 197.887 43.3836 198.454 43.6836 197.802C44.8134 195.36 46.6841 193.052 49.5549 192.929C51.3774 192.851 53.148 193.537 54.6779 194.469C54.9409 194.629 55.2 194.797 55.4482 194.976C55.5186 195.024 55.5854 195.076 55.6521 195.129C55.7521 195.203 55.5261 195.028 55.6298 195.11C56.1817 195.557 56.9745 194.771 56.4152 194.32L56.4188 194.323Z" fill="#0073E4"/>
            <path d="M80.0261 186.965C77.0767 185.362 72.7586 184.721 70.1307 187.184C68.8073 188.422 68.1381 190.154 67.7713 191.844C67.6239 192.517 68.7165 192.807 68.864 192.13C69.3782 189.757 70.5845 187.305 73.3032 186.736C75.0085 186.382 76.8122 186.797 78.4229 187.42C78.4872 187.445 78.6309 187.502 78.8086 187.581C78.9183 187.631 79.0317 187.681 79.1413 187.731C79.2472 187.781 79.3531 187.831 79.4552 187.889C80.0904 188.232 80.6613 187.305 80.0261 186.962V186.965Z" fill="#0073E4"/>
            <path d="M22.4632 315.85C16.5082 287.075 29.4243 240.606 29.4243 240.606C29.4243 240.606 -11.8187 284.207 -10.2599 323.553C-10.0535 328.762 -7.61766 340.572 0.19462 341.437C0.19462 341.437 4.61294 347.852 9.08658 344.398C9.08658 344.398 12.0899 349.7 16.6004 345.826C18.9183 343.834 18.8372 339.6 18.347 336.357C18.745 336.71 19.1983 336.955 19.7032 337.055C23.7457 337.867 28.492 330.409 22.7765 316.584C22.6696 316.325 22.5665 316.084 22.4596 315.853L22.4632 315.85Z" fill="url(#paint4_linear_615_13289)"/>
            <path d="M81.98 207.158C77.2575 212.167 70.308 218.748 54.4422 213.152C53.5295 212.83 53.6383 214.334 61.342 219.379C65.8768 222.347 70.2662 223.818 73.2192 222.503C76.4601 221.062 77.9461 217.745 79.2531 215.315C82.597 209.096 83.4305 205.613 81.9757 207.155" fill="#143860"/>
            <path d="M77.3338 216.235C77.3338 216.235 68.1226 217.136 66.2489 221.347C66.0345 221.833 68.8624 222.928 71.723 222.123C72.5322 221.894 74.4975 220.787 75.7984 218.861" fill="#ED7865"/>
        </g>
    </g>
    <defs>
        <filter id="filter0_dddddd_615_13289" x="-40.9904" y="-12.7696" width="290.59" height="300.048" filterUnits="userSpaceOnUse" color-interpolation-filters="sRGB">
            <feFlood flood-opacity="0" result="BackgroundImageFix"/>
            <feColorMatrix in="SourceAlpha" type="matrix" values="0 0 0 0 0 0 0 0 0 0 0 0 0 0 0 0 0 0 127 0" result="hardAlpha"/>
            <feOffset/>
            <feGaussianBlur stdDeviation="1.60018"/>
            <feColorMatrix type="matrix" values="0 0 0 0 0 0 0 0 0 1 0 0 0 0 0.729412 0 0 0 1 0"/>
            <feBlend mode="normal" in2="BackgroundImageFix" result="effect1_dropShadow_615_13289"/>
            <feColorMatrix in="SourceAlpha" type="matrix" values="0 0 0 0 0 0 0 0 0 0 0 0 0 0 0 0 0 0 127 0" result="hardAlpha"/>
            <feOffset/>
            <feGaussianBlur stdDeviation="3.20036"/>
            <feColorMatrix type="matrix" values="0 0 0 0 0 0 0 0 0 1 0 0 0 0 0.729412 0 0 0 1 0"/>
            <feBlend mode="normal" in2="effect1_dropShadow_615_13289" result="effect2_dropShadow_615_13289"/>
            <feColorMatrix in="SourceAlpha" type="matrix" values="0 0 0 0 0 0 0 0 0 0 0 0 0 0 0 0 0 0 127 0" result="hardAlpha"/>
            <feOffset/>
            <feGaussianBlur stdDeviation="11.2013"/>
            <feColorMatrix type="matrix" values="0 0 0 0 0 0 0 0 0 1 0 0 0 0 0.729412 0 0 0 1 0"/>
            <feBlend mode="normal" in2="effect2_dropShadow_615_13289" result="effect3_dropShadow_615_13289"/>
            <feColorMatrix in="SourceAlpha" type="matrix" values="0 0 0 0 0 0 0 0 0 0 0 0 0 0 0 0 0 0 127 0" result="hardAlpha"/>
            <feOffset/>
            <feGaussianBlur stdDeviation="22.4025"/>
            <feColorMatrix type="matrix" values="0 0 0 0 0 0 0 0 0 1 0 0 0 0 0.729412 0 0 0 1 0"/>
            <feBlend mode="normal" in2="effect3_dropShadow_615_13289" result="effect4_dropShadow_615_13289"/>
            <feColorMatrix in="SourceAlpha" type="matrix" values="0 0 0 0 0 0 0 0 0 0 0 0 0 0 0 0 0 0 127 0" result="hardAlpha"/>
            <feOffset/>
            <feGaussianBlur stdDeviation="38.4043"/>
            <feColorMatrix type="matrix" values="0 0 0 0 0 0 0 0 0 1 0 0 0 0 0.729412 0 0 0 1 0"/>
            <feBlend mode="normal" in2="effect4_dropShadow_615_13289" result="effect5_dropShadow_615_13289"/>
            <feColorMatrix in="SourceAlpha" type="matrix" values="0 0 0 0 0 0 0 0 0 0 0 0 0 0 0 0 0 0 127 0" result="hardAlpha"/>
            <feOffset/>
            <feGaussianBlur stdDeviation="67.2076"/>
            <feColorMatrix type="matrix" values="0 0 0 0 0 0 0 0 0 1 0 0 0 0 0.729412 0 0 0 1 0"/>
            <feBlend mode="normal" in2="effect5_dropShadow_615_13289" result="effect6_dropShadow_615_13289"/>
            <feBlend mode="normal" in="SourceGraphic" in2="effect6_dropShadow_615_13289" result="shape"/>
        </filter>
        <filter id="filter1_dddddd_615_13289" x="-136.163" y="-91.4111" width="385.712" height="378.036" filterUnits="userSpaceOnUse" color-interpolation-filters="sRGB">
            <feFlood flood-opacity="0" result="BackgroundImageFix"/>
            <feColorMatrix in="SourceAlpha" type="matrix" values="0 0 0 0 0 0 0 0 0 0 0 0 0 0 0 0 0 0 127 0" result="hardAlpha"/>
            <feOffset/>
            <feGaussianBlur stdDeviation="2.16863"/>
            <feColorMatrix type="matrix" values="0 0 0 0 0 0 0 0 0 1 0 0 0 0 0.729412 0 0 0 1 0"/>
            <feBlend mode="normal" in2="BackgroundImageFix" result="effect1_dropShadow_615_13289"/>
            <feColorMatrix in="SourceAlpha" type="matrix" values="0 0 0 0 0 0 0 0 0 0 0 0 0 0 0 0 0 0 127 0" result="hardAlpha"/>
            <feOffset/>
            <feGaussianBlur stdDeviation="4.33725"/>
            <feColorMatrix type="matrix" values="0 0 0 0 0 0 0 0 0 1 0 0 0 0 0.729412 0 0 0 1 0"/>
            <feBlend mode="normal" in2="effect1_dropShadow_615_13289" result="effect2_dropShadow_615_13289"/>
            <feColorMatrix in="SourceAlpha" type="matrix" values="0 0 0 0 0 0 0 0 0 0 0 0 0 0 0 0 0 0 127 0" result="hardAlpha"/>
            <feOffset/>
            <feGaussianBlur stdDeviation="15.1804"/>
            <feColorMatrix type="matrix" values="0 0 0 0 0 0 0 0 0 1 0 0 0 0 0.729412 0 0 0 1 0"/>
            <feBlend mode="normal" in2="effect2_dropShadow_615_13289" result="effect3_dropShadow_615_13289"/>
            <feColorMatrix in="SourceAlpha" type="matrix" values="0 0 0 0 0 0 0 0 0 0 0 0 0 0 0 0 0 0 127 0" result="hardAlpha"/>
            <feOffset/>
            <feGaussianBlur stdDeviation="30.3608"/>
            <feColorMatrix type="matrix" values="0 0 0 0 0 0 0 0 0 1 0 0 0 0 0.729412 0 0 0 1 0"/>
            <feBlend mode="normal" in2="effect3_dropShadow_615_13289" result="effect4_dropShadow_615_13289"/>
            <feColorMatrix in="SourceAlpha" type="matrix" values="0 0 0 0 0 0 0 0 0 0 0 0 0 0 0 0 0 0 127 0" result="hardAlpha"/>
            <feOffset/>
            <feGaussianBlur stdDeviation="52.047"/>
            <feColorMatrix type="matrix" values="0 0 0 0 0 0 0 0 0 1 0 0 0 0 0.729412 0 0 0 1 0"/>
            <feBlend mode="normal" in2="effect4_dropShadow_615_13289" result="effect5_dropShadow_615_13289"/>
            <feColorMatrix in="SourceAlpha" type="matrix" values="0 0 0 0 0 0 0 0 0 0 0 0 0 0 0 0 0 0 127 0" result="hardAlpha"/>
            <feOffset/>
            <feGaussianBlur stdDeviation="91.0823"/>
            <feColorMatrix type="matrix" values="0 0 0 0 0 0 0 0 0 1 0 0 0 0 0.729412 0 0 0 1 0"/>
            <feBlend mode="normal" in2="effect5_dropShadow_615_13289" result="effect6_dropShadow_615_13289"/>
            <feBlend mode="normal" in="SourceGraphic" in2="effect6_dropShadow_615_13289" result="shape"/>
        </filter>
        <filter id="filter2_dddddd_615_13289" x="58.4859" y="45.115" width="387.258" height="388.477" filterUnits="userSpaceOnUse" color-interpolation-filters="sRGB">
            <feFlood flood-opacity="0" result="BackgroundImageFix"/>
            <feColorMatrix in="SourceAlpha" type="matrix" values="0 0 0 0 0 0 0 0 0 0 0 0 0 0 0 0 0 0 127 0" result="hardAlpha"/>
            <feOffset/>
            <feGaussianBlur stdDeviation="2.16863"/>
            <feColorMatrix type="matrix" values="0 0 0 0 0 0 0 0 0 1 0 0 0 0 0.729412 0 0 0 1 0"/>
            <feBlend mode="normal" in2="BackgroundImageFix" result="effect1_dropShadow_615_13289"/>
            <feColorMatrix in="SourceAlpha" type="matrix" values="0 0 0 0 0 0 0 0 0 0 0 0 0 0 0 0 0 0 127 0" result="hardAlpha"/>
            <feOffset/>
            <feGaussianBlur stdDeviation="4.33725"/>
            <feColorMatrix type="matrix" values="0 0 0 0 0 0 0 0 0 1 0 0 0 0 0.729412 0 0 0 1 0"/>
            <feBlend mode="normal" in2="effect1_dropShadow_615_13289" result="effect2_dropShadow_615_13289"/>
            <feColorMatrix in="SourceAlpha" type="matrix" values="0 0 0 0 0 0 0 0 0 0 0 0 0 0 0 0 0 0 127 0" result="hardAlpha"/>
            <feOffset/>
            <feGaussianBlur stdDeviation="15.1804"/>
            <feColorMatrix type="matrix" values="0 0 0 0 0 0 0 0 0 1 0 0 0 0 0.729412 0 0 0 1 0"/>
            <feBlend mode="normal" in2="effect2_dropShadow_615_13289" result="effect3_dropShadow_615_13289"/>
            <feColorMatrix in="SourceAlpha" type="matrix" values="0 0 0 0 0 0 0 0 0 0 0 0 0 0 0 0 0 0 127 0" result="hardAlpha"/>
            <feOffset/>
            <feGaussianBlur stdDeviation="30.3608"/>
            <feColorMatrix type="matrix" values="0 0 0 0 0 0 0 0 0 1 0 0 0 0 0.729412 0 0 0 1 0"/>
            <feBlend mode="normal" in2="effect3_dropShadow_615_13289" result="effect4_dropShadow_615_13289"/>
            <feColorMatrix in="SourceAlpha" type="matrix" values="0 0 0 0 0 0 0 0 0 0 0 0 0 0 0 0 0 0 127 0" result="hardAlpha"/>
            <feOffset/>
            <feGaussianBlur stdDeviation="52.047"/>
            <feColorMatrix type="matrix" values="0 0 0 0 0 0 0 0 0 1 0 0 0 0 0.729412 0 0 0 1 0"/>
            <feBlend mode="normal" in2="effect4_dropShadow_615_13289" result="effect5_dropShadow_615_13289"/>
            <feColorMatrix in="SourceAlpha" type="matrix" values="0 0 0 0 0 0 0 0 0 0 0 0 0 0 0 0 0 0 127 0" result="hardAlpha"/>
            <feOffset/>
            <feGaussianBlur stdDeviation="91.0823"/>
            <feColorMatrix type="matrix" values="0 0 0 0 0 0 0 0 0 1 0 0 0 0 0.729412 0 0 0 1 0"/>
            <feBlend mode="normal" in2="effect5_dropShadow_615_13289" result="effect6_dropShadow_615_13289"/>
            <feBlend mode="normal" in="SourceGraphic" in2="effect6_dropShadow_615_13289" result="shape"/>
        </filter>
        <filter id="filter3_dd_615_13289" x="-21.122" y="31.5129" width="274.48" height="283.413" filterUnits="userSpaceOnUse" color-interpolation-filters="sRGB">
            <feFlood flood-opacity="0" result="BackgroundImageFix"/>
            <feColorMatrix in="SourceAlpha" type="matrix" values="0 0 0 0 0 0 0 0 0 0 0 0 0 0 0 0 0 0 127 0" result="hardAlpha"/>
            <feOffset/>
            <feGaussianBlur stdDeviation="36.2752"/>
            <feColorMatrix type="matrix" values="0 0 0 0 0 0 0 0 0 1 0 0 0 0 0.729412 0 0 0 1 0"/>
            <feBlend mode="normal" in2="BackgroundImageFix" result="effect1_dropShadow_615_13289"/>
            <feColorMatrix in="SourceAlpha" type="matrix" values="0 0 0 0 0 0 0 0 0 0 0 0 0 0 0 0 0 0 127 0" result="hardAlpha"/>
            <feOffset/>
            <feGaussianBlur stdDeviation="63.4816"/>
            <feColorMatrix type="matrix" values="0 0 0 0 0 0 0 0 0 1 0 0 0 0 0.729412 0 0 0 1 0"/>
            <feBlend mode="normal" in2="effect1_dropShadow_615_13289" result="effect2_dropShadow_615_13289"/>
            <feBlend mode="normal" in="SourceGraphic" in2="effect2_dropShadow_615_13289" result="shape"/>
        </filter>
        <filter id="filter4_d_615_13289" x="76.5437" y="125.535" width="135.766" height="132.715" filterUnits="userSpaceOnUse" color-interpolation-filters="sRGB">
            <feFlood flood-opacity="0" result="BackgroundImageFix"/>
            <feColorMatrix in="SourceAlpha" type="matrix" values="0 0 0 0 0 0 0 0 0 0 0 0 0 0 0 0 0 0 127 0" result="hardAlpha"/>
            <feOffset/>
            <feGaussianBlur stdDeviation="29.6567"/>
            <feColorMatrix type="matrix" values="0 0 0 0 0 0 0 0 0 1 0 0 0 0 0.729412 0 0 0 1 0"/>
            <feBlend mode="normal" in2="BackgroundImageFix" result="effect1_dropShadow_615_13289"/>
            <feBlend mode="normal" in="SourceGraphic" in2="effect1_dropShadow_615_13289" result="shape"/>
        </filter>
        <linearGradient id="paint0_linear_615_13289" x1="153.664" y1="198.371" x2="109.273" y2="275.975" gradientUnits="userSpaceOnUse">
            <stop stop-color="#0F8AEF"/>
            <stop offset="0.3" stop-color="#2B96F4"/>
            <stop offset="0.83" stop-color="#66B1FF"/>
        </linearGradient>
        <linearGradient id="paint1_linear_615_13289" x1="9.56194" y1="347.24" x2="9.56194" y2="240.606" gradientUnits="userSpaceOnUse">
            <stop stop-color="#0F8AEF"/>
            <stop offset="0.3" stop-color="#2B96F4"/>
            <stop offset="0.83" stop-color="#66B1FF"/>
        </linearGradient>
        <linearGradient id="paint2_linear_615_13289" x1="153.664" y1="198.37" x2="109.273" y2="275.974" gradientUnits="userSpaceOnUse">
            <stop stop-color="#0F8AEF"/>
            <stop offset="0.3" stop-color="#2B96F4"/>
            <stop offset="0.83" stop-color="#66B1FF"/>
        </linearGradient>
        <linearGradient id="paint3_linear_615_13289" x1="151.168" y1="197.89" x2="109.548" y2="278.338" gradientUnits="userSpaceOnUse">
            <stop stop-color="#0F8AEF"/>
            <stop offset="0.3" stop-color="#2B96F4"/>
            <stop offset="0.83" stop-color="#66B1FF"/>
        </linearGradient>
        <linearGradient id="paint4_linear_615_13289" x1="9.56194" y1="347.24" x2="9.56194" y2="240.606" gradientUnits="userSpaceOnUse">
            <stop stop-color="#0F8AEF"/>
            <stop offset="0.3" stop-color="#2B96F4"/>
            <stop offset="0.83" stop-color="#66B1FF"/>
        </linearGradient>
        <clipPath id="clip0_615_13289">
            <rect width="336" height="328" fill="white"/>
        </clipPath>
        <clipPath id="clip1_615_13289">
            <path d="M17.5758 247.576H219V288H30.1212C23.1926 288 17.5758 282.383 17.5758 275.454V247.576Z" fill="white"/>
        </clipPath>
        <clipPath id="clip2_615_13289">
            <rect width="62.7273" height="66.9091" fill="white" transform="matrix(-0.0909521 -0.995855 0.995949 -0.0899242 112.364 256.636)"/>
        </clipPath>
        <clipPath id="clip3_615_13289">
            <rect width="7.66667" height="15.3333" fill="white" transform="matrix(0.481688 0.876343 -0.876911 0.480652 149.303 184.848)"/>
        </clipPath>
        <clipPath id="clip4_615_13289">
            <rect width="207" height="122.667" fill="white" transform="translate(12 127)"/>
        </clipPath>
        <clipPath id="clip5_615_13289">
            <rect width="42.5151" height="136.606" fill="white" transform="matrix(0.70913 -0.705078 0.70913 0.705078 119.333 203.665)"/>
        </clipPath>
    </defs>
</svg>
