<svg width="298" height="306" viewBox="0 0 298 306" fill="none" xmlns="http://www.w3.org/2000/svg">
    <g clip-path="url(#clip0_591_14670)">
        <path d="M226.079 190.667C214.116 180.316 197.493 177.536 183.493 183.766C179.317 185.621 173.6 191.333 174.816 196.168C176.778 203.951 185.082 208.527 185.082 208.527C183.541 204.041 176.389 195.75 169.653 200.955C157.44 210.382 170.789 225.806 177.146 226.826C156.827 273.563 112.315 217.373 112.315 217.373L133.942 283.249C176.357 316.163 205.818 307.032 233.316 234.937C233.316 234.937 238.116 224.95 237.199 211.375C236.607 202.683 232.324 196.073 226.084 190.672L226.079 190.667Z" fill="url(#paint0_linear_591_14670)"/>
        <path d="M235.275 239.212L235.804 239.685C233.817 243.977 230.898 247.878 227.349 250.968L226.757 250.581C230.359 247.491 233.305 243.548 235.275 239.208L235.275 239.212Z" fill="white"/>
        <g filter="url(#filter0_dd_591_14670)">
            <path d="M137.285 161.444C136.592 161.136 136.048 160.697 135.649 160.136C133.812 157.577 135.76 153.187 140.002 150.347C142.811 148.467 145.923 147.673 148.362 148.224L149.826 148.553L143.323 123.569C143.27 123.347 143.357 123.126 143.549 123.014C143.953 122.773 153.527 117.232 161.713 120.868C162.598 121.26 163.447 121.761 164.237 122.335C164.351 122.422 164.425 122.542 164.443 122.673C164.46 122.805 164.425 122.938 164.348 123.052C164.202 123.234 163.94 123.303 163.716 123.204C162.915 122.625 162.142 122.183 161.343 121.828C155.139 119.073 147.903 121.992 145.077 123.371L144.423 123.686L151.433 150.689C152.394 153.403 150.37 157.141 146.641 159.639C143.389 161.818 139.716 162.523 137.285 161.444ZM148.912 149.47C146.844 148.552 143.508 149.246 140.588 151.201C138.809 152.39 137.395 153.901 136.619 155.448C135.814 157.056 135.763 158.555 136.483 159.567C136.775 159.969 137.188 160.3 137.71 160.532C139.768 161.446 143.114 160.756 146.034 158.801C149.799 156.281 151.64 152.524 150.129 150.431C149.837 150.029 149.424 149.697 148.901 149.465L148.912 149.47Z" fill="#00FFBA"/>
        </g>
        <g clip-path="url(#clip1_591_14670)" filter="url(#filter1_d_591_14670)">
        </g>
        <path d="M126.939 240.648L118.927 224.359C118.045 218.311 129.148 202.723 129.26 192.073C129.499 169.79 112.47 162.758 109.438 150.668C109.438 150.668 114.073 145.481 113.011 141.511C111.397 135.463 96.1578 129.07 90.9593 130.744C87.7468 131.78 86.8122 135.49 86.8122 135.49C71.132 131.515 61.2076 134.629 56.041 135.947C37.0367 140.799 26.8044 150.838 26.8044 150.838C24.022 148.521 23.1673 147.899 21.7973 148.229C16.9599 149.408 7.06735 158.985 7.42312 166.739C7.64082 171.506 15.6323 173.834 15.6323 173.834C17.6819 183.708 7.60369 201.081 13.9597 214.995C16.2695 220.049 22.6681 226.74 27.2506 232.038C27.1126 234.292 25.6468 236.747 24.8928 239.053C-4.85353 329.58 1.9965 383.39 1.9965 383.39C1.9965 383.39 35.1569 397.468 74.9709 397.473C120.419 397.478 148.742 382.646 148.742 382.646C148.742 382.646 154.886 323.804 126.95 240.653L126.939 240.648Z" fill="#66B1FF"/>
        <path d="M15.3277 345.432C6.78355 304.147 25.3154 237.473 25.3154 237.473C25.3154 237.473 -33.8593 300.031 -31.6228 356.484C-31.3267 363.958 -27.8318 380.903 -16.6229 382.144C-16.6229 382.144 -10.2835 391.348 -3.86483 386.392C-3.86483 386.392 0.444336 393.999 6.91591 388.441C10.2416 385.583 10.1251 379.508 9.42192 374.856C9.99294 375.361 10.6434 375.713 11.3677 375.856C17.1678 377.022 23.9777 366.322 15.7772 346.486C15.6239 346.113 15.4759 345.767 15.3226 345.437L15.3277 345.432Z" fill="url(#paint1_linear_591_14670)"/>
        <path d="M118.448 279.056C98.947 258.835 77.5461 276.668 75.8166 278.166C74.087 276.662 52.6914 258.835 33.1855 279.056C11.539 301.5 31.2638 347.065 37.9899 357.797C44.7161 368.529 58.0243 385.945 76.0141 386.473C93.9986 385.945 106.917 368.529 113.643 357.797C120.369 347.065 140.089 301.5 118.448 279.056Z" fill="white"/>
    </g>
    <g clip-path="url(#clip2_591_14670)">
        <path d="M226.079 190.665C214.116 180.314 197.493 177.534 183.493 183.764C179.317 185.619 173.6 191.331 174.816 196.166C176.778 203.949 185.082 208.525 185.082 208.525C183.541 204.039 176.389 195.748 169.653 200.953C157.44 210.38 170.789 225.804 177.146 226.824C156.827 273.561 112.315 217.371 112.315 217.371L133.942 283.247C176.357 316.161 205.818 307.03 233.316 234.935C233.316 234.935 238.116 224.948 237.199 211.373C236.607 202.681 232.324 196.071 226.084 190.67L226.079 190.665Z" fill="url(#paint2_linear_591_14670)"/>
        <path d="M238.285 239.983C234.897 237.17 177.665 194.462 177.665 194.462L165.089 214.213C165.089 214.213 228.929 248.669 232.173 249.931C235.417 251.194 241.674 242.796 238.285 239.983Z" fill="#4C4C4C"/>
        <path d="M232.839 235.101L232.347 234.739C232.259 234.66 232.145 234.609 232.02 234.599C231.772 234.58 231.541 234.73 231.459 234.966C230.011 239.1 227.743 242.819 224.693 245.95C224.572 246.075 224.516 246.25 224.544 246.422C224.572 246.595 224.68 246.743 224.836 246.823L225.425 247.127C225.642 247.238 225.906 247.194 226.074 247.019C229.188 243.776 231.513 239.965 233.032 235.73C233.114 235.501 233.036 235.245 232.839 235.101Z" fill="white" stroke="white" stroke-width="1.10082" stroke-linejoin="round"/>
        <path d="M174.023 188.995C172.737 183.91 169.72 177.528 164.946 174.488C155.015 168.165 141.839 171.09 135.517 181.021C129.194 190.951 132.119 204.127 142.049 210.45C146.823 213.49 153.484 213.689 158.635 212.704L174.023 188.995Z" fill="#989898"/>
        <path d="M164.101 173.36C163.85 173.244 163.553 173.333 163.405 173.566C163.341 173.668 163.314 173.784 163.322 173.897C163.284 174.306 163.118 174.853 162.901 175.461C162.831 175.657 162.755 175.861 162.679 176.065C162.522 176.486 162.366 176.905 162.266 177.245C158.608 189.429 151.194 201.225 141.586 209.986C141.453 210.107 141.388 210.286 141.411 210.464C141.434 210.643 141.544 210.798 141.703 210.881C141.792 210.927 141.884 210.986 141.989 211.053C141.992 211.055 141.994 211.056 141.996 211.058C142.046 211.089 142.102 211.125 142.156 211.157C142.204 211.185 142.278 211.226 142.36 211.255C142.551 211.322 142.764 211.278 142.914 211.141C152.664 202.191 160.325 190.176 164.044 177.753C164.131 177.468 164.257 177.134 164.398 176.76C164.473 176.563 164.552 176.354 164.631 176.135C164.848 175.539 165.067 174.874 165.125 174.317C165.144 174.134 165.07 173.954 164.929 173.837C164.838 173.761 164.682 173.667 164.553 173.595C164.411 173.513 164.244 173.425 164.101 173.36Z" fill="#4C4C4C" stroke="#4C4C4C" stroke-width="1.10082" stroke-linejoin="round"/>
        <path fill-rule="evenodd" clip-rule="evenodd" d="M158.441 212.825C158.594 213.531 159.014 214.136 159.622 214.527L160.604 215.159L160.598 215.169L162.687 216.499C163.297 216.888 164.022 217.015 164.728 216.858C165.434 216.702 166.036 216.28 166.425 215.669L179.705 194.812C180.093 194.202 180.221 193.477 180.064 192.771C179.908 192.065 179.485 191.462 178.875 191.074L178.003 190.518L178.006 190.513L175.923 189.174C175.315 188.782 174.591 188.652 173.884 188.805C173.177 188.959 172.572 189.378 172.181 189.987L158.809 210.785C158.418 211.394 158.287 212.118 158.441 212.825Z" fill="#ECECEC"/>
        <g clip-path="url(#clip3_591_14670)">
            <path d="M223.609 189.525C211.167 179.614 194.369 177.587 180.586 184.554C176.475 186.629 170.778 193.686 172.203 198.522C174.503 206.306 187.339 202.67 187.339 202.67C184.955 205.053 183.931 207.177 185.361 212.351C199.028 226.013 199.311 213.688 205.733 214.419C194.474 230.715 214.755 230.839 214.755 230.839L224.028 225.271L230.658 225.158C213.355 214.298 227.481 231.431 232.437 233.675C232.437 233.675 237.141 223.653 235.645 209.958C234.682 201.189 230.105 194.701 223.615 189.531L223.609 189.525Z" fill="url(#paint3_linear_591_14670)"/>
            <path d="M173.722 200.603C177.365 204.33 184.214 205.125 188.345 201.594C189.11 200.938 187.942 199.912 187.182 200.563C183.678 203.562 177.786 202.527 174.794 199.466C174.093 198.751 173.027 199.893 173.722 200.603Z" fill="#66B1FF"/>
            <path d="M199.006 191.589C196.496 193.048 194.081 194.673 191.844 196.505C189.131 198.724 186.451 201.337 185.02 204.531C184.355 206.02 183.963 207.638 184.113 209.258C184.266 210.941 184.969 212.455 185.951 213.829C187.642 216.189 190.034 218.051 193.045 218.496C197.954 219.215 202.906 216.785 206.997 214.416C207.904 213.888 207.023 212.562 206.115 213.09C202.618 215.119 198.541 217.175 194.356 217.035C191.678 216.944 189.4 215.589 187.795 213.578C186.883 212.433 186.091 211.171 185.823 209.727C185.568 208.344 185.803 206.897 186.334 205.594C187.538 202.622 189.963 200.179 192.414 198.104C194.722 196.153 197.271 194.448 199.893 192.92C200.801 192.391 199.919 191.065 199.011 191.594L199.006 191.589Z" fill="#66B1FF"/>
            <path d="M205.911 213.413C202.736 216.698 200.666 222.088 203.581 226.086C204.802 227.766 206.686 229.096 208.615 229.958C210.407 230.758 212.401 230.994 214.356 230.698C218.46 230.075 222.031 227.656 225.122 225.071C225.912 224.411 224.717 223.363 223.938 224.017C221.346 226.186 218.366 228.211 214.995 228.993C214.02 229.216 212.965 229.313 211.983 229.234C211.298 229.177 210.342 228.95 209.845 228.764C208.38 228.205 206.899 227.254 205.796 226.202C203.836 224.331 203.37 221.814 204.173 219.295C204.739 217.525 205.796 215.811 207.094 214.467C207.811 213.727 206.622 212.673 205.911 213.413Z" fill="#66B1FF"/>
        </g>
        <g filter="url(#filter2_dddddd_591_14670)">
            <path d="M137.285 161.444C136.592 161.136 136.048 160.697 135.649 160.136C133.812 157.577 135.76 153.187 140.002 150.347C142.811 148.467 145.923 147.673 148.362 148.224L149.826 148.553L143.323 123.569C143.27 123.347 143.357 123.126 143.549 123.014C143.953 122.773 153.527 117.232 161.713 120.868C162.598 121.26 163.447 121.761 164.237 122.335C164.351 122.422 164.425 122.542 164.443 122.673C164.46 122.805 164.425 122.938 164.348 123.052C164.202 123.234 163.94 123.303 163.716 123.204C162.915 122.625 162.142 122.183 161.343 121.828C155.139 119.073 147.903 121.992 145.077 123.371L144.423 123.686L151.433 150.689C152.394 153.403 150.37 157.141 146.641 159.639C143.389 161.818 139.716 162.523 137.285 161.444ZM148.912 149.47C146.844 148.552 143.508 149.246 140.588 151.201C138.809 152.39 137.395 153.901 136.619 155.448C135.814 157.056 135.763 158.555 136.483 159.567C136.775 159.969 137.188 160.3 137.71 160.532C139.768 161.446 143.114 160.756 146.034 158.801C149.799 156.281 151.64 152.524 150.129 150.431C149.837 150.029 149.424 149.697 148.901 149.465L148.912 149.47Z" fill="#00FFBA"/>
        </g>
        <g filter="url(#filter3_dddddd_591_14670)">
            <path d="M180.889 173.262C180.713 172.94 180.63 172.601 180.647 172.254C180.679 171.41 181.275 170.613 182.319 170.018C183.32 169.447 184.632 169.118 186.009 169.097C187.387 169.076 188.671 169.364 189.632 169.909C190.051 170.149 190.398 170.435 190.655 170.759L191.093 171.31L196.997 157.707C197.048 157.587 197.187 157.528 197.308 157.571C197.37 157.594 197.406 157.638 197.423 157.669C197.457 157.73 197.458 157.799 197.432 157.864L191.024 172.609C190.515 174.121 188.308 175.216 185.76 175.254C183.521 175.289 181.563 174.487 180.889 173.262ZM190.449 171.319C190.19 170.847 189.717 170.51 189.369 170.311C188.48 169.807 187.281 169.54 185.989 169.561C184.697 169.581 183.472 169.879 182.542 170.412C182.025 170.707 181.159 171.337 181.123 172.251C181.112 172.509 181.177 172.772 181.315 173.023C181.916 174.116 183.712 174.834 185.78 174.801C188.348 174.764 190.119 173.656 190.541 172.588L190.553 172.564L190.561 172.525C190.614 172.375 190.643 172.239 190.651 172.109C190.662 171.839 190.595 171.572 190.457 171.321L190.449 171.319Z" fill="#00FFBA"/>
        </g>
        <g filter="url(#filter4_dddddd_591_14670)">
            <path d="M84.8511 112.668C84.1921 112.157 83.8281 111.523 83.7937 110.843C83.7612 110.027 84.2236 109.243 85.1001 108.616C86.0536 107.946 87.3678 107.546 88.8043 107.491C90.4687 107.432 91.9997 107.845 93.0153 108.631C93.1125 108.707 93.2098 108.782 93.2891 108.869L93.9047 109.458L98.4781 95.9205C98.5249 95.7935 98.6407 95.7113 98.7771 95.7139L112.474 96.1963C112.542 96.1976 112.603 96.2192 112.652 96.2568C112.679 96.2778 112.7 96.2945 112.714 96.322C112.773 96.402 112.786 96.5071 112.754 96.5935L107.74 111.466C107.353 113.022 105.268 114.19 102.772 114.284C101.428 114.333 100.144 114.069 99.1524 113.541C98.9329 113.423 98.726 113.288 98.5423 113.146C97.8833 112.635 97.5194 112.001 97.4849 111.321C97.445 110.448 97.9694 109.617 98.9566 108.982C99.8901 108.382 101.151 108.018 102.501 107.973C104.165 107.914 105.701 108.322 106.716 109.108C106.813 109.184 106.911 109.259 106.99 109.346L107.606 109.935L112.045 96.7922L98.983 96.3288L94.0436 110.983C93.6567 112.539 91.5718 113.708 89.0758 113.802C87.7309 113.851 86.4476 113.587 85.4558 113.059C85.2363 112.94 85.0294 112.806 84.8457 112.664L84.8511 112.668ZM92.6527 109.098C91.7776 108.42 90.3484 108.043 88.8396 108.103C86.3382 108.192 84.3523 109.411 84.4123 110.816C84.4329 111.313 84.7225 111.786 85.2411 112.188C85.3924 112.305 85.5669 112.415 85.7552 112.518C86.6331 112.992 87.8362 113.236 89.0596 113.188C91.561 113.098 93.5469 111.879 93.4869 110.475C93.461 109.973 93.1755 109.494 92.6569 109.093L92.6527 109.098ZM106.354 109.575C105.478 108.897 104.049 108.52 102.54 108.58C101.321 108.623 100.144 108.957 99.3045 109.492C98.5101 110.002 98.0824 110.642 98.1131 111.293C98.1336 111.79 98.4233 112.263 98.9419 112.665C99.0932 112.782 99.2677 112.892 99.456 112.995C100.334 113.469 101.537 113.713 102.76 113.665C105.262 113.575 107.248 112.356 107.188 110.952C107.162 110.45 106.876 109.971 106.358 109.57L106.354 109.575Z" fill="#00FFBA"/>
        </g>
        <path d="M126.939 240.648L118.927 224.359C118.045 218.311 129.148 202.723 129.26 192.073C129.499 169.79 112.47 162.758 109.438 150.668C109.438 150.668 114.073 145.481 113.011 141.511C111.397 135.463 96.1578 129.07 90.9593 130.744C87.7468 131.78 86.8122 135.49 86.8122 135.49C71.132 131.515 61.2076 134.629 56.041 135.947C37.0367 140.799 26.8044 150.838 26.8044 150.838C24.022 148.521 23.1673 147.899 21.7973 148.229C16.9599 149.408 7.06735 158.985 7.42312 166.739C7.64082 171.506 15.6323 173.834 15.6323 173.834C17.6819 183.708 7.60369 201.081 13.9597 214.995C16.2695 220.049 22.6681 226.74 27.2506 232.038C27.1126 234.292 25.6468 236.747 24.8928 239.053C-4.85353 329.58 1.9965 383.39 1.9965 383.39C1.9965 383.39 35.1569 397.468 74.9709 397.473C120.419 397.478 148.742 382.646 148.742 382.646C148.742 382.646 154.886 323.804 126.95 240.653L126.939 240.648Z" fill="#66B1FF"/>
        <path d="M105.712 174.577C101.103 170.977 72.9435 177.337 72.9435 177.337C72.9435 177.337 46.3865 182.679 44.3854 191.604C43.5552 195.304 40.8835 203.332 43.3103 208.323C46.2907 214.452 75.4875 226.106 86.4563 221.368C98.3458 220.114 114.85 195.923 115.297 189.138C115.696 183.004 109.655 177.652 105.717 174.577H105.712Z" fill="white"/>
        <path d="M38.7586 159.875C39.6473 158.244 43.074 153.438 52.6901 152.484C54.6819 152.286 57.6695 154.726 55.6349 157.639C53.8573 160.188 43.0846 164.54 41.05 164.472C38.9672 164.405 37.5539 162.085 38.7586 159.875Z" fill="#0073E4"/>
        <path d="M90.807 145.409C89.2841 144.401 84.0876 141.784 75.3011 145.1C73.48 145.789 72.0146 149.14 75.1284 150.754C77.8444 152.157 89.2107 151.233 90.9429 150.304C92.7169 149.35 92.8741 146.773 90.807 145.404V145.409Z" fill="#0073E4"/>
        <path d="M76.9641 174.166C76.9641 174.166 59.4164 178.686 61.4849 184.079C63.5533 189.471 75.6904 195.842 82.022 194.214C90.4643 192.039 95.9909 181.116 95.2488 175.378C94.5066 169.646 76.959 174.166 76.959 174.166H76.9641Z" fill="#0073E4"/>
        <path d="M64.0464 171.067C60.0922 167.863 54.0174 166.002 49.4413 168.949C47.1294 170.436 45.5404 172.785 44.3977 175.25C43.9672 176.181 45.3437 176.994 45.7742 176.058C47.3952 172.555 50.0792 169.243 54.1982 169.067C56.813 168.955 59.3536 169.939 61.5486 171.276C61.9259 171.506 62.2977 171.747 62.6538 172.004C62.7548 172.073 62.8506 172.148 62.9463 172.223C63.0898 172.33 62.7656 172.078 62.9144 172.196C63.7063 172.838 64.8437 171.709 64.0412 171.062L64.0464 171.067Z" fill="#0073E4"/>
        <path d="M97.9178 160.51C93.6862 158.209 87.4906 157.29 83.7201 160.823C81.8213 162.6 80.8612 165.086 80.335 167.51C80.1234 168.475 81.6911 168.891 81.9026 167.92C82.6405 164.516 84.3712 160.998 88.272 160.181C90.7187 159.673 93.3066 160.269 95.6177 161.162C95.7099 161.198 95.9161 161.28 96.1711 161.393C96.3284 161.465 96.4911 161.537 96.6484 161.609C96.8003 161.681 96.9523 161.753 97.0988 161.835C98.0102 162.328 98.8293 160.998 97.9178 160.505V160.51Z" fill="#0073E4"/>
        <path d="M15.3277 345.432C6.78355 304.147 25.3154 237.473 25.3154 237.473C25.3154 237.473 -33.8593 300.031 -31.6228 356.484C-31.3267 363.958 -27.8318 380.903 -16.6229 382.144C-16.6229 382.144 -10.2835 391.348 -3.86483 386.392C-3.86483 386.392 0.444336 393.999 6.91591 388.441C10.2416 385.583 10.1251 379.508 9.42192 374.856C9.99294 375.361 10.6434 375.713 11.3677 375.856C17.1678 377.022 23.9777 366.322 15.7772 346.486C15.6239 346.113 15.4759 345.767 15.3226 345.437L15.3277 345.432Z" fill="url(#paint4_linear_591_14670)"/>
        <path d="M100.721 189.482C93.9454 196.67 83.9744 206.112 61.2104 198.083C59.901 197.62 60.0571 199.778 71.1101 207.016C77.6167 211.275 83.9144 213.386 88.1514 211.499C92.8013 209.431 94.9334 204.673 96.8087 201.185C101.606 192.263 102.802 187.266 100.715 189.478" fill="#143860"/>
        <path d="M94.0548 202.506C94.0548 202.506 80.8388 203.799 78.1504 209.841C77.8429 210.539 81.9003 212.109 86.0046 210.953C87.1657 210.626 89.9854 209.037 91.852 206.274" fill="#ED7865"/>
    </g>
    <defs>
        <filter id="filter0_dd_591_14670" x="-47.2073" y="-62.5298" width="393.819" height="406.637" filterUnits="userSpaceOnUse" color-interpolation-filters="sRGB">
            <feFlood flood-opacity="0" result="BackgroundImageFix"/>
            <feColorMatrix in="SourceAlpha" type="matrix" values="0 0 0 0 0 0 0 0 0 0 0 0 0 0 0 0 0 0 127 0" result="hardAlpha"/>
            <feOffset/>
            <feGaussianBlur stdDeviation="52.047"/>
            <feColorMatrix type="matrix" values="0 0 0 0 0 0 0 0 0 1 0 0 0 0 0.729412 0 0 0 1 0"/>
            <feBlend mode="normal" in2="BackgroundImageFix" result="effect1_dropShadow_591_14670"/>
            <feColorMatrix in="SourceAlpha" type="matrix" values="0 0 0 0 0 0 0 0 0 0 0 0 0 0 0 0 0 0 127 0" result="hardAlpha"/>
            <feOffset/>
            <feGaussianBlur stdDeviation="91.0823"/>
            <feColorMatrix type="matrix" values="0 0 0 0 0 0 0 0 0 1 0 0 0 0 0.729412 0 0 0 1 0"/>
            <feBlend mode="normal" in2="effect1_dropShadow_591_14670" result="effect2_dropShadow_591_14670"/>
            <feBlend mode="normal" in="SourceGraphic" in2="effect2_dropShadow_591_14670" result="shape"/>
        </filter>
        <filter id="filter1_d_591_14670" x="92.9215" y="72.3713" width="194.794" height="190.418" filterUnits="userSpaceOnUse" color-interpolation-filters="sRGB">
            <feFlood flood-opacity="0" result="BackgroundImageFix"/>
            <feColorMatrix in="SourceAlpha" type="matrix" values="0 0 0 0 0 0 0 0 0 0 0 0 0 0 0 0 0 0 127 0" result="hardAlpha"/>
            <feOffset/>
            <feGaussianBlur stdDeviation="42.5509"/>
            <feColorMatrix type="matrix" values="0 0 0 0 0 0 0 0 0 1 0 0 0 0 0.729412 0 0 0 1 0"/>
            <feBlend mode="normal" in2="BackgroundImageFix" result="effect1_dropShadow_591_14670"/>
            <feBlend mode="normal" in="SourceGraphic" in2="effect1_dropShadow_591_14670" result="shape"/>
        </filter>
        <filter id="filter2_dddddd_591_14670" x="-47.2073" y="-62.5298" width="393.819" height="406.637" filterUnits="userSpaceOnUse" color-interpolation-filters="sRGB">
            <feFlood flood-opacity="0" result="BackgroundImageFix"/>
            <feColorMatrix in="SourceAlpha" type="matrix" values="0 0 0 0 0 0 0 0 0 0 0 0 0 0 0 0 0 0 127 0" result="hardAlpha"/>
            <feOffset/>
            <feGaussianBlur stdDeviation="2.16863"/>
            <feColorMatrix type="matrix" values="0 0 0 0 0 0 0 0 0 1 0 0 0 0 0.729412 0 0 0 1 0"/>
            <feBlend mode="normal" in2="BackgroundImageFix" result="effect1_dropShadow_591_14670"/>
            <feColorMatrix in="SourceAlpha" type="matrix" values="0 0 0 0 0 0 0 0 0 0 0 0 0 0 0 0 0 0 127 0" result="hardAlpha"/>
            <feOffset/>
            <feGaussianBlur stdDeviation="4.33725"/>
            <feColorMatrix type="matrix" values="0 0 0 0 0 0 0 0 0 1 0 0 0 0 0.729412 0 0 0 1 0"/>
            <feBlend mode="normal" in2="effect1_dropShadow_591_14670" result="effect2_dropShadow_591_14670"/>
            <feColorMatrix in="SourceAlpha" type="matrix" values="0 0 0 0 0 0 0 0 0 0 0 0 0 0 0 0 0 0 127 0" result="hardAlpha"/>
            <feOffset/>
            <feGaussianBlur stdDeviation="15.1804"/>
            <feColorMatrix type="matrix" values="0 0 0 0 0 0 0 0 0 1 0 0 0 0 0.729412 0 0 0 1 0"/>
            <feBlend mode="normal" in2="effect2_dropShadow_591_14670" result="effect3_dropShadow_591_14670"/>
            <feColorMatrix in="SourceAlpha" type="matrix" values="0 0 0 0 0 0 0 0 0 0 0 0 0 0 0 0 0 0 127 0" result="hardAlpha"/>
            <feOffset/>
            <feGaussianBlur stdDeviation="30.3608"/>
            <feColorMatrix type="matrix" values="0 0 0 0 0 0 0 0 0 1 0 0 0 0 0.729412 0 0 0 1 0"/>
            <feBlend mode="normal" in2="effect3_dropShadow_591_14670" result="effect4_dropShadow_591_14670"/>
            <feColorMatrix in="SourceAlpha" type="matrix" values="0 0 0 0 0 0 0 0 0 0 0 0 0 0 0 0 0 0 127 0" result="hardAlpha"/>
            <feOffset/>
            <feGaussianBlur stdDeviation="52.047"/>
            <feColorMatrix type="matrix" values="0 0 0 0 0 0 0 0 0 1 0 0 0 0 0.729412 0 0 0 1 0"/>
            <feBlend mode="normal" in2="effect4_dropShadow_591_14670" result="effect5_dropShadow_591_14670"/>
            <feColorMatrix in="SourceAlpha" type="matrix" values="0 0 0 0 0 0 0 0 0 0 0 0 0 0 0 0 0 0 127 0" result="hardAlpha"/>
            <feOffset/>
            <feGaussianBlur stdDeviation="91.0823"/>
            <feColorMatrix type="matrix" values="0 0 0 0 0 0 0 0 0 1 0 0 0 0 0.729412 0 0 0 1 0"/>
            <feBlend mode="normal" in2="effect5_dropShadow_591_14670" result="effect6_dropShadow_591_14670"/>
            <feBlend mode="normal" in="SourceGraphic" in2="effect6_dropShadow_591_14670" result="shape"/>
        </filter>
        <filter id="filter3_dddddd_591_14670" x="-1.51945" y="-24.6074" width="381.134" height="382.027" filterUnits="userSpaceOnUse" color-interpolation-filters="sRGB">
            <feFlood flood-opacity="0" result="BackgroundImageFix"/>
            <feColorMatrix in="SourceAlpha" type="matrix" values="0 0 0 0 0 0 0 0 0 0 0 0 0 0 0 0 0 0 127 0" result="hardAlpha"/>
            <feOffset/>
            <feGaussianBlur stdDeviation="2.16863"/>
            <feColorMatrix type="matrix" values="0 0 0 0 0 0 0 0 0 1 0 0 0 0 0.729412 0 0 0 1 0"/>
            <feBlend mode="normal" in2="BackgroundImageFix" result="effect1_dropShadow_591_14670"/>
            <feColorMatrix in="SourceAlpha" type="matrix" values="0 0 0 0 0 0 0 0 0 0 0 0 0 0 0 0 0 0 127 0" result="hardAlpha"/>
            <feOffset/>
            <feGaussianBlur stdDeviation="4.33725"/>
            <feColorMatrix type="matrix" values="0 0 0 0 0 0 0 0 0 1 0 0 0 0 0.729412 0 0 0 1 0"/>
            <feBlend mode="normal" in2="effect1_dropShadow_591_14670" result="effect2_dropShadow_591_14670"/>
            <feColorMatrix in="SourceAlpha" type="matrix" values="0 0 0 0 0 0 0 0 0 0 0 0 0 0 0 0 0 0 127 0" result="hardAlpha"/>
            <feOffset/>
            <feGaussianBlur stdDeviation="15.1804"/>
            <feColorMatrix type="matrix" values="0 0 0 0 0 0 0 0 0 1 0 0 0 0 0.729412 0 0 0 1 0"/>
            <feBlend mode="normal" in2="effect2_dropShadow_591_14670" result="effect3_dropShadow_591_14670"/>
            <feColorMatrix in="SourceAlpha" type="matrix" values="0 0 0 0 0 0 0 0 0 0 0 0 0 0 0 0 0 0 127 0" result="hardAlpha"/>
            <feOffset/>
            <feGaussianBlur stdDeviation="30.3608"/>
            <feColorMatrix type="matrix" values="0 0 0 0 0 0 0 0 0 1 0 0 0 0 0.729412 0 0 0 1 0"/>
            <feBlend mode="normal" in2="effect3_dropShadow_591_14670" result="effect4_dropShadow_591_14670"/>
            <feColorMatrix in="SourceAlpha" type="matrix" values="0 0 0 0 0 0 0 0 0 0 0 0 0 0 0 0 0 0 127 0" result="hardAlpha"/>
            <feOffset/>
            <feGaussianBlur stdDeviation="52.047"/>
            <feColorMatrix type="matrix" values="0 0 0 0 0 0 0 0 0 1 0 0 0 0 0.729412 0 0 0 1 0"/>
            <feBlend mode="normal" in2="effect4_dropShadow_591_14670" result="effect5_dropShadow_591_14670"/>
            <feColorMatrix in="SourceAlpha" type="matrix" values="0 0 0 0 0 0 0 0 0 0 0 0 0 0 0 0 0 0 127 0" result="hardAlpha"/>
            <feOffset/>
            <feGaussianBlur stdDeviation="91.0823"/>
            <feColorMatrix type="matrix" values="0 0 0 0 0 0 0 0 0 1 0 0 0 0 0.729412 0 0 0 1 0"/>
            <feBlend mode="normal" in2="effect5_dropShadow_591_14670" result="effect6_dropShadow_591_14670"/>
            <feBlend mode="normal" in="SourceGraphic" in2="effect6_dropShadow_591_14670" result="shape"/>
        </filter>
        <filter id="filter4_dddddd_591_14670" x="-98.3724" y="-86.4507" width="393.308" height="382.905" filterUnits="userSpaceOnUse" color-interpolation-filters="sRGB">
            <feFlood flood-opacity="0" result="BackgroundImageFix"/>
            <feColorMatrix in="SourceAlpha" type="matrix" values="0 0 0 0 0 0 0 0 0 0 0 0 0 0 0 0 0 0 127 0" result="hardAlpha"/>
            <feOffset/>
            <feGaussianBlur stdDeviation="2.16863"/>
            <feColorMatrix type="matrix" values="0 0 0 0 0 0 0 0 0 1 0 0 0 0 0.729412 0 0 0 1 0"/>
            <feBlend mode="normal" in2="BackgroundImageFix" result="effect1_dropShadow_591_14670"/>
            <feColorMatrix in="SourceAlpha" type="matrix" values="0 0 0 0 0 0 0 0 0 0 0 0 0 0 0 0 0 0 127 0" result="hardAlpha"/>
            <feOffset/>
            <feGaussianBlur stdDeviation="4.33725"/>
            <feColorMatrix type="matrix" values="0 0 0 0 0 0 0 0 0 1 0 0 0 0 0.729412 0 0 0 1 0"/>
            <feBlend mode="normal" in2="effect1_dropShadow_591_14670" result="effect2_dropShadow_591_14670"/>
            <feColorMatrix in="SourceAlpha" type="matrix" values="0 0 0 0 0 0 0 0 0 0 0 0 0 0 0 0 0 0 127 0" result="hardAlpha"/>
            <feOffset/>
            <feGaussianBlur stdDeviation="15.1804"/>
            <feColorMatrix type="matrix" values="0 0 0 0 0 0 0 0 0 1 0 0 0 0 0.729412 0 0 0 1 0"/>
            <feBlend mode="normal" in2="effect2_dropShadow_591_14670" result="effect3_dropShadow_591_14670"/>
            <feColorMatrix in="SourceAlpha" type="matrix" values="0 0 0 0 0 0 0 0 0 0 0 0 0 0 0 0 0 0 127 0" result="hardAlpha"/>
            <feOffset/>
            <feGaussianBlur stdDeviation="30.3608"/>
            <feColorMatrix type="matrix" values="0 0 0 0 0 0 0 0 0 1 0 0 0 0 0.729412 0 0 0 1 0"/>
            <feBlend mode="normal" in2="effect3_dropShadow_591_14670" result="effect4_dropShadow_591_14670"/>
            <feColorMatrix in="SourceAlpha" type="matrix" values="0 0 0 0 0 0 0 0 0 0 0 0 0 0 0 0 0 0 127 0" result="hardAlpha"/>
            <feOffset/>
            <feGaussianBlur stdDeviation="52.047"/>
            <feColorMatrix type="matrix" values="0 0 0 0 0 0 0 0 0 1 0 0 0 0 0.729412 0 0 0 1 0"/>
            <feBlend mode="normal" in2="effect4_dropShadow_591_14670" result="effect5_dropShadow_591_14670"/>
            <feColorMatrix in="SourceAlpha" type="matrix" values="0 0 0 0 0 0 0 0 0 0 0 0 0 0 0 0 0 0 127 0" result="hardAlpha"/>
            <feOffset/>
            <feGaussianBlur stdDeviation="91.0823"/>
            <feColorMatrix type="matrix" values="0 0 0 0 0 0 0 0 0 1 0 0 0 0 0.729412 0 0 0 1 0"/>
            <feBlend mode="normal" in2="effect5_dropShadow_591_14670" result="effect6_dropShadow_591_14670"/>
            <feBlend mode="normal" in="SourceGraphic" in2="effect6_dropShadow_591_14670" result="shape"/>
        </filter>
        <linearGradient id="paint0_linear_591_14670" x1="203.573" y1="176.876" x2="139.881" y2="288.22" gradientUnits="userSpaceOnUse">
            <stop stop-color="#0F8AEF"/>
            <stop offset="0.3" stop-color="#2B96F4"/>
            <stop offset="0.83" stop-color="#66B1FF"/>
        </linearGradient>
        <linearGradient id="paint1_linear_591_14670" x1="-3.1828" y1="390.47" x2="-3.1828" y2="237.473" gradientUnits="userSpaceOnUse">
            <stop stop-color="#0F8AEF"/>
            <stop offset="0.3" stop-color="#2B96F4"/>
            <stop offset="0.83" stop-color="#66B1FF"/>
        </linearGradient>
        <linearGradient id="paint2_linear_591_14670" x1="203.573" y1="176.874" x2="139.881" y2="288.218" gradientUnits="userSpaceOnUse">
            <stop stop-color="#0F8AEF"/>
            <stop offset="0.3" stop-color="#2B96F4"/>
            <stop offset="0.83" stop-color="#66B1FF"/>
        </linearGradient>
        <linearGradient id="paint3_linear_591_14670" x1="199.992" y1="176.185" x2="140.275" y2="291.61" gradientUnits="userSpaceOnUse">
            <stop stop-color="#0F8AEF"/>
            <stop offset="0.3" stop-color="#2B96F4"/>
            <stop offset="0.83" stop-color="#66B1FF"/>
        </linearGradient>
        <linearGradient id="paint4_linear_591_14670" x1="-3.1828" y1="390.47" x2="-3.1828" y2="237.473" gradientUnits="userSpaceOnUse">
            <stop stop-color="#0F8AEF"/>
            <stop offset="0.3" stop-color="#2B96F4"/>
            <stop offset="0.83" stop-color="#66B1FF"/>
        </linearGradient>
        <clipPath id="clip0_591_14670">
            <path d="M8.31537 247.473H297.315V305.473H26.3154C16.3742 305.473 8.31537 297.414 8.31537 287.473V247.473Z" fill="white"/>
        </clipPath>
        <clipPath id="clip1_591_14670">
            <rect width="11" height="22" fill="white" transform="matrix(0.481688 0.876343 -0.876911 0.480652 197.315 157.473)"/>
        </clipPath>
        <clipPath id="clip2_591_14670">
            <rect width="297" height="225" fill="white" transform="translate(0 25)"/>
        </clipPath>
        <clipPath id="clip3_591_14670">
            <rect width="61" height="196" fill="white" transform="matrix(0.70913 -0.705078 0.70913 0.705078 154.315 184.471)"/>
        </clipPath>
    </defs>
</svg>
