<svg width="331" height="216" viewBox="0 0 331 216" fill="none" xmlns="http://www.w3.org/2000/svg">
<path d="M68.3608 0.265625L69.1023 10.01L78.8467 10.7515L69.1023 11.4929L68.3608 21.2373L67.6194 11.4929L57.875 10.7515L67.6194 10.01L68.3608 0.265625Z" fill="url(#paint0_radial_94_6426)"/>
<path d="M68.3608 0.265625L69.1023 10.01L78.8467 10.7515L69.1023 11.4929L68.3608 21.2373L67.6194 11.4929L57.875 10.7515L67.6194 10.01L68.3608 0.265625Z" fill="url(#paint1_radial_94_6426)"/>
<path d="M68.3608 0.265625L69.1023 10.01L78.8467 10.7515L69.1023 11.4929L68.3608 21.2373L67.6194 11.4929L57.875 10.7515L67.6194 10.01L68.3608 0.265625Z" fill="url(#paint2_radial_94_6426)"/>
<g clip-path="url(#clip0_94_6426)">
<path d="M315.976 70.4648L314.944 84.0237L301.385 85.0554L314.944 86.0871L315.976 99.6459L317.008 86.0871L330.566 85.0554L317.008 84.0237L315.976 70.4648Z" fill="url(#paint3_radial_94_6426)"/>
<path d="M315.976 70.4648L314.944 84.0237L301.385 85.0554L314.944 86.0871L315.976 99.6459L317.008 86.0871L330.566 85.0554L317.008 84.0237L315.976 70.4648Z" fill="url(#paint4_radial_94_6426)"/>
<path fill-rule="evenodd" clip-rule="evenodd" d="M259.632 129.971L269.921 119.5C274.891 114.477 274.891 106.475 269.921 101.452C265.037 96.4288 257.035 96.4288 252.066 101.452L249.118 104.431L246.171 101.452C241.201 96.4288 233.2 96.4288 228.315 101.452C227.853 101.919 227.434 102.411 227.058 102.925L121.013 209.098L150.868 238.989L259.693 130.032L259.632 129.971Z" fill="url(#paint5_radial_94_6426)"/>
<path d="M228.315 119.5L240.696 132.099L249.118 140.613L257.541 132.099L269.921 119.5C274.891 114.477 274.891 106.475 269.921 101.452C265.037 96.4288 257.035 96.4288 252.066 101.452L249.118 104.431L246.171 101.452C241.201 96.4288 233.2 96.4288 228.315 101.452C223.346 106.475 223.346 114.477 228.315 119.5Z" fill="url(#paint6_radial_94_6426)"/>
</g>
<path d="M190.283 148.9C190.363 142.837 187.604 141.997 187.604 141.997C187.604 141.997 193.508 141.837 193.273 134.228C192.995 125.313 184.148 125.784 184.148 125.784C184.148 125.784 212.908 123.915 209.162 111.741C207.164 105.245 204.98 102.113 190.413 104.288C180.142 105.82 171.861 105.484 171.861 105.484C171.861 105.484 185.16 80.8981 164.222 79.9112C157.428 79.5921 156.298 98.371 148.24 101.327C137.591 105.237 135.197 107.063 128.521 108.915C118.434 111.712 109.813 110.759 110.594 135.068C111.052 149.379 113.231 153.141 127.887 157.643C141.148 161.716 155.694 162.338 163.97 161.238C168.023 160.7 190.123 160.679 190.283 148.904V148.9Z" fill="url(#paint7_linear_94_6426)"/>
<path d="M177.139 144.847C174.036 144.847 170.815 144.314 168.434 142.618C166.171 141.005 164.957 138.553 164.831 135.336C164.722 132.519 165.612 130.209 167.481 128.479C172.432 123.893 182.523 125.006 182.947 125.057C183.371 125.107 183.677 125.489 183.627 125.917C183.577 126.341 183.194 126.648 182.766 126.598C182.669 126.585 172.957 125.514 168.531 129.617C166.99 131.049 166.284 132.896 166.377 135.273C166.486 138.024 167.452 140.01 169.329 141.354C174.93 145.351 186.571 141.921 186.688 141.887C187.095 141.765 187.532 141.996 187.654 142.408C187.776 142.819 187.545 143.252 187.133 143.374C186.818 143.466 182.136 144.847 177.135 144.847H177.139Z" fill="#66B1FF"/>
<path d="M172.243 160.155C171.189 160.155 163.908 159.865 163.19 151.932C162.946 149.249 163.576 147.074 165.058 145.461C167.637 142.661 171.836 142.648 172.008 142.661C172.436 142.661 172.781 143.013 172.776 143.442C172.776 143.87 172.445 144.227 171.995 144.21C171.928 144.21 168.288 144.235 166.192 146.52C165.025 147.796 164.533 149.568 164.735 151.794C165.369 158.811 172.016 158.618 172.298 158.605C172.726 158.609 173.087 158.92 173.104 159.344C173.121 159.772 172.793 160.134 172.365 160.15C172.361 160.15 172.315 160.15 172.239 160.15L172.243 160.155Z" fill="#66B1FF"/>
<path d="M126.021 138.638C142.406 120.837 153.114 108.16 148.545 89.1288C146.466 80.4742 128.343 59.2598 128.343 59.2598C132.668 57.5087 132.983 53.4858 132.983 53.4858C132.496 45.7047 116.854 36.9745 113.419 37.7682C109.979 38.5618 108.388 42.2445 108.388 42.2445C65.2452 35.467 45.7524 56.4547 45.7524 56.4547C43.3841 52.0665 40.2388 51.6676 38.1014 52.1547C32.6592 53.3977 24.6891 63.7319 23.0472 71.6685C22.0394 76.548 31.58 81.2721 31.58 81.2721C32.0168 92.0473 26.9525 100.786 27.7168 111.695C28.4516 122.164 43.8334 133.229 48.3811 140.292C55.4106 151.214 66.3286 157.652 90.8184 157.652C111.248 157.652 112.209 153.637 126.021 138.633V138.638Z" fill="#66B1FF"/>
<path d="M120.558 87.2645C116.56 80.5878 89.1816 86.3407 89.2236 86.5003C89.1816 86.3407 61.8363 92.6227 61.1014 100.95C60.6563 106.018 58.5945 111.41 62.3276 116.613C66.4554 122.366 91.8607 134.531 102.035 131.713C111.866 129.089 125.307 109.147 125.954 102.096C126.538 95.7176 123.17 91.6317 120.558 87.2645Z" fill="white"/>
<path d="M59.4306 65.1306C60.6736 63.6063 65.1668 59.2895 75.1399 60.2637C77.2059 60.4653 79.7297 63.6189 77.0506 66.2476C74.7116 68.5445 62.8488 70.8835 60.7954 70.4006C58.6958 69.9051 57.7467 67.1924 59.4306 65.1306Z" fill="#0073E4"/>
<path d="M107.595 50.2646C105.667 49.8741 99.4564 49.3786 92.3555 56.4459C90.8816 57.9114 90.9278 61.951 94.6693 62.2912C97.9321 62.5893 108.598 56.8826 109.875 55.2113C111.185 53.498 110.206 50.7979 107.595 50.2688V50.2646Z" fill="#0073E4"/>
<path d="M95.4804 86.3403C95.4804 86.3403 78.0326 90.086 79.8677 95.419C81.7027 100.752 94.9722 107.089 99.7132 106.072C106.159 104.359 113.957 93.8317 113.445 88.2131C112.932 82.5946 95.4804 86.3403 95.4804 86.3403Z" fill="#0073E4"/>
<path d="M44.0605 81.8641L130.669 55.8457L130.413 60.2297L125.332 62.1865C125.332 62.1865 125.538 78.7272 110.169 81.8221C98.0919 84.2576 90.9238 72.3066 90.9238 72.3066L87.2327 73.6966C87.2327 73.6966 89.3323 88.3519 76.9782 93.5505C58.9888 101.122 51.5016 85.1605 51.5016 85.1605L45.4211 87.3944L44.0647 81.8599L44.0605 81.8641Z" fill="black"/>
<path d="M57.4644 77.8364L56.0996 91.106C56.0996 91.106 57.0402 91.9584 58.7997 93.0754L61.0253 76.7656L57.4644 77.8364Z" fill="#B0B0B0"/>
<path d="M60.4082 93.9491L62.6464 76.2788L63.5618 76.0059L61.0255 94.2305L60.4082 93.9491Z" fill="#B0B0B0"/>
<path d="M56.5206 90.3132C57.1589 89.7757 57.3982 87.168 57.3982 87.168C57.3982 87.168 57.4948 89.8345 58.1289 90.393C58.6874 90.8843 60.7786 91.0858 60.7786 91.0858C60.7786 91.0858 58.6748 91.069 58.1289 91.6065C57.562 92.165 57.3185 94.6342 57.3185 94.6342C57.3185 94.6342 56.9909 92.1608 56.4156 91.5939C55.8865 91.0732 53.5098 90.9599 53.5098 90.9599C53.5098 90.9599 55.9537 90.8003 56.5206 90.3174V90.3132Z" fill="white"/>
<path d="M46.4872 77.9339C47.537 76.9261 47.9359 72.0508 47.9359 72.0508C47.9359 72.0508 48.0955 77.0353 49.1411 78.0809C50.0649 79.0047 53.5083 79.3742 53.5083 79.3742C53.5083 79.3742 50.0397 79.3406 49.1369 80.3484C48.2341 81.3563 47.7974 86.0048 47.7974 86.0048C47.7974 86.0048 47.2599 81.3815 46.3108 80.319C45.4374 79.3406 41.5195 79.1349 41.5195 79.1349C41.5195 79.1349 45.5466 78.8325 46.483 77.9339H46.4872Z" fill="white"/>
<path d="M100.444 110.567H100.398C87.8041 110.592 86.0824 109.437 81.0896 102.219C79.6072 100.077 76.798 97.633 73.7913 97.7926C71.4944 97.9144 69.4913 99.4387 67.8326 102.328C66.7156 104.28 66.3461 106.435 66.7366 108.74C67.5555 113.565 71.6539 117.873 73.9509 119.658C76.0631 121.3 82.5719 125.692 91.6002 125.692C94.0148 125.692 96.6099 125.377 99.3436 124.613C103.644 123.412 108.212 120.813 108.137 117.113C108.074 114.065 107.142 110.567 100.444 110.567Z" fill="#0E70E3"/>
<path d="M68.9021 103.177C66.2439 107.813 69.2632 112.843 72.0893 115.967L79.2531 102.118C76.9982 99.6115 72.5386 96.84 68.9021 103.181V103.177Z" fill="white"/>
<path d="M100.972 122.502C104.142 121.275 106.897 119.306 106.855 117.152C106.809 114.846 106.347 112.067 100.405 112.079C100.241 112.079 100.081 112.079 99.9219 112.079L100.976 122.502H100.972Z" fill="white"/>
<path d="M73.3145 117.227C73.8142 117.702 74.2761 118.096 74.6582 118.395C77.0728 120.272 80.2096 121.972 83.8293 123.039L86.6134 110.126C84.3542 108.862 82.6451 106.826 80.3817 103.584L73.3187 117.227H73.3145Z" fill="white"/>
<path d="M98.2626 112.075C93.6561 112.025 90.6074 111.735 88.2391 110.874L85.5684 123.493C89.6332 124.408 94.2146 124.5 99.0479 123.148C99.1528 123.119 99.2578 123.085 99.3586 123.056L98.2626 112.079V112.075Z" fill="white"/>
<path d="M72.9512 185.169C75.3027 179.58 70.8096 177.38 70.8096 177.38C70.8096 177.38 77.86 178.694 80.5098 172.244C84.7342 161.96 74.7022 160.15 74.7022 160.15C74.7022 160.15 99.9311 170.149 102.656 156.741C104.21 149.09 97.9617 144.151 87.4091 142.749C77.1126 141.38 69.491 138.134 69.491 138.134C69.491 138.134 90 119.141 70.4946 111.46C64.1664 108.97 57.0445 126.384 48.4655 126.59C37.1234 126.863 35.4689 127.107 28.599 128.035C20.3475 129.148 14.3007 129.95 8.53514 148.468C4.27713 162.141 6.28436 170.304 13.7506 175.373C25.2312 183.158 35.8721 186.752 44.0605 188.373C48.0708 189.167 67.5636 197.969 72.9428 185.169H72.9512Z" fill="url(#paint8_linear_94_6426)"/>
<path d="M41.8187 132.645C44.1156 130.394 44.9807 119.51 44.9807 119.51C44.9807 119.51 45.325 130.638 47.6094 132.968C49.625 135.026 57.1416 135.853 57.1416 135.853C57.1416 135.853 49.5746 135.778 47.6052 138.028C45.556 140.367 44.6825 150.66 44.6825 150.66C44.6825 150.66 43.5109 140.334 41.4365 137.97C39.5259 135.79 30.9805 135.328 30.9805 135.328C30.9805 135.328 39.7694 134.656 41.8187 132.645Z" fill="white"/>
<path d="M165.628 123.839C167.202 123.209 170.1 117.981 170.1 117.981C170.1 117.981 167.702 123.587 168.219 125.229C168.672 126.682 171.943 128.689 171.943 128.689C171.943 128.689 168.475 127.043 167.051 127.74C165.573 128.467 162.806 133.397 162.806 133.397C162.806 133.397 164.637 128.018 164.225 126.401C163.847 124.91 160.018 122.865 160.018 122.865C160.018 122.865 164.217 124.398 165.624 123.835L165.628 123.839Z" fill="white"/>
<defs>
<radialGradient id="paint0_radial_94_6426" cx="0" cy="0" r="1" gradientUnits="userSpaceOnUse" gradientTransform="translate(62.1579 2.28213) rotate(49.4615) scale(20.5537 28.3843)">
<stop stop-color="#FF00D6"/>
<stop offset="0.562168" stop-color="#FF004D"/>
<stop offset="1" stop-color="#FF6291"/>
</radialGradient>
<radialGradient id="paint1_radial_94_6426" cx="0" cy="0" r="1" gradientUnits="userSpaceOnUse" gradientTransform="translate(68.3649 4.38609) rotate(136.73) scale(13.837 17.4184)">
<stop stop-color="#FFE7AB"/>
<stop offset="1" stop-color="#FABC22"/>
</radialGradient>
<radialGradient id="paint2_radial_94_6426" cx="0" cy="0" r="1" gradientUnits="userSpaceOnUse" gradientTransform="translate(68.3649 4.38609) rotate(136.73) scale(13.837 17.4184)">
<stop stop-color="#ADFFEE"/>
<stop offset="1" stop-color="#2DF9FF"/>
</radialGradient>
<radialGradient id="paint3_radial_94_6426" cx="0" cy="0" r="1" gradientUnits="userSpaceOnUse" gradientTransform="translate(324.607 73.2707) rotate(130.538) scale(28.5995 39.4954)">
<stop stop-color="#FF00D6"/>
<stop offset="0.562168" stop-color="#FF004D"/>
<stop offset="1" stop-color="#FF6291"/>
</radialGradient>
<radialGradient id="paint4_radial_94_6426" cx="0" cy="0" r="1" gradientUnits="userSpaceOnUse" gradientTransform="translate(315.97 76.1983) rotate(43.2703) scale(19.2535 24.2369)">
<stop stop-color="#FFE7AB"/>
<stop offset="1" stop-color="#FABC22"/>
</radialGradient>
<radialGradient id="paint5_radial_94_6426" cx="0" cy="0" r="1" gradientUnits="userSpaceOnUse" gradientTransform="translate(267.273 94.0625) rotate(135.023) scale(153.292 214.224)">
<stop stop-color="#00F1FF" stop-opacity="0.92"/>
<stop offset="0.562168" stop-color="#00FFB1" stop-opacity="0.1"/>
<stop offset="1" stop-color="#00C4FF" stop-opacity="0"/>
</radialGradient>
<radialGradient id="paint6_radial_94_6426" cx="0" cy="0" r="1" gradientUnits="userSpaceOnUse" gradientTransform="translate(263.629 101.812) rotate(134.346) scale(44.7101 62.4839)">
<stop stop-color="#F7EB02"/>
<stop offset="0.562168" stop-color="#00FF76"/>
<stop offset="1" stop-color="#00C4FF"/>
</radialGradient>
<linearGradient id="paint7_linear_94_6426" x1="165.25" y1="120.282" x2="118.096" y2="168.949" gradientUnits="userSpaceOnUse">
<stop stop-color="#0F8AEF"/>
<stop offset="0.34" stop-color="#2B96F4"/>
<stop offset="0.95" stop-color="#66B1FF"/>
</linearGradient>
<linearGradient id="paint8_linear_94_6426" x1="53.9967" y1="150.499" x2="-26.1589" y2="141.967" gradientUnits="userSpaceOnUse">
<stop stop-color="#0F8AEF"/>
<stop offset="0.34" stop-color="#2B96F4"/>
<stop offset="0.95" stop-color="#66B1FF"/>
</linearGradient>
<clipPath id="clip0_94_6426">
<rect width="210" height="113" fill="white" transform="translate(120.855 70)"/>
</clipPath>
</defs>
</svg>
