<svg width="341" height="190" viewBox="0 0 341 190" fill="none" xmlns="http://www.w3.org/2000/svg">
<g clip-path="url(#clip0_94_6396)">
<path d="M32.664 119.588C32.0906 120.325 12.6973 190 12.6973 190L128.692 189.834L127.832 169.206L117.821 115.645L32.6685 119.592L32.664 119.588Z" fill="#66B1FF"/>
<path d="M40.6162 136.529C56.9411 121.892 72.1151 137.3 73.3353 138.588C74.7589 137.517 92.3778 124.894 105.934 142.052C115.918 154.689 111.092 176.83 103.702 189.001H34.7694C30.0781 174.341 26.2971 149.364 40.6207 136.524" fill="white"/>
<path d="M111.373 116.813C111.373 116.813 47.3888 127.11 43.0568 123.57C39.3666 120.56 22.8881 106.03 20.4542 102.118C13.3418 90.6952 26.6197 86.3008 23.0913 77.2822C23.0913 77.2822 17.7986 76.0824 16.6809 73.09C14.9813 68.5347 21.7981 57.6315 25.8623 56.3582C28.3748 55.5722 30.647 57.4982 30.647 57.4982C38.8354 47.9279 46.5623 45.4412 50.451 43.9472C64.7404 38.4726 75.7877 40.2286 75.7877 40.2286C76.5128 37.5119 76.7759 36.7305 77.8012 36.326C81.4128 34.8965 92.0353 36.5144 95.3098 41.58C97.3234 44.6965 93.287 49.762 93.287 49.762C96.4414 56.9328 111.063 60.5688 113.298 72.2397C114.158 76.7214 114.472 87.8637 110.015 96.8271C103.406 110.125 111.377 116.813 111.377 116.813H111.373Z" fill="#66B1FF"/>
<path d="M35.293 98.141C39.249 97.0393 41.8309 93.9013 41.0599 91.1321C40.2889 88.3629 36.4569 87.011 32.5009 88.1127C28.5449 89.2143 25.9629 92.3523 26.734 95.1216C27.505 97.8908 31.337 99.2427 35.293 98.141Z" fill="#FFB3DF"/>
<path d="M103.661 71.8189C106.649 69.6432 107.895 66.2647 106.445 64.2728C104.995 62.2809 101.397 62.4299 98.4096 64.6056C95.422 66.7812 94.1756 70.1596 95.6259 72.1516C97.0762 74.1435 100.674 73.9945 103.661 71.8189Z" fill="#FFB3DF"/>
<path d="M15.7914 119.938C15.7914 119.938 -21.16 168.265 -1.73511 182.98C6.18893 188.986 11.6643 189.457 20.0423 188.751C27.6821 188.111 34.8174 178.485 40.2468 168.14C45.6121 157.92 56.136 126.378 48.909 113.171C42.3469 101.18 29.975 100.134 29.975 100.134C29.975 100.134 33.7076 93.5276 29.1494 90.1392C25.4992 87.424 22.3076 89.48 22.3076 89.48L25.0543 88.8623C21.2436 80.2324 6.62925 86.4006 5.93223 100.659C5.27648 114.111 15.7867 119.938 15.7867 119.938H15.7914Z" fill="url(#paint0_linear_94_6396)"/>
<path d="M120.209 114.511C120.209 114.511 157.608 162.453 140.625 180.915C132.329 189.929 124.892 188.968 117.142 188.972C108.525 188.972 102.341 177.575 98.4335 168.515C92.9242 155.736 79.6745 120.027 86.9513 106.842C93.5533 94.8756 105.848 94.0948 105.848 94.0948C105.848 94.0948 102.189 87.3402 106.739 84.0184C110.384 81.3572 113.534 83.5056 113.534 83.5056L110.811 82.8218C114.658 74.1915 129.125 80.7428 129.712 95.1574C130.268 108.759 120.209 114.511 120.209 114.511Z" fill="url(#paint1_linear_94_6396)"/>
<path d="M89.8533 72.6895C86.1557 70.4453 66.2103 77.762 66.2103 77.762C66.2103 77.762 47.337 84.182 46.7139 90.9929C46.4527 93.8166 45.2524 100.025 47.4884 103.506C50.233 107.783 71.9743 110.418 78.7785 107.392C85.3628 104.537 98.5131 87.6955 98.2015 82.6184C97.922 78.0242 93.0148 74.6118 89.8578 72.6895H89.8533Z" fill="white"/>
<path d="M38.9032 69.6639C39.3976 68.3202 41.4494 64.2845 48.3907 62.6417C49.8279 62.2999 52.245 63.8952 51.0342 66.3403C49.9759 68.4769 42.5079 72.8544 41.0198 72.9969C39.4901 73.1393 38.2376 71.487 38.9077 69.6639H38.9032Z" fill="#0E70E3"/>
<path d="M77.4802 53.8352C76.2514 53.1992 72.1386 51.6636 65.944 55.0346C64.6601 55.7342 63.8988 58.4554 66.3702 59.4049C68.5253 60.2363 76.8704 58.4691 78.0625 57.5923C79.2868 56.6928 79.1493 54.6893 77.4849 53.8307L77.4802 53.8352Z" fill="#0E70E3"/>
<path d="M66.6468 78.3285C66.6468 78.3285 54.8777 83.0482 56.7755 86.6326C58.6732 90.217 67.6372 93.5855 71.8842 91.8825C77.5453 89.6117 80.4287 81.4906 79.4199 77.5496C78.4112 73.6087 66.6423 78.3285 66.6423 78.3285H66.6468Z" fill="#0E70E3"/>
<path d="M57.8696 77.3825C55.4107 75.0587 51.3139 73.2259 48.3255 75.6089C46.8358 76.7959 46.0055 78.6604 45.4446 80.4477C45.2157 81.1799 46.3421 81.5027 46.5709 80.7751C47.3068 78.4512 48.7248 75.7044 51.4485 75.6589C53.1491 75.6316 54.7644 76.4866 56.1284 77.478C56.2675 77.5781 56.4022 77.6827 56.5368 77.7873C56.658 77.8828 56.492 77.7463 56.64 77.8691C56.6849 77.9055 56.7253 77.9419 56.7702 77.9782C56.8599 78.0556 56.9496 78.1329 57.0349 78.2147C57.5868 78.7377 58.4259 77.9055 57.874 77.3825H57.8696Z" fill="#0E70E3"/>
<path d="M83.6742 64.9494C80.302 63.6312 75.6546 63.5737 73.2412 66.5065C72.0273 67.984 71.5881 69.8773 71.4417 71.6997C71.3803 72.4429 72.6176 72.4517 72.6743 71.713C72.8774 69.2181 73.8504 66.48 76.5897 65.5997C78.3845 65.0246 80.3068 65.2149 82.0779 65.6749C82.503 65.7855 82.9281 65.9049 83.3343 66.0642C84.0664 66.3517 84.4016 65.237 83.6742 64.9539V64.9494Z" fill="#0E70E3"/>
<path d="M52.3056 95.535C53.9778 96.9588 55.9512 98.0035 57.9616 98.8634C60.5603 99.9774 63.3119 100.726 66.1237 101.073C69.1347 101.443 72.2523 101.29 75.166 100.407C78.4086 99.4273 81.3129 97.5551 83.5642 95.0312C86.5474 91.6891 88.382 87.4779 89.5308 83.1881C89.7068 82.5317 89.8641 81.8706 90.0123 81.205C90.1791 80.4469 89.0165 80.1094 88.8498 80.8722C87.877 85.2636 86.3067 89.6458 83.5088 93.2237C81.5216 95.7708 78.8764 97.8048 75.8237 98.9142C73.0629 99.9219 70.1029 100.204 67.1845 99.9682C64.4561 99.7463 61.7647 99.0713 59.2169 98.0775C57.2621 97.3147 55.2888 96.3116 53.5702 95.0127C53.4266 94.9064 53.5656 95.0127 53.4128 94.8925C53.334 94.8278 53.2506 94.7585 53.1719 94.6938C52.5836 94.1899 51.7126 95.0312 52.3056 95.5397V95.535Z" fill="#0E70E3"/>
<path d="M92.0843 81.1695C90.7853 79.7332 88.7595 79.2477 87.1108 80.1626C86.207 80.6635 85.5031 81.5068 84.9126 82.4063C84.7219 82.6977 84.8627 83.1526 85.1171 83.3213C85.4169 83.5206 85.7393 83.3826 85.9301 83.0913C86.4388 82.3246 87.1063 81.5681 87.8966 81.2257C88.487 80.9701 89.0639 80.9599 89.5953 81.1133C89.727 81.149 89.8587 81.195 89.9859 81.2513C90.0495 81.2768 90.1177 81.3075 90.1813 81.3381C90.0586 81.2768 90.2222 81.3586 90.2449 81.3739C90.4447 81.4864 90.6354 81.609 90.8171 81.747C90.8897 81.8033 90.9624 81.8646 91.0351 81.9208C90.9624 81.8492 91.1623 82.023 91.0351 81.9208C91.0578 81.9412 91.0806 81.9617 91.0987 81.9821C91.1441 82.0281 91.1895 82.069 91.2349 82.1201C91.7799 82.7233 92.6293 81.7879 92.0843 81.1848V81.1695Z" fill="#0E70E3"/>
<path d="M55.2294 93.0825C54.6417 93.0738 54.0261 93.1999 53.4805 93.3913C52.2772 93.8175 51.3537 94.6308 50.9106 95.7704C50.5561 96.6794 50.5748 97.6623 50.7054 98.6105C50.7474 98.9149 51.1625 99.0845 51.4517 99.0149C51.8061 98.928 51.9275 98.6279 51.8855 98.3191C51.8388 97.9668 51.8202 97.5405 51.8481 97.1621C51.8528 97.0664 51.8668 96.9708 51.8761 96.8751C51.8761 96.8577 51.8901 96.762 51.8761 96.862C51.8808 96.8273 51.8902 96.7925 51.8948 96.7577C51.9275 96.5924 51.9694 96.4271 52.0207 96.2662C52.0441 96.1923 52.0719 96.114 52.1046 96.04C52.1232 95.9965 52.1933 95.853 52.1373 95.9661C52.2026 95.8356 52.2725 95.7095 52.3564 95.5877C52.3937 95.5311 52.4358 95.4746 52.4778 95.4181C52.5104 95.3746 52.599 95.2789 52.5104 95.3746C52.599 95.2789 52.6923 95.1832 52.7902 95.0919C52.8742 95.0136 52.9675 94.944 53.0608 94.8744C52.9162 94.9832 53.0887 94.857 53.1213 94.8352C53.1726 94.8005 53.2239 94.77 53.2798 94.7396C53.3731 94.6874 53.4712 94.6396 53.5645 94.5917C53.6158 94.5656 53.6717 94.5439 53.723 94.5221C53.7463 94.5134 53.765 94.5047 53.7883 94.496C53.9003 94.4481 53.6484 94.5395 53.7697 94.5047C54.1241 94.396 54.4645 94.3003 54.8329 94.2437C54.8469 94.2437 54.8609 94.2437 54.8796 94.2394C54.9962 94.222 54.8142 94.2568 54.8049 94.2481C54.8189 94.2568 54.9028 94.2394 54.9215 94.235C54.9728 94.2307 55.0243 94.2263 55.0802 94.2263C55.1315 94.2263 55.1827 94.222 55.2294 94.2263C56.0129 94.235 56.0268 93.0999 55.2433 93.0912L55.2294 93.0825Z" fill="#0E70E3"/>
</g>
<path d="M103.419 19.8399L94.8289 23.7307L88.9966 26.3486L86.5137 20.4598L82.8805 11.7608C81.4155 8.28622 82.9896 4.2883 86.4308 2.74364C89.8302 1.18253 93.7799 2.73621 95.2449 6.21081L96.1139 8.27172L98.155 7.35553C101.596 5.81087 105.546 7.36455 106.969 10.8227C108.434 14.2973 106.86 18.2952 103.419 19.8399Z" fill="#FF0199"/>
<path d="M111.932 39.5387L107.82 42.6314L105.025 44.7186L103.031 41.8566L100.105 37.6248C98.9287 35.9362 99.3054 33.6103 100.954 32.3788C102.579 31.1434 104.854 31.5115 106.03 33.2001L106.728 34.2017L107.706 33.4713C109.355 32.2398 111.629 32.6079 112.782 34.2926C113.958 35.9813 113.581 38.3072 111.932 39.5387Z" fill="#FF0199"/>
<path d="M41.5971 30.9375L40.3648 35.9323L39.5179 39.3154L36.1636 38.357L31.2204 36.9265C29.2412 36.361 28.0628 34.3206 28.5625 32.3245C29.041 30.3406 31.0366 29.1888 33.0157 29.7543L34.1896 30.0897L34.486 28.9058C34.9857 26.9096 36.9812 25.7579 38.9392 26.3356C40.9184 26.9011 42.0968 28.9414 41.5971 30.9375Z" fill="#FF0199"/>
<path d="M202.534 136.978L190.631 141.567L182.551 144.651L179.735 136.471L175.622 124.391C173.96 119.565 176.434 114.271 181.201 112.452C185.914 110.607 191.089 113.027 192.751 117.853L193.737 120.716L196.564 119.637C201.332 117.817 206.507 120.238 208.114 125.038C209.776 129.865 207.302 135.158 202.534 136.978Z" fill="#FF0199"/>
<g clip-path="url(#clip1_94_6396)">
<path d="M334.966 189.32L302.869 201.695L281.083 210.01L273.489 187.954L262.398 155.381C257.917 142.368 264.588 128.094 277.442 123.188C290.149 118.213 304.105 124.739 308.585 137.753L311.243 145.472L318.867 142.562C331.722 137.656 345.678 144.183 350.01 157.127C354.491 170.141 347.82 184.414 334.966 189.32Z" fill="#FF0199"/>
</g>
<defs>
<linearGradient id="paint0_linear_94_6396" x1="46.6524" y1="112.552" x2="-19.0286" y2="164.85" gradientUnits="userSpaceOnUse">
<stop stop-color="#0F8AEF"/>
<stop offset="0.3" stop-color="#2B96F4"/>
<stop offset="0.83" stop-color="#66B1FF"/>
</linearGradient>
<linearGradient id="paint1_linear_94_6396" x1="85.1436" y1="108.117" x2="154.22" y2="163.741" gradientUnits="userSpaceOnUse">
<stop stop-color="#0F8AEF"/>
<stop offset="0.3" stop-color="#2B96F4"/>
<stop offset="0.83" stop-color="#66B1FF"/>
</linearGradient>
<clipPath id="clip0_94_6396">
<path d="M0.632812 35.8281H153.061V189H18.6328C8.69167 189 0.632812 180.941 0.632812 171V35.8281Z" fill="white"/>
</clipPath>
<clipPath id="clip1_94_6396">
<path d="M243.855 110H340.855V172C340.855 181.941 332.797 190 322.855 190H243.855V110Z" fill="white"/>
</clipPath>
</defs>
</svg>
