<svg  fill="none" xmlns="http://www.w3.org/2000/svg">
<path d="M1.28186 13.5705L1.28189 13.5705C1.21886 12.8362 1.60902 12.162 2.26333 11.6464L2.26572 11.6446L2.26573 11.6446C2.97852 11.0922 3.95595 10.7522 5.0114 10.6627L5.01253 10.6626C6.23227 10.5629 7.40822 10.8104 8.23284 11.3917L8.24135 11.3977C8.30213 11.4405 8.38825 11.5011 8.46608 11.5762L11.0599 2.54116L11.0627 2.53143L11.0628 2.53147C11.1379 2.29428 11.3516 2.12288 11.6122 2.11591L11.6182 2.11575L11.6182 2.1158L21.1848 2.01411C21.3076 2.01158 21.4296 2.04615 21.5332 2.11916C21.5336 2.11947 21.5344 2.11995 21.5353 2.12061C21.5493 2.12994 21.6164 2.17479 21.67 2.25413C21.7778 2.40055 21.8117 2.59167 21.7581 2.76543L18.7427 13.2957C18.6012 13.9732 18.1062 14.5391 17.4595 14.9454C16.803 15.3579 15.9549 15.6307 15.0346 15.7078L15.0342 15.7078C14.0446 15.7896 13.0726 15.6403 12.2936 15.2698L12.2915 15.2689C12.1169 15.1846 11.9505 15.0869 11.8003 14.981C11.2551 14.5967 10.9056 14.0747 10.8472 13.47L10.847 13.4682C10.7749 12.6815 11.2205 11.9696 11.9546 11.4471L11.9549 11.4469C12.6516 10.9519 13.587 10.6399 14.5818 10.5609C15.8001 10.4613 16.9791 10.7043 17.8044 11.2861L17.8129 11.2921C17.8737 11.3349 17.9598 11.3955 18.0377 11.4706L20.412 3.19927L12.069 3.28578L9.17381 13.3974C9.03234 14.0749 8.53738 14.6408 7.89061 15.0472C7.23418 15.4596 6.38609 15.7325 5.46576 15.8095L5.46537 15.8095C4.47572 15.8913 3.50375 15.742 2.72469 15.3716L2.72267 15.3706C2.5496 15.287 2.38448 15.1903 2.23536 15.0855L1.28186 13.5705ZM1.28186 13.5705L1.28225 13.5745C1.34053 14.1777 1.68851 14.6987 2.23146 15.0827L1.28186 13.5705ZM7.56276 12.3422L7.6685 12.4167C7.90748 12.6138 8.0127 12.8197 8.03135 13.0054C8.05654 13.2986 7.87029 13.6589 7.37922 13.9923C6.89854 14.3187 6.19144 14.5666 5.37292 14.6337L5.37142 14.6338C4.57215 14.7025 3.79555 14.5754 3.2409 14.3078C3.11873 14.248 3.0123 14.1871 2.92418 14.1249C2.60703 13.9014 2.47729 13.6686 2.45968 13.4667L2.45963 13.4662C2.4336 13.1726 2.61963 12.8117 3.11162 12.4776C3.5923 12.1512 4.2994 11.9033 5.11792 11.8362L5.1193 11.8361C6.11239 11.7511 7.02453 11.9628 7.56276 12.3422ZM17.1344 12.2366L17.2401 12.3111C17.4791 12.5082 17.5843 12.7141 17.6029 12.8998C17.6281 13.1931 17.4419 13.5533 16.9508 13.8867C16.4701 14.2131 15.763 14.461 14.9445 14.5281L14.943 14.5282C14.1439 14.5969 13.3675 14.4699 12.8128 14.2024C12.6905 14.1425 12.584 14.0815 12.4958 14.0193C12.1786 13.7958 12.0489 13.563 12.0313 13.3611L12.0311 13.3589C12.0065 13.0952 12.1633 12.7479 12.6474 12.4041C13.1508 12.0496 13.8932 11.7957 14.6894 11.7306L14.6909 11.7305C15.684 11.6455 16.5961 11.8572 17.1344 12.2366Z" fill="#FF0199" stroke="#FF0199" stroke-width="0.75"/>
</svg>
