<svg width="158" height="146" viewBox="0 0 158 146" fill="none" xmlns="http://www.w3.org/2000/svg">
<g clip-path="url(#clip0_94_3386)">
<path d="M14 134C56.4098 133.678 81.7628 132.672 93.3841 130.404C112.757 130.901 132.352 130.901 157.652 130.901C160.38 132.386 146.211 103.181 145.049 99.7046C143.637 95.4753 142.235 91.3396 144.132 87.3024C147.024 81.1428 154.654 72.5495 152.939 62.0724C150.922 49.7221 143.658 28.4931 143.658 28.4931C151.866 21.8561 151.037 17.959 151.037 17.959C146.42 4.30103 134.965 0.69453 131.536 1.48329C128.107 2.27205 124.715 7.44049 124.715 7.44049C109.899 -0.576828 99.0749 0.00954886 93.5144 0.00954886C73.0704 0.00954886 60.1515 7.47163 60.1515 7.47163C56.9674 1.39507 54.5441 1.39507 54.5441 1.39507C48.5667 1.39507 36.8986 8.42644 35.2622 16.3088C34.2564 21.1556 42.9437 27.7147 42.9437 27.7147C40.2755 38.4875 31.3016 55.1708 32.2136 64.1325C33.2141 73.9868 39.6189 83.0939 43.0948 88.2364C45.0543 91.1372 42.4955 94.7696 41.4011 98.0855C40.1296 101.931 15.1621 130.285 14.0104 134H14Z" fill="#66B1FF"/>
<path d="M124.788 55.3958C122.416 48.0051 94.5004 48.9629 94.5056 49.1319C94.5004 48.968 67.3581 49.6902 64.784 57.6135C63.2167 62.4381 64.099 71.944 66.5433 77.8442C69.2524 84.3641 85.5325 97.4296 96.0106 96.9891C106.11 96.6665 122.354 82.4025 124.559 75.6982C126.552 69.6341 126.334 60.2306 124.782 55.3958H124.788Z" fill="white"/>
<path d="M82.9703 44.6827C85.4485 40.6957 84.2153 35.4709 80.2159 33.0127C76.2165 30.5546 70.9654 31.7939 68.4872 35.7809C66.009 39.7679 67.2421 44.9927 71.2415 47.4509C75.2409 49.909 80.492 48.6697 82.9703 44.6827Z" fill="white"/>
<path d="M119.987 42.628C121.792 38.2945 119.737 33.3321 115.396 31.5443C111.056 29.7564 106.074 31.82 104.268 36.1535C102.463 40.487 104.519 45.4494 108.859 47.2372C113.2 49.0251 118.182 46.9615 119.987 42.628Z" fill="white"/>
<path d="M66.1392 22.568C67.5466 21.2388 72.5014 17.5797 82.3169 19.5912C84.3522 20.0106 86.5078 23.3109 83.5464 25.5498C80.9617 27.5057 68.8913 28.466 66.9083 27.7786C64.873 27.0711 64.2347 24.3672 66.1392 22.5629V22.568Z" fill="#0073E4"/>
<path d="M121.976 21.3676C120.628 19.8845 115.843 15.7415 105.876 17.375C103.812 17.7136 101.469 21.1096 104.328 23.6406C106.824 25.8491 118.901 27.4934 120.934 26.8647C123.019 26.2198 123.803 23.3773 121.976 21.3676Z" fill="#0073E4"/>
<path d="M95.0001 52C95.0001 52 77.3469 52 78.0187 57.5515C78.6853 63.1031 88.6282 72 95.0001 72C103.491 72 111.315 63.1031 111.982 57.5515C112.648 52 95.0001 52 95.0001 52Z" fill="#0073E4"/>
<path d="M77.2613 76.8997C79.4571 79.0057 82.1591 80.7368 84.8767 82.0877C90.286 84.7793 96.5272 85.935 102.412 84.1269C106.865 82.7606 110.658 79.9098 113.763 76.5093C114.522 75.6772 113.282 74.4444 112.523 75.2765C109.867 78.189 106.7 80.7316 102.959 82.1031C100.056 83.1664 96.9612 83.5003 93.8923 83.1253C89.1236 82.5449 84.6184 80.3515 80.7849 77.5367C80.0564 77.0025 79.2452 76.3758 78.5064 75.6669C77.6953 74.8862 76.4502 76.119 77.2665 76.8997H77.2613Z" fill="#0073E4"/>
<path d="M102 44L123 46.1835L122.67 51L103.754 46.8867L102 44Z" fill="#66B1FF"/>
<path d="M65 46.7949L85.361 43L86 45.799L67.1857 50L65 46.7949Z" fill="#66B1FF"/>
</g>
<path d="M6.25535 112C-5.13143 119.961 1.25921 143.256 7.85956 143.43C16.6408 143.662 16.9449 136.868 14.5281 129.007C14.5281 129.007 17.186 147.171 30.0407 145.94C42.5284 144.746 34.2033 126.991 34.2033 126.991C34.2033 126.991 37.9831 140.957 44.4891 141.352C52.4473 141.841 55.315 132.995 50.9846 119.598C45.8574 103.728 26.4391 97.8813 6.25535 111.994V112Z" fill="url(#paint0_linear_94_3386)"/>
<path d="M118.478 108.261C130.926 114.335 122.827 135.719 116.634 138.001C111.36 139.943 106.549 136.337 107.799 128.378C107.799 128.378 106.817 140.886 95.7813 140.999C86.6839 141.092 87.393 130.537 87.393 130.537C87.393 130.537 85.0084 140.428 78.5005 139.943C71.8928 139.449 68.7465 131.474 72.8172 119.687C78.1538 104.217 96.4116 97.4942 118.478 108.261Z" fill="url(#paint1_linear_94_3386)"/>
<path d="M77.6238 43.9652C74.9712 44.4279 67.4028 40.1941 70.9114 36.3223C73.418 33.5522 75.8889 37.4209 75.8889 37.4209C75.8889 37.4209 76.304 33.4609 79.3164 34.0621C84.0411 35.0033 81.9236 43.216 77.6238 43.9683V43.9652Z" fill="#FF0199"/>
<path d="M111.74 43.9257C109.323 43.3949 104.381 36.7029 108.724 34.3704C111.83 32.7038 112.568 37.2016 112.568 37.2016C112.568 37.2016 114.313 33.6658 116.663 35.3163C120.347 37.9094 115.659 44.788 111.743 43.9257H111.74Z" fill="#FF0199"/>
<defs>
<linearGradient id="paint0_linear_94_3386" x1="29.5578" y1="145.997" x2="25.3934" y2="104.209" gradientUnits="userSpaceOnUse">
<stop stop-color="#0F8AEF"/>
<stop offset="0.47" stop-color="#118BEF"/>
<stop offset="0.69" stop-color="#3199F5"/>
<stop offset="1" stop-color="#66B1FF"/>
</linearGradient>
<linearGradient id="paint1_linear_94_3386" x1="107.698" y1="140.584" x2="105.928" y2="102.719" gradientUnits="userSpaceOnUse">
<stop stop-color="#0F8AEF"/>
<stop offset="0.47" stop-color="#118BEF"/>
<stop offset="0.69" stop-color="#3199F5"/>
<stop offset="1" stop-color="#66B1FF"/>
</linearGradient>
<clipPath id="clip0_94_3386">
<rect width="144" height="131" fill="white" transform="translate(14)"/>
</clipPath>
</defs>
</svg>
